<svg preserveAspectRatio="none" width="100%" height="100%" overflow="visible" style="display: block;" viewBox="0 0 164.4 133.394" fill="none" xmlns="http://www.w3.org/2000/svg">
<path id="Vector 132" d="M72.1419 48.9126C69.5546 51.4605 65.3934 55.1199 63.9625 56.6466C63.9295 56.6775 63.9052 56.6907 63.8841 56.6942C63.6701 56.776 63.4098 56.5284 63.2788 56.6155C63.1528 56.697 63.1625 56.6956 63.1461 56.841C63.1327 56.9833 63.1187 57.3079 63.0609 57.8636C63.0232 58.2448 62.3142 57.8139 62.2951 58.241C62.2585 59.468 62.4808 61.0787 62.6557 62.7254C62.6381 62.929 63.0635 64.2412 63.5538 65.4928C64.1381 67.0246 64.8823 68.6753 65.6495 70.3195C68.6296 76.7029 71.83 80.4833 78.642 83.7802C81.0073 85.1236 83.8281 85.6764 87.5958 86.1447C89.7716 86.4561 92.0395 86.4471 94.3146 86.1391C96.1905 85.8867 98.2642 85.4826 100.295 84.8095C101.308 84.4742 102.311 84.072 103.218 83.6137C103.673 83.3836 104.105 83.1379 104.468 82.8982C104.644 82.783 104.813 82.6602 104.927 82.5679C105.035 82.4884 105.134 82.3608 104.962 82.5642C104.94 82.5964 105.045 82.3979 105.077 81.9518C105.101 81.5951 104.484 81.7222 104.446 81.6494C104.292 81.3403 104.24 81.1019 104.313 80.6315C104.34 80.4455 104.378 80.2418 104.443 79.9962C104.459 79.9348 104.478 79.8707 104.498 79.8034C104.529 79.6984 104.568 79.5787 104.616 79.4492C104.713 79.1896 104.846 78.8786 105.081 78.4971C105.216 78.2935 105.852 77.2053 107.268 76.5545C107.956 76.2306 108.813 76.0691 109.54 76.1063C110.173 76.1332 110.719 76.2788 111.146 76.4485C112 76.7968 112.445 77.2015 112.73 77.4697C112.909 77.6479 113.034 77.7995 113.135 77.9318C113.329 78.1903 113.448 78.4054 113.505 78.5314C113.555 78.6469 113.589 78.7457 113.615 78.8358C113.667 79.0172 113.686 79.161 113.685 79.267C113.704 79.7486 113.616 80.0689 113.751 80.5902C114.628 84.5615 115.885 88.3159 117.86 90.8967C118.366 91.5565 118.895 92.1279 119.439 92.6069C120.621 93.5735 120.269 91.7027 120.961 93.1312C121.018 93.2307 120.329 93.4922 120.622 93.7997C121.27 94.5187 123.034 95.3213 123.804 95.6708C125.276 96.371 125.556 96.445 127.125 96.9365C129.274 97.5957 131.946 98.5506 134.472 98.989C135.017 99.0819 134.456 98.2938 135.324 98.3816C135.482 98.3977 135.686 98.4298 135.921 98.474C136.87 98.6565 138.318 98.9624 138.863 99.1516C139.527 99.3882 139.178 99.851 139.287 99.981C140.243 101.105 142.734 99.801 142.984 99.7298C146.951 99.1642 149.957 98.3647 153.368 96.3861C153.04 96.6794 153.328 96.5473 153.5 96.1403C153.695 95.7406 153.875 95.1569 154 94.5167C154.644 91.0722 154.243 86.6629 153.838 82.888C153.818 82.7003 153.79 82.5083 153.754 82.3129C153.046 78.796 150.587 74.976 147.987 70.7944C147.96 70.751 147.932 70.7075 147.904 70.6641C147.647 70.2631 147.303 71.1333 146.989 70.654C143.658 65.6402 139.159 61.2207 134.43 56.8679C134.369 56.8116 134.308 56.7558 134.248 56.7007C133.783 56.2765 134.828 56.2444 134.386 55.7905C133.027 54.4194 131.232 52.6365 129.284 51.9435C127.365 51.2285 125.434 51.803 124.099 53.1787C124.098 53.2205 124.098 53.2633 124.098 53.307C124.069 53.2913 123.931 53.2949 123.786 53.3231C123.715 53.336 123.638 53.3559 123.597 53.3642C123.578 53.3673 123.566 53.3694 123.594 53.3478C123.61 53.3361 123.635 53.3191 123.694 53.277C123.761 53.223 123.828 53.1975 124.116 52.9143C124.323 52.6735 124.703 52.3744 125.001 51.3319C125.374 50.2552 124.722 48.5488 124.183 48.1054C123.656 47.56 123.346 47.4471 123.127 47.3337C122.916 47.2381 122.777 47.1974 122.676 47.1693C122.288 47.0733 122.238 47.1003 122.168 47.0981C122.06 47.1087 122.083 47.1253 122.05 47.1442C121.906 47.2581 122.409 47.1449 122.915 46.8536C123.438 46.5709 124.03 46.1821 124.609 45.8315C124.729 45.7589 124.834 45.7039 124.927 45.6637C125.635 45.4337 125.639 46.4121 126.144 45.195C126.238 44.8944 125.509 44.9074 125.653 44.522C126.146 43.2233 126.202 41.3543 125.993 38.6621C125.965 38.5297 125.896 38.308 125.774 38.0582C125.617 37.7507 125.097 38.0054 124.974 37.9529C124.024 37.5721 124.271 35.3205 124.077 34.8708C122.817 31.6798 120.734 29.8372 118.409 27.4602C117.86 26.9079 117.976 28.0944 117.43 27.5876C116.09 26.3435 114.706 25.0931 113.323 23.8689C112.359 22.9931 110.517 21.9754 108.806 21.0397C108.066 20.6366 109.033 20.3475 108.688 20.1231C107.143 19.1465 106.303 20.136 104.777 19.2544C104.448 19.0689 104.846 18.6279 104.804 18.5465C104.161 17.2719 102.805 18.207 102.543 18.1393C100.941 17.7374 99.7465 17.061 98.5816 16.3449C97.3518 15.573 96.1103 14.7868 94.4192 14.3797C94.0364 14.2902 94.6757 15.2163 93.6172 14.9273C90.2298 14.016 86.6902 13.1654 83.1374 12.3422C79.322 11.4579 75.477 10.6943 71.7277 10.0673C70.6067 9.8839 71.4559 9.42772 71.3914 9.35674C70.3043 8.24553 69.4425 9.55709 69.076 9.58588C68.6553 9.61352 68.2393 9.61318 67.8316 9.59755C65.4012 9.50241 63.1274 8.86469 61.4772 10.2974C57.239 10.2105 53.0171 10.6301 48.8892 11.4474C45.6083 12.0787 42.5461 13.6928 40.5998 15.9996C37.8704 18.9622 35.4192 19.6728 33.8245 21.341C33.2872 21.7424 32.7588 23.0467 32.4375 24.405C32.404 24.5503 31.7681 24.2052 31.7041 24.5046C31.059 28.1572 32.2154 27.5359 33.496 29.9461C33.8243 30.549 32.3548 32.5082 32.2516 32.6901C31.862 33.3264 30.8391 32.7244 30.7673 32.9358C30.3119 34.3744 32.4249 34.3501 33.2736 35.557C33.4602 35.7629 33.5893 35.9999 33.6353 36.315C33.6379 36.3735 33.0033 36.2198 32.9651 36.3821C32.8486 36.9047 33.1934 37.3389 33.1362 37.8733C33.0206 39.0734 31.7404 40.2881 33.5652 41.5841C33.8098 41.7279 35.1674 40.4801 36.1419 42.0269C36.4931 42.6668 38.7619 45.2172 39.4114 45.9978C40.0232 46.7892 39.1169 46.7297 39.1468 46.7974C39.4504 47.3596 39.649 47.7732 39.762 48.0913C40.1129 49.1133 39.5883 49.1802 39.8151 50.5728C40.139 52.3727 41.6268 49.9599 42.2757 50.0964C42.8081 50.2456 43.7804 51.4233 44.1796 52.7741C44.2958 53.1219 44.2766 53.6071 44.1416 53.8727C43.9413 54.271 43.764 54.2871 43.6897 54.2821C43.6077 54.2674 43.5835 54.1865 43.5544 54.1122C43.4981 53.9467 43.4242 53.8859 43.1641 54.0245C42.3197 54.279 41.9213 54.1818 41.6485 54.3457C41.3823 54.4769 41.3027 54.6966 41.2826 54.9547C41.2423 55.4682 41.4993 56.1245 40.9658 56.3852C38.4585 57.5645 36.7161 55.3738 34.6281 55.1063C34.0611 55.0306 34.508 55.5208 34.0008 55.5466C33.7595 55.558 33.5329 55.5582 33.3126 55.5506C31.7165 55.4992 30.5538 55.0352 28.5799 55.5796C28.2058 55.6781 26.4478 56.9666 25.2513 56.1144C25.0785 55.9913 25.5224 55.4474 24.677 55.378C23.4105 55.2696 21.1277 55.3547 19.8202 55.7134C18.8564 55.978 20.0961 56.6592 18.8417 56.5806C18.2881 56.5513 19.2063 55.8919 18.1586 55.885C17.6938 55.8849 16.88 55.9906 16.1347 56.1912C15.2258 56.4331 14.3409 56.9219 13.8963 57.2093C13.0877 57.7454 13.9012 57.9984 13.8561 58.0769C13.5994 58.511 12.4694 59.8725 12.3709 59.9958C11.6022 60.738 10.8784 61.545 10.1968 62.3888C7.62232 65.3501 7.68795 69.5158 8.98822 73.7932C9.36436 75.2929 12.3112 76.5842 14.7852 77.245C15.4144 77.4162 15.2051 76.6329 15.3032 76.6523C17.5015 77.0143 15.3013 78.2592 16.674 79.2794C16.8187 77.88 17.6553 78.3806 19.2441 78.6157C20.0147 78.7278 19.7318 78.1057 19.8132 78.0692C21.1108 77.545 21.6437 78.745 21.7995 79.0021C22.3664 79.9448 23.3839 79.2123 23.7769 79.8416C24.1713 80.4668 22.8316 80.9698 24.352 81.2941C24.8823 80.9024 24.0374 79.3899 25.2309 79.4361C25.299 79.4388 25.368 79.442 25.4379 79.4458C27.4127 79.5236 30.3004 79.8034 33.1087 79.9404C33.2342 79.9478 33.3556 79.9512 33.4119 79.9544C33.4319 79.9587 33.4575 79.9516 33.332 79.9877C33.2514 80.0291 33.1864 79.9763 32.7316 80.3144C32.6379 80.3902 32.4457 80.5758 32.312 80.8161C32.1536 81.0832 32.0501 81.4836 32.0732 81.8226C32.1404 82.5368 32.3904 82.7471 32.4972 82.8981C32.7278 83.1502 32.7838 83.1522 32.8322 83.188C32.874 83.2117 32.885 83.2137 32.887 83.2122C32.8892 83.2076 32.8546 83.1857 32.8132 83.163C32.7274 83.1161 32.6075 83.0602 32.4803 83.0034C30.6312 82.1891 28.374 81.8617 27.0041 81.7544C23.5578 81.5539 22.426 81.7839 20.4055 81.7956C19.9081 81.8062 19.5034 81.8395 19.1779 81.8854C17.4512 82.2949 18.2697 82.8562 17.2449 83.9345C16.1747 85.3844 15.1966 83.1691 14.6266 82.9836C14.0244 82.8652 14.1514 83.4955 13.6712 83.6296C13.183 83.7794 13.5171 82.8292 12.7828 83.5614C11.9865 84.31 11.3882 87.1557 11.7581 87.6816C12.4694 88.818 13.9681 88.3006 12.658 90.2773C12.5953 90.376 12.2932 89.9297 12.0464 90.069C12.0022 90.0924 11.9602 90.135 11.9229 90.2041C10.0349 93.8827 9.91991 98.6962 9.33618 103.081C9.32734 103.15 9.31086 103.204 9.28851 103.246C9.11405 103.576 8.57626 103.163 8.53044 103.483C8.09135 107.232 9.27884 105.916 10.722 107.713C8.98533 107.446 7.91856 108.696 8.57053 111.589C9.00668 113.306 9.66852 112.8 10.5115 113.667C10.7605 113.92 10.7117 115.223 11.1296 115.285C12.4892 115.47 13.1704 113.978 13.9071 116.632C13.9412 116.751 13.1991 116.699 13.3601 117.092C14.1278 118.914 15.024 119.251 16.0663 120.263C16.4069 120.53 16.7681 120.828 17.2455 121.259C18.3856 122.48 21.6568 124.734 24.2369 125.42C23.6898 127.301 26.369 127.439 27.5869 126.259C28.245 126.389 28.9317 126.491 29.6229 126.586C30.5778 126.72 31.5732 126.712 32.532 126.701C33.072 126.689 32.8065 127.293 32.8816 127.344C34.1443 128.115 34.6129 126.626 34.9177 126.486C36.4719 125.806 37.9307 125.224 39.2168 124.5C39.8492 124.196 40.3732 123.327 41.6529 122.493C42.8068 121.802 44.0666 121.438 45.2893 121.037C45.422 120.991 45.6221 119.609 46.7748 120.535C46.8431 120.6 45.56 121.281 47.4355 121.23C48.4212 121.191 49.8718 121.383 50.9936 120.874C51.9634 120.43 52.8332 119.363 53.1913 118.294C53.4102 117.708 53.1437 115.965 54.3954 115.227C54.5673 115.126 54.8487 115.446 55.1408 115.316C56.0816 114.864 54.9711 113.978 56.3693 113.523C57.765 113.067 59.2672 111.358 59.072 108.558C59.0689 108.494 58.5912 108.033 58.3871 107.49C58.308 107.283 58.2657 107.062 58.3044 106.839C58.5326 105.563 58.8491 103.705 58.9085 102.332C58.9369 101.675 58.2467 102.063 58.24 101.948C58.2018 100.493 58.196 99.2015 58.5414 97.8042C58.617 97.5371 58.7047 97.262 58.8675 96.9613C58.9544 96.8077 59.056 96.6402 59.2573 96.4638C59.443 96.2856 59.8508 96.1279 60.1658 96.1919C60.7763 96.329 60.9373 96.6112 61.1434 96.8108C61.3319 97.0231 61.48 97.2273 61.6224 97.4113C62.5438 98.61 63.972 99.6127 65.7931 100.392C66.6042 100.766 69.1724 100.527 70.6665 101.516C72.3436 102.594 69.9097 105.609 74.4147 105.4C75.4297 105.339 76.6944 104.065 78.0865 103.365C79.203 102.819 80.3035 102.584 81.7358 103.443C86.5621 102.736 91.2495 101.285 94.7787 97.9291C95.81 97.0016 96.2114 95.5725 96.1079 94.329C96.0968 94.0754 95.3143 93.4771 94.958 93.0161C94.875 92.8808 94.8208 92.7687 94.8092 92.6684C94.7915 92.5267 94.7941 92.4665 94.7908 92.3461C94.7911 92.3227 94.7924 92.304 94.7948 92.2903C94.799 92.2802 94.7914 92.2406 94.8186 92.3057C94.8226 92.3145 94.8275 92.3255 94.8349 92.3406C94.8386 92.3482 94.8429 92.3568 94.8483 92.3669C94.8561 92.3673 94.8635 92.4534 95.0461 92.6019C95.1362 92.6747 95.3616 92.7758 95.5987 92.716C95.833 92.6577 95.946 92.5155 95.9977 92.4405C96.0962 92.2804 96.0864 92.2346 96.0977 92.1962C96.1089 92.1207 96.1026 92.1472 96.1034 92.1369C96.1015 92.1221 96.0981 92.1199 96.095 92.122C96.0884 92.1243 96.0825 92.1596 96.0761 92.17C96.0277 92.3362 95.9719 92.528 95.9124 92.6807C95.7976 93.027 95.6804 93.319 95.6984 93.6693C95.833 96.4757 96.6395 98.9676 97.0434 101.629C97.2072 102.64 96.5792 102.395 96.8062 103.61C96.9953 104.542 97.5807 105.151 97.9688 106.066C98.0884 106.335 98.2072 106.63 98.3376 106.986C98.7191 108.112 98.8115 110.276 100.404 111.411C101.229 110.153 102.223 110.818 104.28 111.155C104.672 111.217 104.458 110.585 104.651 110.588C105.425 110.582 105.946 111.197 106.702 111.107C106.885 111.086 107.029 110.596 107.183 110.548C107.67 110.393 108.185 110.504 108.668 110.717C109.207 111.023 110.047 111.501 110.248 111.616C111.538 112.303 112.085 111.517 113.086 111.619C114.125 111.695 112.738 112.391 113.931 112.304C116.427 112.105 119.401 110.953 121.705 110.034C122.625 109.663 121.738 109.29 121.864 109.222C123.673 108.29 125.856 108.082 126.292 106.372C127.831 107.797 127.97 107.377 128.268 106.62C128.542 105.972 128.746 105.259 129.731 104.572C129.877 104.469 131.502 105.143 130.951 106.156C130.579 106.799 129.684 107.319 128.8 107.705C128.391 107.885 127.987 108.103 127.645 108.417C127.426 108.624 126.549 110.748 126.368 110.93C124.997 112.357 123.765 110.172 123.629 110.085C122.071 109.161 120.817 111.467 120.329 111.77C118.169 113.152 116.01 113.487 113.954 114.34C112.591 114.876 112.696 116.508 111.356 116.607C109.983 116.683 108.711 116.426 107.467 115.874C105.752 114.84 104.733 113.913 101.78 114.18C100.86 114.194 100.855 116.326 98.6026 113.446C98.4187 113.245 97.1587 110.915 95.5281 110.06C95.3139 109.953 94.9072 110.276 94.6868 110.049C94.078 109.406 93.6829 108.678 93.4042 107.911C93.0726 106.957 92.9793 106.25 92.6484 105.405C92.0948 103.978 91.5031 102.366 91.4273 100.784C91.3793 99.828 92.1656 98.5053 92.3404 98.0356C92.8446 96.7102 91.5781 95.512 92.3122 94.6452C93.0537 93.7824 94.4555 95.1453 94.7861 93.0842C93.4408 93.143 92.0484 93.0745 90.6895 93.0526C90.6798 92.9164 90.6691 92.7652 90.6592 92.56C90.6553 92.4147 90.6448 92.4543 90.6505 91.973C90.6525 91.9101 90.6554 91.8359 90.6631 91.7329C90.6873 91.6142 90.5988 91.8922 90.7904 90.9288C90.8564 90.6849 90.9241 90.3663 91.2404 89.7695C91.5594 89.2464 92.2233 87.9844 94.3167 87.4097C96.4915 86.8764 98.207 88.0424 98.7316 88.5793C99.3514 89.1843 99.5179 89.543 99.6688 89.8023C99.7616 89.979 99.7257 89.9126 99.7483 89.957C99.76 89.9809 99.771 90.0038 99.7814 90.0258C99.8022 90.0698 99.8205 90.1104 99.8371 90.1482C99.8701 90.2238 99.8962 90.2884 99.9184 90.3457C99.9625 90.4602 99.9915 90.5464 100.015 90.6191C100.061 90.7633 100.084 90.8554 100.104 90.9325C100.182 91.2624 100.167 91.2227 100.185 91.3154C100.267 91.8091 100.278 91.9758 100.316 92.2942C100.626 94.5839 100.272 98.351 97.318 100.822C95.3588 102.412 93.0188 103.928 90.5225 105.073C89.9153 105.349 90.8338 105.74 90.1737 106.051C87.3185 107.341 84.5402 107.4 81.4926 107.762C80.2784 107.903 79.003 108.121 77.7034 108.261C76.615 108.407 75.5017 108.538 74.4131 108.512C73.2409 106.841 69.9544 106.942 67.492 106.194C66.6348 105.934 66.7944 105.547 66.2199 105.25C64.0438 104.072 64.705 105.68 63.9655 105.661C60.6973 105.265 61.5034 102.687 58.7493 100.044C58.7116 100.003 58.6753 99.963 58.6418 99.9275C58.6134 99.8975 58.4204 99.835 58.2294 99.8584C58.136 99.8718 58.0409 99.9076 58.0041 100.008C57.9762 100.108 57.9725 100.279 58.3049 100.591C58.5861 100.871 59.6428 101.477 61.0911 101.192C62.4867 100.89 63.109 100.209 63.4219 99.9575C64.0218 99.3928 64.0806 99.3762 64.1478 99.3177C64.2904 99.1897 64.329 99.2291 64.3554 99.2465C64.4467 99.2538 64.2467 99.287 64.0287 99.2247C63.8069 99.1886 63.5532 99.0912 63.4616 99.3566C63.0724 100.694 62.6645 102.097 63.0079 104.391C63.1006 105.062 64.0268 106.792 62.9464 108.412C62.9366 108.423 62.9267 108.435 62.9165 108.446C62.779 108.602 62.2677 108.396 62.2076 108.529C61.1406 110.932 62.7449 111.394 62.8768 113.046C63.0043 114.71 61.0309 116.616 60.5208 116.92C59.2181 117.761 60.5487 115.877 60.4788 115.778C59.7952 114.679 59.3891 116.322 58.7537 117.485C57.1666 116.973 56.4655 118.575 58.0788 118.686C58.2627 118.694 58.5815 117.691 58.7537 117.485C59.7721 119.177 58.9451 121.469 55.9909 122.596C55.3493 122.825 55.0477 122.609 54.6731 122.624C54.2723 122.62 53.9575 122.883 52.6273 123.771C52.4035 123.91 52.1544 124.051 51.8789 124.188C50.203 124.911 51.1083 125.822 49.6047 126.395C46.8917 127.237 44.6934 126.64 44.1354 126.902C44.3422 126.717 44.079 126.878 43.7153 127.311C43.3467 127.724 43.4017 127.9 43.5667 127.985C43.7129 128.082 43.9363 128.119 43.5606 128.505C43.2475 128.819 42.8436 129.161 42.3516 129.472C40.6863 130.508 39.1226 130.865 37.4392 131.66C37.2562 131.744 37.936 132.216 37.2743 132.44C34.6089 133.316 31.7958 133.659 28.758 133.169C26.8128 132.818 24.8069 132.4 22.5607 131.837C20.2896 131.313 15.7714 130.124 13.2635 127.952C12.0403 126.951 10.8182 125.544 9.96687 123.832C8.78347 121.271 7.44117 117.955 6.4288 115.516C5.49619 113.249 5.06536 113.928 4.33972 112.996C2.90067 111.103 4.05899 107.184 4.30996 106.756C4.30475 106.748 4.64907 108.8 4.88324 107.664C5.53043 106.981 4.31553 106.782 4.30996 106.756C4.39481 106.541 4.40452 104.565 4.47909 103.099C4.50529 102.477 4.51107 101.941 4.479 101.706C4.42417 101.306 3.79194 101.506 3.77537 101.297C3.53643 97.1257 3.28122 92.7427 5.42196 87.3822C5.81094 86.4871 6.25319 85.6061 6.75901 84.7393C6.81941 84.6511 7.36518 85.1146 7.49791 84.9076C9.44167 82.0751 10.0033 79.6514 12.9351 76.9341C14.38 75.6629 16.315 74.8119 18.1345 74.6732C19.2822 74.6271 20.2743 74.8768 21.1193 75.4308C23.0666 75.1073 25.8791 75.5967 27.4849 76.0093C29.0817 76.4157 29.4546 75.1139 29.6098 75.0966C31.497 74.9609 33.1632 75.1372 35.072 75.8381C35.2634 75.9115 35.4769 75.9941 35.7891 76.1325C35.9493 76.2046 36.128 76.2849 36.4145 76.4375C36.5577 76.515 36.7369 76.6132 36.9956 76.7834C37.2848 77.0043 37.5941 77.0983 38.4485 78.1097C38.8085 78.6426 39.7298 79.6019 39.7037 82.003C39.599 84.4348 37.9827 85.9449 37.4198 86.3444C36.0351 87.3041 35.6721 87.2291 35.3051 87.3667C34.6452 87.5279 34.3991 87.5299 34.1548 87.5535C33.6942 87.5845 33.4402 87.5733 33.1811 87.5641C31.6442 87.4601 30.1442 87.2595 28.2116 87.0493C27.173 86.9293 25.6604 86.8083 23.9015 86.483C22.3247 86.2013 20.6731 85.9289 19.5058 85.7379C17.7765 85.4557 16.8209 84.8947 15.1544 84.6528C14.9298 84.6192 14.9887 85.2637 14.9161 85.2679C12.8798 85.4466 14.1688 84.268 13.8696 83.9072C12.7619 82.5487 12.1704 81.9066 9.52817 81.2415C8.96623 81.0946 6.11893 82.1266 4.41328 80.7803C3.38348 79.9521 3.15225 79.3617 2.97051 78.8782C2.79873 78.3286 2.5149 77.9286 1.77135 76.0729C1.76834 76.0666 1.76529 76.0601 1.76218 76.0536C1.7132 75.946 1.27396 76.1332 1.03724 75.2897C-0.151808 71.55 -0.978378 64.4256 2.40161 59.0714C2.82878 58.3676 1.62166 58.8747 2.26569 57.842C2.49274 57.4917 2.72086 57.1648 2.96901 56.8333C5.30739 53.7587 8.62161 50.2786 13.9493 48.8853C14.2995 48.8 14.619 48.7375 14.8981 48.6909C16.0517 48.5153 15.453 49.1917 15.7235 49.2897C17.2871 49.9102 18.7874 48.336 19.0977 48.2706C24.4743 47.1028 28.7501 47.696 33.5899 47.8715C34.8734 47.9243 36.1792 47.9354 37.4905 47.8369C37.8294 47.8196 40.3367 46.3715 40.7622 47.5442C40.7656 47.5871 40.9805 47.8804 40.8901 48.1253C40.8566 48.1908 40.8 48.2535 40.6526 48.3422C40.506 48.4362 40.275 48.5299 39.7834 48.8368C39.3233 49.1651 38.3251 49.7245 37.5634 51.5315C36.8282 53.3732 37.2792 55.127 37.5387 55.8612C37.5631 55.9591 37.5852 56.0483 37.6043 56.1303C37.6178 56.1883 37.4871 56.0957 37.3283 55.959C37.1734 55.7706 37.0143 55.5348 36.9295 55.4901C36.8457 55.438 36.8262 55.6367 36.9882 56.1171C37.0905 56.5491 37.4349 57.1294 37.5494 57.2127C37.7246 57.3407 37.1766 56.9333 36.551 56.437C35.9094 55.912 35.1405 55.2132 34.4555 54.0774C34.3991 53.9829 34.3354 53.855 34.267 53.7049C34.0484 52.9429 33.7619 51.4835 32.0084 50.9001C31.9023 50.9184 28.0951 50.1057 28.6543 48.1388C28.7567 47.8073 30.2019 47.0597 28.1233 45.4599C27.7233 45.1287 27.8723 46.1096 26.9892 45.0902C25.6304 43.4784 24.808 40.6577 23.6448 37.7346C23.5483 37.4968 23.1794 36.9021 22.9421 36.0817C22.69 35.5265 22.5467 34.8436 22.9822 34.2051C23.1101 34.0183 23.688 34.3339 23.7242 33.7256C23.9155 30.8001 23.379 27.7653 24.0567 24.2136C24.3285 22.9248 25.1416 23.7063 25.5947 22.3628C26.0097 21.2612 26.622 18.8404 28.2939 16.603C28.4865 16.3227 28.6553 16.0642 28.7871 15.8274C29.6128 14.4329 27.345 14.5394 29.0624 12.863C31.1918 10.9653 33.1598 9.5451 32.7894 9.82951C36.7596 5.02745 42.0441 2.93535 47.0508 2.10214C48.3697 1.89716 49.7144 1.70898 51.051 1.53595C52.207 1.39267 51.1751 1.0031 52.8868 0.775145C57 0.218126 63.0853 -0.265795 68.2711 0.166189C71.0264 0.378983 73.5142 0.807933 75.3161 1.40248C79.4505 2.80906 74.0478 2.80114 77.2119 3.5733C78.7192 3.94872 80.6532 2.55874 81.0436 2.57255C82.546 2.60937 83.8349 2.84712 85.0453 3.15034C86.8223 3.59856 88.4325 4.17593 90.3878 4.51074C91.062 4.62733 90.5747 3.80268 91.1488 3.9108C93.1162 4.27728 95.0753 5.12698 96.9514 5.63968C97.7952 5.87054 97.7963 5.32371 98.5606 5.60978C99.7931 6.07083 100.916 6.58589 102.022 7.24003C102.498 7.53429 102.965 7.85081 103.439 8.2004C103.571 8.29773 102.34 8.52815 103.571 9.01841C105.564 9.81244 107.894 11.2 110.475 11.7097C111.241 11.8633 111.729 10.7597 112.986 12.2046C113.26 12.5208 112.21 13.5931 114.616 13.3593C114.951 13.3406 118.254 13.3043 120.3 15.6533C120.421 15.831 120.514 16.0212 120.573 16.2229C120.721 16.7233 120.766 18.3214 121.578 18.8148C121.692 18.8798 121.745 18.0581 122.366 18.5426C124.543 20.265 126.546 22.3683 128.632 24.4572C129.193 25.0226 128.921 23.687 129.743 24.5549C131.973 27.0592 134.577 30.2071 135.898 35.4355C136.286 37.5419 135.425 36.1927 135.406 36.3624C135.254 37.1949 135.251 37.9463 135.294 38.6601C135.384 39.1156 136.02 39.5318 136.078 39.8116C136.589 42.4344 136.058 46.3233 133.668 50.2936C132.993 51.3608 134.008 50.9845 133.91 51.2259C132.695 53.6398 133.027 51.5362 131.963 52.4783C131.947 52.4901 131.929 52.503 131.912 52.5172C130.184 53.6343 129.317 55.7163 123.916 57.2219C123.202 57.3516 122.591 57.4156 121.738 57.391C121.281 57.3622 120.861 57.3731 119.814 57.0931C119.545 57.0145 119.204 56.9076 118.732 56.6876C118.245 56.4351 117.579 56.1708 116.531 55.0624C115.45 54.1426 114.247 50.8255 114.978 48.7591C115.566 46.7474 116.321 46.1268 116.768 45.619C117.541 44.8709 117.79 44.7648 118.071 44.5665C118.33 44.3986 118.527 44.2871 118.706 44.1893C119.058 43.9979 119.344 43.8645 119.622 43.7437C121.475 43.0289 119.11 43.0751 120.841 42.5041C121.711 42.2548 122.644 42.0649 123.81 42.0228C125.438 41.8854 129.854 41.8148 133.019 43.2215C136.182 44.5095 138.296 46.1605 140.123 47.7369C140.864 48.3955 140.027 48.4626 140.111 48.6875C140.184 48.8952 140.29 49.081 140.42 49.249C141.176 50.2624 142.907 50.4915 143.268 50.6653C145.157 51.5674 145.429 52.4722 146.816 53.6335C150.351 56.6149 154.027 60.5789 156.878 65.332C158.878 68.7719 161.447 72.3538 163.182 77.2097C163.653 78.5821 164.035 80.1037 164.184 81.7603C164.447 85.1769 164.482 88.3663 164.219 91.7016C164.076 93.3757 163.874 95.0706 163.403 97.0081C162.696 98.9171 162.932 101.314 158.554 104.638C156.616 105.845 153.996 107.281 151.192 108.195C150.452 108.435 151.429 108.913 150.774 109.128C144.769 111.026 138.723 110.512 133.44 109.298C131.452 108.841 129.447 108.4 127.342 107.93C126.768 107.799 127.412 108.694 126.487 108.505C124.57 108.115 122.054 107.354 119.945 106.259C118.919 105.72 120.569 105.749 119.552 105.219C117.192 103.986 114.37 102.241 112.115 100.13C111.164 99.2352 112.034 101.166 110.832 99.9262C110.082 99.1265 109.411 98.3056 108.809 97.4906C106.899 94.8719 105.718 92.3908 104.713 89.983C104.217 88.7783 103.784 87.5912 103.399 86.4574C103.209 85.8964 103.026 85.336 102.877 84.8783C102.808 84.6626 102.728 84.4323 102.741 84.4387C102.746 84.4445 102.76 84.472 102.806 84.5625C102.85 84.6402 102.92 84.811 103.222 85.268C103.33 85.4278 103.469 85.6244 103.682 85.8791C103.789 86.0065 103.916 86.1486 104.073 86.308C104.155 86.39 104.23 86.4641 104.342 86.5669C104.505 86.7152 104.694 86.8761 104.925 87.0471C105.85 87.6705 107.426 88.8239 110.571 88.4098C113.738 87.9538 115.556 85.2752 115.667 85.0181C116.455 83.7005 116.518 82.995 116.58 82.8059C116.644 82.5149 116.669 82.3249 116.686 82.1836C116.55 82.8964 116.296 86.5519 113.857 89.4815C112.848 90.6802 112.327 90.9885 111.789 91.4006C111.263 91.7781 110.79 92.0687 110.33 92.3309C109.416 92.8492 108.55 93.2512 107.682 93.6063C107.003 93.8795 105.851 92.8266 104.673 93.6337C104.732 94.0504 104.921 94.49 105.043 94.9101C99.2017 97.4298 92.7509 98.4841 86.2258 97.6315C82.7418 97.1942 77.7194 96.4909 73.2821 94.0462C70.9656 92.7872 67.7735 91.163 64.9574 88.8508C64.4658 88.4467 64.8363 89.7573 63.8692 88.9546C59.422 85.1817 56.3929 80.719 54.3805 76.1419C53.9024 75.0284 53.4504 73.878 53.0374 72.6528C52.8396 72.0566 54.2038 71.7855 53.256 70.1914C53.084 69.9442 51.7915 67.2896 51.2642 66.3099C51.1865 66.1789 50.7516 67.078 50.4138 65.8087C50.2947 65.3215 50.186 64.7847 50.1106 64.1707C49.9109 62.5105 49.5792 60.8134 49.4758 58.1925C49.2727 55.6546 50.2311 51.4308 52.084 49.0653C52.8457 47.9952 53.5185 47.2842 54.1741 46.6132C54.8141 45.9752 54.6973 47.1415 55.1532 46.7005C58.3134 43.7192 61.1008 40.5145 64.3675 38.4629C66.5494 37.1208 66.6091 38.6254 68.3662 38.6488C68.611 38.6531 69.8142 37.6854 70.3042 38.1556C71.5322 39.3347 72.1475 41.2271 73.5242 42.4278C73.823 42.6804 75.0754 41.1242 74.7701 42.5807C74.7443 42.6803 73.8428 43.8262 73.7823 44.2946C73.7364 44.6202 74.5114 44.8627 74.3131 45.3968C74.1181 45.9285 73.3301 45.844 72.9229 46.6311C72.5235 47.4203 73.2998 47.7702 72.1419 48.9126ZM34.9684 78.9254C35.1307 79.0597 35.2672 79.124 35.7158 79.506C35.8345 79.617 35.9714 79.7307 36.2021 80.0445C36.3758 80.305 36.8043 80.9016 36.7367 81.9564C36.6499 83.0253 35.9956 83.6894 35.7052 83.9202C35.3682 84.1886 35.1805 84.2653 35.0128 84.344C34.43 84.5785 34.3255 84.5625 34.1505 84.6184C33.9996 84.6591 33.9021 84.6932 33.8151 84.732C33.4903 84.882 33.3685 85.0992 33.3402 85.3237C33.3232 85.5457 33.4082 85.7731 33.7237 85.889C33.9092 85.9382 34.0555 85.9966 34.6726 85.884C34.8528 85.8439 35.0638 85.8043 35.4907 85.6283C35.7516 85.5084 36.0193 85.412 36.5679 84.975C36.7853 84.7989 37.2085 84.3944 37.5147 83.8656C37.8635 83.3006 38.1292 82.4042 38.0938 81.6244C37.9777 79.9519 37.3664 79.4035 37.0813 79.0143C36.7803 78.6717 36.5674 78.5121 36.4009 78.3882C36.0789 78.1588 35.8894 78.0748 35.7304 78.0058C35.4681 77.8987 34.8507 78.835 34.9684 78.9254ZM94.007 100.874C91.8578 101.144 91.4383 103.102 93.1045 103.071C94.8312 102.954 94.6888 100.756 94.007 100.874ZM95.0826 102.571C95.5234 100.356 92.1195 100.557 93.2058 102.738C93.2696 102.867 95.0586 102.702 95.0826 102.571ZM63.9719 42.933C64.0065 42.9431 64.8485 42.2244 64.8477 42.1841C64.78 41.2215 63.0878 42.666 63.9719 42.933ZM109.809 113.371C109.422 113.122 108.652 113.122 108.094 113.179C107.711 113.248 107.473 113.443 107.777 113.777C107.819 113.824 107.869 113.866 107.926 113.904C108.901 114.458 110.658 113.88 109.809 113.371ZM34.6137 53.937C34.6335 53.9736 35.4146 54.0335 35.4053 53.8313C35.3759 53.1811 34.2819 53.3249 34.6137 53.937ZM133.109 96.2826C132.938 101.285 129.297 102.851 130.434 98.5086C130.59 97.6744 131.096 100.416 131.485 99.383C131.907 98.2494 131.476 97.243 131.167 96.3254L131.171 96.3838C131.045 96.0569 130.905 95.8141 130.886 95.7944C130.876 95.7788 130.917 95.7882 130.915 95.7307C130.915 95.6762 130.854 95.5705 130.731 95.444C130.633 95.3704 130.988 94.8712 131.701 94.9106C132.48 95.0046 133.016 96.0042 133.097 96.1869C133.098 96.1962 133.1 96.224 133.101 96.2333C133.109 96.2577 133.113 96.2772 133.113 96.291C133.112 96.2882 133.111 96.2854 133.109 96.2826ZM33.5778 81.8806C33.567 81.8687 33.3616 81.8718 33.127 81.8646C32.8192 81.8568 32.4553 81.8521 32.4409 81.8699C32.1032 82.2973 32.6645 82.5112 33.1326 82.4598C33.5084 82.4246 33.8305 82.1965 33.5778 81.8806ZM32.3461 21.7832C32.3922 21.7647 32.7153 21.0557 33.066 20.6912C33.3528 20.3665 33.6157 20.1034 33.6191 20.0649C33.6245 19.2992 32.9192 19.4732 32.3128 20.046C31.5507 20.7554 31.4865 22.0793 32.3461 21.7832ZM24.2643 125.48C25.5377 125.01 26.8297 125.163 27.5819 126.258C26.4641 126.022 25.3455 125.795 24.2643 125.48Z" fill="var(--stroke-0, #7CB3D4)"/>
</svg>
