<svg preserveAspectRatio="none" width="100%" height="100%" overflow="visible" style="display: block;" viewBox="0 0 109.482 95.2491" fill="none" xmlns="http://www.w3.org/2000/svg">
<path id="Vector 129" d="M61.0627 68.0951C61.1023 68.0275 61.1426 67.9591 61.1835 67.8899C62.7232 65.3272 64.5789 62.7001 66.5284 60.1239C67.6009 58.6697 69.3381 56.6791 70.7679 55.558C71.1198 55.266 71.3238 55.1397 71.469 55.0737C71.8081 54.926 71.7903 55.1502 72.339 54.7283C73.8523 53.5691 75.1259 52.3155 76.7274 51.2289C77.2621 50.8699 76.9173 51.7239 77.4688 51.3432C78.812 50.4391 79.8757 49.6016 81.7498 48.5809C83.7052 47.5849 85.7404 46.744 87.9219 46.1479C88.7843 45.9125 89.6518 45.7091 90.5207 45.5362C95.1729 44.6523 99.4693 44.6458 103.696 44.6606C103.781 44.6618 103.86 44.662 103.908 44.6619C103.931 44.6621 103.947 44.6617 103.929 44.6642C103.92 44.6656 103.902 44.6674 103.854 44.6741C103.8 44.6836 103.75 44.6824 103.487 44.7478C103.414 44.7671 103.308 44.797 103.174 44.8462C103.106 44.8709 102.984 44.9186 102.857 44.9802C102.719 45.051 102.604 45.0969 102.288 45.3236C101.993 45.5812 101.673 45.7016 101.146 46.7416C100.654 47.7077 100.814 49.1924 101.246 49.8974C101.984 51.1092 102.343 51.1037 102.541 51.2788C102.953 51.519 103.044 51.5281 103.153 51.5739C103.249 51.6082 103.303 51.6237 103.342 51.6347C103.489 51.6749 103.488 51.669 103.494 51.6701C103.491 51.6673 103.425 51.6537 103.357 51.6422C101.703 51.3761 100.007 51.09 98.2647 50.6936C96.4299 50.3075 93.2871 50.3593 90.5445 50.3753C89.3033 50.3868 88.1032 50.4601 87.0199 50.642C85.8627 50.8356 85.2663 51.0678 83.5762 51.6772C80.7227 52.6438 77.2382 54.295 74.8561 55.8534C74.0582 56.4191 73.3027 57.042 72.5937 57.7211C71.2651 58.9827 70.1302 60.3973 68.7067 62.3677C67.3804 64.1309 66.1288 66.6126 65.0987 68.9525C64.9988 69.1782 64.9172 69.432 64.86 69.696C64.8315 69.8275 64.8089 69.9621 64.7937 70.0913C64.786 70.1557 64.7802 70.2193 64.7767 70.2763C64.7748 70.3054 64.7737 70.3315 64.7731 70.3541C64.7729 70.3652 64.7728 70.375 64.773 70.3803C64.7731 70.3831 64.7733 70.3848 64.7735 70.3828C64.7736 70.3815 64.7737 70.3806 64.7739 70.3743C64.774 70.371 64.7741 70.369 64.7742 70.3613C64.7742 70.3565 64.7743 70.3506 64.7743 70.3414C64.7742 70.3368 64.7742 70.3314 64.7742 70.324C64.774 70.3213 64.7745 70.3184 64.7727 70.2617C64.7722 70.2462 64.7715 70.2277 64.7693 70.1899C64.7644 70.1416 64.7717 70.1271 64.734 69.8872C64.7215 69.8201 64.7089 69.7357 64.6548 69.5536C64.6251 69.4586 64.5873 69.3384 64.4947 69.1461C64.383 68.9439 64.283 68.6711 63.764 68.2204C63.338 67.7777 61.9236 67.3341 60.9745 67.7913C60.0803 68.1822 59.8249 68.6577 59.6523 68.9057C59.3617 69.4098 59.3649 69.56 59.3213 69.6938C59.2299 70.1186 59.2589 70.0863 59.2475 70.1584C59.3378 69.1262 59.5413 68.5974 59.7021 68.0406C59.9461 67.279 59.4081 67.5903 59.4269 67.4368C59.7606 65.1295 60.2535 66.1595 60.8789 64.9132C61.4999 63.6988 62.1081 62.4694 62.6995 61.2057C64.4761 57.4072 66.122 53.3737 67.5551 49.7265C68.3727 47.658 66.7481 49.3835 68.0577 47.5061C68.0584 47.5051 68.0591 47.504 68.0598 47.503C68.0875 47.4628 68.1215 47.4983 68.1635 47.5526C68.2403 47.6493 68.3439 47.8062 68.4807 47.6921C68.5198 47.6588 68.5616 47.6037 68.6061 47.5204C69.2549 46.2879 70.3034 43.8539 70.7891 42.9148C71.7212 41.0969 71.8574 40.8029 72.6476 39.0627C72.767 38.7991 72.889 38.5341 73.0168 38.2583C74.0309 36.0701 75.2532 33.5847 76.1337 31.2281C76.3436 30.6618 75.6314 31.2317 75.9282 30.314C76.227 29.3961 77.2168 27.0525 77.6273 26.2955C78.0397 25.5388 78.2279 26.0039 78.3576 25.8927C78.759 25.5539 79.041 24.9151 79.2355 24.2335C79.5673 23.0793 79.6165 21.8062 79.6756 21.5852C80.4095 18.9511 81.0206 16.6178 81.2904 14.2585C81.3623 13.7544 81.365 13.1513 81.3575 13.0881C81.3703 13.1135 81.3696 13.1986 81.5245 13.4907C81.6427 13.7649 82.2238 14.3655 82.8022 14.4959C83.3585 14.6389 83.5988 14.553 83.7152 14.5356C83.8323 14.507 83.8481 14.4924 83.8441 14.492C82.0209 15.2216 79.5046 16.9471 77.1411 18.4389C76.9363 18.57 76.7299 18.7016 76.5218 18.8335C75.436 19.5028 74.6712 20.3306 73.6765 21.5232C72.2853 23.2166 71.2807 25.7601 70.3122 28.1609C70.1599 28.5394 70.047 28.8633 69.9331 29.2411C69.3824 31.1606 68.9194 33.2958 68.4419 35.2864C67.735 38.2982 67.0579 41.2454 66.4452 44.4553C66.3373 45.0197 66.9769 44.4604 66.8465 45.1491C66.1751 48.7053 65.4883 52.2577 64.8302 55.7621C64.1523 59.3707 63.6867 62.422 63.2979 66.4389C63.2624 66.64 63.2245 66.8403 63.1843 67.0404C63.017 67.8389 62.7406 66.7334 62.5428 67.5164C62.3522 68.2134 62.1944 68.866 61.7531 69.8425C61.728 69.8972 61.7048 69.9461 61.6622 70.0251C61.5724 70.1406 61.6704 70.1726 61.1508 70.6322C61.0295 70.7364 60.4599 71.0841 59.8011 70.9305C59.1756 70.7838 58.8939 70.4105 58.7559 70.2019C58.6196 69.9745 58.6237 69.9459 58.5855 69.8493C58.5577 69.7688 58.5416 69.705 58.5295 69.6502C58.4986 69.5037 58.4935 69.4054 58.4907 69.351C58.4825 69.1138 58.4984 69.0107 58.509 68.8919C58.5336 68.6608 58.5638 68.4711 58.5949 68.2743C58.6575 67.8879 58.7254 67.5101 58.7919 67.134C58.9258 66.3794 59.0572 65.6236 59.1647 64.8756C59.5775 61.7828 59.4609 58.6224 58.3461 57.0538C58.356 56.8441 58.3657 56.6291 58.375 56.4148C58.5646 53.6184 58.1964 50.4924 58.1454 47.8755C58.1188 46.4877 58.5767 47.1547 58.5174 46.5283C58.5011 46.3544 58.4396 46.0626 58.31 45.5911C58.1791 45.1124 57.8608 45.819 57.697 45.0991C57.0062 42.071 56.5257 38.699 55.7351 35.7144C55.5731 35.1073 55.2223 35.3486 55.1203 35.1866C54.2865 33.8289 54.7408 31.2137 54.7049 30.6701C54.6101 29.2798 54.459 28.0298 54.2716 26.8439C53.8847 24.5016 53.4208 22.3435 52.6933 20.1471C52.4179 19.3409 52.2574 20.471 51.9674 19.6916C51.9185 19.5602 51.8694 19.4285 51.8188 19.2916C50.7266 16.3705 49.4157 13.2652 48.0287 10.7054C47.5619 9.88171 47.0553 9.09023 46.506 8.27031C45.9754 7.47923 46.8593 7.91038 46.6213 7.51593C46.0726 6.61861 45.5348 6.18062 45.0073 5.68237C44.9313 5.69201 44.7853 5.78637 45.1354 5.98939C45.8251 6.32279 46.9644 5.90739 47.1708 5.65144C47.497 5.37136 47.5488 5.2357 47.605 5.1576C47.7035 4.98896 47.6949 4.98474 47.6974 4.98905C47.6908 5.0138 47.6487 5.14682 47.5987 5.30334C47.5032 5.61954 47.1603 5.37603 47.1081 5.42966C46.2879 6.38657 47.1339 7.53303 47.1267 7.8141C47.1019 10.0822 46.7185 11.8631 46.3902 13.7343C46.1731 15.0148 45.929 16.2951 45.8099 17.7794C45.774 18.228 46.3744 17.2773 46.2424 18.5358C46.0259 20.578 45.7473 22.6145 45.5562 24.6015C45.195 28.4556 45.0051 32.3466 45.3689 36.0744C45.521 37.6625 45.851 39.2557 46.2699 40.8416C46.4376 41.4786 46.6223 42.105 46.8254 42.7267C47.2156 43.8857 46.5608 43.209 46.5463 43.2962C46.3737 44.7481 47.5921 45.1405 47.7896 45.4881C48.6937 47.0943 49.3408 48.7674 50.1139 50.1857C50.6887 51.2382 51.3347 52.1459 52.2118 52.7467C54.5758 57.3098 57.1651 61.7654 59.7159 66.2552C61.5164 69.3822 63.3424 72.8678 65.0117 75.6645C64.9722 75.6202 65.0064 75.6172 64.7408 75.3605C64.6532 75.2907 64.5634 75.1826 64.2048 75.029C64.0904 74.9772 63.3419 74.7075 62.5942 75.1657C61.8564 75.6435 61.7748 76.2652 61.7395 76.5027C61.7041 77.0217 61.777 77.0838 61.7925 77.1889C61.8167 77.2751 61.8322 77.3148 61.8442 77.347C61.878 77.4334 61.8807 77.4345 61.8891 77.4536C61.9013 77.4794 61.8987 77.473 61.8994 77.4743C61.8977 77.4704 61.8931 77.4609 61.8856 77.446C61.8737 77.4221 61.856 77.3879 61.8398 77.3568C61.8055 77.2909 61.7709 77.2254 61.7322 77.153C61.6586 77.0149 61.5841 76.8769 61.5067 76.7346C61.3542 76.454 61.1972 76.1682 61.0409 75.8849C60.7283 75.3185 60.4106 74.7481 60.0932 74.1788C59.4592 73.0417 58.8201 71.8992 58.1859 70.7557C57.021 68.6564 55.818 66.555 54.6209 64.4507C54.5333 64.2992 55.0907 64.3031 54.9136 64.0011C52.7647 60.3781 52.6173 61.4504 50.3024 59.7128C49.9002 59.4136 49.588 58.2135 49.4076 57.4317C49.3275 57.0804 49.2747 56.8129 49.259 56.7519C49.0753 56.0328 50.0507 56.1884 49.9566 55.9715C49.1454 54.185 47.5407 55.8087 45.9649 53.8054C45.9182 53.7402 46.4541 53.7451 46.3534 53.5508C46.0413 52.9463 45.4986 52.5329 45.1999 51.9336C44.5174 50.5622 45.0318 49.4442 43.0672 48.0883C42.8174 47.9218 42.1169 49.0779 40.6887 47.2964C40.3755 46.9055 39.4363 45.8049 38.5358 44.7546C37.8022 43.8957 37.0895 43.0888 36.7818 42.7093C36.0938 41.8666 36.9047 42.1167 36.865 42.0483C35.1697 39.5987 36.1095 40.2336 35.428 38.6245C35.2942 38.335 35.1569 38.1604 35.0187 38.0648C34.3923 37.6319 33.7525 38.803 33.2366 38.6313C32.6135 38.4245 31.0919 36.7141 30.746 36.2668C30.3928 35.8107 31.1044 36.0083 30.7628 35.646C28.4754 33.2674 29.0474 35.5853 28.0176 35.2307C27.0513 34.9141 26.3788 34.4086 25.8206 33.9616C24.9854 33.3035 23.7947 32.4711 22.473 32.1619C21.8713 32.0267 22.3154 32.4259 21.7733 32.3747C19.633 32.1974 18.3435 31.6504 15.8607 32.0045C15.7948 32.0144 15.686 32.0448 15.5438 32.0867C14.8128 32.2932 13.404 32.8648 12.3473 32.5273C12.1605 32.4712 12.5903 32.019 11.7023 32.1168C10.784 32.2308 9.57936 32.5547 8.405 33.3594C8.46886 33.3274 8.58582 33.2559 8.66317 33.0915C8.75382 32.9122 8.70039 32.6874 8.67317 32.6384C8.61172 32.5057 8.58076 32.497 8.57194 32.4834C8.55032 32.4634 8.56808 32.4794 8.5856 32.4901C8.62311 32.5147 8.6832 32.5491 8.74104 32.5798C8.86337 32.6448 8.98921 32.7045 9.12005 32.764C9.37571 32.8796 9.63001 32.9829 9.85902 33.068C10.9001 33.4505 9.9911 32.388 11.1864 33.1342C11.7211 33.467 10.5233 33.2992 11.542 33.8994C12.5304 34.4775 15.136 35.6771 16.2181 36.1984C16.2461 36.2116 16.2731 36.2245 16.2991 36.237C17.3387 36.7527 16.9816 36.0742 17.0787 36.0883C17.6868 36.1844 19.7257 37.2114 19.8787 37.3351C21.7083 38.5569 23.3465 39.8753 24.9598 41.1619C27.98 43.5852 30.818 46.0709 33.6587 48.5762C35.436 50.1126 37.2252 51.8714 38.7425 53.7243C39.4609 54.5732 40.1712 55.4243 40.8943 56.2762C41.374 56.8433 41.4305 56.1638 41.5075 56.2473C43.2495 58.1113 41.0234 57.324 41.7995 58.9701C42.3864 58.1768 42.9029 59.1046 44.0927 60.4386C44.6666 61.0801 44.6651 60.4842 44.7433 60.5222C44.9496 60.6297 45.1248 60.7568 45.2654 60.8846C45.9531 61.509 45.9594 62.3135 45.9887 62.5368C46.1178 63.5248 47.2069 63.7491 47.3365 64.3982C47.4818 65.0549 46.1605 64.5016 47.3896 65.7035C47.9672 65.7838 47.6888 64.2864 48.701 65.0494C49.5849 65.7049 50.6218 66.5113 51.7644 67.3909C54.1669 69.2869 58.0005 70.487 61.0157 70.9601C60.9589 70.9549 60.877 70.946 60.7325 70.9698C60.656 70.9877 60.5939 70.9847 60.386 71.0948C60.2031 71.1929 59.9962 71.4122 59.9117 71.6482C59.7704 72.0802 59.8684 72.2553 59.9009 72.3825C59.9434 72.4941 59.9556 72.5055 59.9764 72.5432C60.0498 72.6567 60.0398 72.6262 60.0405 72.6279C60.0322 72.6131 59.9917 72.5678 59.9511 72.5261C59.8634 72.4362 59.7669 72.3456 59.6599 72.2493C59.4545 72.0641 59.2368 71.8807 59.0319 71.7122C58.6165 71.3716 58.2236 71.0695 57.8761 70.8138C55.8987 69.3712 54.6898 68.6379 53.616 67.9584C53.0034 67.5753 52.4061 67.2233 51.6906 66.7958C48.135 64.7452 49.1752 66.0252 46.7477 65.2149C44.2976 64.4292 46.0951 63.4634 45.9035 62.9913C45.8764 62.9243 45.8425 62.8701 45.8032 62.8254C45.5698 62.5587 45.154 62.6383 44.8629 62.3329C44.5217 61.9768 45.521 62.1469 44.5652 61.6589C43.6072 61.1605 40.6599 60.6734 40.181 60.8906C39.1625 61.3364 40.1057 62.5511 37.5765 61.31C37.4296 61.2375 38.0733 61.0197 37.5051 60.7629C37.4625 60.7438 37.4215 60.7254 37.3821 60.7075C36.6777 60.3878 35.885 60.0972 35.1049 59.787C31.9361 58.6607 28.2479 58.2343 24.7894 57.6454C24.2628 57.56 23.7319 57.4888 23.2016 57.4266C22.5349 57.3511 23.1578 56.9059 22.7659 56.8582C18.6544 56.4698 20.1137 57.3271 17.9426 58.2841C18.3274 57.2407 17.4239 56.5733 15.1299 56.5842C14.7684 56.5874 14.4077 56.6031 13.9858 56.6374C12.1165 56.7918 12.4913 57.281 11.3197 57.7562C10.9654 57.899 9.62145 57.676 9.40784 57.9451C8.71049 58.8278 10.0248 59.5529 6.85859 59.5879C6.72008 59.5895 7.09599 59.0991 6.62337 59.1359C5.24628 59.2446 4.28521 59.5496 3.868 59.8766C3.9064 59.8469 3.96659 59.9655 4.32813 59.5198C4.40922 59.3989 4.49 59.2168 4.51101 59.0051C4.53316 58.7939 4.49199 58.6102 4.45094 58.4934C4.35016 58.2327 4.28322 58.1798 4.23834 58.1162C4.09781 57.9524 4.1962 58.0125 4.26919 58.0118C4.43639 58.037 4.6854 58.0852 4.95657 58.1408C5.50753 58.2554 6.17725 58.4166 7.05248 58.7118C8.64324 59.2453 10.9453 60.3065 13.1036 61.3771C14.348 61.992 15.5778 62.591 16.6035 63.0598C16.0285 64.2603 18.7685 65.1058 20.2087 64.7558C20.2557 64.7781 20.303 64.8006 20.3506 64.8231C21.768 65.493 23.1748 66.1729 24.5432 66.7461C24.9091 66.9024 25.2625 67.059 25.6012 67.2173C26.1991 67.4951 25.6566 67.6993 25.7191 67.7683C26.6596 68.8339 27.7787 68.3019 28.1853 68.4177C30.9769 69.2388 33.2744 70.2576 35.7775 70.7185C37.257 71.0011 38.755 71.2105 40.3689 71.2264C40.529 71.2273 40.9141 70.3552 41.9578 71.1976C42.0278 71.2547 40.5393 71.4595 42.5616 71.7929C44.1215 72.0471 46.7336 72.6836 49.1789 72.8198C49.8971 72.8611 50.5994 72.8611 51.2515 72.8046C51.9488 72.7474 53.7162 72.0894 55.0893 72.7249C55.2725 72.8113 55.0582 73.0697 55.3234 73.227C56.1814 73.7276 56.6828 72.8054 57.6889 73.6241C58.6955 74.4415 60.8479 75.0788 63.7449 74.5116C63.7877 74.504 63.96 74.339 64.215 74.1644C64.5151 73.9625 64.9355 73.7496 65.4205 73.7437C65.5671 73.7411 65.7427 73.7416 65.8753 73.7294C65.8826 73.7288 65.8908 73.726 65.8781 73.7307C65.873 73.7329 65.8644 73.7357 65.8479 73.7482C65.8371 73.7589 65.838 73.7496 65.8105 73.7923C65.786 73.8298 65.7912 73.9031 65.8128 73.9326C65.8796 74.0122 65.8634 73.9761 65.8725 73.9863C65.877 73.9869 65.8545 73.9801 65.8377 73.9763C65.8023 73.9679 65.7625 73.9603 65.7202 73.9526C65.6378 73.9377 65.5557 73.9241 65.4687 73.9098C65.1261 73.8542 64.763 73.7958 64.3978 73.7299C63.3942 73.546 62.3558 73.3296 61.4856 73.2251C60.765 73.1387 61.1713 73.6534 61.0455 73.6465C59.9904 73.577 59.0091 73.5164 58.0559 73.4597C54.6488 73.2792 51.6415 73.0119 47.5651 73.2049C47.4746 73.2095 47.3685 73.2217 47.249 73.2399C46.1034 73.4057 43.7861 74.1629 42.0678 73.9789C39.9775 73.7701 41.6748 71.1543 37.0985 72.5367C36.9527 72.5816 36.808 72.6433 36.6659 72.7178C34.9354 73.6227 33.251 76.2679 29.8849 75.881C29.1194 76.1831 28.3621 76.4822 27.6405 76.931C25.4154 78.4567 23.913 80.527 22.2783 82.4132C20.6435 84.2893 19.4469 86.4941 18.0638 88.4861C17.7217 88.9669 17.3154 89.4063 16.8503 89.809C16.6625 89.993 16.2557 91.1818 15.6311 91.5045C15.2777 91.6935 14.9781 91.7985 14.7123 91.9001C14.331 92.064 13.9386 92.1052 13.7382 92.1918C13.6701 92.2713 13.6246 92.3318 13.594 92.4206C13.5309 92.5803 13.6333 92.6756 13.8187 92.7093C13.9997 92.7429 14.179 92.7349 14.3725 92.718C14.7429 92.6823 15.1162 92.6024 15.4737 92.5143C16.1955 92.3338 16.899 92.1028 17.5934 91.8678C18.9912 91.4047 20.3285 90.8564 21.8501 90.5795C21.9425 90.5655 22.0413 90.5563 22.1134 90.5557C22.9494 90.5488 22.7451 90.8931 23.9812 90.8244C25.3295 90.752 26.1971 90.1958 28.0374 90.2968C29.4254 90.3696 30.9167 91.2815 32.8073 91.1234C32.7757 90.7284 32.944 90.461 33.2836 90.2419C33.8277 89.8908 34.8147 89.6588 36.1253 89.1934C36.5337 89.0475 36.005 88.7999 36.1936 88.7129C36.9553 88.3513 37.7669 88.4588 38.4835 88.0762C38.6579 87.9837 38.5827 87.6406 38.7206 87.5457C39.4186 87.0554 40.5393 86.9433 41.4144 86.9567C41.9781 86.971 42.4356 87.0122 42.5941 87.0257C44.1053 87.1385 44.5872 86.4569 45.668 86.2289C46.7609 85.9813 45.347 86.8749 46.5837 86.4719C46.9602 86.3475 47.3464 86.2083 47.7396 86.0705C50.0567 85.2595 52.6566 84.0849 54.7796 83.1481C55.7687 82.7108 54.9038 82.5839 55.0412 82.5113C56.1325 81.9563 57.3031 81.5457 58.2897 81.1554C59.1189 80.8322 59.8024 80.4331 60.1675 79.8323C62.1172 81.2179 61.6452 79.7898 63.2043 78.7901C63.512 78.5895 63.8911 78.402 64.3786 78.2147C64.5935 78.1292 65.5242 78.9265 64.6739 79.5917C64.4313 79.7752 64.1256 79.9318 63.7883 80.073C62.9792 80.4114 61.9756 80.7047 61.1386 81.2419C60.8702 81.424 59.4974 83.089 59.2706 83.233C59.2051 83.2773 59.1399 83.3179 59.0773 83.3543C57.8031 84.1953 56.8498 82.9287 56.7409 82.8691C55.2677 82.4149 53.696 84.3829 53.1864 84.6917C51.4379 85.7624 49.7572 86.4084 48.1869 87.1343C47.7037 87.3592 47.2084 87.6229 46.7048 87.9109C45.3662 88.6599 45.5753 89.7697 44.3242 90.1408C43.5526 90.359 42.8579 90.4639 42.2244 90.5137C39.7521 90.6588 38.1952 90.2638 35.4297 91.9659C34.7988 92.3366 35.4509 93.1595 33.7588 93.1345C33.456 93.1274 33.0801 93.0896 32.6152 93.008C32.4117 92.9838 30.1753 92.3789 29.0115 93.0293C28.8646 93.1126 28.8997 93.4668 28.699 93.514C27.3548 93.8209 26.4319 93.5958 25.0066 93.8264C24.202 93.9573 23.3098 94.1141 22.4641 94.243C22.5487 94.2473 22.2124 94.3195 21.9461 94.3913C21.6562 94.4655 21.3405 94.543 21.0089 94.6121C20.0924 94.8042 18.6517 94.5526 18.1356 94.5314C16.6135 94.4449 15.6214 95.6916 13.6729 95.0793C13.4067 94.9873 13.1931 94.8655 13.0237 94.7313C12.8662 94.6001 12.8157 94.4872 12.834 94.412C12.8742 94.2629 13.1359 94.2064 13.2564 94.079C13.383 93.9512 13.4086 93.8238 13.1919 93.5696C13.1241 93.4946 13.0337 93.4017 12.9396 93.2574C12.8438 93.1192 12.7379 92.8634 12.7457 92.65C12.7691 92.1705 12.9696 92.0174 13.1483 91.8074C13.3084 91.6098 13.3444 91.6347 13.4016 91.5967C13.4527 91.5724 13.4943 91.5572 13.5356 91.5423C13.6171 91.5136 13.6937 91.4896 13.7726 91.463C13.4076 90.6105 13.1093 89.6888 12.6088 88.9029C12.6083 88.9038 12.5954 88.9119 12.5613 88.9371C14.8197 87.5323 15.2725 87.4765 15.8926 86.7713C17.1287 85.3153 18.5216 82.8993 20.2834 80.7977C20.6756 80.3216 21.081 79.809 21.5005 79.2833C21.8908 78.7949 21.0975 78.979 21.5151 78.4409C22.6993 76.9783 23.8977 75.6573 26.0538 74.3375C27.4247 73.5764 28.4112 73.3063 29.4856 72.908C31.7386 72.1131 33.9975 71.1219 36.247 70.5406C36.2773 70.5327 36.308 70.5249 36.339 70.517C37.9295 71.2827 41.2593 70.3214 43.8009 70.0974C44.6882 70.0171 44.6643 70.3063 45.3029 70.3248C46.9456 70.3776 46.9141 70.0331 46.9279 69.7278C46.9346 69.5866 46.952 69.4575 47.1588 69.3922C49.965 68.5452 50.325 70.6342 53.5932 70.5327C53.7589 70.5223 55.9168 69.4154 56.2279 69.3625C58.1495 68.9737 56.5296 69.7615 57.7121 69.8988C57.9036 69.9222 58.0899 69.9471 58.2705 69.9731C60.14 70.2436 61.6185 70.6074 63.8711 70.6409C64.1031 70.6423 64.4474 70.5952 64.8206 70.5471C65.2276 70.5027 65.5804 70.4355 66.2659 70.5014C66.3194 70.5078 66.382 70.5158 66.4751 70.5321C66.5263 70.5412 66.5951 70.554 66.6958 70.578C66.7655 70.5951 66.8492 70.6162 66.9766 70.6579C67.025 70.6747 67.1472 70.7119 67.3577 70.8094C67.4628 70.859 67.59 70.9231 67.7581 71.031C67.8423 71.0854 67.9369 71.1513 68.0445 71.2378C68.0678 71.259 68.4813 71.5699 68.8021 72.0973C69.1416 72.6132 69.4375 73.6031 69.236 74.5195C69.0872 75.4029 68.4258 76.1422 68.369 76.1853C68.0027 76.5618 67.7201 76.72 67.5103 76.8354C67.097 77.049 66.8756 77.0904 66.8245 77.1089C66.6482 77.1574 66.5423 77.1758 66.4548 77.191C66.3372 77.2106 66.2635 77.2186 66.2019 77.2252C66.1061 77.235 66.0301 77.2398 65.9786 77.2424C65.7609 77.2528 65.6319 77.2472 65.4855 77.2365C65.2133 77.2137 64.9651 77.1608 64.7234 77.0724C64.5416 77.0033 64.6386 76.6293 64.4866 76.6091C64.404 76.5982 64.3203 76.5889 64.236 76.581C61.8198 76.3376 61.7033 77.4403 60.2178 77.8142C58.682 78.2004 56.3244 77.3329 55.8538 77.0822C54.6148 76.4394 56.8249 76.8548 56.8945 76.7946C57.7095 76.1097 55.9899 76.1929 54.6805 76.0817C54.5337 74.9292 52.7092 74.9153 53.3221 75.9672C53.3927 76.0831 54.4195 76.0202 54.6805 76.0817C53.4904 77.1642 51.4211 77.2196 49.2523 75.9905C49.1128 75.9112 49.0128 75.8333 48.9353 75.7578C48.4494 75.2786 48.8411 74.9342 46.1023 74.8277C44.6618 74.7587 45.1216 75.6096 43.8229 75.6632C41.1329 75.7705 37.8815 74.6569 35.136 74.1023C34.8289 74.0415 34.5267 73.9837 34.2292 73.9303C33.0836 73.7145 34.0962 74.3918 33.3021 74.2494C31.1709 73.8464 29.5595 72.9214 27.639 72.3913C27.4642 72.3429 27.7214 72.9225 27.1359 72.7104C25.6369 72.1681 24.247 71.6044 22.8781 71.0339C21.2948 70.3902 19.8045 69.5789 18.487 68.9364C17.2973 68.3567 16.069 67.7865 14.7528 67.2274C13.8368 66.837 12.5897 66.3765 11.2468 65.8778C9.5807 65.2571 7.82124 64.6502 6.58633 64.1582C5.83322 63.8575 5.04345 63.5263 4.21557 63.1617C3.79755 62.9768 3.37037 62.7863 2.88066 62.5489C2.62367 62.4219 2.38325 62.3092 1.96313 62.062C1.85661 61.9978 1.72944 61.9198 1.56139 61.7997C1.48806 61.7468 1.36985 61.6591 1.2459 61.5519C1.18115 61.4957 1.12374 61.4439 1.03974 61.3608C0.948196 61.2697 0.849184 61.1628 0.743942 61.0296C0.578273 60.8135 0.171968 60.2833 0.0366316 59.4078C-0.0403244 58.92 0.00340676 58.3411 0.173175 57.847C0.327591 57.3878 0.556873 57.0291 0.783336 56.7586C1.03781 56.4633 1.16216 56.3705 1.32715 56.2394C1.47904 56.123 1.63293 56.0278 1.73925 55.9686C1.93404 55.86 2.09685 55.7906 2.24022 55.736C3.08035 55.4585 3.3678 55.4624 3.79381 55.3913C4.19241 55.3366 4.56494 55.2971 4.92558 55.2624C5.6445 55.1938 6.34134 55.1416 7.00175 55.091C8.33096 54.9896 9.55839 54.8902 10.638 54.7371C12.9683 54.415 12.4148 54.0158 13.3918 53.6204C13.8205 53.4485 14.3184 53.3572 14.8689 53.3187C16.7635 53.178 19.0227 53.7664 19.3945 53.8914C19.4052 53.89 17.3276 54.0797 18.4469 54.2673C19.1068 54.7271 19.3695 53.8946 19.3945 53.8914C19.7015 53.9539 23.9397 54.1077 24.8514 54.1774C25.1213 54.1784 25.1717 54.0383 25.2078 53.9149C25.2346 53.8175 25.2532 53.7314 25.3545 53.7355C29.0018 53.9454 32.2913 54.0218 36.6333 55.294C37.382 55.5515 38.1175 55.7769 39.0897 56.1498C39.9803 56.4979 40.9643 56.8864 41.9129 57.2899C42.0012 57.3329 41.6919 57.729 41.9018 57.8248C43.9122 58.7552 45.5444 59.1796 47.2346 59.6361C47.9749 59.8332 48.7215 60.0281 49.5125 60.2755C52.0587 61.0719 53.9487 62.149 55.009 63.6936C55.2914 63.8353 55.5896 64.0017 55.8999 64.1936C57.5401 65.2048 59.3088 66.7335 60.3686 67.7262C61.6068 68.8879 62.4007 68.3577 62.5472 68.4454C62.7391 68.5681 62.9378 68.7012 63.1715 68.8826C63.2927 68.979 63.4078 69.0665 63.6217 69.279C63.6753 69.3333 63.723 69.3812 63.8115 69.4831C63.8525 69.5304 63.8963 69.583 63.9442 69.6442C63.9903 69.7036 64.0458 69.775 64.1368 69.9135C64.2221 70.0452 64.3208 70.2078 64.4308 70.4502C64.5311 70.7145 64.8947 71.3895 64.7247 72.6371C64.6746 73.2415 64.1155 74.4575 63.3694 75.0096C63.0055 75.3093 62.6332 75.5041 62.3108 75.629C62.1266 75.6992 62.0536 75.7189 61.964 75.7452C61.8769 75.7699 61.794 75.7902 61.7152 75.807C61.0847 75.934 60.7167 75.8937 60.4395 75.8677C56.2173 75.622 53.3316 74.7484 48.911 71.6223C48.8145 71.5477 48.7141 71.4689 48.6105 71.3856C46.7682 69.9777 43.3224 66.9317 41.7469 65.0565C41.489 64.7699 41.2633 64.4984 41.0571 64.2369C40.2332 63.1902 39.712 62.3319 38.7638 61.3205C38.6059 61.1519 38.4246 61.5931 38.3683 61.548C36.7953 60.3711 38.16 60.4521 38.0576 60.0316C37.7027 58.5762 37.4306 57.6612 35.8517 56.1534C35.7836 56.0887 35.7154 56.0258 35.6439 55.9609C35.2243 55.569 33.1489 55.4239 32.5065 54.9342C31.6184 54.2405 32.3021 54.1548 31.2494 53.4017C31.1557 53.3356 30.9717 53.6008 30.3467 53.0538C30.2601 52.9784 30.1778 52.9068 30.0895 52.83C27.3974 50.4962 24.452 47.9196 21.5129 45.674C21.282 45.4979 21.0542 45.3251 20.8261 45.1536C20.3739 44.8121 20.6377 45.6605 19.9809 45.1755C17.8315 43.5903 15.6857 41.9854 13.8724 41.0194C12.8434 40.4784 11.8306 39.9431 10.8512 39.411C10.0505 38.9751 10.7187 38.8867 10.5845 38.7073C9.75017 37.6129 7.7501 37.7395 7.43414 37.6062C7.18144 37.5051 6.92167 37.398 6.61385 37.2554C6.44809 37.177 6.29534 37.106 6.03358 36.9585C5.97141 36.9232 5.89767 36.8801 5.80422 36.8213C5.71468 36.7645 5.61242 36.6992 5.44807 36.5767C5.30839 36.4642 5.06485 36.3089 4.63004 35.8013C4.47854 35.6177 4.30249 35.3844 4.11577 35.0419C4.02296 34.8703 3.92812 34.6705 3.84086 34.433C3.75669 34.2144 3.60791 33.706 3.57415 33.2142C3.44518 32.2173 3.91637 30.7676 4.47571 30.102C5.05278 29.3404 5.67372 28.9599 6.12373 28.734C5.89488 28.8477 5.86808 28.8705 5.85101 28.8773C5.84021 28.8821 5.86253 28.8661 5.89344 28.8444C5.9567 28.8 6.05564 28.7329 6.15916 28.6653C6.36723 28.5293 6.60227 28.3863 6.83462 28.2565C7.29726 27.9973 7.77574 27.7735 8.23245 27.5907C9.15189 27.2227 10.041 26.9872 10.8802 26.8266C12.5687 26.5083 14.1175 26.4658 15.5981 26.5202C19.0845 26.7143 22.2852 26.9273 26.7869 27.9698C26.9642 28.0234 27.456 28.0298 28.4072 28.3243C30.2021 28.8931 31.7274 29.7206 32.1722 30.7317C32.2221 30.8358 32.8062 32.3436 34.1046 32.5587C34.1858 32.5725 33.7952 31.713 34.9227 32.6121C35.6245 33.1728 36.6565 33.8211 37.6488 34.6223C38.207 35.0728 38.9846 35.7576 39.5439 36.5237C40.0405 37.1707 40.577 38.9508 42.3616 39.9112C42.406 39.9326 42.9128 40.1264 43.4964 40.4389C44.409 40.9186 45.5308 41.7073 45.4302 42.6265C45.3981 42.8695 44.409 43.4871 46.2924 44.8016C46.6542 45.054 46.3574 44.2953 47.2007 45.0525C48.4936 46.2128 49.6986 48.1748 51.4222 49.5221C51.7233 49.754 53.3271 50.5186 53.6281 51.9007C53.6748 52.1166 53.1373 52.0494 53.51 52.6115C53.7692 53.0035 54.0371 53.394 54.3102 53.7836C55.8949 56.0451 57.6596 58.2719 59.0151 60.6887C59.576 61.6916 58.7311 61.5542 59.2488 62.6369C59.7677 63.7186 60.9266 65.8184 61.8242 66.7303C62.6937 67.6157 62.8459 66.0721 63.7985 67.3662C63.8351 67.4161 63.8726 67.47 63.9111 67.5281C64.6295 68.6105 65.3246 69.7126 65.996 70.8295C66.3341 71.3922 66.6643 71.955 66.9925 72.5304C67.1564 72.8178 67.3204 73.1093 67.4836 73.4051C67.5674 73.5571 67.6486 73.7057 67.7344 73.8652C67.779 73.9481 67.8207 74.0262 67.8707 74.1212C67.8939 74.1656 67.922 74.2191 67.9533 74.2802C67.9745 74.3215 67.9835 74.3388 68.021 74.414C68.0434 74.4599 68.0403 74.4511 68.1008 74.5807C68.1147 74.611 68.1309 74.6465 68.1517 74.6946C68.1622 74.7187 68.1739 74.7461 68.1874 74.7788C68.1941 74.7952 68.2013 74.8129 68.2091 74.8324C68.2173 74.8536 68.2208 74.859 68.2663 74.982C68.305 75.0922 68.3557 75.2238 68.4311 75.5283C68.4677 75.6859 68.5145 75.8845 68.5495 76.2389C68.5663 76.6041 68.6589 77.097 68.3465 78.1979C68.1767 78.7403 67.8533 79.491 67.1379 80.2284C66.4405 80.9695 65.3119 81.5413 64.3458 81.6793C63.3698 81.8338 62.6231 81.6872 62.1095 81.5385C61.9644 81.4951 61.8985 81.4712 61.8298 81.4468C61.7611 81.4221 61.6964 81.3971 61.6351 81.3721C61.5126 81.3222 61.4041 81.2724 61.3062 81.2241C60.5462 80.8307 60.3191 80.5789 60.1128 80.4021C59.7475 80.0547 59.6635 79.9248 59.5701 79.8123C59.4871 79.706 59.4426 79.6426 59.4061 79.5908C56.9579 75.5399 55.8054 72.843 53.9934 69.4963C53.215 68.021 52.4051 66.5274 51.5775 65.0454C51.0033 64.0171 51.1785 65.0422 50.3097 63.5379C48.717 60.7725 46.4796 57.0612 44.4286 53.2179C42.5612 49.7158 40.8259 45.9116 40.1863 42.7322C40.1211 42.4169 40.0648 42.1109 40.0174 41.8158C39.3556 36.8029 41.323 42.7956 40.6786 39.052C40.5617 38.2636 40.234 37.4752 39.9083 36.7718C39.4905 35.9105 39.0513 35.202 39.0106 34.9581C38.3306 30.6924 39.0209 27.8318 39.1772 24.19C39.1813 24.1084 39.1788 24.0433 39.1711 23.9916C39.1087 23.5583 38.6805 24.0591 38.7194 23.4717C38.8711 21.2303 39.3967 19.0893 39.5822 17.1774C39.6632 16.3236 39.289 16.4398 39.3969 15.6763C39.5085 14.8564 39.6174 14.0999 39.7297 13.3744C39.8743 12.348 40.0607 11.348 40.3152 10.2778C40.3575 10.1006 40.7247 11.3384 40.8387 9.84889C40.9144 8.8833 41.0505 7.8223 41.207 6.67972C41.2864 6.10684 41.3691 5.51416 41.4737 4.85748C41.5288 4.52018 41.5843 4.17661 41.6843 3.72748C41.7421 3.48355 41.7893 3.25844 41.9441 2.82715C42.0337 2.60013 42.117 2.34147 42.4397 1.83962C42.6489 1.54978 42.8471 1.20475 43.5846 0.681533C44.2303 0.143697 46.0703 -0.280685 47.2248 0.229819C48.7658 0.821801 49.4284 1.63121 50.0001 2.39366C50.0962 2.50677 50.2006 2.62161 50.313 2.73802C50.8038 3.24746 51.4277 2.69701 52.0754 4.503C52.216 4.90986 51.1193 5.00351 53.109 6.40671C53.1992 6.47366 53.4961 6.71541 53.8816 7.09334C54.9933 8.22545 56.4123 10.0797 56.4635 11.5068C56.4859 12.0238 56.2263 13.4343 56.7261 14.3349C56.7972 14.4575 56.9962 13.7698 57.3559 14.5498C57.7142 15.3382 58.0475 16.1508 58.3611 16.9831C59.1723 18.95 59.7946 21.5746 60.2952 23.5439C60.494 24.3196 60.7015 23.0626 60.9809 24.2189C61.079 24.6282 61.1705 25.0304 61.2636 25.4621C61.8863 28.3445 62.4209 31.6901 62.8035 34.3947C62.9639 35.5365 62.4452 34.8239 62.4203 34.9139C62.0115 36.3612 63.0446 36.9791 63.178 37.4096C63.9947 40.0897 63.9581 42.2548 64.5093 44.7867C64.6598 45.488 64.9984 44.9144 65.0604 45.0489C65.1217 45.188 65.1673 45.302 65.2 45.3966C65.5009 46.2827 64.7383 45.577 64.8022 46.4297C64.9813 49.0454 65.5235 52.1431 65.5758 55.1913C65.597 56.2551 66.0992 55.0641 66.1069 56.0139C66.1078 56.1945 66.1079 56.3728 66.1073 56.5511C66.085 59.5029 66.0157 62.3176 65.6613 65.5461C65.566 66.3214 65.4631 67.074 65.365 67.79C65.3164 68.1449 65.2683 68.4954 65.2292 68.7971C65.2099 68.9424 65.193 69.0893 65.184 69.1322C65.1772 69.1316 65.1852 69.1934 65.1638 68.8615C65.1543 68.7679 65.1505 68.632 65.0812 68.2793C65.0477 68.1378 64.9828 67.7365 64.6844 67.1096C64.552 66.8641 64.1098 65.8449 62.7892 65.0174C62.1581 64.6166 61.1429 64.2573 60.135 64.2718C59.1362 64.2741 58.3143 64.5751 57.7668 64.8706C57.1361 65.2286 57.0712 65.3258 56.8605 65.4939C56.6825 65.6479 56.5455 65.787 56.4324 65.9112C56.2154 66.1479 56.0474 66.3888 55.9945 66.4682C55.8597 66.6693 55.782 66.812 55.7227 66.9253C55.6236 67.119 55.5966 67.1908 55.5644 67.2686C55.5003 67.4732 55.5867 67.2852 55.6354 67.136C55.6923 66.9699 55.7539 66.7599 55.8125 66.5422C55.9953 65.8343 56.2917 66.3496 56.4054 66.2125C56.5593 66.021 56.6595 65.7931 56.7176 65.5538C56.7953 65.4105 56.7189 64.6371 56.6162 64.0928C56.5146 63.5201 56.3942 63.0441 56.3776 62.8416C56.1978 60.5777 56.6526 59.7653 56.853 57.8671C56.9771 56.741 57.1273 55.6165 57.3039 54.4588C58.3602 47.6509 59.9554 40.2759 61.4195 33.8055C61.7359 32.4209 62.0426 31.0877 62.365 29.7671C62.6811 28.509 63.0266 27.0285 63.6866 25.4844C64.883 22.7766 65.994 19.945 68.491 17.0422C69.5057 15.8918 71.1913 14.1685 72.954 13.1582C75.5082 11.6976 77.267 10.1226 81.353 8.19295C81.5911 8.10122 81.863 7.99776 82.3237 7.89832C82.7795 7.82057 83.4626 7.65031 84.6797 7.97127C85.9364 8.26555 87.1584 9.5086 87.4828 10.2195C87.8751 10.9617 87.9383 11.3644 88.0118 11.6636C88.3087 13.2985 88.1735 14.0533 88.111 14.9589C88.0699 15.3827 88.0201 15.8344 87.9593 16.2892C87.851 17.0574 88.4752 16.3563 88.3812 17.0268C87.8285 20.6206 86.738 23.7094 85.5945 26.6829C83.9837 30.7906 82.309 34.7604 80.652 38.8563C80.419 39.4264 81.2167 38.8002 80.8553 39.7252C80.6473 40.2584 80.4131 40.8284 80.1586 41.4148C79.5075 42.9199 78.713 44.5292 77.9869 45.8026C77.4976 46.664 77.6863 45.2902 77.2029 46.1578C76.4076 47.5795 75.675 49.0422 75.0153 50.5655C74.7433 51.1922 74.4808 51.8325 74.232 52.4707C73.8731 53.3968 74.9179 52.2134 74.4162 53.4035C72.9147 56.9884 71.4665 60.5963 69.933 64.2127C69.3598 65.5643 68.7712 66.9089 68.1987 68.2097C67.9147 68.8565 67.6326 69.4977 67.3945 70.0668C67.2771 70.3473 67.1709 70.6133 67.1021 70.7943C67.0297 70.9603 67.0177 71.111 67.0441 70.7229C67.0407 70.7678 67.0367 70.8238 67.0251 70.9271C67.0074 71.0466 67.0125 71.1429 66.8984 71.6149C66.7998 71.8855 66.8447 72.1631 66.1489 73.2478C65.7548 73.7447 65.0769 74.8352 62.9554 75.3185C60.8194 75.7707 58.9129 74.5154 58.3524 73.843C57.6844 73.1156 57.5251 72.6828 57.3777 72.3751C57.2456 72.068 57.1912 71.8816 57.1458 71.7246C57.0649 71.4305 57.044 71.29 57.024 71.1754C56.9633 70.77 56.9743 70.74 56.9663 70.6558C56.9624 70.5895 56.9613 70.5558 56.9604 70.5282C56.9572 70.4245 56.9581 70.4196 56.9578 70.4136C56.9577 70.3985 56.9576 70.3867 56.9576 70.3762C56.9576 70.3552 56.9577 70.3393 56.9578 70.3242C56.9581 70.301 56.9583 70.2901 56.9587 70.2739C56.9594 70.2397 56.96 70.2246 56.9608 70.202C56.9624 70.1562 56.9638 70.1281 56.9656 70.0925C56.969 70.0296 56.9729 69.9712 56.977 69.9156C56.9855 69.8038 56.9947 69.7074 57.0054 69.6079C57.0264 69.4139 57.0516 69.2297 57.0803 69.049C57.1379 68.6887 57.2106 68.3383 57.2984 67.9911C57.4748 67.2955 57.7129 66.6042 58.0348 65.911C58.5996 64.7578 59.2021 63.6063 59.8693 62.4507C60.2147 61.861 61.3543 61.8044 61.9078 60.4326C61.7206 60.1968 61.4333 60.0367 61.1996 59.8435C61.5543 59.2171 61.9375 58.581 62.4087 57.9049C64.1004 55.2498 66.9387 51.6957 70.1786 49.4454C74.0605 46.8954 76.9731 45.595 81.0309 44.1386C81.7163 43.894 83.961 43.0463 85.5643 42.8183C87.2618 42.5243 88.8275 42.4374 90.3512 42.4126C93.1935 42.416 95.7357 42.2169 99.4522 42.7465C100.158 42.8797 99.2665 42.3117 100.035 42.3487C100.107 42.3446 100.206 42.354 100.34 42.3815C101.677 42.6553 103.098 42.8653 104.571 43.0692C104.738 43.0929 104.905 43.117 105.16 43.1662C105.298 43.1946 105.426 43.2154 105.76 43.3096C105.844 43.3342 105.952 43.3664 106.119 43.4266C106.304 43.5031 106.46 43.5271 107.072 43.8859C107.364 44.145 107.889 44.134 108.942 45.9021C109.551 46.9224 109.731 49.0284 109.026 50.3605C108.267 51.8037 107.844 51.9476 107.42 52.3142C106.052 53.1954 105.974 53.0142 105.665 53.1427C105.235 53.2492 105.098 53.257 104.959 53.2778C104.825 53.295 104.732 53.3034 104.657 53.3099C104.498 53.3231 104.393 53.3284 104.29 53.3332C104.095 53.3418 103.942 53.3446 103.795 53.3465C99.8261 53.4008 95.9198 53.4983 92.3925 53.903C92.3656 53.9063 92.3387 53.9097 92.3117 53.9131C91.7772 53.9907 91.8199 52.9827 90.2835 53.5637C90.0043 53.6464 87.7389 54.5694 87.2651 55.0291C87.202 55.0909 87.7681 55.3197 87.0779 55.638C86.6323 55.8462 86.1902 56.0656 85.7517 56.2968C83.7543 57.486 80.4723 60.142 77.7945 62.2938C77.0479 62.8958 76.4703 63.371 75.9614 63.8759C75.5147 64.3285 75.6038 63.5034 75.2734 63.8408C74.84 64.2931 74.3914 64.8547 73.9371 65.462C72.1768 67.8308 70.4698 70.5073 68.8356 72.7218C68.5516 73.1149 68.2635 73.4973 67.9707 73.8667C66.2722 76.0025 66.1296 74.7205 64.6921 75.5009C64.4835 75.6156 63.5973 76.9995 63.1671 76.8301C62.0514 76.4283 61.3929 75.0589 60.1574 74.7062C60.0226 74.6724 59.7142 75.1801 59.4265 75.6238C59.2843 75.8397 59.1323 76.0857 59.0496 76.107C58.9636 76.1356 58.9771 75.8348 59.0481 75.3694C59.0898 75.17 59.8162 73.5697 59.8463 73.1219C59.872 72.7977 59.1985 72.9837 59.3466 72.3868C59.494 71.7922 60.1655 71.4728 60.4796 70.5573C60.7904 69.6405 60.12 69.7013 61.0627 68.0951ZM56.2656 73.2024C54.8562 72.3271 54.0889 73.8047 55.9497 73.9478C56.0409 73.9512 56.3404 73.2454 56.2656 73.2024ZM19.4679 84.0835C21.176 82.8288 21.2603 81.0794 19.8996 81.9088C18.5379 82.7956 18.9473 84.4806 19.4679 84.0835ZM22.6034 91.9497C22.4781 91.9282 22.3535 91.9164 22.2424 91.9121C21.5447 91.8884 21.0438 92.4991 21.1593 92.8925C21.2027 93.0967 21.3533 93.268 21.6052 93.3411C21.724 93.3797 21.8757 93.3921 22.0228 93.382C22.1685 93.3711 22.3578 93.3333 22.3738 93.2941C22.4237 93.2812 22.4755 93.2666 22.5295 93.2504C22.6604 93.2117 22.7345 91.9718 22.6034 91.9497ZM68.08 69.7961C68.049 69.8008 67.376 70.7823 67.3808 70.8178C67.4721 71.6292 68.8091 69.6753 68.08 69.7961ZM42.3982 88.3195C42.2188 88.2912 41.985 88.3109 41.7336 88.3587C40.9044 88.515 39.941 89.0467 40.671 89.1816C40.9773 89.2389 41.4654 89.1401 41.8783 88.9938C42.5293 88.7675 42.9808 88.4084 42.3982 88.3195ZM22.5425 31.3595C22.5617 31.3845 23.4142 31.56 23.4213 31.4232C23.4506 30.9681 22.215 30.8858 22.5425 31.3595ZM70.4637 70.7511C70.4213 70.825 70.3778 70.8979 70.3334 70.9697C69.829 71.8483 69.4268 73.0213 68.8718 73.7287C68.3357 74.4663 67.7776 74.8745 67.4148 75.0053C66.6408 75.2125 66.8747 74.6464 67.8515 72.4594C68.0247 72.03 68.0106 72.5551 67.9911 73.0485C67.9723 73.539 67.9373 74.0278 68.2741 73.5153C68.9302 72.4931 68.8116 71.4921 69.2275 70.3278C69.4012 69.8294 69.5496 69.3317 69.8084 68.7975C69.8134 68.7858 69.8304 68.752 69.8363 68.7408C70.1143 68.2689 70.4262 68.0018 70.7962 67.718C71.0029 67.5762 70.7761 68.3671 70.6589 69.1841C70.6526 69.8859 70.5388 70.6357 70.4615 70.7606C70.4623 70.7574 70.463 70.7542 70.4637 70.7511ZM55.9585 71.0556C55.9343 71.0338 54.8121 70.6255 54.781 70.6275C53.9697 70.8974 56.2864 71.7492 55.9585 71.0556ZM56.7417 66.8597C56.7433 66.9372 58.1793 69.2928 58.2563 69.3484C59.7544 70.1237 56.8431 65.333 56.7417 66.8597ZM16.6334 63.1111C18.0478 63.1384 19.5231 63.72 20.2036 64.7527C19.0294 64.1836 17.8287 63.6526 16.6334 63.1111Z" fill="var(--stroke-0, #EE583F)"/>
</svg>
