<svg preserveAspectRatio="none" width="100%" height="100%" overflow="visible" style="display: block;" viewBox="0 0 180.373 86.982" fill="none" xmlns="http://www.w3.org/2000/svg">
<path id="Vector 197" d="M180.289 6.59992C179.481 8.62926 177.899 10.7604 176.607 12.1682C176.201 12.6139 176.014 12.126 175.716 12.4228C175.14 12.9929 174.903 13.7138 174.305 14.2393C174.104 14.4122 173.731 13.7691 173.534 13.9592C172.746 14.7199 172.188 15.5742 171.566 16.4122C171.311 16.7578 171.042 17.0964 170.756 17.4131C166.196 22.33 161.885 26.4583 157.638 30.8503C156.98 31.532 156.32 32.2091 155.631 32.8997C154.264 34.2864 151.932 36.0145 150.095 37.3365C149.725 37.6178 149.361 37.9117 149.025 38.2128C148.797 38.4167 149.288 38.789 149.269 38.8625C148.956 40.0002 148.511 38.8548 147.938 39.0613C145.658 39.8807 143.476 41.1404 141.697 42.4142C140.939 42.9571 142.325 43.5193 141.186 43.4056C141.108 43.3982 141.006 42.7379 140.754 42.8027C140.391 42.898 139.914 43.1709 139.495 43.4073C139.25 43.5463 139.019 43.6757 138.867 43.7362C138.068 44.0527 137.95 44.1222 137.235 44.4901C136.257 44.9864 134.96 45.3029 133.98 45.9566C133.771 46.0981 134.356 46.522 134.049 46.7989C133.74 47.077 132.771 47.4998 132.384 47.522C131.999 47.5442 131.911 47.0247 131.803 46.949C130.909 46.3032 130.413 48.0506 130.284 48.1496C127.958 49.913 125.407 50.264 122.956 51.3734C122.443 51.6054 121.929 51.8562 121.414 52.1126C120.039 52.7965 118.648 53.521 117.272 54.0275C115.023 54.8539 112.882 55.1828 110.625 55.7907C110.387 55.8544 110.846 56.5195 110.554 56.5987C110.507 56.6115 110.46 56.6241 110.412 56.6367C107.351 57.4579 104.166 57.8722 101.054 57.7007C100.738 57.6826 101.067 56.9809 100.748 56.9232C100.455 56.8724 100.14 56.8056 99.807 56.7387C97.9229 56.3594 95.6269 55.9419 94.8353 58.4514C93.5517 58.4235 91.9971 58.3938 90.8305 57.8673C90.0794 57.5281 90.758 56.7743 89.8737 57.1226C89.6736 57.2 89.9657 57.8201 89.6624 57.8883C88.8424 58.0724 87.965 58.0734 87.0995 58.1422C86.5789 58.1815 86.0731 58.2323 85.5662 58.3384C85.2805 58.3998 85.3426 58.9674 85.2571 59.0671C84.5167 59.8778 83.4172 58.4182 83.1948 58.2894C81.3853 57.3457 80.0036 57.3382 78.3231 56.8035C77.9368 56.6761 78.1671 57.5485 77.7807 57.4482C75.7661 56.9086 73.9367 55.9905 72.4833 54.9637C72.1588 54.7327 72.7531 54.29 72.6115 54.1493C72.5955 54.1338 72.5795 54.1193 72.5635 54.1058C71.938 53.5823 71.2701 54.548 70.662 53.9826C70.5298 53.8615 70.8509 53.3988 70.8483 53.3304C70.8122 52.259 69.8533 53.3053 69.7274 53.2789C68.1116 52.9665 67.8184 51.2506 66.3644 50.745C66.1889 50.6849 66.2439 51.499 65.7684 51.2909C63.7635 50.413 61.7605 49.3126 59.8883 47.986C58.9133 47.2804 57.9124 46.56 56.9153 45.7637C56.4917 45.4251 57.0847 45.1545 57.087 45.0812C57.1174 43.9313 56.1317 44.9298 55.9477 44.8803C55.8381 44.8488 55.7334 44.8089 55.6329 44.7626C54.1943 44.0628 53.8725 42.4767 52.1283 42.7123C51.8082 42.2548 51.5285 41.8283 51.2625 41.4365C49.2613 37.9001 48.9121 35.731 48.0809 33.0006C47.149 29.4358 48.5468 26.3475 50.2122 24.2696C50.2601 24.2081 50.8077 24.6172 50.8996 24.4956C52.0273 23.0689 50.9509 22.9201 50.4386 21.2259C50.3154 20.794 52.1082 20.7939 52.2424 20.7934C52.7466 20.765 53.4427 21.5384 53.5611 21.4989C54.5061 21.1705 51.6388 19.5314 52.2271 18.6109C52.25 18.5856 52.6835 19.0334 52.7832 18.9902C53.095 18.8562 53.0427 18.4946 53.3684 18.3794C53.3951 18.3701 53.4228 18.362 53.4513 18.3551C54.1181 18.3127 55.5516 18.756 55.1044 17.5782C55.0456 17.4132 53.2529 16.8452 53.7193 16.0104C53.8706 15.7014 54.7644 13.8663 55.2414 13.4592C55.673 13.0519 55.9347 13.7303 55.9812 13.7087C57.3943 13.0625 57.4194 13.6262 58.4853 13.928C58.556 13.9516 58.6302 13.9765 58.7078 14.0038C59.8436 14.5449 57.9731 12.4768 58.1299 11.9826C58.2048 11.7449 58.6618 11.5868 59.105 11.5962C59.552 11.5981 59.9586 11.7522 60.1111 11.8443C60.4104 12.0323 60.1435 12.4561 60.3767 12.5556C61.743 13.3304 61.0026 11.1396 61.5866 10.7103C61.7861 10.5816 61.9797 10.5182 62.1586 10.5039C63.5702 10.4939 63.7333 12.319 64.4094 12.8229C64.6286 12.9905 64.637 12.4672 64.8752 12.5358C65.8222 12.8299 65.9726 13.6691 67.1859 13.733C67.3785 13.7384 68.8142 13.1866 68.7512 14.267C68.7391 14.4204 68.2609 14.7166 68.5148 15.0386C68.8946 15.5192 69.6624 16.2371 70.2596 16.4922C70.7034 16.6818 70.8179 15.6795 71.1135 16.2576C71.2421 16.5147 70.5536 16.5983 70.8162 17.0458C70.9481 17.2714 71.2555 17.5783 71.5717 17.8712C71.9409 18.2109 72.2293 18.5579 72.3908 18.7483C72.7061 19.1319 73.0611 18.5313 73.1205 18.5363C73.4829 18.5894 74.2878 19.2464 74.3263 19.3201C76.0919 22.1303 76.6512 24.9942 77.8157 27.6895C78.1593 28.4968 78.5223 29.2945 78.9349 30.0942C79.0774 30.374 79.6333 29.9265 79.6616 29.9666C80.3244 30.8705 78.3266 30.7436 78.0154 31.6359C79.2757 31.0525 79.1996 31.5465 79.5843 32.2102C79.7696 32.5303 80.2168 32.1757 80.2794 32.1893C81.2293 32.4673 80.3341 33.1587 80.153 33.3059C79.4928 33.8683 80.4965 33.9957 80.0448 34.3687C79.5929 34.7283 78.7087 34.3975 78.8832 35.066C79.4124 35.1476 80.5486 34.317 80.8819 34.8164C81.0461 35.0649 81.184 35.3591 81.2947 35.675C82.0523 38.1923 81.0656 41.1493 80.9193 42.5722C80.7692 43.8396 80.7604 44.4322 80.6471 45.0779C80.614 45.2711 80.5692 45.4678 80.5058 45.6807C79.942 47.412 80.9771 46.9046 81.1869 48.1172C81.3633 49.3294 79.1826 48.2326 78.6527 48.2688C78.124 48.2908 78.5934 48.5719 78.2767 48.6798C77.9608 48.7836 77.7239 48.3221 77.516 48.7011C77.3139 49.0725 77.8541 50.4386 78.3127 50.7478C79.2918 51.3927 80.5877 51.227 79.8335 52.2241C79.7893 52.2804 79.264 51.8822 79.1253 52.1067C78.8294 52.5947 78.5599 53.0918 78.3029 53.594C77.6134 54.9459 76.978 56.3222 76.1312 57.5535C75.9701 57.7854 75.4264 57.2908 75.3259 57.4213C74.2689 58.7703 75.575 58.6804 76.3772 60.0648C74.8884 59.1627 73.7281 59.1952 73.1831 60.2974C73.0756 60.5126 73.0784 60.6807 73.1414 60.832C73.2739 61.1431 73.6637 61.3955 73.8189 61.8619C73.8875 62.0746 73.1694 62.28 73.4211 62.5444C74.2315 63.4272 75.6391 63.6709 74.4081 64.5881C74.353 64.6248 73.9403 64.1055 73.7893 64.2572C72.8062 65.2063 73.6663 66.0715 72.8175 67.3112C72.1472 68.2846 70.2248 69.2288 69.2516 70.0157C67.9022 68.6229 67.3906 69.7489 67.9733 71.0431C67.706 71.2681 67.448 71.5161 67.1835 71.7595C66.8232 72.0913 66.4632 72.3979 66.0515 72.6284C65.8073 72.7637 65.5644 72.2261 65.4983 72.2041C64.4771 71.8417 65.0703 73.0469 64.9666 73.2027C63.7896 74.8552 61.9145 74.9749 60.7975 76.7187C60.7599 76.7796 61.3219 78.0132 60.4054 77.3947C60.3463 77.3494 60.5799 76.5223 59.8013 76.8944C59.0198 77.2671 57.2789 77.3467 56.548 78.4414C56.4271 78.6226 56.3405 79.294 56.0018 79.5371C55.8224 79.6612 55.5934 79.6908 55.3025 79.538C55.1774 79.47 55.0876 79.0837 54.8884 78.9414C54.2665 78.4803 54.6493 79.8034 53.7871 78.9191C52.9313 78.0319 51.8374 77.554 51.0464 78.7253C51.0205 78.7605 51.1605 79.8666 50.8076 79.9862C50.25 80.1742 49.3826 80.2673 48.813 80.4925C48.54 80.6009 48.9549 81.1602 48.9116 81.1898C47.9249 81.7972 47.0027 82.0346 45.998 82.2253C45.2427 82.3695 44.4456 82.4645 43.5459 82.6368C43.1648 82.7099 42.3443 83.9177 41.4125 83.4277C40.401 82.8862 40.3335 79.5017 38.7677 80.7251C38.1503 81.2075 38.1646 85.508 36.3371 83.6938C35.4312 84.0922 34.4964 84.2558 33.5629 84.3529C31.9383 84.5213 30.3429 84.4681 28.7081 85.0923C28.5943 85.1361 28.3028 86.3284 28.0118 86.3318C27.5827 86.3347 27.3193 85.8033 27.0174 85.7825C25.7532 85.68 24.6054 86.1612 23.3812 86.0735C22.9181 86.0402 23.0898 85.4804 22.5431 85.4363C22.1773 85.4063 21.8835 85.722 21.506 85.8181C21.3201 85.8656 21.1136 85.859 20.8727 85.7292C20.3198 85.4302 19.8482 83.8866 19.1305 83.6628C19.0058 85.1529 18.4987 85.0911 17.5607 85.4143C17.3797 85.477 17.5269 86.0106 17.439 86.067C17.0801 86.3079 16.8018 85.8521 16.457 86.1156C16.3735 86.1788 16.3253 86.6872 16.2536 86.7675C15.64 87.4699 14.8484 86.2405 14.7158 86.0261C14.2039 85.2124 13.8638 85.8448 13.4451 85.4998C13.0302 85.1547 13.737 84.8543 13.2352 84.618C12.4457 84.2462 11.4534 84.1105 10.5454 83.9938L10.5654 83.9966C10.2751 83.951 9.99779 83.9088 9.7368 83.8626C9.30256 83.7888 9.49444 84.5085 9.42982 84.5136C8.49976 84.5439 7.70863 83.6807 6.98704 84.9367C6.94403 81.3684 6.38772 85.1854 5.21411 84.2613C5.1198 84.1863 5.29584 82.531 5.71993 82.3601C6.14523 82.1894 6.63857 82.8022 7.23558 82.5168C7.37885 82.4509 8.35348 81.0345 8.46598 80.957C9.35207 80.3541 9.07344 82.8208 9.09406 82.9623C9.33343 84.48 10.4708 82.9901 10.7336 82.894L10.6826 82.887C10.6842 82.8863 10.6858 82.8857 10.6873 82.8851C11.8228 82.4909 12.6946 82.9415 13.6314 82.6608C14.2437 82.4796 14.4667 80.8684 14.9153 80.9635C16.4011 81.2742 16.7559 83.5813 18.3348 81.7299C18.6706 81.3332 18.4926 79.543 19.4771 81.0077C19.536 81.1003 20.2711 82.4252 20.7773 81.64C20.8404 81.541 20.8638 81.0239 20.9417 80.9841C21.2293 80.8428 21.4542 80.9077 21.6922 80.965C21.8876 81.0119 22.0912 81.0536 22.3409 80.9721C22.8969 80.7912 23.552 80.5086 24.1653 80.6845C24.5336 80.7903 25.0215 81.7491 25.2083 81.9816C25.7365 82.6531 26.2456 81.5191 26.5928 82.3279C26.9557 83.1395 26.3641 84.4281 27.2676 84.9177C27.2266 83.573 27.2213 82.1906 27.1907 80.8375C28.9592 80.7824 30.7464 81.0121 32.5207 80.6428C32.7387 80.5956 32.3897 79.923 32.6177 79.8541C32.6582 79.8419 32.6988 79.8308 32.7394 79.8207C33.6823 79.5863 34.632 79.869 35.5983 79.4547C36.3787 79.1169 37.0858 78.1622 37.8652 77.7637C38.756 79.1266 39.877 78.2858 40.7963 78.1566C41.119 78.111 41.2189 78.5099 41.4784 78.571C42.4609 78.7855 41.6608 77.6089 41.819 77.3347C42.4665 76.1709 43.5213 79.0051 44.6178 78.5764C44.6283 78.5723 44.6388 78.5678 44.6492 78.5632C44.7153 78.535 44.9185 76.7036 44.9871 76.5682C45.4387 75.6844 45.3025 77.0595 45.7757 77.0097C46.6378 76.9191 47.3174 77.0801 48.0566 76.2809C48.2722 76.0454 48.533 74.8483 49.3232 75.3875C49.4274 75.4579 49.5896 75.9769 49.6553 75.9852C50.8181 76.0947 50.2108 74.4997 50.5078 73.7539C50.8079 73.0079 51.9885 73.7699 52.2692 74.0096C53.0086 74.6304 52.1452 74.4823 52.1514 74.5709C52.3112 75.6209 52.8104 75.2098 53.222 75.0988C53.6553 75.897 54.0154 76.1463 54.0989 76.0144C54.1946 75.8901 54.0892 75.504 53.6557 74.9653C53.6255 74.9285 53.5791 74.9303 53.5247 74.9516C53.4315 74.9822 53.3008 75.1205 53.222 75.0988C53.113 74.6615 53.057 74.3114 53.043 74.0598C53.1718 73.2832 53.8249 73.1489 54.9342 73.8335C55.6404 74.2746 55.6798 75.1981 56.6641 74.3398C57.1062 73.9527 56.3799 73.0346 56.6661 72.5291C57.3209 71.3773 58.9628 71.6811 59.7134 70.9545C59.9791 70.6959 59.3291 70.3806 59.4923 70.1889C59.9134 69.6824 60.6605 69.7007 61.0358 69.0729C61.0679 69.0163 60.5315 68.6058 60.6852 68.4658C61.2811 67.912 61.9215 67.4501 62.5941 66.9473C63.2745 66.4306 63.9582 65.9173 64.6036 65.2851C65.2493 64.6575 66.0573 63.2962 66.6624 62.7137C67.7273 61.7145 69.5158 60.9093 69.8462 59.8176C69.9525 59.4753 69.8334 59.2652 69.6601 59.0866C69.491 58.8843 69.259 58.7195 69.1342 58.4579C68.6527 57.4727 70.5876 56.9797 70.8811 56.908C70.8915 56.9066 70.723 57.6608 71.1976 57.4308C71.9383 57.5029 70.8809 56.9158 70.8811 56.908C71.0725 56.8715 71.8095 55.5284 71.8027 55.1987C71.801 55.0204 71.1875 54.8703 71.197 54.7827C71.3324 53.6007 71.5557 52.4721 71.8703 51.3983C72.1274 50.5292 72.4445 49.7072 72.8131 48.9294C72.8353 48.8996 73.4884 49.154 73.5327 49.0805C74.165 48.059 73.522 47.1325 73.1942 46.2384C72.8633 45.3397 73.0847 44.908 74.3134 44.5939C74.3134 44.5938 74.3133 44.5936 74.3133 44.5934C74.2224 43.8229 74.8196 42.7885 75.1709 42.1828C75.5227 41.5783 74.1647 41.4384 74.1404 41.3852C73.3364 39.7404 74.1319 38.7402 74.1426 37.4634C74.1445 37.321 74.1177 37.147 74.0898 37.0857C73.914 36.3786 73.5605 35.5665 73.2871 35.0545C72.9935 34.5101 73.1706 34.0471 72.776 33.5673C72.7228 33.5026 72.1833 33.7894 72.1531 33.775C71.249 33.4348 72.7388 33.1898 72.9365 32.9667C73.6474 32.1499 73.9949 31.6344 73.2147 30.9914C73.0629 30.8646 71.4851 31.0867 70.8354 31.0098C70.7094 30.9854 70.6158 30.9499 70.5698 30.8989C70.1947 30.4787 70.9713 30.3319 70.561 29.9013C70.5266 29.8643 70.1049 30.0752 69.9744 29.7538C69.3618 28.2634 68.8557 26.5792 68.1104 25.2771C68.0103 25.0994 67.472 25.6783 67.3199 25.435C66.996 24.9185 66.6831 24.4046 66.4617 24.0104C66.3531 23.8155 66.2667 23.6518 66.2478 23.566C66.2354 23.482 66.2656 23.4737 66.5741 23.6577C66.5065 23.5653 66.4384 23.4702 66.3729 23.3747C66.1885 23.1035 66.6762 22.8299 66.7231 22.6662C66.99 21.661 65.6396 22.3323 65.55 22.2961C63.3782 21.4142 62.1068 19.1367 60.7451 19.2466C60.7228 19.2528 60.3369 19.8243 60.7932 20.0007C60.779 20.0501 60.8661 19.9526 60.9256 19.512C60.9322 19.4703 60.972 19.1293 61.0183 18.905C61.0713 18.6794 61.1162 18.577 61.3541 18.9768C61.4048 19.019 61.2321 19.7458 61.7302 19.5517C62.0901 19.4219 63.1288 19.1686 63.4682 18.4401C63.369 18.4542 63.2432 18.439 63.0696 18.3879C62.8483 18.2944 61.6186 17.7856 62.3105 18.6231C62.3357 18.7157 64.1924 20.137 62.6015 19.7978C62.331 19.7597 60.8597 18.9123 61.2598 20.1442C61.3286 20.3992 61.8328 20.201 61.8117 20.8131C61.7806 21.4496 61.2801 22.2232 60.7836 23.1788C60.6805 23.4389 60.6308 23.7287 60.7018 24.0884C60.7387 24.2764 61.4022 25.3639 60.4334 25.2773C60.281 25.2647 59.8724 24.8539 59.694 25.0228C58.8452 25.8234 58.6194 26.9776 57.8532 27.6637C57.5826 27.9114 56.8345 27.3605 56.4593 27.593C56.0835 27.8217 55.5978 28.4081 55.8993 28.8408C56.2051 29.2545 57.6726 29.4153 57.6896 29.7742C57.7173 30.111 57.7419 30.3084 57.7384 30.3649C57.736 30.4258 57.6896 30.3394 57.5953 30.2698C57.8889 31.8815 58.1021 33.5363 58.524 34.8403C58.6357 35.1796 59.018 34.7388 59.2046 35.1699C59.2799 35.3393 59.3646 35.5015 59.4219 35.5867C59.4613 35.6548 59.5583 35.7181 59.2549 35.2782C59.7361 35.8561 60.0962 36.2544 60.2628 36.4146C60.4363 36.5819 60.4303 36.592 60.5034 36.719C61.1522 37.2218 61.8556 37.825 62.3233 38.4907C63.5211 40.1721 61.1384 39.611 62.2111 40.624C62.7276 41.1104 64.2582 40.0507 64.4446 40.1004C64.486 40.1104 64.527 40.121 64.5675 40.1321C65.9718 40.4185 66.5018 41.519 67.7574 41.9361C68.0226 42.0232 68.1056 41.2927 68.3268 41.3727C69.0844 41.6398 69.6935 42.2967 70.4093 42.5947C70.7304 42.7265 70.9077 42.2309 71.174 42.4089C71.8137 42.8286 72.3263 43.3236 72.7889 44.0893C72.8318 44.1594 72.1331 44.5448 72.6378 44.814C73.453 45.2464 74.3002 46.1773 75.4741 46.1638C75.7397 46.1604 76.092 45.5429 76.3626 45.6804C76.4591 45.7289 76.5485 45.858 76.6234 46.1139C76.6858 46.3311 75.9328 47.5647 77.1745 46.7659C77.3981 46.6419 79.2291 45.6308 79.3123 46.826C79.3389 47.144 79.2595 48.3783 79.6328 48.3224C79.6831 48.3099 79.7517 47.6504 80.0166 47.6834C80.9402 47.8061 81.7417 48.1194 82.5905 48.0961C82.8128 48.0868 82.6406 47.3731 82.9577 47.3764C83.8175 47.3824 84.8539 47.6587 85.7867 47.8818C86.1301 47.9653 85.8853 48.5112 85.9082 48.5715C86.3217 49.5501 86.5787 48.2302 86.7089 48.1509C86.7476 48.1294 86.7861 48.11 86.8244 48.0925C87.8036 47.7158 88.624 48.24 89.5752 48.042C89.8504 47.9862 89.6256 47.3693 89.6783 47.311C90.2226 46.7398 89.8497 47.883 90.2183 47.9898C91.2498 48.2924 92.3842 48.1798 93.405 48.0361C93.7795 47.9822 93.3113 47.284 93.6472 47.2439C95.3798 47.0243 97.1725 46.9284 98.8598 47.0432C99.1072 47.0597 99.3514 47.0807 99.5927 47.1065C99.9537 47.1454 99.7911 47.725 99.8783 47.8441C100.486 48.6787 101.089 47.3791 101.239 47.243C101.935 46.6211 102.288 47.0716 102.939 46.8827C104.469 46.4319 106.12 46.0828 107.811 45.7218C109.612 45.3459 111.164 45.0011 112.681 44.5482C114.314 44.0611 115.886 43.5733 117.43 43.0468C119.451 42.3546 121.419 41.5976 123.509 40.5188C123.743 40.3984 123.184 39.8407 123.382 39.7282C125.946 38.3077 128.667 37.2901 131.157 35.7645C131.361 35.6408 130.734 35.1712 131.048 34.9524C131.693 34.4981 132.583 34.0737 133.375 33.9039C133.76 33.8201 133.599 34.5939 133.981 34.4984C134.173 34.4501 134.366 34.3919 134.552 34.328C135.238 34.0895 135.892 33.7397 136.465 33.3117C136.773 33.0789 135.916 32.7376 136.341 32.4853C138.768 31.0234 140.892 29.5697 143.31 28.371C143.812 28.1192 144.252 27.9359 144.678 27.7786C144.849 27.7164 145.938 28.7164 146.057 28.2243C145.803 27.9048 145.476 27.5554 145.189 27.2282C146.228 26.1337 147.611 24.6236 148.996 23.1696C151.249 20.7949 153.525 18.609 155.64 16.2787C155.786 16.117 154.955 15.8864 155.234 15.5715C156.849 13.7491 158.209 11.8402 160.228 10.5129C160.428 10.3784 161.439 11.3093 161.682 10.6476C161.71 10.5654 161.968 10.0424 162.033 9.64988C162.074 9.48566 162.093 9.33816 162.072 9.23236C162.058 9.17529 161.422 8.96954 161.61 8.67135C162.714 6.93937 164.039 5.27319 165.422 3.837C165.648 3.60382 166.037 4.25546 166.203 4.09115C167.378 2.92165 167.778 1.22795 168.95 0.26092C169.742 -0.407078 170.642 0.418918 171.92 0.414575C172.102 0.412437 172.386 -0.162258 173.016 0.071126C174.605 0.657434 176.166 1.71054 177.874 2.30265C178.245 2.42853 178.25 1.34561 178.883 2.25686C178.926 2.31855 178.917 3.1207 179.128 3.42367C179.274 3.63357 179.996 3.6976 180.14 4.06161C180.282 4.42812 179.637 4.45817 179.738 5.00917C179.838 5.56536 180.629 5.73268 180.289 6.59992ZM76.6863 39.4573C77.3374 38.8866 74.9436 38.8447 75.5193 39.4211C75.5498 39.4491 76.6542 39.4862 76.6863 39.4573ZM30.9838 82.7672C31.8842 83.7094 32.1579 82.0909 31.5173 81.3659C30.894 80.6368 30.718 82.4797 30.9838 82.7672ZM23.1644 83.9695C24.0643 84.8134 24.2087 81.4204 23.2712 82.096C23.2168 82.1339 23.1126 83.9203 23.1644 83.9695ZM171.065 2.84352C171.098 2.85047 171.346 2.45671 171.323 2.43084C170.768 1.85921 170.28 2.63456 171.065 2.84352ZM15.0961 84.3087C15.3381 84.7938 16.2105 84.3412 15.9076 83.7405C15.6653 83.258 14.7961 83.7061 15.0961 84.3087ZM63.9265 13.8866C63.9334 13.8493 63.6358 13.675 63.5584 13.8623C63.3145 14.4623 63.7992 14.4904 63.9265 13.8866ZM1.66464 82.1038C2.11534 82.293 2.46754 82.6061 2.7361 82.9565L2.72148 82.9528C3.57024 83.9411 3.65207 85.4119 2.23251 85.0459C2.21841 85.0434 2.17713 85.0313 2.16315 85.0282C2.07479 85.0008 1.98343 84.9666 1.88904 84.9249C1.67023 84.8268 2.01834 84.6716 2.31557 84.4771C2.32505 84.4792 2.35303 84.4873 2.36259 84.4891C2.60483 84.305 2.80613 84.0982 2.59495 83.9288C2.56575 83.9055 2.53674 83.885 2.50788 83.8671C2.5034 83.8663 2.49027 83.8625 2.48582 83.8615C1.70457 83.3269 0.581414 84.6264 0.00421932 83.4436C-0.0945268 83.2246 1.57176 82.0617 1.66928 82.1013C1.66774 82.1021 1.66619 82.1029 1.66464 82.1038ZM79.5589 39.1101C79.5912 39.0984 79.6136 38.6097 79.5811 38.6C78.8174 38.3599 78.7724 39.3192 79.5589 39.1101ZM50.254 25.8035C50.174 25.7962 49.6998 26.9185 49.7564 26.9817C50.7421 27.9096 51.6298 25.8185 50.254 25.8035ZM69.2011 69.9929C69.3554 70.9164 68.9487 71.4373 67.9758 71.0421C68.3944 70.7092 68.7848 70.3394 69.2011 69.9929Z" fill="var(--stroke-0, #005935)"/>
</svg>
