<svg preserveAspectRatio="none" width="100%" height="100%" overflow="visible" style="display: block;" viewBox="0 0 203.289 176.21" fill="none" xmlns="http://www.w3.org/2000/svg">
<g id="Group 27">
<path id="Vector 133" d="M1.86263 162.28C3.01929 162.009 4.62238 162.086 5.82 162.238C6.19552 162.285 6.06644 162.73 6.32979 162.78C6.84279 162.875 7.25745 162.601 7.73153 162.716C7.89018 162.755 7.82534 163.45 7.99217 163.475C8.19776 163.506 8.39669 163.512 8.57624 163.502C9.31333 163.444 9.99722 163.205 10.7679 163.122C13.3733 162.848 15.6863 162.278 18.8451 161.543C21.8695 160.948 24.2927 160.686 26.9198 160.306C28.6864 160.06 30.9202 160.234 32.5815 159.574C32.7755 159.496 32.5213 158.95 32.5483 158.894C32.9632 158.031 33.0428 159.236 33.4644 159.295C33.5685 159.31 33.6715 159.322 33.7729 159.332C34.9989 159.56 36.6254 158.945 37.8852 158.189C38.4641 157.84 37.3934 157.019 38.2697 157.364C38.3308 157.386 38.4142 158.031 38.6125 158.02C39.0574 157.995 39.7562 157.578 40.08 157.494C40.7051 157.337 40.8021 157.289 41.3634 157.059C42.133 156.751 43.1708 156.655 43.9445 156.185C44.1099 156.083 43.6307 155.585 43.8746 155.368C43.9803 155.274 44.181 155.174 44.4069 155.092C44.6948 154.987 45.0091 154.919 45.1813 154.942C45.4863 154.981 45.571 155.491 45.6585 155.58C46.3868 156.338 46.7175 154.741 46.815 154.664C48.5723 153.323 50.5522 153.323 52.369 152.516C53.743 151.903 55.0925 151.002 56.3254 150.416C57.2382 149.983 58.1303 149.664 58.7494 149.35C59.2442 149.073 59.7296 148.77 60.1996 148.397C60.3331 148.292 59.7264 147.802 59.8867 147.673C61.5885 146.306 63.3045 145 65.2623 143.901C65.4599 143.79 65.6974 144.471 65.9228 144.388C67.2827 143.893 69.8015 143.213 68.23 140.656C68.5872 140.36 68.9741 140.023 69.3932 139.732C69.7963 139.449 70.2273 139.212 70.7011 139.087C71.328 138.922 71.553 139.78 71.7352 139.077C71.7769 138.918 71.1664 138.666 71.264 138.46C71.6697 137.6 72.4569 136.926 72.7401 135.999C72.7962 135.81 72.3113 135.513 72.2603 135.41C71.8535 134.573 73.3793 134.788 73.5555 134.71C74.8632 134.138 75.1245 133.219 75.7446 132.267C75.8888 132.045 75.0785 131.906 75.1924 131.68C75.395 131.283 75.6159 130.886 75.8545 130.497C76.4034 129.61 76.9598 128.927 77.6236 128.277C77.8508 128.058 78.253 128.638 78.3882 128.553C78.9793 128.172 78.0125 127.409 78.5585 127.031C78.672 126.951 79.1053 127.305 79.1694 127.318C80.1758 127.51 79.1937 126.522 79.2157 126.43C79.496 125.202 81.0959 125.304 81.5302 124.215C81.5807 124.084 80.8214 123.979 80.9973 123.638C82.003 121.686 83.2866 119.793 84.7501 118.098C85.0047 117.805 85.2618 117.52 85.5202 117.243C85.7866 116.955 86.107 117.454 86.1752 117.466C87.2555 117.626 86.1963 116.73 86.2104 116.6C86.3543 115.585 87.7824 115.275 86.5961 113.985C87.34 112.842 87.9065 111.535 88.453 110.211C89.5328 107.585 90.4969 104.905 92.4104 102.593C92.4454 102.548 93.0374 102.877 93.1046 102.787C93.9198 101.697 92.8566 101.561 91.9643 100.31C91.7403 99.9962 93.4116 99.9128 93.5375 99.8967C94.0013 99.8399 94.8601 100.393 94.9604 100.354C95.7589 100.013 92.6302 98.9682 92.8992 98.2251C92.9128 98.2037 93.448 98.5083 93.5274 98.4665C93.7754 98.3382 93.6195 98.06 93.8837 97.9425C94.4953 97.6688 96.0618 98.049 95.4184 97.0666C95.3433 96.9575 93.9266 96.5583 93.8085 96.036C93.7932 95.9651 93.8009 95.8921 93.8376 95.8175C93.9639 95.5697 94.326 94.3904 94.545 94.1007C94.7655 93.8123 95.267 94.2206 95.2994 94.2055C96.3435 93.5569 96.549 93.9976 97.8189 93.8898C99.0832 93.7776 96.363 93.0821 96.1179 92.8118C95.8734 92.5444 96.6974 92.0701 96.9622 91.9705C97.2278 91.8723 97.5393 92.1782 97.7049 92.0682C98.7904 91.319 96.4809 91.2722 96.1356 90.8464C95.308 89.8586 97.4626 89.803 97.8145 89.146C97.9084 88.9708 97.4131 89.0226 97.4041 88.8513C97.3708 88.1769 98.0858 87.891 97.6051 87.0685C97.5289 86.9239 96.3599 86.2207 97.3025 85.9463C97.4388 85.904 97.9425 86.1036 98.0808 85.838C98.1513 85.7012 98.216 85.5243 98.2627 85.3312C98.3536 84.9479 98.3817 84.5074 98.277 84.1999C98.159 83.8576 97.2947 84.2195 97.571 83.804C97.6938 83.6186 98.1853 83.9819 98.374 83.6277C98.5642 83.2751 98.5471 82.3579 98.5251 82.0098C98.5042 81.6615 97.8582 81.8597 97.8144 81.8318C97.5635 81.6657 97.2387 81.0138 97.2374 80.9555C97.1518 79.2727 97.4035 77.5983 97.5882 75.9213C97.7244 74.6848 97.81 73.4557 97.6428 72.2027C97.613 71.9733 96.9316 72.1332 96.92 72.0982C96.6265 71.3019 98.4479 71.9127 99.0516 71.3598C97.6662 71.4506 97.9143 71.1168 97.7607 70.5624C97.6857 70.2916 97.1494 70.4403 97.0944 70.4156C96.2784 70.0163 97.3319 69.7362 97.5474 69.6651C98.3401 69.4035 97.4051 69.1125 97.9358 68.9345C98.4625 68.7592 99.2391 69.1718 99.2325 68.6443C98.7375 68.4898 97.438 68.8809 97.2309 68.4688C96.4424 66.9161 97.5311 64.0554 97.704 62.8182C97.8722 61.5796 97.81 61.1746 98.0562 60.4415C98.1973 60.0318 98.2068 59.7828 98.154 59.5547C98.008 59.2034 97.4583 59.1554 97.2435 58.5949C96.9277 57.7745 99.2091 58.4962 99.7295 58.4633C100.249 58.4277 99.7501 58.2259 100.047 58.1278C100.344 58.0278 100.642 58.3826 100.794 58.0662C100.947 57.7488 100.173 56.7259 99.6614 56.541C98.5778 56.143 97.3506 56.3901 97.8797 55.579C97.9109 55.5322 98.5057 55.7783 98.594 55.5947C99.273 54.1435 99.5269 52.5569 100.201 51.1133C100.295 50.9148 100.946 51.2167 101.008 51.103C101.661 49.9317 100.434 50.1794 99.2874 49.2435C100.582 49.6129 101.539 49.5797 101.993 49.1159C102.123 48.9875 102.212 48.822 102.259 48.6184C102.386 48.0735 101.632 48.0005 101.203 47.509C101.073 47.3604 101.676 47.0871 101.352 46.9273C100.294 46.3964 98.9325 46.4484 99.7065 45.578C99.7424 45.5407 100.314 45.8507 100.394 45.7098C100.909 44.8198 99.7818 44.359 99.9745 43.2651C100.125 42.4082 101.319 41.216 101.763 40.3639C103.579 41.0464 103.467 40.069 102.35 39.2472C102.622 38.6873 102.797 38.0349 103.19 37.5499C103.326 37.3815 103.797 37.7171 103.863 37.7154C104.892 37.7078 103.787 36.9707 103.79 36.828C103.796 36.7312 103.807 36.6373 103.822 36.5458C104.08 35.1416 105.311 34.4958 105.146 32.9139C105.139 32.8553 104.001 32.1266 105.046 32.2745C105.116 32.2881 105.425 32.99 105.789 32.44C106.157 31.8844 107.4 31.2079 107.345 30.1169C107.331 29.8545 106.703 28.7973 107.664 28.8819C107.793 28.8948 108.084 29.1571 108.311 29.2017C109.035 29.3416 107.971 28.4781 109.118 28.8362C110.264 29.1947 111.346 29.1215 111.174 27.9354C111.171 27.8992 110.417 27.1555 110.55 26.9124C110.553 26.9076 110.556 26.903 110.559 26.8987C110.833 26.5377 111.378 26.1329 111.638 25.741C111.763 25.5528 111.128 25.2925 111.14 25.2532C111.696 23.7834 112.815 23.2384 113.982 22.0809C114.196 21.8701 113.973 20.6337 114.9 20.6043C115.914 20.5767 118.148 23.0717 118.386 21.4709C118.478 20.838 115.658 17.6597 118.01 18.192C118.162 17.8545 118.353 17.5544 118.568 17.2797C119.586 15.9852 121.094 15.314 121.881 13.7325C121.924 13.6469 121.355 12.5881 121.535 12.4501C121.797 12.2517 122.292 12.5446 122.488 12.4238C123.327 11.9246 123.732 11.013 124.531 10.5124C124.834 10.3228 125.065 10.8509 125.423 10.6318C125.779 10.4153 125.584 9.64446 126.259 9.61623C126.771 9.59693 127.967 10.6198 128.53 10.4601C127.724 9.20013 128.067 9.01035 128.436 8.30041C128.507 8.16345 128.103 7.80469 128.122 7.71732C128.193 7.35168 128.628 7.58422 128.676 7.20599C128.688 7.11469 128.413 6.68401 128.408 6.58519C128.369 6.03364 128.85 6.08519 129.254 6.21874C129.473 6.29483 129.674 6.39221 129.747 6.43006C130.536 6.82268 130.348 6.15137 130.799 6.2129C131.251 6.27333 131.027 6.86851 131.462 6.79934C132.367 6.65312 133.213 5.99086 133.929 5.53927C134.213 5.35652 133.643 4.91836 133.674 4.87904C134.157 4.34738 135.148 4.55467 134.709 3.21239C137.075 5.85161 134.868 2.69483 136.085 2.71901C136.182 2.72139 137.197 4.03924 137.085 4.41015C136.971 4.7816 136.299 4.61007 136.165 5.159C136.133 5.2883 136.53 6.89696 136.517 7.01913C136.421 7.97122 134.966 5.95931 134.864 5.86399C133.742 4.84593 134.097 6.62459 134.008 6.82311C133.605 7.73036 132.817 7.83431 132.437 8.53827C132.186 8.99641 133.038 10.381 132.702 10.5408C132.52 10.6277 132.319 10.6573 132.12 10.6515C131.119 10.6171 130.031 9.75735 130.152 11.6368C130.184 12.1166 131.348 13.4762 129.89 12.7637C129.8 12.7172 128.576 11.9962 128.739 12.8632C128.76 12.9722 129.053 13.3994 129.03 13.4676C128.873 13.9151 128.431 13.7197 128.211 14.1178C127.991 14.5155 127.78 15.0338 127.317 15.1656C127.039 15.2442 126.17 14.6999 125.917 14.5998C125.193 14.3052 125.59 15.4246 124.885 14.9419C124.164 14.4678 123.725 13.1891 122.872 13.2152C123.732 14.2493 124.596 15.328 125.457 16.3713C124.453 17.1819 123.234 17.7748 122.381 18.8121C122.277 18.941 122.927 19.2982 122.832 19.4473C122.628 19.7633 122.323 19.9583 122.022 20.1766C121.727 20.3933 121.436 20.6315 121.261 21.0083C120.989 21.603 121.157 22.6275 120.901 23.2742C119.432 22.6577 119.232 23.7816 118.684 24.2845C118.491 24.4625 118.172 24.2033 117.955 24.2714C117.143 24.5361 118.432 25.0799 118.493 25.359C118.755 26.5487 116.222 24.7973 115.718 25.6333C115.689 25.6782 116.667 27.1359 116.703 27.2629C116.937 28.0888 116.184 27.0078 115.89 27.2171C115.353 27.5993 114.781 27.7363 114.77 28.609C114.769 28.8236 115.166 29.5544 114.776 29.7244C114.699 29.7594 114.593 29.7735 114.449 29.7592C114.332 29.7479 113.897 29.4224 113.846 29.4419C112.96 29.8209 114.371 30.778 114.606 31.4724C114.841 32.1659 113.479 32.1062 113.116 32.0436C112.178 31.8825 112.955 31.6015 112.893 31.5381C112.162 30.7825 112.031 31.3094 111.749 31.592C110.309 30.7412 110.097 31.2637 111.461 31.8893C111.611 31.9567 111.641 31.6177 111.749 31.592C112.945 32.7644 112.817 33.3593 111.171 33.1121C110.401 32.9974 109.832 32.3146 109.612 33.2777C109.515 33.7131 110.588 34.158 110.676 34.6292C110.882 35.6967 109.439 36.0976 109.225 36.9144C109.151 37.2056 109.842 37.2268 109.812 37.4323C109.742 37.9693 109.125 38.186 109.158 38.739C109.158 38.7399 109.159 38.7409 109.159 38.7418C109.183 38.8012 109.817 38.9304 109.757 39.0991C109.309 40.3943 108.481 41.3458 107.981 42.6718C107.738 43.3115 107.681 44.5755 107.399 45.2059C106.907 46.2994 105.575 47.4401 105.567 48.46C105.562 49.1157 106.24 49.1253 106.622 49.4764C106.859 49.6877 106.849 49.8819 106.72 50.0468C106.43 50.4698 105.578 50.809 105.4 50.8706C105.391 50.8734 105.345 50.2685 104.955 50.5138C104.228 50.5665 105.398 50.8641 105.4 50.8706C105.229 50.9269 104.879 52.0627 104.967 52.3164C105.015 52.4533 105.643 52.4836 105.656 52.5525C105.955 54.1915 105.903 55.772 105.386 57.4236C105.369 57.4515 104.683 57.3128 104.652 57.3795C104.21 58.3194 104.969 59.0754 105.321 60.0642C105.43 60.3701 105.472 60.6636 105.439 60.9284C105.49 60.7322 105.38 60.9494 105.188 61.0444C104.992 61.1636 104.689 61.2861 104.265 61.3967C104.373 61.9171 103.798 62.704 103.455 63.1654C103.111 63.6315 104.469 63.7526 104.493 63.7968C105.302 65.1292 104.505 65.8695 104.361 67.2431C104.29 67.8965 104.477 69.2065 104.626 69.9164C104.746 70.4758 104.428 70.8161 104.636 71.3369C104.663 71.4063 105.268 71.3319 105.292 71.353C106.021 71.9211 104.538 71.6582 104.275 71.7799C103.317 72.2241 102.807 72.5048 103.271 73.2424C103.378 73.4178 105.518 73.8733 105.649 74.1838C105.816 74.5819 105.048 74.4463 105.243 74.8677C105.259 74.9038 105.73 74.8857 105.716 75.1456C105.707 75.3258 105.695 75.5097 105.68 75.6966C105.594 76.7257 105.45 77.8523 105.533 78.9869C105.544 79.1694 106.283 78.9068 106.312 79.1713C106.447 80.4111 106.455 81.8823 106.089 83.1984C105.996 83.5212 105.475 83.311 105.319 83.3788C104.373 83.7869 105.722 84.4226 105.744 84.5292C105.843 84.9477 105.882 85.3496 105.881 85.7392C105.852 87.9736 104.765 89.6345 104.764 91.7465C104.77 91.8828 105.928 93.2806 104.592 93.3945C104.502 93.4086 103.146 93.4936 103.884 94.1059C103.93 94.1456 104.644 94.0565 104.444 94.51C104.246 94.9536 104.443 95.8305 103.552 96.2349C103.271 96.3651 101.905 96.4297 102.688 97.3204C102.746 97.375 104.634 99.0157 103.017 98.812C102.801 98.7847 101.718 98.3801 101.633 98.7486C101.615 98.8309 101.649 98.9539 101.758 99.1331C101.871 99.3169 102.308 99.2089 102.411 99.6238C102.571 100.263 101.903 100.79 102.383 101.673C102.469 101.826 103.375 102.687 102.421 102.76C102.272 102.771 101.784 102.467 101.653 102.641C101.026 103.468 101.017 104.567 100.298 105.365C100.044 105.647 99.2565 105.155 98.8975 105.411C98.5387 105.668 98.055 106.275 98.3049 106.783C98.5548 107.292 100.061 107.421 99.9606 108.004C99.5868 110.154 98.296 111.922 97.2463 113.82C97.0603 114.156 96.8828 114.494 96.7177 114.842C96.5519 115.191 97.1571 115.091 96.9447 115.622C96.264 117.488 94.7043 121.671 92.7956 122.598C92.6808 122.659 92.5762 122.705 92.481 122.738C91.3517 123.09 91.5734 121.556 90.7801 122.231C90.3706 122.579 91.5281 123.928 91.5091 124.062C91.3432 125.381 90.2663 125.714 89.8942 126.765C89.818 126.981 90.5164 127.15 90.4454 127.33C90.2036 127.953 89.5836 128.381 89.3046 128.942C89.1786 129.198 89.6508 129.427 89.4817 129.625C89.0791 130.107 88.6061 130.455 87.8731 130.709C87.8061 130.733 87.4477 130.077 87.1866 130.453C86.7644 131.064 85.8745 131.582 85.8479 132.569C85.8452 132.857 86.851 133.501 85.8663 133.522C85.6614 133.526 84.5186 132.648 85.2408 133.832C85.364 134.024 86.2211 135.809 85.0742 135.623C84.9114 135.593 84.4866 135.486 84.1619 135.407C83.862 135.391 83.611 135.427 83.6057 135.599C83.608 135.653 84.2504 135.829 84.1636 136.095C83.8432 137.034 83.2369 137.866 82.8516 138.808C82.7487 139.062 83.5247 139.095 83.3499 139.466C82.8742 140.481 81.9349 141.515 81.1242 142.252C80.8255 142.521 80.5489 141.973 80.4837 141.96C79.4306 141.743 80.3136 142.749 80.2804 142.919C80.0606 143.956 79.1203 144.144 78.6901 144.923C78.5698 145.136 79.1611 145.404 79.1734 145.477C79.2694 146.215 78.6457 145.206 78.3468 145.37C77.8394 145.645 77.4188 146.034 77.0425 146.461C76.7905 146.746 76.5566 147.047 76.3356 147.335C76.1298 147.604 76.9223 147.815 76.7288 148.053C75.5949 149.466 74.2203 150.727 72.6872 151.595C72.3974 151.758 72.1689 151.208 72.0331 151.159C71.0949 150.808 71.4132 152.158 71.3705 152.35C71.1892 153.217 70.6548 153.024 70.2396 153.498C68.7807 155.17 66.6873 156.694 64.6628 157.913C63.4677 158.656 62.6167 159.024 61.8169 159.388C58.2291 160.943 55.6011 161.457 52.5805 162.894C52.3888 162.984 52.8738 163.587 52.7115 163.673C51.3652 164.363 49.963 164.853 48.5778 165.399C47.8448 165.687 47.1171 166 46.4082 166.379C46.2461 166.465 46.7622 167.013 46.5085 167.173C45.9934 167.505 45.2688 167.77 44.6061 167.806C44.2831 167.825 44.4252 167.108 44.1026 167.139C43.3543 167.21 42.6178 167.468 41.952 167.868C41.6663 168.041 42.4048 168.515 42.0094 168.688C40.4923 169.345 38.9756 170.074 36.6214 170.572C35.2441 170.822 33.9278 170.899 32.5748 170.761C32.3639 170.74 31.8958 169.34 31.5406 169.7C31.5917 170.105 31.6896 170.574 31.7635 171.003C28.3587 171.917 24.5681 172.211 21.9231 172.731C21.5658 172.804 21.0707 172.938 20.5612 173.089C20.4048 173.135 20.9108 173.789 20.6062 173.884C18.8216 174.445 16.9076 175.282 14.6316 175.088C14.4046 175.07 14.1629 173.722 13.614 174.077C13.5189 174.142 12.6521 174.544 12.4782 174.888C12.4558 174.939 12.7718 175.521 12.4762 175.609C12.0612 175.729 11.6405 175.833 11.2071 175.92C9.63496 176.234 8.20954 176.271 6.82465 176.136C6.53285 176.105 6.75778 175.395 6.55083 175.367C5.09519 175.169 3.60609 175.81 2.19495 175.262C1.2531 174.89 1.54468 173.7 1.03448 172.561C0.963643 172.401 0.410812 172.387 0.374025 171.714C0.287618 170.024 0.504164 168.169 0.378655 166.369C0.348403 165.982 -0.23424 166.402 0.106652 165.463C0.131164 165.401 0.55208 165.084 0.653967 164.762C0.721261 164.541 0.574074 163.86 0.713141 163.575C0.852771 163.289 1.03596 163.857 1.2762 163.516C1.51492 163.17 1.36636 162.399 1.86263 162.28ZM101.937 65.2919C101.272 65.7275 103.662 65.8542 103.103 65.3536C103.073 65.3296 101.97 65.2697 101.937 65.2919ZM121.957 16.5362C120.799 16.2141 121.667 17.5636 122.529 17.8351C123.377 18.122 122.303 16.6402 121.957 16.5362ZM125.928 12.0928C124.878 11.8339 126.846 14.6002 126.99 13.639C126.999 13.5843 125.988 12.1085 125.928 12.0928ZM3.17242 172.125C3.16376 172.094 2.77638 172.088 2.76919 172.12C2.60878 172.892 3.39267 172.902 3.17242 172.125ZM130.562 7.98285C130.488 7.93859 130.42 7.92393 130.361 7.93128C130.065 7.97076 129.971 8.56307 130.42 8.83825C130.621 8.96151 130.782 8.85814 130.845 8.67826C130.915 8.47083 130.856 8.15774 130.562 7.98285ZM98.9602 89.3737C98.9237 89.3751 98.8348 89.6296 99.0324 89.6687C99.6702 89.7934 99.573 89.3779 98.9602 89.3737ZM139.35 2.01058C137.97 2.8345 135.626 1.03037 137.183 0.341552C137.466 0.2147 137.153 1.45072 137.617 1.43603C138.476 1.3986 137.819 -0.285837 138.938 0.0423902C139.154 0.0969049 139.446 1.96362 139.35 2.01542C139.35 2.0138 139.35 2.01219 139.35 2.01058ZM99.0571 65.4776C99.0251 65.4872 98.9859 65.857 99.0172 65.8661C99.7717 66.0837 99.8508 65.342 99.0571 65.4776ZM92.6688 103.751C92.5988 103.746 92.2315 104.525 92.2792 104.574C93.2766 105.441 94.0249 103.861 92.6688 103.751ZM101.817 40.3676C101.242 39.716 101.335 39.214 102.349 39.2486C102.155 39.614 102.004 39.9958 101.817 40.3676Z" fill="var(--stroke-0, #345900)"/>
<path id="Vector 134" d="M87.7388 108.536C88.1309 107.903 88.9373 107.482 89.6358 107.265C89.8531 107.197 90.0589 107.582 90.2233 107.548C90.5419 107.482 90.5969 107.152 90.9339 107.111C91.0478 107.099 91.4136 107.674 91.5231 107.649C92.1137 107.513 92.3663 107.05 92.8566 106.792C95.2727 105.522 97.3151 103.908 99.4209 102.224C99.6984 102.002 100.049 101.819 100.406 101.617C101.069 101.188 101.737 100.799 102.161 100.242C102.243 100.133 101.808 99.7273 101.797 99.6736C101.645 98.8383 102.289 99.8493 102.586 99.8155C103.769 99.6801 104.664 99.1378 105.33 98.4593C105.612 98.1705 104.666 97.376 105.35 97.7302C105.396 97.7542 105.634 98.3417 105.76 98.344C106.043 98.348 106.379 98.0242 106.565 97.9768C106.924 97.8887 106.971 97.8556 107.268 97.7031C107.677 97.4996 108.295 97.5318 108.66 97.1938C108.738 97.1196 108.332 96.6041 108.433 96.433C108.534 96.2614 108.953 96.1209 109.15 96.1961C109.347 96.2709 109.504 96.7544 109.576 96.8482C110.176 97.6442 110.056 96.2138 110.104 96.1559C110.935 95.1577 112.149 95.4891 113.117 95.0976C113.857 94.797 114.544 94.257 115.234 94.0222C115.602 93.8986 115.969 93.8404 116.314 93.7843C116.812 93.6844 117.299 93.5953 117.783 93.391C117.877 93.3523 117.515 92.6792 117.632 92.6298C118.872 92.1062 120.191 91.8362 121.525 92.0553C121.658 92.078 121.648 92.7597 121.789 92.8213C122.655 93.1814 124.019 94.2444 123.898 91.3303C124.37 91.3453 124.924 91.3502 125.428 91.7435C125.466 91.774 125.505 91.8068 125.543 91.8421C125.885 92.1581 125.756 92.9175 126.032 92.5513C126.095 92.4696 125.879 91.8673 125.981 91.7917C126.412 91.4737 126.97 91.5747 127.375 91.1621C127.458 91.0766 127.322 90.526 127.329 90.4206C127.396 89.5657 128.037 90.8303 128.14 90.9108C128.912 91.5111 129.316 91.1318 129.904 91.0296C130.041 91.0061 129.727 90.2939 129.853 90.2445C130.507 89.9985 131.221 89.9162 131.954 90.1061C132.119 90.15 132.116 90.8129 132.202 90.8663C132.575 91.0944 132.391 89.882 132.744 90.0773C132.818 90.117 132.899 90.6671 132.923 90.7243C133.3 91.6219 133.178 90.2622 133.217 90.2233C133.718 89.6982 134.387 91.0016 134.915 90.6834C134.977 90.6441 134.678 89.9903 134.861 89.9219C136.096 89.4593 137.491 89.3544 138.905 89.6494C139.123 89.6949 139.079 90.2407 139.104 90.302C139.507 91.2585 139.377 89.8981 139.439 89.8343C139.801 89.4705 140.308 90.0375 140.562 89.4866C140.626 89.3386 140.671 89.1089 140.691 88.7572C142.918 88.9708 144.882 87.7177 147.251 88.759C147.281 88.7706 147.354 89.4387 147.413 89.459C148.121 89.7107 147.818 88.7072 147.999 87.3766C148.049 87.0417 148.66 88.491 148.709 88.5962C148.89 88.9845 148.972 89.9842 149.022 90.0566C149.44 90.6195 148.764 87.3914 149.15 87.3147C149.163 87.3177 149.228 87.9236 149.273 87.9762C149.414 88.1417 149.468 87.885 149.608 88.0703C149.921 88.5008 150.335 90.0524 150.493 89.0686C150.513 88.941 150.076 87.1212 150.438 87.137C150.58 87.1457 151.189 86.9852 151.38 87.0675C151.575 87.1496 151.586 87.7639 151.603 87.7869C152.239 88.4649 152.125 88.8276 152.618 89.9278C153.108 91.0237 152.434 88.3006 152.461 87.9742C152.491 87.6478 152.969 88.2145 153.106 88.4176C153.241 88.6217 153.221 89.0189 153.324 89.1282C154.01 89.8389 153.231 87.7217 153.291 87.2512C153.431 86.1371 154.201 88.092 154.601 88.2062C154.709 88.237 154.522 87.7948 154.596 87.7316C154.893 87.4869 155.244 88.0697 155.494 87.3992C155.533 87.2903 155.57 85.9976 155.985 86.8447C156.032 86.9434 156.062 87.303 156.161 87.4808C156.193 87.5218 156.231 87.5521 156.278 87.566C156.623 87.6776 157.023 87.7623 157.264 87.5716C157.438 87.4317 157.17 86.5931 157.423 86.8432C157.535 86.9553 157.376 87.4649 157.574 87.6346C157.773 87.8037 158.243 87.7611 158.423 87.7377C158.6 87.7135 158.48 87.0698 158.493 87.0257C158.572 86.7725 158.909 86.4492 158.942 86.4491C160.486 86.3252 161.903 87.3992 163.378 87.0167C163.493 86.9877 163.407 86.3058 163.424 86.2943C163.818 86.0028 163.53 87.8229 163.816 88.4269C163.758 87.0415 163.922 87.2903 164.202 87.1345C164.335 87.0584 164.255 86.5227 164.266 86.4676C164.454 85.6499 164.609 86.7009 164.648 86.9158C164.79 87.7063 164.921 86.7683 165.019 87.2967C165.116 87.8211 164.919 88.603 165.187 88.5895C165.255 88.0924 165.041 86.7985 165.24 86.5857C165.471 86.3407 165.764 86.2628 166.082 86.2756C166.756 86.3077 167.553 86.7787 167.971 86.8182C168.564 86.876 168.743 86.7618 169.105 86.9005C169.763 87.1448 169.414 86.2186 169.72 85.7305C170.021 85.2399 170.207 87.6053 170.34 88.0998C170.475 88.5933 170.455 88.0664 170.571 88.3309C170.687 88.5951 170.587 88.9621 170.774 89.0378C170.964 89.1136 171.265 88.1405 171.222 87.6067C171.136 86.4759 170.724 85.3507 171.211 85.6803C171.239 85.6999 171.281 86.3259 171.385 86.3697C172.209 86.6965 172.992 86.5505 173.834 86.7903C173.95 86.8241 174.015 87.52 174.084 87.5473C174.809 87.8335 174.32 86.7484 174.37 85.4054C174.483 86.0191 174.612 86.5395 174.752 86.9493C174.998 87.6743 175.288 88.0518 175.594 87.9854C175.884 87.9227 175.657 87.2018 175.715 86.641C175.732 86.4722 176.057 86.9253 176.008 86.5722C175.849 85.4177 175.351 84.2055 175.951 84.5875C175.978 84.6061 176.066 85.238 176.148 85.257C176.681 85.3812 176.435 84.1931 176.897 83.9198C177.257 83.706 178.148 84.2288 178.63 84.2164C179.149 86.0864 179.461 85.535 179.257 84.2005C179.563 84.1686 179.854 84.0032 180.187 84.0954C180.301 84.1265 180.401 84.6832 180.431 84.7377C180.897 85.5912 180.644 84.3073 180.69 84.2395C181.216 83.5573 182.073 84.3172 182.408 83.1875C182.42 83.1468 182.025 81.858 182.509 82.7327C182.543 82.793 182.529 83.4456 182.845 83.3881C183.158 83.3315 183.97 83.813 184.173 83.0738C184.224 82.8955 184.095 81.7776 184.594 82.5036C184.661 82.6023 184.767 82.9755 184.882 83.1623C185.25 83.7562 184.837 82.4559 185.397 83.4813C185.956 84.5067 186.595 85.1906 186.729 84.278C186.735 84.2508 186.435 83.2081 186.572 83.1712C186.792 83.1131 187.176 83.1988 187.392 83.1005C187.496 83.0531 187.169 82.4629 187.182 82.444C187.384 82.2096 187.608 82.1063 187.854 82.0642C188.284 81.9886 188.77 82.1003 189.31 82.0325C189.468 82.0138 189.465 81.0059 190.032 81.5346C190.666 82.106 191.799 85.2191 192.155 84.1671C192.308 83.7394 190.719 79.8634 192.196 81.5257C192.848 80.5653 194.262 81.0127 194.726 79.7795C194.748 79.724 194.214 78.6778 194.308 78.632C194.453 78.5637 194.837 78.9596 194.952 78.9222C195.444 78.7745 195.518 78.1358 195.924 77.9098C196.078 77.822 196.379 78.3023 196.566 78.1935C196.753 78.0827 196.392 77.4208 196.84 77.5148C197.178 77.588 198.328 78.6017 198.673 78.5374C197.704 77.3981 197.877 77.2899 197.879 76.762C197.878 76.66 197.48 76.318 197.462 76.2497C197.38 75.9635 197.755 76.2075 197.651 75.9081C197.626 75.8361 197.286 75.455 197.247 75.3749C196.894 74.6809 197.915 75.3054 198.093 75.4133C198.771 75.8228 198.401 75.2607 198.73 75.3646C199.06 75.4669 199.123 75.9178 199.395 75.913C199.613 75.908 199.793 75.8448 199.958 75.7479C199.964 75.7432 199.98 75.7247 199.986 75.7197C200.241 75.5477 200.437 75.2993 200.632 75.0947C200.756 74.9596 200.154 74.6142 200.16 74.5845C200.242 74.2386 200.97 74.3179 200.181 73.5505C200.136 73.5074 200.087 73.4617 200.031 73.4132C203.099 75.1354 199.865 73.0569 200.693 73.0302C200.76 73.0285 202.234 73.7951 202.36 74.0656C202.483 74.3399 201.904 74.2951 202.089 74.7029C202.102 74.7314 202.205 74.8478 202.346 75.002C202.692 75.3719 203.227 76.0026 203.255 76.0773C203.568 76.8991 201.569 75.4131 201.458 75.3374C200.186 74.5763 201.222 75.9334 201.226 76.1C201.26 76.4187 201.172 76.5997 201.069 76.7503C201.049 76.7668 200.998 76.8268 200.976 76.842C200.845 77.0119 200.696 77.1349 200.691 77.4229C200.685 77.7618 201.767 78.9738 201.593 79.0658C201.011 79.3747 199.346 77.8234 200.195 79.6952C200.374 80.0956 201.639 81.351 200.361 80.6097C200.278 80.5652 199.185 79.8192 199.547 80.5694C199.593 80.6641 199.925 81.0606 199.927 81.1163C199.927 81.4821 199.543 81.2641 199.469 81.5788C199.393 81.894 199.326 82.3226 198.979 82.3677C198.77 82.3964 198.004 81.7651 197.797 81.6246C197.205 81.2182 197.655 82.2689 197.054 81.6858C196.458 81.0941 195.946 79.9156 195.348 79.6835C196.111 80.7914 196.877 81.94 197.632 83.0625C196.875 83.5344 195.916 83.6299 195.205 84.1167C195.118 84.178 195.578 84.7464 195.492 84.8291C195.119 85.1797 194.502 84.9336 194.16 85.3504C193.9 85.6732 193.872 86.5499 193.597 86.9039C192.686 85.6399 192.397 86.364 191.959 86.4149C191.804 86.434 191.637 86.0582 191.487 85.9806C190.93 85.6932 191.665 86.851 191.657 87.0905C191.61 88.1175 190.304 85.3296 189.86 85.6106C189.838 85.6237 190.184 87.2644 190.177 87.3783C190.177 87.3825 190.177 87.3866 190.177 87.3906C190.156 88.099 189.901 86.875 189.679 86.84C189.269 86.7752 188.899 86.5064 188.707 87.1057C188.653 87.282 188.77 88.3391 188.259 87.6914C188.192 87.6065 188.006 87.0968 187.972 87.0763C187.37 86.746 187.985 88.3347 187.954 88.9662C187.921 89.5982 187.131 88.6395 186.94 88.3491C186.438 87.6006 186.955 87.9426 186.936 87.8579C186.694 86.8538 186.495 87.1182 186.265 87.1113C185.652 85.5567 185.416 85.7512 186.03 87.1102C186.098 87.2584 186.199 87.0548 186.265 87.1113C186.665 88.7124 186.411 89.0298 185.552 87.7105C185.15 87.0914 185.018 86.2505 184.644 86.7074C184.473 86.9138 184.936 87.9708 184.844 88.3349C184.628 89.1673 183.701 88.3458 183.297 88.6545C183.148 88.7672 183.506 89.3135 183.41 89.4113C183.156 89.6729 182.744 89.3078 182.509 89.6343C182.487 89.6647 182.752 90.273 182.658 90.311C181.948 90.6108 181.192 90.3948 180.427 90.6C180.059 90.6994 179.494 91.2322 179.091 91.2638C178.391 91.3241 177.343 90.6014 176.835 90.9648C176.501 91.1994 176.737 91.8205 176.681 92.296C176.619 92.8403 176.272 92.5786 175.979 92.2261C175.783 91.9807 175.608 91.6938 175.557 91.6042C175.553 91.5969 175.821 91.375 175.583 91.0829C175.329 90.4179 175.56 91.6004 175.557 91.6042C175.477 91.4627 174.829 91.4598 174.732 91.6114C174.679 91.6941 174.857 92.2942 174.827 92.3259C174.113 93.0637 173.235 93.4215 172.22 93.3114C172.201 93.3021 172.099 92.6102 172.056 92.5967C171.457 92.39 171.247 93.2902 170.839 93.8631C170.433 94.4349 170.007 94.3152 169.594 93.1541C169.252 93.3453 168.686 92.8646 168.377 92.5648C168.066 92.2655 168.118 93.6244 168.093 93.6532C167.391 94.4858 166.889 93.9217 166.181 93.7338C166.122 93.7158 166.062 93.7012 166 93.6915C165.661 93.6361 164.982 93.8423 164.617 93.9959C164.328 94.1195 164.146 93.8031 163.883 94.0105C163.848 94.0382 163.892 94.6433 163.881 94.6668C163.591 95.3955 163.715 93.9129 163.65 93.6493C163.414 92.6908 163.266 92.1805 162.892 92.6383C162.803 92.7432 162.582 94.8786 162.422 95.0058C162.216 95.1671 162.286 94.4017 162.069 94.5902C162.05 94.6056 162.061 95.077 161.927 95.0583C161.308 94.9779 160.626 94.7155 159.999 94.7775C159.913 94.7841 160.04 95.5291 159.917 95.5511C159.345 95.6535 158.72 95.6444 158.217 95.3185C158.094 95.2359 158.142 94.7093 158.108 94.5554C157.89 93.6243 157.768 95.0018 157.746 95.0298C157.654 95.1299 157.573 95.1925 157.549 95.2228C157.543 95.2475 157.498 95.2698 157.893 95.1696C157.294 95.2165 156.538 94.8747 155.84 95.4719C155.791 95.519 155.643 97.0587 155.152 95.8819C155.117 95.8041 154.623 94.5985 154.633 95.4976C154.633 95.5539 154.913 96.1692 154.665 96.1561C154.427 96.1409 154.147 96.656 153.678 96.0136C153.53 95.8114 153.026 94.6084 152.945 95.6707C152.938 95.7452 152.958 98.1033 152.466 96.5762C152.385 96.3247 152.076 94.6655 151.897 95.5856C151.862 95.7638 152.06 96.1076 151.929 96.3743C151.733 96.7839 151.284 96.4128 151.093 97.2167C151.056 97.3596 151.036 98.5309 150.666 97.7168C150.609 97.5892 150.562 97.0244 150.443 96.983C149.895 96.7809 149.438 97.2504 148.868 96.9592C148.666 96.8571 148.592 95.9445 148.362 95.7385C148.126 95.5337 147.728 95.3672 147.602 95.8126C147.48 96.2576 147.948 97.6488 147.682 97.8143C146.508 98.5359 145.112 97.9095 143.841 97.9922C143.653 98.0042 143.891 98.4916 143.622 98.5457C143.19 98.6331 142.648 98.8211 142.065 98.9348C141.517 99.0498 140.793 99.0779 140.217 98.5504C139.398 97.814 140.075 96.9901 139.509 96.7379C139.228 96.6201 139.311 98.3266 139.262 98.3911C138.801 99.0385 138.241 98.3934 137.763 98.73C137.663 98.8001 137.913 99.4461 137.827 99.4982C137.538 99.6813 137.138 99.4548 136.844 99.575C136.714 99.6303 136.849 100.136 136.713 100.124C136.392 100.1 136.076 99.9432 135.679 99.5272C135.643 99.4894 135.689 98.8148 135.459 98.8394C135.086 98.881 134.536 98.5045 134.217 99.0822C134.124 99.2553 134.367 100.424 133.926 99.6747C133.834 99.5181 133.609 98.1003 133.553 99.3781C133.543 99.5907 133.359 101.337 132.877 100.337C132.749 100.074 132.339 98.9609 132.225 99.1729C132.21 99.206 132.423 99.8169 132.31 99.9043C131.91 100.201 131.435 100.229 131.016 100.518C130.907 100.597 131.219 101.211 131.05 101.307C130.582 101.573 129.925 101.532 129.393 101.425C129.196 101.384 129.216 100.82 129.191 100.764C128.794 99.8499 128.922 101.163 128.866 101.252C128.515 101.788 128.064 101.246 127.694 101.483C127.591 101.547 127.786 102.147 127.775 102.206C127.646 102.786 127.608 101.649 127.439 101.554C127.381 101.522 127.323 101.495 127.266 101.474C126.867 101.318 126.497 101.436 126.171 101.571C126.035 101.627 126.331 102.31 126.207 102.353C125.481 102.62 124.74 102.698 124.01 102.452C123.872 102.405 123.824 101.842 123.771 101.724C123.392 100.893 123.413 102.141 123.387 102.267C123.256 102.845 123.041 102.389 122.844 102.536C122.068 103.126 121.127 103.277 120.251 103.444C119.965 103.517 119.692 103.582 119.44 103.642C117.685 104.055 116.336 104.001 115.02 104.715C114.937 104.759 115.317 105.406 115.25 105.452C114.381 106.021 113.376 106.167 112.642 106.791C112.582 106.84 113.004 107.416 112.921 107.515C112.753 107.724 112.471 107.833 112.152 107.754C111.997 107.717 111.838 107.112 111.685 107.087C111.328 107.028 111.041 107.139 110.863 107.382C110.789 107.486 111.318 108.007 111.195 108.093C110.367 108.697 109.791 109.281 108.561 109.157C108.478 109.147 107.421 108.129 107.52 108.427C107.8 108.722 108.138 109.061 108.442 109.372C108.423 109.4 108.405 109.427 108.386 109.454C107.082 111.049 105.293 112.137 103.758 113.498C103.692 113.557 104.339 114.013 104.214 114.13C103.482 114.813 102.914 115.641 101.642 115.767C101.516 115.781 100.625 114.743 100.548 115.096C100.538 115.157 100.328 115.597 100.446 115.891C100.465 115.935 100.956 116.35 100.863 116.461C100.306 117.103 99.5595 117.582 98.6822 117.846C98.5413 117.886 98.1916 117.287 98.0877 117.312C97.3466 117.493 97.1488 118.361 96.2862 118.308C95.7064 118.272 95.0305 117.3 94.0932 116.59C93.9613 116.49 93.7598 116.64 93.2935 116.155C92.1188 114.938 90.9603 113.488 89.6989 112.2C89.4252 111.923 89.42 112.5 88.952 111.654C88.9222 111.595 88.9229 111.171 88.76 110.889C88.6483 110.693 88.1205 110.249 88.0057 109.972C87.8857 109.701 88.3583 110.046 88.2489 109.698C88.1403 109.345 87.5716 108.81 87.7388 108.536ZM167.025 91.2019C166.749 90.5583 166.784 92.9511 167.052 92.3687C167.065 92.3377 167.039 91.2334 167.025 91.2019ZM194.966 82.0829C194.135 81.357 194.746 82.7989 195.371 83.3735C196.009 83.9383 195.223 82.2997 194.966 82.0829ZM197.301 79.4995C196.498 79.0721 198.518 81.7989 198.436 80.9924C198.432 80.9462 197.348 79.5237 197.301 79.4995ZM94.6348 115.659C94.6105 115.638 94.4493 115.741 94.4677 115.767C94.9009 116.399 95.2214 116.194 94.6348 115.659ZM199.21 76.7579C198.818 76.4945 198.934 77.1039 199.42 77.4336C199.813 77.6977 199.699 77.0849 199.21 76.7579ZM154.881 89.3401C154.87 89.3062 154.729 89.3068 154.779 89.502C154.936 90.1319 155.081 89.909 154.881 89.3401ZM202.543 72.2411C202.063 72.9269 199.374 72.0102 200.021 71.4418C200.14 71.3338 200.674 72.1311 200.985 72.0761C201.559 71.9611 200.081 70.9771 201.087 71.0622C201.272 71.0756 202.577 72.2033 202.545 72.2442C202.545 72.2431 202.544 72.2421 202.543 72.2411ZM166.779 88.3349C166.773 88.3036 166.587 88.2794 166.583 88.3108C166.501 89.0733 166.887 89.1223 166.779 88.3349ZM146.878 89.4921C146.858 89.4274 146.42 89.4424 146.415 89.5062C146.41 90.7694 147.303 90.7417 146.878 89.4921ZM178.651 84.2642C178.635 83.4744 178.835 83.3232 179.256 84.1999C179.051 84.2066 178.856 84.2548 178.651 84.2642Z" fill="var(--stroke-0, #345900)"/>
<path id="Vector 135" d="M25.1667 157.092C26.107 156.8 27.3965 156.899 28.4 157.104C28.7163 157.167 28.6061 157.605 28.8226 157.668C29.2559 157.789 29.6148 157.543 30.0438 157.695C30.1881 157.747 30.0875 158.433 30.2378 158.473C31.0477 158.685 31.7674 158.435 32.5742 158.489C33.2125 158.533 33.8461 158.563 34.486 158.583C37.6339 158.706 40.7085 158.388 43.9383 157.921C45.2112 157.741 46.887 157.96 48.2311 157.385C48.3899 157.318 48.1636 156.764 48.1847 156.709C48.5244 155.873 48.6146 157.072 48.9755 157.157C49.3211 157.238 49.6784 157.286 50.0384 157.31C50.8904 157.44 51.7876 157.21 52.5506 156.821C52.9764 156.601 52.2103 155.599 52.8398 156.105C52.8837 156.139 52.9385 156.774 53.082 156.803C53.4078 156.867 53.9205 156.599 54.1608 156.578C54.6178 156.543 54.6919 156.513 55.1015 156.393C55.666 156.233 56.4365 156.312 56.9978 155.977C57.1157 155.905 56.7452 155.351 56.9155 155.18C57.0892 155.008 57.6521 154.878 57.8814 154.96C58.1141 155.041 58.1968 155.546 58.2665 155.644C58.8484 156.479 59.049 154.983 59.1194 154.923C59.6828 154.47 60.2868 154.266 60.9097 154.137C61.7177 153.972 62.5518 153.939 63.3432 153.655C64.405 153.272 65.4489 152.623 66.4703 152.288C67.6871 151.89 68.8273 151.841 69.974 151.352C70.0953 151.301 69.6887 150.647 69.8362 150.583C71.4029 149.909 73.0191 149.392 74.7871 149.271C74.9657 149.259 74.9925 149.957 75.1849 149.982C76.3539 150.124 78.3612 150.763 77.9175 147.845C78.6188 147.699 79.4615 147.503 80.2581 147.821C80.7736 148.025 80.6621 148.84 81.0169 148.375C81.0994 148.27 80.7347 147.732 80.8749 147.62C81.2698 147.299 81.7817 147.153 82.2251 146.917C82.4396 146.805 82.62 146.682 82.7976 146.504C82.9072 146.389 82.6664 145.874 82.6673 145.765C82.6852 144.873 83.7102 145.94 83.8561 145.99C85.0054 146.337 85.5338 145.818 86.3535 145.514C86.543 145.443 86.0423 144.823 86.2122 144.731C87.1073 144.26 88.0982 143.928 89.1727 143.863C89.4128 143.85 89.458 144.53 89.5839 144.555C90.1348 144.66 89.7853 143.482 90.3086 143.562C90.4195 143.576 90.5696 144.113 90.6083 144.164C90.6107 144.167 90.6131 144.17 90.6155 144.173C91.2056 144.946 90.9424 143.606 90.9966 143.553C91.6845 142.85 92.7221 143.97 93.4542 143.483C93.5422 143.423 93.0788 142.847 93.3414 142.719C95.0861 141.864 97.093 141.357 99.0952 141.291C99.406 141.28 99.3673 141.847 99.4056 141.903C100.01 142.774 99.776 141.42 99.8542 141.341C100.445 140.783 101.391 141.546 101.519 140.175C101.526 140.1 101.531 140.018 101.534 139.93C104.826 139.522 107.974 137.89 111.429 138.894C111.472 138.905 111.489 139.579 111.574 139.599C112.597 139.843 112.272 138.837 112.786 137.493C112.92 137.155 113.59 138.63 113.644 138.738C113.847 139.135 113.785 140.144 113.846 140.218C114.019 140.42 114.084 140.161 114.121 139.732C114.187 138.923 114.158 137.506 114.559 137.469C114.579 137.473 114.554 138.084 114.611 138.14C114.787 138.314 114.923 138.06 115.096 138.255C115.496 138.708 115.733 140.295 116.201 139.329C116.263 139.204 116.031 137.343 116.596 137.399C116.816 137.421 117.8 137.347 118.077 137.463C118.356 137.577 118.181 138.185 118.203 138.21C118.942 138.991 118.676 139.328 119.041 140.503C119.4 141.676 119.284 138.873 119.43 138.559C119.577 138.246 120.105 138.906 120.229 139.136C120.356 139.366 120.191 139.748 120.303 139.878C121.034 140.735 120.655 138.492 120.917 138.051C121.543 137.011 121.949 139.106 122.469 139.332C122.61 139.394 122.513 138.915 122.645 138.877C123.174 138.733 123.444 139.397 124.057 138.839C124.158 138.748 124.718 137.531 124.96 138.469C124.994 138.604 124.833 139.112 125.045 139.244C125.353 139.441 125.935 139.601 126.29 139.458C126.559 139.353 126.336 138.476 126.64 138.769C126.776 138.9 126.461 139.373 126.72 139.578C126.963 139.781 127.661 139.825 127.915 139.833C128.176 139.841 128.099 139.183 128.124 139.141C128.278 138.905 128.814 138.647 128.856 138.652C131.114 138.811 133.018 140.155 135.212 140.094C135.385 140.091 135.367 139.399 135.394 139.391C136.018 139.19 135.308 140.924 135.625 141.583C135.763 140.202 135.959 140.483 136.388 140.391C136.596 140.346 136.565 139.8 136.591 139.748C136.832 139.299 136.951 139.483 137.013 139.756C137.053 139.948 137.066 140.185 137.075 140.276C137.149 141.088 137.494 140.192 137.548 140.736C137.602 141.275 137.186 142.001 137.577 142.049C137.76 141.575 137.66 140.249 137.99 140.085C139.224 139.465 141.155 140.796 142.035 141.045C142.905 141.292 143.216 141.251 143.704 141.512C144.587 141.986 144.4 140.98 145.06 140.643C145.714 140.306 145.042 142.593 145.042 143.109C145.04 143.624 145.216 143.123 145.272 143.416C145.328 143.709 145.05 144.013 145.272 144.157C145.494 144.3 146.304 143.519 146.475 143.008C146.843 141.927 146.744 140.71 147.311 141.228C147.343 141.259 147.12 141.852 147.25 141.938C148.285 142.6 149.431 142.828 150.469 143.44C150.612 143.525 150.356 144.183 150.438 144.24C151.283 144.838 151.155 143.63 151.887 142.442C151.473 144.122 151.573 145.211 152.269 145.345C152.688 145.426 152.747 144.671 153.113 144.196C153.223 144.053 153.43 144.616 153.547 144.277C153.929 143.168 153.876 141.84 154.508 142.478C154.535 142.508 154.323 143.114 154.425 143.172C155.089 143.546 155.39 142.369 156.182 142.363C156.804 142.358 157.74 143.28 158.402 143.523C158.038 145.429 158.762 145.11 159.266 143.843C159.7 143.978 160.192 143.992 160.587 144.253C160.723 144.343 160.524 144.877 160.532 144.94C160.643 145.929 161.073 144.685 161.178 144.653C162.306 144.358 162.967 145.485 164.135 144.724C164.177 144.696 164.483 143.383 164.565 144.399C164.569 144.469 164.13 145.011 164.585 145.145C165.045 145.28 165.78 146.154 166.547 145.664C166.731 145.546 167.332 144.547 167.487 145.447C167.507 145.569 167.389 145.94 167.409 146.163C167.476 146.874 167.842 145.556 167.857 146.738C167.873 147.919 168.184 148.861 168.988 148.203C169.013 148.184 169.372 147.153 169.573 147.21C169.895 147.3 170.311 147.61 170.657 147.67C170.821 147.698 170.844 147.019 170.875 147.013C172.042 146.856 172.706 147.595 173.836 148.081C174.042 148.171 174.834 147.395 175.115 148.187C175.42 149.054 174.308 152.19 175.512 151.629C176 151.406 177.343 147.415 177.688 149.69C179.164 149.476 180.256 150.643 181.716 150.44C181.825 150.426 181.936 150.404 182.048 150.374C182.122 150.355 182.568 149.256 182.72 149.304C182.945 149.376 182.958 149.935 183.122 150.005C183.787 150.31 184.516 149.986 185.171 150.197C185.422 150.277 185.217 150.81 185.511 150.904C185.794 150.995 186.172 150.317 186.498 150.753C186.746 151.084 186.75 152.636 187.113 152.895C187.445 151.437 187.725 151.528 188.306 151.251C188.42 151.198 188.426 150.666 188.486 150.615C188.733 150.394 188.812 150.853 189.047 150.606C189.104 150.547 189.215 150.048 189.27 149.972C189.743 149.306 189.973 150.535 190.02 150.751C190.179 151.565 190.471 150.95 190.657 151.299C190.836 151.647 190.386 151.928 190.631 152.17C191.146 152.673 191.926 152.771 192.522 152.941C192.759 153.005 192.759 152.303 192.796 152.297C193.342 152.252 193.655 153.08 194.277 151.839C193.733 155.326 194.665 151.586 195.201 152.462C195.242 152.532 194.864 154.15 194.592 154.328C194.317 154.505 194.141 153.92 193.746 154.209C193.658 154.278 192.871 155.682 192.801 155.762C192.199 156.369 192.748 153.95 192.754 153.811C192.845 152.318 191.955 153.827 191.804 153.91C191.091 154.285 190.665 153.829 190.087 154.085C189.707 154.249 189.313 155.827 189.076 155.722C188.27 155.372 188.462 153.093 187.238 154.838C186.977 155.211 186.777 156.985 186.45 155.485C186.433 155.391 186.25 154.045 185.807 154.777C185.752 154.869 185.646 155.376 185.594 155.409C185.249 155.623 185.137 155.178 184.771 155.303C184.422 155.431 183.96 155.635 183.639 155.388C183.444 155.24 183.355 154.236 183.295 153.983C183.129 153.253 182.594 154.282 182.572 153.436C182.549 152.586 183.177 151.431 182.784 150.804C182.493 152.117 182.173 153.461 181.872 154.78C181.548 154.698 181.225 154.579 180.897 154.447C180.203 154.162 179.506 153.823 178.747 153.712C178.61 153.693 178.604 154.43 178.457 154.428C177.84 154.421 177.398 153.807 176.738 153.884C176.215 153.944 175.539 154.591 174.991 154.678C174.971 153.105 174.13 153.471 173.6 153.224C173.414 153.138 173.51 152.738 173.399 152.579C172.982 151.992 172.96 153.373 172.778 153.556C171.995 154.333 172.532 151.301 171.805 151.237C171.767 151.232 170.988 152.752 170.904 152.84C170.368 153.415 170.944 152.266 170.715 152.098C170.297 151.791 170.048 151.343 169.41 151.71C169.226 151.819 168.653 152.75 168.494 151.914C168.473 151.804 168.599 151.276 168.572 151.238C168.078 150.604 167.743 152.275 167.298 152.777C166.853 153.28 166.552 152.024 166.509 151.671C166.395 150.756 166.792 151.343 166.824 151.262C167.195 150.29 166.776 150.389 166.505 150.249C166.776 148.6 166.351 148.621 166.22 150.11C166.206 150.273 166.461 150.163 166.505 150.249C165.943 151.811 165.459 151.933 165.249 150.333C165.152 149.584 165.527 148.803 164.769 148.971C164.424 149.046 164.334 150.2 163.994 150.455C163.217 151.037 162.584 149.826 161.89 149.868C161.639 149.883 161.757 150.546 161.581 150.578C161.115 150.665 160.816 150.128 160.334 150.285C160.291 150.3 160.267 150.966 160.13 150.949C159.086 150.833 158.264 150.252 157.189 150.043C156.67 149.942 155.675 150.131 155.149 149.961C154.238 149.671 153.258 148.522 152.417 148.609C151.87 148.663 151.869 149.332 151.568 149.735C150.989 150.517 150.496 148.846 150.435 148.59C150.433 148.582 150.909 148.507 150.728 148.132C150.711 147.413 150.441 148.588 150.435 148.59C150.395 148.424 149.527 148.12 149.326 148.214C149.218 148.265 149.165 148.889 149.11 148.904C147.824 149.248 146.595 149.198 145.435 148.706C145.416 148.69 145.565 148.006 145.518 147.977C144.867 147.552 144.275 148.32 143.617 148.725C142.951 149.129 142.528 148.887 142.379 147.647C141.913 147.724 141.38 147.101 141.068 146.725C140.755 146.349 140.492 147.684 140.456 147.706C139.342 148.4 138.892 147.542 137.884 147.265C137.425 147.136 136.46 147.179 135.919 147.25C135.905 147.252 135.89 147.253 135.876 147.255C135.439 147.312 135.235 146.961 134.831 147.11C134.776 147.13 134.743 147.736 134.724 147.757C134.197 148.415 134.607 146.977 134.556 146.703C134.366 145.705 134.245 145.171 133.634 145.545C133.491 145.63 132.84 147.693 132.601 147.787C132.291 147.906 132.496 147.162 132.161 147.305C132.132 147.317 132.076 147.785 131.888 147.739C131.021 147.536 130.084 147.145 129.166 147.089C129.041 147.079 129.117 147.841 128.935 147.839C128.085 147.833 127.173 147.711 126.392 147.287C126.201 147.18 126.373 146.671 126.344 146.512C126.168 145.551 125.655 146.878 125.596 146.9C124.073 147.431 123.027 146.122 121.53 146.657C121.446 146.688 120.81 148.135 120.566 146.874C120.551 146.79 120.302 145.5 120.054 146.377C120.039 146.432 120.196 147.095 119.912 147.026C119.624 146.956 119.175 147.399 118.778 146.679C118.653 146.452 118.318 145.176 117.981 146.211C117.949 146.283 117.5 148.614 117.225 147.033C117.18 146.773 117.118 145.084 116.725 145.975C116.652 146.148 116.828 146.514 116.622 146.763C116.313 147.146 115.824 146.731 115.47 147.518C115.414 147.643 115.246 148.598 114.968 148.186C114.936 148.138 114.902 148.074 114.867 147.988C114.813 147.856 114.833 147.288 114.69 147.239C114.01 147.005 113.383 147.457 112.69 147.157C112.443 147.052 112.438 146.133 112.162 145.925C111.886 145.717 111.359 145.557 111.172 146.009C110.987 146.46 111.485 147.85 111.14 148.024C109.658 148.779 107.978 148.268 106.361 148.564C106.123 148.608 106.449 149.058 106.111 149.159C105.632 149.303 105.038 149.555 104.401 149.779C103.371 150.141 102.226 150.436 101.304 150.026C100.103 149.497 101.049 148.468 100.225 148.366C99.8254 148.321 100.004 150.044 99.9409 150.123C99.3187 150.909 98.5136 150.402 97.8678 150.88C97.7356 150.978 98.1148 151.568 97.9991 151.646C97.6086 151.913 97.0495 151.794 96.6561 152C96.4792 152.094 96.6987 152.57 96.5131 152.596C96.075 152.664 95.6388 152.594 95.0671 152.288C95.0148 152.26 95.0281 151.559 94.7171 151.652C94.3973 151.749 93.9647 151.697 93.596 151.823C93.3821 151.895 93.1925 152.025 93.057 152.274C92.9444 152.48 93.3803 153.591 92.7211 152.966C92.5832 152.835 92.147 151.465 92.1892 152.783C92.1967 153.001 92.1095 154.838 91.3457 153.984C91.1438 153.759 90.4679 152.766 90.3245 153.022C90.3072 153.061 90.6583 153.611 90.509 153.738C89.9724 154.178 89.2945 154.372 88.7417 154.804C88.5918 154.921 89.0884 155.44 88.8544 155.596C88.2284 156.021 87.304 156.198 86.558 156.263C86.2784 156.288 86.2546 155.707 86.2149 155.659C85.6009 154.891 85.8578 156.06 85.8125 156.246C85.811 156.253 85.809 156.259 85.8066 156.263C85.3751 156.92 84.7026 156.517 84.2067 156.881C84.0726 156.979 84.4024 157.524 84.3925 157.587C84.276 158.216 84.1068 157.076 83.864 157.036C83.1838 156.921 82.5795 157.205 82.0483 157.492C81.8521 157.599 82.343 158.19 82.1635 158.278C81.108 158.813 79.9463 159.178 78.7318 159.208C78.5023 159.212 78.4326 158.641 78.3454 158.537C77.7413 157.81 77.7461 159.11 77.6881 159.256C77.432 159.919 77.0823 159.521 76.7235 159.754C74.9651 160.904 72.4739 161.479 70.5806 161.956C68.2482 162.547 66.3022 162.73 64.1884 163.537C64.0652 163.584 63.9428 163.632 63.821 163.682C63.6785 163.74 64.0689 164.392 63.9494 164.451C62.3793 165.186 60.6665 165.461 59.0339 166.21C58.9 166.27 59.3149 166.878 59.1071 166.997C58.6752 167.247 58.0685 167.396 57.52 167.327C57.2562 167.293 57.3937 166.619 57.1303 166.598C56.5152 166.546 55.907 166.671 55.3461 166.941C55.1039 167.059 55.6795 167.65 55.3486 167.748C54.3429 168.052 53.2675 168.36 52.0724 168.53C51.2793 168.616 50.1832 168.674 48.9637 168.429C48.8117 168.398 48.356 166.999 48.1244 167.342C48.1947 167.744 48.305 168.21 48.3943 168.635C45.4955 169.562 42.2262 169.734 39.053 170.125C38.9179 170.142 39.2666 170.876 39.0037 170.913C37.9783 171.057 36.9809 171.284 35.9351 171.227C35.4615 171.197 34.9836 171.104 34.4878 170.907C34.3343 170.849 34.2537 169.483 33.8562 169.735C33.7843 169.781 33.1711 170.032 33.0322 170.345C33.0145 170.392 33.2008 171.014 32.9959 171.055C31.8107 171.281 30.5285 171.27 29.2866 171.002C29.0882 170.957 29.2248 170.261 29.0837 170.223C28.065 169.963 27.0514 170.578 26.0412 170.047C25.3708 169.688 25.5021 168.498 25.0732 167.374C25.0109 167.216 24.6169 167.221 24.543 166.552C24.3677 164.87 24.4073 163.01 24.198 161.218C24.1779 161.025 24.0478 161.042 23.9835 160.985C23.9681 160.957 23.889 160.908 24.1504 160.804C24.2557 160.754 23.9946 160.694 23.9637 160.618C23.9273 160.541 23.9306 160.445 23.9436 160.326C23.9357 160.264 24.2488 159.928 24.3136 159.604C24.3528 159.38 24.1944 158.706 24.2894 158.416C24.3908 158.126 24.5659 158.686 24.7475 158.339C24.9209 157.987 24.7646 157.22 25.1667 157.092ZM139.666 145.046C139.431 144.348 139.014 146.705 139.464 146.196C139.486 146.168 139.678 145.081 139.666 145.046ZM180.202 152.104C179.985 150.983 179.375 152.443 179.521 153.304C179.664 154.164 180.27 152.445 180.202 152.104ZM184.878 152.282C184.533 151.36 183.756 154.663 184.448 154.108C184.488 154.077 184.898 152.336 184.878 152.282ZM26.5862 166.912C26.5819 166.88 26.296 166.875 26.2946 166.907C26.2145 167.677 26.7778 167.688 26.5862 166.912ZM189.52 152.428C189.459 151.944 188.896 152.361 188.966 152.962C189.022 153.444 189.594 153.029 189.52 152.428ZM122.432 140.5C122.427 140.464 122.235 140.424 122.23 140.625C122.217 141.274 122.492 141.103 122.432 140.5ZM196.989 154.335C195.97 153.869 196.06 150.977 197.219 151.663C197.423 151.787 196.472 152.366 196.679 152.695C197.047 153.292 197.936 151.733 198.154 152.8C198.191 152.994 197.044 154.367 196.985 154.338C196.987 154.337 196.988 154.336 196.989 154.335ZM139.915 142.176C139.913 142.144 139.648 142.073 139.637 142.103C139.375 142.831 139.908 142.975 139.915 142.176ZM110.779 139.647C110.754 139.582 110.103 139.618 110.092 139.683C109.96 140.96 111.247 140.895 110.779 139.647ZM158.403 143.576C158.835 142.878 159.204 142.854 159.265 143.841C158.982 143.738 158.689 143.676 158.403 143.576Z" fill="var(--stroke-0, #345900)"/>
</g>
</svg>
