<svg preserveAspectRatio="none" width="100%" height="100%" overflow="visible" style="display: block;" viewBox="0 0 64.4185 200.46" fill="none" xmlns="http://www.w3.org/2000/svg">
<path id="Vector 26" d="M55.0492 198.266C54.5601 197.012 54.3348 195.358 54.2704 194.081C54.2496 193.682 54.6 193.808 54.5995 193.528C54.5995 192.986 54.3398 192.536 54.3671 191.998C54.3774 191.818 54.9082 191.92 54.908 191.733C54.9036 190.715 54.5794 189.831 54.4695 188.831C54.4511 188.662 54.4319 188.49 54.4121 188.317C53.8975 183.805 52.8548 179.187 51.9654 174.462C51.6566 172.841 51.6465 170.786 51.0983 169.149C51.0338 168.958 50.6331 169.165 50.5901 169.136C49.9292 168.662 50.8294 168.674 50.8645 168.269C50.8669 168.242 50.8691 168.215 50.8712 168.188C50.9925 166.602 50.7116 164.944 50.2986 163.524C50.1191 162.909 49.3753 163.686 49.7455 162.969C49.7704 162.919 50.2528 163.002 50.2724 162.822C50.316 162.415 50.1147 161.684 50.1047 161.377C50.0864 160.78 50.0676 160.685 49.9925 160.13C49.8942 159.37 50.0022 158.438 49.8014 157.636C49.7572 157.464 49.3142 157.751 49.2013 157.481C49.0878 157.21 49.0462 156.466 49.1319 156.203C49.2172 155.942 49.5985 156.011 49.6788 155.958C50.3574 155.525 49.2858 154.771 49.252 154.66C48.7733 153.073 48.9833 151.613 49.0465 150.135C49.062 149.774 49.069 149.411 49.0555 149.042C49.0017 147.616 48.7881 146.093 48.8115 144.736C48.8417 143.117 49.1189 141.755 49.1232 140.186C49.1244 140.02 48.5616 140.197 48.562 139.994C48.5676 138.152 48.7004 136.317 49.0953 134.497C49.1635 134.181 49.2391 133.872 49.3232 133.561C49.3813 133.35 49.8422 133.672 49.9293 133.464C50.4509 132.189 51.645 130.27 49.6071 129.29C49.7819 128.445 49.9694 127.418 50.4631 126.695C50.7814 126.223 51.2708 126.751 51.0957 126.123C51.0567 125.98 50.5772 126.12 50.5536 125.912C50.4539 125.041 50.6728 124.098 50.4854 123.23C50.4461 123.055 50.026 123.076 49.9539 123.022C49.3717 122.567 50.4156 121.941 50.4966 121.794C50.8374 121.161 50.9301 120.625 50.9572 120.068C50.9777 119.648 50.9579 119.214 50.9822 118.742C50.9954 118.489 50.4229 118.766 50.4153 118.523C50.3827 117.279 50.471 115.99 50.7512 114.774C50.8149 114.503 51.2865 114.765 51.3414 114.636C51.5773 114.063 50.6771 113.922 50.8843 113.372C50.9267 113.258 51.3346 113.331 51.38 113.311C52.0926 112.997 51.0984 112.686 51.078 112.6C50.7967 111.521 51.851 110.843 51.7157 109.8C51.6984 109.674 51.1773 109.951 51.1603 109.598C51.0436 107.266 51.1904 104.799 51.5866 102.484C51.6474 102.123 52.0386 102.377 52.0863 102.354C52.8328 101.979 51.8263 101.749 51.7873 101.632C51.5059 100.711 52.3353 99.8334 51.1287 99.2247C51.4531 95.5703 50.7794 91.969 51.365 88.3264C51.4077 88.0579 51.4571 87.79 51.5142 87.5225C51.5236 87.4727 52.0226 87.5309 52.0392 87.4315C52.2428 86.2275 51.4894 86.5056 50.4985 85.7898C50.2498 85.6116 51.3385 84.9341 51.4171 84.8733C51.7084 84.6572 52.4571 84.803 52.5115 84.7338C52.9355 84.1599 50.5169 84.4349 50.4585 83.7182C50.4607 83.6953 50.9147 83.7533 50.9542 83.6894C51.0783 83.4903 50.8856 83.321 51.0236 83.1237C51.343 82.6727 52.5082 82.4191 51.7636 81.8348C51.667 81.7619 50.305 82.0111 50.3091 81.3685C50.3126 81.11 50.1746 79.9874 50.2282 79.6626C50.2829 79.3386 50.7485 79.5061 50.7652 79.4817C51.2556 78.5644 51.5332 78.86 52.3491 78.3306C53.1604 77.7984 51.1193 78.1591 50.8694 78.0127C50.6204 77.8656 51.0253 77.184 51.1725 77.0074C51.3204 76.8321 51.6252 76.9887 51.7025 76.8395C52.2037 75.8491 50.6326 76.5739 50.268 76.3192C49.4045 75.7257 50.8477 74.9728 50.9008 74.3046C50.915 74.1244 50.5906 74.3179 50.5351 74.1681C50.3197 73.5767 50.7351 73.1322 50.1883 72.5082C50.0989 72.4043 49.0967 72.0019 49.7008 71.5258C49.788 71.4577 50.1902 71.5385 50.2292 71.2637C50.2884 70.8537 50.2433 70.1374 50.0386 69.7445C49.8874 69.4546 49.3355 69.924 49.4541 69.5019C49.5069 69.314 49.9302 69.5627 49.9989 69.2145C50.0685 68.8676 49.8878 68.0483 49.8098 67.7389C49.7323 67.4299 49.2999 67.6983 49.2632 67.6796C49.0514 67.5651 48.6995 67.0205 48.6884 66.9684C48.061 64.3503 48.2231 61.7259 47.2305 59.2547C47.1531 59.0608 46.7078 59.3344 46.691 59.3063C46.2901 58.6878 47.7331 58.8468 48.0219 58.2411C47.299 58.512 47.1741 58.3895 47.0487 58.121C47.0076 58.0333 46.9665 57.93 46.9041 57.8198C46.7816 57.6051 46.4409 57.8461 46.3957 57.8368C45.7169 57.6723 46.3859 57.2076 46.5186 57.0988C47.0066 56.699 46.2701 56.6589 46.5941 56.3877C46.915 56.1164 47.5761 56.2991 47.4227 55.8399C47.033 55.8225 46.2295 56.452 45.9713 56.1525C45.0023 55.0272 44.8867 52.3685 44.5823 51.2965C44.2835 50.23 44.0957 49.9183 43.9969 49.2679C43.8152 48.0923 43.2991 48.7415 42.7409 48.1816C42.1809 47.6218 43.9374 47.3284 44.2512 47.0973C44.5652 46.8674 44.1646 46.9012 44.3111 46.7071C44.4578 46.5137 44.7956 46.6815 44.7598 46.3721C44.7241 46.0621 43.8038 45.5368 43.3995 45.5817C42.5431 45.6758 41.8656 46.3374 41.8622 45.4909C41.8625 45.442 42.3438 45.4109 42.3231 45.2317C42.1442 43.8153 41.6243 42.4758 41.3818 41.0775C41.3486 40.8838 41.8861 40.8459 41.872 40.7308C41.7293 39.5408 41.0907 40.2476 39.9657 40.0417C41.1941 39.6779 41.7754 39.0485 41.4375 38.2379C41.2329 37.747 40.7596 38.0549 40.2639 37.8945C40.1144 37.846 40.3172 37.3525 40.0507 37.3954C39.1787 37.5339 38.4385 38.2306 38.4301 37.2566C38.431 37.2135 38.9098 37.1405 38.8817 37.0053C38.6959 36.1178 37.8368 36.3854 37.3509 35.5572C36.9902 34.943 36.9295 33.621 36.6919 32.7962C36.6784 32.7502 36.6647 32.7061 36.6504 32.6638C37.9602 32.0851 37.3266 31.4866 36.2937 31.6055C36.1001 31.09 35.7993 30.5792 35.6924 30.0445C35.6547 29.8598 36.0799 29.7869 36.1102 29.7467C36.5866 29.1188 35.6165 29.3263 35.5328 29.2435C34.6439 28.2929 34.7593 27.0091 33.4909 26.541C33.4427 26.5225 32.6383 27.1032 33.0123 26.42C33.0351 26.3702 33.6277 26.3674 33.3047 25.9358C32.9922 25.5117 32.5989 24.3738 31.6924 24.1674C31.5981 24.145 31.381 24.1842 31.1674 24.1719C30.891 24.162 30.6291 24.0691 30.7036 23.6507C30.7218 23.5516 30.956 23.379 31.0067 23.2107C31.1662 22.6725 30.3906 23.3264 30.7477 22.4989C31.1043 21.6711 31.0754 20.7859 30.0716 20.6848C30.0405 20.6802 29.3677 21.1487 29.1843 20.9705C28.891 20.6843 28.5622 20.1757 28.2369 19.8993C28.0804 19.7666 27.8545 20.226 27.8217 20.2094C26.6033 19.5172 26.1498 18.5452 25.1501 17.4441C24.9676 17.2416 23.9396 17.255 23.8831 16.5111C23.8182 15.6945 25.8345 14.2139 24.4415 13.8041C23.8783 13.6362 21.3967 15.5799 21.6712 13.74C21.0333 13.41 20.5194 12.9617 20.0269 12.4923C19.2134 11.7171 18.461 10.8869 17.3259 10.4506C17.2457 10.42 16.5068 10.9353 16.3607 10.8079C16.1399 10.6136 16.2603 10.1994 16.1092 10.0503C15.4889 9.4231 14.6424 9.2156 13.9988 8.6712C13.754 8.46552 14.0907 8.19756 13.7971 7.95218C13.5015 7.70632 12.9757 7.99919 12.7124 7.48148C12.5147 7.08936 12.8502 5.95225 12.4986 5.54176C11.8424 6.42919 11.5651 6.2027 10.8792 6.0771C10.7476 6.05383 10.6334 6.44276 10.5598 6.44805C10.2556 6.47651 10.2596 6.09128 9.95572 6.1427C9.88239 6.15481 9.66492 6.46254 9.59257 6.48975C9.2191 6.63719 9.05987 6.31635 8.99302 5.99969C8.94542 5.78779 8.94273 5.58061 8.93926 5.50717C8.91766 4.81486 8.48675 5.11573 8.35022 4.75911C8.21219 4.40208 8.75511 4.43198 8.52435 4.11773C8.04499 3.46632 7.18463 2.98587 6.52345 2.57445C6.25807 2.41217 6.18562 2.95367 6.1417 2.94049C5.53672 2.73077 5.21737 1.95172 4.4442 2.67928C4.44874 2.66539 4.4532 2.65165 4.45761 2.63807C5.22729 0.206343 3.99054 2.7133 3.4268 1.88167C3.38295 1.81588 3.79518 0.656836 4.13422 0.614466C4.47569 0.573752 4.69892 1.10893 5.1743 1.04007C5.19713 1.03692 5.25621 1.00281 5.33714 0.950482C5.65393 0.74164 6.32461 0.259091 6.40572 0.240503C7.19731 0.0541851 6.36484 1.69213 6.33898 1.79207C6.09153 2.89854 7.2655 2.16223 7.46202 2.18411C8.33737 2.26401 8.75248 2.8434 9.44547 2.9685C9.89782 3.05316 10.6013 2.08161 10.8601 2.30095C11.0155 2.43312 11.1217 2.59572 11.2028 2.76978C11.5558 3.53968 11.3764 4.50748 12.7508 4.02675C13.112 3.90342 13.6879 2.70385 13.7468 4.01059C13.7506 4.09288 13.6839 5.20442 14.3094 4.92121C14.3884 4.8856 14.6112 4.57533 14.6765 4.58301C15.1066 4.63833 15.1354 5.03583 15.5554 5.16326C15.9766 5.29164 16.5092 5.41555 16.8128 5.80425C16.9947 6.03676 16.8603 6.82627 16.8642 7.04753C16.8674 7.67859 17.6934 7.27311 17.5145 7.90127C17.3328 8.53138 16.3999 8.98535 16.6552 9.67811C17.2775 8.90473 17.9398 8.1291 18.5776 7.36066C19.6555 8.23309 20.5264 9.32655 21.6333 10.1597C21.7716 10.2626 21.9683 9.73621 22.1259 9.83645C22.1346 9.84208 22.1433 9.84776 22.152 9.8535C22.7935 10.2783 23.0813 10.9875 23.7889 11.375C24.3455 11.6777 25.2312 11.6773 25.8232 11.9853C25.4022 13.1121 26.3871 13.4337 26.855 13.965C27.0192 14.1506 26.8107 14.3716 26.8796 14.5594C27.1442 15.2632 27.5582 14.2989 27.7978 14.2951C28.825 14.2839 27.402 16.055 28.1272 16.6028C28.1652 16.6324 29.4011 16.0986 29.5126 16.0954C30.2241 16.0601 29.3015 16.4698 29.4881 16.7492C29.8266 17.2583 29.9465 17.7453 30.7011 17.934C30.9199 17.9858 31.7858 17.7414 31.6944 18.4392C31.6823 18.5305 31.3963 18.8118 31.4117 18.8566C31.7173 19.6481 32.5634 18.7186 33.1734 18.6918C33.7826 18.6643 33.6983 19.7569 33.6345 20.0369C33.4649 20.7565 33.2434 20.0559 33.1888 20.0925C32.5153 20.503 32.9637 20.7314 33.1961 21.0295C32.4069 21.9778 32.8379 22.2716 33.4405 21.3353C33.5042 21.2309 33.2143 21.122 33.1961 21.0295C33.7114 20.699 34.1058 20.5996 34.334 20.7272C34.5796 20.8671 34.6447 21.2567 34.4956 21.9109C34.354 22.5097 33.7146 22.7411 34.545 23.2429C34.923 23.4809 35.41 22.7633 35.864 22.906C36.9255 23.2492 37.1484 24.8458 37.7328 25.592C37.9542 25.8705 38.174 25.3349 38.3404 25.5212C38.7849 26.0248 38.7324 26.6679 39.1634 27.118C39.2031 27.159 39.5757 26.8185 39.6667 26.9839C40.3574 28.2297 40.5516 29.4084 41.1127 30.6561C41.1278 30.69 41.1445 30.7251 41.1625 30.7615C41.4629 31.3652 42.1294 32.2679 42.3453 32.8779C42.7496 34.005 42.6864 35.6237 43.246 36.4889C43.6099 37.056 43.9978 36.7272 44.4154 36.8599C45.2236 37.1143 44.5425 38.46 44.4283 38.649C44.4242 38.6541 44.0975 38.1745 43.9852 38.5511C43.5741 38.9156 44.4237 38.6439 44.4283 38.649C44.3569 38.7747 44.6946 39.87 44.8653 40.041C44.9592 40.1351 45.3589 39.8955 45.3999 39.948C46.3652 41.2038 47.0489 42.5879 47.4139 44.1156C47.4152 44.1445 46.9199 44.2936 46.9288 44.3591C47.0416 45.28 47.8351 45.5887 48.4496 46.1545C49.0628 46.7181 49.1525 47.3214 48.4734 48.0395C48.7722 48.5283 48.6781 49.4196 48.6089 49.9342C48.5401 50.4491 49.5076 50.1763 49.54 50.2083C50.5626 51.2033 50.2604 52.0937 50.5913 53.3809C50.7476 53.9933 51.2685 55.1445 51.5746 55.7694C51.7447 56.1127 51.7334 56.4021 51.8069 56.6925C51.8394 56.8206 51.8881 56.9489 51.9756 57.0825C52.0142 57.1419 52.4232 56.9491 52.4455 56.9641C53.1175 57.3516 51.9927 57.4009 51.8381 57.5664C51.2742 58.167 50.9822 58.5141 51.496 59.1075C51.6138 59.2437 53.258 59.2852 53.427 59.5567C53.643 59.9072 53.0599 59.9103 53.2981 60.2724C53.318 60.3037 53.6523 60.2065 53.7028 60.4576C53.9409 61.6199 54.0547 62.9197 54.3645 64.1089C54.4056 64.2719 54.8949 63.9377 54.9631 64.1722C55.2825 65.272 55.5244 66.5064 55.4864 67.6473C55.4753 67.9284 55.063 67.8347 54.9619 67.915C54.3508 68.403 55.4368 68.7167 55.4715 68.7984C56.3216 70.7123 55.6727 72.3945 56.3935 74.3672C56.4349 74.4734 57.6249 75.1868 56.7553 75.6927C56.6977 75.7278 55.8061 76.2243 56.4913 76.4764C56.5341 76.4923 56.9891 76.1949 56.9913 76.6135C56.9931 77.0287 57.3967 77.6566 56.9268 78.2813C56.7791 78.4811 55.8852 79.0009 56.691 79.453C56.7473 79.481 58.5286 80.1331 57.3857 80.5451C57.1974 80.6121 55.954 80.6812 56.649 81.2529C56.7835 81.3626 57.0397 81.1163 57.242 81.4206C57.5534 81.8868 57.278 82.5663 57.8796 83.1211C57.986 83.2169 58.865 83.6032 58.2526 84.0103C58.1567 84.0741 57.7341 83.9991 57.702 84.1918C57.5476 85.1102 57.8888 86.0285 57.6576 86.9606C57.5763 87.2881 56.8956 87.1643 56.7356 87.5094C56.6728 87.645 56.614 87.8329 56.5852 88.0319C56.5405 88.3367 56.5677 88.6676 56.7652 88.8707C57.0903 89.2053 58.1403 88.7672 58.2528 89.2883C58.7404 91.5634 58.1949 93.8536 58.162 96.1282C58.1569 96.4659 58.5331 96.1764 58.5526 96.6738C58.6289 98.5065 59.0308 101.671 58.2221 103.262C57.5758 104.537 57.0719 102.94 56.8107 103.911C56.6859 104.377 57.9318 104.882 57.9711 104.995C58.3701 106.099 57.8159 106.868 57.979 107.861C58.0127 108.067 58.5188 107.869 58.5419 108.044C58.6254 108.641 58.3942 109.269 58.4288 109.839C58.4454 110.097 58.8314 110.054 58.7987 110.29C58.7248 110.849 58.5553 111.35 58.1848 111.894C58.151 111.943 57.6773 111.596 57.6523 112.014C57.6133 112.685 57.2401 113.516 57.5897 114.301C57.6949 114.531 58.5756 114.566 57.9546 115.047C57.8248 115.148 56.7711 114.984 57.6692 115.587C57.8187 115.688 59.023 116.701 58.2128 117.149C57.9997 117.268 57.1237 117.565 57.2501 117.843C57.2705 117.881 57.7487 117.748 57.7868 117.977C57.9069 118.765 57.8349 119.576 57.9251 120.382C57.9291 120.419 57.9334 120.456 57.9381 120.492C57.9682 120.721 58.4729 120.406 58.502 120.745C58.5833 121.671 58.3969 122.82 58.1869 123.714C58.1085 124.045 57.7183 123.788 57.6727 123.809C56.9311 124.158 57.883 124.444 57.9302 124.582C58.2124 125.415 57.7114 125.998 57.7693 126.755C57.7838 126.964 58.2566 126.856 58.2942 126.901C58.6593 127.358 57.8594 126.973 57.7448 127.235C57.421 127.968 57.377 128.809 57.3568 129.57C57.3502 129.847 57.9158 129.592 57.9033 129.843C57.8395 131.331 57.615 132.787 57.1968 134.072C57.1171 134.313 56.721 134.119 56.6223 134.162C56.0112 134.428 56.6073 134.93 56.8056 135.129C56.8314 135.155 56.8505 135.176 56.8592 135.19C57.2053 135.767 56.8264 135.951 56.8611 136.443C57.0357 138.839 56.7053 141.801 56.553 144.081C56.4121 146.182 56.2145 147.958 56.2063 149.813C56.2036 150.577 56.234 151.354 56.3194 152.169C56.3376 152.347 56.8728 152.13 56.8956 152.281C57.1648 154.238 57.1482 156.182 57.5692 158.125C57.6028 158.283 58.0873 157.983 58.1585 158.235C58.3084 158.75 58.3775 159.422 58.2957 159.98C58.257 160.254 57.7614 159.971 57.7317 160.246C57.6619 160.886 57.7341 161.553 57.926 162.171C58.009 162.435 58.4625 161.937 58.5296 162.286C58.8033 163.67 59.112 165.039 59.2942 166.454C59.4212 167.446 59.488 168.468 59.4356 169.538C59.4269 169.715 58.4048 170.1 58.6882 170.41C58.987 170.37 59.3309 170.29 59.6464 170.23C60.615 173.695 61.1294 177.278 61.9597 180.882C61.9946 181.033 62.4867 180.635 62.5573 180.928C62.9677 182.635 63.5311 184.253 63.3818 186.225C63.3758 186.303 63.2105 186.368 63.0315 186.451C62.7637 186.573 62.466 186.734 62.6206 187.015C62.6663 187.095 62.9636 187.826 63.221 187.977C63.2591 187.996 63.6883 187.757 63.7555 187.998C64.137 189.398 64.3649 190.899 64.4132 192.362C64.4199 192.597 63.8759 192.473 63.8764 192.641C63.8863 193.843 64.5568 194.989 64.3927 196.134C64.2821 196.893 63.3783 196.871 62.6641 197.472C62.5627 197.559 62.6693 197.961 62.2057 198.13C61.0517 198.611 59.6748 198.805 58.4496 199.333C58.3212 199.397 58.3811 199.577 58.4618 199.886C58.4903 200.02 58.614 200.333 58.595 200.434C58.5814 200.557 58.2498 200.214 58.0022 200.05C57.8776 199.893 57.4544 199.342 57.1977 199.295C57.0133 199.246 56.5829 199.566 56.3247 199.43C56.068 199.296 56.4172 198.981 56.1017 198.756C55.7869 198.542 55.2633 198.81 55.0492 198.266ZM48.292 52.2454C47.9732 52.8036 49.6654 52.2965 49.1158 51.9934C49.0872 51.9794 48.3072 52.2169 48.292 52.2454ZM19.6903 10.3691C19.6395 11.3223 20.6495 10.6644 20.7187 9.9502C20.7828 9.2332 19.7038 10.0788 19.6903 10.3691ZM14.7818 7.32234C14.9344 8.20017 16.5143 6.25562 15.6502 6.24404C15.6004 6.24276 14.7727 7.27127 14.7818 7.32234ZM61.9561 195.778C61.9349 195.791 61.9952 196.118 62.0202 196.122C62.607 196.153 62.4859 195.498 61.9561 195.778ZM9.7859 4.52511C9.78031 4.61242 9.81067 4.68064 9.8623 4.72912C10.038 4.89528 10.4675 4.81582 10.4927 4.43554C10.505 4.2761 10.3904 4.17716 10.2555 4.15438C10.0544 4.11752 9.80493 4.23645 9.7859 4.52511ZM51.7506 74.1606C51.7256 74.171 51.7378 74.4164 51.8842 74.3898C52.3558 74.3043 52.172 73.9856 51.7506 74.1606ZM1.14337 0.00303438C2.51704 0.558526 2.50563 2.79128 1.21428 2.06281C0.972774 1.93226 1.98519 1.63777 1.72359 1.34604C1.22285 0.806681 0.418625 1.91072 0.00389603 1.05397C-0.0747386 0.895362 1.06206 -0.0360733 1.14667 0.00108156C1.14557 0.00173238 1.14447 0.00238353 1.14337 0.00303438ZM46.3639 53.161C46.3446 53.1766 46.4319 53.503 46.4564 53.5033C47.0462 53.4976 46.8698 52.8371 46.3639 53.161ZM52.0482 88.3916C51.9999 88.4123 51.9955 89.1932 52.0423 89.2169C52.9796 89.577 52.991 87.9907 52.0482 88.3916ZM36.6795 32.6356C36.0144 32.5356 35.7739 32.1703 36.2937 31.6074C36.4122 31.9535 36.5592 32.288 36.6795 32.6356Z" fill="var(--stroke-0, #467603)"/>
</svg>
