<svg preserveAspectRatio="none" width="100%" height="100%" overflow="visible" style="display: block;" viewBox="0 0 258.957 225.293" fill="none" xmlns="http://www.w3.org/2000/svg">
<path id="Vector 131" d="M144.431 161.065C144.525 160.905 144.621 160.744 144.717 160.58C148.359 154.518 152.748 148.305 157.36 142.211C159.896 138.771 164.005 134.063 167.387 131.411C168.22 130.721 168.702 130.422 169.045 130.266C169.848 129.916 169.805 130.447 171.103 129.449C174.683 126.707 177.695 123.742 181.483 121.172C182.748 120.323 181.932 122.342 183.237 121.442C186.414 119.304 188.93 117.323 193.363 114.908C197.988 112.552 202.802 110.563 207.962 109.154C210.001 108.597 212.053 108.116 214.108 107.707C225.112 105.616 235.274 105.601 245.272 105.636C245.473 105.638 245.661 105.639 245.774 105.639C245.828 105.639 245.866 105.638 245.824 105.644C245.802 105.648 245.76 105.652 245.645 105.668C245.585 105.676 245.517 105.686 245.387 105.708C245.272 105.729 245.082 105.763 244.778 105.842C244.604 105.887 244.354 105.958 244.036 106.075C243.876 106.133 243.589 106.246 243.288 106.391C242.961 106.559 242.69 106.668 241.942 107.204C241.244 107.813 240.487 108.098 239.24 110.558C238.078 112.843 238.455 116.355 239.477 118.022C241.222 120.888 242.071 120.876 242.541 121.29C243.515 121.858 243.73 121.879 243.989 121.988C244.215 122.069 244.343 122.105 244.434 122.131C244.783 122.226 244.78 122.213 244.794 122.215C244.788 122.208 244.63 122.176 244.469 122.149C240.558 121.52 236.547 120.843 232.425 119.906C228.085 118.992 220.652 119.115 214.165 119.153C211.229 119.18 208.39 119.353 205.828 119.784C203.091 120.241 201.68 120.791 197.683 122.232C190.933 124.518 182.691 128.424 177.057 132.11C175.17 133.448 173.383 134.921 171.706 136.528C168.563 139.512 165.879 142.858 162.512 147.518C159.375 151.689 156.414 157.559 153.978 163.093C153.742 163.627 153.549 164.227 153.413 164.852C153.346 165.163 153.292 165.481 153.256 165.787C153.238 165.939 153.225 166.09 153.216 166.224C153.212 166.293 153.209 166.355 153.208 166.408C153.207 166.435 153.207 166.458 153.207 166.47C153.208 166.477 153.208 166.481 153.209 166.476C153.209 166.473 153.209 166.471 153.21 166.456C153.21 166.448 153.21 166.444 153.21 166.426C153.21 166.414 153.21 166.4 153.21 166.378C153.21 166.368 153.21 166.355 153.21 166.337C153.21 166.331 153.211 166.324 153.207 166.19C153.205 166.154 153.204 166.109 153.199 166.02C153.187 165.906 153.204 165.871 153.115 165.304C153.086 165.146 153.055 164.941 152.928 164.516C152.859 164.295 152.772 164.014 152.549 163.55C152.294 163.086 152.036 162.415 150.83 161.369C149.801 160.295 146.427 159.276 144.225 160.346C142.127 161.256 141.496 162.403 141.099 162.977C140.398 164.194 140.419 164.524 140.312 164.848C140.181 165.408 140.183 165.542 140.162 165.687C140.147 165.818 140.142 165.888 140.138 165.945C140.351 163.504 140.833 162.253 141.213 160.936C141.79 159.135 140.518 159.871 140.562 159.508C141.352 154.051 142.518 156.487 143.997 153.539C145.466 150.667 146.904 147.759 148.303 144.77C152.505 135.785 156.398 126.245 159.788 117.618C161.722 112.725 157.879 116.807 160.977 112.366C160.978 112.364 160.98 112.361 160.982 112.359C161.047 112.264 161.128 112.348 161.227 112.476C161.409 112.705 161.654 113.076 161.977 112.806C162.07 112.727 162.169 112.597 162.274 112.4C163.808 109.485 166.289 103.728 167.437 101.506C169.642 97.2064 169.964 96.511 171.833 92.3948C172.116 91.7714 172.404 91.1445 172.706 90.4924C175.105 85.3165 177.996 79.4378 180.079 73.8637C180.575 72.5242 178.891 73.8723 179.593 71.7017C180.3 69.5304 182.641 63.9871 183.612 62.1967C184.587 60.4069 185.032 61.507 185.339 61.2439C186.289 60.4427 186.956 58.9317 187.416 57.3196C188.2 54.5895 188.317 51.5781 188.457 51.0555C190.192 44.825 191.638 39.3061 192.276 33.7257C192.446 32.5331 192.452 31.1068 192.435 30.9572C192.465 31.0173 192.463 31.2186 192.83 31.9096C193.109 32.558 194.484 33.9786 195.852 34.287C197.168 34.6253 197.736 34.4221 198.011 34.3809C198.288 34.3133 198.326 34.2788 198.316 34.2779C194.004 36.0037 188.052 40.0848 182.462 43.6135C181.977 43.9236 181.489 44.235 180.997 44.5468C178.429 46.13 176.62 48.088 174.267 50.9087C170.976 54.9141 168.6 60.9304 166.309 66.609C165.949 67.5043 165.682 68.2704 165.413 69.164C164.11 73.7041 163.015 78.7545 161.885 83.4627C160.214 90.5867 158.612 97.5576 157.163 105.15C156.907 106.485 158.42 105.162 158.112 106.791C156.524 115.202 154.899 123.605 153.343 131.894C151.739 140.429 150.638 147.647 149.719 157.148C149.634 157.623 149.545 158.097 149.45 158.57C149.054 160.459 148.4 157.844 147.932 159.696C147.482 161.345 147.108 162.889 146.065 165.198C146.005 165.328 145.95 165.443 145.849 165.63C145.787 165.746 145.713 165.876 145.603 166.04C145.516 166.155 145.278 166.576 144.64 167.066C144.353 167.313 143.006 168.135 141.447 167.772C139.968 167.425 139.302 166.542 138.975 166.048C138.789 165.749 138.758 165.662 138.699 165.534C138.646 165.415 138.605 165.31 138.572 165.214C138.506 165.024 138.468 164.873 138.44 164.743C138.367 164.397 138.355 164.164 138.348 164.036C138.329 163.475 138.366 163.231 138.391 162.95C138.449 162.403 138.521 161.955 138.595 161.489C138.742 160.575 138.903 159.682 139.06 158.792C139.377 157.007 139.688 155.219 139.942 153.45C140.919 146.135 140.643 138.659 138.006 134.949C138.029 134.453 138.052 133.945 138.074 133.438C138.523 126.824 137.652 119.43 137.531 113.24C137.468 109.957 138.551 111.535 138.411 110.053C138.373 109.642 138.227 108.952 137.92 107.837C137.611 106.704 136.858 108.376 136.471 106.673C134.837 99.5104 133.7 91.5348 131.83 84.4752C131.447 83.0393 130.617 83.6101 130.376 83.2269C128.404 80.0154 129.478 73.8297 129.393 72.544C129.169 69.2556 128.812 66.2988 128.368 63.4939C127.453 57.9537 126.356 52.8492 124.635 47.654C123.984 45.7471 123.604 48.42 122.918 46.5766C122.803 46.2657 122.687 45.9543 122.567 45.6305C119.983 38.7212 116.883 31.376 113.602 25.3216C112.498 23.3732 111.3 21.5011 110.001 19.5618C108.746 17.6906 110.836 18.7104 110.273 17.7774C108.976 15.655 107.703 14.619 106.456 13.4405C106.343 13.4525 106.251 13.513 106.246 13.6309C106.253 13.7468 106.303 13.9332 106.759 14.1667C108.39 14.9553 111.085 13.9727 111.573 13.3673C111.992 13.0179 112.152 12.8123 112.308 12.6193C112.461 12.4219 112.539 12.2977 112.6 12.1993C112.833 11.8004 112.813 11.7904 112.819 11.8006C112.803 11.8591 112.703 12.1738 112.585 12.544C112.359 13.2919 111.548 12.7159 111.425 12.8428C109.485 15.1061 111.486 17.8178 111.469 18.4826C111.41 23.8473 110.503 28.0598 109.727 32.4857C109.213 35.5144 108.636 38.5428 108.354 42.0536C108.269 43.1146 109.689 40.8659 109.377 43.8426C108.865 48.6731 108.206 53.49 107.754 58.1899C106.9 67.306 106.451 76.5093 107.311 85.3268C107.671 89.083 108.451 92.8514 109.442 96.6025C109.839 98.1092 110.276 99.5908 110.756 101.061C111.679 103.803 110.13 102.202 110.096 102.408C109.688 105.843 112.569 106.771 113.037 107.593C115.175 111.392 116.706 115.35 118.534 118.704C119.894 121.194 121.422 123.341 123.496 124.762C129.088 135.555 135.212 146.094 141.246 156.713C145.505 164.11 149.824 172.354 153.772 178.969C153.744 178.93 153.709 178.879 153.637 178.788C153.554 178.69 153.488 178.579 153.131 178.25C152.924 178.085 152.712 177.829 151.863 177.466C151.593 177.344 149.823 176.705 148.054 177.789C146.309 178.919 146.116 180.39 146.032 180.952C145.949 182.179 146.121 182.326 146.158 182.575C146.215 182.779 146.252 182.873 146.28 182.949C146.36 183.153 146.366 183.156 146.386 183.201C146.415 183.262 146.409 183.247 146.411 183.25C146.407 183.241 146.396 183.218 146.378 183.183C146.35 183.126 146.308 183.045 146.27 182.972C146.188 182.816 146.107 182.661 146.015 182.49C145.841 182.163 145.665 181.837 145.482 181.5C145.121 180.836 144.75 180.161 144.38 179.49C143.64 178.151 142.889 176.802 142.138 175.455C140.639 172.765 139.127 170.063 137.627 167.358C134.872 162.393 132.026 157.423 129.195 152.445C128.987 152.087 130.306 152.096 129.887 151.382C124.804 142.812 124.456 145.349 118.98 141.239C118.029 140.531 117.29 137.692 116.864 135.843C116.674 135.012 116.549 134.379 116.512 134.235C116.078 132.534 118.385 132.902 118.162 132.389C116.243 128.164 112.448 132.004 108.721 127.266C108.61 127.112 109.878 127.123 109.64 126.664C108.901 125.234 107.618 124.256 106.911 122.838C105.297 119.595 106.514 116.95 101.867 113.743C101.276 113.349 99.6191 116.084 96.241 111.87C95.5002 110.946 93.2787 108.342 91.1486 105.858C89.4134 103.826 87.7277 101.918 86.9999 101.02C85.3727 99.0269 87.2907 99.6186 87.1966 99.4568C83.1869 93.6627 85.4098 95.1644 83.7979 91.3585C83.4812 90.6738 83.1567 90.2607 82.8296 90.0345C81.3481 89.0106 79.8348 91.7806 78.6144 91.3746C77.1406 90.8854 73.5415 86.8397 72.7235 85.7818C71.8881 84.7031 73.5712 85.1704 72.7632 84.3135C67.3529 78.6872 68.7058 84.1699 66.27 83.331C63.9844 82.5823 62.3938 81.3867 61.0735 80.3294C59.0979 78.7726 56.2816 76.8038 53.1553 76.0724C51.7323 75.7527 52.7825 76.6969 51.5004 76.5758C46.4378 76.1564 43.3878 74.8626 37.5154 75.7002C37.3594 75.7235 37.1021 75.7955 36.7658 75.8945C35.0367 76.383 31.7044 77.735 29.2051 76.9369C28.7633 76.804 29.7798 75.7345 27.6794 75.9658C25.5075 76.2353 22.658 77.0017 19.8803 78.905C20.0314 78.8292 20.308 78.6602 20.491 78.2713C20.7054 77.8472 20.579 77.3156 20.5146 77.1995C20.3693 76.8856 20.2961 76.865 20.2752 76.833C20.2241 76.7856 20.2661 76.8235 20.3075 76.8489C20.3962 76.9071 20.5383 76.9884 20.6752 77.0609C20.9645 77.2146 21.2622 77.3559 21.5716 77.4966C22.1763 77.77 22.7778 78.0144 23.3195 78.2156C25.7821 79.1203 23.6319 76.6073 26.4593 78.3723C27.7239 79.1595 24.8908 78.7626 27.3002 80.1823C29.638 81.5495 35.8011 84.3869 38.3607 85.6199C38.4269 85.6513 38.4908 85.6818 38.5521 85.7113C41.0112 86.931 40.1666 85.3262 40.3963 85.3595C41.8345 85.5869 46.6572 88.016 47.019 88.3086C51.3467 91.1986 55.2214 94.317 59.0373 97.3602C66.1811 103.092 72.8937 108.971 79.6128 114.897C83.8167 118.531 88.0486 122.691 91.6376 127.074C93.3369 129.082 95.0169 131.095 96.7272 133.11C97.8619 134.451 97.9955 132.844 98.1776 133.042C102.298 137.45 97.0327 135.588 98.8684 139.482C100.257 137.605 101.478 139.8 104.292 142.955C105.65 144.473 105.646 143.063 105.831 143.153C106.319 143.407 106.734 143.708 107.066 144.01C108.693 145.487 108.708 147.39 108.777 147.918C109.082 150.255 111.658 150.786 111.965 152.321C112.309 153.874 109.183 152.566 112.091 155.408C113.457 155.598 112.798 152.056 115.192 153.861C117.283 155.412 119.736 157.319 122.438 159.4C128.121 163.884 137.188 166.723 144.32 167.842C144.186 167.83 143.992 167.809 143.651 167.865C143.469 167.907 143.323 167.9 142.831 168.16C142.398 168.393 141.909 168.911 141.709 169.469C141.375 170.491 141.607 170.905 141.683 171.206C141.784 171.47 141.813 171.497 141.862 171.586C141.953 171.734 141.978 171.753 141.997 171.776C142.015 171.795 142.017 171.793 142.014 171.787C141.994 171.752 141.898 171.645 141.802 171.546C141.595 171.333 141.366 171.119 141.113 170.891C140.628 170.453 140.113 170.019 139.628 169.621C138.645 168.815 137.716 168.101 136.894 167.496C132.217 164.083 129.358 162.349 126.818 160.742C125.369 159.836 123.956 159.003 122.264 157.992C113.854 153.142 116.314 156.169 110.572 154.253C104.777 152.394 109.029 150.11 108.575 148.993C108.511 148.835 108.431 148.707 108.338 148.601C107.786 147.97 106.803 148.158 106.114 147.436C105.307 146.594 107.671 146.996 105.41 145.842C103.144 144.663 96.1729 143.511 95.0399 144.024C92.6311 145.079 94.862 147.952 88.8797 145.016C88.5323 144.845 90.0547 144.33 88.7108 143.722C88.6099 143.677 88.5129 143.634 88.4199 143.591C86.7536 142.835 84.8787 142.148 83.0336 141.414C75.5383 138.75 66.8146 137.742 58.6343 136.349C57.3887 136.147 56.133 135.978 54.8786 135.831C53.3018 135.653 54.7751 134.6 53.8481 134.487C44.1233 133.568 47.575 135.596 42.4395 137.859C43.3499 135.391 41.2128 133.813 35.7867 133.839C34.9318 133.846 34.0784 133.883 33.0806 133.964C28.6591 134.329 29.5456 135.487 26.7744 136.611C25.9364 136.948 22.7576 136.421 22.2523 137.057C20.6029 139.145 23.7116 140.86 16.2226 140.943C15.895 140.947 16.7841 139.787 15.6662 139.874C12.409 140.131 10.1358 140.853 9.14898 141.626C9.18916 141.626 9.2587 141.617 9.39799 141.552C9.57599 141.442 9.7905 141.403 10.2373 140.782C10.4291 140.496 10.6202 140.065 10.6699 139.565C10.6952 139.321 10.6862 139.079 10.6529 138.862C10.6222 138.661 10.5792 138.503 10.5278 138.354C10.2894 137.738 10.1311 137.613 10.0249 137.462C9.84244 137.239 9.84772 137.229 9.88143 137.206C9.92152 137.193 9.99977 137.201 10.0979 137.215C10.4934 137.275 11.0824 137.389 11.7238 137.52C13.027 137.791 14.611 138.173 16.6812 138.871C20.4438 140.133 25.8889 142.643 30.9939 145.175C33.9373 146.63 36.8461 148.046 39.2722 149.155C37.9122 151.995 44.3931 153.995 47.7997 153.167C47.9108 153.22 48.0227 153.273 48.1352 153.326C51.4878 154.91 54.8154 156.519 58.0519 157.874C58.9174 158.244 59.7532 158.615 60.5545 158.989C61.9686 159.646 60.6855 160.129 60.8333 160.292C63.0579 162.813 65.7049 161.554 66.6667 161.828C73.2695 163.77 78.7039 166.18 84.6245 167.27C88.1239 167.939 91.6672 168.434 95.4844 168.472C95.8632 168.474 96.7741 166.411 99.2428 168.404C99.4082 168.539 95.8876 169.023 100.671 169.812C104.361 170.413 110.539 171.918 116.323 172.241C118.022 172.338 119.683 172.338 121.225 172.205C122.874 172.069 127.055 170.513 130.303 172.016C130.736 172.221 130.229 172.832 130.856 173.204C132.886 174.388 134.072 172.207 136.452 174.143C138.832 176.076 143.923 177.584 150.776 176.242C150.877 176.224 151.285 175.834 151.888 175.421C152.597 174.943 153.592 174.44 154.739 174.426C155.086 174.42 155.501 174.421 155.815 174.392C155.832 174.391 155.851 174.384 155.821 174.395C155.809 174.4 155.789 174.407 155.75 174.436C155.724 174.462 155.726 174.44 155.661 174.541C155.603 174.63 155.616 174.803 155.667 174.873C155.782 175.022 155.755 174.962 155.782 174.987C155.797 174.996 155.804 174.998 155.808 175C155.819 175.001 155.766 174.985 155.726 174.976C155.642 174.956 155.548 174.938 155.448 174.92C155.253 174.885 155.059 174.852 154.853 174.819C154.043 174.687 153.184 174.549 152.32 174.393C149.946 173.958 147.49 173.446 145.432 173.199C143.727 172.995 144.688 174.212 144.391 174.196C141.895 174.032 139.574 173.888 137.319 173.754C129.261 173.327 122.147 172.695 112.506 173.151C112.292 173.162 112.041 173.191 111.758 173.234C109.048 173.626 103.567 175.417 99.503 174.982C94.5586 174.488 98.5733 168.301 87.7489 171.571C87.4042 171.677 87.0619 171.823 86.7258 171.999C82.6326 174.14 78.6486 180.396 70.6866 179.481C68.876 180.196 67.0847 180.903 65.3781 181.965C60.115 185.574 56.5613 190.47 52.6949 194.932C48.8279 199.369 45.9978 204.584 42.7262 209.296C41.9171 210.433 40.9561 211.473 39.856 212.425C39.4117 212.86 38.4495 215.672 36.9722 216.435C36.1362 216.883 35.4276 217.131 34.799 217.371C33.8971 217.759 32.969 217.856 32.495 218.061C32.334 218.249 32.2264 218.392 32.1538 218.602C32.0941 218.775 32.0919 218.946 32.1883 219.053C32.2817 219.168 32.4872 219.247 32.6855 219.285C33.1135 219.365 33.5375 219.346 33.9952 219.306C34.8714 219.221 35.7544 219.032 36.5999 218.824C38.3073 218.397 39.9711 217.851 41.6136 217.295C44.9198 216.199 48.0829 214.902 51.682 214.247C51.9005 214.214 52.1342 214.193 52.3048 214.191C54.2823 214.175 53.7988 214.989 56.7227 214.827C59.9118 214.655 61.9639 213.34 66.3168 213.579C69.5998 213.751 73.1271 215.908 77.5989 215.534C77.5244 214.6 77.9225 213.967 78.7257 213.449C80.0126 212.619 82.347 212.07 85.447 210.969C86.4132 210.624 85.1625 210.038 85.6086 209.832C87.4104 208.977 89.3299 209.231 91.0249 208.326C91.4374 208.108 91.2596 207.296 91.5858 207.072C93.2367 205.912 95.8875 205.647 97.9573 205.679C99.2907 205.712 100.373 205.81 100.748 205.842C104.322 206.109 105.462 204.496 108.018 203.957C110.604 203.371 107.259 205.485 110.184 204.532C111.075 204.238 111.988 203.908 112.918 203.583C118.399 201.664 124.549 198.886 129.57 196.67C131.91 195.636 129.864 195.336 130.189 195.164C132.77 193.851 135.539 192.88 137.872 191.957C139.834 191.192 141.45 190.248 142.314 188.827C146.926 192.105 145.809 188.727 149.497 186.362C150.225 185.888 151.121 185.444 152.275 185.001C152.783 184.799 154.984 186.685 152.973 188.258C152.399 188.692 151.676 189.063 150.878 189.397C148.965 190.197 146.591 190.891 144.611 192.161C143.976 192.592 140.729 196.53 140.193 196.871C140.038 196.976 139.884 197.072 139.736 197.158C136.722 199.147 134.467 196.151 134.209 196.01C130.725 194.936 127.007 199.591 125.802 200.321C121.666 202.854 117.691 204.382 113.976 206.099C112.833 206.631 111.662 207.254 110.471 207.935C107.305 209.707 107.799 212.332 104.84 213.21C103.015 213.726 101.372 213.974 99.8732 214.092C94.0256 214.435 90.343 213.501 83.8018 217.527C82.3095 218.404 83.8519 220.35 79.8496 220.291C79.1333 220.274 78.2443 220.185 77.1446 219.992C76.6632 219.934 71.3736 218.504 68.6208 220.042C68.2733 220.239 68.3565 221.077 67.8817 221.188C64.7022 221.914 62.5192 221.382 59.148 221.927C57.245 222.237 55.1347 222.608 53.1343 222.913C53.2826 222.917 53.0505 222.964 52.8153 223.029C52.5587 223.096 52.2476 223.177 51.909 223.264C51.2234 223.439 50.4766 223.622 49.6923 223.786C47.5246 224.24 44.1168 223.645 42.8961 223.595C39.296 223.39 36.9493 226.339 32.3405 224.891C31.7108 224.673 31.2057 224.385 30.805 224.068C30.4323 223.757 30.313 223.491 30.3561 223.312C30.4513 222.96 31.0704 222.826 31.3553 222.525C31.6549 222.223 31.7154 221.921 31.2028 221.32C31.0423 221.143 30.8287 220.923 30.606 220.582C30.3795 220.255 30.1289 219.65 30.1474 219.145C30.2028 218.011 30.677 217.648 31.0997 217.152C31.3011 216.88 31.3964 216.841 31.4857 216.774C31.5736 216.715 31.6365 216.684 31.6987 216.654C31.8196 216.596 31.9181 216.56 32.0158 216.525C32.2085 216.457 32.3897 216.4 32.5764 216.337C31.713 214.321 31.0073 212.141 29.8237 210.282C29.8223 210.284 29.7919 210.303 29.7113 210.363C35.0531 207.04 36.124 206.908 37.5908 205.24C40.5145 201.796 43.8092 196.082 47.9764 191.111C48.904 189.985 49.863 188.772 50.855 187.529C51.7783 186.373 49.9018 186.809 50.8897 185.536C53.6907 182.077 56.5252 178.952 61.6251 175.83C64.8675 174.03 67.2009 173.391 69.7422 172.449C75.0713 170.569 80.4142 168.224 85.7349 166.849C85.8066 166.831 85.8792 166.812 85.9526 166.794C89.7145 168.605 97.5904 166.331 103.602 165.801C105.701 165.611 105.644 166.295 107.155 166.339C111.04 166.464 110.966 165.649 110.999 164.927C111.014 164.593 111.056 164.288 111.545 164.133C118.182 162.13 119.034 167.071 126.764 166.831C127.156 166.806 132.26 164.188 132.996 164.063C137.541 163.143 133.709 165.007 136.506 165.331C136.959 165.387 137.4 165.446 137.827 165.507C142.249 166.147 145.746 167.007 151.074 167.087C151.623 167.09 152.437 166.979 153.32 166.865C154.283 166.76 155.117 166.601 156.739 166.757C156.865 166.772 157.013 166.791 157.233 166.829C157.354 166.851 157.517 166.881 157.755 166.938C157.92 166.978 158.118 167.028 158.419 167.127C158.509 167.157 158.531 167.163 158.713 167.23C158.879 167.292 159.073 167.37 159.321 167.485C159.569 167.603 159.87 167.754 160.268 168.009C160.467 168.138 160.691 168.294 160.945 168.498C161.001 168.549 161.978 169.284 162.737 170.53C163.54 171.75 164.24 174.092 163.764 176.259C163.413 178.348 161.848 180.099 161.714 180.201C160.847 181.091 160.179 181.466 159.682 181.739C158.705 182.244 158.181 182.342 158.06 182.386C157.643 182.5 157.393 182.544 157.186 182.58C156.907 182.626 156.733 182.645 156.587 182.661C156.361 182.684 156.181 182.695 156.059 182.701C155.544 182.726 155.239 182.713 154.893 182.687C154.249 182.633 153.662 182.508 153.09 182.299C152.66 182.136 152.889 181.251 152.53 181.203C152.335 181.178 152.137 181.155 151.937 181.137C146.222 180.561 145.947 183.169 142.433 184.054C138.8 184.967 133.224 182.915 132.111 182.322C129.18 180.802 134.408 181.785 134.573 181.642C136.5 180.022 132.433 180.219 129.336 179.956C128.989 177.23 124.673 177.197 126.123 179.685C126.29 179.959 128.718 179.81 129.336 179.956C126.521 182.516 121.626 182.647 116.496 179.74C116.167 179.553 115.93 179.368 115.747 179.19C114.597 178.056 115.524 177.242 109.046 176.99C105.638 176.827 106.726 178.839 103.654 178.966C97.2916 179.22 89.601 176.586 83.1071 175.274C82.3806 175.13 81.666 174.993 80.9622 174.867C78.2527 174.357 80.6476 175.959 78.7695 175.622C73.7285 174.669 69.9169 172.481 65.3744 171.227C64.961 171.113 65.5693 172.483 64.1846 171.982C60.639 170.699 57.3513 169.366 54.1135 168.016C50.3685 166.494 46.8434 164.575 43.7272 163.055C40.9132 161.684 38.0079 160.335 34.8948 159.013C32.7281 158.089 29.7785 157 26.6021 155.821C22.6612 154.353 18.4996 152.917 15.5786 151.753C13.7973 151.042 11.9293 150.259 9.97108 149.396C8.98233 148.959 7.97193 148.508 6.81362 147.947C6.20577 147.646 5.63709 147.38 4.6434 146.795C4.51269 146.717 4.37994 146.635 4.2365 146.543C4.06656 146.434 3.88729 146.314 3.69315 146.175C3.51971 146.05 3.2401 145.842 2.94694 145.589C2.79378 145.456 2.65797 145.333 2.4593 145.136C2.24277 144.921 2.00857 144.668 1.75964 144.353C1.36779 143.842 0.406757 142.588 0.0866451 140.517C-0.0953789 139.363 0.00805664 137.994 0.409609 136.825C0.774849 135.739 1.31717 134.891 1.85282 134.251C2.45473 133.553 2.74886 133.333 3.1391 133.023C3.49836 132.748 3.86236 132.523 4.11385 132.382C4.57458 132.126 4.95969 131.961 5.29879 131.832C7.28595 131.176 7.96585 131.185 8.97349 131.017C9.9163 130.887 10.7974 130.794 11.6505 130.712C13.3509 130.55 14.9992 130.426 16.5612 130.307C19.7052 130.067 22.6084 129.832 25.162 129.47C30.6739 128.708 29.3647 127.764 31.6756 126.828C32.6896 126.422 33.8673 126.206 35.1693 126.115C39.6507 125.782 44.9944 127.174 45.8738 127.469C45.8992 127.466 40.985 127.915 43.6323 128.358C45.1933 129.446 45.8147 127.477 45.8738 127.469C46.6 127.617 56.6246 127.981 58.781 128.146C59.4194 128.148 59.5385 127.817 59.6239 127.525C59.6874 127.294 59.7314 127.091 59.9709 127.1C68.5979 127.597 76.3785 127.778 86.6488 130.787C88.4195 131.396 90.1592 131.929 92.4589 132.811C94.5653 133.634 96.8928 134.553 99.1366 135.508C99.3454 135.609 98.6138 136.546 99.1101 136.773C103.865 138.974 107.726 139.978 111.724 141.057C113.475 141.523 115.241 141.984 117.112 142.57C123.134 144.453 127.605 147.001 130.113 150.654C130.781 150.99 131.486 151.383 132.22 151.837C136.1 154.229 140.283 157.845 142.79 160.193C145.718 162.94 147.596 161.686 147.943 161.894C148.397 162.184 148.867 162.499 149.419 162.928C149.706 163.156 149.978 163.363 150.484 163.866C150.611 163.994 150.724 164.107 150.933 164.348C151.03 164.46 151.134 164.585 151.247 164.729C151.304 164.802 151.363 164.879 151.425 164.964C151.501 165.068 151.603 165.214 151.703 165.366C151.904 165.678 152.138 166.062 152.398 166.636C152.635 167.261 153.495 168.858 153.093 171.808C152.975 173.238 151.652 176.114 149.887 177.42C149.027 178.129 148.146 178.59 147.384 178.885C147.209 178.954 146.951 179.042 146.88 179.064C146.772 179.099 146.666 179.131 146.563 179.16C146.357 179.218 146.161 179.266 145.975 179.306C144.484 179.607 143.613 179.511 142.957 179.45C132.971 178.868 126.145 176.802 115.689 169.408C115.461 169.232 115.223 169.045 114.978 168.848C110.621 165.518 102.47 158.314 98.7439 153.878C98.1338 153.2 97.6 152.558 97.1123 151.939C95.1634 149.464 93.9307 147.433 91.688 145.041C91.3145 144.642 90.8856 145.686 90.7525 145.579C87.0318 142.796 90.2599 142.987 90.0175 141.993C89.1782 138.55 88.5345 136.386 84.8 132.82C84.6389 132.666 84.4776 132.518 84.3085 132.364C83.3159 131.437 78.4071 131.094 76.8875 129.936C74.787 128.295 76.4042 128.092 73.9142 126.311C73.6925 126.155 73.2573 126.782 71.7791 125.488C71.5741 125.31 71.3796 125.14 71.1706 124.959C64.803 119.439 57.8363 113.344 50.8845 108.033C50.3382 107.616 49.7994 107.207 49.2599 106.802C48.1904 105.994 48.8144 108.001 47.2607 106.853C42.1769 103.104 37.1013 99.3079 32.8124 97.023C30.3784 95.7435 27.9828 94.4774 25.6662 93.2187C23.7725 92.1879 25.353 91.9786 25.0354 91.5542C23.0621 88.9656 18.3313 89.2653 17.584 88.95C16.9862 88.7106 16.3718 88.4574 15.6437 88.1201C15.2516 87.9346 14.8904 87.7668 14.2712 87.4179C14.1242 87.3344 13.9497 87.2325 13.7287 87.0934C13.621 87.0255 13.5074 86.952 13.3854 86.8699C13.2479 86.7772 13.0706 86.6529 12.8863 86.5147C12.5559 86.2486 11.9799 85.8815 10.9514 84.6807C10.5931 84.2464 10.1767 83.6946 9.73503 82.8844C9.5155 82.4787 9.29118 82.0061 9.08478 81.4444C8.88568 80.9273 8.53378 79.7248 8.45392 78.5615C8.14888 76.2034 9.26339 72.7746 10.5864 71.2003C11.9513 69.3988 13.42 68.4987 14.4844 67.9646C13.9432 68.2334 13.8797 68.2874 13.8394 68.3034C13.8138 68.3147 13.8666 68.277 13.9397 68.2255C14.0894 68.1206 14.3234 67.9618 14.5682 67.8021C15.0604 67.4802 15.6163 67.142 16.1659 66.8351C17.2602 66.2221 18.3919 65.6927 19.4722 65.2602C21.6469 64.3899 23.75 63.8329 25.7348 63.4528C29.7288 62.7 33.3921 62.5996 36.8943 62.7281C45.1404 63.1872 52.7112 63.6911 63.359 66.1569C63.7784 66.2836 64.9417 66.299 67.1915 66.9955C71.4371 68.3409 75.0448 70.2982 76.0968 72.6897C76.2149 72.9358 77.5964 76.5022 80.6675 77.011C80.8596 77.0436 79.9358 75.0107 82.6027 77.1372C84.2626 78.4635 86.7035 79.9969 89.0505 81.892C90.371 82.9577 92.2101 84.5774 93.5331 86.3894C94.7076 87.9199 95.9767 92.1303 100.198 94.4018C100.303 94.4525 101.502 94.9109 102.882 95.6501C105.04 96.7848 107.694 98.6502 107.456 100.824C107.38 101.399 105.04 102.86 109.495 105.969C110.351 106.566 109.649 104.772 111.644 106.563C114.702 109.307 117.552 113.948 121.629 117.135C122.341 117.683 126.134 119.492 126.846 122.761C126.957 123.271 125.685 123.112 126.567 124.442C127.18 125.369 127.814 126.293 128.46 127.214C132.208 132.563 136.382 137.83 139.588 143.547C140.915 145.919 138.916 145.594 140.141 148.155C141.368 150.714 144.11 155.68 146.233 157.837C148.289 159.931 148.649 156.28 150.902 159.341C150.989 159.459 151.078 159.587 151.169 159.724C152.868 162.284 154.512 164.891 156.1 167.533C156.9 168.864 157.681 170.195 158.457 171.556C158.845 172.236 159.233 172.925 159.619 173.625C159.817 173.985 160.009 174.336 160.212 174.713C160.318 174.909 160.416 175.094 160.534 175.319C160.589 175.424 160.656 175.55 160.73 175.695C160.78 175.793 160.801 175.833 160.89 176.011C160.91 176.052 160.932 176.097 160.957 176.148C160.98 176.197 161.008 176.254 161.079 176.406C161.112 176.477 161.15 176.561 161.199 176.675C161.224 176.732 161.251 176.797 161.283 176.874C161.299 176.913 161.317 176.955 161.335 177.001C161.344 177.024 161.354 177.048 161.364 177.074C161.372 177.093 161.428 177.24 161.47 177.355C161.562 177.615 161.682 177.927 161.86 178.647C161.947 179.02 162.057 179.49 162.14 180.328C162.18 181.192 162.399 182.357 161.66 184.961C161.258 186.244 160.493 188.02 158.801 189.764C157.152 191.517 154.482 192.87 152.197 193.196C149.889 193.561 148.122 193.215 146.907 192.863C146.764 192.821 146.574 192.76 146.497 192.733C146.411 192.704 146.327 192.675 146.246 192.646C146.083 192.588 145.93 192.528 145.785 192.469C145.496 192.351 145.239 192.233 145.007 192.119C143.21 191.189 142.673 190.593 142.185 190.175C141.321 189.353 141.122 189.046 140.901 188.78C140.705 188.528 140.599 188.378 140.513 188.256C134.723 178.674 131.997 172.296 127.711 164.38C125.869 160.89 123.954 157.357 121.996 153.852C120.638 151.42 121.052 153.844 118.997 150.286C115.23 143.745 109.938 134.967 105.087 125.876C100.67 117.593 96.5653 108.595 95.0525 101.074C94.8985 100.329 94.7652 99.6048 94.6532 98.9068C93.0877 87.0498 97.7413 101.224 96.2169 92.3695C95.9406 90.5048 95.1654 88.6401 94.3949 86.9762C93.4067 84.939 92.3681 83.2631 92.2718 82.6864C90.6633 72.5966 92.2961 65.8306 92.6659 57.2167C92.6755 57.0236 92.6696 56.8696 92.6514 56.7472C92.5038 55.7224 91.4909 56.907 91.5829 55.5176C91.9418 50.2159 93.1849 45.1519 93.6238 40.6296C93.8153 38.6101 92.9301 38.885 93.1853 37.0791C93.4493 35.1399 93.7069 33.3504 93.9726 31.6345C94.3147 29.2066 94.7555 26.8415 95.3575 24.31C95.4576 23.8908 96.3262 26.8188 96.5957 23.2955C96.7748 21.0116 97.0967 18.5021 97.4668 15.7995C97.6546 14.4445 97.8501 13.0426 98.0978 11.4894C98.228 10.6916 98.3593 9.87891 98.5959 8.81659C98.7325 8.23963 98.8441 7.70718 99.2103 6.68705C99.4223 6.15007 99.6192 5.53828 100.383 4.35125C100.877 3.66569 101.346 2.84958 103.091 1.61203C104.618 0.339882 108.97 -0.663903 111.701 0.543591C115.346 1.9438 116.913 3.85831 118.265 5.66173C118.493 5.92927 118.739 6.20089 119.005 6.47625C120.166 7.68122 121.642 6.37924 123.174 10.651C123.506 11.6133 120.913 11.8348 125.619 15.1538C125.832 15.3121 126.534 15.8839 127.446 16.7779C130.076 19.4556 133.432 23.8416 133.553 27.2171C133.606 28.4398 132.992 31.7761 134.174 33.9064C134.342 34.1964 134.813 32.5697 135.664 34.4147C136.511 36.2795 137.3 38.2014 138.041 40.1701C139.96 44.8224 141.432 51.0304 142.616 55.6883C143.086 57.5231 143.577 54.55 144.238 57.2848C144.47 58.2531 144.686 59.2045 144.907 60.2255C146.38 67.0432 147.644 74.9565 148.549 81.3537C148.928 84.0545 147.701 82.3689 147.643 82.5818C146.676 86.0051 149.119 87.4666 149.435 88.4848C151.367 94.8241 151.28 99.9451 152.584 105.934C152.94 107.593 153.741 106.236 153.887 106.554C154.032 106.883 154.14 107.153 154.217 107.376C154.929 109.472 153.125 107.803 153.277 109.82C153.7 116.007 154.983 123.334 155.106 130.544C155.156 133.06 156.344 130.243 156.362 132.49C156.365 132.917 156.365 133.338 156.363 133.76C156.311 140.742 156.147 147.4 155.309 155.036C155.083 156.87 154.84 158.65 154.608 160.344C154.493 161.183 154.379 162.012 154.287 162.726C154.241 163.069 154.201 163.417 154.18 163.518C154.174 163.538 154.17 163.54 154.166 163.476C154.16 163.404 154.165 163.328 154.132 162.878C154.122 162.758 154.112 162.641 154.088 162.438C154.06 162.205 154.02 161.914 153.936 161.501C153.857 161.166 153.704 160.217 152.998 158.734C152.685 158.154 151.639 155.743 148.515 153.786C147.022 152.838 144.621 151.988 142.237 152.022C139.875 152.027 137.931 152.739 136.636 153.438C135.144 154.285 134.99 154.515 134.492 154.913C134.071 155.277 133.747 155.606 133.479 155.9C133.212 156.193 133.002 156.453 132.826 156.684C132.738 156.8 132.659 156.908 132.586 157.011C132.51 157.119 132.489 157.151 132.444 157.217C132.125 157.693 131.941 158.03 131.801 158.298C131.566 158.756 131.503 158.926 131.426 159.11C131.332 159.385 131.376 159.34 131.417 159.254C131.463 159.16 131.528 158.99 131.594 158.797C131.729 158.404 131.874 157.907 132.013 157.392C132.446 155.718 133.147 156.937 133.416 156.612C133.78 156.159 134.017 155.62 134.154 155.054C134.338 154.715 134.157 152.886 133.914 151.599C133.674 150.244 133.389 149.118 133.35 148.639C132.925 143.284 134 141.363 134.474 136.873C134.768 134.209 135.123 131.55 135.541 128.811C138.039 112.708 141.812 95.2646 145.276 79.96C146.024 76.6852 146.749 73.5318 147.512 70.408C148.26 67.4323 149.077 63.9306 150.638 60.2782C153.468 53.8734 156.095 47.1759 162.002 40.3099C164.402 37.5888 168.389 33.5128 172.558 31.1232C178.599 27.6683 182.76 23.943 192.424 19.3788C192.987 19.1618 193.631 18.9171 194.72 18.6819C195.798 18.498 197.414 18.0953 200.293 18.8544C203.265 19.5505 206.156 22.4907 206.923 24.1722C207.851 25.9278 208 26.8802 208.174 27.5879C208.876 31.455 208.557 33.2403 208.409 35.3822C208.312 36.3846 208.194 37.4531 208.05 38.5288C207.794 40.3459 209.27 38.6875 209.048 40.2735C207.741 48.7739 205.161 56.0799 202.457 63.1131C198.647 72.829 194.685 82.2188 190.766 91.9067C190.215 93.2551 192.102 91.7742 191.247 93.9619C190.755 95.223 190.201 96.5712 189.599 97.9583C188.059 101.518 186.18 105.325 184.462 108.337C183.305 110.374 183.751 107.125 182.608 109.177C180.727 112.54 178.994 115.999 177.434 119.602C176.79 121.085 176.169 122.599 175.581 124.109C174.732 126.299 177.203 123.5 176.016 126.315C172.465 134.794 169.04 143.328 165.413 151.882C164.057 155.079 162.664 158.259 161.31 161.336C160.639 162.866 159.971 164.383 159.408 165.729C159.13 166.392 158.879 167.021 158.717 167.45C158.635 167.662 158.578 167.822 158.557 167.846C158.533 167.866 158.558 167.76 158.579 167.281C158.571 167.387 158.562 167.519 158.534 167.764C158.493 168.046 158.504 168.275 158.235 169.39C158.001 170.03 158.108 170.687 156.461 173.254C155.526 174.451 153.845 177.04 148.913 178.15C146.635 178.634 143.797 178.234 141.967 177.4C140.076 176.589 138.798 175.475 138.021 174.661C136.422 172.917 136.061 171.907 135.715 171.188C135.399 170.453 135.273 170.015 135.167 169.65C134.976 168.955 134.926 168.622 134.879 168.351C134.797 167.834 134.785 167.64 134.767 167.465C134.753 167.303 134.747 167.202 134.742 167.122C134.733 166.964 134.731 166.886 134.728 166.82C134.724 166.695 134.723 166.638 134.723 166.588C134.722 166.557 134.722 166.561 134.722 166.549C134.722 166.513 134.722 166.486 134.722 166.461C134.722 166.411 134.722 166.373 134.722 166.338C134.723 166.283 134.723 166.257 134.724 166.219C134.726 166.138 134.727 166.102 134.729 166.049C134.733 165.94 134.736 165.874 134.741 165.79C134.749 165.641 134.758 165.503 134.768 165.371C134.788 165.107 134.81 164.879 134.835 164.643C134.884 164.184 134.944 163.749 135.012 163.322C135.148 162.469 135.32 161.64 135.528 160.819C135.945 159.174 136.508 157.539 137.27 155.899C138.605 153.171 140.031 150.448 141.609 147.715C142.426 146.32 145.121 146.186 146.43 142.941C145.988 142.383 145.308 142.005 144.755 141.548C145.594 140.066 146.501 138.562 147.615 136.962C151.616 130.682 158.33 122.276 165.993 116.953C175.175 110.922 182.064 107.846 191.662 104.401C193.284 103.822 198.593 101.817 202.385 101.278C206.4 100.583 210.104 100.377 213.708 100.318C220.43 100.327 226.443 99.8555 235.234 101.108C236.905 101.423 234.795 100.08 236.611 100.167C236.783 100.158 237.016 100.18 237.333 100.245C240.496 100.893 243.858 101.389 247.341 101.871C247.736 101.928 248.131 101.985 248.735 102.101C249.061 102.168 249.364 102.217 250.153 102.44C250.352 102.498 250.609 102.575 251.002 102.717C251.441 102.898 251.81 102.954 253.258 103.803C253.948 104.416 255.19 104.39 257.68 108.572C259.121 110.985 259.547 115.967 257.879 119.118C256.084 122.531 255.083 122.871 254.08 123.739C250.844 125.823 250.66 125.394 249.929 125.698C248.912 125.95 248.588 125.969 248.259 126.018C247.942 126.058 247.723 126.078 247.544 126.094C247.169 126.125 246.92 126.138 246.678 126.149C246.215 126.169 245.854 126.176 245.506 126.18C236.118 126.309 226.879 126.539 218.536 127.497C218.472 127.505 218.409 127.512 218.345 127.521C217.08 127.704 217.182 125.32 213.547 126.694C212.887 126.89 207.529 129.073 206.408 130.16C206.259 130.306 207.598 130.848 205.965 131.6C204.911 132.093 203.866 132.612 202.828 133.159C198.104 135.971 190.341 142.254 184.007 147.343C182.241 148.767 180.875 149.891 179.671 151.086C178.615 152.156 178.826 150.204 178.044 151.003C177.019 152.072 175.958 153.401 174.883 154.837C170.72 160.44 166.682 166.771 162.817 172.009C162.145 172.938 161.464 173.843 160.771 174.717C156.754 179.769 156.416 176.736 153.016 178.582C152.523 178.853 150.427 182.127 149.409 181.726C146.77 180.776 145.212 177.537 142.29 176.702C141.971 176.623 141.242 177.823 140.561 178.873C140.225 179.384 139.866 179.965 139.67 180.016C139.467 180.083 139.498 179.372 139.666 178.271C139.765 177.799 141.483 174.014 141.554 172.955C141.615 172.188 140.022 172.628 140.372 171.216C140.721 169.81 142.309 169.054 143.052 166.889C143.787 164.721 142.202 164.864 144.431 161.065ZM133.085 173.145C129.751 171.075 127.936 174.57 132.338 174.909C132.553 174.917 133.262 173.247 133.085 173.145ZM46.0473 198.883C50.0874 195.915 50.287 191.777 47.0685 193.739C43.8477 195.836 44.8159 199.822 46.0473 198.883ZM53.4637 217.488C53.1675 217.438 52.8727 217.41 52.6099 217.4C50.9595 217.343 49.7748 218.788 50.048 219.718C50.1506 220.201 50.5069 220.607 51.1028 220.78C51.3837 220.871 51.7426 220.9 52.0906 220.876C52.4351 220.85 52.8829 220.761 52.9208 220.668C53.0387 220.638 53.1613 220.603 53.2889 220.565C53.5986 220.473 53.7738 217.541 53.4637 217.488ZM161.03 165.089C160.956 165.1 159.364 167.421 159.376 167.505C159.592 169.425 162.754 164.803 161.03 165.089ZM100.284 208.902C99.86 208.835 99.3071 208.882 98.7125 208.995C96.7511 209.364 94.4725 210.622 96.1989 210.941C96.9236 211.077 98.078 210.843 99.0546 210.497C100.595 209.962 101.662 209.112 100.284 208.902ZM53.3198 74.1746C53.3653 74.2338 55.3815 74.6487 55.3984 74.3251C55.4677 73.2488 52.5452 73.0541 53.3198 74.1746ZM166.668 167.347C166.567 167.522 166.465 167.695 166.36 167.864C165.166 169.943 164.215 172.717 162.902 174.39C161.634 176.135 160.314 177.101 159.456 177.41C157.625 177.9 158.179 176.561 160.489 171.388C160.899 170.372 160.865 171.614 160.819 172.781C160.775 173.942 160.692 175.098 161.489 173.886C163.041 171.468 162.76 169.1 163.744 166.346C164.155 165.167 164.506 163.99 165.118 162.727C165.129 162.699 165.17 162.619 165.184 162.592C165.841 161.476 166.579 160.844 167.454 160.173C167.943 159.838 167.407 161.709 167.129 163.641L167.136 163.628C167.114 165.301 166.845 167.074 166.663 167.37C166.664 167.362 166.666 167.355 166.668 167.347ZM132.358 168.068C132.301 168.016 129.647 167.05 129.573 167.055C127.654 167.693 133.134 169.708 132.358 168.068ZM134.211 158.143C134.215 158.326 137.611 163.898 137.793 164.03C141.337 165.863 134.451 154.532 134.211 158.143ZM39.343 149.277C42.6885 149.341 46.178 150.717 47.7874 153.16C45.0102 151.813 42.1703 150.557 39.343 149.277Z" fill="var(--stroke-0, #FFEA64)"/>
</svg>
