<svg preserveAspectRatio="none" width="100%" height="100%" overflow="visible" style="display: block;" viewBox="0 0 30.0446 25.3262" fill="none" xmlns="http://www.w3.org/2000/svg">
<path id="Vector 134" d="M9.96133 13.0848C9.96492 13.0724 9.96868 13.0599 9.97263 13.0474C10.3176 12.2987 10.6466 11.9035 11.1614 11.3856C11.3292 11.2137 11.5503 10.9728 11.9165 10.6118C12.2833 10.2474 12.7318 9.88479 12.9759 9.73739C13.105 9.65637 13.1839 9.6585 13.2564 9.67991C13.4148 9.74716 13.5325 9.9342 13.6803 9.88125C14.0883 9.73579 14.2568 9.33566 14.7416 9.19206C14.9046 9.14575 15.1445 9.76844 15.3041 9.71073C15.4919 9.64173 15.6734 9.55479 15.8845 9.43833C16.1206 9.31176 16.2626 9.20434 16.8812 8.88031C17.5015 8.58297 18.135 8.3054 18.8189 8.18155C19.0887 8.1328 19.3561 8.09426 19.6195 8.06512C21.1366 7.90394 22.0399 8.05135 22.8943 8.14104C22.8775 8.14428 22.8546 8.14722 22.7883 8.15297C22.7522 8.15616 22.7102 8.15932 22.6181 8.16836C22.5737 8.17294 22.515 8.17873 22.4144 8.19226C22.3079 8.20958 22.2047 8.21305 21.8099 8.31158C21.7002 8.34035 21.5448 8.38442 21.3525 8.45488C21.255 8.49042 21.0823 8.55833 20.903 8.64518C20.708 8.74495 20.5468 8.80994 20.1053 9.12642C19.6939 9.48542 19.2486 9.65382 18.5178 11.0964C17.8362 12.4363 18.0573 14.4935 18.6569 15.4725C19.6808 17.1553 20.1848 17.153 20.4661 17.3993C21.0504 17.7401 21.1909 17.7588 21.3582 17.8279C21.5063 17.8811 21.5979 17.9077 21.6658 17.9273C21.9336 18.0011 21.9974 18.007 22.0709 18.0214C22.1979 18.0428 22.2367 18.0444 22.2749 18.0473C21.9576 17.9585 21.5808 17.8631 21.118 17.7266C21.4441 17.774 21.4647 17.7441 21.4738 17.732C21.4729 17.716 21.4169 17.6984 21.3451 17.6828C21.1979 17.6514 20.983 17.6261 20.7544 17.604C20.6801 17.5784 20.6554 17.5631 20.7729 17.5178C20.8283 17.4956 20.9352 17.4574 21.0198 17.4164C21.0947 17.3767 21.1551 17.347 20.7084 17.4941C20.7578 17.442 20.5302 17.5009 20.3721 17.5486C20.2877 17.5738 20.2018 17.6023 20.1387 17.6209C20.0875 17.6298 19.9985 17.6783 20.1666 17.5426C20.166 17.5202 20.1684 17.4937 20.1645 17.4711C20.1606 17.4511 20.1418 17.4209 20.0934 17.4163C20.0355 17.4246 19.9969 17.3948 19.7534 17.6592C19.7837 17.5106 19.6619 17.5864 19.5681 17.6753C19.468 17.7713 19.3652 17.9123 19.287 18.0688C19.3571 17.8972 19.4013 17.7481 19.4355 17.6068C19.4525 17.5359 19.4669 17.4669 19.4799 17.3909C19.4864 17.3525 19.4925 17.3125 19.4984 17.2645C19.5014 17.2396 19.5042 17.2145 19.5071 17.1808C19.5085 17.1637 19.51 17.1448 19.5114 17.1216C19.5121 17.1078 19.5127 17.0976 19.5135 17.0766C19.5138 17.0664 19.5141 17.059 19.5145 17.0409C19.5147 17.032 19.5148 17.0266 19.515 17.0116C19.5151 17.0022 19.5151 16.9919 19.5151 16.9775C19.5151 16.9703 19.515 16.962 19.5149 16.9511C19.5147 16.9475 19.5154 16.9419 19.5129 16.8628C19.5121 16.8412 19.5113 16.8154 19.5081 16.763C19.5013 16.6958 19.5115 16.6761 19.4594 16.3444C19.4422 16.2515 19.424 16.1325 19.3499 15.8832C19.3078 15.7497 19.2603 15.5941 19.128 15.3184C18.9852 15.056 18.8179 14.642 18.1209 14.0416C17.534 13.4217 15.546 12.8217 14.2744 13.4399C12.9931 14.0031 12.682 14.6359 12.4327 14.9849C12.0278 15.6868 12.034 15.8932 11.9738 16.0766C11.8966 16.4066 11.8981 16.4819 11.8857 16.5682C11.8773 16.6442 11.8743 16.6859 11.8718 16.7193C11.9466 15.886 12.0435 15.7221 12.0828 15.5015C12.142 15.2413 11.5625 15.2007 11.5357 15.1377C11.1011 14.2921 12.0694 14.9365 12.3157 14.7289C12.5499 14.5512 12.7445 14.3842 12.9133 14.1991C13.4241 13.6348 13.705 12.9199 13.8369 12.1987C13.9144 11.7824 12.7264 11.7261 13.4696 11.5798C13.47 11.5797 13.4704 11.5796 13.4708 11.5795C13.4862 11.576 13.5422 11.6047 13.6159 11.6441C13.7496 11.7152 13.9419 11.8209 14.0547 11.837C14.0865 11.8413 14.1121 11.8385 14.1283 11.8259C14.3648 11.64 14.4868 11.1261 14.6059 10.9861C14.8396 10.7108 14.8508 10.6737 14.9809 10.4017C15.001 10.361 15.0242 10.3211 15.0505 10.2802C15.2602 9.95534 15.6465 9.60829 15.6968 9.17257C15.7072 9.06736 15.0923 8.95784 15.0572 8.77018C15.0228 8.58237 15.2287 8.21193 15.4133 8.13594C15.5985 8.05951 16.0226 8.29087 16.134 8.3083C16.4819 8.36411 16.5614 8.27062 16.5202 8.13348C16.4459 7.91275 16.0116 7.58982 16.001 7.55873C15.9521 7.36244 15.9359 7.21317 15.9365 7.11847C15.9382 7.01396 15.9521 7.01985 15.9964 6.91902C16.0021 6.94703 16.0072 6.98939 16.0167 7.07849C16.0306 7.1772 16.0263 7.27933 16.113 7.65834C16.1551 7.80544 16.1847 8.03468 16.4535 8.53957C16.6703 9.01952 17.5632 9.93543 18.4745 10.1459C19.3543 10.3752 19.8043 10.2453 20.0765 10.1983C20.3512 10.1349 20.4801 10.0783 20.5817 10.0356C20.8292 9.90086 20.7591 9.8865 20.7185 9.88217C20.6644 9.88141 20.5747 9.90565 20.4774 9.94056C20.2802 10.0118 20.0485 10.1266 19.8075 10.2814C19.7665 10.3077 19.7249 10.335 19.6825 10.3631C19.7019 10.3576 19.8213 10.2801 19.8748 10.2429C19.9305 10.205 19.9056 10.249 19.851 10.3383C20.1158 10.0801 19.9864 10.3844 19.8629 10.754C19.8643 10.7565 19.8914 10.6774 19.8886 10.6729C19.8825 10.6586 19.8177 10.8395 19.7594 10.986C19.6984 11.1422 19.6305 11.3067 19.562 11.4724C19.3578 11.9621 19.1504 12.4519 19.0751 13.0063C19.0612 13.1037 19.7873 13.1306 19.7719 13.2492C19.6929 13.8594 19.5772 14.4703 19.4172 15.016C19.3398 15.2745 19.253 15.5198 19.1578 15.7358C19.1101 15.8445 19.0608 15.9419 19.0085 16.0374C18.9823 16.0863 18.9555 16.1323 18.9262 16.2035C18.8942 16.2838 18.8744 16.351 18.8034 16.7023C18.7843 16.7572 18.7644 16.8111 18.7436 16.8653C18.6586 17.0797 18.0839 16.6971 17.9625 16.8919C17.91 16.9762 17.8516 17.0644 17.7829 17.1715C17.7083 17.2893 17.6537 17.3734 17.4875 17.6726C17.4649 17.7192 17.4429 17.7647 17.3957 17.8508C17.3663 17.9045 17.3297 17.9688 17.2722 18.0547C17.2261 18.1139 17.1001 18.3428 16.7347 18.6246C16.5719 18.7647 15.7926 19.2419 14.8872 19.0312C14.028 18.8296 13.6431 18.3173 13.4565 18.0357C13.3503 17.8645 13.3333 17.8156 13.2995 17.7439C13.2697 17.677 13.2473 17.6181 13.229 17.5655C13.1928 17.4604 13.1725 17.3794 13.1576 17.3117C13.12 17.1302 13.117 17.0288 13.1147 16.9767C13.1114 16.7559 13.1303 16.7274 13.1414 16.6699C13.1668 16.573 13.1924 16.5279 13.2174 16.4795C13.2674 16.3886 13.3157 16.3195 13.3611 16.2516C13.4519 16.1172 13.5312 15.9942 13.5854 15.8755C13.8003 15.4792 13.5716 14.8744 11.9786 14.613C11.9867 14.5807 11.9948 14.5477 12.003 14.5152C12.0565 14.3099 12.1145 14.2978 12.208 14.1253C12.3013 13.9618 12.4265 13.7097 12.6479 13.4691C12.8841 13.205 13.3718 13.2432 13.416 13.1303C13.4289 13.0986 13.4044 13.0521 13.3257 12.9824C13.2472 12.9115 12.6735 13.1204 12.6007 13.0077C12.2944 12.5332 12.38 11.9222 11.977 11.4599C11.8936 11.3661 11.3699 11.4951 11.2689 11.4831C10.4502 11.3792 11.6453 10.7184 11.7202 10.6088C11.9066 10.3312 11.9887 10.0955 12.0115 9.88301C12.0611 9.48166 11.8618 9.11663 11.8334 9.01486C11.8048 8.91917 11.1638 9.27804 11.1061 9.17947C11.0956 9.15969 11.0842 9.13692 11.072 9.11126C10.9764 8.94304 10.8914 8.76042 10.8272 8.57683C10.772 8.40827 10.6899 8.16035 10.7683 8.14867C10.7818 8.07985 10.802 8.00044 10.7813 7.84838C10.7541 7.6909 11.3265 7.42631 11.3352 7.32773C11.3433 7.09584 11.053 7.10209 10.7425 7.04839C10.8553 7.3847 10.9325 7.82534 11.8516 8.27517C12.8522 8.7554 14.4825 8.16259 14.8028 7.7778C15.0687 7.5557 15.1767 7.41883 15.2839 7.28537C15.3898 7.14833 15.4484 7.05446 15.4965 6.97544C15.6855 6.64834 15.7088 6.54823 15.7487 6.44315C15.8081 6.26359 15.8022 6.21503 15.7829 6.17368C15.7404 6.11965 15.2153 6.05898 15.1594 6.04288C14.2516 5.9556 15.511 6.30468 15.5383 6.32719C15.7443 6.6694 15.3304 6.95058 15.0036 7.25061C14.7849 7.52543 14.5948 7.76386 14.637 8.05243C14.6509 8.13999 15.3368 8.02634 15.3347 8.2696C15.3322 8.65867 15.3055 9.01125 15.2828 9.26685C15.2316 9.82921 15.1455 10.334 15.0435 10.7415C14.9892 10.8544 14.9417 11.0252 14.9094 11.2495C14.8935 11.3317 14.8752 11.4075 14.8605 11.4939C14.8366 11.6581 14.3338 11.7492 14.2786 11.7781C13.4527 12.314 14.6996 11.9278 14.7638 11.9505C15.0565 12.1051 14.9451 12.4774 15.0887 12.7007C15.1948 12.8652 15.4417 12.9433 16.0947 12.7622C16.3377 13.6102 16.7788 14.3796 17.2345 15.1801C17.3942 15.4615 17.5549 15.7449 17.7066 16.03C17.7824 16.1724 17.8571 16.3174 17.924 16.4536C17.9839 16.5803 18.0734 16.7475 18.0027 16.6645C17.9849 16.6393 17.9629 16.608 17.9199 16.5531C17.8702 16.4945 17.8306 16.4283 17.6214 16.2356C17.4999 16.1388 17.3754 15.989 16.8793 15.7766C16.721 15.705 15.6858 15.3319 14.6516 15.9656C13.6311 16.6264 13.5182 17.4864 13.4694 17.815C13.4204 18.5332 13.5214 18.6197 13.543 18.766C13.5768 18.8863 13.5987 18.9424 13.6158 18.9884C13.6645 19.1129 13.67 19.1184 13.6848 19.1516C13.7089 19.2025 13.7078 19.1988 13.7152 19.2136C13.7261 19.2345 13.7275 19.2362 13.7309 19.2421C13.7355 19.2492 13.7364 19.2494 13.7367 19.2485C13.7369 19.246 13.7345 19.2386 13.7314 19.2298C13.7253 19.2127 13.7172 19.1918 13.7085 19.1698C13.6912 19.126 13.672 19.0781 13.653 19.0298C13.6149 18.933 13.5761 18.8314 13.5391 18.7281C13.4651 18.5215 13.3969 18.3055 13.3396 18.0818C13.2506 17.6954 13.1814 17.2667 13.161 16.7995C13.1581 16.7664 13.7168 16.4553 13.7082 16.3901C13.6043 15.6003 12.8574 16.2666 11.6166 16.6129C11.4024 16.6743 11.804 16.1557 12.0899 15.792C12.2195 15.6292 12.3263 15.4983 12.3472 15.4707C12.5945 15.1424 13.4232 14.6667 13.461 14.5898C13.737 13.9598 11.2826 15.9104 11.0305 15.5914C11.0264 15.5778 11.5133 15.263 11.5364 15.1998C11.6091 15.0013 11.3615 15.0588 11.4481 14.8496C11.6505 14.3692 12.7664 13.3258 11.8312 13.5887C11.7114 13.6252 10.3944 14.8209 10.2153 14.4792C10.1763 14.4035 10.02 14.2212 9.88053 14.0386C9.77422 13.8977 9.69122 13.7737 9.68945 13.6963C9.68622 13.526 10.1571 13.1894 10.17 13.1668C10.4547 12.3835 10.7779 12.2568 11.2657 11.2088C11.3497 11.0154 11.3667 10.9306 11.3375 10.9223C11.2012 10.8808 10.1234 12.3531 9.90627 12.4933C9.64249 12.6651 9.7159 11.9379 9.77021 11.7083C9.82354 11.4774 10.1345 11.2542 10.1397 11.1052C10.1546 10.1224 9.16832 12.0358 8.79801 12.2917C8.45921 12.5382 8.44903 12.4587 8.64494 12.2861C8.98541 12.0195 8.86062 11.1685 8.69426 11.0306C8.60982 10.9641 8.61369 11.4205 8.53018 11.4504C8.21397 11.5686 8.03797 10.936 7.63881 11.493C7.62856 11.5079 7.61139 11.5519 7.58945 11.6115C7.47316 11.9175 7.45464 12.632 7.30739 11.9187C7.2707 11.7978 7.23604 11.302 7.12452 11.2119C7.06884 11.167 7.00159 11.1343 6.94261 11.1206C6.91326 11.1137 6.88619 11.1113 6.86298 11.1138C6.85119 11.1152 6.8405 11.1176 6.82675 11.1239C6.7991 11.1368 6.8418 11.1188 6.68067 11.2077C6.78242 11.1567 6.95294 11.05 7.06437 10.813C7.19493 10.5552 7.11877 10.2287 7.07683 10.1516C6.98398 9.94878 6.92174 9.91517 6.89437 9.88185C6.82458 9.81654 6.81675 9.81616 6.79969 9.80254C6.77443 9.78441 6.77373 9.78333 6.77427 9.78138C6.77764 9.7792 6.79534 9.78276 6.81448 9.78477C6.85326 9.78912 6.90162 9.79014 6.94858 9.7823C7.16655 9.74852 7.31043 8.9214 7.42078 9.24902C7.47275 9.3964 7.09238 9.74511 7.2077 9.98651C7.31967 10.2208 7.78732 10.421 7.98644 10.5013C7.99234 10.5038 7.99804 10.5061 8.00351 10.5083C8.22125 10.6003 8.3966 9.99932 8.43156 9.97019C8.66389 9.81712 9.25808 9.83951 9.28729 9.86464C9.68744 10.1158 9.96451 10.3824 10.208 10.648C10.6979 11.1742 11.0797 11.7567 11.5137 12.3001C11.7721 12.6195 12.1761 13.0847 12.4562 13.4144C12.5944 13.5693 12.7354 13.7094 12.8917 13.839C12.9946 13.9255 13.4461 13.4506 13.467 13.4596C13.9628 13.6441 12.3915 14.4432 12.1319 15.0451C13.1358 14.1901 13.064 14.4834 13.3693 14.6362C13.5169 14.7085 13.8663 14.3279 13.9157 14.3061C14.0409 14.2531 14.1257 14.2308 14.1779 14.2291C14.4172 14.1985 13.9163 14.72 13.8073 14.8543C13.3215 15.4449 14.0691 14.9419 13.76 15.3451C13.4701 15.762 12.7792 16.1208 13.0052 16.3302C13.3843 16.04 14.1114 15.0298 14.3724 15.0023C14.5962 14.9729 14.7801 15.0217 14.9645 15.1383C14.9644 15.1015 15.2766 15.5406 15.6719 15.7722C15.5777 15.7632 15.4514 15.7509 15.2414 15.7855C15.1303 15.8113 15.0403 15.8078 14.746 15.9637C14.4872 16.1028 14.1971 16.4105 14.0781 16.7425C13.879 17.3505 14.016 17.6028 14.0658 17.7927C14.1297 17.961 14.15 17.9826 14.185 18.046C14.3153 18.2501 14.3293 18.2388 14.363 18.2782C14.4153 18.3281 14.4291 18.3322 14.4418 18.338C14.4638 18.3452 14.4636 18.3324 14.462 18.3197C14.4574 18.293 14.4381 18.2572 14.4187 18.2243C14.3782 18.1572 14.3293 18.0949 14.2818 18.0477C14.0062 17.777 13.8022 17.6645 13.6455 17.5383C13.5766 17.4788 13.4996 17.4041 13.4143 17.2883C12.9641 16.7149 12.7716 17.6445 12.2267 17.8505C11.6752 18.0589 12.783 16.0911 12.9258 15.6245C12.9459 15.5577 12.9575 15.5091 12.9628 15.4741C12.9937 15.2639 12.8029 15.5437 12.8307 15.3075C12.8605 15.031 13.1565 14.8001 13.0146 14.6307C12.8653 14.4567 12.0594 15.0649 11.8251 15.5185C11.3165 16.4723 11.1378 17.6053 10.8269 17.0687C10.8071 17.0364 11.1029 16.5149 11.017 16.4193C11.0102 16.4124 11.0035 16.4056 10.997 16.3988C10.9552 16.3027 10.8163 16.1926 10.6884 16.0906C10.4226 15.7606 9.70242 15.5753 9.15565 15.2768C9.07812 15.2316 8.99645 15.1852 8.91245 15.1362C8.80553 15.0743 8.93825 14.4218 8.87058 14.3783C8.1302 13.9419 8.38175 15.0629 8.08813 16.3046C8.09235 14.8805 7.90229 13.9394 7.46134 13.7412C7.39507 13.711 7.32992 13.6975 7.25514 13.7024C6.92332 13.7242 7.04331 14.4335 6.88122 14.9557C6.83324 15.113 6.55659 14.6461 6.54992 14.986C6.53736 16.0964 6.85797 17.2978 6.32347 16.8692C6.29951 16.8489 6.2868 16.2421 6.20903 16.2157C6.09264 16.1763 6.01174 16.2076 5.96665 16.2791C5.94417 16.3148 5.93022 16.3608 5.93451 16.4106C5.94785 16.4563 5.9333 16.5279 6.10395 16.5301C6.16695 16.5145 6.23951 16.494 6.35091 16.4387C6.49155 16.3513 6.64093 16.311 6.92545 15.9135C7.04727 15.731 7.16546 15.4624 7.19617 15.1507C7.22847 14.8397 7.16781 14.5672 7.10482 14.3893C6.95053 13.9915 6.8372 13.8932 6.74684 13.7756C6.44272 13.4427 6.45011 13.456 6.41002 13.3793C6.36821 13.272 6.41168 13.2114 6.45488 13.1533C6.54967 13.042 6.69217 12.9756 6.85519 12.9955C7.15412 13.0321 7.51666 13.4393 7.84302 13.8187C8.00612 14.0289 8.19406 14.2384 8.36565 14.3572C7.64102 16.053 8.2519 15.8557 8.97159 14.7865C8.97965 14.7916 8.9878 14.7967 8.99604 14.8018C9.27245 14.9665 9.47138 15.0303 9.63392 15.1677C9.69154 15.2097 9.74466 15.2573 9.79201 15.3132C9.87606 15.4099 9.61403 15.8813 9.60657 15.9403C9.48491 16.864 10.0663 15.761 10.1485 15.7401C10.7198 15.636 10.9546 16.0005 11.3109 16.0696C11.5646 16.1194 11.8302 16.0795 12.143 15.7899C12.1756 15.7616 12.4121 14.5024 12.4523 15.4549C12.4568 15.5207 12.1333 16.062 12.4616 16.1564C12.712 16.2284 13.1042 16.6996 13.5202 16.6476C13.6411 16.6324 13.7629 16.572 13.8785 16.444C14.0066 16.3092 14.3335 15.2851 14.5318 16.1052C14.5589 16.2166 14.5112 16.5827 14.5498 16.7887C14.6789 17.4452 14.7946 16.1528 14.9436 17.2568C15.0927 18.3607 15.482 19.1923 15.9955 18.4298C16.003 18.4195 16.0324 18.1927 16.0753 17.954C16.1258 17.6783 16.1968 17.387 16.2773 17.3937C16.2981 17.3963 16.3421 17.3984 16.3327 17.4059C16.3265 17.4079 16.3295 17.4055 16.2987 17.4166C16.2881 17.421 16.2733 17.4264 16.2486 17.445C16.2326 17.4607 16.2337 17.4477 16.1944 17.5089C16.1598 17.5623 16.1671 17.6652 16.1979 17.7075C16.2949 17.8231 16.2759 17.774 16.2961 17.7914C16.3244 17.8006 16.3188 17.7964 16.3209 17.7964C16.3211 17.7946 16.3157 17.7917 16.3101 17.7889C16.2988 17.7832 16.2855 17.7771 16.2714 17.7707C16.2152 17.7452 16.1529 17.715 16.0912 17.683C15.922 17.5945 15.7522 17.4965 15.5994 17.4815C15.4733 17.4696 15.4779 18.1125 15.455 18.1214C15.2742 18.1783 15.1152 18.1986 14.9604 18.1918C14.4104 18.1715 13.9057 17.7828 13.1885 17.6478C13.1727 17.6447 13.1547 17.6502 13.135 17.662C12.9395 17.7742 12.6327 18.4694 12.26 17.8984C11.796 17.2123 11.6579 14.0549 10.8931 14.9522C10.8695 14.9805 10.8499 15.0312 10.8342 15.0995C10.5896 15.9167 10.9798 19.1075 9.93258 17.4505C9.79673 17.5623 9.66243 17.6472 9.48537 17.777C9.01657 18.1746 8.70364 18.4799 8.35922 18.7579C7.98852 19.0785 7.70711 19.4833 7.63671 19.8318C7.63424 19.8994 7.63141 19.9786 7.60999 20.0815C7.63088 20.1114 8.03668 21.1633 7.91571 21.2109C7.85473 21.2339 7.78925 21.1742 7.71572 21.1011C7.61677 21.0958 7.55048 21.0527 7.49209 21.0154C7.44648 20.9645 7.34916 20.9814 7.40681 20.8733C7.38495 20.8695 7.37009 20.8703 7.3669 20.8653C7.36373 20.8646 7.36385 20.8248 7.33671 20.8029C7.31284 20.7857 7.31103 20.7957 7.3172 20.7983C7.33127 20.8063 7.3605 20.8092 7.39016 20.8076C7.4486 20.8047 7.51139 20.7876 7.56976 20.7648C7.68825 20.7184 7.79983 20.6462 7.90906 20.5711C8.13399 20.4213 8.32199 20.2507 8.65034 20.2199C8.67188 20.2183 8.69737 20.2204 8.71826 20.2268C8.87677 20.3066 8.87073 20.762 9.08534 20.7741C9.32066 20.7872 9.4306 20.0754 9.77016 20.3901C10.0234 20.6293 10.4197 22.0421 10.8391 22.15C10.7634 21.6088 10.7536 21.2746 10.7858 21.0432C10.8373 20.6726 11.0016 20.5643 11.1866 20.2859C11.2435 20.1985 11.057 19.7332 11.0775 19.6672C11.1534 19.3885 11.3743 19.7568 11.4409 19.4546C11.4572 19.3819 11.3428 18.91 11.3496 18.824C11.3803 18.3761 11.6338 18.5389 11.8534 18.782C11.9648 18.9536 12.0811 19.1523 12.1226 19.2202C12.5334 19.8538 12.4393 19.2145 12.6987 19.4137C12.9824 19.6009 12.8608 20.0412 13.1398 20.1078C13.2249 20.1277 13.3066 20.1383 13.38 20.1458C13.8556 20.1687 14.2971 19.9174 14.675 19.7688C14.8494 19.6973 14.4676 19.158 14.4865 19.134C14.6445 18.9658 14.907 19.0257 15.0598 18.926C15.1942 18.8411 15.2618 18.6249 15.1314 18.0455C16.3732 20.5484 15.6326 18.596 15.7448 18.1293C15.7649 18.0372 15.8121 18.0058 15.93 18.0657C15.9671 18.1054 16.9071 19.3894 16.757 19.7386C16.7172 19.8348 16.6396 19.8808 16.5525 19.9035C16.3805 19.9396 16.1297 19.8541 16.05 20.1642C16.0334 20.264 16.1976 21.784 16.17 21.8878C16.164 21.9185 16.1568 21.9448 16.1491 21.9669C16.3651 22.3708 15.3146 20.4419 15.2782 20.3224C14.5361 19.1217 14.8208 20.7405 14.7676 20.8838C14.5875 21.3778 14.2511 21.4202 13.9986 21.6169C13.9622 21.6618 13.8931 21.7446 13.8149 21.8759C13.5996 22.2197 14.0574 23.7006 13.6524 23.7819C13.4059 23.8283 13.1764 23.7859 12.9736 23.701C12.5083 23.2288 12.0192 22.1821 11.6813 23.8088C11.5891 24.1707 11.9489 25.3945 11.4429 25.0435C11.3539 24.9795 11.2407 24.8634 11.1039 24.6786C11.0302 24.6063 10.4113 23.4592 10.2388 24.2434C10.2153 24.3428 10.2588 24.833 10.2189 24.878C9.95304 25.1687 9.74123 24.7891 9.50819 24.9928C9.3803 25.1079 9.24939 25.2538 9.20327 25.3262C9.74216 25.2881 9.70649 25.283 9.76132 25.2761C9.78774 25.2696 9.76222 25.2604 9.72021 25.235C9.60429 25.1646 9.0832 24.3649 8.92084 24.1779C8.68712 23.9089 8.56072 24.0533 8.35441 24.1898C8.12036 24.3125 7.94059 24.5018 7.00797 24.0612C6.76128 23.9462 6.53327 23.7963 6.3495 23.6276C6.17775 23.4621 6.12363 23.3151 6.15268 23.2125C6.21565 23.0096 6.52965 22.9093 6.6679 22.7244C6.81319 22.5399 6.85759 22.3576 6.6615 22.0545C6.59729 21.9663 6.50627 21.859 6.40732 21.692C6.30656 21.5327 6.19262 21.2335 6.21143 21.0018C6.26003 20.4838 6.47742 20.4235 6.59101 20.3418C6.7906 20.0993 6.80728 20.1559 6.85265 20.1264C6.88927 20.1154 6.91076 20.1157 6.92985 20.1169C6.96671 20.1202 6.99003 20.1309 7.01076 20.1415C6.41932 19.0088 5.80779 17.8415 4.98193 16.8389C4.92148 16.8773 4.845 16.9273 4.74107 17.0033C5.15477 16.7155 5.3285 16.6475 5.39688 16.6159C5.4635 16.5898 5.42321 16.6224 5.34068 16.6907C5.17039 16.8257 4.84264 17.1328 4.6341 17.4604C4.53082 17.8068 5.0786 17.1232 5.6004 16.5238C5.65225 16.4715 5.72825 16.3768 5.81431 16.2585C5.89699 16.144 5.26875 15.826 5.35356 15.681C5.64236 15.2646 6.01595 14.9311 7.29106 14.1904C8.22643 13.7083 8.49459 13.7053 8.82863 13.5132C9.46167 13.1653 9.80774 12.3762 10.2548 12.0885C10.2603 12.0847 10.266 12.0809 10.2717 12.0772C10.8225 13.4603 11.4168 12.8485 11.9919 12.91C12.1906 12.9311 12.2257 13.3209 12.3764 13.4317C12.7629 13.7124 12.7193 13.2192 12.691 12.805C12.6778 12.6117 12.6686 12.4365 12.7126 12.3675C13.3309 11.4484 13.5476 14.367 14.2087 14.285C14.2338 14.2803 14.7186 12.7248 14.8051 12.6319C15.2786 12.0151 14.8589 13.1761 15.1287 13.3037C15.1726 13.3246 15.2155 13.347 15.2572 13.37C15.6772 13.6069 16.0503 13.9255 16.5219 13.5755C16.5655 13.5371 16.6373 13.4116 16.6758 13.2814C16.6962 13.2148 16.7221 13.149 16.7608 13.0969C16.8153 13.0473 16.8018 12.9983 17.0373 13.0119C17.0752 13.0153 17.1237 13.0204 17.2188 13.0364C17.2712 13.0456 17.3466 13.0592 17.4703 13.0886C17.5561 13.1096 17.6627 13.1363 17.8313 13.1915C17.8954 13.2138 18.058 13.2629 18.3448 13.3957C18.4878 13.4632 18.6617 13.5507 18.8927 13.699C19.0083 13.7737 19.1385 13.8643 19.2866 13.9833C19.3189 14.0128 19.8874 14.4397 20.3308 15.1675C20.7998 15.8795 21.2095 17.2457 20.9318 18.5129C20.7273 19.7335 19.8125 20.7572 19.7345 20.816C19.2289 21.3358 18.8394 21.5537 18.5513 21.7123C17.983 22.0059 17.6847 22.0606 17.6163 22.0856C17.3797 22.1507 17.2425 22.1742 17.1328 22.1934C16.9856 22.2178 16.9025 22.2266 16.8376 22.2335C16.7368 22.2438 16.6749 22.2472 16.637 22.2488C16.4836 22.254 16.4505 22.242 16.3989 22.2232C16.3125 22.1842 16.2595 22.1071 16.2068 21.9814C16.1683 21.8833 16.1833 21.3674 16.153 21.3375C16.1367 21.3215 16.1205 21.3077 16.1044 21.2959C15.6481 20.9407 15.6281 22.4742 15.3327 23.0033C15.0254 23.5499 14.5758 22.4199 14.4955 22.0942C14.2775 21.2529 14.6931 21.7439 14.7082 21.6618C14.884 20.6918 14.5554 20.8523 14.3081 20.7602C14.3314 19.1717 13.9954 19.2518 14.051 20.6703C14.0586 20.8255 14.2611 20.686 14.3081 20.7602C14.0349 22.3098 13.5779 22.4897 13.2281 21.0006C13.206 20.9045 13.1923 20.8069 13.1833 20.7106C13.1283 20.1068 13.2481 19.5628 12.7009 19.7575C12.4117 19.8568 12.3899 20.9558 12.0957 21.2193C11.4801 21.7624 10.9131 20.8776 10.4237 20.7491C10.345 20.7306 10.2642 20.719 10.1815 20.7166C9.85879 20.7034 10.0313 21.3577 9.79336 21.3637C9.12444 21.3653 8.84984 20.7831 8.40248 20.8645C8.36073 20.872 8.22658 21.491 8.10533 21.4543C7.79687 21.3651 7.5575 21.2397 7.33121 21.0975C7.13182 20.9921 6.89188 20.854 6.72434 20.7396C6.55465 20.6245 6.486 20.5535 6.41875 20.4902C6.26017 20.3622 6.09333 20.2459 5.89625 20.1589C5.75618 20.0971 5.55471 20.0844 5.27522 20.0429C5.00571 20.0261 4.7252 20.017 4.54626 19.9082C4.4356 19.8419 4.32962 19.7452 4.17779 19.6129C4.09702 19.5444 4.01595 19.4733 3.83501 19.3529C3.73044 19.2835 3.64416 19.2346 3.30205 19.0244C3.2128 18.9679 3.09711 18.8961 2.91923 18.7675C2.84192 18.7109 2.71119 18.6138 2.56453 18.4865C2.48798 18.4198 2.4189 18.3574 2.31533 18.2547C2.20233 18.1421 2.0773 18.0073 1.94193 17.8358C1.73101 17.559 1.19091 16.8623 1.00745 15.6814C0.903675 15.0243 0.962768 14.2405 1.1921 13.5736C1.40058 12.9537 1.70951 12.4716 2.0111 12.1115C2.34972 11.7187 2.51275 11.5979 2.72718 11.4275C2.92444 11.2765 3.12019 11.1558 3.25273 11.0821C3.49591 10.947 3.69018 10.8654 3.85282 10.8039C4.30116 10.6534 4.39807 10.6629 4.53152 10.6435C4.65141 10.6317 4.73427 10.6316 4.8093 10.6334C4.95755 10.6377 5.06682 10.6524 5.16696 10.6676C5.36437 10.699 5.52466 10.7342 5.67121 10.7595C5.96371 10.8105 6.20354 10.8226 6.40612 10.7358C6.83908 10.5527 6.68413 9.93835 6.83908 9.49601C6.90684 9.30265 6.99642 9.22588 7.10039 9.22525C7.52045 9.21606 8.08946 10.1243 8.17613 10.3015C8.17438 10.3076 7.71134 10.474 7.97317 10.7855C8.138 11.4502 8.16866 10.3047 8.17613 10.3015C8.2385 10.4397 9.27845 10.5915 9.59103 10.5179C9.67424 10.4896 9.70798 10.2907 9.73427 10.1176C9.75267 9.98091 9.76787 9.86068 9.7884 9.85282C10.1515 9.71758 10.522 9.62758 10.9428 9.59906C11.1546 9.58535 11.3776 9.58636 11.6465 9.61496C11.9279 9.65044 12.1943 9.6791 12.8021 9.87704C12.8925 9.90811 12.9531 9.92848 13.3585 10.0957C13.4544 10.1551 13.6708 10.2738 13.844 10.3956C13.8585 10.414 13.5931 11.0239 13.6296 11.0592C13.9761 11.4107 14.4208 11.2446 14.9423 11.0633C15.1464 10.968 15.3586 10.8648 15.574 10.7994C16.264 10.5877 16.6672 10.9673 16.5233 12.1953C16.6111 12.2205 16.7024 12.2649 16.8042 12.3317C17.1728 12.5837 17.3695 13.2011 17.4918 13.6095C17.6258 14.0816 18.5273 13.1525 18.5947 13.1727C18.6868 13.2028 18.7849 13.2404 18.947 13.3462C19.0342 13.4069 19.1163 13.4564 19.3351 13.6682C19.391 13.7237 19.4419 13.7733 19.5444 13.8904C19.592 13.945 19.6444 14.0074 19.7032 14.0823C19.7598 14.1551 19.8289 14.2432 19.9462 14.4216C20.0563 14.5916 20.1866 14.8053 20.3343 15.1305C20.4675 15.4841 20.9657 16.4005 20.7326 18.116C20.6641 18.9464 19.8942 20.6212 18.8675 21.3805C18.367 21.7929 17.8552 22.0605 17.4131 22.2319C17.1604 22.3281 17.0605 22.3551 16.9379 22.3911C16.8187 22.4249 16.7053 22.4526 16.5976 22.4756C15.7364 22.6489 15.2414 22.5931 14.875 22.5591C13.5123 22.8571 12.6689 22.224 10.7403 20.7761C10.6967 20.7403 10.6508 20.7026 10.6028 20.6628C10.2313 20.3524 9.055 19.5002 8.55371 19.0646C8.47111 18.999 8.40852 18.932 8.35813 18.8651C8.20868 18.6617 8.23746 18.4259 7.96951 18.3407C7.92529 18.3267 7.49857 18.7154 7.47391 18.72C6.73996 18.9041 7.93505 18.1451 8.09111 17.9375C8.64124 17.2214 8.91325 16.7854 8.45843 16.7737C8.43949 16.7737 8.41975 16.7751 8.39885 16.7775C8.25735 16.7616 6.69502 18.0626 6.70938 18.2463C6.65552 18.4036 7.15161 17.8693 6.97204 17.9469C6.95253 17.9492 6.67301 18.2995 6.60802 18.2187C6.59825 18.2072 6.5886 18.1956 6.57773 18.1829C6.2363 17.7843 5.86398 17.2051 5.44123 16.888C5.39914 16.8563 5.35811 16.827 5.31766 16.7999C5.23971 16.7459 4.90248 17.383 4.78637 17.3171C4.41528 17.095 4.22515 17.0257 4.74245 17.1685C4.62428 17.0554 4.51269 16.9226 4.40535 16.7626C4.31686 16.6292 4.60213 16.2125 4.63676 16.0657C4.84439 15.1768 4.00913 16.2256 3.88588 16.1943C3.80526 16.181 3.71914 16.1634 3.55512 16.1C3.46268 16.0619 3.37507 16.029 3.1429 15.9017C3.08682 15.8706 3.01689 15.8307 2.91938 15.7699C2.82549 15.7107 2.71406 15.6408 2.51694 15.4942C2.34926 15.3579 2.04678 15.1719 1.46495 14.4937C1.26244 14.2483 1.02453 13.9337 0.770382 13.4675C0.644063 13.2341 0.514567 12.9614 0.395179 12.6365C0.28009 12.3376 0.0759778 11.6407 0.0295439 10.9649C-0.147937 9.59551 0.500545 7.59985 1.26933 6.68546C2.06242 5.63874 2.91362 5.11831 3.5258 4.81102C3.16572 4.9898 3.08315 5.04866 3.01489 5.08558C2.95763 5.11837 2.94416 5.1247 2.94352 5.12242C2.94493 5.1163 2.99526 5.07892 3.05097 5.03975C3.16542 4.95927 3.31331 4.86469 3.45607 4.78126C3.74224 4.61341 4.03268 4.4731 4.29613 4.36432C4.82777 4.14532 5.29251 4.02765 5.69803 3.95652C6.51281 3.81813 7.13039 3.8515 7.66454 3.91342C8.11995 3.99337 8.57278 4.09678 9.08424 4.17761C9.62705 4.27329 10.0697 4.27092 11.1713 4.4426C11.2725 4.46906 11.4879 4.34457 12.222 4.49001C13.5051 4.73822 14.0131 4.73254 13.7545 5.51618C13.7358 5.59996 13.2641 6.76639 13.9442 6.23125C13.9871 6.19809 14.2297 5.59388 14.4233 5.81835C14.5422 5.95677 14.8151 5.9802 14.9747 6.16149C15.0041 6.22002 15.3215 6.58825 15.4315 7.0453C15.5591 7.45002 15.0493 8.67325 16.047 8.3364C16.0736 8.32675 16.406 8.18118 16.7408 8.07017C17.252 7.87177 17.7776 7.76788 17.1499 8.46488C16.9808 8.65177 15.737 9.66411 16.6381 9.45727C16.813 9.41768 16.9914 9.073 17.3025 9.09666C17.7826 9.1344 17.7307 9.74916 18.5575 9.64236C18.7014 9.62 19.7656 9.21128 19.2756 9.9322C19.1982 10.0442 18.7241 10.3059 18.7615 10.4541C18.7873 10.5578 18.8246 10.6544 18.87 10.7468C19.1231 11.2696 19.6331 11.6194 19.6857 12.2627C19.7073 12.5282 18.9225 12.9125 18.8593 13.2368C18.7968 13.5615 18.8619 14.0751 19.332 14.0837C19.7882 14.0975 20.7512 13.1935 21.1014 13.3942C21.1139 13.4003 21.1254 13.4078 21.1357 13.4169C21.3285 13.5865 21.4936 13.7773 21.6404 13.9906C21.7144 14.0984 21.7832 14.2106 21.8521 14.3354C21.8866 14.398 21.9211 14.4636 21.959 14.5385C21.9787 14.5774 21.9983 14.6167 22.0239 14.6683C22.0376 14.6957 22.0508 14.7224 22.0731 14.7668C22.0837 14.788 22.0977 14.8154 22.1201 14.8599C22.1362 14.8916 22.1416 14.9022 22.1801 14.9794C22.2047 15.0303 22.1984 15.0141 22.2747 15.1775C22.2926 15.2163 22.3137 15.2627 22.3415 15.3268C22.3554 15.359 22.3711 15.3957 22.3893 15.4399C22.3984 15.4621 22.4082 15.4861 22.4188 15.5126C22.4299 15.5415 22.4346 15.5484 22.4968 15.7168C22.5499 15.8678 22.6197 16.0487 22.7237 16.4689C22.7743 16.6866 22.8389 16.9608 22.8872 17.4506C22.9104 17.9554 23.0386 18.6369 22.6065 20.1592C22.3717 20.9091 21.9246 21.9474 20.9352 22.967C19.9709 23.9919 18.4101 24.7827 17.0741 24.9736C15.7245 25.1871 14.6918 24.9845 13.9816 24.7788C13.781 24.7188 13.6898 24.6858 13.5949 24.6521C13.4999 24.6179 13.4104 24.5833 13.3257 24.5488C13.1563 24.4797 13.0062 24.4109 12.8709 24.344C11.8201 23.8002 11.5063 23.4522 11.2213 23.2079C10.7167 22.728 10.6014 22.5495 10.4734 22.3952C10.3598 22.2496 10.2994 22.1638 10.2505 22.0944C9.76051 21.3356 9.77878 21.2461 9.69591 21.0492C9.63623 20.878 9.59627 20.7299 9.55587 20.5765C9.47719 20.2734 9.40664 19.966 9.3207 19.6623C9.25094 19.3986 9.15416 19.1153 9.02923 18.8462C8.942 18.6583 8.59901 19.0533 8.43829 18.7914C8.139 18.3029 7.65184 17.7071 7.22631 16.8941C6.85194 16.1754 6.42984 15.0665 6.49611 13.8641C6.50957 13.7612 6.52762 13.659 6.55069 13.5582C6.9733 11.8266 8.06311 13.5557 8.12984 12.3692C8.14936 12.1219 7.84542 11.9122 7.49184 11.7058C7.04114 11.5066 6.50001 11.3301 6.4657 11.2601C5.86353 10.0192 6.6292 9.32543 6.48228 8.47201C6.47918 8.45272 6.46872 8.43673 6.45248 8.42338C6.31985 8.29863 5.78765 8.38849 5.77534 8.23183C5.72441 7.64296 6.06873 7.30771 6.04351 7.05898C6.03037 6.95307 5.53464 6.91544 5.58008 6.84994C5.6258 6.78384 5.69165 6.75163 5.79254 6.75297C5.9259 6.56515 6.11495 6.3818 6.38428 6.18117C6.42893 6.14859 7.02998 6.42829 7.07228 6.13338C7.09984 5.93852 7.19728 5.72696 7.28769 5.44608C7.33385 5.30179 7.37576 5.1479 7.42327 4.89778C7.44951 4.76446 7.47063 4.62172 7.53382 4.3262C7.5738 4.15865 7.59905 4.00059 7.75291 3.56612C7.84635 3.33265 7.92699 3.05334 8.32874 2.42657C8.59236 2.06357 8.84157 1.61668 9.82629 0.917487C10.6851 0.197417 13.1858 -0.380159 14.7411 0.310018C16.4777 0.980852 17.084 1.78898 17.6472 2.5003C17.6487 2.45716 17.6585 2.41974 17.6775 2.3874C17.7198 2.3237 17.9801 2.13902 18.1547 2.0323C18.3329 1.93088 18.4266 1.90733 18.2597 2.33878C18.2019 2.54207 16.9769 3.15138 18.3533 3.07835C18.4169 3.07804 18.6145 3.09229 18.8626 3.15333C19.6319 3.49297 20.4554 3.74996 19.9288 4.38955C19.7384 4.62139 18.8335 5.33464 19.0866 5.49368C19.1256 5.51588 19.6379 5.15514 19.7737 5.33342C19.9072 5.5149 20.0189 5.71105 20.1196 5.91868C20.1815 5.98766 20.4085 6.60242 20.5138 6.93264C20.6298 7.28053 20.7129 7.50741 20.8268 7.71723C20.9118 7.87044 21.4799 7.50003 21.5861 7.73105C21.6231 7.8117 21.654 7.88938 21.681 7.97201C21.857 8.48943 21.8283 9.10713 21.7495 9.62063C21.7149 9.83729 21.1748 9.79352 21.1217 9.81886C20.2567 10.226 21.5104 10.1369 21.5968 10.2032C22.1172 10.6189 21.6086 11.1 21.8458 11.5611C21.9099 11.691 22.4803 11.4936 22.5373 11.512C22.5928 11.532 22.632 11.5495 22.6577 11.5652C22.8926 11.7137 21.9984 11.6959 21.9217 11.8827C21.8006 12.1763 21.7781 12.4825 21.8073 12.8838C21.8366 13.2694 21.9131 13.8638 21.9506 14.3213C21.9795 14.6348 22.6708 14.2893 22.6872 14.5631C22.6906 14.6131 22.6936 14.6597 22.6963 14.7036C22.7377 15.3694 22.742 15.7695 22.5699 16.8027C22.5319 16.9658 22.4901 17.101 22.4481 17.1891C22.4274 17.2297 22.4063 17.2662 22.3898 17.2323C22.3816 17.2083 22.375 17.1875 22.3717 17.0231C22.3664 16.909 22.3809 16.8819 22.3441 16.3109C22.3374 16.2265 22.3304 16.146 22.3148 16.0132C22.2967 15.8616 22.2715 15.677 22.2199 15.4233C22.1715 15.2168 22.0766 14.6421 21.6591 13.7659C21.4737 13.4213 20.8562 12.0028 19.0249 10.8559C18.1496 10.3 16.7428 9.80217 15.3455 9.82222C13.961 9.82541 12.8209 10.2426 12.06 10.6533C11.1835 11.1508 11.0924 11.2864 10.7986 11.521C10.5503 11.7359 10.3585 11.9305 10.1996 12.1048C10.0411 12.2792 9.91586 12.4338 9.81032 12.5722C9.70373 12.7121 9.61951 12.8348 9.58033 12.893C9.38727 13.1809 9.27281 13.3901 9.18339 13.5608C9.03326 13.854 8.98623 13.975 8.92894 14.113C8.7033 14.7309 8.7264 14.8216 8.70532 14.9639C8.6967 15.0835 8.70679 15.1446 8.72005 15.1945C8.76979 15.3277 9.30802 15.3405 9.42375 15.383C9.58387 15.4306 9.67021 15.4572 9.70322 15.4783C9.70448 15.7631 9.69029 15.7846 9.63683 15.7677C9.58523 15.7458 9.50382 15.6724 9.41532 15.6015C9.23846 15.4547 9.03427 15.3083 8.99408 15.2517C8.54179 14.6007 9.03981 14.4385 9.01371 13.9883C8.99902 13.7214 8.99774 13.467 9.00866 13.2136C9.0543 11.8338 9.45137 10.5976 9.85045 9.42443C9.9359 9.17654 10.019 8.94032 10.1164 8.64577C10.1654 8.49766 10.2173 8.33766 10.3032 8.07984C10.3794 7.84649 10.5595 7.34264 10.7 7.05251C11.0479 6.50193 11.3157 5.68371 12.6797 4.14139C12.8287 4.01006 13.0383 3.79549 13.4319 3.45105C13.8199 3.1077 14.3708 2.72162 14.7484 2.51453C14.8964 2.46909 15.0884 2.383 15.357 2.2373C15.494 2.16323 15.6478 2.07495 15.8703 1.94843C16.1228 1.81533 16.2962 1.6733 17.1366 1.32433C17.3592 1.23949 17.6287 1.1328 18.1531 1.01919C18.6725 0.934567 19.4997 0.710503 21.0723 1.12313C22.6988 1.50035 24.2989 3.13433 24.694 4.01655C25.1815 4.94197 25.2384 5.38694 25.3155 5.6884C25.4765 6.49623 25.457 6.82834 25.4639 7.15235C25.4625 7.46 25.4464 7.68628 25.4289 7.88756C25.4199 8.00763 25.4062 8.16153 25.3889 8.31857C25.3569 8.58677 26.0982 8.418 26.0756 8.66274C25.9143 10.0083 25.5956 10.8133 25.3144 11.5209C24.9673 12.3497 24.6354 13.0312 24.4102 13.8641C24.3772 13.9803 25.0622 14.0849 25.0284 14.2833C25.0096 14.3987 24.9764 14.5195 24.9273 14.6453C24.8034 14.9647 24.5758 15.3082 24.3221 15.4839C24.1534 15.5995 23.7329 15.1425 23.5757 15.2596C23.3198 15.444 23.1762 15.5912 23.0916 15.8107C23.0575 15.8994 23.0326 16.0026 23.0198 16.1127C23.0023 16.2736 23.7247 16.3283 23.653 16.5164C23.439 17.096 23.2264 17.7187 22.9169 18.3575C22.7993 18.6009 22.6683 18.8436 22.5509 19.0167C22.494 19.0982 22.4382 19.1718 22.4217 19.1326C22.4145 19.1086 22.418 19.0599 22.4532 18.8905C22.4823 18.6971 22.583 18.4765 22.654 17.5001C22.6493 17.5627 22.6438 17.6389 22.6278 17.7825C22.6038 17.9449 22.6091 18.0863 22.453 18.7318C22.3163 19.1078 22.3766 19.4973 21.4119 20.9975C20.8943 21.6727 19.8347 23.2332 17.0042 23.8544C14.053 24.4769 11.4306 22.766 10.627 21.8075C9.7087 20.8049 9.48851 20.2078 9.28532 19.7834C9.09951 19.3508 9.02655 19.0966 8.96565 18.8865C8.85252 18.4747 8.82496 18.286 8.79672 18.1248C8.71313 17.5664 8.72803 17.5232 8.71699 17.4073C8.71167 17.3153 8.7102 17.2694 8.70884 17.2312C8.70456 17.0887 8.70571 17.0834 8.70538 17.0751C8.7052 17.0549 8.70515 17.0393 8.70513 17.0256C8.7051 16.9985 8.70524 16.9786 8.70541 16.9605C8.70574 16.9326 8.70606 16.9203 8.70647 16.9024C8.70733 16.8648 8.70804 16.8499 8.7089 16.8272C8.71069 16.7821 8.71227 16.7566 8.71414 16.7248C8.71765 16.6692 8.72145 16.6213 8.72539 16.577C8.73334 16.4883 8.7416 16.417 8.75073 16.345C8.76875 16.205 8.78913 16.0795 8.8117 15.9579C8.85682 15.7159 8.91119 15.4876 8.97598 15.2595C9.1061 14.8034 9.27842 14.3436 9.51814 13.8626C9.71776 13.6171 9.94145 13.3691 10.2093 13.0984C10.3519 12.951 11.6464 13.467 11.6295 12.9539C11.3113 12.7311 10.9168 12.5046 10.5674 12.2827C10.6845 12.0607 10.8219 11.8149 11.0437 11.4874C11.0017 11.5315 11.17 11.2674 11.342 11.0252C11.5221 10.7711 11.7447 10.4854 11.9909 10.2073C12.4839 9.64766 13.0769 9.11585 13.6979 8.68064C14.2858 8.27097 14.504 8.17451 14.7808 8.02615C15.04 7.89337 15.27 7.78736 15.5039 7.68581C15.988 7.48074 16.3821 7.31773 17.1884 7.06872C16.8322 7.21196 17.1914 7.08121 17.5765 6.96493C17.9742 6.84518 18.4081 6.75058 18.7679 6.6966C19.4993 6.58759 20.0277 6.58466 20.4871 6.59198C20.7518 6.60666 21.0349 6.61897 21.3942 6.63642C21.7871 6.66516 22.0911 6.64039 23.1357 6.80817C23.554 6.88869 23.0636 6.24536 23.5655 6.18617C23.5711 6.16038 23.5746 6.14546 23.5768 6.1462C23.6028 6.15471 23.7413 6.16794 23.9537 6.19134C24.0527 6.20541 24.1521 6.21831 24.3749 6.26084C24.5003 6.28726 24.6122 6.3021 25.0099 6.41408C25.1109 6.44372 25.2444 6.4831 25.4586 6.56059C25.6993 6.66064 25.9 6.68771 26.7321 7.17523C27.129 7.52942 27.8476 7.50887 29.2998 9.94695C30.1401 11.354 30.3888 14.2626 29.4156 16.101C28.3679 18.0924 27.7851 18.2896 27.2022 18.7938C26.5836 19.2321 26.3723 19.3149 26.0955 19.4558C25.8454 19.5763 25.5997 19.6723 25.4674 19.7201C25.1971 19.8187 24.9758 19.8811 24.8217 19.9211C24.2588 20.0605 24.1037 20.066 23.9432 20.0907C23.7912 20.1102 23.6971 20.1185 23.624 20.1248C23.472 20.1375 23.3908 20.1413 23.317 20.1448C23.1784 20.151 23.1005 20.1521 23.0308 20.1532C22.4908 20.1565 22.0716 20.1528 22.2082 19.6358C22.2078 19.6322 22.2075 19.6286 22.2071 19.6249C22.2014 19.5527 21.8947 18.2895 21.9124 18.4885C21.9135 18.5252 21.9485 18.6976 22.0745 18.9509C22.0947 18.9884 22.3185 19.5525 22.3524 19.5569C22.3739 19.5585 22.3953 19.5564 22.4156 19.551C22.7431 19.3806 22.7719 19.3509 22.821 19.3213C22.8574 19.297 22.8554 19.2955 22.8429 19.3004C22.8153 19.3118 22.7416 19.3502 22.6564 19.3914C22.483 19.4759 22.2543 19.5767 22.0043 19.6649C21.8855 19.6978 21.9781 19.5378 22.061 19.3351C22.1019 19.1941 21.5272 18.8726 21.5341 18.7885C21.531 18.6927 21.4732 18.7073 21.4071 18.768C21.1111 19.057 20.9163 19.6359 20.5551 19.7296C20.472 19.7828 20.3801 19.8281 20.2775 19.8636C19.6835 20.0613 18.8402 19.3068 17.7823 18.9227C17.6295 18.8734 17.4767 19.0716 16.9284 18.7445C15.5247 17.959 14.1063 16.903 12.6064 16.0715C12.442 15.988 12.3807 16.0957 12.2145 16.2786C12.1345 16.3628 12.0049 16.528 11.9012 16.5324C11.7932 16.5436 11.7666 16.2507 11.6723 15.9615C11.6648 15.9112 11.6956 15.6771 11.6596 15.5084C11.6281 15.3306 11.5579 15.1618 11.4527 15.0448C11.3072 14.8833 10.7007 14.626 10.5383 14.3818C10.3749 14.1397 10.8969 14.3349 10.7181 14.0301C10.5345 13.7255 9.87623 13.3827 9.96133 13.0848ZM14.0613 19.8082C13.8421 19.0984 13.031 21.2275 13.7392 20.8704C13.774 20.8499 14.0752 19.8435 14.0613 19.8082ZM6.54976 18.2248C7.60479 18.4479 6.67786 17.2579 5.8195 17.0984C4.93117 16.9958 6.22078 18.1735 6.54976 18.2248ZM8.95581 22.1947C8.93419 22.1518 8.91385 22.1216 8.89668 22.1027C9.03676 22 8.95821 22.1159 9.00376 22.3117C9.03182 22.5091 9.09401 22.7939 9.16924 23.0718C9.24342 23.3501 9.33203 23.6211 9.384 23.7996C9.40885 23.889 9.42491 23.9555 9.40724 23.9917C9.37515 24.0283 9.37459 24.0352 9.07846 24.0139C9.08208 24.0023 9.08598 23.9885 9.09022 23.9724C9.09829 23.9347 8.97801 22.2389 8.95581 22.1947ZM18.1206 17.8147C18.093 17.8012 17.9637 17.9437 17.9875 17.9626C18.5402 18.4369 18.7876 18.1674 18.1206 17.8147ZM12.4602 20.8481C12.4028 20.7603 12.3466 20.722 12.2949 20.7208C12.1473 20.7102 12.0662 21.138 12.2748 21.5189C12.3617 21.6791 12.4443 21.6832 12.4949 21.5992C12.6243 21.4622 12.6498 21.133 12.4602 20.8481ZM8.86518 9.93336C8.86418 9.96702 9.01342 10.0248 9.04714 9.83669C9.15428 9.22756 8.87861 9.35728 8.86518 9.93336ZM17.7879 17.4105C17.7766 17.4271 17.7644 17.4432 17.7516 17.4588C17.7335 17.3612 17.4289 17.659 17.1228 17.6884C16.8077 17.7443 16.4676 17.6515 16.1867 17.5044C15.9039 17.3582 15.6709 17.1672 15.5103 17.0426C15.3548 16.9058 15.2441 16.8986 15.3391 16.8593C15.4247 16.7931 16.0593 17.3367 16.3201 17.3396C16.4565 17.3171 16.4549 17.2282 16.396 17.1141C16.3417 16.9963 16.2153 16.8484 16.2221 16.5712C16.1262 16.4588 16.0419 16.3801 16.1054 16.3038C16.1107 16.2871 16.1375 16.2417 16.144 16.2254C16.2978 15.9938 16.4042 16.0113 16.589 16.0432C16.692 16.0572 16.9699 16.5008 17.2817 16.8385C17.5893 17.0828 17.8129 17.3839 17.7901 17.4142C17.7894 17.413 17.7887 17.4118 17.7879 17.4105ZM14.6321 17.1289C14.6351 17.0998 14.4499 17.0059 14.4354 17.0307C14.0516 17.6614 14.5088 17.882 14.6321 17.1289ZM13.9725 16.9017C13.9258 16.9458 14.1213 17.3678 14.178 17.3492C15.3176 16.9423 14.9019 16.0485 13.9725 16.9017ZM8.35445 14.4059C8.85786 13.8298 9.17368 13.8753 8.97097 14.7852C8.77442 14.6432 8.55712 14.5403 8.35445 14.4059Z" fill="var(--stroke-0, #FFA1A1)"/>
</svg>
