<svg preserveAspectRatio="none" width="100%" height="100%" overflow="visible" style="display: block;" viewBox="0 0 48.8896 42.6431" fill="none" xmlns="http://www.w3.org/2000/svg">
<path id="Vector 132" d="M21.2157 26.4766C21.2286 26.4485 21.2419 26.4201 21.2554 26.3915C21.8861 25.1826 22.5777 24.2533 23.4437 23.2338C23.7114 22.9192 24.0302 22.5419 24.4953 22.0569C24.9604 21.5685 25.5212 21.0858 25.8809 20.8293C26.094 20.6745 26.2118 20.6568 26.3115 20.6686C26.4989 20.7063 26.5973 20.884 26.8306 20.7507C27.5106 20.3634 27.9347 19.7434 28.699 19.3735C28.9547 19.2526 29.083 19.965 29.3394 19.8297C29.6447 19.6677 29.9409 19.4922 30.2707 19.2889C30.6249 19.0764 30.8839 18.8855 31.6355 18.4859C32.5901 18.0087 33.5758 17.5836 34.6372 17.3417C35.0594 17.2456 35.4807 17.1656 35.8991 17.1007C38.2169 16.76 39.9362 16.8818 41.5973 16.9594C41.6017 16.9624 41.5998 16.9649 41.5536 16.9698C41.5279 16.9725 41.4956 16.9751 41.4129 16.9835C41.3728 16.9877 41.3188 16.9931 41.2218 17.0063C41.1193 17.0234 41.0183 17.0263 40.6227 17.1266C40.5099 17.1567 40.3552 17.2014 40.1606 17.2739C40.0553 17.3131 39.885 17.3815 39.7026 17.4716C39.5102 17.5718 39.3285 17.6498 38.8885 17.9752C38.4849 18.3337 37.9985 18.5592 37.3121 20.0058C36.6702 21.3581 36.921 23.3365 37.5017 24.2898C38.4947 25.9235 39.0017 25.9478 39.2807 26.19C39.8629 26.5337 40.0037 26.5529 40.1693 26.6222C40.3164 26.6757 40.406 26.702 40.4723 26.7213C40.7327 26.794 40.7869 26.7978 40.8508 26.8105C40.9585 26.8284 40.9768 26.8268 40.9943 26.8268C40.3588 26.692 39.6634 26.5469 38.8847 26.3417C39.0797 26.3623 38.9638 26.3201 38.8359 26.2997C38.6979 26.2756 38.5039 26.2547 38.2939 26.238C37.8702 26.2045 37.3777 26.1851 36.8712 26.1698C36.5338 26.1509 36.2481 26.1548 36.1092 26.1571C36.0368 26.1586 36.0169 26.152 35.9777 26.1521C35.9281 26.1528 35.868 26.1764 35.2935 26.3699C34.7221 26.4853 33.1839 27.2094 32.8996 27.3537C32.7087 27.4702 32.5315 27.5974 32.3591 27.7438C32.2153 27.8666 32.0612 27.995 31.8845 28.1618C31.6984 28.3401 31.5391 28.4976 31.1799 28.9355C30.8908 29.1343 30.3208 30.0055 29.9711 30.7786C30.0051 30.6879 30.0218 30.623 30.0358 30.5674C30.0428 30.5391 30.0489 30.5134 30.0556 30.4806C30.059 30.4639 30.0624 30.4457 30.0662 30.4194C30.0681 30.4057 30.0701 30.3911 30.0722 30.3686C30.0733 30.3571 30.0744 30.3439 30.0755 30.3261C30.0761 30.3154 30.0766 30.3074 30.0772 30.2898C30.0776 30.2811 30.0778 30.2748 30.0782 30.2585C30.0783 30.2505 30.0784 30.2455 30.0786 30.2314C30.0786 30.2227 30.0787 30.2128 30.0787 30.1989C30.0786 30.1919 30.0786 30.1838 30.0785 30.1732C30.0783 30.1696 30.0789 30.1644 30.0765 30.0864C30.0758 30.0652 30.0749 30.0397 30.0719 29.9879C30.0653 29.9218 30.0751 29.9016 30.0243 29.5747C30.0071 29.481 29.9902 29.3668 29.9168 29.1168C29.8773 28.9897 29.8283 28.8283 29.6989 28.5564C29.5578 28.2948 29.3954 27.8841 28.7018 27.2796C28.3294 26.9709 27.7943 26.6384 27.0501 26.478C26.3266 26.3094 25.4186 26.4155 24.8166 26.6757C23.5381 27.2496 23.2366 27.8811 22.9913 28.2273C22.5904 28.9333 22.6023 29.1236 22.5415 29.3103C22.4664 29.6355 22.4676 29.7108 22.4556 29.7956C22.4474 29.871 22.4445 29.9116 22.442 29.9449C22.5369 28.9305 22.6721 28.6912 22.7445 28.3614C22.8429 27.9946 22.2407 28.0159 22.2217 27.9319C21.9196 26.7406 22.8471 27.494 23.1908 27.0442C23.5133 26.637 23.8037 26.2305 24.069 25.8053C24.9051 24.462 25.5134 22.9347 25.9456 21.4921C26.1894 20.6835 24.8605 21.0167 25.7196 20.4907C25.7292 20.4847 25.7391 20.4786 25.7492 20.4725C25.7813 20.4524 25.9148 20.5564 26.0587 20.6381C26.1231 20.6744 26.1895 20.7063 26.2497 20.7211C26.3204 20.7381 26.3828 20.731 26.4233 20.6804C26.7657 20.2459 27.0999 19.2662 27.3071 18.9371C27.7096 18.2956 27.7492 18.1978 28.0337 17.5758C28.0757 17.4848 28.121 17.3936 28.17 17.2995C28.571 16.5298 29.1695 15.6736 29.4072 14.7734C29.4624 14.5573 28.7872 14.5971 28.8234 14.2328C28.8604 13.8684 29.2526 13.028 29.4988 12.7926C29.7459 12.5569 30.1446 12.8537 30.267 12.8427C30.6567 12.8109 30.7833 12.579 30.7868 12.3027C30.7893 11.8595 30.4443 11.3151 30.4486 11.2401C30.5364 10.2814 30.6868 9.66125 30.8172 9.0095C30.8299 8.97148 30.8399 8.94741 30.8502 8.9696C30.8647 9.00141 30.8583 9.03578 30.9302 9.34627C30.9671 9.47224 30.9911 9.67758 31.2411 10.1564C31.4407 10.6077 32.2908 11.5183 33.2027 11.7408C34.08 11.9774 34.5242 11.8451 34.7824 11.8009C35.0434 11.7399 35.1563 11.6879 35.2416 11.6512C35.3668 11.5655 35.1843 11.6173 35.0321 11.6806C34.8668 11.748 34.6678 11.8442 34.4615 11.9519C34.0464 12.1691 33.5973 12.4342 33.132 12.7365C33.0417 12.7953 32.9503 12.8551 32.8575 12.9159C32.7516 12.9901 32.7514 13.0035 32.6955 13.0718C32.6415 13.1391 32.5167 13.2987 32.3635 13.5044C32.27 13.6744 31.9357 14.5126 31.6146 15.3662C31.5835 15.4478 31.579 15.4592 31.5553 15.5264C31.4073 15.9755 31.1557 16.8799 30.936 17.5958C30.614 18.6661 30.2979 19.7243 30.1026 20.8916C30.067 21.1004 30.8188 20.9953 30.7769 21.25C30.5564 22.5978 30.2996 23.9453 30.0087 25.2264C29.8687 25.8428 29.7252 26.4461 29.5852 27.0232C29.5152 27.3129 29.4468 27.5906 29.38 27.8678C29.3465 28.0069 29.3136 28.1444 29.2788 28.3059C29.2409 28.4761 29.2169 28.6348 29.1346 29.0705C29.1256 29.1042 29.1165 29.1379 29.1072 29.1714C29.0046 29.528 28.4514 28.9737 28.3115 29.3101C28.2405 29.4793 28.1602 29.6548 28.0659 29.8509C27.9638 30.0602 27.8874 30.2236 27.6701 30.6394C27.6458 30.6906 27.6234 30.7377 27.5739 30.8293C27.5436 30.8851 27.5062 30.9514 27.4472 31.0396C27.391 31.1123 27.2679 31.3442 26.8704 31.6378C26.6017 31.8643 25.6784 32.259 24.8189 31.9239C24.0699 31.6407 23.7725 31.1612 23.6257 30.9092C23.4401 30.5574 23.4241 30.402 23.3949 30.2849C23.3608 30.1094 23.3583 30.0137 23.356 29.9582C23.3529 29.7312 23.3715 29.6839 23.3832 29.61C23.4098 29.4794 23.4376 29.3981 23.4649 29.3133C23.5198 29.1494 23.5739 29.0058 23.6247 28.8633C23.7266 28.579 23.816 28.3043 23.8768 28.0358C24.1032 27.0482 23.842 25.9046 22.3237 25.3499C22.3392 25.2244 22.3544 25.096 22.3699 24.9664C22.4289 24.4872 22.4813 24.1639 22.5465 23.7213C22.6126 23.2854 22.6967 22.7773 22.8712 22.3149C23.1014 21.6845 23.7778 22.0615 23.5587 21.5518C23.5398 21.5084 23.5139 21.4579 23.48 21.398C23.3856 21.2315 22.8323 21.5631 22.7354 21.306C22.3273 20.227 22.2939 18.9552 21.7812 17.8942C21.6755 17.6788 21.1576 17.8392 21.0503 17.7926C20.1779 17.3967 21.2839 16.2578 21.3389 16.0429C21.4992 15.4035 21.5205 14.8522 21.4723 14.3399C21.3999 13.5719 21.1552 12.8198 20.9966 12.2602C20.9305 12.0379 20.3254 12.5184 20.2366 12.3178C20.1975 12.2279 20.1486 12.1116 20.0947 11.9759C19.7143 11.046 19.2488 9.89036 19.0315 9.18776C18.9638 8.99711 18.8936 8.80415 18.8048 8.58263C18.6884 8.29873 19.3493 8.15888 19.3147 7.99931C19.1847 7.48431 18.5919 7.57661 18.1097 7.27258C18.2288 7.54011 18.3133 7.90703 19.2482 8.28765C20.0116 8.61581 21.2375 8.4504 21.8198 8.05296C22.087 7.89457 22.2828 7.72496 22.4306 7.57415C22.5638 7.43658 22.6395 7.33833 22.712 7.23776C22.9663 6.86425 22.9891 6.73326 23.0323 6.61578C23.1046 6.34291 22.9333 6.37104 22.8013 6.31325C22.661 6.27425 22.5167 6.24697 22.4919 6.22795C22.0682 6.03531 22.1118 6.31769 22.3126 6.44842C22.5069 6.60529 22.8242 6.74264 22.8334 6.79348C23.0184 7.67119 22.4296 8.37511 22.0766 9.15436C21.9132 9.56851 21.7862 9.97606 21.7964 10.4366C21.8012 10.6135 22.5087 10.2914 22.4803 10.7872C22.4274 11.6964 22.3224 12.5654 22.2453 13.3219C22.11 14.674 21.9829 15.9851 21.9664 17.1824C21.9498 17.6449 21.979 18.1566 22.0402 18.7098C22.052 18.8252 22.0643 18.9384 22.0779 19.0516C22.1304 19.445 21.5667 19.3559 21.5156 19.3976C20.7596 20.1456 22.084 19.9437 22.1782 20.0389C22.7009 20.6288 22.6534 21.5161 23.1567 22.0098C23.3788 22.2263 23.7091 22.364 24.2431 22.3559C25.0112 24.214 26.0352 25.975 27.0476 27.7769C27.685 28.901 28.4955 30.4302 28.8582 31.1746C28.841 31.1499 28.8196 31.119 28.7774 31.0646C28.7285 31.0063 28.6901 30.9407 28.4816 30.7467C28.3599 30.6493 28.2372 30.4974 27.7323 30.282C27.5536 30.1978 26.4814 29.8435 25.4687 30.5081C24.4821 31.192 24.4008 32.0068 24.3523 32.3249C24.3093 33.0152 24.4045 33.1014 24.4258 33.2433C24.4584 33.3604 24.4795 33.4153 24.496 33.4601C24.5429 33.5813 24.5482 33.5864 24.562 33.6179C24.5844 33.6656 24.5829 33.6611 24.5891 33.6735C24.5977 33.6898 24.5979 33.689 24.599 33.6903C24.6001 33.6906 24.597 33.6828 24.5937 33.6748C24.5864 33.6574 24.5769 33.6361 24.5658 33.6121C24.5448 33.5658 24.5219 33.5166 24.4978 33.4653C24.4504 33.3641 24.4004 33.2582 24.3509 33.1524C24.2516 32.9408 24.1509 32.7243 24.052 32.5064C23.8543 32.0711 23.6612 31.6261 23.4792 31.174C23.2083 30.4902 22.9447 29.7796 22.7105 29.0446C22.6892 28.9827 23.2853 28.7299 23.2398 28.607C22.6854 27.122 22.0181 27.9143 20.4583 27.7924C20.0697 27.7664 20.8112 26.2938 20.8537 26.172C21.0248 25.7369 21.9433 25.3866 21.9553 25.2734C21.9593 25.2178 21.9541 25.1725 21.9407 25.1363C21.7274 24.5693 19.5414 26.2678 19.0183 25.5878C19.0047 25.5617 19.5358 25.3053 19.5338 25.2087C19.5281 24.9065 19.1993 24.8579 19.2081 24.5482C19.2323 23.8379 20.2937 22.7231 19.0694 22.6251C18.9122 22.6157 17.6406 23.8659 17.1748 23.1724C17.0445 22.976 16.5148 22.3576 16.1522 21.884C16.0093 21.6961 15.8963 21.5358 15.8482 21.4317C15.6817 21.0737 16.2793 20.8815 16.2804 20.8455C16.1317 19.5752 16.6524 19.6662 16.9773 18.4393C17.2075 17.1765 15.6923 19.391 15.3308 19.4842C15.31 19.4894 15.2894 19.4909 15.2688 19.489C14.9351 19.4652 14.6905 18.5618 14.6608 18.2828C14.632 17.9883 15.0524 17.8496 14.9822 17.6423C14.4968 16.2748 13.7711 18.3894 13.2141 18.5043C12.4678 18.6732 12.3759 18.1172 12.4376 17.6124C12.5142 17.2443 12.2574 16.7396 11.9587 16.5958C11.7603 16.5021 11.8417 16.9773 11.6532 16.9842C10.9218 17.0194 10.4991 16.3565 9.59658 16.883C9.52791 16.9244 9.32378 17.2099 9.09447 17.408C8.86669 17.626 8.66221 17.7437 8.43363 17.3083C8.36615 17.1898 8.47509 16.6788 8.17554 16.6056C7.98071 16.5605 7.72254 16.5477 7.47927 16.5956C7.35881 16.6188 7.2426 16.6569 7.14245 16.7083C7.09208 16.7341 7.04662 16.7625 7.00167 16.796C6.93927 16.8378 6.9692 16.841 6.76101 16.9686C6.83955 16.9293 6.94831 16.8627 7.05158 16.7311C7.15149 16.6137 7.24179 16.3725 7.23027 16.1879C7.22795 16.0948 7.21088 16.0148 7.19034 15.9504C7.17514 15.9029 7.16021 15.8681 7.1445 15.8357C7.11325 15.7719 7.08334 15.7285 7.05825 15.6952C6.97915 15.5947 6.94988 15.5784 6.93573 15.5628C6.90249 15.5326 6.90635 15.5324 6.90935 15.5287C6.91915 15.5247 6.94841 15.53 6.97634 15.5322C7.34509 15.5801 7.32204 14.6662 7.63966 15.0968C7.79496 15.2933 7.21539 15.5478 7.53019 15.8833C7.84746 16.2176 8.87091 16.6695 9.26107 16.8434C9.65053 17.0144 9.71219 16.3596 9.7612 16.3372C9.80616 16.3186 9.86494 16.3052 9.93306 16.2964C10.361 16.2656 11.0739 16.4515 11.1286 16.4912C12.0436 17.0574 12.7319 17.684 13.3827 18.29C14.4545 19.2924 15.4059 20.3449 16.4138 21.3596C17.0323 21.9691 17.7774 22.746 18.3676 23.4314C18.5641 23.651 18.7613 23.8648 18.9646 24.0736C19.1593 24.2753 19.5506 23.7248 19.5855 23.7514C20.3945 24.3318 18.5741 24.8154 18.529 25.6905C19.5049 24.7999 19.56 25.2548 20.0823 25.6879C20.3352 25.8963 20.6295 25.4444 20.6887 25.4353C21.1612 25.3802 21.2248 25.5934 21.1613 25.8346C21.0982 26.0468 20.9367 26.2891 20.8848 26.38C20.4885 27.0881 21.3726 26.7491 21.1266 27.2254C20.8989 27.7146 20.0167 27.8577 20.4664 28.3209C20.9214 28.1122 21.5116 26.9514 21.9508 27.1149C22.4176 27.2807 22.8756 27.5872 23.3765 27.9918C23.9001 28.4602 25.0645 29.1215 26.0154 29.393C25.882 29.3902 25.747 29.3345 25.306 29.4917C24.9993 29.5945 24.5616 29.9994 24.4556 30.433C24.3592 30.7868 24.4005 30.9977 24.4329 31.1609C24.5273 31.5025 24.5555 31.4844 24.5971 31.5702C24.6352 31.6328 24.663 31.6684 24.6775 31.6868C24.7473 31.7725 24.7587 31.7738 24.7724 31.7849C24.7921 31.796 24.7835 31.7791 24.774 31.7635C24.7519 31.729 24.7124 31.6829 24.6736 31.6401C24.5933 31.5523 24.5055 31.468 24.4233 31.3965C23.5992 30.6949 23.1236 30.4494 22.6797 30.0949C22.576 30.0112 22.4626 29.9172 22.3381 29.8075C21.1958 28.8515 21.242 29.9177 20.2472 29.8986C19.2379 29.8877 20.585 28.0348 20.6669 27.5389C20.7392 27.083 20.4566 27.376 20.3762 27.1848C20.369 27.1679 20.3634 27.1472 20.3597 27.1218C20.3125 26.8091 20.7892 26.6624 20.4576 26.4046C20.1184 26.1397 18.7725 26.5216 18.464 26.9473C17.8012 27.8404 17.842 29.0576 17.0375 28.3301C16.9905 28.2874 17.378 27.8007 17.1868 27.6652C17.0787 27.5903 16.9685 27.5174 16.8508 27.4427C16.6522 27.2967 16.358 27.1456 16.0756 26.9953C15.1267 26.4829 13.7059 26.2305 12.4806 25.8231C12.3925 25.7937 12.3029 25.7646 12.2131 25.7358C11.9766 25.6607 12.2438 25.0209 12.1 24.9701C10.5568 24.4846 11.0767 25.6294 10.3323 26.8739C10.453 25.2937 9.99623 24.3038 8.894 24.308C8.85026 24.3083 8.80601 24.31 8.76131 24.3133C8.06323 24.3651 8.24647 25.0694 7.84502 25.6128C7.7242 25.7764 7.19507 25.3334 7.13587 25.6787C6.96714 26.8057 7.52681 27.9785 6.35602 27.6217C6.30462 27.6046 6.38482 26.9867 6.21161 26.9717C5.87601 26.9436 5.64858 27.0284 5.47687 27.1689C5.39254 27.239 5.32237 27.3232 5.27351 27.4122C5.24208 27.494 5.14111 27.619 5.33561 27.6383C5.44232 27.6013 5.56349 27.6059 5.91347 27.3184C6.08127 27.1704 6.38056 26.8444 6.49404 26.3058C6.55095 26.0433 6.54174 25.7502 6.49696 25.5351C6.45727 25.3335 6.39167 25.1658 6.32487 25.0326C6.06847 24.565 5.94152 24.5074 5.86481 24.4139C5.78564 24.3349 5.75443 24.3011 5.72955 24.2694C5.6504 24.1607 5.71228 24.1395 5.77154 24.1125C5.9022 24.0672 6.11035 24.0712 6.35433 24.1323C7.0027 24.2939 7.93296 24.9769 8.75019 25.5784C9.09334 25.8365 9.44645 26.0814 9.7589 26.2526C9.02231 27.9425 10.1506 27.9679 11.0787 26.9948C11.1686 27.0433 11.2592 27.0898 11.3522 27.1362C11.9161 27.4169 12.3895 27.6304 12.8131 27.9033C12.8704 27.9389 12.9255 27.9755 12.9782 28.0134C13.1824 28.1578 12.8389 28.5968 12.8463 28.6618C12.95 29.675 13.6976 28.6375 13.8578 28.6471C15.05 28.7608 15.8013 29.3936 16.7365 29.523C17.2168 29.5944 17.7146 29.5815 18.2612 29.3766C18.3237 29.3533 18.6172 28.1047 18.8805 29.0935C18.8983 29.1613 18.2902 29.6571 19.0196 29.8156C19.6183 29.9454 20.6246 30.5566 21.5785 30.4636C21.7778 30.4443 21.9742 30.3942 22.1609 30.3034C22.4259 30.179 23.1002 29.1763 23.5721 30.0076C23.6355 30.1205 23.5464 30.4849 23.6376 30.6931C23.9369 31.3563 24.1505 30.0673 24.4987 31.1769C24.8471 32.286 25.6584 33.1277 26.7416 32.3637C26.7658 32.3485 26.89 31.8682 27.0696 31.5664C27.1563 31.4245 27.2534 31.3221 27.3603 31.3256C27.4265 31.3278 27.4958 31.3327 27.5665 31.3385C27.5997 31.3414 27.6401 31.3442 27.6605 31.3469C27.6615 31.3475 27.6635 31.3475 27.6553 31.35C27.6497 31.3532 27.6512 31.3465 27.6054 31.3729C27.5932 31.3817 27.5819 31.3876 27.5593 31.4164C27.5179 31.4568 27.5138 31.5803 27.5511 31.6227C27.6174 31.7029 27.6033 31.6715 27.6199 31.6856C27.669 31.7048 27.6427 31.6912 27.6418 31.6912C27.6306 31.6862 27.6117 31.6804 27.5952 31.6751C27.4505 31.6317 27.2886 31.5851 27.1297 31.5354C26.8083 31.4346 26.4877 31.3299 26.2063 31.2961C25.9387 31.2645 26.0286 31.9193 25.981 31.9248C25.542 31.9571 25.1468 31.9531 24.7629 31.9236C23.5901 31.8405 22.5147 31.4735 21.05 31.402C20.9902 31.3992 20.9138 31.4239 20.8252 31.4645C20.3818 31.6637 19.677 32.26 19.0332 31.782C18.1736 31.1603 18.4431 27.9271 16.7669 28.9912C16.6865 29.043 16.6147 29.1473 16.5478 29.2877C16.0075 30.3328 15.9049 33.2432 14.3405 31.8322C14.0313 32.0055 13.7241 32.1502 13.3877 32.3754C12.4926 33.0493 11.8912 33.7746 11.239 34.4379C10.5637 35.1362 10.0689 35.9783 9.71011 36.7334C9.64244 36.8822 9.56314 37.032 9.46201 37.1902C9.44238 37.2556 9.72353 38.3981 9.46478 38.5207C9.2934 38.603 9.13227 38.5463 8.97533 38.4958C8.85458 38.503 8.76282 38.4772 8.68008 38.4618C8.60864 38.4361 8.49192 38.4671 8.51562 38.4181C8.50864 38.4244 8.50264 38.4306 8.49769 38.4368C8.45887 38.4881 8.46086 38.4887 8.44848 38.4803C8.46035 38.4968 8.53347 38.5095 8.59647 38.5072C8.72551 38.5042 8.86173 38.4739 8.9927 38.4363C9.25518 38.3594 9.50576 38.2473 9.75417 38.1311C10.2538 37.9005 10.7225 37.6344 11.3203 37.537C11.3937 37.5263 11.4591 37.5321 11.5131 37.551C11.7626 37.6618 11.7522 38.0517 12.1757 38.0461C12.6763 38.0399 12.9629 37.3188 13.663 37.605C14.1877 37.8219 14.8546 39.2104 15.632 39.2655C15.5552 38.671 15.5985 38.3197 15.7277 38.0726C15.9052 37.7334 16.2493 37.5879 16.6721 37.2699C16.8116 37.1637 16.5358 36.7188 16.5954 36.6438C16.8298 36.3288 17.198 36.6606 17.4144 36.3209C17.467 36.2391 17.3531 35.7671 17.3895 35.6736C17.5756 35.1748 18.0605 35.3037 18.4474 35.5192C18.657 35.6623 18.8451 35.8263 18.9123 35.8838C19.597 36.4392 19.6261 35.7504 20.0863 35.8648C20.57 35.9643 20.1514 36.5357 20.6641 36.4986C20.8252 36.4861 20.9857 36.4615 21.1402 36.4349C22.0555 36.265 23.0034 35.7888 23.7926 35.4515C24.1611 35.2913 23.6442 34.8137 23.6909 34.7771C24.0674 34.5099 24.5498 34.4649 24.8993 34.2929C25.1992 34.148 25.4096 33.8763 25.38 33.2549C26.862 35.6439 26.1425 33.7214 26.5704 33.0939C26.6557 32.9655 26.781 32.8926 26.9945 32.8992C27.0738 32.9126 28.0818 34.1583 27.7661 34.6041C27.676 34.7302 27.5373 34.8058 27.3832 34.8581C27.0582 34.963 26.6284 34.9637 26.377 35.3416C26.3032 35.4665 26.137 37.1151 26.0629 37.2349C26.0427 37.2716 26.0216 37.3035 26.0005 37.3307C25.899 37.8516 24.7965 35.961 24.7415 35.8477C23.7831 34.7447 23.6755 36.5436 23.5163 36.7341C22.9783 37.3864 22.3243 37.5726 21.763 37.8985C21.6208 37.9885 21.4464 38.1208 21.2623 38.3009C20.7781 38.7606 21.2106 40.2494 20.5866 40.4029C20.2194 40.4883 19.8825 40.4809 19.5786 40.4273C18.6197 40.0756 17.8488 39.0814 16.9307 40.8437C16.7156 41.2211 17.1375 42.3799 16.4074 42.1611C16.2562 42.1139 16.0583 42.004 15.8088 41.8069C15.7012 41.7409 14.6792 40.6438 14.2731 41.4465C14.2199 41.5484 14.2642 42.0387 14.1859 42.0868C13.6609 42.3991 13.2764 42.0305 12.7648 42.2531C12.4968 42.3714 12.2119 42.5175 12 42.6092C12.2811 42.5949 12.3281 42.5894 12.3611 42.5937C12.3897 42.597 12.3753 42.6059 12.3507 42.6141C12.2974 42.631 12.1891 42.6467 12.0667 42.6423C11.7504 42.6325 10.9815 41.9101 10.7245 41.7502C10.3584 41.5196 10.0945 41.703 9.74081 41.8694C9.5567 41.9528 9.36482 42.0322 9.05706 42.0453C8.71699 42.0245 8.44155 42.1123 7.30034 41.5509C6.81665 41.3062 6.14133 40.6632 5.94613 40.1446C5.72229 39.6187 5.77776 39.3366 5.84729 39.2426C5.99987 39.0538 6.32815 39.448 6.64235 39.5494C6.96651 39.661 7.10457 39.5677 7.06228 39.0674C7.04846 38.8043 7.10136 38.4784 7.2374 38.2459C7.29872 38.1502 7.37178 38.0622 7.44485 37.996C7.51091 37.9449 7.5788 37.9006 7.64822 37.8596C7.8031 37.659 7.85194 37.6658 7.89981 37.6346C7.94452 37.6137 7.973 37.6074 7.99848 37.6027C8.04838 37.5945 8.08206 37.5974 8.11394 37.6005C8.17612 37.6077 8.22628 37.6197 8.27205 37.6296C7.71908 36.6294 7.13586 35.5986 6.26171 34.8021C6.19774 34.6817 6.13435 34.5612 6.07124 34.441C6.9736 33.846 7.05085 33.8819 7.02683 33.9105C6.98451 33.9626 6.78169 34.1656 6.67468 34.3646C6.86783 34.3216 7.63737 33.2007 8.47048 32.2226C8.61671 32.0553 8.79053 31.8352 8.97801 31.5892C9.13808 31.3786 8.42906 31.1603 8.59788 30.9122C9.09407 30.248 9.66507 29.6739 11.1659 28.787C12.3364 28.1719 12.7888 28.1285 13.3423 27.8626C14.3254 27.4182 15.1006 26.5816 15.9441 26.1873C15.9854 26.1672 16.0297 26.1479 16.0725 26.1303C16.8977 27.4589 18.1472 26.7296 19.2079 26.7317C19.5766 26.7316 19.5993 27.1231 19.8707 27.2205C20.1811 27.3298 20.3443 27.2958 20.4293 27.1858C20.625 26.9332 20.3955 26.2795 20.5781 26.1213C21.733 25.1651 21.9849 28.0795 23.2782 27.9935C23.3363 27.9874 24.2397 26.4404 24.385 26.3518C25.2264 25.7533 24.4949 26.8977 24.9923 27.0392C25.0172 27.0464 25.0416 27.0537 25.0658 27.0612C25.9184 27.327 26.6077 27.7587 27.512 27.4472C27.564 27.4259 27.6329 27.3693 27.6992 27.2985C27.7625 27.2325 27.8379 27.1559 27.936 27.09C27.9859 27.0571 28.0391 27.0266 28.1161 27.0039C28.1572 26.993 28.1984 26.9831 28.2726 26.98C28.308 26.9783 28.3546 26.9785 28.4297 26.9851C28.4752 26.99 28.5097 26.9927 28.5979 27.0076C28.6966 27.0281 28.7544 27.0246 29.1379 27.1421C29.1913 27.1596 29.2189 27.1681 29.3161 27.2037C29.4234 27.2437 29.5526 27.2949 29.7258 27.3787C29.8995 27.4645 30.1169 27.5769 30.4201 27.7954C30.496 27.8506 30.5772 27.913 30.6644 27.9858C30.6988 28.014 30.9722 28.2428 31.2144 28.5299C31.6956 29.075 32.4002 30.2594 32.3132 31.772C32.2977 33.2234 31.219 34.5761 31.0777 34.676C30.7898 34.9831 30.5327 35.182 30.316 35.3319C29.8813 35.6257 29.5945 35.7412 29.3738 35.8304C29.2638 35.8732 29.1711 35.9049 29.0897 35.9307C29.0434 35.9454 29.0086 35.9559 28.9721 35.9666C28.9005 35.9874 28.8386 36.0036 28.7834 36.0173C28.3272 36.1211 28.3235 36.1062 28.2022 36.1267C28.047 36.1481 27.9835 36.1549 27.9302 36.1619C27.8236 36.1749 27.7734 36.181 27.7201 36.1851C27.6226 36.1927 27.5524 36.189 27.4847 36.1734C27.351 36.1419 27.2372 36.0618 27.1294 35.9144C27.1207 35.903 27.1135 35.8859 27.1075 35.8645C27.0649 35.7027 27.0859 35.2971 27.0356 35.2708C26.0129 34.773 25.9863 36.3899 25.3819 36.9334C24.776 37.4767 23.8678 36.3327 23.6952 36.003C23.2344 35.1524 24.0815 35.6597 24.1102 35.5775C24.4442 34.6122 23.7804 34.7635 23.2768 34.6595C23.2683 33.0701 22.5746 33.1313 22.7541 34.5564C22.7761 34.7126 23.1784 34.5831 23.2768 34.6595C22.7868 36.1568 21.9653 36.3489 21.202 34.9505C21.1808 34.9114 21.1598 34.8711 21.1389 34.8296C20.7847 34.1101 21.2446 33.3647 19.9957 33.52C19.4286 33.5841 19.5068 34.6962 18.9666 34.9255C17.9207 35.365 16.7997 34.5282 15.8351 34.2209C15.6083 34.1554 15.3784 34.1021 15.1503 34.0731C14.6203 34.0007 14.9789 34.7097 14.6013 34.674C13.5745 34.5628 13.0332 33.8742 12.2328 33.8193C12.1595 33.8145 12.096 34.4612 11.869 34.3831C11.3666 34.2134 10.9231 34.0187 10.4922 33.8088C9.7656 33.4785 9.09619 33.055 8.74337 32.8259C8.28418 32.5459 7.81045 32.2791 7.27142 32.0466C6.99924 31.929 6.63522 31.8273 6.19334 31.7024C5.52804 31.5261 4.7909 31.3727 4.29803 31.1408C4.06444 31.0312 3.82949 30.8982 3.53729 30.7248C3.38549 30.6349 3.23369 30.544 2.96039 30.3866C2.80589 30.2943 2.68521 30.2393 2.23098 29.9459C2.08996 29.8505 1.98396 29.7831 1.71176 29.5594C1.48132 29.3234 1.10745 29.1752 0.458519 27.9582C0.299175 27.6253 0.152404 27.2285 0.0658951 26.7294C-0.0326657 26.1706 -0.0253129 25.5132 0.119584 24.9029C0.399171 23.6963 1.09848 22.9132 1.48287 22.5634C2.31631 21.8445 2.64514 21.7939 2.95427 21.6529C3.48779 21.4702 3.60356 21.4808 3.78422 21.4507C3.94495 21.4309 4.06779 21.4244 4.18459 21.42C4.40917 21.4134 4.59752 21.4191 4.77604 21.4267C5.13176 21.4425 5.44494 21.4677 5.7422 21.4836C6.33502 21.5162 6.85714 21.514 7.30522 21.3987C8.1891 21.1754 7.93633 20.5704 8.28664 20.1117C8.35999 20.0136 8.4442 19.9431 8.53709 19.8956C9.34079 19.5027 10.6349 20.6564 10.813 20.8645C10.8131 20.869 9.93916 21.041 10.4152 21.3494C10.6979 22.0128 10.8006 20.8677 10.813 20.8645C10.9253 20.9837 12.2574 21.1116 13.0086 21.1712C13.104 21.175 13.1785 21.1714 13.2276 21.1589C13.4032 21.1135 13.3785 20.5125 13.4687 20.5001C14.8752 20.3805 15.7779 20.1688 18.1919 20.8482C18.4367 20.9259 18.653 20.9868 19.2151 21.2069C19.5979 21.3691 20.13 21.6121 20.6012 21.8714C20.6334 21.8971 20.3347 22.4935 20.4122 22.5456C21.016 22.9626 21.6198 23.0239 22.2694 23.0167C22.7417 22.9916 23.232 22.9114 23.7497 22.9218C24.8994 22.945 25.6758 23.5097 25.8635 24.9092C25.8635 24.9279 25.8632 24.9467 25.8628 24.9656C26.6741 25.2932 27.3653 26.3681 27.7872 27.073C28.0045 27.4299 28.3519 27.3918 28.7842 27.3941C28.9939 27.3909 29.2418 27.4124 29.5072 27.5298C29.7889 27.7038 30.1038 27.7889 30.6115 28.9052C30.772 29.3185 30.9957 29.9067 30.9942 30.9186C30.9724 31.4416 30.9616 31.9429 30.5675 32.9013C30.2013 33.7684 29.5058 34.58 28.8036 35.0593C27.1535 36.0652 26.8499 35.8577 26.3029 35.9737C25.8244 36.0154 25.4954 35.9896 25.2349 35.9616C22.9448 36.355 21.472 35.5691 18.9595 33.5198C18.8812 33.4445 18.8001 33.3683 18.7145 33.29C18.01 32.6953 16.1743 31.1235 15.4372 30.3401C15.4334 30.3366 15.4297 30.3331 15.4259 30.3296C14.8925 29.8349 14.8847 29.3308 14.3475 28.9619C14.2755 28.9123 13.8753 29.335 13.8421 29.3287C12.8788 29.2205 14.1863 28.605 14.2956 28.3379C14.6166 27.5694 14.7901 27.0518 14.4226 26.707C14.3304 26.6211 14.2056 26.5494 14.0503 26.5032C13.8366 26.4068 12.1919 27.6162 12.0047 27.6097C11.6942 27.5322 12.2662 27.0673 11.8223 26.918C11.7981 26.9089 11.6836 27.0357 11.5494 27.0883C11.4647 27.1225 11.3717 27.1264 11.2888 27.0464C10.4394 26.2359 9.53588 25.2426 8.5985 24.4783C8.4112 24.3267 8.22928 24.1854 8.05218 24.0576C7.89426 23.9418 7.65712 24.656 7.42701 24.5024C6.77632 24.0614 6.27282 23.7508 6.29286 23.6889C5.85688 23.4204 5.43426 23.129 5.02138 22.7956C4.75691 22.5808 5.15304 22.2154 5.14971 22.051C5.0941 21.0336 4.06042 22.0224 3.31806 21.626C3.18923 21.5541 3.05697 21.4916 2.69404 21.2331C2.59625 21.1617 2.49617 21.0863 2.35388 20.967C2.17915 20.8184 1.96699 20.6293 1.69306 20.3196C1.57397 20.1858 1.28881 19.8427 1.04147 19.4294C0.912357 19.2153 0.777024 18.9637 0.646469 18.659C0.581161 18.5063 0.518035 18.3426 0.457496 18.1592C0.370208 17.8942 0.291608 17.5964 0.234536 17.2649C-0.0582366 15.9947 0.364475 13.8518 1.19886 12.7385C2.00616 11.547 2.94389 10.9583 3.59583 10.6274C3.24236 10.8039 3.16872 10.857 3.1082 10.8883C3.05809 10.9158 3.05201 10.9162 3.05832 10.9082C3.0734 10.8908 3.13727 10.8418 3.20612 10.7916C3.34722 10.6888 3.52132 10.5732 3.69244 10.4692C4.03267 10.2616 4.38117 10.0852 4.70344 9.94484C5.35262 9.66259 5.94293 9.49696 6.4704 9.38996C7.53235 9.17952 8.3992 9.18372 9.17508 9.24175C10.0321 9.32697 10.8775 9.47379 11.8049 9.62872C12.2723 9.70767 12.7571 9.78729 13.3198 9.88543C13.9302 10.0145 14.3767 10.0026 15.737 10.5067C15.7782 10.5224 15.8224 10.5398 15.8654 10.5569C16.0904 10.6352 17.0578 10.7738 17.5863 10.8974C18.1554 11.0371 18.554 11.2704 18.4276 11.919C18.4143 12.0075 18.111 13.305 18.9716 12.9103C19.026 12.8861 19.1525 12.1911 19.5571 12.5803C19.7253 12.7426 19.9904 12.873 20.2527 13.0432C20.5071 13.1784 21.4901 14.0249 21.6191 14.7561C21.7382 15.1794 21.3234 16.4706 22.4687 16.454C22.4885 16.453 22.5088 16.4517 22.5298 16.4501C22.6086 16.4359 25.0146 15.8714 24.1092 17.1556C23.9594 17.3666 22.6835 18.3379 23.863 18.4756C24.0912 18.5024 24.1771 18.0423 24.6264 18.2385C25.3181 18.5406 25.5373 19.5014 26.6184 19.7325C26.8067 19.7688 28.064 19.6181 27.7128 20.5329C27.6571 20.6752 27.1357 20.871 27.2492 21.1253C27.2612 21.1524 27.2734 21.1793 27.2859 21.2061C27.8201 22.3605 28.8296 23.2286 29.2166 24.4757C29.3559 24.9259 28.5052 25.2065 28.563 25.7229C28.6225 26.2409 28.9276 27.1482 29.5243 27.376C29.6146 27.4105 29.7115 27.4133 29.8126 27.3946C30.379 27.2813 31.1005 26.5169 31.4907 26.9904C31.7662 27.3254 32.0204 27.6763 32.2602 28.0474C32.3796 28.2321 32.4964 28.4236 32.6133 28.6266C32.6718 28.7282 32.7301 28.8323 32.7921 28.9465C32.8238 29.005 32.8547 29.0627 32.8931 29.1356C32.912 29.1717 32.9328 29.2113 32.9604 29.265C32.9764 29.296 32.9883 29.319 33.0195 29.3805C33.0344 29.4103 33.0489 29.4384 33.0879 29.5185C33.108 29.561 33.121 29.5836 33.2014 29.7633C33.2207 29.8073 33.2436 29.8599 33.2732 29.932C33.3175 30.1145 33.266 29.6587 33.6599 31.2043C33.6793 31.7325 34.1282 32.163 33.455 34.7531C33.1333 35.9859 31.5614 38.4591 28.9683 39.2298C26.5141 40.0222 24.5468 39.194 24.1962 39.0569C23.0315 38.559 22.6379 38.1736 22.3058 37.9125C21.995 37.6469 21.8297 37.4711 21.6981 37.3307C21.2244 36.8026 21.1786 36.6915 21.0789 36.5587C20.4853 35.6523 20.4142 35.4053 20.2397 35.0521C20.0891 34.7244 19.9596 34.4187 19.8302 34.1074C19.5744 33.4894 19.329 32.8639 19.0716 32.2407C18.7955 31.5656 18.4858 30.8647 18.1354 30.1827C17.9341 29.7908 17.6842 30.3528 17.3557 29.79C16.7976 28.8324 15.9852 27.6153 15.2211 26.1919C14.4967 24.8353 13.7314 23.1039 13.55 21.3169C13.5235 20.9722 13.5207 20.6351 13.5448 20.3131C13.8148 17.652 15.097 20.6008 15.0601 18.7039C15.0616 18.4887 14.9697 18.2826 14.8287 18.0831C14.383 17.5303 13.405 17.0288 13.3575 16.8738C12.785 15.0438 13.4583 13.8785 13.48 12.4946C13.483 12.3898 13.4831 12.2855 13.4798 12.1817C13.4694 11.8553 12.7885 12.0995 12.7877 11.8232C12.781 10.8906 13.1796 10.1534 13.1915 9.5465C13.1945 9.27984 12.6954 9.27698 12.7536 9.06512C12.7939 8.91156 12.8419 8.77863 12.9021 8.66458C13.0496 8.16835 13.2759 7.69631 13.6336 7.17553C13.6808 7.10747 14.2646 7.62624 14.3282 7.03786C14.3659 6.69074 14.461 6.3171 14.567 5.86351C14.6212 5.6327 14.675 5.39148 14.7472 5.04565C14.7862 4.86431 14.8215 4.67554 14.9114 4.31978C14.9615 4.13746 15.0078 3.92327 15.1943 3.453C15.3096 3.19762 15.3899 2.91383 15.8905 2.20931C16.0313 2.0216 16.167 1.84984 16.423 1.5908C16.6961 1.31821 17.052 1.01551 17.5327 0.733263C18.5827 0.0262046 20.7722 -0.280584 22.1738 0.318722C23.9735 1.03736 24.6007 1.90654 25.1753 2.67382C25.2095 2.66506 25.2867 2.6859 25.4111 2.72667C25.6655 2.83427 26.5415 2.09267 26.4338 3.28255C26.4181 3.55563 25.1384 4.05557 26.7467 4.38509C26.7689 4.39048 26.8053 4.4012 26.8536 4.41779C27.5027 4.75354 29.297 5.53994 28.7226 6.59795C28.5622 6.90342 27.7312 7.80303 28.0506 8.14359C28.0986 8.19045 28.5791 7.74087 28.7687 8.06831C28.9051 8.30985 29.0289 8.56127 29.144 8.82067C29.2983 9.1083 29.6226 10.0402 29.7728 10.5812C29.9414 11.1579 30.0712 11.6179 30.2387 12.0625C30.3511 12.3581 30.8788 11.7778 31.0264 12.2238C31.0524 12.3031 31.076 12.3775 31.0998 12.4598C31.4342 13.586 31.5403 14.9685 31.559 16.0832C31.5651 16.5222 30.9966 16.3233 30.9464 16.3647C30.1285 17.0296 31.4106 17.098 31.5126 17.2509C32.1299 18.2064 31.6935 19.0947 32.0139 20.0594C32.0237 20.0895 32.0394 20.1123 32.0597 20.1292C32.2199 20.268 32.6623 20.0392 32.717 20.081C33.3248 20.5776 32.198 20.3156 32.1418 20.7052C31.9688 21.7335 32.251 23.2881 32.3037 24.7629C32.3283 25.2308 33.0245 24.7191 33.0369 25.1294C33.0372 25.137 33.0374 25.1446 33.0377 25.1522C33.0742 26.3776 33.069 27.3547 32.8533 28.9512C32.8022 29.2638 32.7461 29.5484 32.6909 29.786C32.6635 29.9012 32.636 30.012 32.6141 30.0537C32.6034 30.0676 32.5944 30.0842 32.5899 29.9592C32.5843 29.8655 32.5977 29.8566 32.5637 29.3146C32.5575 29.2348 32.5505 29.1538 32.5365 29.0311C32.5194 28.885 32.4957 28.7065 32.4468 28.46C32.405 28.2779 32.3139 27.7109 31.9224 26.8602C31.788 26.6126 31.2228 25.2006 29.4874 24.0135C28.6349 23.4293 27.3223 22.8738 25.8473 22.823C24.4072 22.7634 23.1767 23.1719 22.3666 23.5926C22.1603 23.6987 21.9747 23.807 21.8066 23.9139C21.7226 23.9675 21.643 24.0207 21.5673 24.0734C21.5046 24.1171 21.4761 24.1378 21.4324 24.1697C21.27 24.2886 21.127 24.4039 20.9992 24.514C20.7438 24.7344 20.5477 24.9336 20.3859 25.1116C20.0748 25.4524 19.8388 25.7929 19.7566 25.9171C19.5644 26.2063 19.4517 26.4148 19.3639 26.584C19.2164 26.8754 19.1721 26.9915 19.1175 27.1246C18.9858 27.4806 18.9738 27.5877 18.9566 27.6815C18.9439 27.7674 18.9473 27.8053 18.954 27.829C18.9687 27.8733 18.9991 27.8576 19.0307 27.8341C19.1172 27.7575 19.6336 27.8936 19.757 27.8913C19.8579 27.8854 19.9322 27.8718 19.9842 27.8544C20.049 28.1 20.0738 28.0412 20.0424 27.9469C20.013 27.8457 19.9381 27.6937 19.8492 27.5498C19.6714 27.2567 19.438 26.9919 19.3973 26.8905C18.9826 25.8426 19.5012 25.5352 19.5251 24.7353C19.5388 24.3066 19.5682 23.8761 19.6099 23.4471C19.8708 20.7515 20.558 18.0326 21.221 15.5715C21.3685 15.0296 21.5112 14.512 21.6717 13.9419C21.7469 13.6757 21.8253 13.4001 21.9408 13.0301C22.0474 12.6818 22.2571 12.085 22.433 11.7012C22.9911 10.6236 23.458 9.30333 25.1519 7.34678C25.3996 7.09835 25.7071 6.7687 26.2077 6.31692C26.7024 5.86609 27.3735 5.38249 27.8795 5.09163C28.2713 4.89036 28.7025 4.64154 29.2145 4.33291C29.4732 4.17752 29.7495 4.00786 30.098 3.80231C30.4771 3.59067 30.7774 3.37052 31.7624 2.95821C32.0044 2.86473 32.294 2.74942 32.8455 2.62907C33.3907 2.5389 34.2614 2.30551 35.8808 2.74609C37.5604 3.15879 39.1267 4.82557 39.5152 5.70441C39.9941 6.63086 40.0544 7.08458 40.1332 7.39964C40.4124 9.00412 40.2703 9.37883 40.2474 9.9663C40.2293 10.1787 40.2045 10.4305 40.1734 10.6842C40.122 11.0781 40.8831 10.7843 40.8428 11.1373C40.5856 13.0426 40.0851 14.4016 39.6 15.657C38.9514 17.2835 38.2994 18.7567 37.7429 20.3842C37.6637 20.6102 38.4166 20.5535 38.3086 20.9282C38.2463 21.1479 38.1655 21.3807 38.0666 21.6215C37.8194 22.2255 37.4552 22.8722 37.0825 23.3073C36.8319 23.6003 36.5199 22.9082 36.2803 23.204C35.8829 23.6887 35.5962 24.1505 35.3778 24.6872C35.2924 24.8968 35.2164 25.1204 35.1526 25.3489C35.0585 25.6929 35.8976 25.4688 35.7264 25.8949C35.2083 27.2049 34.7036 28.5575 34.0963 29.924C33.8692 30.4354 33.6271 30.9445 33.3993 31.3858C33.2874 31.6015 33.1766 31.8093 33.1078 31.9074C33.0746 31.9518 33.0527 31.9724 33.0649 31.8743C33.0714 31.753 33.1497 31.6048 33.212 30.7155C33.2075 30.7767 33.202 30.8529 33.1865 30.9939C33.1632 31.1538 33.1685 31.2919 33.0166 31.9292C32.8822 32.3023 32.9491 32.6682 32.0052 34.1651C31.4969 34.8333 30.4927 36.3792 27.6686 37.0474C24.6364 37.7212 22.0098 35.982 21.1977 35.0197C20.2767 34.0139 20.0517 33.4016 19.853 32.9832C19.674 32.5644 19.5963 32.2964 19.5377 32.0915C19.4265 31.6837 19.3988 31.4935 19.3714 31.335C19.2893 30.7816 19.304 30.7388 19.2932 30.6245C19.288 30.5335 19.2865 30.4882 19.2852 30.4503C19.281 30.3095 19.2821 30.3037 19.2818 30.2956C19.2816 30.2756 19.2816 30.2601 19.2816 30.2465C19.2816 30.2194 19.2817 30.1994 19.2819 30.1811C19.2822 30.1528 19.2825 30.1403 19.2829 30.1218C19.2838 30.0832 19.2845 30.0674 19.2854 30.0436C19.2873 29.996 19.2889 29.9687 19.2909 29.9344C19.2946 29.8743 19.2986 29.8216 19.3028 29.7725C19.3113 29.674 19.3203 29.5934 19.3303 29.5114C19.3499 29.3519 19.3725 29.2065 19.3976 29.0651C19.4479 28.7836 19.5092 28.5156 19.5824 28.2483C19.7294 27.7135 19.9249 27.1761 20.1951 26.6193C20.4732 26.1786 20.7775 25.7357 21.126 25.2767C21.319 25.0226 22.6636 25.4305 22.7589 24.7029C22.4471 24.4678 22.0492 24.2471 21.701 24.0227C21.8904 23.6639 22.104 23.2819 22.4259 22.806C22.9072 21.9464 24.6492 19.6858 26.3793 18.5272C28.7539 16.987 29.5016 16.7569 31.7356 15.9574C31.5012 16.0599 31.9822 15.8735 32.495 15.7136C33.0197 15.5496 33.5859 15.4201 34.0783 15.3405C35.0761 15.1799 35.8725 15.1572 36.6006 15.1572C37.7379 15.2004 38.4802 15.0889 40.7636 15.3963C41.2899 15.4933 40.5695 14.7387 41.3659 14.7812C41.381 14.7729 41.3979 14.7703 41.4176 14.7746C41.7361 14.8442 42.1764 14.904 42.6932 14.9715C42.8145 14.9889 42.936 15.0054 43.1822 15.0531C43.3193 15.0822 43.4431 15.0997 43.8549 15.2172C43.9595 15.2483 44.0967 15.2893 44.3153 15.3693C44.5597 15.4719 44.7667 15.5022 45.6006 15.9967C45.9968 16.3461 46.7216 16.3673 48.1301 18.7317C48.9446 20.1001 49.2424 22.8995 48.3235 24.7607C47.3372 26.7624 46.6932 27.0398 46.1205 27.5445C45.5024 27.9965 45.2607 28.0981 44.9865 28.2402C44.7307 28.366 44.4867 28.4634 44.3419 28.5169C44.0658 28.6194 43.8422 28.6835 43.6803 28.7264C43.1045 28.8712 42.9391 28.8782 42.772 28.9041C42.612 28.9248 42.5113 28.9339 42.4322 28.9409C42.2673 28.9548 42.1748 28.9592 42.0891 28.9633C41.9276 28.9705 41.8275 28.9721 41.7355 28.9735C40.3993 28.9874 39.1798 29.0056 38.5174 28.6648C38.5111 28.6625 38.5047 28.6602 38.4983 28.6579C38.3747 28.6148 38.1232 27.3311 37.7967 27.6287C37.7356 27.678 37.2618 28.0304 37.2636 28.3454C37.2667 28.3907 37.5833 28.9132 37.4585 28.9884C37.3793 29.0355 37.3006 29.0822 37.2218 29.1287C37.4721 28.9972 37.4255 29.0158 37.3995 29.0364C37.3617 29.062 37.286 29.1133 37.2004 29.1723C37.0276 29.2914 36.8106 29.4429 36.584 29.5993C36.1281 29.9141 35.6232 30.2544 35.1034 30.5846C34.8315 30.7533 34.7855 30.7192 34.7356 30.6663C34.6658 30.6546 34.2044 30.1993 34.1334 30.2084C34.0319 30.2347 33.8849 30.3728 33.7306 30.5576C33.0866 31.3381 32.5447 32.4326 31.8762 33.0182C31.7415 33.1543 31.5983 33.2814 31.4447 33.3968C30.5681 34.0486 29.8253 33.1319 28.6149 32.993C28.44 32.9785 28.1148 33.4583 27.5572 33.1494C26.1268 32.409 24.7847 31.2238 23.2466 30.4565C23.0782 30.38 22.9585 30.5852 22.7563 30.8385C22.6582 30.9577 22.5172 31.1506 22.4119 31.159C22.3024 31.1748 22.2807 30.8644 22.2155 30.5186C22.2411 30.3317 22.3848 29.5243 22.2042 29.2458C22.0872 29.038 21.4267 28.8682 21.3223 28.5298C21.2169 28.1938 21.8059 28.2817 21.7246 27.8206C21.6387 27.3591 20.9349 27.09 21.2157 26.4766ZM23.1216 33.0696C22.6441 32.248 21.6675 34.3096 22.7282 34.1083C22.7802 34.0949 23.1491 33.1104 23.1216 33.0696ZM9.14464 34.3111C10.4164 34.209 9.66211 32.8193 8.63568 32.8719C7.5822 32.9879 8.74974 34.3616 9.14464 34.3111ZM11.7638 39.4898C11.7397 39.469 11.7166 39.4515 11.6947 39.4371C11.7451 39.2898 11.5551 39.4162 11.5476 39.6241C11.5168 39.8356 11.5522 40.1447 11.6301 40.4386C11.7069 40.7329 11.8304 41.0109 11.9408 41.1735C11.9964 41.2547 12.049 41.3073 12.0739 41.323C12.0832 41.3392 12.142 41.3176 11.8743 41.27C11.8732 41.2698 11.8721 41.2695 11.871 41.2691C11.9015 41.2036 11.8119 39.5312 11.7638 39.4898ZM29.6501 30.773C29.6198 30.7632 29.362 31.1049 29.3831 31.1288C29.8696 31.7059 30.3742 31.037 29.6501 30.773ZM19.1512 37.538C19.0713 37.4652 18.9809 37.4359 18.8898 37.4387C18.5705 37.4419 18.2619 37.937 18.6115 38.2943C18.7612 38.4482 18.9514 38.419 19.0886 38.3011C19.3275 38.1282 19.431 37.7877 19.1512 37.538ZM12.164 15.5043C12.1668 15.538 12.4808 15.6408 12.5212 15.455C12.6468 14.8469 12.1233 14.9123 12.164 15.5043ZM29.9064 30.6467C29.8868 30.6785 29.8662 30.7097 29.8448 30.7401C29.7146 30.8596 29.3716 31.3702 28.9918 31.5562C28.6089 31.7707 28.1991 31.7882 27.8818 31.6971C27.5621 31.6062 27.3275 31.4186 27.2114 31.2275C27.0985 31.0241 27.0796 30.878 27.2658 30.584C27.4241 30.3339 27.8262 31.4502 28.1853 31.2203C28.5758 30.9227 28.2416 30.5601 28.3132 29.8618C28.2708 29.6541 28.2323 29.4745 28.343 29.2887C28.3492 29.2724 28.3736 29.2264 28.381 29.2106C28.5701 28.9102 28.7296 28.8628 28.968 28.8242C29.1008 28.8032 29.2858 29.3531 29.5232 29.8188C29.7803 30.18 29.9438 30.5985 29.9078 30.652C29.9073 30.6502 29.9069 30.6485 29.9064 30.6467ZM23.6621 30.3654C23.6601 30.3362 23.2633 30.1428 23.2428 30.1623C22.7003 30.7188 23.5928 31.1513 23.6621 30.3654ZM23.8601 29.6869C23.8208 29.7408 24.2957 30.6297 24.3599 30.6272C24.376 30.6251 24.3918 30.6228 24.4072 30.6202C24.6742 30.5804 24.8373 30.4632 24.92 30.3142C25.2216 29.7873 24.4844 28.8798 23.8601 29.6869ZM9.75632 26.3049C10.4955 25.8287 11.0934 25.9984 11.077 26.993C10.6477 26.7456 10.1944 26.5394 9.75632 26.3049Z" fill="var(--stroke-0, #AFC75E)"/>
</svg>
