<svg preserveAspectRatio="none" width="100%" height="100%" overflow="visible" style="display: block;" viewBox="0 0 48.285 41.7795" fill="none" xmlns="http://www.w3.org/2000/svg">
<path id="Vector 137" d="M20.8589 25.7861C20.8706 25.761 20.8825 25.7357 20.8946 25.7101C21.5191 24.5235 22.1986 23.6212 23.055 22.6264C23.3227 22.316 23.644 21.94 24.1157 21.4553C24.5879 20.9669 25.1491 20.4943 25.5036 20.2472C25.6888 20.1157 25.7995 20.0901 25.8921 20.0938C26.0992 20.1186 26.1946 20.3249 26.4381 20.1888C27.11 19.815 27.528 19.206 28.2837 18.8495C28.5371 18.7327 28.6647 19.4429 28.9187 19.3117C29.2174 19.157 29.5096 18.9871 29.8329 18.7913C30.1815 18.5858 30.437 18.4008 31.1762 18.013C32.1229 17.5465 33.0981 17.1302 34.1474 16.8967C34.5617 16.8046 34.9752 16.728 35.3855 16.666C37.6728 16.3386 39.3652 16.4615 41.0014 16.5403C41.0057 16.5433 41.0036 16.5458 40.958 16.5507C40.9325 16.5534 40.9006 16.556 40.8191 16.5641C40.7796 16.5683 40.7263 16.5736 40.6309 16.5864C40.5293 16.6031 40.4315 16.6058 40.0416 16.703C39.9332 16.7315 39.7792 16.7751 39.588 16.8452C39.4911 16.8805 39.3191 16.9481 39.1404 17.0347C38.9459 17.1342 38.7852 17.199 38.3443 17.515C37.9335 17.8735 37.4885 18.0417 36.758 19.4836C36.0768 20.8229 36.2978 22.8794 36.8971 23.8579C37.9203 25.5394 38.4232 25.5364 38.7034 25.782C39.2855 26.1215 39.4236 26.1392 39.5884 26.2074C39.7341 26.2597 39.823 26.2855 39.8886 26.3044C40.1464 26.3754 40.2 26.3791 40.2633 26.3914C40.3698 26.4089 40.388 26.4073 40.4055 26.4072C39.7797 26.2747 39.0946 26.1323 38.3268 25.9313C38.5209 25.9512 38.4069 25.9096 38.2814 25.8893C38.1458 25.8654 37.955 25.8447 37.7484 25.828C37.3314 25.7944 36.8465 25.7747 36.3478 25.759C36.0163 25.7398 35.7355 25.7428 35.5999 25.7441C35.5293 25.745 35.5106 25.7381 35.4732 25.7374C35.4256 25.7373 35.368 25.7593 34.7995 25.9483C34.2429 26.0562 32.7241 26.7617 32.4537 26.8939C32.2803 26.9975 32.1187 27.1101 31.9617 27.2381C31.8177 27.356 31.6628 27.479 31.4858 27.6394C31.2986 27.8122 31.1406 27.9612 30.773 28.4033C30.4969 28.5803 29.9362 29.4262 29.5982 30.1752C29.6356 30.0793 29.6553 30.0086 29.6717 29.9466C29.6799 29.9153 29.6871 29.8863 29.6947 29.8501C29.6986 29.8317 29.7025 29.8117 29.7067 29.7836C29.7088 29.7689 29.7109 29.7534 29.7132 29.7299C29.7144 29.7178 29.7156 29.7041 29.7168 29.6857C29.7175 29.6746 29.718 29.6664 29.7187 29.6482C29.719 29.6393 29.7193 29.6329 29.7197 29.6163C29.7198 29.6081 29.72 29.603 29.7201 29.5887C29.7202 29.5798 29.7202 29.5698 29.7202 29.5557C29.7202 29.5486 29.7202 29.5404 29.7201 29.5296C29.7199 29.526 29.7205 29.5206 29.718 29.4416C29.7173 29.4202 29.7164 29.3944 29.7133 29.342C29.7065 29.2749 29.7166 29.2551 29.6646 28.9235C29.6469 28.8285 29.6293 28.7123 29.5551 28.4622C29.5144 28.3326 29.4634 28.1682 29.3331 27.8973C29.1908 27.6374 29.0297 27.2274 28.3246 26.6194C27.7093 25.99 25.7783 25.4016 24.476 26.0203C23.2137 26.5699 22.8721 27.2328 22.64 27.5605C22.2291 28.2734 22.2411 28.4673 22.1788 28.6561C22.1021 28.9839 22.103 29.062 22.0909 29.1472C22.0825 29.2232 22.0795 29.2648 22.0769 29.2983C22.1596 28.3719 22.2854 28.1191 22.3534 27.8125C22.4562 27.428 21.8509 27.4612 21.8324 27.3749C21.5381 26.1619 22.4615 26.9285 22.8047 26.4834C23.1368 26.0705 23.4327 25.6633 23.7031 25.2335C24.5188 23.9347 25.1121 22.4581 25.5339 21.0598C25.7763 20.2606 24.4225 20.5869 25.333 20.0568C25.3334 20.0565 25.3339 20.0562 25.3344 20.0559C25.3534 20.0443 25.408 20.0762 25.4793 20.1211C25.6087 20.202 25.7932 20.3252 25.918 20.314C25.9533 20.3105 25.9839 20.2961 26.0072 20.2675C26.3473 19.8437 26.6773 18.883 26.883 18.5616C27.2819 17.9356 27.3209 17.8406 27.6018 17.2342C27.6446 17.1428 27.6906 17.0517 27.7405 16.9575C28.137 16.2095 28.7276 15.3784 28.9607 14.5005C29.0149 14.2891 28.3421 14.3202 28.3768 13.9631C28.4125 13.6059 28.8005 12.7858 29.0452 12.5577C29.2907 12.3294 29.6892 12.6252 29.8112 12.6158C30.1916 12.5895 30.3197 12.3723 30.3271 12.109C30.3363 11.6728 29.9806 11.1247 29.9845 11.0506C30.0657 10.1278 30.2052 9.54255 30.3305 8.92394C30.3425 8.89022 30.3518 8.87067 30.3618 8.89803C30.3761 8.93506 30.3692 8.97514 30.4433 9.29391C30.4816 9.42348 30.5064 9.63525 30.7667 10.1243C30.9751 10.5885 31.8541 11.491 32.7479 11.6968C33.6104 11.9212 34.0419 11.7929 34.2968 11.7496C34.5538 11.6899 34.6659 11.639 34.7507 11.6029C34.8785 11.5165 34.6961 11.5668 34.5446 11.6284C34.3797 11.694 34.1813 11.7879 33.975 11.8936C33.5604 12.1063 33.1113 12.3669 32.6457 12.6652C32.5669 12.7158 32.487 12.7673 32.4061 12.8196C32.3036 12.8904 32.3066 12.9009 32.2545 12.9645C32.2043 13.0271 32.0827 13.181 31.932 13.3814C31.8539 13.5304 31.5271 14.338 31.2132 15.1698C31.1814 15.2539 31.1798 15.2573 31.1527 15.3354C31.0073 15.7837 30.7673 16.6339 30.5542 17.3192C30.229 18.3847 29.9074 19.4361 29.7111 20.5991C29.676 20.8034 30.427 20.7049 30.3857 20.9541C30.1736 22.2391 29.9273 23.5238 29.6498 24.7432C29.5137 25.3412 29.3744 25.9259 29.2387 26.4838C29.1708 26.7638 29.1046 27.0317 29.0399 27.2989C29.0075 27.4331 28.9756 27.5655 28.9419 27.7224C28.905 27.8881 28.8822 28.042 28.8002 28.4782C28.7764 28.5681 28.7514 28.657 28.7252 28.746C28.6172 29.0998 28.0727 28.5376 27.9274 28.8715C27.8641 29.0162 27.7933 29.1671 27.7095 29.3382C27.6194 29.5201 27.5481 29.6701 27.3558 30.0338C27.3313 30.085 27.3077 30.1339 27.2587 30.2237C27.2281 30.2795 27.1905 30.3457 27.1319 30.4331C27.0851 30.4936 26.957 30.7252 26.5905 31.0077C26.4268 31.1485 25.6462 31.6263 24.74 31.4153C23.8798 31.2135 23.4942 30.7006 23.307 30.4179C23.2003 30.2461 23.1832 30.1968 23.1492 30.1247C23.1192 30.0574 23.0966 29.9981 23.0782 29.945C23.0416 29.8389 23.021 29.7568 23.0058 29.6878C22.9675 29.503 22.9637 29.3962 22.9612 29.3404C22.9566 29.1029 22.976 29.0565 22.9877 28.9823C23.0145 28.8505 23.0426 28.7714 23.0704 28.6879C23.1261 28.5275 23.1816 28.3875 23.2343 28.2487C23.3399 27.9719 23.4352 27.7045 23.5042 27.4423C23.7748 26.4381 23.5567 25.2434 21.9718 24.6832C21.9808 24.6105 21.9897 24.5361 21.9986 24.4622C22.0585 23.9771 22.1076 23.6628 22.168 23.1987C22.2295 22.7444 22.3103 22.2109 22.4927 21.7302C22.6862 21.2069 23.1967 21.3836 23.2211 21.1526C23.2285 21.0882 23.1945 20.9858 23.1 20.8249C23.0055 20.6614 22.4527 20.9907 22.3558 20.7396C21.9479 19.6835 21.916 18.4378 21.4048 17.4014C21.2994 17.1908 20.7817 17.3518 20.6745 17.3066C19.8033 16.9249 20.9097 15.8011 20.965 15.5909C21.1018 15.0556 21.1382 14.586 21.1168 14.1499C21.0749 13.3041 20.8063 12.5287 20.6247 11.9671C20.541 11.7118 19.9657 12.2592 19.8541 12.0073C19.8347 11.9621 19.8145 11.9144 19.7932 11.8631C19.41 10.9727 18.9364 9.85292 18.716 9.19131C18.6263 8.95483 18.5336 8.71641 18.3972 8.41055C18.2593 8.10637 18.9335 7.97662 18.8893 7.80804C18.7773 7.41809 18.416 7.32849 18.0398 7.17527C18.1185 7.46099 18.1519 7.85305 19.0029 8.27639C19.9962 8.75363 21.6179 8.16369 21.9328 7.78372C22.1954 7.5644 22.3011 7.43014 22.4058 7.29991C22.5091 7.16626 22.5657 7.07572 22.6119 7.00007C22.7926 6.68767 22.8103 6.60233 22.8446 6.51465C22.8932 6.36857 22.8791 6.35643 22.852 6.35546C22.7955 6.37839 22.2784 6.27447 22.2199 6.27252C21.2767 6.40619 22.5221 6.94895 22.5435 7.02882C22.7119 7.80874 22.2798 8.43166 21.933 9.09003C21.7016 9.59919 21.4883 10.0776 21.4981 10.6425C21.5021 10.8135 22.2106 10.5117 22.1802 10.9895C22.1312 11.76 22.0484 12.4985 21.9878 13.1445C21.8664 14.4537 21.7526 15.7223 21.7455 16.8735C21.7326 17.3127 21.764 17.8019 21.8275 18.3346C21.8504 18.5419 21.875 18.7415 21.9066 18.9491C21.971 19.3386 21.4051 19.2689 21.3554 19.3121C20.6215 20.0785 21.937 19.8379 22.0339 19.9324C22.4766 20.4106 22.5229 21.087 22.8114 21.5827C23.0254 21.9494 23.3736 22.2119 24.1143 22.1892C24.8313 23.8929 25.7642 25.507 26.7011 27.1547C27.0318 27.7379 27.3628 28.3241 27.6828 28.9109C27.843 29.2046 28.0017 29.501 28.1528 29.7881C28.2978 30.0654 28.4687 30.3856 28.4962 30.4448C28.4786 30.42 28.4568 30.3889 28.4139 30.3343C28.3645 30.2759 28.325 30.2098 28.1159 30.0172C27.9945 29.9205 27.87 29.7707 27.374 29.5584C27.2157 29.4867 26.1804 29.1136 25.1463 29.7473C24.1258 30.4081 24.0129 31.2681 23.9641 31.5967C23.9151 32.3148 24.0161 32.4012 24.0377 32.5473C24.0714 32.6675 24.0933 32.7234 24.1102 32.7692C24.1586 32.8929 24.1639 32.8978 24.1782 32.9299C24.2011 32.9784 24.1996 32.9739 24.2061 32.9866C24.2149 33.0035 24.2151 33.0029 24.2163 33.0045C24.2176 33.0054 24.2145 32.9981 24.2113 32.9906C24.2041 32.9743 24.1945 32.9538 24.1835 32.9307C24.1624 32.8864 24.1394 32.8389 24.1153 32.7895C24.0678 32.6918 24.0175 32.5895 23.9676 32.4874C23.8678 32.283 23.7663 32.0738 23.6663 31.8633C23.4666 31.4428 23.2706 31.0131 23.0849 30.5767C22.7575 29.7961 22.4385 28.9794 22.162 28.1295C22.1406 28.0687 22.7325 27.8073 22.6869 27.6868C22.1337 26.2359 21.4719 27.0302 19.924 26.9458C19.6563 26.9328 19.9273 26.2355 20.1293 25.7593C20.2213 25.5459 20.2999 25.3776 20.3142 25.3411C20.483 24.9084 21.3931 24.541 21.4046 24.4292C21.4616 23.5108 19.0441 25.5076 18.4901 24.8046C18.4766 24.779 19.0033 24.5146 19.0009 24.4192C18.9947 24.1209 18.6683 24.0798 18.6766 23.7736C18.6995 23.0713 19.752 21.9491 18.5377 21.8771C18.3826 21.8719 17.1201 23.1307 16.6596 22.4567C16.5589 22.3082 16.2237 21.9159 15.911 21.5344C15.6624 21.2295 15.438 20.9502 15.3699 20.8027C15.2181 20.4765 15.7909 20.2468 15.7931 20.213C15.666 19.0217 16.1422 19.0524 16.406 17.82C16.4478 17.5942 16.4324 17.4849 16.3778 17.4571C16.1272 17.3284 15.0796 18.8237 14.7848 18.9048C14.4273 19.0049 14.1596 18.021 14.1305 17.7305C14.099 17.437 14.5154 17.2916 14.4457 17.0874C13.9628 15.7433 13.2549 17.8591 12.7195 17.9981C12.2245 18.1374 12.0702 17.9608 12.1145 17.7185C12.2207 17.351 11.8576 16.453 11.431 16.2698C11.2294 16.1843 11.3289 16.6558 11.141 16.6699C10.4107 16.7312 9.98293 16.0792 9.10847 16.6256C9.08554 16.6403 9.04751 16.6841 8.9982 16.7434C8.74177 17.0462 8.42096 17.7726 8.06788 17.0979C7.99648 16.9838 8.06034 16.4677 7.77393 16.4129C7.63062 16.3872 7.45329 16.3837 7.28035 16.415C7.19449 16.4303 7.10883 16.4546 7.03005 16.4872C6.99059 16.5035 6.95194 16.5223 6.91147 16.5453C6.85694 16.5746 6.87376 16.5751 6.68534 16.6785C6.78498 16.6285 6.95413 16.5231 7.06486 16.2877C7.19461 16.0314 7.11881 15.7073 7.07754 15.6317C6.98592 15.4319 6.92673 15.4016 6.90173 15.3706C6.83819 15.3112 6.83543 15.3143 6.82484 15.3052C6.81166 15.2952 6.82408 15.3017 6.83708 15.3067C6.86642 15.319 6.9086 15.3349 6.95309 15.3495C7.04118 15.3782 7.13704 15.4015 7.22626 15.4133C7.63561 15.4676 7.56004 14.5399 7.91204 14.9779C8.07169 15.1743 7.49144 15.432 7.80936 15.7656C8.11789 16.0884 9.07672 16.5171 9.47907 16.6978C9.49011 16.7027 9.50076 16.7075 9.511 16.7121C9.91985 16.9014 9.99038 16.2475 10.0409 16.226C10.3686 16.1177 11.3114 16.3591 11.3691 16.4071C12.1029 16.8835 12.6915 17.394 13.2463 17.8967C14.3137 18.8655 15.2505 19.8952 16.2318 20.8961C16.8348 21.4983 17.563 22.2716 18.128 22.951C18.4001 23.2656 18.6729 23.5681 18.9613 23.8619C19.1521 24.0578 19.5451 23.5101 19.5794 23.5358C20.3749 24.0951 18.5675 24.5985 18.5167 25.4627C19.4905 24.5698 19.5418 25.0181 20.057 25.4359C20.3058 25.6359 20.6002 25.1858 20.6588 25.1756C20.809 25.1543 20.9185 25.163 20.993 25.1892C21.3438 25.2987 20.9227 25.9127 20.8372 26.0744C20.4554 26.7865 21.3218 26.4109 21.0892 26.8916C20.8762 27.3854 20.0073 27.5681 20.4642 28.0051C20.909 27.7777 21.4619 26.6014 21.9012 26.7435C22.2815 26.8607 22.6612 27.0765 23.0642 27.3654C23.5845 27.7451 24.6783 28.3754 25.6648 28.6732C25.5731 28.6644 25.4488 28.6522 25.2404 28.6865C25.1302 28.7122 25.0408 28.7086 24.7476 28.8639C24.4897 29.0024 24.2002 29.3094 24.0815 29.6406C23.883 30.2469 24.0198 30.4976 24.0688 30.6853C24.132 30.8514 24.1517 30.8722 24.1857 30.9337C24.3115 31.1305 24.3211 31.1143 24.3497 31.148C24.3921 31.1868 24.3949 31.1805 24.3968 31.1763C24.3964 31.1629 24.3753 31.1325 24.3508 31.101C24.3024 31.0383 24.2389 30.9683 24.1782 30.9042C24.0541 30.7738 23.9277 30.6558 23.8124 30.5605C23.1516 30.0197 22.7177 29.766 22.3529 29.5124C22.1621 29.3793 21.9678 29.24 21.7408 29.0498C20.5909 28.122 20.6539 29.1832 19.6685 29.1814C18.6727 29.1869 19.9963 27.3182 20.0752 26.8224C20.0863 26.7515 20.0888 26.6988 20.0848 26.6596C20.0602 26.4246 19.8093 26.6778 19.7696 26.4124C19.7208 26.1021 20.187 25.9442 19.8602 25.6956C19.5268 25.4409 18.2087 25.8484 17.9073 26.2779C17.2578 27.1789 17.3114 28.3976 16.5013 27.6762C16.4528 27.6332 16.8417 27.1463 16.6461 27.01C16.6312 27 16.6167 26.9903 16.6027 26.9807C16.4148 26.8304 16.1259 26.6746 15.8491 26.5214C14.9385 25.9991 13.5322 25.7505 12.3219 25.3711C12.1424 25.3146 11.9585 25.26 11.7728 25.2052C11.5382 25.1366 11.7851 24.4899 11.6431 24.4429C10.1281 23.9907 10.6563 25.1218 9.93838 26.3763C10.0253 24.9492 9.66931 24.0109 8.80048 23.8462C8.6663 23.8214 8.5332 23.8134 8.37876 23.825C7.69397 23.8768 7.87636 24.5809 7.48586 25.1243C7.36865 25.2879 6.8442 24.8459 6.79231 25.1908C6.63065 26.3185 7.18575 27.4888 6.04911 27.1349C5.99889 27.1181 6.0696 26.5001 5.90164 26.4858C5.64984 26.4649 5.4617 26.513 5.32462 26.6012C5.25542 26.6455 5.19871 26.7 5.16269 26.759C5.1353 26.8142 5.08196 26.8953 5.21614 26.9115C5.27296 26.8983 5.34052 26.8802 5.44722 26.8276C5.58214 26.7438 5.72777 26.7063 6.00863 26.3142C6.12894 26.134 6.24612 25.8681 6.27657 25.5594C6.30861 25.2513 6.24853 24.9817 6.18651 24.8064C6.03456 24.4144 5.92449 24.32 5.83855 24.2071C5.55163 23.8908 5.57917 23.9151 5.56117 23.8503C5.56213 23.7652 5.65274 23.7245 5.74791 23.6876C5.9472 23.6186 6.21246 23.5974 6.53954 23.6782C7.13624 23.8246 7.94067 24.3979 8.68344 24.9498C9.09056 25.2603 9.51546 25.5667 9.88236 25.7684C9.14669 27.4587 10.2554 27.4754 11.1744 26.4979C11.1913 26.5071 11.2085 26.5162 11.2257 26.5253C11.7659 26.8094 12.2384 27.0105 12.6719 27.2505C12.7997 27.3198 12.9211 27.3939 13.0344 27.4753C13.2348 27.6171 12.8963 28.0588 12.9035 28.1235C13.0047 29.1334 13.7374 28.0879 13.8948 28.0954C14.9814 28.1855 15.6771 28.7136 16.5198 28.8716C17.0543 28.9749 17.6027 28.9866 18.2161 28.7458C18.2783 28.7222 18.5612 27.4713 18.8212 28.457C18.8401 28.5249 18.2449 29.0258 18.9598 29.1776C19.5089 29.2934 20.4056 29.8287 21.2861 29.8143C21.5436 29.8104 21.7984 29.7595 22.0372 29.6394C22.2963 29.5132 22.9549 28.507 23.4195 29.3363C23.482 29.449 23.3954 29.8137 23.4854 30.0216C23.7801 30.6836 23.9863 29.3939 24.33 30.5023C24.6738 31.6103 25.4684 32.4497 26.529 31.6839C26.5446 31.6735 26.6067 31.4465 26.6981 31.2073C26.8057 30.9311 26.9566 30.6394 27.1296 30.6437C27.1789 30.6453 27.254 30.6472 27.2748 30.6509C27.2712 30.6524 27.2755 30.6498 27.2468 30.6602C27.2367 30.6644 27.2224 30.6695 27.198 30.6879C27.1822 30.7035 27.1833 30.6905 27.1442 30.7513C27.1097 30.8044 27.1169 30.9071 27.1476 30.9493C27.2439 31.0641 27.2244 31.0147 27.2433 31.0317C27.2682 31.0396 27.2586 31.0345 27.2568 31.0337C27.2492 31.0303 27.236 31.0263 27.2222 31.0222C27.1948 31.0142 27.1658 31.0061 27.1351 30.9977C27.0135 30.9641 26.8823 30.926 26.7511 30.8847C26.391 30.7702 26.0228 30.6407 25.7054 30.6054C25.4431 30.5767 25.5349 31.2304 25.4883 31.2364C25.1074 31.2693 24.7606 31.2732 24.4236 31.2553C23.2217 31.199 22.1447 30.8133 20.6568 30.7413C20.6238 30.7397 20.5857 30.7469 20.5431 30.7608C20.1301 30.8914 19.3694 31.6417 18.6829 31.1203C17.8387 30.4964 18.0899 27.2669 16.4536 28.3232C16.4021 28.3568 16.3543 28.4129 16.3102 28.4867C15.729 29.3718 15.6932 32.6358 14.0809 31.1546C13.8005 31.3143 13.5232 31.4507 13.2176 31.6574C12.3402 32.3232 11.7508 33.0292 11.1062 33.6722C10.4394 34.349 9.94293 35.168 9.58394 35.8934C9.50775 36.0546 9.41735 36.2166 9.29854 36.3906C9.27545 36.4557 9.52958 37.6003 9.29225 37.7103C9.16426 37.7707 9.04415 37.7431 8.92457 37.7034C8.7978 37.7182 8.70339 37.6905 8.61753 37.6681C8.54495 37.6327 8.418 37.6606 8.45303 37.5745C8.41985 37.5885 8.39746 37.6023 8.38812 37.6173C8.30957 37.5765 8.44427 37.6578 8.57638 37.6331C8.70591 37.6229 8.83974 37.5912 8.9664 37.5529C9.2227 37.4746 9.46917 37.3637 9.71172 37.2495C10.2042 37.0228 10.6525 36.7602 11.259 36.6742C11.2972 36.6698 11.3401 36.6696 11.3733 36.6749C11.6881 36.7406 11.6387 37.1993 12.0875 37.1946C12.578 37.19 12.8587 36.4692 13.5437 36.7565C14.058 36.974 14.7152 38.363 15.4785 38.4198C15.4078 37.8778 15.436 37.538 15.5367 37.2955C15.698 36.9068 16.0503 36.7652 16.4903 36.4297C16.6267 36.3243 16.355 35.8783 16.4131 35.8037C16.6421 35.4904 17.0042 35.8243 17.2156 35.4865C17.2671 35.4052 17.1543 34.9329 17.19 34.8398C17.3671 34.3558 17.8236 34.4689 18.1984 34.6767C18.4145 34.8246 18.6117 35.0011 18.6809 35.0612C19.3548 35.62 19.3798 34.9333 19.8327 35.0518C20.3087 35.1561 19.8999 35.721 20.4031 35.6899C20.5564 35.6797 20.709 35.6585 20.8561 35.635C21.7591 35.4786 22.6946 35.0122 23.4732 34.684C23.8346 34.5289 23.3252 34.0467 23.3709 34.0107C23.7405 33.7486 24.2155 33.7101 24.5581 33.5415C24.8511 33.3999 25.0562 33.1311 25.0253 32.5124C26.4949 34.9233 25.7681 32.9673 26.2004 32.3572C26.284 32.2361 26.406 32.169 26.611 32.179C26.6889 32.1939 27.6832 33.4495 27.3724 33.8881C27.2863 34.009 27.1547 34.0817 27.0081 34.1314C26.6878 34.2351 26.2589 34.2267 26.0104 34.6045C25.9382 34.7281 25.7793 36.3707 25.7069 36.4895C25.6877 36.5249 25.6675 36.5559 25.6474 36.5824C25.5536 37.1053 24.4611 35.2041 24.4068 35.0904C23.4618 33.9794 23.3615 35.771 23.2062 35.9587C22.6755 36.6073 22.0278 36.7829 21.4746 37.1061C21.3393 37.1927 21.1737 37.3196 20.9987 37.4927C20.5271 37.9449 20.9585 39.4343 20.346 39.5832C19.9709 39.6696 19.6269 39.6566 19.3185 39.5958C18.3906 39.229 17.6409 38.2607 16.7568 40.0013C16.5424 40.3868 16.9871 41.5971 16.1938 41.2957C16.0532 41.2402 15.8763 41.1341 15.6602 40.9606C15.5539 40.8943 14.5476 39.7959 14.1499 40.5982C14.0983 40.7 14.1426 41.1902 14.0655 41.2383C13.5501 41.55 13.1715 41.1811 12.6662 41.4028C12.3841 41.5283 12.0804 41.6853 11.8583 41.7743C12.3311 41.7431 12.2282 41.7544 12.2167 41.7642C12.1762 41.7747 12.0863 41.7837 11.9791 41.7773C11.6828 41.7596 10.9312 41.0306 10.6825 40.8683C10.3266 40.6349 10.0739 40.8147 9.7509 40.9779C9.4003 41.127 9.11335 41.3359 8.10252 40.8886C7.83679 40.7717 7.59824 40.6189 7.40656 40.4475C7.22758 40.2795 7.171 40.1311 7.19946 40.0283C7.26128 39.8249 7.5828 39.728 7.72548 39.5445C7.87545 39.3612 7.91844 39.1799 7.70612 38.8691C7.63727 38.7785 7.54094 38.6679 7.43709 38.4958C7.33137 38.3316 7.21233 38.0238 7.22989 37.7822C7.27595 37.2415 7.50272 37.1573 7.63723 37.043C7.84024 36.7957 7.86211 36.8488 7.91275 36.8157C7.95471 36.8011 7.98185 36.7981 8.0069 36.7959C8.05564 36.7925 8.0919 36.7963 8.12647 36.7995C7.5486 35.6596 6.96823 34.4754 6.16333 33.4596C6.11223 33.4922 6.04494 33.5361 5.94991 33.6057C6.88815 32.9855 6.96766 33.0303 6.94593 33.057C6.90483 33.1092 6.69507 33.3151 6.58133 33.522C6.76199 33.4988 7.5257 32.3989 8.34741 31.4381C8.4761 31.2909 8.62802 31.0999 8.79145 30.8863C8.94574 30.684 8.24405 30.4556 8.40605 30.2168C8.90614 29.5488 9.4808 28.9814 11.0232 28.0708C12.1091 27.4994 12.5489 27.4383 13.0634 27.19C14.0853 26.7244 14.8665 25.8442 15.7308 25.4756C15.742 25.4707 15.7534 25.4658 15.765 25.461C16.5741 26.7933 17.7966 26.0691 18.8322 26.0725C19.192 26.0728 19.2164 26.4642 19.4818 26.5617C20.1636 26.8098 20.12 26.3193 20.0991 25.9038C20.0895 25.7103 20.0855 25.5345 20.1674 25.4622C21.2967 24.5036 21.5574 27.4175 22.8229 27.3264C22.88 27.3202 23.7563 25.7685 23.8967 25.6787C24.7123 25.0743 24.0074 26.2241 24.4911 26.3615C24.5696 26.3842 24.6461 26.4084 24.7204 26.4334C25.4796 26.6919 26.1146 27.0394 27.0003 26.7515C27.0872 26.7193 27.2224 26.6033 27.3357 26.4831C27.3944 26.4216 27.4618 26.3609 27.5436 26.314C27.6414 26.2698 27.6725 26.2256 27.9537 26.2459C27.9973 26.2502 28.0517 26.2562 28.152 26.2732C28.2073 26.2829 28.2859 26.2971 28.412 26.3272C28.4995 26.3486 28.6075 26.3757 28.7773 26.4313C28.8419 26.4537 29.0055 26.5032 29.2929 26.6363C29.4363 26.704 29.6106 26.7917 29.8418 26.9401C29.9575 27.0149 30.0878 27.1056 30.2361 27.2247C30.2683 27.2541 30.8377 27.6819 31.2811 28.4103C31.75 29.1222 32.1595 30.4902 31.8813 31.7569C31.6762 32.9775 30.7619 34 30.6838 34.0591C30.1779 34.579 29.7884 34.7969 29.4999 34.9557C28.9312 35.2495 28.6317 35.3046 28.5629 35.3297C28.3252 35.395 28.1866 35.4189 28.0751 35.4383C27.9255 35.4632 27.8395 35.4723 27.7714 35.4796C27.6656 35.4904 27.597 35.4943 27.5539 35.4962C27.3773 35.5028 27.3215 35.4915 27.2462 35.4733C27.1144 35.4355 27.0159 35.359 26.9191 35.2338C26.8473 35.1362 26.8809 34.6201 26.8225 34.5905C26.7908 34.5746 26.759 34.5609 26.7272 34.5493C25.819 34.197 25.7768 35.7292 25.206 36.2564C24.6141 36.801 23.7242 35.6601 23.5545 35.3311C23.1023 34.4823 23.9315 34.9864 23.9593 34.9042C24.2841 33.9377 23.6345 34.0911 23.1423 33.9893C23.1301 32.4 22.4516 32.4646 22.6312 33.8887C22.6529 34.0447 23.0461 33.9134 23.1423 33.9893C22.6541 35.5307 21.8205 35.6944 21.0556 34.1723C21.0067 34.0741 20.9736 33.9749 20.9492 33.8773C20.7975 33.2643 20.9834 32.7309 19.9286 32.8721C19.3727 32.9408 19.4539 34.0521 18.9245 34.2859C17.8226 34.7672 16.6401 33.7797 15.6326 33.5512C15.4997 33.5225 15.3661 33.5001 15.2319 33.4865C14.7116 33.4287 15.0764 34.1271 14.7037 34.1014C13.6779 34.0154 13.0973 33.324 12.304 33.2779C12.2309 33.2737 12.1735 33.9213 11.9444 33.8444C11.3595 33.6517 10.8565 33.4238 10.3692 33.1803C9.66058 32.8529 8.99863 32.4358 8.64842 32.2138C8.25697 31.9802 7.85019 31.7587 7.39887 31.5642C7.0823 31.4275 6.64225 31.317 6.11564 31.174C5.52743 31.0254 4.90972 30.8862 4.4913 30.6879C4.23483 30.5668 3.97437 30.4135 3.66699 30.223C3.50832 30.1252 3.3474 30.024 3.08873 29.871C2.94487 29.785 2.82002 29.7193 2.44049 29.4885C2.34214 29.4269 2.21703 29.3494 2.03061 29.215C1.94952 29.1558 1.81366 29.0549 1.66313 28.9243C1.58454 28.8559 1.51384 28.792 1.4083 28.6874C1.29317 28.5727 1.16628 28.4358 1.02932 28.2624C0.815549 27.9821 0.272027 27.2797 0.0879927 26.0941C-0.0161996 25.4343 0.0431113 24.6479 0.273296 23.9784C0.482574 23.3562 0.792777 22.8718 1.09619 22.5095C1.43689 22.1143 1.60132 21.9923 1.8179 21.8202C2.01717 21.6676 2.21559 21.5453 2.3504 21.4702C2.59768 21.3328 2.79679 21.2489 2.96501 21.1853C3.44304 21.0233 3.572 21.0244 3.73636 20.9974C3.88769 20.978 4.0018 20.9713 4.10821 20.9668C4.31958 20.9586 4.49244 20.9624 4.65502 20.9677C4.97723 20.9793 5.26337 20.9977 5.53002 21.0081C6.06464 21.0291 6.5328 21.0178 6.93751 20.9114C7.80745 20.6873 7.55687 20.0826 7.89919 19.6239C8.0492 19.4236 8.23261 19.3391 8.43953 19.3302C9.20421 19.292 10.1735 20.1854 10.3271 20.3619C10.328 20.3668 9.48741 20.5482 9.95067 20.8516C10.2326 21.5118 10.3154 20.3653 10.3271 20.3619C10.4462 20.492 12.2414 20.6534 12.7025 20.6065C12.8311 20.5828 12.8705 20.3847 12.9005 20.212C12.9218 20.0756 12.9387 19.9555 12.9779 19.9498C13.6713 19.8519 14.3725 19.8026 15.1234 19.8239C15.9196 19.8687 16.5277 19.8608 17.9628 20.3078C18.2012 20.3898 18.4117 20.4558 18.9642 20.6776C19.238 20.8031 19.6336 20.9874 19.9852 21.1775C20.0165 21.2024 19.7257 21.8025 19.8019 21.853C20.5296 22.351 21.2583 22.3029 22.0643 22.2489C22.3967 22.2112 22.7374 22.1663 23.0904 22.1648C24.2239 22.1588 24.9734 22.7123 25.0817 24.0825C25.2169 24.1344 25.3585 24.2079 25.5116 24.3058C26.1777 24.7374 26.7268 25.5892 27.0595 26.1488C27.4407 26.7986 28.373 25.9001 28.4616 25.9362C28.5809 25.9881 28.7066 26.0486 28.8939 26.1771C28.9937 26.2492 29.0879 26.3099 29.3188 26.5346C29.3775 26.5931 29.4308 26.6454 29.5364 26.7662C29.5854 26.8225 29.6391 26.8866 29.6991 26.9629C29.7568 27.0372 29.8271 27.127 29.9457 27.3075C30.0571 27.4794 30.1883 27.6947 30.3367 28.0216C30.4708 28.377 30.9697 29.2961 30.7363 31.0131C30.6677 31.8444 29.8972 33.5203 28.8697 34.2803C28.3688 34.693 27.8565 34.9608 27.4139 35.1325C27.1608 35.2288 27.0608 35.2558 26.9379 35.2919C26.8185 35.3257 26.705 35.3535 26.5971 35.3765C25.7342 35.5502 25.237 35.4944 24.868 35.4601C22.8041 35.6582 21.4677 34.935 18.8836 33.0367C18.8259 32.9904 18.7654 32.9415 18.7025 32.8899C17.9901 32.3232 16.2516 30.9446 15.4876 30.171C15.362 30.0537 15.2604 29.9383 15.1732 29.8252C14.8687 29.4269 14.7801 29.0422 14.3487 28.7512C14.2772 28.7029 13.878 29.1262 13.845 29.1204C12.8853 29.0207 14.1888 28.3982 14.2983 28.132C14.6853 27.2128 14.8558 26.6469 14.1302 26.3104C14.0995 26.2964 14.0681 26.2839 14.0349 26.2719C13.8247 26.1736 12.0575 27.2393 11.9305 27.2882C11.6927 27.2706 12.2592 26.8014 11.8797 26.7037C11.8429 26.6913 11.5673 27.0442 11.3771 26.8576C11.3501 26.8315 11.3242 26.8063 11.2959 26.7789C10.4247 25.9372 9.47271 24.8905 8.47951 24.1367C8.39398 24.0718 8.31004 24.0096 8.22652 23.9497C8.06282 23.8302 7.83557 24.5512 7.59535 24.3906C6.81679 23.8598 6.1916 23.4538 6.23508 23.365C5.91251 23.1524 5.599 22.9245 5.29631 22.6742C5.04825 22.4673 5.43359 22.0967 5.43371 21.9341C5.42809 20.9473 4.2904 21.8593 4.11802 21.804C3.99528 21.7709 3.86638 21.7328 3.66137 21.6485C3.5475 21.5993 3.44052 21.5562 3.18802 21.4169C3.12725 21.3831 3.0523 21.3401 2.94983 21.276C2.85125 21.2138 2.73512 21.1407 2.53327 20.9905C2.3616 20.8512 2.05375 20.6607 1.46886 19.9788C1.26526 19.732 1.02647 19.4161 0.771688 18.9488C0.645051 18.7148 0.515294 18.4415 0.395704 18.1161C0.280408 17.8167 0.0760403 17.1188 0.0295663 16.4423C-0.14805 15.0715 0.500926 13.0744 1.27045 12.159C2.06432 11.1113 2.9167 10.5899 3.53047 10.2819C3.17722 10.4573 3.10178 10.5118 3.04051 10.5444C2.98988 10.5731 2.98336 10.575 2.98951 10.5684C3.00441 10.5536 3.06828 10.5075 3.13769 10.4599C3.27929 10.3625 3.45493 10.2518 3.62565 10.1533C3.96722 9.95562 4.31582 9.7888 4.63693 9.65745C5.28447 9.39304 5.86902 9.2428 6.3928 9.14801C7.44573 8.96235 8.30207 8.98129 9.0733 9.04528C10.6655 9.25257 11.8136 9.3791 14.4545 9.8056C14.5782 9.83951 14.8664 9.73593 15.6916 9.92238C17.1626 10.2549 17.9214 10.4294 17.7997 11.3093C17.7947 11.4025 17.5234 12.7129 18.3782 12.3081C18.432 12.2832 18.552 11.5874 18.9595 11.9715C19.2118 12.2097 19.6655 12.3699 20.0151 12.6963C20.1608 12.8433 20.5969 13.3022 20.8108 13.8536C21.026 14.3351 20.7123 15.7523 21.9403 15.6762C21.9723 15.6727 22.3625 15.592 22.7712 15.566C23.4 15.5026 24.0863 15.5859 23.5352 16.3728C23.3856 16.5831 22.1223 17.5706 23.2903 17.6809C23.5162 17.7022 23.6024 17.2472 24.0474 17.4311C24.7323 17.7143 24.9496 18.6578 26.0202 18.8596C26.2068 18.891 27.4518 18.7119 27.1037 19.6193C27.0486 19.7605 26.5323 19.9666 26.6446 20.2134C26.7225 20.3858 26.812 20.5518 26.9094 20.7142C27.4661 21.645 28.2786 22.4223 28.6166 23.4884C28.7563 23.9296 27.9114 24.2239 27.9702 24.732C28.0299 25.2401 28.3358 26.1281 28.9268 26.3329C29.4998 26.5363 30.345 25.4395 30.8467 25.8892C30.8652 25.9051 30.8829 25.9231 30.9 25.9433C31.2182 26.3208 31.508 26.7205 31.7773 27.1424C31.9129 27.3552 32.0424 27.5717 32.1717 27.8016C32.2363 27.9167 32.3009 28.0351 32.3682 28.1624C32.403 28.2281 32.4371 28.2935 32.4773 28.3715C32.4985 28.4126 32.5186 28.452 32.5483 28.51C32.5623 28.5375 32.5802 28.5723 32.6059 28.623C32.624 28.6587 32.6305 28.6713 32.6711 28.7528C32.6967 28.8056 32.6907 28.79 32.7682 28.956C32.7863 28.9952 32.8076 29.0421 32.8355 29.1066C32.8495 29.1389 32.8653 29.1758 32.8836 29.2202C32.8927 29.2424 32.9026 29.2665 32.9132 29.2931C32.9243 29.322 32.929 29.329 32.9914 29.4977C33.0445 29.649 33.1144 29.83 33.2184 30.2504C33.269 30.4681 33.3336 30.7424 33.3819 31.2322C33.4052 31.7371 33.5333 32.4186 33.1013 33.9409C32.8664 34.6909 32.4193 35.7291 31.4299 36.7488C30.4655 37.7737 28.9048 38.5644 27.5688 38.7553C26.2191 38.9688 25.1864 38.7662 24.4762 38.5605C24.2756 38.5005 24.1845 38.4675 24.0895 38.4338C23.9945 38.3996 23.905 38.365 23.8203 38.3305C23.6509 38.2614 23.5008 38.1926 23.3655 38.1258C22.3147 37.5819 22.0008 37.2338 21.7158 36.9895C21.2111 36.5096 21.0957 36.3309 20.9675 36.1764C20.8537 36.0306 20.7931 35.9444 20.744 35.8747C20.1557 34.9735 20.0925 34.7308 19.9245 34.3833C19.7806 34.0612 19.6566 33.7616 19.5318 33.4569C19.2849 32.8522 19.0441 32.2423 18.7873 31.6369C18.5598 31.0949 18.3028 30.5325 18.0181 29.9844C17.8202 29.6032 17.5689 30.1584 17.2451 29.6117C16.6477 28.6007 15.7522 27.2942 14.949 25.776C14.2288 24.4112 13.4969 22.652 13.4142 20.9492C13.4115 20.7941 13.4145 20.6416 13.4237 20.4927C13.6367 17.9464 14.982 20.7029 14.8987 18.8912C14.8898 18.5119 14.5625 18.1642 14.1938 17.8378C13.7231 17.4832 13.1716 17.1809 13.1339 17.0691C12.4787 15.0984 13.274 13.8937 13.184 12.3851C13.1822 12.3511 13.1729 12.3235 13.1575 12.3011C13.0321 12.102 12.4905 12.2863 12.4886 12.0269C12.4785 11.0447 12.8827 10.2982 12.9017 9.67427C12.9081 9.39999 12.409 9.39343 12.4707 9.17281C12.5334 8.93946 12.6125 8.74841 12.7219 8.59239C12.8658 8.21164 13.0656 7.8404 13.3478 7.43936C13.3947 7.37349 13.9811 7.87753 14.0415 7.30615C14.0811 6.93264 14.1928 6.52438 14.3029 6.03999C14.359 5.79421 14.4123 5.53603 14.475 5.18284C14.5091 4.99733 14.5389 4.80253 14.6139 4.456C14.6601 4.26186 14.6916 4.07979 14.8549 3.61995C14.9532 3.37388 15.0392 3.08229 15.4479 2.44498C15.7156 2.07605 15.9687 1.62442 16.9589 0.921409C17.8231 0.197623 20.3307 -0.381415 21.8924 0.311241C23.6908 1.00523 24.3457 1.86212 24.9445 2.62717C24.9666 2.6153 24.9974 2.60862 25.0379 2.60656C25.1242 2.60506 25.4084 2.45218 25.6198 2.39472C25.8347 2.34269 25.9795 2.38508 25.9106 2.94789C25.8924 3.20747 24.6217 3.74162 26.2135 3.984C26.2866 3.99824 26.5176 4.06262 26.8103 4.19597C27.7 4.72765 28.7018 5.34607 28.2688 6.19461C28.1131 6.50211 27.2938 7.40919 27.6154 7.73842C27.6638 7.7837 28.1389 7.3305 28.3313 7.64982C28.5216 7.97365 28.6879 8.31509 28.8408 8.6705C28.9688 8.92353 29.2593 9.72499 29.4125 10.247C29.5774 10.7862 29.7022 11.2065 29.8562 11.6085C29.9709 11.9058 30.495 11.3211 30.6451 11.7664C30.6975 11.9231 30.7434 12.0757 30.7864 12.2389C31.0697 13.2997 31.1613 14.5454 31.1777 15.5643C31.1833 15.9944 30.6154 15.8031 30.5652 15.844C29.7472 16.5008 31.0283 16.5595 31.1301 16.7088C31.7458 17.6399 31.309 18.5146 31.6285 19.4519C31.7152 19.7134 32.2695 19.4227 32.331 19.4674C32.3911 19.5144 32.4341 19.5539 32.4628 19.5875C32.7261 19.9048 31.8068 19.7369 31.756 20.0791C31.5814 21.1023 31.8683 22.4827 31.9479 24.0336C31.9768 24.5285 32.6687 23.9791 32.6842 24.4158C32.6872 24.4971 32.6897 24.575 32.6919 24.6507C32.722 25.8516 32.7106 26.7988 32.4887 28.3695C32.436 28.675 32.3785 28.952 32.3218 29.1814C32.2938 29.2925 32.2656 29.3992 32.2432 29.436C32.2321 29.4473 32.2229 29.4616 32.2181 29.3322C32.2122 29.2358 32.2261 29.2264 32.1905 28.673C32.184 28.5908 32.1771 28.5121 32.1618 28.3816C32.1439 28.2324 32.119 28.05 32.0678 27.7982C32.0198 27.5934 31.9256 27.0218 31.509 26.1471C31.3239 25.8033 30.7074 24.3862 28.8768 23.2397C28.0019 22.684 26.5955 22.1863 25.1987 22.2064C23.8148 22.2096 22.6752 22.6266 21.915 23.037C21.0391 23.5341 20.9482 23.6695 20.6548 23.9038C20.4068 24.1184 20.2154 24.3126 20.0569 24.4865C19.8987 24.6605 19.7739 24.8146 19.6687 24.9526C19.5625 25.0919 19.4787 25.214 19.4398 25.272C19.2477 25.5583 19.1343 25.7656 19.0461 25.9341C18.898 26.2234 18.8525 26.3409 18.7972 26.4742C18.593 27.0397 18.6312 27.0754 18.624 27.1631C18.6291 27.228 18.6509 27.234 18.6748 27.229C18.7563 27.188 19.2745 27.3104 19.3967 27.3165C19.5651 27.3152 19.6596 27.2883 19.7 27.2542C19.7088 27.4825 19.6981 27.4445 19.6479 27.3708C19.5995 27.2919 19.5209 27.1629 19.4352 27.0416C19.2641 26.7937 19.0658 26.5672 19.0283 26.4755C18.6079 25.4362 19.1264 25.1234 19.1478 24.3325C19.1623 23.8634 19.1938 23.4053 19.2412 22.9408C19.5086 20.3024 20.189 17.6623 20.8427 15.2712C20.9833 14.7622 21.1198 14.2742 21.2719 13.7397C21.3477 13.4743 21.427 13.198 21.5436 12.8266C21.6503 12.4795 21.8661 11.865 22.0503 11.4683C22.6029 10.4174 23.0694 9.11395 24.7607 7.18441C25.0059 6.9419 25.3119 6.61785 25.8112 6.17307C26.3045 5.72918 26.9715 5.255 27.4721 4.97103C27.8566 4.77693 28.2806 4.5359 28.7854 4.2355C29.0405 4.08425 29.3132 3.91883 29.6578 3.71792C30.0325 3.51112 30.3304 3.29529 31.3056 2.89167C31.545 2.80024 31.8311 2.68785 32.3732 2.5705C32.91 2.48229 33.7555 2.25644 35.3455 2.67395C36.9894 3.05583 38.6036 4.70315 39.0071 5.60118C39.5032 6.54242 39.5649 7.00492 39.6458 7.32397C39.9301 8.93686 39.7855 9.30783 39.763 9.89249C39.7464 10.0856 39.7241 10.3132 39.6964 10.5442C39.6459 10.9368 40.4063 10.6425 40.3669 10.9942C40.1111 12.9075 39.6061 14.2555 39.1212 15.4964C38.4796 17.0852 37.8369 18.5199 37.2881 20.1096C37.2097 20.3311 37.9602 20.2837 37.8534 20.6513C37.7926 20.8642 37.7138 21.0895 37.6172 21.3227C37.3717 21.918 37.0076 22.5564 36.6364 22.9804C36.3882 23.2645 36.0744 22.5814 35.8371 22.8682C35.449 23.3316 35.1692 23.7726 34.9549 24.2878C34.8673 24.4983 34.7894 24.7241 34.7247 24.9551C34.6322 25.2915 35.4678 25.0813 35.2986 25.4977C34.7929 26.7631 34.2999 28.0698 33.7067 29.3919C33.4833 29.8899 33.2453 30.3859 33.0223 30.8136C32.9128 31.0225 32.8046 31.2235 32.7392 31.3138C32.7076 31.3542 32.6876 31.3707 32.7024 31.2672C32.7112 31.14 32.7936 30.9866 32.8591 30.079C32.8545 30.1413 32.8489 30.2188 32.8329 30.3613C32.8088 30.5243 32.8148 30.6626 32.6579 31.3115C32.5208 31.6854 32.5891 32.063 31.6159 33.5783C31.1107 34.2424 30.0301 35.8088 27.2402 36.4274C24.2753 37.0779 21.5928 35.3076 20.844 34.3989C19.9091 33.3806 19.699 32.7957 19.4906 32.3626C19.3067 31.9347 19.2323 31.6781 19.1709 31.4658C19.059 31.0595 19.0297 30.8635 19.0019 30.7041C18.9181 30.1443 18.9332 30.1024 18.9221 29.9862C18.9168 29.8946 18.9153 29.8483 18.914 29.8101C18.9097 29.6676 18.9109 29.6619 18.9105 29.6536C18.9103 29.6333 18.9103 29.6176 18.9103 29.6038C18.9102 29.5764 18.9104 29.5562 18.9105 29.5376C18.9109 29.5091 18.9112 29.4964 18.9116 29.4777C18.9125 29.4386 18.9132 29.4227 18.9141 29.3987C18.916 29.3508 18.9176 29.3232 18.9196 29.2887C18.9233 29.2281 18.9273 29.1751 18.9316 29.1257C18.9401 29.0266 18.9491 28.9457 18.9591 28.8634C18.9788 28.7033 19.0015 28.5575 19.0267 28.4158C19.0773 28.1336 19.1389 27.8652 19.2125 27.5976C19.3605 27.0624 19.5574 26.5248 19.8293 25.969C20.12 25.5121 20.4391 25.0535 20.8095 24.5749C21.0046 24.3228 22.3432 24.7458 22.4489 24.0159C22.14 23.7769 21.745 23.5511 21.3998 23.3222C21.5753 22.9992 21.7742 22.6542 22.0633 22.2315C22.5327 21.3952 24.2759 19.1612 25.985 18.0319C28.3431 16.5199 29.0724 16.3024 31.2796 15.5229C31.0447 15.6244 31.5217 15.4421 32.0291 15.2862C32.5484 15.1262 33.1078 15.0003 33.5937 14.9231C34.5782 14.7674 35.363 14.7461 36.0805 14.7469C37.2238 14.7945 37.9255 14.6712 40.2857 15.0016C40.7915 15.0984 40.1847 14.4327 40.7743 14.3909C40.7948 14.3682 40.8191 14.3577 40.85 14.3642C41.1615 14.4307 41.5862 14.4874 42.0843 14.5513C42.204 14.5683 42.324 14.5844 42.5673 14.6309C42.7028 14.6593 42.825 14.6763 43.2327 14.7912C43.336 14.8215 43.4722 14.8617 43.6888 14.9401C43.932 15.0411 44.1351 15.0691 44.9694 15.558C45.3674 15.9128 46.0872 15.8931 47.54 18.3323C48.3806 19.7399 48.6294 22.6491 47.6559 24.4882C46.6078 26.4803 46.0247 26.6777 45.4412 27.1824C44.8219 27.6212 44.6102 27.7042 44.3329 27.8453C44.0822 27.9661 43.8356 28.0624 43.7029 28.1105C43.4315 28.2094 43.2088 28.2722 43.0534 28.3126C42.4855 28.4532 42.3251 28.4595 42.1597 28.4849C42.0024 28.505 41.9029 28.5138 41.825 28.5206C41.6624 28.5342 41.5711 28.5385 41.4867 28.5425C41.3274 28.5496 41.2286 28.5511 41.1379 28.5525C39.8228 28.567 38.6231 28.585 37.9742 28.2367C37.9681 28.2343 37.9619 28.232 37.9558 28.2297C37.8352 28.1855 37.5858 26.9018 37.2679 27.1956C37.2083 27.2444 36.7471 27.5898 36.7507 27.9029C36.7541 27.948 37.0655 28.4733 36.9446 28.5459C36.8662 28.5924 36.7884 28.6382 36.7106 28.6837C36.9612 28.5535 36.9172 28.5702 36.8933 28.5891C36.8575 28.6128 36.784 28.6619 36.7006 28.7185C36.532 28.8327 36.3192 28.9787 36.0967 29.1294C35.649 29.433 35.152 29.7612 34.64 30.0789C34.3781 30.237 34.3311 30.205 34.2907 30.1434C34.2285 30.1225 33.7631 29.6726 33.6973 29.6748C33.6008 29.6921 33.4549 29.826 33.3008 30.0087C32.6698 30.7656 32.1358 31.8337 31.4771 32.3923C31.3455 32.5223 31.2056 32.6434 31.0556 32.7533C30.1868 33.3827 29.4446 32.4687 28.241 32.3138C28.067 32.2971 27.7461 32.764 27.1906 32.4515C25.7651 31.702 24.4262 30.5148 22.8936 29.7371C22.7257 29.6594 22.6072 29.8602 22.4048 30.1105C22.3065 30.2283 22.1643 30.4209 22.0589 30.4293C21.9492 30.4449 21.9296 30.1327 21.8655 29.788C21.8922 29.6012 22.034 28.8049 21.8532 28.5281C21.7361 28.3216 21.0787 28.1449 20.9738 27.8096C20.8679 27.4766 21.4536 27.5721 21.3709 27.1167C21.2833 26.6612 20.583 26.3853 20.8589 25.7861ZM23.2776 32.5627C22.7874 31.7745 21.9371 33.8902 22.9375 33.62C22.9865 33.6035 23.3054 32.6018 23.2776 32.5627ZM8.97139 33.5845C10.2312 33.5008 9.46772 32.1183 8.44905 32.1633C7.4049 32.269 8.58117 33.6272 8.97139 33.5845ZM11.6798 38.6365C11.6344 38.5956 11.5903 38.5677 11.5517 38.5508C11.6044 38.458 11.4572 38.5934 11.4561 38.8005C11.4373 39.0099 11.4744 39.3018 11.547 39.5805C11.6189 39.8593 11.7263 40.1251 11.8247 40.2914C11.8714 40.3752 11.9178 40.4339 11.9347 40.4623C11.9392 40.4908 11.9798 40.4884 11.7335 40.462C11.7474 40.4494 11.7619 40.4346 11.7771 40.4175C11.8123 40.3773 11.7269 38.6785 11.6798 38.6365ZM29.2602 30.1436C29.2302 30.1332 28.9754 30.466 28.9965 30.4896C29.4824 31.0655 29.9807 30.4149 29.2602 30.1436ZM18.9232 36.7144C18.836 36.6343 18.738 36.6062 18.6399 36.6156C18.3357 36.6405 18.0587 37.1164 18.3927 37.4669C18.5324 37.6144 18.7078 37.5965 18.8399 37.494C19.09 37.3294 19.2094 36.974 18.9232 36.7144ZM11.5902 15.1706C11.5935 15.2044 11.904 15.2911 11.934 15.1028C12.0307 14.4905 11.5306 14.5821 11.5902 15.1706ZM29.4961 30.0096C29.4773 30.0396 29.4576 30.069 29.4372 30.0977C29.3126 30.2057 28.9686 30.7109 28.5903 30.8889C28.2084 31.0959 27.8007 31.1061 27.4852 31.0104C27.1674 30.9147 26.9341 30.725 26.8174 30.5357C26.7041 30.3341 26.6822 30.194 26.865 29.9148C27.0213 29.6745 27.4282 30.7651 27.7839 30.5486C28.1737 30.2615 27.8346 29.9062 27.9077 29.2101C27.8645 29.0073 27.8255 28.8332 27.9351 28.6531C27.9414 28.6367 27.9662 28.5905 27.9737 28.5747C28.1637 28.2771 28.321 28.234 28.557 28.1995C28.6886 28.1806 28.8738 28.726 29.1114 29.1877C29.3694 29.5458 29.5334 29.9622 29.4974 30.0148C29.497 30.0131 29.4965 30.0113 29.4961 30.0096ZM23.6924 29.8381C23.6897 29.8088 23.2905 29.6412 23.2714 29.6625C22.772 30.2529 23.6595 30.6235 23.6924 29.8381ZM23.3058 28.7375C23.2668 28.7915 23.7427 29.6576 23.8072 29.654C25.0928 29.4789 24.1116 27.6873 23.3058 28.7375ZM9.8794 25.8206C10.6104 25.3407 11.1963 25.505 11.1727 26.4961C10.7526 26.2531 10.3093 26.0513 9.8794 25.8206Z" fill="var(--stroke-0, #FFEA64)"/>
</svg>
