<svg preserveAspectRatio="none" width="100%" height="100%" overflow="visible" style="display: block;" viewBox="0 0 116.569 95.1629" fill="none" xmlns="http://www.w3.org/2000/svg">
<path id="Vector 132" d="M53.0255 37.6503C51.3708 39.3626 48.4416 41.9162 47.749 42.4307C47.7392 42.4278 47.7333 42.4134 47.7272 42.3938C47.6459 42.2589 47.319 42.1292 47.2992 42.0004C47.2881 41.8439 47.37 41.5942 47.387 41.4875C47.4074 41.3774 47.391 41.4469 47.3147 41.742C47.2636 41.9511 46.572 41.7347 46.5376 41.9809C46.4541 42.7121 46.5986 43.8452 46.7191 45.0079C46.6872 44.8368 46.7133 45.0352 46.8018 45.3054C46.8882 45.5838 47.0218 45.9595 47.1664 46.3759C47.5111 47.3658 47.9879 48.4882 48.4846 49.6076C50.4364 53.8599 51.8961 55.8832 56.5269 58.2446C57.8584 59.0391 59.4995 59.4224 62.1079 59.7672C63.4491 59.979 64.8658 59.9944 66.304 59.8188C67.4885 59.6755 68.8195 59.4661 70.1263 59.0787C70.7774 58.8864 71.4229 58.649 71.9905 58.3793C72.2747 58.2443 72.5405 58.0995 72.7452 57.9696C72.8436 57.9078 72.9331 57.8441 72.9743 57.8121C73.0075 57.7953 73.0378 57.7294 72.8076 58.0072C72.6135 58.2597 72.6312 58.329 72.6174 58.1432C72.6105 57.9841 72.0119 57.9932 71.9682 57.9582C71.7941 57.8033 71.7368 57.667 71.8005 57.2674C71.8252 57.0966 71.8607 56.9046 71.924 56.6685C71.9399 56.6094 71.9576 56.5475 71.9778 56.4823C72.0079 56.3806 72.0456 56.2638 72.0926 56.1371C72.1879 55.8829 72.3182 55.5763 72.5515 55.1981C72.6853 54.997 73.3164 53.9147 74.7282 53.2653C75.4151 52.9423 76.2698 52.7811 76.9949 52.8182C77.6261 52.845 78.1698 52.9902 78.595 53.1592C79.4459 53.5061 79.8866 53.9079 80.1684 54.1729C80.3451 54.349 80.468 54.4981 80.5661 54.6277C80.7563 54.881 80.8698 55.0885 80.9234 55.2089C80.9701 55.3193 81.0005 55.4128 81.0231 55.4973C81.0686 55.6672 81.081 55.798 81.0749 55.8936C81.07 56.3241 80.959 56.5905 81.0429 56.9759C81.5039 59.7857 82.3045 62.2527 83.5439 63.8147C83.8658 64.2217 84.1966 64.5579 84.5306 64.8272C85.2504 65.3633 85.3741 63.9104 85.5759 64.9327C85.5978 65.0053 85.0367 65.3644 85.1916 65.5666C85.5319 66.0376 86.6309 66.4936 87.1167 66.7341C88.0427 67.2139 88.2307 67.263 89.2671 67.5898C90.6896 68.0319 92.4803 68.7782 94.2129 69.033C94.5871 69.0864 94.25 68.35 94.8497 68.3761C94.9588 68.3809 95.0989 68.3983 95.26 68.4256C95.8791 68.5294 96.805 68.7464 97.1489 68.9118C97.5677 69.1173 97.3234 69.5939 97.3891 69.7185C97.9854 70.7895 99.6271 69.4695 99.7681 69.4118C102.277 68.8871 104.017 68.5664 106.327 67.3143C105.789 67.7421 105.945 67.834 106.02 67.6544C106.119 67.4852 106.235 67.1446 106.31 66.7545C106.714 64.6156 106.388 61.6324 106.114 59.1278C106.104 59.0324 106.09 58.9317 106.072 58.8261C105.73 56.8742 104.181 54.1301 102.363 51.2678C102.345 51.2394 102.327 51.2111 102.309 51.1828C102.139 50.9217 101.692 51.6283 101.486 51.3193C99.3041 48.0875 96.3542 45.1338 93.2747 42.0825C93.2355 42.0435 93.1968 42.005 93.1585 41.9668C92.8625 41.6729 93.6905 41.4741 93.4162 41.1486C92.5716 40.1668 91.4626 38.8649 90.249 38.4169C89.0634 37.9571 87.8591 38.447 86.9224 39.8205C86.9338 39.862 86.9453 39.9043 86.9569 39.9474C87.0533 39.9246 87.042 39.903 87.0223 39.8923C87.0138 39.8856 86.9995 39.8824 87.0192 39.8635C87.0306 39.8528 87.0482 39.8403 87.1063 39.8022C87.1361 39.7824 87.1764 39.7566 87.2489 39.7052C87.3301 39.6419 87.4106 39.6064 87.7105 39.3114C87.9235 39.0642 88.3089 38.758 88.6095 37.707C88.9849 36.6218 88.3301 34.9061 87.7842 34.4563C87.2517 33.9045 86.9343 33.787 86.7064 33.6699C86.4884 33.5707 86.3409 33.5269 86.2314 33.4964C85.8092 33.391 85.7237 33.4146 85.6181 33.4108C85.4397 33.4187 85.3919 33.4413 85.2895 33.473C84.8732 33.6393 85.1409 33.6827 85.4415 33.5512C85.7592 33.4308 86.1719 33.2167 86.5916 33.027C86.6784 32.9876 86.757 32.96 86.8282 32.9425C87.3316 32.9497 87.5437 33.6382 87.723 32.8892C87.7467 32.7115 87.106 32.563 87.1502 32.3648C87.2897 31.7394 87.4113 30.7087 87.2129 28.7662C87.1846 28.7864 87.1415 28.7142 87.0565 28.6094C86.9481 28.4737 86.4168 28.6832 86.3085 28.6779C85.8663 28.6533 85.8687 28.3197 85.9017 27.8621C85.941 27.413 86.0395 26.8916 86.0039 26.7473C85.4071 24.5376 83.9194 23.3334 82.368 21.7416C82.0002 21.3698 81.9017 22.3432 81.5313 22.0096C80.6234 21.1902 79.6938 20.3561 78.7781 19.5293C78.3409 19.0874 77.1292 18.3499 76.0171 17.6802C75.5322 17.3874 76.2643 16.9969 76.0412 16.8251C75.0368 16.076 74.3199 17.1123 73.3158 16.4353C73.099 16.293 73.4331 15.8276 73.412 15.7541C73.0842 14.6014 72.0042 15.6413 71.8225 15.6042C70.7081 15.3874 69.9148 14.8617 69.1465 14.2955C68.3586 13.6901 67.5547 13.0525 66.4009 12.81C66.14 12.7574 66.5045 13.6006 65.7886 13.4147C63.4971 12.8296 61.1011 12.2548 58.6974 11.6705C56.1286 11.0452 53.5435 10.4678 51.0172 9.94961C50.2617 9.79776 50.85 9.31911 50.8085 9.25017C50.0961 8.17063 49.4778 9.49678 49.2305 9.53292C48.9448 9.56872 48.6631 9.57555 48.3874 9.56607C46.7467 9.50821 45.1989 8.8705 44.0974 10.2887C41.2436 10.1665 38.4046 10.4427 35.6306 10.9917C33.5388 11.3913 31.6304 12.4286 30.448 13.7832C28.303 16.0597 26.72 16.4075 25.7021 17.3819C25.4811 17.4034 25.0434 18.2023 24.7821 19.0831C24.7544 19.178 24.1084 18.9236 24.0556 19.1218C23.499 21.5691 24.6173 21.1749 25.8959 22.7864C26.2213 23.1875 24.73 24.5336 24.6238 24.6608C24.2261 25.0999 23.2116 24.7027 23.1371 24.8479C22.6625 25.8388 24.7739 25.7915 25.6028 26.6015C25.7849 26.7185 25.9055 26.8485 25.9321 27.0302C25.9315 27.0658 25.3104 27.0082 25.2636 27.1091C25.1199 27.4407 25.4222 27.6879 25.3107 28.0416C25.0599 28.8324 23.7312 29.8962 25.2267 30.6207C25.424 30.6958 26.8665 29.5446 27.4626 30.5501C27.6736 30.965 29.1744 32.6374 29.5856 33.1936C29.968 33.7529 29.2192 33.8527 29.2329 33.904C29.3963 34.325 29.4962 34.642 29.5399 34.8922C29.6478 35.6859 29.2125 35.8358 29.1804 37.0073C29.1659 38.5253 30.7471 36.1911 31.2586 36.2121C31.68 36.2633 32.2732 37.1416 32.5643 38.2676C32.6587 38.5701 32.6396 39.0141 32.5128 39.2547C32.3253 39.6154 32.1633 39.6204 32.0922 39.6105C32.0143 39.5914 31.9863 39.5145 31.9533 39.4447C31.8908 39.2897 31.8024 39.2345 31.5951 39.3269C31.2566 39.4298 31.063 39.3829 30.8927 39.4078C30.7249 39.4231 30.6065 39.4585 30.5191 39.5192C30.3402 39.6397 30.291 39.8575 30.2839 40.1142C30.2684 40.626 30.4695 41.2855 30.0904 41.5354C28.3069 42.6779 27.1305 40.52 25.7055 40.2732C25.3183 40.2041 25.6185 40.689 25.2712 40.7206C25.106 40.7348 24.9509 40.7376 24.8004 40.7325C23.717 40.6984 22.925 40.242 21.5852 40.7798C21.3286 40.8779 20.1545 42.1537 19.3333 41.2807C19.2138 41.1547 19.507 40.6192 18.9304 40.5349C18.0672 40.4054 16.5089 40.4275 15.6301 40.726C14.9839 40.9461 15.8588 41.6808 15.0042 41.5417C14.6262 41.4836 15.2187 40.8785 14.5017 40.8159C14.1841 40.7894 13.628 40.8493 13.1367 40.9754C12.5394 41.1263 11.9539 41.4532 11.6606 41.6467C11.126 42.0082 11.7889 42.356 11.7662 42.4208C11.6487 42.7758 10.9962 43.735 10.9322 43.8144C10.4381 44.2967 9.96168 44.8215 9.50615 45.3713C7.90361 47.1495 7.7601 49.6968 8.5972 52.6569C8.62148 53.3304 10.6039 54.3669 12.2784 54.74C12.705 54.8468 12.6306 54.1064 12.6978 54.116C14.1996 54.2686 12.5497 55.6758 13.4335 56.5575C13.6495 55.1783 14.1957 55.5958 15.2888 55.7086C15.8189 55.7619 15.6667 55.1719 15.7263 55.13C16.6679 54.5195 16.9533 55.6635 17.0448 55.9057C17.3755 56.7944 18.1355 56.0045 18.3673 56.5981C18.6009 57.1879 17.6317 57.7725 18.6722 57.9912C19.0683 57.57 18.579 56.1355 19.4085 56.102C19.4558 56.1001 19.5037 56.0987 19.5522 56.0979C20.8562 56.0279 22.7889 56.2332 24.6703 56.3762C24.7453 56.3841 24.8178 56.3889 24.8239 56.3969C24.8198 56.4036 24.8197 56.3997 24.6706 56.4422C24.5781 56.487 24.501 56.4379 24.0364 56.7838C23.9407 56.8612 23.7459 57.0496 23.6108 57.2924C23.4508 57.5621 23.3466 57.9657 23.3699 58.3077C23.4374 59.0282 23.6908 59.2438 23.8017 59.3997C24.0405 59.6612 24.1065 59.6702 24.1654 59.7129C24.2174 59.7431 24.2397 59.7513 24.2523 59.7553C24.2764 59.7621 24.2643 59.7501 24.2455 59.7371C24.205 59.7092 24.131 59.6703 24.0495 59.6301C22.9336 59.0661 21.3965 58.7669 20.4833 58.6842C18.1659 58.5148 17.3995 58.6995 16.0331 58.6492C15.6963 58.6421 15.4228 58.658 15.2038 58.6885C14.1441 58.936 14.7488 59.5683 14.2621 60.3134C13.7629 61.2932 12.5003 59.2982 12.0125 59.0455C11.4845 58.8533 11.6891 59.4005 11.2932 59.4354C10.8877 59.4858 11.0437 58.7519 10.5021 59.2484C9.90961 59.7677 9.73009 61.8908 10.1391 62.3155C10.9472 63.2451 12.3011 63.0741 11.3117 64.3113C11.2637 64.3738 10.9234 64.0211 10.7048 64.0912C10.6657 64.1021 10.631 64.1265 10.6036 64.1701C9.20785 66.5168 9.09842 69.8347 8.57016 72.8185C8.562 72.8656 8.54605 72.9023 8.52411 72.9308C8.35267 73.1542 7.81146 72.8673 7.76825 73.086C7.32761 75.6618 8.51079 74.7642 9.90271 75.9219C8.17329 75.7995 7.10935 76.6876 7.56168 78.7127C7.86358 79.9095 8.54527 79.4956 9.28016 80.0329C9.49731 80.1868 9.31113 81.1363 9.70061 81.1362C10.9653 81.1154 11.8129 79.9401 12.1423 81.7712C12.1579 81.8545 11.4748 81.9158 11.5716 82.1849C12.0371 83.4397 12.8021 83.5772 13.6245 84.2108C13.8761 84.3269 14.1184 84.4522 14.4014 84.6831C15.0274 85.3175 17.0108 87.0392 18.7459 87.54C18.2178 89.4206 20.0959 89.3806 20.984 88.1541C21.4268 88.2484 21.8909 88.3178 22.3587 88.384C22.9596 88.4712 23.5942 88.4725 24.2222 88.5048C24.5765 88.5191 24.433 89.1062 24.4847 89.1604C25.3887 89.9858 25.6212 88.5664 25.8092 88.4593C26.8156 87.9405 27.789 87.5736 28.6387 87.1199C28.9887 86.9909 29.3364 86.4164 30.3286 85.7497C31.1819 85.2285 32.0922 84.9365 32.9539 84.5715C33.0421 84.5291 33.1703 83.1571 33.9871 84.1004C34.0337 84.1659 33.1656 84.8255 34.45 84.806C35.1202 84.7905 36.0753 84.9795 36.7541 84.7118C37.3553 84.4784 37.9463 83.7683 38.0971 83.011C38.203 82.5878 37.6874 81.2847 38.7786 80.9174C38.9286 80.8655 39.2336 81.1318 39.4947 81.0724C40.3362 80.8511 39.1741 80.0918 40.4711 79.9141C41.767 79.7357 43.0687 78.6084 42.6934 76.6176C42.6861 76.5724 42.1848 76.2168 41.9497 75.8262C41.8587 75.6774 41.8046 75.5235 41.8323 75.3727C41.9963 74.5085 42.2841 73.2411 42.3224 72.3022C42.3407 71.8528 41.6569 72.1073 41.6485 72.0287C41.5848 71.0279 41.5703 70.1528 41.829 69.1469C41.8859 68.9548 41.9508 68.7555 42.0794 68.5228C42.1487 68.4036 42.2294 68.2692 42.4023 68.1185C42.5602 67.9664 42.9286 67.824 43.2054 67.8822C43.7387 68.0068 43.8401 68.2319 43.9915 68.3791C44.1253 68.537 44.2231 68.6823 44.313 68.8089C44.8794 69.6231 45.8166 70.3564 47.0453 70.9191C47.6011 71.191 49.4064 70.7414 50.3764 71.6406C51.4774 72.6238 49.6391 75.7126 52.8131 75.3318C53.5262 75.2364 54.4435 73.9271 55.4161 73.1951C56.2059 72.623 56.9325 72.3772 57.9395 73.2634C61.2484 72.647 64.5614 71.8212 66.992 69.4592C67.7461 68.7698 68.0128 67.7119 67.8944 66.8364C67.8786 66.6516 67.0969 66.2457 66.7672 65.9587C66.6904 65.8695 66.6415 65.7953 66.6347 65.7277C66.6239 65.6324 66.6291 65.5906 66.6333 65.5128C66.6418 65.4989 66.6272 65.4135 66.6711 65.5185C66.6753 65.5279 66.6805 65.5394 66.688 65.555C66.6918 65.5628 66.6963 65.5716 66.7018 65.5819C66.7097 65.5826 66.7177 65.6699 66.9008 65.8186C66.9912 65.8916 67.2171 65.9926 67.4542 65.9326C67.6886 65.874 67.8015 65.7318 67.8534 65.6566C67.952 65.4962 67.9424 65.4496 67.954 65.4101C67.9657 65.3314 67.9593 65.3577 67.9602 65.3467C67.9584 65.3294 67.9552 65.3241 67.952 65.3225C67.9456 65.3184 67.9393 65.3394 67.9327 65.3459C67.8817 65.4511 67.821 65.5858 67.7576 65.6908C67.6336 65.93 67.5078 66.1343 67.5144 66.3742C67.5549 68.2987 68.2525 69.9829 68.505 71.8003C68.6085 72.4916 68.0042 72.3576 68.1502 73.1933C68.2726 73.8349 68.8089 74.2213 69.0807 74.8328C69.1642 75.0122 69.2359 75.2129 69.3023 75.4683C69.468 76.261 69.255 78.1529 70.3935 79.0228C71.2006 77.7568 71.8867 78.225 73.3393 78.3394C73.6158 78.3586 73.5265 77.7724 73.6644 77.7553C74.2145 77.6686 74.5249 78.2175 75.0636 78.0663C75.1939 78.03 75.3355 77.5392 75.4459 77.48C75.7968 77.2874 76.1414 77.356 76.4591 77.5302C76.7163 77.7709 77.2764 78.266 77.4108 78.3833C78.2879 79.0936 78.6416 78.3487 79.3329 78.5129C80.0613 78.6577 79.1383 79.2488 79.9702 79.245C81.7172 79.2214 83.7593 78.4029 85.342 77.7792C85.9739 77.5266 85.2839 77.0729 85.3684 77.0221C86.5818 76.3352 88.1739 76.4 88.2878 74.8427C89.6027 76.3732 89.6591 75.9938 89.7861 75.3208C89.9277 74.7436 89.9227 74.1228 90.6431 73.7509C90.7451 73.7053 92.3066 74.4466 91.9374 75.2494C91.6854 75.7602 90.9772 76.1284 90.3179 76.4054C90.034 76.5241 89.7599 76.6795 89.5427 76.9342C89.4056 77.1009 89.0029 79.0044 88.888 79.1576C88.0274 80.3539 86.8694 78.1413 86.7601 78.042C85.5102 76.9835 84.8498 79.0523 84.5206 79.2968C83.0807 80.4067 81.5482 80.5402 80.1204 81.2508C79.1701 81.7005 79.3173 83.3265 78.3054 83.3892C77.2675 83.4336 76.268 83.1859 75.258 82.6873C74.076 81.7821 73.4541 80.9532 71.1689 81.4937C70.4479 81.6047 70.26 83.61 68.7014 81.1232C68.5625 80.942 67.7982 78.9468 66.3711 78.373C66.1834 78.2993 65.776 78.6211 65.5892 78.4396C65.0733 77.9259 64.7437 77.3193 64.5161 76.6773C64.2536 75.8975 64.2121 75.3711 63.939 74.7591C63.4836 73.7311 62.9822 72.6114 62.9809 71.4951C62.9782 70.8197 63.8159 69.8585 64.009 69.524C64.5656 68.5792 63.3482 67.792 64.1081 67.1612C64.8747 66.5371 66.2293 67.4336 66.6228 65.9993C65.2794 66.0787 63.8923 66.0681 62.5363 66.0815C62.5295 65.9812 62.522 65.8712 62.5143 65.7057C62.5116 65.5815 62.5021 65.6368 62.5075 65.1772C62.5094 65.1164 62.5122 65.044 62.5198 64.9426C62.544 64.8244 62.4556 65.1037 62.6464 64.1439C62.7123 63.9006 62.7797 63.5826 63.0956 62.9863C63.4143 62.4637 64.077 61.2026 66.1695 60.627C68.3434 60.0925 70.0607 61.2581 70.5852 61.795C71.2053 62.4001 71.3716 62.7585 71.5222 63.0173C71.6148 63.1937 71.5792 63.1277 71.6017 63.172C71.6134 63.1958 71.6244 63.2186 71.6347 63.2406C71.6554 63.2845 71.6737 63.3249 71.6902 63.3626C71.7232 63.4379 71.7491 63.5022 71.7712 63.5592C71.815 63.673 71.8437 63.7584 71.8668 63.8303C71.912 63.9727 71.9352 64.0626 71.954 64.1371C72.0286 64.4526 72.0125 64.4082 72.0292 64.4915C72.0973 64.9066 72.0992 65.0044 72.1251 65.2368C72.3602 67.0289 72.0879 70.223 69.5313 72.3518C68.0987 73.4752 66.347 74.5837 64.5015 75.4377C64.0516 75.6451 64.8097 76.1055 64.3181 76.3446C62.1815 77.3406 60.0775 77.255 57.8338 77.575C56.9375 77.7004 55.9966 77.9246 55.0331 78.0904C54.2675 78.2622 53.4796 78.4227 52.7082 78.4324C51.933 76.8027 49.6053 77.0297 47.8264 76.4502C47.2087 76.2492 47.3523 75.8591 46.9459 75.6078C45.4018 74.6221 45.7656 76.1433 45.1984 76.1807C42.6312 76.0752 43.5543 73.4872 41.4399 71.4417C41.4111 71.4099 41.384 71.3805 41.3596 71.3551C41.3395 71.3341 41.1768 71.3063 41.0291 71.3765C40.9575 71.4133 40.8874 71.4752 40.8789 71.6016C40.8794 71.7281 40.9074 71.9258 41.2757 72.2576C41.5928 72.5571 42.692 73.1754 44.1791 72.8796C45.6131 72.5671 46.2641 71.8573 46.597 71.579C47.2369 70.9598 47.3129 70.8925 47.388 70.8151C47.5555 70.6213 47.6065 70.6116 47.643 70.5892C47.7628 70.473 47.5583 70.5129 47.3401 70.4556C47.1169 70.424 46.8655 70.3289 46.794 70.4548C46.476 71.2027 46.0654 72.1922 46.452 73.7917C46.558 74.2636 47.5118 75.5126 46.509 76.7483C46.4999 76.7562 46.4907 76.7639 46.4814 76.7716C46.3542 76.8765 45.8371 76.6982 45.7855 76.7911C44.8797 78.4559 46.4994 78.9009 46.7488 80.138C46.9942 81.3863 45.256 82.6677 44.8016 82.8484C43.6358 83.3624 44.7252 82.0559 44.652 81.9771C43.8897 81.0888 43.6488 82.276 43.1703 83.1013C41.6017 82.5385 41.1356 83.677 42.6634 83.9555C42.8367 83.9813 43.0276 83.2392 43.1703 83.1013C44.326 84.4987 43.7434 86.2665 41.1978 86.9105C40.6466 87.0357 40.3548 86.8126 40.0257 86.7803C39.6728 86.7367 39.4266 86.8972 38.3878 87.6093C38.2108 87.7214 38.0148 87.8361 37.8 87.9488C36.5084 88.54 37.2658 89.498 36.1155 90.0114C34.0498 90.7644 32.7115 90.2669 32.8111 90.1595C33.1745 89.8854 33.0313 89.9162 32.7846 90.2321C32.5244 90.5369 32.5823 90.7132 32.7396 90.804C32.8787 90.9088 33.0849 90.9597 32.7867 91.2751C32.5359 91.5339 32.1968 91.8241 31.7734 92.0924C30.4976 92.8864 29.3253 93.0657 28.0912 93.7076C27.9562 93.7759 28.5183 94.2864 28.022 94.4564C26.0231 95.1231 23.8719 95.3722 21.4937 94.9669C20.1289 94.6923 18.712 94.3703 17.0921 93.9625C15.4683 93.5845 12.0823 92.8145 10.1049 91.096C9.15254 90.3071 8.18841 89.1694 7.52505 87.7797C6.81559 86.0047 5.93531 83.5296 5.16032 81.7769C4.44287 80.1392 3.95666 80.6832 3.30749 80.0256C2.01994 78.6637 3.28001 75.7163 3.53022 75.4194C3.52868 75.4133 3.82072 76.8955 4.08332 76.0651C4.74612 75.5569 3.53518 75.4394 3.53022 75.4194C3.62081 75.2604 3.65678 73.8328 3.71469 72.7836C3.73494 72.3571 3.73516 71.9879 3.70054 71.8252C3.64138 71.5481 3.01158 71.6794 2.99269 71.5344C2.69627 68.6323 2.40635 65.5545 4.08035 61.4044C4.37346 60.7456 4.70903 60.0977 5.09641 59.4583C5.14415 59.3943 5.70908 59.8214 5.81189 59.6712C7.32579 57.6229 7.52446 55.6755 9.85013 53.3844C10.9982 52.3117 12.6244 51.5749 14.1605 51.4762C15.0046 51.4739 15.7305 51.75 16.3493 52.3225C17.7399 52.0483 19.7499 52.5494 20.895 52.9361C22.0313 53.3181 22.3405 52.0019 22.4553 51.9822C23.8511 51.7955 25.1069 51.897 26.6412 52.4648C26.7859 52.5212 26.9532 52.5867 27.2198 52.7058C27.3572 52.7683 27.5135 52.8386 27.7781 52.9798C27.9105 53.0517 28.0786 53.1436 28.3273 53.3073C28.606 53.5213 28.9053 53.6081 29.7519 54.61C30.1082 55.1381 31.0262 56.0917 31.0004 58.4866C30.8958 60.9122 29.2841 62.4168 28.7257 62.8129C27.3509 63.7653 27.0003 63.6865 26.6448 63.8208C26.0086 63.9759 25.7877 63.9747 25.5676 63.9958C25.1566 64.0222 24.9515 64.0096 24.7428 63.9998C23.6289 63.8933 22.5743 63.7039 21.1834 63.5387C20.4347 63.4438 19.3457 63.3672 18.0158 63.135C16.9309 62.9606 15.7858 62.801 14.9706 62.6922C13.7617 62.5319 13.1187 62.0473 11.927 61.9345C11.766 61.9185 11.7607 62.5452 11.7074 62.5548C10.1996 62.8826 11.2353 61.6335 11.0447 61.3038C10.3275 60.0677 9.98757 59.4862 7.9888 59.1038C7.57442 59.0214 5.15235 60.2719 3.66359 59.1291C2.77506 58.4296 2.57711 57.8924 2.43243 57.4567C2.29425 56.9589 2.05882 56.6058 1.38033 54.9367C1.37796 54.9323 1.37555 54.9279 1.3731 54.9235C1.33416 54.8485 0.89388 55.0289 0.729904 54.4228C-0.105116 51.7613 -0.766631 46.0083 1.95371 41.6966C2.29515 41.1323 1.20005 41.4627 1.71621 40.6281C1.89809 40.3452 2.08047 40.0819 2.27839 39.8158C4.02597 37.5092 6.54727 34.7854 10.9512 33.6695C11.2414 33.6021 11.4955 33.5568 11.7142 33.5249C12.6076 33.4093 12.1713 34.048 12.3861 34.1587C13.6033 34.8556 14.6042 33.3486 14.8325 33.293C18.6716 32.312 21.6794 32.9236 25.0778 33.0534C25.9586 33.0918 26.8484 33.086 27.7188 32.9774C27.9479 32.957 29.6081 31.4903 29.6588 32.7145C29.6489 32.7596 29.77 33.0609 29.55 33.3353C29.3999 33.5101 29.2536 33.5237 28.2368 34.1238C27.7428 34.4735 26.7136 35.0601 25.9371 36.9063C25.1873 38.7868 25.6461 40.5826 25.9234 41.3546C25.9511 41.4597 25.9768 41.5561 25.9998 41.6456C26.0163 41.7089 25.8778 41.6022 25.7129 41.4524C25.5533 41.2539 25.3908 41.0087 25.3053 40.9617C25.2209 40.9074 25.2021 41.1106 25.3728 41.6105C25.4877 42.0696 25.8621 42.708 26.058 42.8849C26.3665 43.1663 26.0197 42.9326 25.6118 42.6181C25.1879 42.2752 24.6553 41.7663 24.174 40.8214C24.1344 40.7426 24.0912 40.6343 24.0449 40.5058C23.9733 39.8883 23.9558 38.6907 22.5135 38.4423C22.4342 38.4824 19.1665 38.2794 19.8928 36.5507C20.0197 36.2594 21.4523 35.4607 19.7178 34.3874C19.3806 34.1585 19.4175 34.9525 18.6968 34.2047C17.5837 33.0095 17.0252 30.7872 15.9427 28.4574C15.8531 28.2675 15.501 27.7938 15.2713 27.1262C15.0282 26.7472 14.8953 26.2768 15.3394 25.828C15.4698 25.6967 16.0431 25.9074 16.0876 25.4854C16.3146 23.4504 15.8183 21.3508 16.4208 18.702C16.6595 17.7325 17.4944 18.3517 17.8969 17.3383C18.269 16.5092 18.7508 14.6053 20.1715 12.6439C20.317 12.4186 20.4408 12.209 20.5327 12.0138C21.1089 10.8644 19.1228 10.713 20.4479 9.38407C21.27 8.60004 21.9989 8.0462 22.4459 7.68655C22.897 7.34643 23.0272 7.13267 22.6376 7.61308C25.8422 3.76488 29.974 2.24774 33.7922 1.64645C34.7296 1.51662 35.6882 1.39494 36.6382 1.27824C37.4599 1.18183 36.7058 0.756092 37.9235 0.591052C40.8484 0.187504 45.1653 -0.217698 48.8269 0.134706C50.7741 0.310137 52.5241 0.669098 53.7783 1.20001C56.6479 2.44882 52.8365 2.64312 55.0346 3.29028C56.0761 3.60315 57.5083 2.12986 57.787 2.12427C58.8522 2.08662 59.7588 2.25086 60.6053 2.47865C61.8371 2.81342 62.9428 3.27853 64.3166 3.47166C64.7907 3.53909 64.4995 2.76279 64.9035 2.8288C66.2896 3.0509 67.6412 3.73508 68.9699 4.08114C69.5681 4.23671 69.6145 3.70397 70.1536 3.91822C71.0236 4.26249 71.8142 4.66256 72.587 5.19069C72.8994 5.42333 73.2042 5.67839 73.5103 5.96475C73.5953 6.04453 72.6813 6.3943 73.5205 6.7368C74.8814 7.29163 76.4234 8.38414 78.2833 8.60076C78.8366 8.66675 79.3137 7.56228 80.1149 8.80945C80.2943 9.08199 79.363 10.2153 81.2463 9.73442C81.5045 9.67856 84.092 9.30107 85.7559 11.3137C85.8309 11.4528 85.8816 11.6063 85.9013 11.7747C85.9537 12.1931 85.7565 13.5795 86.3638 13.8855C86.4505 13.925 86.6148 13.2054 87.066 13.5342C88.6465 14.7069 90.0479 16.206 91.5865 17.6664C92.0013 18.0629 91.9455 16.979 92.5522 17.595C94.1987 19.4048 96.0946 21.6252 97.1804 25.9834C97.4969 27.7688 96.6852 26.6414 96.66 26.7876C96.4834 27.4989 96.471 28.1418 96.5134 28.7642C96.6034 29.0233 97.2347 29.3064 97.291 29.4995C97.7803 31.3362 97.2769 34.5788 95.2869 37.9249C94.7255 38.8253 95.6601 38.5673 95.5844 38.7756C94.6208 40.8691 94.7726 38.9883 93.8647 39.7571C93.8517 39.765 93.8384 39.7737 93.825 39.7834C93.241 40.2012 92.6203 40.7286 91.7313 41.3922C90.8138 42.0185 89.7073 42.9971 87.1554 43.5506C86.5116 43.6675 85.9719 43.7256 85.1893 43.7038C84.7677 43.6766 84.3832 43.6909 83.3697 43.4204C83.1086 43.3442 82.7766 43.2403 82.3119 43.0239C81.8332 42.7752 81.175 42.5155 80.133 41.4135C79.0581 40.5 77.8577 37.1922 78.5863 35.1344C79.1718 33.1311 79.9221 32.5175 80.3623 32.0161C81.1212 31.2821 81.3532 31.1878 81.6169 31.0005C81.8595 30.8434 82.0382 30.7421 82.1991 30.6538C82.5163 30.4812 82.7655 30.3648 83.0061 30.2594C84.6021 29.6394 82.5282 29.5851 84.0242 29.0889C84.7776 28.8721 85.5889 28.7034 86.6327 28.6646C87.5921 28.5558 91.3079 28.4936 93.838 29.643C96.3674 30.6892 97.9158 31.9599 99.2212 33.1467C99.7477 33.6426 99.0458 33.8122 99.0859 34.0032C99.1182 34.1796 99.18 34.3315 99.2646 34.4636C99.7331 35.2519 101.126 35.2012 101.401 35.3026C102.839 35.8233 102.94 36.5752 103.944 37.3815C106.508 39.4553 109.171 42.3038 111.254 45.8053C112.556 48.1016 114.347 50.6001 115.683 54.3713C116.043 55.4393 116.345 56.6523 116.46 58.0002C116.619 60.4399 116.611 62.7065 116.392 65.1376C116.273 66.3607 116.115 67.6081 115.742 69.1073C115.546 69.8636 115.306 70.6892 114.824 71.7197C114.312 72.7128 113.656 74.1573 111.513 75.5663C110.144 76.4093 108.139 77.5123 106.026 78.2077C105.467 78.391 106.261 78.9251 105.764 79.0925C101.18 80.5703 96.6361 80.1367 92.7796 79.2498C91.4151 78.9358 90.032 78.6374 88.5483 78.3263C88.1437 78.2389 88.5456 79.0716 87.889 78.9525C86.5271 78.707 84.707 78.1492 83.135 77.2719C82.3713 76.8408 83.6715 76.7247 82.9155 76.3034C81.1649 75.3278 78.9588 73.9572 77.185 72.3289C76.4368 71.6398 77.0025 73.258 76.0616 72.2891C75.4736 71.665 74.9537 71.0303 74.4926 70.4086C73.0033 68.3715 72.1382 66.5384 71.4094 64.7883C71.051 63.9142 70.7443 63.0607 70.4815 62.2636C70.3519 61.8707 70.2289 61.4793 70.1412 61.1897C70.1028 61.0574 70.0539 60.9114 70.1016 61.0006C70.1151 61.0254 70.1389 61.0756 70.1949 61.1857C70.2473 61.2804 70.3303 61.4763 70.6426 61.9489C70.7541 62.1144 70.8966 62.3158 71.1135 62.5746C71.2225 62.704 71.3507 62.848 71.5096 63.0091C71.5917 63.092 71.6682 63.1668 71.7812 63.2705C71.9447 63.4199 72.1357 63.5819 72.3674 63.754C73.298 64.3812 74.8781 65.5363 78.0289 65.1215C81.2008 64.6654 83.0245 61.9798 83.1368 61.7196C83.9304 60.3954 83.9974 59.6729 84.0615 59.4764C84.1278 59.1757 84.1549 58.9742 84.1733 58.8195C84.0725 59.1184 83.8768 62.3335 81.7021 64.9245C80.7633 66.0342 80.3339 66.2647 79.8845 66.6064C79.4484 66.9123 79.0703 67.1358 78.7075 67.3344C77.9866 67.7257 77.3235 68.0125 76.6624 68.2605C76.1435 68.4523 75.127 67.3287 74.2976 67.9873C74.3826 68.3929 74.5703 68.8331 74.7044 69.2484C70.3921 71.1365 65.6223 71.912 60.7378 71.2541C58.4073 70.94 54.5651 70.4039 51.167 68.5107C49.6482 67.6629 47.2663 66.4461 45.1534 64.7049C44.7838 64.4001 44.9439 65.5376 44.2123 64.9297C40.8392 62.0632 38.5811 58.7605 37.2156 55.43C36.907 54.6446 36.6231 53.8257 36.3731 52.9384C36.252 52.5047 37.5815 52.1484 36.8512 51.0354C36.7223 50.8705 35.7297 48.9543 35.2437 48.1778C35.1725 48.0738 34.7029 48.832 34.4275 47.8114C34.3298 47.4163 34.2385 46.973 34.174 46.4532C34.0374 45.3678 33.8108 44.2499 33.7381 42.2169C33.5734 40.2647 34.4023 36.646 35.9271 34.7648C36.5548 33.9007 37.0681 33.3859 37.5653 32.8997C38.0477 32.4429 38.0996 33.4161 38.442 33.1043C40.7922 31.0273 42.6016 28.7111 44.997 27.4238C46.5928 26.59 46.869 27.9061 48.312 28.1965C48.5132 28.2383 49.3467 27.5783 49.8169 28.064C50.9956 29.2837 51.7906 31.0279 53.0939 32.2892C53.3764 32.5566 54.1321 31.4039 54.1208 32.6217C54.1167 32.7044 53.5755 33.5535 53.6019 33.9483C53.6175 34.2223 54.2818 34.5576 54.2087 34.9867C54.1383 35.4136 53.4877 35.2129 53.2856 35.8236C53.0902 36.4361 53.778 36.8648 53.0255 37.6503ZM26.3477 55.4756C26.4861 55.5981 26.6 55.6505 27.0303 56.0173C27.1445 56.1245 27.2773 56.2343 27.5043 56.5432C27.6749 56.7994 28.1006 57.3903 28.0334 58.4395C27.9469 59.5029 27.2963 60.1621 27.01 60.3896C26.6773 60.6546 26.494 60.7289 26.3313 60.8054C25.7683 61.0316 25.6821 61.0126 25.5251 61.0655C25.3919 61.1035 25.3103 61.1359 25.238 61.1735C24.9714 61.3187 24.8833 61.5359 24.8611 61.7601C24.8501 61.9821 24.9125 62.2094 25.1759 62.3282C25.3348 62.3794 25.4473 62.4397 26.024 62.3353C26.1937 62.2976 26.394 62.2607 26.8108 62.0889C27.0659 61.9716 27.3289 61.8775 27.8727 61.4444C28.0882 61.2698 28.5087 60.8681 28.8137 60.3417C29.1608 59.7793 29.4257 58.8859 29.3904 58.1092C29.2746 56.4431 28.6667 55.9 28.3859 55.5159C28.0889 55.1781 27.8811 55.0229 27.7199 54.9031C27.4083 54.6818 27.2312 54.6053 27.0846 54.543C26.842 54.4467 26.2501 55.3947 26.3477 55.4756ZM66.7883 71.9439C65.0898 71.8839 65.0116 73.6661 66.3378 73.8338C67.7296 73.9252 67.3348 71.9287 66.7883 71.9439ZM66.5117 72.5689C67.07 70.9961 63.682 71.298 64.6454 72.7913C64.7017 72.8804 66.4806 72.6627 66.5117 72.5689ZM45.3563 31.2213C45.3868 31.2355 45.9725 30.7483 45.9653 30.7133C45.7611 29.874 44.5816 30.8558 45.3563 31.2213ZM77.1212 80.1353C76.8461 79.8838 76.3073 79.8999 75.8856 79.9924C75.6107 80.0864 75.427 80.2949 75.6198 80.6026C75.6464 80.6454 75.6793 80.6836 75.7168 80.7171C76.4639 81.2064 77.7342 80.6477 77.1212 80.1353ZM25.7091 39.1046C25.7222 39.1409 26.2559 39.192 26.2516 38.9901C26.2388 38.3403 25.4893 38.4966 25.7091 39.1046ZM93.3263 68.1533C93.1583 71.7097 89.8201 72.4295 90.6734 69.6339C90.7959 69.0823 91.4109 70.9331 91.7539 70.2591C92.1246 69.504 91.6796 68.807 91.3847 68.2108L91.389 68.2693C91.2755 68.0591 91.1499 67.9393 91.1942 68.0302C91.2158 68.0691 91.303 68.1268 91.358 68.1042C91.4142 68.0849 91.4199 68.0021 91.3663 67.8898C91.3298 67.8213 91.5132 67.3241 92.0815 67.2372C92.3694 67.2048 92.7089 67.4107 92.9189 67.6117C93.1354 67.8142 93.2707 67.9905 93.315 68.0724C93.3157 68.0817 93.3184 68.1094 93.3185 68.1187C93.3264 68.1358 93.3305 68.1494 93.3305 68.1591C93.3291 68.1572 93.3277 68.1552 93.3263 68.1533ZM24.9973 58.3223C24.9895 58.3099 24.8489 58.3079 24.6886 58.3004C24.4782 58.2915 24.2295 58.2876 24.2196 58.3055C23.987 58.734 24.3714 58.9454 24.6943 58.8955C24.9586 58.8603 25.1868 58.6453 24.9973 58.3223ZM24.4927 17.3538C24.5355 17.3458 24.753 16.9178 24.9436 16.7321C25.1296 16.5253 25.299 16.3531 25.2952 16.3219C25.167 15.6832 24.6238 15.715 24.1904 16.0868C23.6514 16.5444 23.6947 17.4619 24.4927 17.3538ZM18.7601 87.5969C19.6706 87.0361 20.5228 87.106 20.9807 88.1526C20.2296 87.9776 19.4785 87.8224 18.7601 87.5969Z" fill="var(--stroke-0, #345900)"/>
</svg>
