<svg preserveAspectRatio="none" width="100%" height="100%" overflow="visible" style="display: block;" viewBox="0 0 139.369 176.21" fill="none" xmlns="http://www.w3.org/2000/svg">
<path id="Vector 133" d="M1.86263 162.28C3.01929 162.009 4.62238 162.086 5.82 162.238C6.19552 162.285 6.06644 162.73 6.32979 162.78C6.84279 162.875 7.25745 162.601 7.73153 162.716C7.89018 162.755 7.82534 163.45 7.99217 163.475C8.19776 163.506 8.39669 163.512 8.57624 163.502C9.31333 163.444 9.99722 163.205 10.7679 163.122C13.3733 162.848 15.6863 162.278 18.8451 161.543C21.8695 160.948 24.2927 160.686 26.9198 160.306C28.6864 160.06 30.9202 160.234 32.5815 159.574C32.7755 159.496 32.5213 158.95 32.5483 158.894C32.9632 158.031 33.0428 159.236 33.4644 159.295C33.5685 159.31 33.6715 159.322 33.7729 159.332C34.9989 159.56 36.6254 158.945 37.8852 158.189C38.4641 157.84 37.3934 157.019 38.2697 157.364C38.3308 157.386 38.4142 158.031 38.6125 158.02C39.0574 157.995 39.7562 157.578 40.08 157.494C40.7051 157.337 40.8021 157.289 41.3634 157.059C42.133 156.751 43.1708 156.655 43.9445 156.185C44.1099 156.083 43.6307 155.585 43.8746 155.368C43.9803 155.274 44.181 155.174 44.4069 155.092C44.6948 154.987 45.0091 154.919 45.1813 154.942C45.4863 154.981 45.571 155.491 45.6585 155.58C46.3868 156.338 46.7175 154.741 46.815 154.664C48.5723 153.323 50.5522 153.323 52.369 152.516C53.743 151.903 55.0925 151.002 56.3254 150.416C57.2382 149.983 58.1303 149.664 58.7494 149.35C59.2442 149.073 59.7296 148.77 60.1996 148.397C60.3331 148.292 59.7264 147.802 59.8867 147.673C61.5885 146.306 63.3045 145 65.2623 143.901C65.4599 143.79 65.6974 144.471 65.9228 144.388C67.2827 143.893 69.8015 143.213 68.23 140.656C68.5872 140.36 68.9741 140.023 69.3932 139.732C69.7963 139.449 70.2273 139.212 70.7011 139.087C71.328 138.922 71.553 139.78 71.7352 139.077C71.7769 138.918 71.1664 138.666 71.264 138.46C71.6697 137.6 72.4569 136.926 72.7401 135.999C72.7962 135.81 72.3113 135.513 72.2603 135.41C71.8535 134.573 73.3793 134.788 73.5555 134.71C74.8632 134.138 75.1245 133.219 75.7446 132.267C75.8888 132.045 75.0785 131.906 75.1924 131.68C75.395 131.283 75.6159 130.886 75.8545 130.497C76.4034 129.61 76.9598 128.927 77.6236 128.277C77.8508 128.058 78.253 128.638 78.3882 128.553C78.9793 128.172 78.0125 127.409 78.5585 127.031C78.672 126.951 79.1053 127.305 79.1694 127.318C80.1758 127.51 79.1937 126.522 79.2157 126.43C79.496 125.202 81.0959 125.304 81.5302 124.215C81.5807 124.084 80.8214 123.979 80.9973 123.638C82.003 121.686 83.2866 119.793 84.7501 118.098C85.0047 117.805 85.2618 117.52 85.5202 117.243C85.7866 116.955 86.107 117.454 86.1752 117.466C87.2555 117.626 86.1963 116.73 86.2104 116.6C86.3543 115.585 87.7824 115.275 86.5961 113.985C87.34 112.842 87.9065 111.535 88.453 110.211C89.5328 107.585 90.4969 104.905 92.4104 102.593C92.4454 102.548 93.0374 102.877 93.1046 102.787C93.9198 101.697 92.8566 101.561 91.9643 100.31C91.7403 99.9962 93.4116 99.9128 93.5375 99.8967C94.0013 99.8399 94.8601 100.393 94.9604 100.354C95.7589 100.013 92.6302 98.9682 92.8992 98.2251C92.9128 98.2037 93.448 98.5083 93.5274 98.4665C93.7754 98.3382 93.6195 98.06 93.8837 97.9425C94.4953 97.6688 96.0618 98.049 95.4184 97.0666C95.3433 96.9575 93.9266 96.5583 93.8085 96.036C93.7932 95.9651 93.8009 95.8921 93.8376 95.8175C93.9639 95.5697 94.326 94.3904 94.545 94.1007C94.7655 93.8123 95.267 94.2206 95.2994 94.2055C96.3435 93.5569 96.549 93.9976 97.8189 93.8898C99.0832 93.7776 96.363 93.0821 96.1179 92.8118C95.8734 92.5444 96.6974 92.0701 96.9622 91.9705C97.2278 91.8723 97.5393 92.1782 97.7049 92.0682C98.7904 91.319 96.4809 91.2722 96.1356 90.8464C95.308 89.8586 97.4626 89.803 97.8145 89.146C97.9084 88.9708 97.4131 89.0226 97.4041 88.8513C97.3708 88.1769 98.0858 87.891 97.6051 87.0685C97.5289 86.9239 96.3599 86.2207 97.3025 85.9463C97.4388 85.904 97.9425 86.1036 98.0808 85.838C98.1513 85.7012 98.216 85.5243 98.2627 85.3312C98.3536 84.9479 98.3817 84.5074 98.277 84.1999C98.159 83.8576 97.2947 84.2195 97.571 83.804C97.6938 83.6186 98.1853 83.9819 98.374 83.6277C98.5642 83.2751 98.5471 82.3579 98.5251 82.0098C98.5042 81.6615 97.8582 81.8597 97.8144 81.8318C97.5635 81.6657 97.2387 81.0138 97.2374 80.9555C97.1518 79.2727 97.4035 77.5983 97.5882 75.9213C97.7244 74.6848 97.81 73.4557 97.6428 72.2027C97.613 71.9733 96.9316 72.1332 96.92 72.0982C96.6265 71.3019 98.4479 71.9127 99.0516 71.3598C97.6662 71.4506 97.9143 71.1168 97.7607 70.5624C97.6857 70.2916 97.1494 70.4403 97.0944 70.4156C96.2784 70.0163 97.3319 69.7362 97.5474 69.6651C98.3401 69.4035 97.4051 69.1125 97.9358 68.9345C98.4625 68.7592 99.2391 69.1718 99.2325 68.6443C98.7375 68.4898 97.438 68.8809 97.2309 68.4688C96.4424 66.9161 97.5311 64.0554 97.704 62.8182C97.8722 61.5796 97.81 61.1746 98.0562 60.4415C98.1973 60.0318 98.2068 59.7828 98.154 59.5547C98.008 59.2034 97.4583 59.1554 97.2435 58.5949C96.9277 57.7745 99.2091 58.4962 99.7295 58.4633C100.249 58.4277 99.7501 58.2259 100.047 58.1278C100.344 58.0278 100.642 58.3826 100.794 58.0662C100.947 57.7488 100.173 56.7259 99.6614 56.541C98.5778 56.143 97.3506 56.3901 97.8797 55.579C97.9109 55.5322 98.5057 55.7783 98.594 55.5947C99.273 54.1435 99.5269 52.5569 100.201 51.1133C100.295 50.9148 100.946 51.2167 101.008 51.103C101.661 49.9317 100.434 50.1794 99.2874 49.2435C100.582 49.6129 101.539 49.5797 101.993 49.1159C102.123 48.9875 102.212 48.822 102.259 48.6184C102.386 48.0735 101.632 48.0005 101.203 47.509C101.073 47.3604 101.676 47.0871 101.352 46.9273C100.294 46.3964 98.9325 46.4484 99.7065 45.578C99.7424 45.5407 100.314 45.8507 100.394 45.7098C100.909 44.8198 99.7818 44.359 99.9745 43.2651C100.125 42.4082 101.319 41.216 101.763 40.3639C103.579 41.0464 103.467 40.069 102.35 39.2472C102.622 38.6873 102.797 38.0349 103.19 37.5499C103.326 37.3815 103.797 37.7171 103.863 37.7154C104.892 37.7078 103.787 36.9707 103.79 36.828C103.796 36.7312 103.807 36.6373 103.822 36.5458C104.08 35.1416 105.311 34.4958 105.146 32.9139C105.139 32.8553 104.001 32.1266 105.046 32.2745C105.116 32.2881 105.425 32.99 105.789 32.44C106.157 31.8844 107.4 31.2079 107.345 30.1169C107.331 29.8545 106.703 28.7973 107.664 28.8819C107.793 28.8948 108.084 29.1571 108.311 29.2017C109.035 29.3416 107.971 28.4781 109.118 28.8362C110.264 29.1947 111.346 29.1215 111.174 27.9354C111.171 27.8992 110.417 27.1555 110.55 26.9124C110.553 26.9076 110.556 26.903 110.559 26.8987C110.833 26.5377 111.378 26.1329 111.638 25.741C111.763 25.5528 111.128 25.2925 111.14 25.2532C111.696 23.7834 112.815 23.2384 113.982 22.0809C114.196 21.8701 113.973 20.6337 114.9 20.6043C115.914 20.5767 118.148 23.0717 118.386 21.4709C118.478 20.838 115.658 17.6597 118.01 18.192C118.162 17.8545 118.353 17.5544 118.568 17.2797C119.586 15.9852 121.094 15.314 121.881 13.7325C121.924 13.6469 121.355 12.5881 121.535 12.4501C121.797 12.2517 122.292 12.5446 122.488 12.4238C123.327 11.9246 123.732 11.013 124.531 10.5124C124.834 10.3228 125.065 10.8509 125.423 10.6318C125.779 10.4153 125.584 9.64446 126.259 9.61623C126.771 9.59693 127.967 10.6198 128.53 10.4601C127.724 9.20013 128.067 9.01035 128.436 8.30041C128.507 8.16345 128.103 7.80469 128.122 7.71732C128.193 7.35168 128.628 7.58422 128.676 7.20599C128.688 7.11469 128.413 6.68401 128.408 6.58519C128.369 6.03364 128.85 6.08519 129.254 6.21874C129.473 6.29483 129.674 6.39221 129.747 6.43006C130.536 6.82268 130.348 6.15137 130.799 6.2129C131.251 6.27333 131.027 6.86851 131.462 6.79934C132.367 6.65312 133.213 5.99086 133.929 5.53927C134.213 5.35652 133.643 4.91836 133.674 4.87904C134.157 4.34738 135.148 4.55467 134.709 3.21239C137.075 5.85161 134.868 2.69483 136.085 2.71901C136.182 2.72139 137.197 4.03924 137.085 4.41015C136.971 4.7816 136.299 4.61007 136.165 5.159C136.133 5.2883 136.53 6.89696 136.517 7.01913C136.421 7.97122 134.966 5.95931 134.864 5.86399C133.742 4.84593 134.097 6.62459 134.008 6.82311C133.605 7.73036 132.817 7.83431 132.437 8.53827C132.186 8.99641 133.038 10.381 132.702 10.5408C132.52 10.6277 132.319 10.6573 132.12 10.6515C131.119 10.6171 130.031 9.75735 130.152 11.6368C130.184 12.1166 131.348 13.4762 129.89 12.7637C129.8 12.7172 128.576 11.9962 128.739 12.8632C128.76 12.9722 129.053 13.3994 129.03 13.4676C128.873 13.9151 128.431 13.7197 128.211 14.1178C127.991 14.5155 127.78 15.0338 127.317 15.1656C127.039 15.2442 126.17 14.6999 125.917 14.5998C125.193 14.3052 125.59 15.4246 124.885 14.9419C124.164 14.4678 123.725 13.1891 122.872 13.2152C123.732 14.2493 124.596 15.328 125.457 16.3713C124.453 17.1819 123.234 17.7748 122.381 18.8121C122.277 18.941 122.927 19.2982 122.832 19.4473C122.628 19.7633 122.323 19.9583 122.022 20.1766C121.727 20.3933 121.436 20.6315 121.261 21.0083C120.989 21.603 121.157 22.6275 120.901 23.2742C119.432 22.6577 119.232 23.7816 118.684 24.2845C118.491 24.4625 118.172 24.2033 117.955 24.2714C117.143 24.5361 118.432 25.0799 118.493 25.359C118.755 26.5487 116.222 24.7973 115.718 25.6333C115.689 25.6782 116.667 27.1359 116.703 27.2629C116.937 28.0888 116.184 27.0078 115.89 27.2171C115.353 27.5993 114.781 27.7363 114.77 28.609C114.769 28.8236 115.166 29.5544 114.776 29.7244C114.699 29.7594 114.593 29.7735 114.449 29.7592C114.332 29.7479 113.897 29.4224 113.846 29.4419C112.96 29.8209 114.371 30.778 114.606 31.4724C114.841 32.1659 113.479 32.1062 113.116 32.0436C112.178 31.8825 112.955 31.6015 112.893 31.5381C112.162 30.7825 112.031 31.3094 111.749 31.592C110.309 30.7412 110.097 31.2637 111.461 31.8893C111.611 31.9567 111.641 31.6177 111.749 31.592C112.945 32.7644 112.817 33.3593 111.171 33.1121C110.401 32.9974 109.832 32.3146 109.612 33.2777C109.515 33.7131 110.588 34.158 110.676 34.6292C110.882 35.6967 109.439 36.0976 109.225 36.9144C109.151 37.2056 109.842 37.2268 109.812 37.4323C109.742 37.9693 109.125 38.186 109.158 38.739C109.158 38.7399 109.159 38.7409 109.159 38.7418C109.183 38.8012 109.817 38.9304 109.757 39.0991C109.309 40.3943 108.481 41.3458 107.981 42.6718C107.738 43.3115 107.681 44.5755 107.399 45.2059C106.907 46.2994 105.575 47.4401 105.567 48.46C105.562 49.1157 106.24 49.1253 106.622 49.4764C106.859 49.6877 106.849 49.8819 106.72 50.0468C106.43 50.4698 105.578 50.809 105.4 50.8706C105.391 50.8734 105.345 50.2685 104.955 50.5138C104.228 50.5665 105.398 50.8641 105.4 50.8706C105.229 50.9269 104.879 52.0627 104.967 52.3164C105.015 52.4533 105.643 52.4836 105.656 52.5525C105.955 54.1915 105.903 55.772 105.386 57.4236C105.369 57.4515 104.683 57.3128 104.652 57.3795C104.21 58.3194 104.969 59.0754 105.321 60.0642C105.43 60.3701 105.472 60.6636 105.439 60.9284C105.49 60.7322 105.38 60.9494 105.188 61.0444C104.992 61.1636 104.689 61.2861 104.265 61.3967C104.373 61.9171 103.798 62.704 103.455 63.1654C103.111 63.6315 104.469 63.7526 104.493 63.7968C105.302 65.1292 104.505 65.8695 104.361 67.2431C104.29 67.8965 104.477 69.2065 104.626 69.9164C104.746 70.4758 104.428 70.8161 104.636 71.3369C104.663 71.4063 105.268 71.3319 105.292 71.353C106.021 71.9211 104.538 71.6582 104.275 71.7799C103.317 72.2241 102.807 72.5048 103.271 73.2424C103.378 73.4178 105.518 73.8733 105.649 74.1838C105.816 74.5819 105.048 74.4463 105.243 74.8677C105.259 74.9038 105.73 74.8857 105.716 75.1456C105.707 75.3258 105.695 75.5097 105.68 75.6966C105.594 76.7257 105.45 77.8523 105.533 78.9869C105.544 79.1694 106.283 78.9068 106.312 79.1713C106.447 80.4111 106.455 81.8823 106.089 83.1984C105.996 83.5212 105.475 83.311 105.319 83.3788C104.373 83.7869 105.722 84.4226 105.744 84.5292C105.843 84.9477 105.882 85.3496 105.881 85.7392C105.852 87.9736 104.765 89.6345 104.764 91.7465C104.77 91.8828 105.928 93.2806 104.592 93.3945C104.502 93.4086 103.146 93.4936 103.884 94.1059C103.93 94.1456 104.644 94.0565 104.444 94.51C104.246 94.9536 104.443 95.8305 103.552 96.2349C103.271 96.3651 101.905 96.4297 102.688 97.3204C102.746 97.375 104.634 99.0157 103.017 98.812C102.801 98.7847 101.718 98.3801 101.633 98.7486C101.615 98.8309 101.649 98.9539 101.758 99.1331C101.871 99.3169 102.308 99.2089 102.411 99.6238C102.571 100.263 101.903 100.79 102.383 101.673C102.469 101.826 103.375 102.687 102.421 102.76C102.272 102.771 101.784 102.467 101.653 102.641C101.026 103.468 101.017 104.567 100.298 105.365C100.044 105.647 99.2565 105.155 98.8975 105.411C98.5387 105.668 98.055 106.275 98.3049 106.783C98.5548 107.292 100.061 107.421 99.9606 108.004C99.5868 110.154 98.296 111.922 97.2463 113.82C97.0603 114.156 96.8828 114.494 96.7177 114.842C96.5519 115.191 97.1571 115.091 96.9447 115.622C96.264 117.488 94.7043 121.671 92.7956 122.598C92.6808 122.659 92.5762 122.705 92.481 122.738C91.3517 123.09 91.5734 121.556 90.7801 122.231C90.3706 122.579 91.5281 123.928 91.5091 124.062C91.3432 125.381 90.2663 125.714 89.8942 126.765C89.818 126.981 90.5164 127.15 90.4454 127.33C90.2036 127.953 89.5836 128.381 89.3046 128.942C89.1786 129.198 89.6508 129.427 89.4817 129.625C89.0791 130.107 88.6061 130.455 87.8731 130.709C87.8061 130.733 87.4477 130.077 87.1866 130.453C86.7644 131.064 85.8745 131.582 85.8479 132.569C85.8452 132.857 86.851 133.501 85.8663 133.522C85.6614 133.526 84.5186 132.648 85.2408 133.832C85.364 134.024 86.2211 135.809 85.0742 135.623C84.9114 135.593 84.4866 135.486 84.1619 135.407C83.862 135.391 83.611 135.427 83.6057 135.599C83.608 135.653 84.2504 135.829 84.1636 136.095C83.8432 137.034 83.2369 137.866 82.8516 138.808C82.7487 139.062 83.5247 139.095 83.3499 139.466C82.8742 140.481 81.9349 141.515 81.1242 142.252C80.8255 142.521 80.5489 141.973 80.4837 141.96C79.4306 141.743 80.3136 142.749 80.2804 142.919C80.0606 143.956 79.1203 144.144 78.6901 144.923C78.5698 145.136 79.1611 145.404 79.1734 145.477C79.2694 146.215 78.6457 145.206 78.3468 145.37C77.8394 145.645 77.4188 146.034 77.0425 146.461C76.7905 146.746 76.5566 147.047 76.3356 147.335C76.1298 147.604 76.9223 147.815 76.7288 148.053C75.5949 149.466 74.2203 150.727 72.6872 151.595C72.3974 151.758 72.1689 151.208 72.0331 151.159C71.0949 150.808 71.4132 152.158 71.3705 152.35C71.1892 153.217 70.6548 153.024 70.2396 153.498C68.7807 155.17 66.6873 156.694 64.6628 157.913C63.4677 158.656 62.6167 159.024 61.8169 159.388C58.2291 160.943 55.6011 161.457 52.5805 162.894C52.3888 162.984 52.8738 163.587 52.7115 163.673C51.3652 164.363 49.963 164.853 48.5778 165.399C47.8448 165.687 47.1171 166 46.4082 166.379C46.2461 166.465 46.7622 167.013 46.5085 167.173C45.9934 167.505 45.2688 167.77 44.6061 167.806C44.2831 167.825 44.4252 167.108 44.1026 167.139C43.3543 167.21 42.6178 167.468 41.952 167.868C41.6663 168.041 42.4048 168.515 42.0094 168.688C40.4923 169.345 38.9756 170.074 36.6214 170.572C35.2441 170.822 33.9278 170.899 32.5748 170.761C32.3639 170.74 31.8958 169.34 31.5406 169.7C31.5917 170.105 31.6896 170.574 31.7635 171.003C28.3587 171.917 24.5681 172.211 21.9231 172.731C21.5658 172.804 21.0707 172.938 20.5612 173.089C20.4048 173.135 20.9108 173.789 20.6062 173.884C18.8216 174.445 16.9076 175.282 14.6316 175.088C14.4046 175.07 14.1629 173.722 13.614 174.077C13.5189 174.142 12.6521 174.544 12.4782 174.888C12.4558 174.939 12.7718 175.521 12.4762 175.609C12.0612 175.729 11.6405 175.833 11.2071 175.92C9.63496 176.234 8.20954 176.271 6.82465 176.136C6.53285 176.105 6.75778 175.395 6.55083 175.367C5.09519 175.169 3.60609 175.81 2.19495 175.262C1.2531 174.89 1.54468 173.7 1.03448 172.561C0.963643 172.401 0.410812 172.387 0.374025 171.714C0.287618 170.024 0.504164 168.169 0.378655 166.369C0.348403 165.982 -0.23424 166.402 0.106652 165.463C0.131164 165.401 0.55208 165.084 0.653967 164.762C0.721261 164.541 0.574074 163.86 0.713141 163.575C0.852771 163.289 1.03596 163.857 1.2762 163.516C1.51492 163.17 1.36636 162.399 1.86263 162.28ZM101.937 65.2919C101.272 65.7275 103.662 65.8542 103.103 65.3536C103.073 65.3296 101.97 65.2697 101.937 65.2919ZM121.957 16.5362C120.799 16.2141 121.667 17.5636 122.529 17.8351C123.377 18.122 122.303 16.6402 121.957 16.5362ZM125.928 12.0928C124.878 11.8339 126.846 14.6002 126.99 13.639C126.999 13.5843 125.988 12.1085 125.928 12.0928ZM3.17242 172.125C3.16376 172.094 2.77638 172.088 2.76919 172.12C2.60878 172.892 3.39267 172.902 3.17242 172.125ZM130.562 7.98285C130.488 7.93859 130.42 7.92393 130.361 7.93128C130.065 7.97076 129.971 8.56307 130.42 8.83825C130.621 8.96151 130.782 8.85814 130.845 8.67826C130.915 8.47083 130.856 8.15774 130.562 7.98285ZM98.9602 89.3737C98.9237 89.3751 98.8348 89.6296 99.0324 89.6687C99.6702 89.7934 99.573 89.3779 98.9602 89.3737ZM139.35 2.01058C137.97 2.8345 135.626 1.03037 137.183 0.341552C137.466 0.2147 137.153 1.45072 137.617 1.43603C138.476 1.3986 137.819 -0.285837 138.938 0.0423902C139.154 0.0969049 139.446 1.96362 139.35 2.01542C139.35 2.0138 139.35 2.01219 139.35 2.01058ZM99.0571 65.4776C99.0251 65.4872 98.9859 65.857 99.0172 65.8661C99.7717 66.0837 99.8508 65.342 99.0571 65.4776ZM92.6688 103.751C92.5988 103.746 92.2315 104.525 92.2792 104.574C93.2766 105.441 94.0249 103.861 92.6688 103.751ZM101.817 40.3676C101.242 39.716 101.335 39.214 102.349 39.2486C102.155 39.614 102.004 39.9958 101.817 40.3676Z" fill="var(--stroke-0, #005935)"/>
</svg>
