<svg preserveAspectRatio="none" width="100%" height="100%" overflow="visible" style="display: block;" viewBox="0 0 146.027 91.9218" fill="none" xmlns="http://www.w3.org/2000/svg">
<path id="Vector 181" d="M54.5884 18.5932C53.0337 18.6925 51.1887 18.6263 49.3965 18.4798C48.3017 18.3901 47.2395 18.2704 46.2894 18.1409C45.4962 18.0351 45.9105 17.6167 45.3673 17.5247C44.31 17.3455 43.312 17.5407 42.2712 17.3316C41.9227 17.2602 42.3662 16.5938 41.9997 16.5343C40.0102 16.2135 38.1142 16.3643 36.0965 16.2032C29.5129 15.6833 22.953 15.3639 16.4891 15.2711C14.964 15.2545 13.4669 15.2541 12.0336 15.3041C11.3295 15.329 10.624 15.3705 10.0986 15.4297C9.85372 15.4527 9.60985 15.5089 9.73198 15.4605C9.802 15.4182 10.0021 15.3937 10.562 14.9596C10.8377 14.7413 11.2072 14.3429 11.444 13.9227C11.6848 13.5047 11.7608 13.1896 11.7422 13.2484C11.7016 13.3521 11.663 13.468 11.6278 13.595C11.4527 14.2095 11.298 15.1543 11.3034 16.2535C11.2052 16.6396 11.3445 17.3061 12.1919 18.1449C12.0046 17.9621 11.9955 17.9723 12.0112 17.9764C12.0312 17.9873 12.0924 18.0227 12.1682 18.0618C12.3202 18.1408 12.5306 18.2373 12.7516 18.3253C13.0546 18.4444 13.1482 17.8301 13.2248 17.8145C14.4414 17.5812 13.6374 18.5111 14.2187 18.9503C16.6117 20.698 19.8388 21.9618 22.6828 22.7561C23.9042 23.0936 23.1113 21.5621 24.079 22.6094C24.1477 22.6812 23.6324 23.1615 23.9382 23.3422C24.6032 23.7366 25.9829 24.1169 26.5776 24.3671C26.5931 24.3737 26.608 24.3803 26.6222 24.3867C27.624 24.8347 27.8028 24.883 28.8042 25.19C30.1712 25.6097 31.7824 26.3303 33.3614 26.523C33.6979 26.562 33.3969 25.842 33.9422 25.8457C34.4859 25.8514 35.8707 26.1779 36.3206 26.4128C36.7689 26.6495 36.476 27.1082 36.5396 27.2375C37.0648 28.3282 38.9592 27.2796 39.1757 27.2802C40.2379 27.303 41.2512 27.4067 42.2393 27.5606C44.9092 27.9753 47.388 28.7182 50.1242 29.0674C51.9956 29.3112 53.8979 29.4156 55.9847 29.7068C56.2722 29.7499 56.5626 29.7974 56.8971 29.868C57.2638 29.9611 57.5103 29.96 58.3684 30.3476C58.6235 30.493 58.9036 30.5638 59.5518 31.222C59.8398 31.5384 60.3726 32.2046 60.5039 33.2928C60.6442 34.4151 60.1705 35.3842 59.8783 35.787C59.2025 36.6805 58.916 36.737 58.6478 36.9311C58.4205 37.0672 58.2481 37.1482 58.1054 37.2125C57.5615 37.4478 57.2762 37.5197 56.9693 37.6085C56.1768 37.8226 55.555 37.9346 54.9183 38.0468C52.4653 38.4649 50.1954 38.7242 47.7398 39.2997C47.4181 39.3744 47.9562 40.0308 47.5616 40.124C43.4038 41.1228 39.1667 41.9063 35.309 42.6053C34.9321 42.6775 35.1855 41.8924 34.7943 41.9289C34.5517 41.9556 34.3014 41.9808 34.0533 42.0083C31.5048 42.3227 27.9779 43.1845 28.3236 46.0914C27.4633 46.542 26.4888 47.1482 25.4206 47.6944C25.1903 47.7215 24.8943 47.8074 24.5311 47.9696C23.9105 48.3086 23.5532 47.3984 23.447 48.3687C23.4319 48.5919 24.1159 48.5761 24.0614 48.8741C23.8409 50.1155 23.4451 51.8057 23.7099 53.4745C23.7648 53.8143 24.3348 53.7424 24.4334 53.8403C24.7924 54.2109 24.711 54.6824 24.5023 55.1446C24.2491 55.465 23.8424 55.8396 23.8017 55.9652C23.2698 57.7215 24.1785 59.0972 25.1471 60.7856C25.3809 61.1875 25.754 60.3288 26.0006 60.6945C26.4203 61.318 26.8722 61.9716 27.3385 62.6775C27.9443 63.6048 29.0156 64.8196 30.0207 65.9925C30.3598 66.3874 29.5777 66.5684 29.7205 66.7836C30.3801 67.7358 31.3453 66.9382 32.0212 67.7994C32.167 67.98 31.7286 68.3426 31.7243 68.4162C31.6664 69.5774 32.9433 68.8332 33.0925 68.9054C35.0409 69.8165 35.392 71.7555 37.274 72.718C37.4959 72.8285 37.403 71.9609 37.9815 72.2722C37.9888 72.2761 37.9962 72.2802 38.0038 72.2845C40.271 73.5736 42.6864 74.8052 45.1482 75.9644C46.7017 76.7038 48.5879 77.3479 50.3995 77.9811C51.0847 78.2154 50.4747 78.6246 50.5057 78.6978C51.0217 79.8451 51.7765 78.6048 52.0098 78.5982C53.8975 78.5889 55.4442 79.9985 56.9585 78.5958C60.283 79.3613 63.6821 79.7799 67.0834 80.2013C71.4632 80.7307 75.9747 81.003 80.4668 81.9893C80.567 82.0095 80.3637 82.6733 80.5641 82.7107C82.9815 83.164 82.5475 82.1062 84.1819 80.8747C84.5966 80.5654 85.7859 82.1314 85.8958 82.2464C86.2854 82.6706 85.8498 83.6584 85.9816 83.7418C87.0701 84.3976 86.9619 81.0967 88.4479 81.1262C88.4942 81.1326 88.2869 81.7355 88.4102 81.7984C88.7887 81.9956 89.1838 81.7624 89.56 81.9792C90.3785 82.4586 90.6737 83.9481 91.8705 83.2936C91.9269 83.2633 91.9851 83.2284 92.0451 83.1885C92.2158 83.0701 92.0064 81.1997 93.2988 81.3077C93.8192 81.3583 96.0833 81.3176 96.7195 81.4111C97.3545 81.5125 96.9416 82.1285 96.9872 82.1532C98.7378 82.8825 98.1015 83.236 99.0569 84.3627C100.038 85.4726 99.5734 82.6922 99.8969 82.352C100.216 82.0163 101.523 82.5356 101.867 82.7155C102.208 82.9007 101.869 83.3328 102.167 83.4232C104.147 83.9843 102.759 81.9263 103.272 81.3932C104.277 80.3009 105.511 81.4679 106.723 81.7689C106.913 81.8202 107.1 81.8465 107.285 81.8327C107.637 81.8054 107.251 81.4115 107.538 81.2953C108.66 80.834 109.567 81.225 110.722 80.1955C110.912 80.0282 111.572 78.4627 112.604 79.0649C112.75 79.1528 112.637 79.7445 113.19 79.6686C114.013 79.5559 115.443 79.1746 116.225 78.738C116.807 78.4132 115.826 77.8335 116.698 77.8312C117.08 77.834 116.589 78.5136 117.295 78.4799C118 78.4427 119.656 77.9352 120.292 77.7491C120.308 77.7445 120.322 77.7397 120.337 77.7347C120.891 77.5354 120.4 77.0286 120.439 76.974C120.682 76.652 121.745 76.013 121.839 75.9795C125.88 74.692 129.719 72.9847 133.3 70.4281C133.989 69.9332 134.608 69.3339 135.121 68.6435C135.35 68.3334 134.66 68.0895 134.69 68.0376C135.236 66.8848 136.056 68.8042 137.135 68.3453C135.91 67.6719 136.457 67.3666 136.782 66.4572C136.932 66.019 136.337 65.9915 136.309 65.9287C135.874 64.9996 136.992 65.0393 137.245 64.9974C138.155 64.8762 137.45 64.0732 138.047 63.9554C138.645 63.8116 139.155 64.7834 139.446 63.8277C139.046 63.4304 137.609 63.7141 137.604 62.9914C137.652 60.3923 138.836 55.5418 138.685 53.2834C138.683 53.2003 138.68 53.12 138.676 53.0423C138.574 51.037 138.362 50.373 138.283 49.1551C138.048 46.8787 137.313 47.9188 136.476 46.8518C135.592 45.862 137.973 45.4525 138.362 45.0632C138.734 44.6548 138.161 44.6717 138.286 44.3066C138.407 43.9362 138.995 44.3051 138.778 43.676C138.562 43.0035 136.801 42.0695 136.251 42.2501C135.065 42.5468 134.636 43.9565 133.91 42.2917C133.868 42.1902 134.573 42.1083 134.391 41.7417C134.383 41.7272 134.376 41.7127 134.369 41.6982C133.345 39.422 130.838 37.639 128.775 35.7595C128.481 35.4954 129.152 35.1075 128.986 34.9482C127.235 33.2914 127.311 34.7343 125.541 35.1573C126.695 33.8434 126.647 32.5628 125.104 31.6222C124.91 31.5044 124.745 31.443 124.598 31.4213C124.002 31.3237 123.731 31.8115 123.069 31.9724C122.835 32.0341 122.288 31.297 122.048 31.604C121.302 32.6138 121.656 33.9866 120.192 33.1717C120.122 33.1348 120.467 32.5504 120.215 32.4684C118.551 31.962 118.193 33.1647 116.285 33.1438C114.97 33.1351 112.77 32.4306 111.073 32.0845C110.834 32.0344 110.592 31.9917 110.373 31.9611C110.549 30.0272 108.865 30.3603 108.119 31.6563C106.995 31.5323 105.769 31.538 104.687 31.2933C104.315 31.2097 104.592 30.6623 104.548 30.5991C103.872 29.6083 103.311 30.8819 103.062 30.9198C100.391 31.2747 98.2818 30.1822 95.7044 31.0186C95.6133 31.0488 95.4002 32.3877 94.7732 31.371C94.7325 31.3011 95.5984 30.7304 94.4113 30.6235C93.2207 30.5163 91.0205 29.6823 89.3295 30.2174C88.9199 30.3462 87.8497 31.3843 87.0825 30.4838C86.9786 30.3616 87.1213 29.9826 86.9751 29.7587C86.8119 29.5115 86.6655 29.5111 86.5223 29.5669C86.2365 29.6711 85.9769 29.9764 85.6281 29.1966C85.1062 28.0036 83.9475 27.0646 82.2331 27.7275C82.1795 27.7463 81.7 28.7912 81.1746 28.7271C80.3398 28.6247 79.1841 28.2817 78.3164 28.1655C77.9014 28.1096 78.069 28.8111 77.9951 28.8128C77.456 28.8032 76.9262 28.7483 76.42 28.625C76.2309 28.5703 76.0895 28.5565 75.7913 28.3571C75.6913 28.2821 75.573 28.1775 75.4811 27.9882C75.3466 27.753 75.401 27.3439 75.4874 27.2109C75.6781 26.8753 75.8009 26.8476 75.9085 26.7664C76.295 26.5454 76.5219 26.5053 76.8042 26.4274C77.3258 26.3009 77.8298 26.2341 78.3469 26.1756C79.3699 26.0638 80.4445 26.0015 81.6627 25.8411C82.2199 25.7684 83.5448 24.5397 84.7425 24.9621C85.3837 25.1812 85.6635 26.0925 86.0654 26.8137C86.502 27.4939 86.8554 28.2006 88.4735 27.2017C88.6279 27.0998 88.7841 26.9813 88.938 26.8447C89.7986 26.1162 89.7545 24.3611 89.3065 23.2673C88.8973 22.1101 88.4728 21.4748 89.5493 20.4226C89.1141 17.847 88.7018 15.5204 87.9265 13.2051C87.4762 11.8859 86.5907 10.6769 85.389 9.9217C85.2257 9.81098 84.0606 10.3373 83.7847 10.1112C83.3596 9.75659 83.3915 9.12917 83.049 8.87426C81.6002 7.8033 79.8912 7.62538 78.3094 7.02253C77.702 6.79829 78.0871 6.32736 77.3449 6.07046C76.5964 5.81861 75.9066 6.39659 74.9738 5.79282C74.7441 5.64499 74.5494 5.37453 74.3465 5.05965C73.9162 4.39614 73.468 3.54298 72.7584 3.2835C72.428 4.74552 71.7081 4.5601 70.368 4.77003C70.1109 4.81211 70.3042 5.36387 70.1801 5.41059C69.6879 5.61449 69.2986 5.13532 68.828 5.38366C68.7126 5.44317 68.6609 5.95132 68.567 6.02939C67.7839 6.70737 66.6635 5.51838 66.4338 5.31951C65.6234 4.55072 65.2441 5.22704 64.6085 4.95809C63.9638 4.69563 64.8903 4.26571 64.1297 4.13087C62.5308 3.8479 60.501 4.28733 58.966 4.62383C58.3522 4.75559 58.9198 5.32661 58.8355 5.3609C57.9734 5.67904 57.0361 5.56338 56.3568 5.87111C56.0638 6.014 55.8183 6.25922 55.6419 6.68642C54.4115 3.27675 54.8969 7.10425 52.9809 6.56654C52.8296 6.52239 52.5063 4.88393 53.0391 4.59328C53.571 4.30279 54.4586 4.74362 55.1908 4.29105C55.3079 4.21963 55.7478 3.45053 56.0601 2.92038C56.0776 2.91924 56.13 2.91349 56.1476 2.91287C56.2265 2.66492 56.2917 2.46773 56.3152 2.4338C56.9063 1.60727 57.6679 3.95804 57.7318 4.08887C58.6841 5.38804 59.5931 3.4602 59.9296 3.2784C61.4247 2.42974 62.9085 2.58764 64.2821 2.12902C65.1874 1.83712 65.2479 0.214141 66.0185 0.258717C68.6107 0.462399 69.1365 2.80853 71.6544 1.18783C72.2012 0.856683 72.0362 -0.994505 73.5399 0.714063C73.6229 0.805027 74.3429 1.88739 75.1036 1.87267C75.2436 1.86861 75.386 1.82498 75.5281 1.72754C75.6406 1.65002 75.7606 1.14637 75.8885 1.13298C76.7512 1.0567 77.1792 1.59303 78.1082 1.65086C79.0392 1.71042 80.2097 1.76565 81.1984 2.31709C81.7963 2.64575 82.2364 3.87243 82.4263 4.21655C82.9556 5.18694 84.3498 4.65604 84.4609 5.67573C84.5175 6.67501 83.0079 7.21862 83.8671 8.38594C84.6443 7.28703 85.5151 6.20798 86.3619 5.14817C88.5045 6.6091 90.5011 9.08235 91.4061 11.8819C91.6936 12.7788 91.9814 13.6949 92.2813 14.636C92.4028 15.0177 92.9812 14.4175 93.1293 14.8305C93.7325 16.6235 93.6362 18.3165 93.8486 20.7714C93.9716 22.4872 94.4629 26.2213 91.1312 29.0828C90.6373 29.1222 90.1284 29.2134 89.5845 29.3215C87.3053 29.5982 86.0494 30.136 84.7239 30.3653C84.1962 30.4408 84.1373 30.0316 83.7491 29.9833C82.2984 29.8023 83.2251 30.9865 82.904 31.2775C81.5539 32.5122 80.7537 29.5194 79.0712 29.9959C78.9615 30.0196 78.3988 31.8737 78.5248 31.9546C78.5166 32.1347 78.676 32.1288 78.8171 32.0284C78.9533 31.9307 78.9527 31.8163 78.8798 31.7199C78.8115 31.6201 78.7056 31.5137 78.7049 31.3722C78.7098 31.2969 78.7532 31.2117 78.913 31.0425C79.0006 30.949 79.093 30.8625 79.3129 30.6292C79.5735 30.295 80.049 29.9982 80.4385 28.5128C80.6797 27.5659 80.4164 26.2536 80.0201 25.6024C79.6935 25.0087 79.324 24.6452 79.0356 24.4048C78.7111 24.1436 78.5957 24.0929 78.4588 24.0147C78.3284 23.9448 78.2215 23.8978 78.1325 23.8626C77.7964 23.7385 77.7626 23.7666 77.697 23.7659C78.0895 24.0876 78.8142 24.4112 79.9224 24.1309C80.3168 24.0333 81.3274 23.1073 82.0118 23.9587C82.1025 24.0704 82.0012 24.6062 82.0799 24.6447C83.5075 25.2933 83.6814 23.5925 84.5603 23.0765C85.3671 22.6023 86.467 23.6182 86.8476 24.0628C86.8801 24.1027 86.907 24.1381 86.9271 24.1673C87.2855 24.6753 87.0734 24.7255 86.8109 24.6836C86.5899 24.6494 86.3411 24.5556 86.3223 24.5929C85.9918 25.2513 86.2894 25.4226 86.7626 25.5011C86.9915 25.5406 87.2789 25.5564 87.5228 25.5996C87.5325 27.2742 88.5806 27.2319 88.2858 25.7256C88.2546 25.5612 87.6641 25.6842 87.5228 25.5996C88.269 24.0001 89.408 23.8524 90.5928 25.4482C91.1529 26.1962 90.5411 27.0036 92.361 26.7899C93.18 26.693 92.9296 25.5282 93.6623 25.2511C95.3467 24.6193 97.4345 25.7974 99.1463 25.7146C99.7673 25.6846 99.1972 25.0251 99.6228 24.9829C100.753 24.8691 101.718 25.3919 102.859 25.2096C102.963 25.1923 102.748 24.5208 103.099 24.5309C105.766 24.5969 108.058 25.144 110.877 25.3483C111.083 25.3634 111.318 25.3724 111.561 25.3769C112.932 25.4023 114.84 25.2832 116.042 25.439C118.494 25.7979 121.463 26.8009 124.528 27.7426C125.911 28.2107 126.241 28.0561 126.707 27.8927C126.854 27.8098 127.012 27.7337 127.223 27.7099C128.644 27.5424 129.564 29.9433 129.663 30.2946C129.665 30.3035 128.574 29.8088 128.933 30.4304C128.869 31.2211 129.651 30.2905 129.663 30.2946C129.732 30.5149 131.674 31.9402 132.148 32.119C132.405 32.2094 132.633 31.61 132.763 31.6686C135.241 32.8745 137.814 34.2294 140.199 37.6736C140.304 37.8735 140.643 38.3636 141.01 38.9433C141.039 39.0032 140.419 39.3415 140.494 39.4766C141.556 41.4369 143.065 42.5021 144.25 44.2013C145.418 45.9098 145.577 47.4934 144.596 48.737C144.948 49.855 144.764 51.4618 144.537 52.5292C144.504 52.6867 144.471 52.8359 144.44 52.9731C144.194 54.0199 145.549 54.0953 145.583 54.1908C146.547 57.0982 145.73 58.874 145.115 61.9873C144.84 63.4726 144.203 66.5548 143.534 68.2846C143.036 69.6533 142.323 70.2745 141.722 71.5294C141.638 71.7002 142.245 71.8872 142.231 71.9482C141.87 73.6916 141.132 72.1669 140.733 72.2633C139.248 72.5658 138.519 72.6891 137.394 74.2581C137.27 74.4245 137.286 75.0388 137.224 75.7299C137.258 76.4491 137.282 77.2279 137.038 77.4864C136.456 78.0988 136.267 77.2964 135.657 77.9511C135.602 78.007 135.889 78.3835 135.424 78.6784C133.274 80.0411 130.65 81.3631 127.925 82.6104C127.552 82.7775 128.338 83.2533 127.79 83.5087C126.026 84.3296 124.037 84.9457 122.385 85.2704C121.73 85.3937 121.084 85.4974 120.452 85.5722C119.963 85.6278 120.1 85.0392 119.953 84.9213C119.041 84.2144 118.56 85.8088 118.426 85.8817C115.483 87.4387 112.578 87.8156 108.251 89.0262C107.9 89.1269 107.531 89.2466 107.14 89.3869C106.956 89.4644 105.354 91.2841 104.247 90.1806C104.168 90.1092 103.136 88.9724 102.496 89.9365C102.455 89.9962 103.079 90.5884 102.126 90.6351C101.182 90.6807 99.6909 91.2505 98.4099 90.5816C97.9941 90.3728 97.0436 89.1314 95.9291 90.1708C95.8645 90.2471 94.0854 92.5704 93.4747 90.9646C93.3735 90.6997 93.5015 89.0192 92.1591 89.8587C91.9019 90.0197 92.3537 90.4034 91.6871 90.6229C91.6835 90.6243 91.6798 90.6256 91.676 90.627C90.723 90.9654 89.4374 90.4872 88.2266 91.2145C88.0142 91.3433 87.096 92.4704 86.3948 91.5857C86.2851 91.4471 86.5088 90.8884 86.133 90.8171C84.3298 90.4755 82.4205 90.8051 80.575 90.3549C79.9242 90.1962 80.2892 89.2973 79.6147 89.0295C78.9396 88.7621 77.5737 88.473 76.8367 88.8555C76.0981 89.2383 76.8202 90.726 75.7284 90.7897C72.4789 90.971 69.2524 90.4724 65.9019 89.8067C64.459 89.5091 63.0143 89.2117 61.5541 88.9769C60.8677 88.866 61.3642 89.4576 60.3563 89.3304C56.6259 88.8733 49.9883 88.3255 46.7041 86.3535C44.1165 84.7797 47.7967 85.0373 45.7741 84.1346C44.8243 83.7037 43.1413 84.9236 42.8214 84.8626C42.4182 84.801 42.0186 84.7042 41.6387 84.5832C39.7324 84.007 38.5371 82.8814 36.7244 82.1651C36.2865 81.9896 36.3777 82.8103 36.005 82.6509C34.833 82.1533 33.7973 81.2715 32.7461 80.6111C32.6573 80.5554 32.5674 80.5013 32.4765 80.4494C31.9937 80.1748 31.7979 80.6695 31.3893 80.3587C30.4063 79.6158 29.6235 78.8267 28.9196 77.7385C28.8566 77.64 29.8283 77.5263 29.1013 76.9882C27.9199 76.1125 26.7507 74.65 25.0803 73.9252C24.5841 73.7086 23.792 74.615 23.449 73.2236C23.3761 72.9249 24.5723 72.0908 22.7257 72.0719C22.4455 72.1076 19.444 71.524 19.339 69.5945C19.3281 69.2961 19.4507 68.6122 19.4164 67.9767C19.4642 67.6854 19.4402 67.4174 19.2556 67.2667C19.1861 67.2148 18.8319 67.8424 18.5045 67.4602C17.3555 66.0897 16.2747 64.2476 15.1831 62.1034C14.8921 61.5184 14.6332 62.6831 14.2171 61.7699C13.4196 60.0052 12.8636 57.4248 13.0405 54.9247C13.0992 54.3246 13.1718 53.6702 13.2596 53.0479C13.3715 52.275 13.897 52.8383 13.9592 52.7835C14.9725 51.9401 13.7131 51.2859 13.6682 50.9419C13.4348 48.8216 14.2851 47.1665 15.1498 44.6641C15.4177 43.9565 14.6301 44.1846 14.6416 44.0225C14.9134 42.247 15.333 43.8927 15.9626 43.0152C16.8403 41.8536 18.0042 40.5383 19.5044 39.4935C20.1881 39.035 20.9121 38.4696 21.6676 37.9121C22.2004 37.521 21.1748 37.3294 21.6694 36.9808C24.4775 34.9835 27.7003 33.6168 30.5233 32.877C30.8098 32.7945 31.1007 32.7182 31.3692 32.6557C32.0475 32.5021 31.8151 33.1745 31.9905 33.2492C33.1657 33.791 34.0175 32.2796 34.2719 32.0886C35.404 31.2237 36.0078 31.5827 37.0642 31.2237C42.041 29.5454 48.0373 28.6359 52.7102 27.8249C52.8656 27.7987 53.0098 27.7743 53.1515 27.7496C53.4667 27.6946 53.7601 27.6413 53.972 27.6024C54.0731 27.5846 54.1574 27.5683 54.1623 27.5758C54.1639 27.5801 54.1437 27.5907 54.076 27.6212C53.9972 27.6581 53.8899 27.6979 53.5797 27.8634C53.4977 27.908 53.4061 27.9598 53.2953 28.0278C53.1669 28.1066 53.0178 28.2037 52.8428 28.333C52.4742 28.6455 51.8514 28.9758 50.9683 30.4951C50.4954 31.3626 50.0698 32.6302 50.1704 34.149C50.2808 35.6795 50.83 36.7636 51.3395 37.5098C52.2907 38.8113 52.8782 39.0746 53.2502 39.337C53.6039 39.5534 53.8266 39.6515 53.9822 39.7195C54.1537 39.7924 54.2339 39.819 54.3191 39.8477C54.4669 39.8954 54.526 39.9058 54.5568 39.9097C54.6478 39.912 54.4027 39.8339 54.1775 39.7752C50.4881 38.9251 46.2298 38.2101 41.595 37.6033C41.2019 37.5516 41.4854 38.3474 41.1436 38.3118C40.9489 38.2899 40.7541 38.2667 40.5592 38.2423C36.4865 37.7328 32.3734 36.8151 27.9451 35.8901C27.5634 35.8077 27.9327 36.6333 27.3092 36.5212C26.0275 36.2955 24.4205 35.7781 23.2035 35.1195C22.6339 34.812 23.5725 34.5401 23.1143 34.2445C23.0986 34.2336 23.081 34.2228 23.0614 34.2121C21.8598 33.5502 20.5069 33.0157 19.1553 32.6449C18.5825 32.4894 19.177 33.4735 18.4469 33.2163C16.3707 32.4893 14.2983 31.7533 12.2076 30.8739C11.1548 30.4296 10.1077 29.9558 8.99527 29.3792C8.4371 29.0886 7.86669 28.7763 7.221 28.3829C6.88847 28.1797 6.55553 27.9686 6.12555 27.6707C5.67562 27.336 5.26689 27.1246 4.21349 26.0699C3.37393 25.0807 2.42261 23.7743 1.72667 22.1467C1.44281 21.4475 2.48043 20.3375 1.81884 19.0233C1.39646 19.0177 0.934449 19.1414 0.499489 19.1956C0.341948 18.6074 0.226889 18.0004 0.158177 17.3921C-0.0876989 15.2094 -0.149806 12.7205 0.747588 9.81458C0.718948 9.56358 2.0012 6.83789 3.33172 5.97832C4.57589 5.01279 5.36234 4.77917 5.93709 4.56246C7.06192 4.19128 7.6779 4.1155 8.27703 4.0193C9.43563 3.85546 10.3271 3.80637 11.2185 3.76272C12.9861 3.68508 14.595 3.68801 16.2343 3.69929C18.7751 3.72203 21.2804 3.7795 23.7829 3.79942C24.1049 3.80195 23.5499 3.02619 24.1683 3.02724C27.7575 3.0338 31.2336 2.83684 34.8796 3.63855C35.2411 3.71711 35.0436 5.08178 36.1126 4.88456C36.2991 4.84834 37.9089 4.68138 38.3278 4.38919C38.3845 4.34503 38.0988 3.70422 38.6153 3.69093C41.623 3.62511 44.78 3.81064 47.7716 4.24356C48.2509 4.31462 47.7244 4.98631 48.0732 5.04293C48.5769 5.12432 49.0937 5.16906 49.5978 5.19419C51.5942 5.29227 53.655 5.09965 55.5227 5.6277C57.096 6.07675 56.4873 7.23803 57.2933 8.41479C57.4028 8.57958 58.4055 8.639 58.431 9.31605C58.4724 11.0103 57.9459 12.8407 58.0532 14.6493C58.1284 15.0334 59.0306 14.687 58.4303 15.5788C58.4575 15.6384 57.6374 15.9145 57.3951 16.2276C57.2367 16.443 57.4887 17.1346 57.1722 17.4071C56.8554 17.6796 56.5228 17.0976 55.9801 17.4164C55.4444 17.74 55.6512 18.5219 54.5884 18.5932ZM143.095 57.6017C142.398 58.4933 144.776 58.8003 144.259 57.7134C144.23 57.661 143.129 57.5542 143.095 57.6017ZM89.4941 12.2805C89.464 12.4062 89.4434 12.5233 89.4314 12.6328C89.1882 13.8216 90.7097 14.0007 91.1599 12.9877C91.3606 12.525 91.1225 12.2407 90.7757 12.1216C90.2573 11.848 89.5646 11.9753 89.4941 12.2805ZM78.6133 4.91277C79.6325 6.12473 81.009 3.01365 79.3014 3.1644C79.2028 3.17332 78.5512 4.84227 78.6133 4.91277ZM53.4199 8.66293C53.43 8.69483 54.1208 8.73815 54.145 8.70717C54.5315 7.95404 53.1334 7.86755 53.4199 8.66293ZM66.7718 3.57997C67.1726 4.04247 68.4082 3.59035 67.9215 2.98814C67.5173 2.49614 66.2447 2.99567 66.7718 3.57997ZM107.587 82.9616C107.565 82.9314 107.068 83.01 107.119 83.204C107.289 83.8339 107.952 83.4925 107.587 82.9616ZM47.1754 5.72526C47.6275 5.70392 48.0508 5.75679 48.4316 5.85328C50.5583 6.39417 51.5901 8.30141 48.8654 8.22316C48.2878 8.20472 50.0434 7.24735 49.2959 7.04506C49.0117 6.96857 48.7538 6.98604 48.5101 7.05399C47.57 7.31352 46.9591 8.31355 45.824 7.71836C45.5457 7.57675 46.9795 5.71747 47.1803 5.7209C47.1787 5.72235 47.1771 5.72381 47.1754 5.72526ZM140.199 57.9781C140.169 57.9952 140.092 58.6781 140.12 58.6981C140.85 59.141 141.01 57.7238 140.199 57.9781ZM78.607 82.5761C78.571 82.5083 76.9826 82.3776 76.9281 82.436C76.0366 83.6412 79.265 83.911 78.607 82.5761ZM110.35 31.9076C109.549 32.6183 108.66 32.6519 108.122 31.6575C108.864 31.7541 109.604 31.8091 110.35 31.9076Z" fill="var(--stroke-0, white)"/>
</svg>
