<svg preserveAspectRatio="none" width="100%" height="100%" overflow="visible" style="display: block;" viewBox="0 0 53.4452 46.5256" fill="none" xmlns="http://www.w3.org/2000/svg">
<path id="Vector 185" d="M28.7461 22.9924C28.7954 23.0865 28.8552 23.1995 28.9764 23.428C28.7332 22.8907 28.3427 22.4302 28.0957 22.214C27.8423 21.9885 27.7435 21.9544 27.8118 21.9805C27.8066 21.9654 27.5612 21.8831 27.4154 21.8794C27.2651 21.8701 27.3113 21.904 27.6318 21.8447C28.2726 21.7405 29.7273 21.2487 31.259 20.6845C31.3602 20.6639 31.3409 20.6682 31.1762 20.815C31.0943 20.8901 30.9774 21.0005 30.823 21.1899C30.6653 21.3944 30.4884 21.6026 30.2025 22.2146C29.5895 23.5971 29.6854 24.4536 29.6972 24.7133C29.7293 24.9983 29.7491 24.9048 29.7226 24.7197C29.9651 25.7345 30.2547 26.0644 30.3401 26.1865C30.4385 26.3017 30.4071 26.2157 30.3143 26.0884C30.0114 25.6874 29.8582 25.3772 29.8646 25.2041C29.8442 25.0104 29.8915 24.8739 29.4309 24.4062C29.0072 23.9791 28.5354 23.5525 28.0414 23.1257C26.4764 21.7743 24.8711 20.6374 23.5349 19.6404C22.9725 19.227 24.0621 19.0879 23.4545 18.6724C22.9802 18.356 22.5543 18.1221 22.2181 17.9763C21.8536 17.8251 21.6943 17.764 20.8565 17.6083C21.3065 17.6747 21.6375 17.55 21.6466 17.5347C22.9965 16.9388 23.5806 16.024 23.7806 15.6826C23.9941 15.2978 23.9925 15.2119 23.9914 15.2289C23.969 15.2821 23.8735 15.7156 23.7869 16.2281C23.6953 16.7622 23.7416 17.3315 24.1334 18.1875C24.346 18.6585 24.7463 19.2171 25.0117 19.495C25.0008 19.5016 24.8951 19.4514 24.8601 19.4583C24.8231 19.461 24.8924 19.5093 25.1282 19.5376C25.6009 19.6058 26.6155 19.5181 27.9566 19.3258C29.0459 19.313 32.4387 17.298 34.1867 15.4913C33.8344 15.8795 33.7578 16.1632 33.7533 16.1965C33.7506 16.2395 33.801 16.0937 33.8315 15.8624C33.9 15.3887 33.9084 14.6096 33.868 13.7439C33.8748 13.7481 33.9416 13.8497 33.896 13.7412C33.8519 13.644 33.6475 13.3904 33.2809 13.1145C32.5508 12.55 31.2709 11.9576 29.9579 11.5709C30.0705 11.4903 28.4827 11.5204 27.149 11.9763C25.7424 12.4042 24.2418 13.0771 22.7891 13.8807C20.842 14.8371 18.9252 18.132 17.2247 22.1059C16.1541 24.426 15.9088 27.6052 16.1802 31.0177C16.202 31.2916 16.2168 31.3247 16.2877 31.4566C16.3641 31.5853 16.5851 31.838 17.1327 32.2027C17.5664 32.5003 18.1372 32.7464 18.8553 32.9064C20.3111 33.2411 22.3849 33.1982 24.5399 32.7804C27.7495 32.1943 29.5158 30.6255 31.8933 26.73C32.4371 26.2554 32.3386 22.785 31.4473 20.3787C31.1348 19.458 30.7402 20.1912 30.6402 20.0308C29.094 17.7561 30.2805 18.0606 29.872 16.6272C29.8718 16.6002 29.8682 16.5724 29.8604 16.5439C29.8272 15.2052 24.9767 13.5209 20.735 12.9744C18.8774 12.5147 15.6915 14.6041 13.5353 17.1429C13.3942 17.311 13.276 17.4894 13.1716 17.6891C12.7935 18.5025 13.1512 18.6925 13.3522 18.7381C13.4586 18.7723 13.5414 18.7978 13.5262 18.9163C13.5132 19.0413 13.3924 19.234 13.1434 19.8111C13.0753 19.9848 12.5425 19.2414 12.383 19.9496C12.1635 20.9259 12.2063 22.7177 12.3603 24.4867C12.3335 24.548 12.6293 25.226 12.897 25.6377C13.8284 27.1055 14.5706 27.8546 15.4749 28.8323C15.8311 29.2069 16.2546 29.6205 16.8639 30.1123C18.751 31.6632 21.3916 32.9966 24.1579 33.3126C25.3704 33.4528 26.6066 33.456 27.8051 33.3283C28.6716 33.2234 27.4803 32.6936 28.8259 32.4455C29.6831 32.2857 31.4487 31.977 32.9871 31.6048C33.6265 31.4645 34.22 31.2574 34.5809 31.1466C35.5791 30.8168 35.4319 31.4437 35.6569 31.4578C37.753 31.5741 39.8674 27.4857 39.9543 27.0938C40.4552 26.3292 40.8782 25.5137 41.0655 24.927C40.9544 25.1681 40.9433 25.4617 40.9516 25.5413C40.9584 25.6309 40.9441 25.556 40.8654 25.4073C40.7095 25.0946 40.3536 24.5713 39.8678 23.884C38.8117 22.0406 34.3343 20.9132 30.1404 20.3296C27.9635 19.9702 25.6351 20.6726 23.1579 22.2968C23.0462 22.3691 22.9326 22.4437 22.8201 22.5189C21.0334 23.7033 19.8746 25.3826 19.5058 27.3705C19.3532 28.1728 19.6859 30.4266 20.2215 31.9622C20.6827 33.2016 20.9835 33.5004 22.1594 34.1776C22.8935 34.5716 23.6804 34.893 24.4987 35.1516C27.3878 36.0575 30.577 36.2004 33.7222 35.9895C35.6237 35.8595 37.1275 35.2355 38.9407 33.7888C40.0941 32.9048 40.6649 31.6518 40.9331 29.2883C41.0143 28.6058 40.5006 29.0214 40.3279 28.7302C40.2738 28.6865 40.2429 28.6194 40.2442 28.5459C40.3351 28.2209 39.7402 26.8897 38.5619 25.5363C35.878 22.4685 32.052 19.253 28.5131 16.7619C25.7463 14.9054 23.8102 14.3695 19.9473 14.7491C18.9501 14.8067 17.9293 14.9938 16.9041 15.2976C15.9414 15.5995 16.9432 14.5111 15.9374 14.8025C14.6045 15.213 13.0995 15.8535 11.5996 16.7436C10.7345 17.1738 10.0867 18.148 9.61171 19.6608C8.96281 21.4794 10.2982 24.4086 11.7585 26.1903C12.7259 27.3165 14.0609 27.7981 15.1838 27.6916C17.1213 29.1963 20.2857 30.3943 23.4564 31.5308C24.5814 31.9914 25.9208 32.1155 27.2342 32.0507C29.6238 31.7796 27.6025 33.2474 30.4274 31.8049C31.0451 31.4375 29.9531 31.2668 30.8597 30.7548C31.1937 30.5594 31.5273 30.3533 31.849 30.1414C33.1514 29.3707 34.3032 24.1456 34.0636 20.3404C34.0499 20.0809 34.0193 19.8368 33.9722 19.598C33.8232 18.9406 33.2775 19.2349 33.1496 19.09C32.6092 18.5203 32.4193 17.7381 32.0004 16.7371C31.6049 15.7618 31.0635 14.6949 30.8135 14.3674C30.3502 13.7686 29.8377 13.1737 29.3028 12.5434C28.8337 11.7084 26.6731 11.0092 24.7676 10.8529C22.7898 10.6594 20.7008 10.7511 18.5107 10.988C18.2495 11.0191 18.0154 11.0864 17.7569 11.2119C17.1479 11.5612 18.2188 11.7888 17.737 12.1432C16.8852 12.8058 15.8429 14.6029 15.0559 16.56C14.835 17.1237 14.7968 17.788 15.5212 19.7342C15.5358 19.7775 15.4619 19.6039 15.3924 19.5077C15.3224 19.4049 15.2805 19.3704 15.2875 19.3827C15.3003 19.4103 15.4618 19.5663 15.6557 19.7229C16.0542 20.0477 16.5904 20.4254 17.1309 20.7917C18.322 21.5953 19.6132 22.406 20.8737 23.1948C22.1944 24.0169 20.6299 23.8898 21.2479 24.3118C23.6458 25.921 24.9076 25.5637 26.9113 26.4806C27.1641 26.5927 27.425 26.7199 27.7046 26.8664C28.1741 27.1043 27.7098 27.5195 27.78 27.6113C29.0352 29.0923 30.6014 27.7703 30.9045 27.7248C31.9318 27.6213 33.0226 27.4234 34.1911 27.2534C36.6939 26.9016 39.0619 26.1412 41.5116 24.3738C41.9765 24.0734 42.3715 23.5255 42.6279 22.6335C42.7703 22.076 41.7491 23.1089 42.1497 21.548C42.1553 21.5229 42.1609 21.4977 42.1664 21.4723C42.1356 21.5646 42.1237 21.7877 42.153 21.9194C42.1793 22.0537 42.2001 22.0597 42.119 21.9185C42.2276 22.1018 42.0999 21.9069 41.8978 21.7494C41.6929 21.577 41.4122 21.3739 41.1064 21.1732C40.4897 20.7685 39.7684 20.3616 39.0235 19.9656C38.5431 19.5978 35.8584 19.7054 33.6057 20.0211C30.143 20.5253 28.0169 21.3735 26.4499 24.5796C26.3962 24.6704 26.4042 24.5802 26.3887 24.6431C26.3857 24.6724 26.3953 24.7381 26.4278 24.8216C26.4537 24.8985 26.5325 25.0224 26.5304 25.0292C26.4236 24.9528 26.5336 25.1031 26.9208 25.213C26.6633 25.1937 26.8817 25.2738 27.3441 25.1065C27.0517 25.2363 27.0337 25.331 27.0834 25.2814C27.1355 25.2392 27.2465 25.1016 27.3571 24.9255C27.5842 24.5675 27.8246 24.067 28.0511 23.5388C28.3005 22.9943 28.3586 22.4529 28.1655 21.7301C28.1276 21.5921 28.093 21.4694 28.06 21.3444C28.1127 21.2744 28.2002 21.1538 28.3312 21.1073C28.4575 21.0534 28.6051 21.0725 28.6225 21.0438C28.8561 20.5949 28.4031 20.1717 27.9756 20.1187C27.7424 20.1986 27.4969 20.8145 27.2872 20.9386C26.0399 21.6282 24.4124 22.963 22.9687 24.1723C22.4128 24.6229 22.0596 25.2087 21.9287 25.9189C21.9427 25.8843 21.9662 25.8134 21.9537 25.6768C21.9438 25.5434 21.8731 25.3494 21.7771 25.2155C21.7769 25.146 21.7459 25.0799 21.8437 25.0207C21.9299 24.9582 22.1118 24.853 22.2029 24.6986C22.3139 24.5889 22.4367 24.4529 22.5558 24.2937C24.6939 23.6564 27.4544 21.6255 29.6467 19.6624C29.678 19.7044 29.9673 19.1782 29.963 18.3164C29.8919 18.8125 30.4128 19.8857 31.0373 20.1648C31.6289 20.4807 31.9656 20.4215 32.1709 20.4009C30.9107 20.4161 28.9448 23.2091 27.5051 26.1691C27.4075 26.3388 27.3228 26.7307 27.3946 27.7016C27.3934 27.5938 27.3274 27.4418 27.3184 27.4373C27.3081 27.4255 27.3788 27.5196 27.5302 27.6437C27.4425 27.5702 27.3947 27.5877 27.5437 27.6118C27.6861 27.6351 27.9582 27.6397 28.3275 27.6003C28.4022 27.7106 29.6772 26.8346 30.6044 25.7304C31.5924 24.6267 32.572 23.3447 33.5476 22.0486C35.2102 19.8653 36.0252 17.1809 36.1107 14.2309C36.1058 14.376 36.1982 14.7209 36.3346 14.8953C36.4661 15.0743 36.522 15.0717 36.4144 14.9883C36.4213 14.9761 36.3898 14.9208 36.1679 14.8843C35.9543 14.8488 35.6073 14.8576 35.2169 14.9187C33.4024 15.2663 30.6585 16.8568 28.298 18.1629C27.7246 18.4838 27.1602 18.819 26.6034 19.17C26.3716 19.3192 26.3749 18.4842 25.9108 18.7888C21.2873 22.0585 21.948 22.8069 20.9922 25.2344C20.8566 25.6693 20.6984 26.1695 20.5135 26.7778C20.1872 27.6252 17.5387 29.6448 17.3852 29.9626C16.6816 30.8009 16.0501 29.49 15.8683 29.7988C15.5538 30.3686 15.4804 30.8674 15.5514 31.2821C15.6147 31.6234 15.86 31.8426 16.1274 31.8723C16.4015 31.9116 16.6545 31.7895 17.0164 31.7905C17.7214 31.5486 18.2145 31.2238 19.5803 31.5407C19.6828 31.5694 19.121 32.0651 19.3838 32.1864C20.2356 32.5678 21.2322 32.4193 22.1851 32.6417C24.1222 33.0469 25.3044 34.3573 27.8687 33.2335C28.1494 33.0953 28.4322 32.9058 28.7022 32.6567C28.8575 32.5074 28.5886 32.089 28.5748 31.5502C28.5613 30.9845 28.7264 30.4603 29.6814 29.4313C30.1047 29.0018 31.1715 27.4559 31.9561 25.5518C32.3343 24.6695 32.1616 24.1995 32.0384 23.8967C32.0306 23.8714 32.0244 23.8511 32.0191 23.8323C31.9787 23.6854 31.9746 23.4801 32.1027 23.3596C32.2195 23.2328 32.4157 23.1871 32.4018 23.1597C32.0815 22.6377 31.3719 22.2889 30.9474 22.053C30.4962 21.8124 30.2156 21.639 30.0123 21.456C29.5957 21.0982 29.4744 20.6971 28.2113 20.097C28.1954 20.0896 28.1797 20.0823 28.1641 20.0751C25.2543 19.2608 26.7353 22.0132 26.0591 22.5364C25.3799 23.0259 22.3102 24.4503 21.5586 24.9918C20.7879 25.4433 21.279 24.3982 20.6368 24.8715C18.5356 26.5357 18.584 27.3619 18.9191 27.7194C19.3185 28.0469 19.8831 28.3884 20.02 28.6424C20.1591 28.7889 20.2396 28.7561 20.3396 28.9474C20.4328 29.1116 20.6345 29.4376 20.746 29.627C20.7227 29.7886 21.2562 30.2472 21.9507 30.5612C22.225 30.8708 22.9614 30.9469 23.8022 30.6349C24.3317 30.4519 24.8383 30.178 25.2766 29.7931C25.9426 29.1648 25.1053 29.3944 25.5575 28.7732C26.4471 27.4289 26.9827 26.1148 27.0792 24.7885C27.083 24.7498 27.0799 24.7279 27.0901 24.767C27.1109 24.7954 27.0908 24.9363 27.3872 25.1977C27.5225 25.311 27.743 25.3889 27.8815 25.3964C28.019 25.4084 28.1143 25.3858 28.1551 25.3746C28.2503 25.3451 28.2332 25.3408 28.2135 25.3545C28.0957 25.4209 27.8299 25.6654 27.6083 25.9206C27.1449 26.4484 26.6797 27.1283 26.2221 27.9351C26.0146 28.2864 25.6283 29.5948 24.8153 30.9428C24.789 30.9756 24.7739 31.0017 24.6684 31.1151C24.6393 31.1454 24.6032 31.1829 24.5374 31.2414C24.5039 31.2708 24.4628 31.3058 24.4031 31.3505C24.3731 31.3729 24.3382 31.3978 24.2954 31.4258C24.2292 31.4671 24.0737 31.574 23.7874 31.6683C23.5138 31.7508 22.9343 31.9041 22.1891 31.5452C21.433 31.1761 21.1174 30.4145 21.0633 30.062C20.9602 29.3158 21.0904 29.2024 21.1121 29.0505C21.1894 28.8072 21.2193 28.7706 21.2439 28.7143C21.2984 28.6045 21.3027 28.6003 21.3204 28.5667C21.3461 28.5194 21.3508 28.5088 21.3649 28.4824C21.3864 28.4409 21.403 28.4084 21.4198 28.3759C21.4518 28.3136 21.4816 28.2564 21.5153 28.1944C21.5749 28.0828 21.6421 27.9647 21.7053 27.8587C21.8366 27.6388 21.9762 27.4287 22.1264 27.23C22.4278 26.8313 22.7689 26.483 23.158 26.2208C23.4335 26.0383 23.4006 27.0443 24.3325 25.8161C24.822 25.1705 25.4282 24.3288 26.0534 23.4132C26.13 23.3001 26.1823 23.2226 26.239 23.1286C26.2601 23.0952 26.2868 23.0443 26.284 23.0536C26.2895 23.058 26.2565 23.0658 26.2439 23.2955C26.2428 23.3801 26.2503 23.718 26.5699 23.9823C26.7139 24.1058 26.9293 24.1655 27.0132 24.1719C27.0975 24.1824 27.1664 24.1794 27.2219 24.173C27.4361 24.1416 27.4927 24.0874 27.5103 24.0817C27.5996 24.0182 27.4482 24.1275 27.3801 24.1938C27.2975 24.2682 27.2016 24.3608 27.1191 24.4424C26.7626 24.7969 26.4055 25.1878 26.0708 25.5683C25.4004 26.3324 24.7928 27.094 24.3288 27.7422C23.283 29.222 25.2449 28.1568 23.6227 29.7506C22.9073 30.4674 23.6673 28.6886 22.3582 30.0697C22.0092 30.4424 21.5292 31.0126 21.0496 31.6597C20.8011 32.0019 20.668 32.2643 20.6548 32.6925C20.6383 32.9056 20.7114 33.0155 20.691 32.986C20.5998 32.9764 20.9102 33.0224 21.2247 32.8894C22.1337 32.5665 22.8291 31.9889 23.2356 31.5854C24.3786 30.3307 23.2292 30.597 23.2991 30.4695C23.6924 29.7917 24.7407 26.8273 24.7693 26.5273C24.9729 25.9374 25.1513 25.3218 25.2874 24.7328C25.2509 24.8136 25.3134 25.0979 25.3151 25.0598C25.3971 25.1772 25.2712 25.0286 25.3065 25.0615C25.3106 25.0632 25.3169 25.0435 25.1691 25.0448C25.0269 25.0466 24.774 25.0912 24.4424 25.1788C22.9233 25.5254 21.0988 27.7499 19.4946 29.7733C19.2185 30.1133 19.0388 30.4397 18.9563 30.7261C18.8769 31.0273 18.8566 31.2332 18.965 31.7468C18.8863 31.5118 18.862 31.5779 18.9268 31.6438C18.9869 31.7181 19.1034 31.8242 19.2372 31.9208C19.4687 32.0991 19.7897 32.2049 20.295 32.2015C24.522 32.1002 28.6145 27.9882 30.729 23.8564C31.0113 23.2807 30.9394 22.433 30.631 21.436C30.6396 21.5385 30.8423 21.766 30.9009 21.7768C30.9606 21.8039 30.8763 21.7699 30.7469 21.7592C30.242 21.686 29.1813 22.1407 28.2786 22.6968C27.316 23.2942 28.3212 23.496 28.1779 23.5932C27.701 23.9351 27.3335 24.1737 27.0434 24.3152C25.4784 25.1179 26.2221 22.8684 23.9601 23.9176C25.1383 24.7743 23.6232 25.5389 21.6316 27.6005C20.6811 28.6002 21.6001 28.4725 21.5457 28.5985C20.6683 30.5724 18.976 30.8773 18.5598 31.0082C17.8046 31.2409 17.3546 31.8072 16.9801 32.35C16.6682 32.8216 16.6036 33.1678 16.2894 33.352C16.0108 33.5518 15.7509 33.4254 15.5312 33.278C15.3289 33.1419 15.0646 33.0692 14.9644 33.883C14.9432 34.0929 14.9169 34.3661 15.0124 34.7303C15.3621 35.0509 15.6058 34.5867 15.9652 34.4461C16.1389 34.3592 16.3208 34.3098 16.4816 34.2932C16.6382 34.2755 16.7986 34.2817 16.8217 34.1282C16.865 34.1292 16.8987 34.1283 16.9399 34.1432C17.4628 34.5229 20.625 34.7989 23.4024 34.8209C25.8868 34.9192 28.8218 33.188 31.3951 31.1715C34.3172 29.0713 34.7614 24.9394 34.9736 22.4316C34.9804 22.3428 34.9869 22.2544 34.9931 22.1666C35.1445 20.4706 34.076 19.3091 33.3616 18.969C31.6503 18.3052 29.9111 18.5357 27.7863 18.8898C23.9487 19.7161 23.4501 20.4775 22.8435 21.0792C22.4831 21.5005 22.0801 21.9353 20.956 22.8683C18.2484 25.4039 18.1801 22.5879 17.3989 22.5339C16.6071 22.5529 16.4817 23.3919 15.7661 23.7297C15.0437 24.0823 15.9214 22.6504 14.6207 23.8802C14.4974 23.9993 14.3656 24.1429 14.2273 24.3061C12.3939 26.4345 12.8685 30.6613 13.3011 31.2044C14.0618 32.2025 14.9674 31.392 15.1449 32.5903C15.2249 32.8777 15.2232 33.2146 15.3595 33.603C15.3777 33.6493 15.2158 33.7021 15.0623 33.7719C14.9141 33.8422 14.757 33.9504 14.9331 34.2039C16.0916 35.7101 19.2631 36.0035 22.1258 36.5168C25.4306 37.1529 29.0948 35.3506 32.3284 33.5763C33.5321 32.919 34.5543 31.9558 35.3517 30.805C35.941 29.9162 36.0633 31.0931 36.4154 30.5453C38.2689 27.2057 37.9317 26.0834 37.6676 25.327C37.3712 24.7164 36.9672 24.1566 36.2299 22.9996C36.9193 23.134 37.4946 23.0353 37.8253 22.4073C38.1186 21.7976 38.2837 20.6134 37.2276 19.1394C36.644 18.3772 35.7474 17.6348 34.6044 17.0737C31.539 15.7709 31.8168 16.8289 29.7965 16.9141C29.6354 16.9284 29.3755 16.8785 29.0693 16.8087C28.2253 16.6074 26.9948 16.3034 26.6945 16.5537C25.391 17.7288 27.2665 18.7864 22.4784 18.632C22.2639 18.6346 22.8628 17.9183 22.1197 17.9758C21.1511 18.0585 20.3701 18.2363 19.7291 18.4603C17.1506 19.4645 16.0148 20.5208 13.4263 22.8186C13.2319 23.015 13.0364 23.2258 12.8711 23.4297C12.7892 23.5304 12.7149 23.6299 12.6614 23.7087C12.6129 23.7658 12.5649 23.9088 12.6432 23.664C12.6348 23.5932 12.5476 23.7933 12.7388 24.2891C12.9159 24.7666 13.2883 25.3854 13.7473 25.9974C14.6747 27.2361 15.9198 28.4851 17.1579 29.6408C17.8603 30.3447 19.0534 30.8722 20.1636 31.2772C19.8889 31.9626 20.3698 32.5375 21.2151 32.9457C22.5373 33.6171 24.8623 33.4129 26.047 32.6722C28.0661 32.8799 30.2473 32.9042 32.3735 32.9387C33.3473 32.9568 34.3526 32.8389 35.3373 32.6766C36.3214 32.5014 35.8255 33.2003 35.9618 33.2299C38.1821 33.6291 39.0779 31.8544 39.6753 31.5762C40.5331 31.1751 41.3767 30.783 42.216 30.4079C44.9857 29.0647 46.7851 25.7828 47.9942 22.5835C48.6397 20.8613 48.1236 18.7562 46.9521 16.8606C46.8771 16.7391 46.3602 16.7588 45.9837 16.3873C45.7595 16.2115 45.6417 15.9311 45.6024 15.2312C45.6014 15.1712 45.9915 15.4051 46.1959 15.4185C46.3792 15.4412 46.5254 15.1321 45.5329 14.0667C44.749 13.2548 43.4732 12.2393 41.8191 11.3683C40.128 10.393 37.7821 10.4008 35.5717 10.86C34.8027 11.0099 34.0678 11.2612 33.4027 11.5755C32.3847 12.0166 30.409 14.0399 28.0658 14.3952C27.7478 14.4395 27.8469 13.9409 27.3615 13.9668C26.3125 14.0343 25.9693 14.7687 25.2628 15.2041C24.932 15.4091 24.5195 15.5535 23.8517 15.5708C22.0502 15.5844 19.1654 17.1883 16.8604 20.4713C16.4975 20.9576 16.2262 21.5313 16.0802 22.1276C16.0067 22.3502 16.6303 23.7663 16.6773 25.1497C16.6824 25.9535 16.7681 26.8822 16.9152 27.8483C17.024 29.0581 18.3329 29.7034 19.3741 30.1816C19.9501 30.462 20.54 30.6603 21.0952 30.7933C22.2572 31.0421 21.6394 30.2205 21.8416 30.2514C25.2738 30.6601 28.3713 30.1517 31.4567 29.6807C34.4813 29.0307 37.5775 27.3868 41.0745 25.6447C41.5415 25.4061 42.0018 25.1378 42.4525 24.8295C43.2183 24.3368 44.353 22.8823 45.3477 21.1606C45.9666 20.1087 46.0635 18.5777 46.3884 17.3334C46.5637 16.6235 46.831 16.2062 47.1593 15.9184C47.6921 15.3573 48.4353 15.1355 48.6602 14.0811C48.9592 13.0777 47.9275 10.8092 45.6686 9.38072C45.3761 9.17301 45.0569 8.96891 44.7051 8.77131C40.7677 6.65976 36.3571 10.0276 30.8048 9.08602C30.6326 9.13195 30.4565 9.17988 30.2858 9.22761C27.2687 10.2529 25.2124 12.22 22.9483 13.8814C19.3463 16.4699 16.6737 20.8555 16.7086 25.4291C16.6493 26.3537 17.3163 27.0456 17.8066 27.3946C18.3256 27.7736 18.8444 28.0202 19.3091 28.2733C21.4016 29.3458 23.6545 29.1483 25.709 28.6942C26.222 28.5866 27.4587 27.1298 28.4288 26.7606C28.5854 26.7041 28.7331 26.6531 28.8721 26.6069C30.0123 26.2136 30.9363 25.9459 31.6894 25.1746C33.2263 23.5323 34.217 21.5626 35.2062 19.6629C36.3721 17.3035 36.0985 14.5666 35.4103 12.0512C34.8317 10.347 35.6829 10.684 34.5485 8.70363C34.529 8.67404 34.5093 8.64499 34.4894 8.61646C34.1674 8.1288 33.5742 7.91934 33.0999 7.94493C32.6137 7.95924 32.1888 8.1083 31.751 8.24598C30.747 8.63203 29.9466 9.46527 28.6325 10.375C27.2287 11.379 25.3549 12.0165 23.585 13.2563C23.0224 13.6581 22.478 14.1337 21.9853 14.7112C23.1259 15.7325 21.6653 17.3244 20.4388 20.8309C20.2176 21.5015 21.0009 21.035 20.9237 21.3585C20.6346 22.661 19.8153 23.6763 19.8118 24.9521C19.8139 25.2588 20.3124 25.3744 20.3561 25.6069C20.3711 25.6712 20.3827 25.7465 20.3954 25.8074C20.4973 25.9942 20.5502 26.0001 20.6397 26.1777C20.731 26.3492 20.9342 26.6632 21.2086 27.0369C21.7577 27.9212 22.8127 28.7794 23.0817 28.9975C24.9896 30.4291 26.3069 29.8898 28.0138 30.4749C28.2642 30.5565 28.421 30.625 28.5152 30.6849C28.7239 30.8193 28.6057 30.9107 28.4688 30.9931C28.3164 31.0851 28.149 31.1678 28.4231 31.2969C28.5492 31.3546 28.7639 31.422 29.1173 31.4842C33.6153 32.3778 39.0974 29.603 42.4044 26.6346C42.5176 26.5364 42.6249 26.4345 42.7277 26.3279C43.429 25.5457 43.2851 25.2754 43.1259 25.2462C42.951 25.2078 42.6731 25.316 42.7369 25.2038C43.3628 24.1151 43.6184 22.8729 43.8236 21.706C44.2925 19.4375 43.2653 16.995 41.78 16.9033C41.8143 16.771 41.8372 16.643 41.8501 16.521C41.8686 14.6833 40.983 14.4707 40.0193 14.5912C38.9855 14.7106 37.7271 15.059 35.2913 14.4938C34.9057 14.4097 34.4417 12.6876 36.143 12.6076C37.8691 12.5913 40.2871 13.3667 42.7916 14.6066C42.8773 14.6515 43.0415 14.7152 43.2542 14.8037C44.8338 15.3376 47.0048 18.0866 47.0832 18.66C47.6221 20.2677 47.3533 21.4533 46.9662 22.1543C46.262 23.2241 45.1205 23.2805 45.0135 23.3733C44.0925 24.2263 43.6844 25.6764 42.6254 26.8875C41.7592 27.9742 40.976 29.1042 40.563 29.4517C36.9235 32.5145 32.5075 33.6524 28.1127 33.3589C28.0924 33.3579 28.0722 33.3569 28.0519 33.3559C25.6 33.2177 25.0857 34.82 22.869 34.2226C20.8363 33.6398 18.7767 32.5242 17.3864 30.741C17.0246 30.2228 16.5108 29.551 16.0887 28.5466C15.6527 27.5596 15.493 26.1547 15.7617 25.0955C16.5863 22.5047 17.3471 20.6443 18.1048 17.2062C18.5061 15.803 16.0637 15.8747 20.3786 12.4289C20.4788 12.3554 20.9818 12.02 21.6427 11.5503C22.7448 10.7963 24.2844 9.61915 24.9088 8.28497C25.0298 8.02384 24.6648 7.65562 24.8994 7.37098C25.52 6.63255 26.1722 6.04434 26.9651 5.47014C27.8735 4.9139 28.3456 4.25637 30.9717 3.63782C31.4371 3.5925 32.2218 3.29618 33.9749 3.4771C35.2562 3.56468 37.3165 4.61891 38.2263 5.99799C40.2319 8.6522 41.2524 11.5341 41.3279 14.7277C41.4409 17.062 39.7363 20.0692 38.9213 20.9904C38.7907 21.1652 38.6602 21.3407 38.5289 21.5158C37.1484 23.1062 36.7273 25.6524 35.1376 26.4407C33.4664 27.1396 34.4857 24.203 31.419 26.645C32.2059 27.7456 32.7844 29.0654 33.2975 30.3675C32.6376 30.8548 31.8789 31.3052 31.0488 31.6561C26.7592 33.0893 23.2108 34.3011 17.4155 31.6313C17.0703 31.4098 16.448 31.1134 15.5451 30.4383C15.0939 30.0852 14.5264 29.6227 13.939 28.758C13.3491 27.9241 12.8696 26.4889 12.9646 25.2514C13.0637 21.9131 14.3796 17.3871 16.8992 14.415C17.7049 13.4336 16.3 13.9592 17.1972 12.9013C18.1213 11.854 19.0903 11.0014 20.0794 10.2516C22.6065 8.54825 24.1967 6.737 29.3177 5.05515C29.7974 4.93605 30.2913 4.81781 30.8018 4.70232C34.7337 3.77711 40.4827 2.81381 45.6741 5.7227C46.0611 6.27474 46.5763 6.86717 47.1442 7.52049C47.613 8.15345 48.397 8.87602 49.3811 10.0984C50.3426 11.2614 51.557 13.4065 51.6115 15.7149C51.6265 17.7116 51.9154 19.8596 50.606 22.9255C50.3538 23.4619 50.0607 23.9117 49.7673 24.2726C49.2077 24.8298 48.9057 24.7805 48.1861 25.5152C46.4022 27.2686 45.885 27.7757 45.9324 28.1695C45.9496 28.544 46.4061 28.6957 45.8764 29.2329C45.1906 29.9129 44.5232 30.3776 43.8994 30.7062C41.212 32.0428 39.4999 30.637 35.0801 32.6902C34.8852 32.7549 34.0398 33.7549 32.426 34.5816C31.6536 35.1103 30.8822 35.5863 30.6679 35.6665C27.4832 36.8136 30.0555 35.2031 27.9777 35.338C24.5903 35.3942 22.039 35.3993 17.6877 33.9058C17.3442 33.7826 16.8089 33.6346 15.9822 33.2372C15.574 33.0292 14.921 32.7397 14.1084 32.0073C13.2955 31.2987 12.4745 29.9939 12.1756 28.7607C11.6888 27.4146 11.2485 25.4656 11.9408 23.404C12.1068 22.9341 12.6062 23.2779 12.6981 22.9088C13.1441 21.1004 13.9617 19.6149 14.7211 18.5937C15.7505 16.9592 15.3534 15.8495 16.4505 14.1085C17.4943 12.4463 20.0176 10.7751 22.1396 10.0272C22.8177 9.83078 23.3684 9.71189 23.632 9.6756C25.5775 9.4071 23.3415 10.4115 22.6131 10.8121C22.4385 10.9086 22.3256 10.9796 22.3138 11.0027C21.9381 11.7888 22.3054 11.7955 23.0193 11.4853C23.765 11.1964 24.9862 10.4309 26.1197 9.87229C27.1904 11.1597 29.9253 9.71698 28.2695 8.86633C28.0698 8.77108 26.5441 9.71742 26.1197 9.87229C27.0044 7.64315 30.1826 5.51588 34.8887 6.11493C35.0407 6.14874 35.1962 6.18502 35.3549 6.22421C36.306 6.45862 36.3909 6.84515 36.9193 7.05465C37.4686 7.346 38.3923 7.03177 41.6598 7.61351C42.4867 7.804 43.0102 7.91076 43.4174 7.92214C44.3133 7.91121 44.5445 7.23746 46.2321 7.95193C48.198 8.82916 50.572 10.5972 51.9129 13.5845C53.0959 16.3077 54.2446 20.3522 52.6967 24.3394C52.42 25.0391 52.1409 25.7281 51.8647 26.4042C51.0752 28.2499 52.4877 26.7368 51.9296 28.0313C50.5464 30.9124 48.612 33.7527 44.4362 35.7134C44.012 35.9005 43.5808 36.1019 43.1395 36.321C42.8674 36.4562 43.8065 36.7871 42.8391 37.1878C39.8318 38.3891 36.615 39.6376 32.3728 39.6273C28.4626 39.4477 24.835 39.5692 19.5627 38.0655C19.0511 37.8952 18.5045 37.7188 17.9064 37.5145C16.7351 37.0739 14.9614 36.6454 12.7547 34.9356C11.3032 33.7856 9.62367 32.4524 8.02993 30.6505C6.64151 28.9171 4.14161 26.195 5.30095 21.5006C5.34045 21.3682 5.38092 21.2484 5.42191 21.1363C6.06112 19.5734 6.50083 19.1754 7.00946 18.5289C7.50388 17.9519 8.00399 17.4741 8.51702 17.0395C9.54057 16.1769 10.5993 15.5081 11.6748 14.9452C13.8287 13.8253 16.0258 13.1497 18.1468 12.6842C22.524 11.7618 26.4075 12.0122 29.729 12.3826C29.77 12.3873 29.8109 12.3921 29.8519 12.397C34.2933 13.0873 33.5538 12.3833 35.8291 12.744C37.2748 13.0642 39.1518 14.0471 40.695 15.7909C44.8198 20.9744 42.5451 25.5937 42.3522 26.245C42.3501 26.2659 42.5588 24.9816 42.4731 24.0014C42.3883 23.0194 42.2198 22.4389 42.0996 23.8286C41.3755 25.3573 42.3497 26.1526 42.3522 26.245C42.3448 26.2626 42.3363 26.2855 42.3265 26.3136C42.1549 26.7146 41.7151 28.6517 40.7983 30.8049C39.942 32.9669 38.2339 35.1873 37.5791 35.8693C36.876 36.6551 37.7248 36.7003 37.3151 37.1055C36.7211 37.6699 36.0702 38.1841 35.3876 38.6322C31.9236 40.7859 28.0157 43.8703 21.0003 43.127C19.7069 42.9253 17.404 42.8779 14.6225 42.0183C13.2243 41.5502 11.4312 40.8516 9.71805 39.0065C7.95516 37.1661 7.23561 34.2704 7.38121 32.3604C7.42033 31.5916 7.48988 30.8171 7.59806 30.0289C7.63296 29.8356 8.29263 30.2039 8.36745 29.7578C8.93692 27.1007 9.06904 24.8462 11.3831 21.7294C12.8919 19.6947 14.6312 17.4357 17.225 15.5164C18.0058 14.9397 18.8146 14.4381 19.6319 14.0167C22.9789 12.2577 26.3284 11.6026 29.2041 12.2883C30.8757 12.0883 33.0654 11.9153 35.8944 13.1838C40.3004 15.4759 41.186 19.7754 40.8213 22.4872C40.7798 22.7339 40.7384 22.9706 40.6977 23.1965C40.1717 26.0273 41.325 26.7925 41.3196 27.0786C41.1038 30.6758 39.197 34.7635 36.2622 37.0353C33.4178 39.1165 30.2057 42.1325 23.2575 42.2568C22.8965 42.2415 22.5336 42.2252 22.1551 42.2065C21.1452 42.1515 19.8741 42.1077 18.2407 41.8995C17.4136 41.7841 16.5028 41.652 15.2815 41.2519C14.1522 40.8527 12.1582 40.0891 10.7128 37.7515C9.61562 35.8562 9.74419 34.3444 9.72946 33.7074C9.68585 33.2991 9.91412 31.3975 10.4109 30.4105C10.8888 29.3209 11.4338 28.5907 11.92 27.9989C12.7795 26.9403 13.6027 25.9842 14.2997 25.2008C16.5312 22.7243 18.2215 21.5849 20.6105 19.4491C20.9401 19.1616 20.2211 18.9499 20.3129 18.85C22.6203 16.3254 22.4004 17.9728 22.8832 18.1286C22.9344 18.1464 22.9938 18.1491 23.0647 18.1315C24.1269 17.8712 25.0519 17.6459 26.125 17.32C27.2886 17.0802 28.162 16.2701 31.4004 16.4084C31.7972 16.4665 32.3254 16.4973 33.251 16.913C34.1603 17.2518 35.554 18.6528 35.8506 19.9216C36.0024 20.3523 36.19 20.8975 36.3445 21.6015C36.4584 22.2884 37.3372 23.9348 36.7531 26.6093C36.6237 28.2997 36.3446 29.8815 35.7225 30.8798C34.1339 33.2523 34.2543 31.9396 32.3562 34.2391C32.1709 34.4271 32.6032 34.7471 31.112 36.0205C28.6592 38.036 25.2226 40.1143 20.7034 40.3117C19.1535 40.3979 16.747 40.0723 14.7668 38.7169C14.2358 38.3567 13.6942 37.9469 13.0664 37.2939C12.4675 36.6113 11.6175 35.7867 11.0471 33.6643C10.7944 32.7591 10.5495 30.5491 11.003 28.8861C11.4168 27.1614 12.2 25.8491 12.9478 24.8624C14.2937 23.1924 15.5051 21.3086 18.2784 19.1255C18.9664 18.624 18.7906 18.5386 18.6553 18.3953C18.5471 18.2573 18.4079 18.0359 19.7346 17.3079C20.4098 16.9561 21.1809 16.6346 22.025 16.3983C22.9412 16.1758 25.8784 15.1708 29.4017 16.8757C31.2486 17.8858 32.2847 18.7536 33.4845 20.9017C34.2383 22.1973 34.7475 24.907 34.228 26.7784C32.9464 31.2404 31.4743 36.9689 23.8387 40.137C23.2417 40.3337 22.5305 40.571 21.2956 40.6554C20.1474 40.7386 17.8831 40.5538 15.9418 38.9906C12.9943 36.4785 13.029 33.751 13.0406 32.4455C13.0452 31.7442 13.3347 30.0966 13.8069 29.1261C14.2898 28.0678 14.6544 27.6557 14.8926 27.3805C15.4195 26.9524 15.321 27.7117 15.6077 27.5197C17.7449 26.1333 18.5409 23.0545 18.8667 22.6218C19.4783 21.8037 20.092 21.0213 20.7641 20.2263C21.1101 19.821 21.4329 19.4427 21.9475 18.9154C22.0752 18.7863 22.2353 18.626 22.4747 18.412C22.5485 18.3465 22.6293 18.2766 22.7241 18.1985C22.8238 18.1176 22.9051 18.0481 23.1444 17.8756C23.2552 17.7965 23.3844 17.7081 23.551 17.6053C23.7554 17.4895 23.7781 17.4378 24.4946 17.1183C24.8207 16.9831 25.2373 16.8247 25.8768 16.7014C26.1972 16.6414 26.5763 16.592 27.0344 16.5854C27.2634 16.5824 27.5119 16.5906 27.7804 16.6169C27.9146 16.6301 28.0537 16.6478 28.1974 16.671C28.3513 16.6948 28.6494 16.7539 28.8908 16.8211C31.0271 17.2422 33.229 19.7381 33.5558 21.3703C33.8 22.1908 33.8388 22.8546 33.8396 23.3158C33.8393 23.5345 33.8288 23.7275 33.8136 23.9008C33.7487 24.5896 33.6331 24.9895 33.5404 25.3055C33.4928 25.4617 33.4475 25.5922 33.405 25.7072C33.3632 25.8191 33.3526 25.845 33.3276 25.9077C33.2389 26.127 33.1632 26.2888 33.0949 26.4289C33.0201 26.5808 32.9815 26.653 32.9414 26.7285C32.9014 26.8033 32.8633 26.8723 32.8263 26.9379C32.6702 27.212 32.6011 27.323 32.4885 27.504C31.8553 28.5253 31.2211 29.5061 30.5875 30.4633C30.2703 30.9425 29.9547 31.4131 29.6391 31.8804C29.482 32.1131 29.3249 32.3448 29.1727 32.5691C29.095 32.6837 29.0217 32.7914 28.9504 32.8967C28.9168 32.946 28.8831 32.9958 28.8565 33.0347C28.8456 33.0504 28.8331 33.0688 28.8365 33.0616C28.839 33.0567 28.8465 33.044 28.8733 32.9979C28.8987 32.953 28.9279 32.9081 29.0319 32.7099C29.0387 32.6969 29.0458 32.683 29.0534 32.668C29.0573 32.6605 29.0612 32.6528 29.0653 32.6447C29.0784 32.6187 29.1002 32.5749 29.1222 32.5293C29.1676 32.4336 29.2249 32.3145 29.314 32.0903C29.3998 31.8412 29.5401 31.5984 29.7027 30.6446C29.7539 30.1374 29.9242 29.4405 29.5386 27.8937C29.3348 26.4377 27.0582 23.4936 24.4696 23.1525C22.0235 22.7405 20.9256 23.4099 20.2654 23.6718C19.9396 23.828 19.6819 23.986 19.5346 24.0813C19.4571 24.1315 19.388 24.1784 19.3252 24.2225C18.8361 24.5726 18.6589 24.7582 18.505 24.903C18.2243 25.1809 18.1412 25.2888 18.0618 25.3805C17.989 25.4675 17.949 25.5187 17.9175 25.5589C18.6011 24.7288 19.5165 23.5382 20.4981 22.3863C21.0121 21.7874 21.518 21.1943 22.3171 20.4108C22.788 19.9949 23.0353 19.6076 24.5297 18.7177C24.7551 18.5935 25.0134 18.4642 25.3266 18.3361C25.674 18.1944 26.1424 18.0331 26.7184 17.9267C27.3837 17.8091 28.2378 17.7262 29.3722 17.9638C30.5346 18.1962 31.8014 18.8903 32.6031 19.695C34.2587 21.4265 34.3372 22.5837 34.5222 23.2428C34.5592 23.4264 34.5865 23.5979 34.6072 23.7592C34.6237 23.8883 34.6357 24.0088 34.6449 24.125C34.663 24.3569 34.6693 24.5674 34.6691 24.7629C34.5094 29.8253 32.0304 34.2599 27.7053 37.0223C26.5373 37.7489 24.068 39.2021 20.6692 38.732C20.6175 38.7256 20.5653 38.7188 20.5126 38.7117C20.0554 38.4727 18.4163 39.3063 14.5035 36.5321C12.9198 35.1807 11.739 33.8383 10.9746 31.1874C10.1582 28.5732 11.1352 24.9915 12.4857 23.5195C12.7094 23.3044 12.9383 23.1225 13.1688 22.9786C13.3789 22.8067 15.9895 21.3722 17.2534 19.0997C17.3573 18.9548 15.4849 19.6583 17.9929 17.6218C19.969 16.3058 22.2887 13.7224 28.1885 13.5543C29.2119 13.6181 30.4356 13.745 31.8175 14.1438C32.3922 14.3186 33.2605 14.6544 34.5622 15.3426C35.806 16.0142 37.828 17.2697 39.2078 19.5764C40.117 21.0812 40.7619 22.8946 40.9943 24.895C41.0261 25.0558 41.3721 27.1218 40.8139 29.2832C40.6276 31.1743 39.5327 34.0548 37.813 34.7059C37.5845 34.7901 37.2016 34.5 36.5495 34.7599C35.8358 35.005 35.1709 35.8561 32.8497 37.9544C31.8526 38.7103 34.1584 37.9788 31.169 39.7136C30.8284 39.8839 30.4691 40.0405 30.0894 40.1809C26.242 41.5688 22.3217 41.6496 17.3854 41.3899C17.0328 41.3584 16.2455 41.3876 15.0462 41.1373C13.8536 40.8314 12.1216 40.4673 9.966 38.2205C9.63959 37.8595 8.59578 36.6758 8.00906 34.9631C7.39865 33.2495 7.45063 31.4865 7.72037 30.376C7.79457 30.0592 7.86859 29.9822 7.93887 29.9656C8.16629 29.9815 8.42898 30.2461 8.76555 28.9692C9.90967 25.1092 11.6281 22.0234 14.1169 19.146C15.9571 17.0404 18.1757 14.8641 20.6504 13.1921C22.4639 11.9988 22.1108 13.3703 24.0611 12.339C24.1779 12.2797 24.302 12.2162 24.433 12.1491C26.336 11.21 29.3999 9.4375 31.8742 8.08757C32.6763 7.65551 33.0919 7.34024 33.2255 7.05155C33.373 6.76338 33.2625 6.50464 33.4503 6.21872C33.7122 5.91445 33.8899 5.25485 37.1895 5.37602C38.6159 5.49087 40.5231 6.01817 42.1352 7.19974C42.5916 7.53833 43.5095 8.18392 44.4288 9.53909C45.3687 10.8753 45.8937 12.8788 45.8549 14.2772C45.9798 18.6888 44.6141 23.9889 41.5678 27.9439C40.5103 29.3377 39.4299 30.7455 37.9999 32.3082C36.396 33.6978 35.2821 36.2558 29.3416 37.3289C27.8502 37.3972 24.7282 37.8118 21.3283 35.1006C20.1905 34.1727 17.9238 31.7272 17.7765 28.2733C17.7472 27.2089 17.5659 24.4388 19.0684 21.6891C20.3844 19.5307 21.5848 16.3238 25.754 13.1487C27.2132 12.1571 27.65 11.9537 27.9385 11.6872C28.2722 11.4639 28.5064 11.0515 30.6956 10.601C32.01 10.563 34.5451 9.67136 38.1152 13.3414C39.4334 14.8888 39.9481 16.9899 39.9052 18.4097C39.8113 20.3442 39.8299 23.6302 36.4298 27.008C35.0045 28.3382 33.4993 29.6077 31.6918 30.888C29.7556 32.1308 28.1867 33.5501 23.8877 34.5067C21.5344 34.8769 17.7819 34.8952 14.5907 31.3603C12.502 29.0005 12.2759 25.6662 12.7919 23.7664C13.3013 21.4439 14.7384 18.8673 16.6762 17.1815C17.8006 16.1908 19.0167 15.1079 20.6885 13.9737C21.5464 13.4084 22.4957 12.804 23.9935 12.2318C25.4067 11.7373 28.0391 10.8839 31.3978 12.3134C33.2204 13.1166 35.5874 14.8976 36.7025 17.7032C37.7882 20.1244 37.9705 24.2251 36.6991 26.8432C36.4687 27.3284 36.2172 27.8286 35.9167 28.3605C34.9426 30.2142 32.8218 32.672 30.4309 33.2967C29.4751 33.4156 29.7663 33.1118 30.2275 32.7571C31.6584 32.0601 32.5055 30.9673 32.6413 30.6485C32.7182 30.4749 32.6727 30.4442 32.3928 30.6497C32.0743 30.8338 31.6795 31.3875 29.9633 32.0561C29.5557 32.1684 29.0134 32.3578 27.9979 32.5004C27.2248 32.6022 26.2128 32.6489 25.1212 32.4038C23.9493 32.1669 22.2265 31.7282 20.6608 30.2823C17.7361 27.956 17.1504 23.4424 17.6457 22.1962C17.8346 21.4347 18.1163 20.7336 18.4371 20.1226C19.0892 18.1826 22.0025 14.4191 24.6886 13.1334C27.4317 11.6152 30.0063 11.1248 32.4149 10.8395C33.8107 10.6967 35.2567 10.4977 37.2615 10.4241C39.0321 10.4182 37.2423 9.65959 38.9088 9.72723C40.1875 9.8254 41.8512 10.0575 43.7917 11.0883C44.7017 11.5876 45.6341 12.1372 46.6858 12.8731C47.7588 13.7663 48.8677 14.0364 50.8428 17.2494C51.4016 18.0718 52.4716 21.4032 51.7512 23.7389C51.6454 24.1817 51.5217 24.6646 51.3657 25.1829C50.5009 27.5773 51.2976 27.4463 49.3937 30.0563C48.8598 30.703 48.24 31.3126 47.5703 31.8394C44.8855 33.8948 41.5245 35.7887 37.4117 36.4195C37.0149 36.4721 39.4964 35.1693 36.2048 35.9653C36.0866 35.989 35.9669 36.0116 35.8459 36.0332C33.2652 36.7119 26.8581 36.6829 23.0577 34.544C21.9132 34.0225 20.83 33.5363 19.7402 33.1045C18.4579 32.5908 17.8304 33.629 15.6436 31.4623C15.1784 30.9914 16.6112 30.1999 12.9516 29.4712C12.8163 29.441 12.4318 29.3417 11.8678 29.151C11.2967 28.9531 10.579 28.6994 9.62903 28.1899C9.1478 27.9223 8.61358 27.6196 7.85224 26.9652C7.47498 26.6336 7.01411 26.1875 6.5155 25.5041C6.01758 24.8446 5.54425 23.8517 5.36813 23.3791C4.86192 22.4367 4.03515 19.7602 4.39309 17.7887C4.52375 16.8417 5.14306 14.7975 6.26883 12.9625C6.68868 12.4131 7.07567 11.802 7.32367 11.137C7.42185 10.8763 6.34206 11.5932 7.0507 10.0466C8.39138 7.38371 11.0404 2.56843 17.5317 1.68142C20.0633 1.39126 22.585 1.25738 25.3436 1.38616C26.9797 1.4936 24.5703 0.558427 27.0885 0.796169C29.5882 1.22608 32.798 1.3403 36.8608 5.10331C38.9246 7.09183 44.1767 12.3645 44.3852 18.6188C44.4658 21.9164 43.809 19.6365 43.7699 19.8943C43.717 20.1088 43.6677 20.317 43.6219 20.5195C42.9032 22.718 43.9202 24.1858 43.8966 25.0423C43.3683 29.262 43.7369 33.4574 36.9739 38.5885C35.9231 39.1992 34.8445 39.7587 33.664 40.3066C32.2071 40.953 33.483 41.1059 33.2073 41.2786C30.1223 42.9452 32.2133 41.062 30.0792 41.5483C27.3371 42.0769 23.9555 42.2646 20.5431 41.2013C18.166 40.4491 15.4349 39.6376 12.7206 38.3641C10.8758 37.4569 12.6217 39.189 10.9269 38.3015C8.31997 36.8753 5.31408 34.6782 3.24056 31.1101C1.71193 27.9697 -1.09247 24.5442 0.448074 17.1287C0.991241 15.1039 2.57294 11.0925 6.0276 8.83607C7.74547 7.69164 9.61314 6.67967 11.625 5.89378C13.5827 5.17098 12.5715 6.19405 13.0176 6.15157C14.8811 6.01251 17.059 5.2052 18.9092 4.7281C19.67 4.45688 20.4752 4.17072 20.8347 4.10217C25.3569 3.29718 28.1299 4.397 31.9021 6.10806C32.8428 6.55379 33.7303 7.05245 34.5679 7.5819C39.1631 10.6113 42.9419 13.5167 47.1941 18.3047C48.1738 19.4875 49.178 20.8023 50.0971 22.694C51.0162 24.4653 51.7497 27.5952 51.3594 30.0597C51.1607 32.8065 49.6957 38.8044 45.4519 41.8981C43.0151 43.9966 38.5444 46.2 34.6683 46.3846C31.9199 46.5991 29.1376 46.5871 26.3765 46.2208C23.3091 45.813 20.1468 44.9387 17.2034 43.2898C14.4563 42.0233 11.1429 38.0223 10.4934 35.0495C9.7314 32.017 9.01285 29.989 9.73614 25.3264C10.6817 20.7619 13.8447 16.6483 17.4267 14.4127C20.6672 12.2578 25.7628 9.89139 31.2753 10.6273C35.0191 11.2281 38.9379 11.2751 44.2911 14.4625C45.8228 15.5428 44.709 13.7876 46.0744 14.8322C47.0652 15.6406 48.0013 16.639 48.755 17.7171C49.1848 18.3381 49.9212 19.2751 50.6747 20.8474C51.369 22.3025 52.4316 25.3577 51.1286 28.7783C47.7057 36.105 43.2531 39.9577 35.8233 42.3302C31.9793 43.3459 27.6322 43.9639 23.1282 43.5377C21.0204 43.3347 19.0261 42.879 17.0693 42.185C15.7545 41.6874 17.3955 43.1232 15.2485 42.2746C12.5078 41.1449 9.52791 39.1373 7.2811 36.6778C6.2382 35.5337 5.18084 34.3076 4.15264 32.7779C2.81255 30.6622 5.21543 33.1263 3.87909 30.9289C3.1746 29.6417 2.25792 27.9112 2.062 25.2653C2.04907 22.1994 1.29044 17.9416 3.97908 12.6142C5.73464 9.79955 2.22119 13.6287 4.87083 9.97236C5.00886 9.80889 5.15129 9.64768 5.29796 9.48909C8.7288 6.10145 13.2213 1.05371 22.3432 1.85622C24.7807 2.21885 27.3486 2.60455 30.3484 3.55487C33.1659 4.52801 37.5475 6.13209 40.2675 11.2511C41.7435 14.2758 42.607 17.06 43.154 20.289C43.4928 23.5145 44.3763 27.1178 41.2971 32.5436C40.7822 33.2806 40.2031 34.1245 39.5124 35.0297C38.6871 36.0453 36.9921 36.1502 34.9271 38.424C35.0165 38.8863 35.3354 39.242 35.5335 39.6446C33.0507 41.8157 29.8634 43.2175 27.0181 43.8409C22.5414 44.7479 16.9451 45.5901 10.8518 41.8693C8.44058 40.5824 4.74151 36.184 4.66801 32.025C4.33861 27.7116 4.35301 22.6688 6.61343 17.487C8.49501 13.5676 10.4487 7.808 17.0419 3.82737C21.3112 1.847 24.5864 -1.01842 33.0691 0.363339C34.9128 0.892892 36.7123 1.56885 38.6217 2.66877C39.8208 3.40933 38.104 1.38225 40.5075 2.96385C42.9623 4.61564 46.1812 8.30773 46.3976 12.9543C46.4687 14.1306 46.543 15.4422 46.3771 17.1585C46.1373 18.8186 45.9798 21.2975 43.3587 24.2257C39.634 27.7163 36.9201 30.3894 29.9307 31.8791C28.6748 32.0194 26.988 32.2993 24.6907 32.1569C22.4546 32.0554 19.2039 31.1063 16.9997 29.0496C16.8181 28.8869 16.6817 28.7339 16.5746 28.588C15.9709 27.5031 16.6187 27.1429 14.3367 23.8593C14.1344 23.5334 13.1811 21.9794 12.6092 19.9197C11.9904 17.8756 11.9924 15.3964 12.0827 14.2343C12.0817 14.1811 12.0802 14.1311 12.0778 14.085C12.0711 13.9924 11.8709 14.1491 11.7053 14.125C11.5457 14.0835 11.3847 13.9676 11.5753 12.9621C11.7037 12.3531 11.837 11.6565 12.2632 10.5697C12.7222 9.60544 13.4118 7.46429 16.6345 5.93191C18.3493 5.17406 20.6562 4.69897 23.0239 5.12022C29.5528 6.17021 33.4829 10.0227 36.776 12.7649C37.7283 13.6143 38.7003 14.4818 39.7867 15.5981C40.8049 16.8743 42.3322 17.5908 43.5042 21.8955C43.592 22.4158 43.6911 23.016 43.7321 23.8592C43.768 24.6564 43.6614 25.2287 43.5677 25.4405C43.4705 25.6652 43.3866 25.5759 43.307 25.4531C43.2271 25.3308 43.1459 25.1822 43.0692 25.2414C42.9839 25.3083 42.951 25.5346 42.759 26.3774C42.6452 26.8462 42.4722 27.3619 42.2225 27.8763C40.3725 31.2371 38.1224 32.1966 36.1076 33.0574C34.4826 33.659 32.7898 34.3846 30.4461 34.9141C28.1909 35.4886 24.6021 35.3937 22.0664 34.0475C20.4495 33.2705 18.2835 31.7778 17.115 29.249C16.6111 28.1322 16.0632 26.6121 15.8829 25.0117C15.6552 23.0147 16.0281 21.6283 16.3907 20.8202C17.3257 19.2445 17.975 19.8889 19.5139 18.2195C19.7181 17.8331 21.6047 15.0567 22.2547 15.4787C23.7389 16.3361 24.4194 18.4233 26.123 19.1854C26.3548 19.4075 28.1901 16.9941 27.5902 18.9116C27.5727 18.9741 27.2456 19.4388 27.0513 19.88C26.8472 20.3267 26.7941 20.7271 26.8688 20.9242C26.9811 21.1824 27.7108 21.2582 27.8313 21.6451C27.9625 21.9709 27.4186 22.1081 27.3991 22.9869C27.417 22.9824 27.4417 22.9777 27.4746 22.9724C27.6461 22.9456 27.9234 22.929 28.1686 22.8814C28.2913 22.8593 28.4038 22.8253 28.4936 22.8104C28.5869 22.8013 28.6423 22.794 28.7461 22.9924ZM33.4792 35.5609C30.994 36.6254 31.9685 38.8561 34.062 36.5871C34.156 36.4749 33.6059 35.5015 33.4792 35.5609ZM14.9968 24.2325C16.2979 20.878 16.2017 17.8462 14.3961 20.2788C12.7586 23.0424 14.6412 25.3212 14.9968 24.2325ZM37.054 10.3686C37.3944 12.4561 38.0998 13.5054 38.7918 13.5727C39.438 13.6465 40.0975 12.4007 38.9467 10.0807C38.8067 9.80168 37.0069 10.1158 37.054 10.3686ZM22.7912 30.6108C22.7817 30.5853 22.2317 30.2612 21.7041 29.8078C21.17 29.3665 20.7085 28.7705 20.6785 28.7509C19.9111 28.2979 20.3403 29.4373 21.2209 30.1912C22.0856 30.9499 23.0744 31.208 22.7912 30.6108ZM21.6288 30.2896C21.1688 29.8518 20.1985 29.2983 19.4814 28.7107C18.7426 28.1665 18.0322 27.6107 18.4041 28.6115C18.4984 28.842 18.6632 29.0938 18.8492 29.3233C20.1389 30.9056 22.7294 31.2319 21.6288 30.2896ZM26.1732 30.5479C26.1394 30.576 25.0035 31.4882 25.1238 31.615C25.6172 32.1409 27.125 30.4714 26.1732 30.5479ZM20.3345 19.2865C20.4198 19.191 20.5059 19.098 20.5928 19.0073C20.6053 18.9939 20.6439 18.9553 20.6578 18.9433C23.6658 16.2836 26.9331 14.9892 28.1215 15.3071C29.2823 15.6722 28.5968 16.034 25.2752 18.4175C23.9985 19.305 27.4152 15.7361 25.6788 16.6787C23.9404 17.623 22.974 19.0332 21.8948 20.3414L21.9717 20.2657C21.543 20.9404 21.1313 21.6439 20.8733 22.2146C20.7795 22.4331 20.7578 22.4806 20.7238 22.5671C20.6891 22.6592 20.7192 22.9044 20.8273 23.2097C20.8857 23.3618 20.6324 23.3304 20.274 23.1281C19.9188 22.9491 19.4852 22.4364 19.5729 21.672C19.6557 20.5133 20.2011 19.4371 20.3417 19.2722C20.3393 19.277 20.3369 19.2817 20.3345 19.2865ZM30.5777 34.1515C30.53 34.1715 28.8795 35.2139 28.8422 35.2439C28.2997 36.494 31.7687 34.3363 30.5777 34.1515ZM30.5219 15.8629C30.6411 15.8005 34.5321 13.8497 34.5878 13.939C35.4142 13.098 33.8514 13.0309 32.2519 13.8528C30.691 14.6159 29.338 15.8203 30.5219 15.8629ZM20.2181 31.3501C20.7009 31.3343 21.2021 31.3519 21.7102 31.412C23.1635 31.5119 24.8298 31.8141 26.0377 32.6704C24.4796 32.4947 22.9053 32.2708 21.5781 31.8211C21.1145 31.6635 20.6587 31.509 20.2181 31.3501Z" fill="var(--stroke-0, #F3A632)"/>
</svg>
