<svg preserveAspectRatio="none" width="100%" height="100%" overflow="visible" style="display: block;" viewBox="0 0 0.116461 16" fill="none" xmlns="http://www.w3.org/2000/svg">
<path id="Vector 182" d="M0.00110929 0.0813584C0.00176191 -0.127064 0.00261738 0.0957899 0.00326752 0.40167C0.00347128 0.496538 0.0033681 0.920604 0.00350876 1.00518C0.00378385 1.17007 0.00404013 0.962087 0.00431198 1.1585C0.00440208 1.22567 0.00428993 1.89739 0.0043844 1.95245C0.00490207 2.24931 0.00539181 2.07821 0.00591622 2.221C0.00849929 2.92548 0.0110384 3.17764 0.0136531 3.48369C0.0145152 3.58403 0.0155632 4.19364 0.0164537 3.92705C0.0165576 3.89533 0.0164957 3.30572 0.0165154 3.25713C0.0168257 2.5132 0.0167225 3.70348 0.0169251 3.86162C0.0177289 4.48603 0.0186229 4.54034 0.0193965 4.31279C0.0197256 4.21426 0.0193956 3.04316 0.019727 3.70049C0.01975 3.7449 0.0196665 4.37101 0.0197568 4.43779C0.0199615 4.58798 0.0203498 4.47607 0.0205085 4.52568C0.0208142 4.62445 0.0208648 4.61816 0.021154 4.62529C0.0215493 4.64049 0.0220195 4.95173 0.0224437 4.80986C0.0225342 4.77772 0.0224144 4.13588 0.0225588 4.02666C0.0227033 3.91761 0.0230856 3.97204 0.0232145 4.12334C0.0233434 4.27472 0.0232885 4.77919 0.0233113 4.89482C0.023499 5.87079 0.0239413 4.51907 0.0239982 4.48564C0.0250356 3.91605 0.0259253 4.68608 0.0268992 4.68388C0.0276385 4.68058 0.028429 4.42637 0.0291325 4.46123C0.0299706 4.50524 0.0306809 4.85305 0.0314951 4.79326C0.031581 4.78769 0.0314803 4.03304 0.0315853 4.02471C0.0327003 3.93689 0.0338075 4.01915 0.0349177 4.52861C0.035029 4.58037 0.0348855 5.24295 0.0349968 5.33427C0.0356778 5.87879 0.0367554 7.18686 0.0371599 4.30205C0.0376212 4.4147 0.0381813 4.53108 0.038594 5.11259C0.0388601 5.48686 0.0386016 6.20867 0.0389285 5.90068C0.0390022 5.83205 0.0389064 5.19992 0.0390169 5.14482C0.0394824 4.91341 0.039991 5.11889 0.0404514 4.79228C0.0405451 4.72436 0.0405195 4.15795 0.0405461 4.05596C0.0407691 3.22993 0.0411404 4.5954 0.0412213 4.69463C0.0418377 5.43452 0.0422878 5.14336 0.042862 5.16142C0.0429953 5.16593 0.0428378 4.40511 0.042966 4.38213C0.043631 4.27309 0.0443198 4.33848 0.0449709 4.67607C0.0451158 4.75299 0.0449826 5.40107 0.0450518 5.47099C0.045357 5.77139 0.0454246 4.54734 0.0457173 4.81181C0.045779 4.866 0.0457442 5.4208 0.0457555 5.48173C0.0459316 6.43822 0.0460847 5.08294 0.04613 5.05302C0.0467032 4.64418 0.0470695 6.05902 0.0476232 5.85868C0.0476894 5.83329 0.0475401 5.13129 0.0477262 5.10283C0.0489667 4.90904 0.0502786 5.10188 0.0515065 5.66337C0.0516974 5.74973 0.0515611 6.27707 0.0515731 6.34208C0.0517689 7.35782 0.0518956 5.99685 0.0519578 5.9456C0.0524489 5.57665 0.0529077 6.71799 0.0532413 5.09697C0.0553211 5.65951 0.0573913 4.74923 0.0594539 6.20146C0.0594801 6.21828 0.0594331 6.88856 0.0594854 6.91923C0.0601154 7.29558 0.0599944 6.25385 0.0604113 4.97978C0.0605163 4.65986 0.0608357 6.19808 0.060864 6.31083C0.060967 6.72633 0.0608602 7.72352 0.0608946 7.80399C0.06118 8.43586 0.0611335 5.13807 0.0615184 5.13701C0.0615304 5.1425 0.0614799 5.7495 0.0615122 5.80986C0.0616125 5.99934 0.0617121 5.75814 0.0618103 5.96708C0.0620351 6.45057 0.0621151 8.05301 0.0624584 7.1204C0.0625019 6.99936 0.0624355 5.12872 0.0627792 5.21708C0.0629162 5.2539 0.0635226 5.22184 0.0636926 5.34306C0.0638624 5.46414 0.0637458 6.06695 0.0637579 6.09306C0.0642153 6.89017 0.0640419 7.22054 0.064271 8.40067C0.0645002 9.57634 0.0644366 6.77225 0.0645301 6.45927C0.0646236 6.14718 0.064959 6.80485 0.0650414 7.03348C0.0651238 7.26221 0.065021 7.64526 0.0650943 7.77469C0.0655799 8.62036 0.0653074 6.38284 0.0654674 5.93779C0.0658447 4.88398 0.0661385 6.9635 0.0664839 7.16727C0.0665774 7.2223 0.0665011 6.74868 0.0665843 6.70438C0.0669139 6.53523 0.0671121 7.1841 0.0674871 6.58915C0.0675484 6.4922 0.0678515 5.24193 0.0680477 6.15946C0.0680755 6.29177 0.0679966 6.80998 0.068137 6.92606C0.0683468 7.10027 0.0687249 7.21354 0.0689505 7.04032C0.069117 6.91216 0.0689261 6.05827 0.0691357 6.32353C0.0692289 6.44197 0.0690562 6.9415 0.0692312 7.12235C0.0694053 7.30315 0.0698504 7.2812 0.0700198 7.26395C0.0701889 7.24632 0.0700963 6.59861 0.07011 6.55497C0.0701927 6.30501 0.0705171 5.99268 0.0705458 5.99345C0.0719921 5.91438 0.0733257 7.00618 0.0747339 6.64481C0.0748444 6.61739 0.0747708 5.93436 0.0747876 5.92314C0.0751659 5.63696 0.0748677 7.45298 0.0751319 8.06083C0.0750937 6.67476 0.0752497 6.92573 0.0755162 6.77372C0.0756446 6.69934 0.0755747 6.16265 0.0755864 6.10771C0.0757768 5.29253 0.0759095 6.34544 0.0759436 6.56083C0.0760697 7.35316 0.076207 6.41697 0.0762928 6.94657C0.0763786 7.47222 0.0761812 8.25147 0.0764367 8.24149C0.0765084 7.74532 0.0763187 6.44871 0.0765127 6.23857C0.0772448 5.44369 0.0786114 6.46101 0.0792001 6.56669C0.0797875 6.67228 0.0799773 6.58073 0.0803196 6.76005C0.0809379 7.08427 0.0807113 6.12226 0.0810953 5.68193C0.0814804 5.24164 0.0812931 7.60863 0.0813485 8.11747C0.0814028 8.62607 0.0814622 8.10252 0.0815298 8.38211C0.0815971 8.66165 0.0814513 9.00762 0.0816097 9.11258C0.0817683 9.21744 0.0822017 8.3126 0.0822579 7.78055C0.0823767 6.65337 0.0821814 5.47035 0.0826009 5.88603C0.082625 5.9107 0.0825467 6.53308 0.0826391 6.59599C0.0833728 7.07513 0.0841351 7.10483 0.084868 7.5286C0.0849687 7.58784 0.0848786 8.28023 0.0849373 8.32254C0.0855481 8.76541 0.0853297 7.59796 0.0856645 6.30107C0.0855894 8.02695 0.0857745 9.08286 0.0862381 9.09305C0.0865167 9.09978 0.0864688 8.346 0.086649 7.81473C0.0867031 7.65458 0.0869003 8.17215 0.086936 7.81766C0.0870538 6.65888 0.0868681 5.36169 0.0873461 5.87822C0.087367 5.90276 0.0873002 6.53706 0.0873727 6.57548C0.0878411 6.82692 0.0878971 5.61485 0.0884034 5.46806C0.0888002 5.35288 0.089506 6.09199 0.0899579 6.2122C0.0899484 8.1526 0.0903752 7.70827 0.0905483 6.3704C0.0908416 6.42517 0.0911583 6.34954 0.0914417 6.53446C0.0915392 6.59751 0.0914752 7.15931 0.0914875 7.22001C0.0916761 8.17225 0.0918036 6.87065 0.0918669 6.81962C0.0925529 6.32359 0.0931118 7.31009 0.0937665 6.34599C0.0937898 6.31126 0.0938274 4.9634 0.0940024 5.94755C0.0940138 6.01539 0.0937976 6.62864 0.0941055 6.67606C0.0944136 6.72359 0.0949942 7.44614 0.0954219 6.82157C0.0955254 6.67121 0.0957871 5.57702 0.0959972 6.43192C0.0960252 6.54801 0.0959946 6.93458 0.096035 7.1497C0.0961656 7.83513 0.0962369 6.47278 0.0963904 7.63016C0.0965439 8.7875 0.0968632 9.65426 0.0972944 8.85574C0.0973082 8.83253 0.0974103 7.75274 0.0975459 7.76981C0.0977624 7.79799 0.0980697 8.02294 0.0982958 8.0159C0.098404 8.01215 0.0983348 7.34165 0.0983536 7.32938C0.0990813 6.95366 0.0995993 7.5514 0.100379 7.81083C0.100522 7.85971 0.100933 6.94538 0.101209 7.66825C0.101513 8.45956 0.101201 11.7513 0.101899 10.9671C0.102181 10.6534 0.102537 6.47722 0.103044 8.6409C0.104025 8.10476 0.104933 9.21212 0.105918 8.44657C0.105962 8.41265 0.106102 7.24711 0.106206 7.26298C0.10636 7.28878 0.106445 7.83353 0.106556 7.86942C0.107018 8.03351 0.107441 7.56743 0.107887 7.63993C0.108056 7.66627 0.107997 8.22954 0.108198 8.26102C0.1084 8.29198 0.108535 7.55026 0.108808 7.90848C0.109014 8.18153 0.109221 9.69758 0.109495 9.8743C0.109505 8.37888 0.109693 8.40968 0.110028 8.01493C0.110092 7.93834 0.110023 7.41785 0.110054 7.35477C0.110177 7.08651 0.110292 7.51788 0.11041 7.22587C0.110438 7.15573 0.110439 6.64504 0.110463 6.55888C0.110662 5.80678 0.110989 6.95554 0.111045 7.15555C0.111261 7.91517 0.111362 7.25095 0.111527 7.55008C0.111692 7.84918 0.111445 8.22307 0.111638 8.40457C0.112038 8.77999 0.112551 8.69751 0.112957 8.72098C0.113119 8.72719 0.113008 8.04549 0.113032 8.03055C0.113366 7.85765 0.113705 8.58279 0.113891 7.22489C0.114123 10.7359 0.114093 6.88434 0.114571 7.58719C0.114609 7.64404 0.114657 9.30437 0.114512 9.54813C0.114368 9.79165 0.114148 9.27265 0.113947 9.65262C0.1139 9.74179 0.113627 11.2976 0.11359 11.3919C0.113299 12.1284 0.113258 9.64729 0.113242 9.51102C0.113067 8.04037 0.112735 9.71649 0.112647 9.8323C0.112246 10.363 0.111905 10.0141 0.111569 10.3928C0.11135 10.6377 0.111329 12.2629 0.111156 12.2132C0.110584 12.0487 0.110384 9.78151 0.109844 11.7473C0.109728 12.1666 0.109843 13.9429 0.109429 12.5462C0.109403 12.4581 0.109095 11.1803 0.108917 11.9885C0.108894 12.0905 0.108895 12.6081 0.108866 12.6516C0.108668 12.9329 0.108537 12.5205 0.108321 12.718C0.108106 12.9156 0.107848 13.21 0.107602 13.0344C0.107454 12.9294 0.107264 11.9649 0.107194 11.7288C0.106993 11.0485 0.106779 12.1639 0.106655 11.3401C0.10653 10.5122 0.106774 9.25493 0.106447 8.72C0.106435 10.065 0.106407 11.4455 0.106387 12.7981C0.105669 12.7508 0.104962 12.3158 0.104242 12.3753C0.104152 12.384 0.104244 13.107 0.104148 13.135C0.103744 13.2499 0.103391 12.7344 0.102972 12.9397C0.102648 13.1014 0.102292 13.867 0.101953 14.0598C0.101746 12.5208 0.101243 13.0433 0.100877 12.9026C0.100749 12.854 0.100757 12.443 0.100666 12.3089C0.100323 11.8129 0.100484 13.1729 0.10039 13.387C0.0999855 14.3004 0.0999509 11.2221 0.0994744 11.2981C0.0994492 11.3011 0.0991406 12.942 0.0990981 13.0442C0.0988281 13.7105 0.0990534 12.4731 0.0988845 12.3518C0.0985759 12.1303 0.0983615 11.7384 0.0979995 12.219C0.0978939 12.3614 0.0976407 13.3841 0.0974357 12.593C0.0974087 12.4894 0.0974237 11.9471 0.0974019 11.9153C0.097009 11.3858 0.0969987 13.0901 0.0967742 13.6673C0.0965496 14.2443 0.0962028 13.0679 0.0961322 12.7288C0.0959476 11.8516 0.0962737 12.3539 0.0962837 12.2678C0.0964012 11.2435 0.0961483 11.4198 0.095955 11.3333C0.095927 9.66225 0.0956567 9.76255 0.0957546 11.2503C0.0957658 11.4128 0.0959162 11.2569 0.095955 11.3333C0.0957853 12.9728 0.0954883 13.1827 0.0951602 11.6507C0.0950066 10.9326 0.0951518 10.0954 0.0946853 10.4016C0.0944736 10.5399 0.0945554 11.6905 0.0943685 12.0042C0.0939417 12.7199 0.093387 11.6466 0.0929469 11.8157C0.0927872 11.8771 0.0929427 12.5069 0.0928336 12.5706C0.0925439 12.7415 0.0922884 12.2689 0.0919975 12.511C0.0919711 12.5337 0.0920355 13.193 0.0919451 13.2014C0.0912592 13.278 0.090662 12.8557 0.0899459 12.844C0.0895999 12.8387 0.0889813 13.2023 0.0886229 13.1292C0.0880017 13.0064 0.0872375 12.0476 0.0867068 12.2805C0.0863606 12.4296 0.0864366 13.0891 0.0862883 13.5383C0.0860021 14.4093 0.0854955 12.8492 0.0854273 12.6077C0.0854252 12.5997 0.085723 12.4442 0.0855641 12.1057C0.0854717 11.4004 0.0854306 12.6046 0.0854273 12.6077C0.0853825 12.4516 0.0847875 12.3019 0.0846694 12.428C0.0846052 12.4969 0.0846411 13.1217 0.0846076 13.1458C0.0838121 13.7049 0.0830151 13.8637 0.0822082 13.5715C0.082194 13.5589 0.0822153 12.8601 0.0821819 12.8391C0.0817148 12.5284 0.0814157 13.3833 0.0810304 13.8909C0.0806452 14.3982 0.0803397 14.2283 0.0801117 13.0286C0.0798211 13.1796 0.079404 12.6492 0.0791641 12.3274C0.0789241 12.0056 0.0788906 13.3659 0.0788695 13.3928C0.078211 14.2536 0.0778303 13.475 0.0771471 13.3538C0.0768223 13.2938 0.076178 13.4912 0.0758263 13.6399C0.0755484 13.7597 0.0753809 13.4409 0.0751248 13.6448C0.0750902 13.672 0.0751252 14.2777 0.0751146 14.301C0.0748288 15.0257 0.0749662 13.545 0.0749071 13.2805C0.0746932 12.3188 0.074561 11.8066 0.074195 12.2591C0.0741106 12.3627 0.0738646 14.4947 0.0737107 14.6194C0.0735107 14.7776 0.0735862 14.0134 0.0733767 14.1985C0.0733587 14.2136 0.0733625 14.6851 0.0732332 14.6643C0.0726329 14.574 0.0719785 14.2997 0.0713548 14.3469C0.0712696 14.3516 0.0713788 15.0994 0.0712557 15.1184C0.0706781 15.2071 0.070045 15.1794 0.0694822 14.8294C0.0693438 14.7408 0.0694306 14.2172 0.0694005 14.0618C0.0692159 13.1211 0.0689541 14.4879 0.0689109 14.5139C0.0678806 15.1707 0.067092 13.9338 0.0660419 14.5227C0.0659847 14.5573 0.0655447 16.0225 0.0653484 14.7659C0.0653349 14.6823 0.0651407 13.3966 0.064969 14.2756C0.0649583 14.3306 0.0650794 14.9925 0.0648681 14.9251C0.0646569 14.8577 0.064317 15.2997 0.0640267 14.5725C0.0639348 14.3434 0.0637176 13.0609 0.0634434 14.0833C0.0634255 14.1546 0.0630023 16.4662 0.0628512 14.8714C0.0628267 14.6088 0.0628523 12.9211 0.0625251 13.7864C0.0624626 13.9542 0.0625761 14.3306 0.0624114 14.5657C0.062159 14.928 0.0618246 14.4759 0.0615144 15.2278C0.0614603 15.3609 0.06123 16.5064 0.0610453 15.637C0.0610163 15.5008 0.0610713 14.9373 0.0609737 14.8743C0.0605098 14.5718 0.060024 14.9487 0.059553 14.5589C0.0593861 14.4219 0.0594714 13.511 0.0592975 13.2669C0.0591236 13.0228 0.0587731 12.7881 0.0585911 13.2044C0.0584091 13.6208 0.058608 15.0726 0.0583352 15.1887C0.0571497 15.6933 0.0559752 14.8416 0.0547914 14.7171C0.0546158 14.6984 0.0547613 15.2179 0.0545026 15.2278C0.0535486 15.2664 0.0519016 15.7535 0.0510738 14.6497C0.0504105 13.7656 0.0512452 13.0925 0.0507383 12.7327C0.0504938 12.5611 0.0502292 14.2489 0.0501701 14.302C0.0495934 14.8418 0.0491925 14.0941 0.0486734 14.3235C0.0485662 14.3711 0.0486714 15.0552 0.0485801 15.0881C0.0482685 15.2068 0.047941 14.9014 0.0476432 14.9573C0.0475096 14.9839 0.0475342 15.5064 0.0474113 15.4661C0.0471171 15.3756 0.046857 15.156 0.0465703 14.6663C0.0465441 14.6216 0.0467204 13.9717 0.0465027 13.9475C0.0461505 13.9102 0.0457134 13.4272 0.0453081 13.926C0.0451879 14.0761 0.0451832 15.2702 0.0449247 14.4456C0.0448705 14.2733 0.0449397 12.8394 0.0446386 14.0784C0.044588 14.2843 0.0440823 15.9554 0.0438341 14.8782C0.0437686 14.5947 0.0436015 13.4213 0.0434569 13.6057C0.0434373 13.6352 0.0435158 14.2766 0.043396 14.3391C0.0429738 14.5485 0.0425312 14.48 0.0420974 14.6809C0.0419816 14.7358 0.0421541 15.3996 0.0419815 15.4602C0.0415067 15.628 0.0409139 15.459 0.0404497 15.2512C0.0402785 15.1734 0.0403968 14.6236 0.0403844 14.5637C0.0401841 13.5905 0.0400656 14.9041 0.0399992 14.9807C0.0395858 15.4394 0.0392709 14.8223 0.0388899 14.9856C0.0387847 15.029 0.0388593 15.6553 0.0388383 15.7112C0.0386212 16.2569 0.0387829 15.1321 0.0386455 15.0081C0.0382605 14.657 0.0378313 14.7073 0.037442 14.7874C0.037299 14.8177 0.0374597 15.5439 0.0373314 15.5628C0.0365718 15.6879 0.0357821 15.6184 0.0350408 15.218C0.0349012 15.1413 0.034989 14.5821 0.0349599 14.4544C0.0347594 13.5607 0.0344655 14.7797 0.0343979 14.8958C0.0340905 15.4259 0.0339711 14.9314 0.0336995 15.0237C0.0323732 15.4833 0.0307355 15.1557 0.0294835 14.9534C0.027852 14.693 0.026586 14.1609 0.0250302 14.2991C0.0249313 14.3072 0.025031 15.0511 0.0249458 15.0676C0.0238453 15.247 0.0227618 14.9563 0.0216591 15.1712C0.0215686 15.1875 0.0216991 15.8927 0.0215538 15.9426C0.0212559 16.0499 0.0208785 16.0116 0.0205773 15.7864C0.0204304 15.6779 0.0206275 15.0727 0.0204796 14.9758C0.0201353 14.7489 0.0197662 14.6987 0.0194125 14.8118C0.019262 14.8614 0.0194891 15.5828 0.0192934 15.5911C0.0179608 15.6626 0.016652 15.7869 0.0153053 14.8528C0.0152129 14.7886 0.0151319 13.3226 0.0149356 13.6038C0.0149209 14.0106 0.0149217 14.4892 0.0149152 14.9241C0.0129752 15.1583 0.011055 14.6501 0.00910958 14.5715C0.00902756 14.5684 0.00916931 15.3452 0.00901051 15.343C0.0080914 15.3315 0.00719889 15.5467 0.00625875 14.7747C0.00616547 14.6992 0.00621332 13.3327 0.00593843 13.5393C0.00588995 13.577 0.00547593 13.7593 0.00536889 14.0559C0.00535435 14.1007 0.00542988 14.7385 0.00529647 14.7571C0.00452118 14.854 0.00370872 14.7083 0.00293477 14.3186C0.00280986 14.2545 0.00294288 13.5753 0.00285391 13.5237C0.00222283 13.1631 0.00153639 13.6795 0.000933366 13.0628C0.000529719 12.6475 0.000679161 11.4734 0.000464668 10.3177C0.00043433 10.1546 0.00018438 10.1288 0.000171455 9.45633C0.000138271 7.76545 0.000259339 5.91394 0.000209661 4.11162C0.000199166 3.72341 -0.000135582 4.14154 6.26103e-05 3.20342C7.64561e-05 3.14063 0.00031915 2.82928 0.000378925 2.51104C0.000420543 2.29101 0.000345547 1.60715 0.00043046 1.3255C0.000515366 1.0441 0.000608667 1.61735 0.000749441 1.28643C0.000890151 0.951418 0.00082828 0.17345 0.00110929 0.0813584ZM0.0780836 10.8889C0.0778614 10.2356 0.0778286 12.6284 0.078069 12.0559C0.0780806 12.0254 0.0780951 10.921 0.0780836 10.8889ZM0.104966 10.511C0.104676 9.45564 0.104477 11.0075 0.104682 11.8225C0.104887 12.6367 0.105055 10.8309 0.104966 10.511ZM0.107979 9.74051C0.107639 8.90839 0.107586 12.3014 0.107949 11.6155C0.10797 11.5767 0.107998 9.78882 0.107979 9.74051ZM0.00145937 9.98855C0.00145631 9.95678 0.00127663 9.92581 0.00127234 9.9573C0.00117667 10.7172 0.00153594 10.7786 0.00145937 9.98855ZM0.110968 8.90164C0.110862 8.44266 0.110556 8.9725 0.110688 9.54324C0.110794 10.0024 0.111099 9.47259 0.110968 8.90164ZM0.0664933 8.33524C0.0664897 8.29958 0.0663609 8.26748 0.0663635 8.46903C0.0663723 9.11818 0.0665515 8.93497 0.0664933 8.33524ZM0.116048 8.86258C0.115297 8.73486 0.114842 5.93206 0.115659 6.24833C0.115807 6.30555 0.11534 7.14212 0.115529 7.39481C0.115874 7.85517 0.116102 6.09535 0.116454 7.03837C0.116518 7.21097 0.11609 8.87609 0.116046 8.86649C0.116047 8.86518 0.116047 8.86388 0.116048 8.86258ZM0.0779557 8.01493C0.0779512 7.98329 0.0777729 7.95329 0.0777686 7.98465C0.0776721 8.74429 0.0780313 8.80517 0.0779557 8.01493ZM0.0589768 6.85575C0.0589669 6.78833 0.0585531 6.72527 0.0585396 6.78739C0.0583237 8.02959 0.0591604 8.16076 0.0589768 6.85575ZM0.089965 6.26396C0.0901596 5.49976 0.0903923 5.40978 0.0905474 6.36942C0.090354 6.31848 0.0901594 6.31098 0.089965 6.26396Z" fill="var(--stroke-0, #78A02D)"/>
</svg>
