<svg preserveAspectRatio="none" width="100%" height="100%" overflow="visible" style="display: block;" viewBox="0 0 88.7433 84.0145" fill="none" xmlns="http://www.w3.org/2000/svg">
<path id="Vector 186" d="M15.9001 68.6329C14.6372 66.6312 13.0812 64.0416 11.7716 62.0762C10.7264 60.5591 9.42719 58.7762 8.37438 57.2902C7.57585 56.1723 8.34429 56.4371 7.80088 55.6502C6.73639 54.1146 5.4486 52.9204 4.38959 51.3954C4.04104 50.8903 5.04735 51.0259 4.66768 50.5039C4.3533 50.0735 4.03433 49.6561 3.70693 49.2431C3.27503 48.7021 2.83771 48.1644 2.37018 47.5706C2.13362 47.2691 1.89404 46.9617 1.61193 46.5722C1.4701 46.3749 1.31685 46.1596 1.11869 45.8459C1.01636 45.6817 0.902578 45.4979 0.744678 45.1936C0.661204 45.0296 0.574266 44.8566 0.452111 44.5508C0.339098 44.2283 0.16117 43.8873 0.0382957 42.8552C0.00126457 42.4539 -0.0200105 42.0368 0.0270357 41.4622C0.12221 40.7246 0.138923 40.0514 0.927341 38.6406C1.54983 37.4028 3.53672 35.984 4.83242 35.7792C6.23551 35.4726 6.9976 35.6277 7.62496 35.7308C9.77416 36.2609 10.0841 36.6897 10.7639 37.0558C11.9177 37.7976 12.6589 38.4195 13.4239 39.0763C16.7193 41.973 19.678 45.0514 22.1292 46.9215C27.3456 50.7146 32.2751 54.5075 37.2417 58.6277C40.7997 61.6042 44.3391 64.8859 47.4416 68.658C48.4728 69.907 49.4734 71.1963 50.4348 72.5736C50.9183 73.2676 51.3863 73.9746 51.8491 74.7408C52.0812 75.1261 52.3083 75.5191 52.5416 75.9587C52.6565 76.1758 52.7761 76.4096 52.9022 76.6786C52.966 76.8151 53.0328 76.9625 53.1077 77.1437C53.1477 77.2409 53.1875 77.3406 53.2372 77.4778C53.2866 77.6216 53.3465 77.7676 53.4399 78.1615C53.4572 78.2394 53.4744 78.3215 53.4914 78.4128C53.5083 78.5065 53.5246 78.5904 53.5497 78.7879C53.5609 78.8793 53.5715 78.982 53.5792 79.1054C53.5832 79.1734 53.5857 79.2135 53.5881 79.3272C53.5903 79.4538 53.5888 79.6007 53.5749 79.7834C53.5604 79.9664 53.5351 80.1852 53.4714 80.4663C53.4391 80.6069 53.3967 80.7634 53.3363 80.9392C53.2533 81.1849 53.0567 81.6662 52.7185 82.129C52.1458 83.1126 50.2045 84.1105 49.0789 84.007C48.0737 84.0063 47.4244 83.7302 46.995 83.5211C46.65 83.3484 46.3851 83.1566 46.2571 83.0581C46.1547 82.9794 46.0697 82.9077 45.9955 82.8418C45.8477 82.71 45.742 82.6013 45.6541 82.5065C45.464 82.2967 45.4378 82.256 45.3564 82.1532C45.2103 81.9619 45.1558 81.8771 45.086 81.7725C44.9593 81.5791 44.8769 81.4379 44.8083 81.3191C44.6586 81.0584 44.5535 80.8584 44.4431 80.6453C44.2293 80.2305 44.0428 79.8437 43.8586 79.4531C43.4914 78.6726 43.1457 77.8956 42.8026 77.1096C42.1167 75.5363 41.4451 73.9297 40.7651 72.3275C39.5276 69.4125 38.1646 66.4684 36.7364 63.8587C36.3891 63.2261 36.0505 63.8727 35.9464 63.7713C34.3279 62.1744 35.7117 62.2884 35.2301 60.96C34.4237 58.7422 33.4715 56.4692 32.4445 54.2342C31.0343 51.1636 29.4648 48.1608 27.9452 45.4187C26.8288 43.4009 26.8106 45.9946 26.3652 43.6167C26.3335 43.4523 27.1542 43.7003 26.9338 43.1029C26.4303 41.751 25.1418 39.328 24.7164 38.2805C24.694 38.2258 24.6722 38.1724 24.6508 38.1202C23.8905 36.2454 23.726 35.889 22.9399 34.0528C21.9213 31.6413 21.0264 28.6988 19.9913 26.0116C19.9133 25.8082 19.8371 25.613 19.7601 25.4193C19.5149 24.8 19.1899 25.8443 18.7476 24.8702C18.294 23.9079 17.5453 21.1145 17.4977 20.0716C17.4341 19.0452 18.0231 19.3762 18.0993 19.1756C18.2487 18.8234 18.2747 18.3942 18.2351 17.9488C18.2152 17.7277 18.1781 17.4955 18.131 17.2932C18.0939 17.1182 17.9931 16.8422 18.0301 17.1339C17.9997 17.0537 17.9801 17.0446 17.9059 16.7574C17.8944 16.7055 17.889 16.6926 17.8676 16.5622C17.8585 16.5037 17.8486 16.4328 17.841 16.3323C17.8372 16.2818 17.8341 16.2237 17.8332 16.1528C17.833 16.1102 17.8321 16.1026 17.8349 16.0143C17.839 15.9124 17.8476 15.7883 17.8767 15.6212C17.9535 15.3074 18.0104 14.7008 18.8281 13.9415C19.2044 13.5832 19.9467 13.2904 20.3402 13.261C20.7846 13.2023 21.1719 13.2559 21.4633 13.3339C22.5851 13.7047 22.6922 14.0571 22.852 14.1759C22.9795 14.3152 23.0414 14.4011 23.0922 14.4706C23.2015 14.6266 23.1959 14.6219 23.2321 14.6771C23.2593 14.7193 23.2821 14.7565 23.294 14.7743C23.4078 14.9533 23.4447 15.0008 23.5053 15.0888C23.6106 15.2356 23.699 15.3476 23.7923 15.4684C23.9738 15.6996 24.1397 15.8918 24.2949 16.0752C24.6001 16.4306 24.8303 16.6787 24.886 16.7835C26.0409 18.973 26.977 21.1028 27.8257 23.2085C29.4808 27.3225 30.7943 31.3568 32.5189 35.4952C34.4968 40.2384 36.841 45.212 38.6898 49.7365C40.1972 53.4293 41.4173 56.8008 42.7557 60.2034C43.3786 61.7843 44.0172 63.3503 44.7304 64.9617C44.9737 65.5124 45.3906 64.5737 45.6827 65.2291C45.9245 65.7703 46.1704 66.3199 46.4074 66.8386C46.5273 67.1007 46.6471 67.36 46.7528 67.5787C46.7993 67.6766 46.8703 67.8127 46.8412 67.756C46.8159 67.7178 46.8435 67.7336 46.6314 67.4314C46.5946 67.3812 46.5494 67.3216 46.4874 67.2469C46.4563 67.2095 46.4209 67.1683 46.379 67.1221C46.3486 67.0891 46.2663 66.9966 46.1248 66.8664C45.9854 66.7401 45.8035 66.5836 45.5003 66.3981C45.348 66.306 45.1632 66.2066 44.9281 66.1113C44.6472 66.0186 44.5833 65.9236 43.7038 65.8296C42.9579 65.7626 41.9473 65.988 41.2274 66.4832C40.4953 66.9697 40.094 67.5668 39.8727 67.9991C39.739 68.2705 39.7422 68.283 39.6959 68.3978C39.6599 68.4928 39.6306 68.5808 39.606 68.6625C39.557 68.826 39.5261 68.9645 39.5036 69.0854C39.4204 69.5463 39.4398 69.8426 39.4393 69.9096C39.4426 70.0237 39.4494 70.1071 39.456 70.1752C39.4708 70.3194 39.479 70.3606 39.4871 70.4127C39.5421 70.7068 39.523 70.5849 39.5121 70.5558C38.7212 67.0923 38.5711 64.7317 38.2248 61.8858C37.8174 58.1288 37.5095 54.3705 37.3211 50.5911C37.2834 49.8149 38.0564 50.7323 38.0581 49.9511C38.0456 45.1674 38.5713 37.5924 35.4516 35.0335C35.3914 33.9735 35.3291 32.8393 35.289 31.6866C35.2058 29.3223 35.2237 26.8831 35.5162 24.9054C35.8019 23.0058 36.6009 24.8063 36.2015 22.5112C36.1151 21.995 35.5059 22.6974 35.4252 21.9113C35.1035 18.7528 35.2924 15.2705 35.278 12.0205C35.2774 11.8761 35.2761 11.734 35.2742 11.5939C35.2654 10.907 34.6867 11.039 34.6028 10.8363C33.9151 9.09594 35.7183 6.46504 35.9655 5.89008C36.2404 5.16183 36.5099 4.45143 36.8051 3.73949C36.9539 3.38167 37.1093 3.02058 37.2927 2.63823C37.3869 2.44214 37.4854 2.24592 37.6107 2.02045C37.7551 1.77922 37.8316 1.58309 38.2626 1.06776C38.5551 0.732161 39.1146 0.22952 40.0115 0.0542479C40.9103 -0.123204 41.7032 0.171765 42.0986 0.40566C42.8958 0.901916 43.0332 1.22122 43.2235 1.46343C43.541 1.94364 43.6469 2.22872 43.7663 2.51306C43.9808 3.0566 44.1067 3.4936 44.2297 3.92799C44.7516 5.83388 45.0509 7.56947 45.283 9.4882C45.3913 10.4434 46.0152 9.22514 46.1441 10.1446C46.6556 13.9707 46.8719 17.8346 46.8862 21.5975C46.888 22.4906 46.8779 23.4002 46.8541 24.2827C46.8248 25.2987 46.1337 24.3967 46.0865 24.8854C45.8839 27.0291 47.1258 27.441 46.945 29.4939C46.9081 29.9263 46.344 29.7062 46.2863 29.7872C45.3797 31.051 46.774 32.0633 46.8158 32.3777C47.3733 36.3532 46.0441 38.9508 46.368 42.7913C46.4081 43.2513 47.0767 42.1897 47.1463 43.4843C47.4906 49.8176 47.608 56.4468 47.5416 62.8744C47.5196 65.1902 47.4738 67.4925 47.4256 69.7249C47.4011 71.0334 46.83 70.1242 46.769 70.2138C45.8184 71.6077 47.2409 72.4067 47.3311 72.7311C47.3536 72.8198 47.377 72.9098 47.3923 72.9414C47.3981 72.9526 47.409 72.9641 47.386 72.8699C47.3696 72.8203 47.367 72.7597 47.2418 72.5234C47.2142 72.4735 47.1668 72.3935 47.0972 72.3012C47.0278 72.2109 46.9469 72.1113 46.7906 71.9776C46.5479 71.7356 45.9077 71.4964 45.6273 71.5021C45.0228 71.4257 44.3289 71.8087 44.1387 72.0267C43.9114 72.2499 43.8614 72.365 43.8201 72.4301C43.7522 72.5556 43.7658 72.5396 43.7708 72.5126C43.7893 72.4457 43.8273 72.298 43.8638 72.1432C43.9378 71.8306 44.0182 71.4745 44.0987 71.1212C44.258 70.4187 44.4212 69.7029 44.5365 69.023C44.7671 67.6567 44.8112 66.3818 44.2385 65.1914C44.7173 62.8068 45.1614 60.4435 45.5989 58.046C47.8125 46.1634 49.7588 34.3482 53.2421 22.8612C53.2939 22.6852 53.8884 23.1355 53.9887 22.7845C55.1786 18.6461 54.0657 19.154 53.3622 16.2846C53.3486 16.2255 53.3351 16.1653 53.3217 16.1039C53.1458 15.3323 55.0813 13.4438 55.2309 13.2676C55.7744 12.6539 56.612 13.566 56.7363 13.3498C57.742 11.5112 54.4333 11.2169 54.9677 8.56228C54.99 8.48057 55.5138 8.95023 55.6179 8.74124C55.9467 8.08101 55.8485 7.35561 56.2197 6.68449C56.3371 6.47459 56.4708 6.2906 56.6342 6.08053C56.7231 5.95894 56.7954 5.88001 56.9463 5.66586C56.9865 5.60974 57.0347 5.5388 57.1107 5.44095C57.157 5.37929 57.2129 5.30953 57.2903 5.22951C57.375 5.14205 57.5331 4.98458 57.7878 4.8589C58.1102 4.6811 58.6585 4.63482 59.0232 4.7817C59.407 4.93261 59.5036 5.06312 59.6153 5.17094C59.7762 5.3548 59.7986 5.43484 59.8235 5.49337C60.009 6.09249 59.874 6.35284 59.8244 6.65551C59.7582 6.94469 59.691 7.20875 59.6627 7.49027C59.6046 8.05156 59.6969 8.67273 60.1363 9.50681C60.2859 9.79195 62.1153 9.12287 62.2613 11.5705C62.271 11.7533 62.294 12.0563 62.3237 12.4423C62.4525 14.0516 62.6577 17.0248 62.6146 17.9919C62.5649 19.19 61.9143 18.4074 61.8934 18.4956C61.2771 21.729 60.8773 20.5395 59.777 22.1861C58.6742 23.8272 61.4545 23.2616 61.7945 23.9039C62.1353 24.5475 61.5574 26.9082 61.3426 27.4888C61.1299 28.0687 60.7272 27.3637 60.6118 27.8774C59.848 31.2706 62.0384 29.3299 62.5068 30.4385C63.5827 33.0093 61.6256 35.0558 61.3332 37.3879C61.3267 37.4402 61.3209 37.4926 61.316 37.5453C61.2556 38.1958 61.7339 37.6682 61.7726 38.2499C61.9157 40.5539 61.2385 41.921 61.7655 44.5463C61.8519 44.9735 63.0412 47.1244 62.0808 48.4608C61.9425 48.6496 61.4417 48.0859 61.2951 49.0565C61.0751 50.5129 60.8771 53.1266 61.0094 54.6994C61.108 55.8562 61.9941 54.558 61.6943 55.9992C61.5619 56.6393 61.0879 55.4361 60.8817 56.6419C60.6722 57.8312 60.6642 60.9402 60.7942 62.0395C60.8073 62.1748 60.828 62.2751 60.8536 62.3519C61.0634 62.9567 61.5104 62.4368 61.5588 62.5123C61.6316 62.6037 61.7547 62.8384 61.8077 62.7792C61.8064 62.7462 61.8305 62.7067 61.6868 62.5008C61.6224 62.3489 61.003 61.8775 60.4113 61.9651C59.9018 62.0284 59.7707 62.1766 59.688 62.2114C59.6196 62.2506 59.6066 62.2502 59.604 62.2311C59.6132 62.1391 59.724 61.8777 59.7935 61.6849C59.8627 61.4956 59.9232 61.3375 59.9425 61.3013C61.2495 58.6371 62.5565 55.683 63.9583 52.9435C66.9679 47.0105 70.1793 41.416 72.9407 35.3158C73.2591 34.6166 72.4196 34.7689 72.4619 34.6591C73.3867 32.1733 74.079 34.8441 75.4475 33.4752C74.0898 33.0906 74.8021 32.2285 75.5062 30.5107C75.8488 29.6753 75.1474 29.8695 75.1361 29.7705C75.047 28.6398 75.7507 28.1417 76.2488 27.9254C76.4389 27.8367 76.599 27.7898 76.6807 27.7595C77.7869 27.3479 77.4082 26.0596 78.1624 25.7777C78.9083 25.5066 78.9349 27.0805 79.7804 25.5186C79.5962 24.8332 77.7963 25.3878 78.3019 24.0645C78.42 23.7661 78.5545 23.4528 78.7498 23.0918C78.8683 22.8941 78.9121 22.7521 79.2657 22.3577C79.3206 22.3015 79.3722 22.2484 79.4818 22.1594C79.5759 22.0861 79.7313 21.9616 80.024 21.8429C80.1994 21.7738 80.4515 21.7016 80.7655 21.7012C81.1293 21.6954 81.5618 21.8247 81.8622 22.0282C82.4963 22.4844 82.5576 22.8238 82.6493 23.0014C82.7886 23.3791 82.783 23.4959 82.8054 23.61C82.8209 23.7185 82.8279 23.7851 82.8347 23.8398C83.0581 27.4855 81.9045 30.8303 80.8721 34.0667C79.8935 36.9553 78.4505 39.1288 77.6129 40.5801C77.333 41.0543 77.0755 41.4814 76.8383 41.8724C75.2239 44.4914 74.4205 45.5528 73.0018 47.1083C69.9967 50.2509 71.7104 49.6456 70.3034 51.9409C70.296 51.9527 70.2886 51.9647 70.281 51.9767C68.8137 54.288 67.921 51.7277 67.2863 51.6756C66.6574 51.6147 66.7703 52.2714 66.2471 52.433C65.7269 52.591 66.1493 51.6095 65.333 52.3539C64.5211 53.0959 63.1528 55.9253 63.2783 56.5729C63.5476 57.9437 65.3393 57.7475 63.0537 59.6107C62.9217 59.7173 62.8341 58.8949 62.3519 59.3241C60.0815 61.3623 57.8667 63.5562 55.6888 65.7368C54.2235 67.2172 52.7581 68.7034 51.4826 70.2514C51.0613 70.7845 50.8149 69.8933 50.5562 70.2204C50.1704 70.7195 49.9031 71.1953 49.7921 71.6458C49.7031 72.0595 49.6739 72.5053 50.0931 72.8422C50.5956 73.1045 50.8519 72.9052 51.0326 72.7873C51.2115 72.6459 51.3174 72.4641 51.4123 72.2605C51.6111 71.8474 51.7805 71.3445 52.388 70.6512C52.4096 72.4617 54.0191 73.0479 57.0316 71.98C58.8464 71.3634 58.2898 70.7605 59.3281 69.8722C59.6401 69.6031 61.1022 69.7122 61.2459 69.3079C61.4822 68.6502 61.2203 68.0964 61.2957 67.6564C61.3738 67.2083 61.8406 66.8439 63.6224 66.7271C63.7749 66.72 63.4381 67.4392 63.9535 67.37C67.2708 66.9869 67.4908 65.7459 71.0819 65.2128C71.5222 65.1518 72.0183 65.1097 72.5531 65.0835C75.4362 64.9298 79.4504 65.3138 82.1705 65.5185C82.0982 67.4592 84.8694 67.0817 86.5439 66.0854C86.6272 66.1055 86.727 66.1308 86.8256 66.1598C87.153 66.2577 87.5484 66.412 87.9458 66.7634C88.3463 67.1054 88.6584 67.6953 88.7223 68.2042C88.8212 69.0313 88.5479 69.4802 88.3796 69.8008C88.1938 70.1188 88.0088 70.3404 87.8321 70.5385C87.477 70.9293 87.1348 71.2234 86.7925 71.4986C86.1107 72.0403 85.433 72.4787 84.7609 72.8567C84.6387 72.9293 84.5194 72.9907 84.4011 73.0455C83.5703 73.389 83.8686 72.6123 83.739 72.6101C82.0952 72.2763 81.6346 73.6543 81.1772 73.8326C77.6339 75.0204 74.4845 74.9704 71.2653 75.6066C70.2026 75.8104 69.1216 76.0458 68.017 76.3807C67.8597 76.4283 67.6974 77.801 66.3847 76.9112C66.3031 76.8484 67.7726 76.1291 65.6099 76.2348C63.4449 76.3414 59.3738 75.7844 56.4283 76.5146C55.717 76.6927 53.9479 77.8502 52.4804 77.0781C52.2805 76.9735 52.468 76.5751 52.1788 76.3769C51.972 76.2323 51.7714 76.1958 51.6065 76.2104C51.0132 76.2641 50.5975 76.8979 49.7086 76.0974C49.5625 75.9686 49.3933 75.8479 49.2118 75.7413C49.1107 75.6897 49.0173 75.6396 48.9035 75.6004C48.8508 75.5802 48.7865 75.5633 48.7091 75.5578C48.6559 75.5635 48.6489 75.5388 48.5314 75.596C48.4924 75.6373 48.3735 75.6193 48.3309 75.9416C48.3781 76.268 48.4681 76.2461 48.5207 76.3131C48.8027 76.5183 48.825 76.5329 48.967 76.6197C49.0803 76.6904 49.1944 76.7541 49.3193 76.8141C49.5599 76.9328 49.804 77.0325 50.0802 77.1164C51.1448 77.4478 52.471 77.5102 53.9818 77.1497C54.0029 77.1453 54.0545 77.0921 54.1331 77.0119C54.4015 76.7211 55.02 76.0752 55.7543 76.1029C57.2579 76.1611 59.3923 76.4165 60.9613 76.4287C61.7153 76.4342 61.241 75.7578 61.3721 75.7471C66.4311 75.4322 70.0237 76.0546 75.4415 76.385C76.1511 76.4297 77.8249 75.9943 79.4163 76.0284C80.0556 76.0421 80.677 76.1299 81.214 76.35C83.2807 77.2186 81.1187 80.3741 85.7592 79.8564C86.453 79.7987 87.2005 79.1706 87.9763 78.7121C88.0624 78.6672 88.1488 78.6273 88.1627 78.5595C88.1571 78.5093 88.1762 78.5256 87.9709 78.2885C87.9257 78.2291 87.826 78.102 87.7619 77.9093C87.6757 77.6979 87.6885 77.3111 87.7908 77.1124C87.8935 76.8838 88.0146 76.786 88.0799 76.7351C88.1546 76.6788 88.212 76.654 88.2414 76.6458C88.4736 76.6037 88.3636 76.7347 88.3271 76.7992C88.2731 76.8757 88.1972 76.9513 88.1101 77.0239C87.7769 77.3117 87.3476 77.5481 86.9126 77.702C86.0245 78.01 85.0319 77.9929 83.9176 77.3617C83.2308 77.4407 82.5489 77.4985 81.858 77.5409C75.8373 77.9006 70.0997 77.126 63.967 77.8802C63.6591 77.9173 62.6979 79.0926 61.9752 79.084C60.9002 79.069 60.3046 78.5301 59.5399 78.5019C56.3214 78.3704 53.3941 78.865 50.2936 78.8345C50.2463 78.8341 50.2019 78.8327 50.16 78.8305C49.1426 78.7805 49.4627 78.254 48.115 78.2521C46.7144 78.2555 45.798 79.0188 43.8974 78.7571C42.4605 78.5586 40.8778 77.1631 38.9568 77.1754C39.0209 78.574 37.8923 78.7644 35.8574 79.2304C35.7274 79.2606 35.5848 79.2922 35.4441 79.3249C35.0032 79.4265 35.5116 79.9192 35.3026 79.9941C34.4478 80.3097 33.6295 79.9094 32.8212 80.2282C32.6229 80.3048 32.6303 80.8155 32.4697 80.9067C31.0956 81.7031 28.7868 80.5977 28.3942 80.4043C26.8827 79.6715 26.1922 80.3457 25.0404 80.0655C23.8902 79.7855 25.5954 79.383 24.2539 79.2241C23.4994 79.1354 22.6834 79.082 21.8438 79.058C19.6706 78.9784 17.2469 79.1772 15.3428 79.1251C15.3427 79.1251 15.3519 79.1247 15.3818 79.1297C15.3889 79.1312 15.4354 79.1374 15.5048 79.1657C15.5407 79.1806 15.5863 79.2021 15.6428 79.2426C15.6967 79.2747 15.8843 79.4504 15.9208 79.6814C15.9426 79.7943 15.9329 79.9064 15.9101 79.9916C15.888 80.0706 15.8739 80.0967 15.8539 80.1369C15.8159 80.209 15.7797 80.2518 15.7516 80.2827C15.6897 80.3467 15.6783 80.3493 15.6628 80.3619C15.6344 80.3821 15.6281 80.3844 15.6284 80.3846C15.7371 80.3338 15.9344 80.2249 15.981 80.1427C16.0397 80.0566 16.0277 79.9713 15.9869 79.8944C15.9078 79.7394 15.7066 79.623 15.7818 79.59C17.5975 78.8695 19.5984 78.9066 20.8077 78.0564C21.0582 77.8852 21.2841 77.681 21.4796 77.4256C23.4393 80.7438 22.8874 76.9327 26.283 77.5236C26.5418 77.5695 26.9584 79.2173 25.9406 79.4981C24.9295 79.7792 23.3878 79.2751 22.1449 79.7915C22.0116 79.8465 21.6144 80.2413 21.2747 80.6827C20.8368 81.2115 20.3726 81.8081 20.2584 81.8857C18.5959 83.0202 17.7101 80.7179 17.5696 80.6085C17.2075 80.3411 16.8242 80.2687 16.4608 80.32C16.2788 80.3459 16.1019 80.4025 15.9454 80.4806C15.8672 80.5196 15.7948 80.5643 15.7573 80.6033C15.7535 80.6107 15.701 80.6719 15.8681 80.566C15.8893 80.5505 15.9478 80.5051 16.0128 80.4257C16.0462 80.3847 16.0843 80.3318 16.1224 80.2579C16.1559 80.1852 16.2093 80.0955 16.228 79.8697C16.2898 79.4237 15.8497 78.9862 15.7897 78.9777C15.6831 78.9056 15.6066 78.8768 15.5504 78.8564C15.3504 78.7958 15.3859 78.8113 15.3566 78.7983C16.1365 78.587 16.8812 78.0649 17.1923 77.997C18.8208 77.6227 20.3555 77.563 21.8028 77.4948C22.7996 77.4477 23.7503 77.3975 24.6961 77.228C26.2187 76.9581 26.3427 75.3314 27.5351 75.361C31.1571 75.4429 32.7239 77.3581 35.6434 75.968C35.9025 75.8444 36.164 75.6954 36.437 75.5168C37.1895 75.033 36.2041 73.3502 39.1595 74.4717C39.3412 74.5412 41.6566 75.6054 42.8906 74.7281C43.0447 74.6166 43.0112 74.0999 43.2236 74.044C44.6494 73.6826 45.6058 74.0589 47.1415 73.8179C48.0446 73.6765 49.0518 73.5058 50.0845 73.4241C50.7762 73.3677 51.5116 73.3515 52.2018 73.415C53.2332 73.5075 54.5747 74.4575 55.0633 74.6884C56.463 75.3536 57.9413 74.2233 58.8125 75.0383C59.6883 75.8575 58.0039 77.1317 60.2866 77.6438C60.3575 76.298 60.5381 74.9157 60.6611 73.5618C65.6492 73.5588 70.5615 73.9461 75.5502 73.8121C76.1653 73.794 75.5238 73.0808 76.1881 73.0424C78.1166 72.9319 79.9021 73.1241 81.7429 73.1521C82.5607 73.1639 83.3878 73.1437 84.2431 73.0478C85.0108 72.9606 85.7834 72.7933 86.5085 72.5866C86.8574 72.4844 87.2191 72.3674 87.3841 72.2605C87.4164 72.2354 87.4395 72.2095 87.3865 72.1985C87.3633 72.1925 87.3092 72.1925 87.217 72.2053C87.1004 72.2278 86.9794 72.2363 86.5631 72.3944C86.4761 72.4281 86.3196 72.4939 86.136 72.5884C86.0441 72.6357 85.9438 72.6907 85.8341 72.7567C85.7793 72.7897 85.7221 72.8255 85.6624 72.8647C85.5855 72.9152 85.4953 72.9778 85.4045 73.0456C85.2216 73.1823 85.0187 73.3507 84.8005 73.5694C84.6915 73.6788 84.5789 73.8009 84.4649 73.9381C84.3236 74.1076 84.1568 74.3324 84.0074 74.5758C83.7047 75.065 83.4277 75.6974 83.2855 76.4074C83.1223 77.1935 83.1467 78.0553 83.3147 78.7736C83.6752 80.2136 84.2254 80.8211 84.6111 81.2823C84.9414 81.6502 85.2266 81.8795 85.4293 82.0326C85.7911 82.3015 86.0082 82.4151 86.1476 82.4937C86.6757 82.769 86.6396 82.742 86.6533 82.774C86.6612 82.844 86.6921 82.9046 86.5066 82.925C86.3408 82.9495 86.0833 82.9609 85.8137 82.9651C84.8858 81.4208 81.7356 81.6662 79.3032 81.5607C79.1369 81.553 78.9705 81.5434 78.8053 81.5311C77.9281 81.4661 77.9936 81.0565 77.3651 80.912C75.0039 80.3797 76.0885 81.757 75.4393 81.9617C72.6338 82.8384 72.4285 79.7585 69.118 79.7994C68.9437 79.8006 66.7819 81.4194 66.4856 81.5185C64.6014 82.1653 66.1805 80.9442 65.0067 80.8106C62.8602 80.566 61.3789 80.1588 58.843 80.604C58.1047 80.736 56.3211 81.7321 54.8846 80.9093C54.6987 80.8016 54.8149 80.2616 54.6651 80.2265C54.4406 80.1793 54.239 80.1466 54.0559 80.1265C51.8627 79.8864 51.6679 81.3685 50.0548 81.8149C49.5821 81.927 49.1636 81.9501 48.2848 81.7993C48.17 81.7783 48.0198 81.7502 47.8216 81.7048C47.7363 81.6847 47.5882 81.6507 47.4111 81.6011C47.32 81.5755 47.2298 81.5489 47.104 81.5079C46.936 81.4531 46.7373 81.3839 46.471 81.2662C46.3315 81.2034 46.2074 81.1459 45.992 81.0279C45.6853 80.8554 45.296 80.6233 44.7951 80.1572C44.5463 79.9223 44.2695 79.6237 43.9922 79.2223C43.9231 79.1221 43.8542 79.0154 43.7865 78.9019C43.7165 78.7827 43.6632 78.6933 43.5529 78.4698C43.3604 78.0756 43.1925 77.6138 43.088 77.1074C42.5439 75.02 43.835 72.6582 44.2998 72.2435C45.2387 71.1602 45.9127 70.9067 46.2307 70.7302C46.4896 70.6059 46.6861 70.5317 46.8523 70.4737C47.0227 70.4149 47.1439 70.381 47.2219 70.3604C47.3083 70.3376 47.3858 70.3192 47.4573 70.3035C47.6082 70.2704 47.7007 70.2561 47.7866 70.2436C48.4382 70.1604 48.6772 70.2032 48.9915 70.2295C50.0918 70.3726 50.8372 70.7087 51.1128 70.8565C51.1556 70.8797 51.1953 70.9019 51.2319 70.9232C51.7359 71.2219 51.5902 71.3342 51.2637 71.3722C50.8387 71.4215 50.0661 71.3528 50.0267 71.4052C49.4415 72.2097 50.307 72.2313 51.3223 72.1988C51.7051 72.1857 52.1305 72.1644 52.5017 72.168C52.7993 73.822 54.68 73.638 53.9313 72.1821C53.8471 72.0224 52.7892 72.2276 52.5017 72.168C53.6404 70.4623 55.7413 70.1743 58.0637 71.621C59.1523 72.2962 58.1855 73.1795 61.3904 72.7351C62.8395 72.5286 62.2233 71.4072 63.4771 71.0264C65.603 70.3733 68.255 70.6565 70.5447 70.5336C71.3915 70.4816 72.2052 70.4002 72.9517 70.2441C74.0188 70.0197 72.8726 69.5575 73.6018 69.3812C75.5123 68.9104 77.3073 69.0944 79.0719 68.4735C79.2278 68.4164 78.7027 67.8565 79.2416 67.7297C79.7923 67.5964 80.3111 67.4656 80.7198 67.3482C80.9217 67.2906 81.0978 67.2346 81.1946 67.2023C81.2859 67.1772 81.3138 67.1456 81.0621 67.3167C81.6322 66.9627 82.1764 66.6089 82.5589 66.3335C82.744 66.2036 82.8963 66.0737 82.8778 66.1157C82.8661 66.1464 82.8048 66.2072 82.6352 66.512C82.5147 66.824 81.9969 67.4395 82.2004 69.204C82.3016 70.0151 82.8861 71.1177 83.5629 71.6727C84.233 72.2503 84.7623 72.405 85.0637 72.4882C85.2141 72.5204 85.1196 72.4875 85.0448 72.4699C84.9582 72.4486 84.8421 72.4253 84.7141 72.4029C84.4597 72.3583 84.165 72.3177 83.8578 72.2831C83.2438 72.2142 82.5767 72.1678 81.8807 72.1445C79.694 72.0471 75.6332 72.5669 73.2684 72.7084C73.242 72.7098 73.2155 72.7111 73.1889 72.7125C69.8116 72.8741 65.8368 72.7482 62.8698 73.4653C62.207 73.6227 61.5834 73.8088 61.0167 74.0246C58.9022 74.8442 59.5837 75.3343 58.8082 76.0689C57.3603 77.472 53.4709 77.3346 52.0007 77.2415C52.0253 77.2434 52.9544 77.0239 53.3857 76.8057C53.8472 76.5882 54.0802 76.3868 53.3687 76.4209C52.4176 75.9636 52.0772 77.2265 52.0007 77.2415C51.8981 77.2317 51.6586 77.2563 51.1345 77.2573C50.612 77.1607 49.6669 77.5619 47.5243 76.0677C45.8951 74.6588 45.8131 73.3316 45.7166 72.584C45.6615 71.7855 45.7566 71.2226 45.8974 70.6677C46.3965 68.9666 47.0407 68.2007 47.4689 67.524C47.9156 66.8719 48.2635 66.4038 48.3994 66.1663C48.6537 65.7269 47.9911 65.5611 48.1356 65.3386C49.062 63.933 50.0066 62.6801 50.9821 61.4665C53.5764 58.2437 56.3268 55.2625 59.2506 52.3977C59.3262 52.3341 59.7406 52.9159 59.9121 52.7604C62.1999 50.7058 63.0029 48.7057 64.2194 46.5616C64.2867 46.4436 64.3541 46.3263 64.4219 46.2098C65.7583 43.9249 67.1089 42.5535 68.9234 42.1488C69.6268 41.0568 70.6977 39.9079 71.6172 38.8313C72.0201 38.3538 72.3909 37.9263 72.6914 37.5761C73.714 36.3726 72.5599 35.5874 72.5957 35.4647C72.9581 33.9916 73.2646 32.9373 73.5285 32.0543C74.1171 29.9941 74.9695 28.0402 75.4065 25.6446C75.4514 25.3882 75.4902 25.0987 75.5115 24.8323C75.5346 24.5781 75.53 24.2858 75.5192 24.3249C75.521 24.3098 75.5006 24.317 75.5738 24.758C75.6484 25.0135 75.5899 25.3064 76.2137 26.441C76.5354 26.9775 77.309 28.0589 78.8581 28.6609C79.5885 28.9531 80.4873 29.0495 81.0745 29.0049C81.6567 28.9703 82.1458 28.8468 82.5347 28.7086C83.7886 28.2112 83.9826 27.8934 84.2415 27.7001C84.4346 27.5267 84.5433 27.4061 84.6072 27.3359C84.7457 27.1797 84.7749 27.1366 84.7991 27.1082C84.8636 27.0273 84.7462 27.2165 84.6593 27.3835C84.4619 27.7505 84.2329 28.2068 84.0088 28.6674C83.5606 29.59 83.1316 30.5277 82.7827 31.3089C82.7186 31.4533 82.6556 31.5956 82.5946 31.7339C81.8313 33.4776 81.023 34.3677 80.4123 36.0312C80.3293 36.2567 80.9787 36.3137 80.9668 36.3892C80.7303 38.4729 79.8306 36.9669 79.4126 37.2098C77.8934 38.0971 77.0219 38.6931 76.3089 41.1596C76.1429 41.7297 77.3083 44.1929 76.957 45.1989C76.4961 46.507 76.0359 45.705 75.5736 47.0844C75.5337 47.2021 75.9688 47.3841 75.564 48.1761C74.2294 50.7999 72.7416 53.5672 71.4097 56.3306C70.8743 57.4423 70.3588 58.5679 69.873 59.6971C69.6359 60.2434 70.6265 59.854 70.2996 60.6385C69.7756 61.887 69.2486 63.1425 68.5394 64.6075C68.1222 65.4029 67.9539 65.959 66.7811 67.5943C66.6062 67.8214 66.3928 68.0921 66.0358 68.4601C65.8428 68.6576 65.6167 68.872 65.3315 69.1041C64.9784 69.3896 64.5368 69.7077 63.9192 70.0195C63.1308 70.3978 62.2258 70.7718 60.6738 70.8123C59.1479 70.8513 57.5238 70.2831 56.486 69.5567C54.473 68.0784 54.2154 67.0759 53.8642 66.4543C53.333 65.2401 53.2968 64.7579 53.196 64.2902C53.1172 63.8437 53.0841 63.5323 53.0545 63.2123C52.9022 61.0414 53.0339 59.7524 53.1497 58.3108C53.2486 57.2967 53.7658 57.9376 53.9236 57.7205C54.8798 56.4082 53.5637 54.5217 53.546 54.2219C53.158 47.958 54.2012 43.1279 54.1109 37.3373C54.0958 36.416 54.051 35.4705 53.9663 34.493C53.9337 34.0993 52.4406 31.145 53.6644 29.7901C53.7464 29.6984 55.0034 28.3454 54.089 27.2008C54.0316 27.1313 53.3957 27.9696 53.4187 26.5369C53.4408 25.0975 52.9081 22.8184 53.53 20.8142C53.7262 20.1835 54.928 18.6259 53.7823 16.8356C53.7125 16.7303 51.6632 14.5343 52.3607 13.3005C52.436 13.1622 52.5439 13.0374 52.6902 12.9277C52.9347 12.7553 54.6445 12.7357 53.5624 10.6978C53.3516 10.3268 53.0589 11.065 52.7067 10.0807C52.5659 9.6988 52.4708 9.28694 52.394 8.9467C52.3566 8.78092 52.3205 8.6254 52.3072 8.58978C52.3025 8.57691 52.2997 8.58902 52.3407 8.7279C52.3995 8.87284 52.4173 9.13393 52.9478 9.99317C53.0234 10.1026 53.0988 10.244 53.4508 10.6625C53.5375 10.7633 53.6404 10.8772 53.7668 11.0048C53.9041 11.1436 54.1 11.3279 54.3373 11.5173C54.5767 11.7083 54.8707 11.9177 55.2411 12.1257C55.6624 12.3626 56.2257 12.6143 56.8843 12.7792C58.2222 13.1406 59.8979 12.9906 61.0856 12.4745C61.736 12.1987 62.0442 11.9932 62.369 11.7726C62.6828 11.5532 62.9388 11.3353 63.1523 11.132C63.6211 10.6727 63.7269 10.5108 63.9078 10.2769C64.0651 10.0648 64.1914 9.86529 64.2718 9.73008C64.4095 9.49833 64.4986 9.31961 64.5668 9.17486C64.624 9.05288 64.6582 8.97255 64.6901 8.89538C64.7562 8.73258 64.772 8.68654 64.7962 8.62089C64.8656 8.42613 64.8513 8.48203 64.8499 8.5277C64.8376 8.64503 64.8111 8.86621 64.7969 9.09217C64.7662 9.55433 64.7704 10.0837 64.8491 10.6078C64.9062 10.9889 65.7223 12.7484 64.6246 13.8286C64.4525 13.9983 63.9714 13.5235 63.781 14.1667C63.4024 15.445 63.1319 16.7893 62.8751 18.1355C62.5139 20.0293 62.1675 21.9702 61.5746 23.8021C61.2183 24.9035 60.4351 24.1659 59.9645 25.2922C59.4911 26.4333 58.7909 28.7745 58.9549 30.0979C59.1205 31.4147 60.8105 30.3433 60.5598 32.2225C59.4731 40.3917 57.0703 48.2254 55.5062 56.2129C55.2758 57.4015 55.9616 56.5023 55.6645 58.251C55.588 58.7056 55.5043 59.2212 55.4271 59.7159C55.0833 61.9077 54.7208 64.4372 54.3252 67.0684C54.1288 68.3723 53.9233 69.713 53.6967 71.0589C53.582 71.7359 53.4623 72.4226 53.3119 73.1738C53.232 73.5667 53.1533 73.9545 53.0072 74.5277C52.925 74.833 52.8551 75.1373 52.6123 75.7973C52.4789 76.1254 52.3396 76.5646 51.7938 77.4317C51.4526 77.9272 51.0931 78.514 49.9824 79.3846C48.9956 80.2157 46.7329 81.0769 44.9433 80.8721C44.1989 80.8315 42.8995 80.553 41.8278 79.9205C40.8558 79.3765 40.0889 78.5778 39.7615 78.1603C39.563 77.9147 39.399 77.68 39.2611 77.462C39.1425 77.2738 39.0625 77.1323 38.9821 76.9819C38.8255 76.6883 38.7125 76.4256 38.6499 76.2705C38.5789 76.0949 38.5229 75.9384 38.4759 75.7964C38.4375 75.6796 38.408 75.5817 38.3807 75.4859C38.3241 75.2859 38.2949 75.1603 38.2681 75.0416C38.1681 74.5807 38.1477 74.3824 38.1206 74.1794C38.0757 73.805 38.0618 73.5747 38.048 73.3475C38.023 72.9047 38.0158 72.5468 38.0117 72.1944C38.0051 71.5003 38.0178 70.8672 38.0414 70.2658C38.09 69.0759 38.1841 67.9986 38.3248 67.0726C39.0455 62.3971 39.9206 68.2068 40.1587 64.6581C40.1932 64.1364 40.0588 63.6268 39.8514 63.1202C39.3736 61.9957 38.5099 61.0207 38.4644 60.7462C37.8026 56.7425 38.4699 53.9408 38.1322 50.3449C38.0622 49.5998 37.4004 50.3509 37.3485 49.7208C37.1648 47.5634 37.4001 45.2817 37.2785 43.2202C37.2223 42.2957 36.7055 42.4831 36.7183 41.6303C36.7425 39.5906 36.9014 37.7839 37.3205 35.7832C37.3587 35.6004 38.0516 36.7995 38.0222 35.29C37.9725 32.8547 38.3407 29.8138 37.72 27.0406C37.5333 26.2201 36.3408 26.2439 37.0805 24.4317C37.234 24.0541 38.692 24.4479 37.349 22.4515C37.3154 22.4016 37.2452 22.2837 37.1535 22.1163C36.635 21.1406 35.4098 18.524 36.2189 17.0398C36.4717 16.5914 37.5581 15.3633 37.2923 14.4134C37.2518 14.2853 36.6576 14.8628 36.5268 14.0701C36.082 11.3792 35.8105 8.24897 35.1176 6.51936C35.1111 6.50328 35.1047 6.48779 35.0984 6.4729C35.0103 6.27236 34.8569 6.39061 34.6902 6.46022C34.5311 6.55704 34.3266 6.50558 34.2761 6.45516C34.2786 6.4768 34.2478 6.51003 34.5221 7.01171C34.72 7.29083 34.7756 7.64799 35.9914 8.72346C36.6386 9.20635 37.8283 10.2554 40.4933 10.3629C43.2488 10.4416 45.4178 8.7401 46.1284 7.83681C46.6636 7.19433 46.7021 7.05633 46.8058 6.89776C46.8884 6.75557 46.9188 6.69371 46.942 6.64878C46.9833 6.56669 46.977 6.57917 46.9649 6.61539C46.9363 6.69558 46.8726 6.88427 46.808 7.10285C46.6755 7.54719 46.5296 8.1214 46.3947 8.72398C46.1232 9.93273 45.8869 11.266 45.6955 12.4817C45.6722 12.6274 45.643 12.7403 45.6094 12.8248C45.4058 13.3318 45.0337 12.7704 44.9776 12.8323C43.9118 14.0192 45.1964 14.8542 45.2561 15.267C45.6217 17.8815 45.0376 19.9277 45.29 22.445C45.3601 23.1366 45.967 22.6202 46.0282 22.7559C46.634 24.1626 45.4639 23.1458 45.3821 24.0625C45.1918 26.2134 45.3412 28.5939 45.5763 30.8456C45.622 31.283 45.6721 31.7313 45.7223 32.1595C45.8372 33.1295 46.4653 31.9759 46.5603 32.8421C47.1427 37.9801 47.6575 43.396 47.8421 48.5171C47.8763 49.4844 47.2513 48.9454 47.1474 49.1598C46.4182 50.639 47.8675 52.5082 48.0389 52.9604C48.8174 54.997 48.428 55.884 48.7503 57.7248C48.908 58.6181 49.0629 59.5399 49.214 60.4699C49.4258 61.7747 49.6295 63.096 49.8329 64.4131C50.0273 65.6564 50.2723 67.294 50.3993 67.6829C50.4188 67.7579 50.4428 67.8455 50.488 68.0385C50.5108 68.1402 50.5362 68.2412 50.5846 68.5144C50.6081 68.6627 50.6352 68.7826 50.6726 69.2091C50.6808 69.3114 50.6882 69.4283 50.6927 69.5683C50.6949 69.6432 50.6963 69.6981 50.6963 69.8125C50.696 69.9502 50.6923 70.1077 50.6796 70.2969C50.6492 70.6777 50.6091 71.1717 50.368 71.9686C50.3059 72.1683 50.2286 72.3877 50.127 72.6295C50.0965 72.7012 50.0926 72.7126 50.0298 72.8504C49.9734 72.9731 49.9086 73.1046 49.8374 73.2379C49.6932 73.5076 49.5163 73.7986 49.2932 74.1038C48.4799 75.3242 46.4278 76.825 44.3296 77.023C43.3088 77.1508 42.3926 77.0414 41.6885 76.8664C41.3202 76.7753 40.9987 76.6657 40.7182 76.5529C40.156 76.3252 39.7499 76.0873 39.4281 75.8762C38.7911 75.4498 38.464 75.123 38.2112 74.8681C37.8997 74.5427 37.794 74.4014 37.6615 74.2334C37.4069 73.8984 37.3493 73.7964 37.2735 73.6817C37.1246 73.4468 37.0739 73.3529 37.0177 73.254C36.9069 73.0549 36.8632 72.9674 36.8119 72.8675C36.6337 72.514 36.5363 72.2993 36.4356 72.0811C36.2362 71.6451 36.0686 71.262 35.9027 70.8796C35.5735 70.1192 35.2586 69.3702 34.9506 68.6284C34.3369 67.1491 33.7485 65.691 33.1698 64.2404C32.022 61.3598 30.9348 58.5613 29.9455 56.0272C25.8156 45.4547 22.9382 37.1154 18.6476 27.2153C18.6238 27.1605 18.5989 27.1181 18.5731 27.0858C18.2999 26.7349 17.9355 27.4655 17.7117 26.9707C17.1017 25.6077 16.5079 24.241 15.9222 22.8802C15.6302 22.202 15.3422 21.5297 15.0554 20.8654C14.9131 20.5359 14.7716 20.2094 14.638 19.9066C14.5732 19.7597 14.506 19.6095 14.459 19.5068C14.439 19.4622 14.4097 19.4032 14.4482 19.4787C14.4584 19.4981 14.4786 19.5383 14.5267 19.6253C14.5443 19.6567 14.5954 19.7493 14.6744 19.8778C14.7206 19.9508 14.7421 19.9927 14.9001 20.221C14.9732 20.3249 15.0642 20.4505 15.2009 20.6191C15.2697 20.7036 15.3503 20.7991 15.4515 20.9106C15.4601 20.9208 15.6587 21.1382 15.8487 21.3145C16.0526 21.5045 16.3116 21.7325 16.7125 22.007C17.4673 22.4576 19.0718 23.6582 22.2414 23.0758C24.1357 22.7144 25.9014 21.2521 26.6047 20.1247C27.3707 18.9694 27.5614 18.1329 27.6929 17.5444C27.8106 16.961 27.8275 16.5338 27.8341 16.2864C27.8371 16.1517 27.8361 16.0348 27.8332 15.9303C27.8273 15.7217 27.8145 15.5617 27.8013 15.4274C27.775 15.1648 27.7429 14.9798 27.7233 14.8704C27.7069 14.7802 27.692 14.7078 27.6787 14.6458C27.6223 14.3916 27.6024 14.3319 27.581 14.2529C27.5442 14.1238 27.5304 14.0841 27.5192 14.0492C27.8875 15.298 27.8381 15.4643 27.8972 15.7586C27.9322 16.0036 27.9526 16.1605 27.9739 16.3104C28.0151 16.6029 28.0562 16.8608 28.1055 17.1314C28.2033 17.669 28.3333 18.2469 28.4867 18.8397C28.7954 20.0326 29.2012 21.307 29.664 22.5882C30.1656 23.9755 30.736 25.4007 31.3503 26.8095C31.5888 27.3574 31.921 26.2981 32.3257 27.1636C33.1618 28.9386 34.1153 31.2356 34.7423 33.1319C34.7868 33.2666 34.802 33.3623 34.7961 33.4302C34.7793 33.6206 34.5955 33.5905 34.4393 33.5951C34.348 33.5977 34.2662 33.6123 34.233 33.6905C34.2047 33.7568 34.2114 33.8689 34.2782 34.0593C35.037 36.2302 36.0984 38.5023 37.2856 40.6232C37.7935 41.5269 37.7391 39.8075 38.3489 41.0058C39.7347 43.714 41.1489 46.4323 42.5223 49.1883C45.2725 54.7137 47.8772 60.2719 50.0672 66.2793C50.2216 66.7041 49.7699 67.3646 49.7348 68.112C49.7125 68.4515 49.7822 68.8085 50.0481 69.1613C50.4595 69.0796 50.8899 68.8703 51.302 68.7247C51.9687 70.0739 52.6298 71.4229 53.2802 72.7302C53.6059 73.3843 53.9295 74.0295 54.2377 74.6217C54.3885 74.9115 54.5441 75.2023 54.6432 75.376C54.6757 75.44 54.7683 75.5678 54.5707 75.28C54.5481 75.2481 54.4927 75.1715 54.4262 75.0866C54.3918 75.0427 54.3519 74.9928 54.3037 74.935C54.2588 74.8817 54.1943 74.8047 54.0776 74.6791C53.9653 74.559 53.8243 74.4145 53.6185 74.2321C53.5152 74.1409 53.3951 74.04 53.2488 73.9279C53.0618 73.7846 52.6815 73.5094 52.1765 73.2546C51.152 72.912 49.3182 71.4496 45.2638 73.6207C43.6439 74.6765 42.9093 76.0463 42.5668 76.911C42.4624 77.1817 42.4526 77.2232 42.4144 77.3383C42.3818 77.4402 42.3533 77.5373 42.3281 77.6301C42.2776 77.8156 42.24 77.9835 42.2105 78.1369C42.096 78.7484 42.0892 79.1375 42.0875 79.4376C42.0884 79.6034 42.0921 79.6701 42.0952 79.74C42.0986 79.8096 42.1028 79.8726 42.1073 79.9304C42.1257 80.1607 42.1482 80.3127 42.1666 80.4279C42.1929 80.5876 42.213 80.6763 42.2259 80.7328C42.3458 81.2298 42.398 81.332 42.4349 81.4424C42.4709 81.5397 42.49 81.5843 42.5041 81.6177C42.5299 81.6775 42.5328 81.6804 42.5287 81.6714C42.5192 81.6496 42.4797 81.5698 42.4336 81.4838C42.3378 81.3042 42.2067 81.0768 42.0624 80.8402C41.7719 80.3636 41.4305 79.8488 41.0645 79.3271C40.3331 78.285 39.5103 77.221 38.6403 76.1665C36.1589 73.1393 33.2421 70.37 29.9787 67.6533C27.8671 65.8986 25.639 64.1578 23.3755 62.4603C22.9293 62.1265 23.2409 63.3221 22.3765 62.6816C19.9209 60.8682 17.4148 59.1313 15.0075 57.449C11.4477 54.8698 9.42147 52.6391 7.18641 50.2302C6.77328 49.7799 7.88393 48.9119 6.40544 47.9571C6.284 47.8827 5.6704 47.4518 5.12057 47.1627C4.85375 47.0222 4.59166 46.9153 4.50713 46.9371C4.41219 46.948 4.55587 47.132 5.03413 47.3417C5.15141 47.3966 4.85064 47.4916 4.79975 47.6493C4.77661 47.7285 4.78576 47.8238 5.0178 47.9466C5.15011 48.009 5.38144 48.0954 5.82945 48.1552C6.21327 48.1824 7.13788 48.36 8.77073 47.7081C11.2269 46.772 12.4236 44.0036 12.4865 43.2716C12.6961 42.1811 12.6126 41.9314 12.6025 41.6144C12.4704 40.5109 12.2931 40.1977 12.194 39.9048C12.0856 39.6326 12.0204 39.5058 11.9645 39.3945C11.8605 39.1934 11.8173 39.128 11.7912 39.0838C11.7435 39.0067 11.7672 39.043 11.804 39.0903C11.8834 39.1947 12.0299 39.3796 12.1876 39.5717C12.5068 39.961 12.8857 40.4053 13.2727 40.8545C15.8817 43.8779 18.37 47.0556 20.6269 50.2983C21.1385 51.0378 20.0127 50.7201 20.3691 51.2471C21.0151 52.2029 21.6971 53.1178 22.4581 54.1578C24.6902 57.2967 26.6344 60.2487 27.8363 63.3903C28.8498 66.1376 27.3622 65.7868 26.9967 67.5597C26.9897 67.5936 26.983 67.628 26.9765 67.663C26.927 67.9196 27.6912 69.5344 27.1188 69.9111C25.6848 70.8327 23.6623 70.8916 22.1799 71.9701C22.0162 72.0772 22.2762 72.6047 22.3254 72.8781C22.3362 72.9419 22.3332 72.9895 22.2933 72.9638C22.2728 72.9482 22.244 72.9198 22.1942 72.8224C22.1479 72.7138 22.0611 72.589 21.9731 72.0291C21.9331 71.7302 21.9302 71.4999 21.9154 71.7064C21.9098 71.7969 21.9098 71.9548 21.9198 72.1082C21.9336 72.2884 21.937 72.3449 21.9491 72.453C21.9907 72.8126 21.998 72.9144 21.9845 73.005C21.9562 73.1635 21.858 73.1638 21.711 73.121C21.6749 73.1663 20.7267 71.8988 20.2557 71.6778C19.9367 71.5307 19.5447 72.2772 19.043 71.9025C18.9532 71.8337 18.8901 71.7592 18.8361 71.6657C18.5973 71.2561 18.6549 70.6174 18.0632 70.0812C17.3387 69.4384 16.8511 70.1515 15.9001 68.6329ZM76.546 32.0068C77.5571 30.7164 75.2868 29.9293 75.4429 31.6134C75.4524 31.6969 76.4954 32.0723 76.546 32.0068ZM70.5503 75.7435C72.5815 76.7745 73.9408 75.2035 72.5074 74.4075C71.0757 73.6118 69.934 75.4308 70.5503 75.7435ZM49.6201 76.7436C49.8 76.8039 49.9712 76.8402 50.1324 76.8561C51.9415 77.0424 52.1191 74.4493 50.1036 74.7964C50.0053 74.8128 49.903 74.8357 49.7968 74.8657C49.6467 74.9067 49.4819 76.6975 49.6201 76.7436ZM23.2872 61.6244C23.272 61.6569 23.8918 62.7718 23.9328 62.7839C24.937 62.9934 23.6883 60.7452 23.2872 61.6244ZM28.9019 78.6485C29.6469 79.0952 31.7498 78.5145 30.8235 77.9658C30.0818 77.5259 27.9766 78.0948 28.9019 78.6485ZM60.1476 37.601C60.1588 37.5936 60.1703 37.5019 60.1746 37.3798C60.1843 37.108 60.1583 36.688 60.0194 36.6999C59.6725 36.7308 59.5615 37.099 59.6243 37.376C59.6792 37.6161 59.8667 37.787 60.1476 37.601ZM24.8919 72.0764C25.6312 72.5397 26.2923 73.055 26.8252 73.5953C26.8305 73.5992 26.8467 73.6106 26.8519 73.6148C28.1194 75.0291 28.4977 76.4497 28.1658 76.9046C27.8212 77.3649 27.2865 77.1347 25.634 75.6523C24.9133 74.9868 27.8108 76.3028 27.0279 75.3129C26.7665 74.9823 26.4687 74.7285 26.1515 74.522L26.1754 74.5395C24.6581 73.6845 22.8692 73.9179 21.5277 72.2095C21.237 71.8398 24.6385 71.9095 24.902 72.0779C24.8986 72.0774 24.8953 72.0769 24.8919 72.0764ZM79.5478 31.8829C79.5885 31.8601 79.9147 30.6635 79.8884 30.6284C79.308 29.8068 78.6589 32.1932 79.5478 31.8829ZM53.2431 26.2429C53.1649 26.291 52.5454 29.1125 52.5897 29.2098C53.5189 30.9217 54.7702 25.2412 53.2431 26.2429ZM82.2206 65.572C83.6414 64.8571 85.3857 64.8683 86.536 66.0827C84.9508 65.7286 83.6334 65.6777 82.2206 65.572Z" fill="var(--stroke-0, #AFC75E)"/>
</svg>
