<svg preserveAspectRatio="none" width="100%" height="100%" overflow="visible" style="display: block;" viewBox="0 0 55.6054 102.867" fill="none" xmlns="http://www.w3.org/2000/svg">
<path id="Vector 184" d="M12.9986 13.9877C13.0854 14.4104 13.1673 14.8501 13.2446 15.3041C13.7883 18.5239 14.0575 22.2885 14.1579 25.2763C14.1941 26.3469 13.7071 25.8609 13.7126 26.603C13.7203 27.6342 13.9069 28.5893 14.0033 29.5822C14.0438 29.9973 14.0679 30.414 14.0576 30.8421C14.0438 31.3373 13.3108 30.8063 13.3104 31.317C13.3232 34.0622 13.6332 36.7021 13.7292 39.16C13.7321 39.2228 13.7348 39.2857 13.7373 39.3487C13.9059 43.7544 14.0342 47.9509 14.3385 52.138C14.6587 57.0079 14.6106 61.4074 14.6958 65.8906C14.7665 70.5179 14.8263 75.1494 14.7173 79.9324C14.6895 81.0739 14.6191 82.282 14.5115 83.5399C14.1903 87.1717 13.789 91.0562 13.9427 94.501C13.9672 95.036 14.5611 94.7255 14.6083 94.8278C15.3328 96.4276 14.15 95.8804 13.9803 96.9351C13.93 97.2502 13.8832 97.5711 13.8337 97.9326C13.7777 98.2992 13.7528 98.6751 13.5983 99.4337C13.5829 99.5017 13.5668 99.5702 13.5473 99.648C13.5354 99.6977 13.5195 99.7643 13.4995 99.8396C13.4889 99.8796 13.4793 99.9146 13.4621 99.9743C13.4364 100.063 13.4058 100.169 13.3401 100.344C13.3063 100.432 13.2638 100.537 13.1931 100.682C13.1809 100.707 13.1857 100.698 13.155 100.758C13.1229 100.821 13.0852 100.89 13.0381 100.97C12.9423 101.128 12.8166 101.327 12.5792 101.592C12.3383 101.851 11.9838 102.209 11.2982 102.527C10.6362 102.849 9.51733 103.007 8.59024 102.708C8.13006 102.571 7.73971 102.359 7.43963 102.143C7.22194 101.984 7.09923 101.872 6.96688 101.742C6.71476 101.489 6.55219 101.264 6.43056 101.074C6.19208 100.692 6.10182 100.439 6.03261 100.243C5.90816 99.8724 5.88001 99.6365 5.86834 99.5701C5.82989 99.3009 5.82951 99.1665 5.82664 99.0782C5.82474 98.9405 5.8294 98.8317 5.83355 98.7717C5.85209 98.4954 5.87635 98.3349 5.89959 98.1626C5.94711 97.8243 5.99731 97.5193 6.04837 97.2133C6.15088 96.603 6.25714 96.0072 6.36889 95.4042C6.59774 94.1945 6.81984 93.002 7.19591 91.6514C7.62538 90.1422 8.06186 88.7107 8.45936 87.363C8.96416 85.6728 7.26102 86.9286 8.48832 85.4932C8.57241 85.3942 9.00547 86.0268 9.23447 85.6019C9.75233 84.6356 10.3727 82.705 10.7085 81.9618C11.3582 80.5276 11.4467 80.2838 11.9468 78.9222C12.0469 78.6494 12.1544 78.3709 12.2641 78.0918C13.0224 76.1274 14.0542 74.3902 14.6669 72.6065C14.8229 72.1572 13.986 72.4855 14.1801 71.7494C14.3702 71.0238 15.1936 69.2207 15.5921 68.6657C15.9932 68.1056 16.3449 68.5692 16.4978 68.5045C16.6722 68.4348 16.8169 68.3237 16.9377 68.1806C17.6862 67.3109 17.4332 65.3089 17.5052 65.0639C19.0717 59.8819 21.5742 55.9278 23.5456 51.2715C25.0405 47.7372 26.4154 43.8574 27.8982 40.508C28.2007 39.8261 28.5148 39.1427 28.8188 38.4993C30.3059 35.3558 31.7894 32.5778 33.3184 29.3342C33.5137 28.925 32.6 29.0709 32.843 28.561C33.3914 27.3968 34.1375 25.9955 34.5944 25.1248C36.371 21.6153 38.5772 18.6423 40.5026 16.0318C40.955 15.4111 41.473 14.5915 41.9785 13.8014C42.2804 13.327 42.5396 14.2733 42.8771 13.8147C43.9188 12.3867 45.3199 10.5429 46.3221 8.6161C46.3217 8.61702 46.3198 8.62071 46.3128 8.63506C46.3051 8.65179 46.3185 8.62074 46.2809 8.70429C46.2619 8.76699 46.2388 8.73703 46.1531 9.12835C46.1387 9.24827 46.0905 9.39497 46.156 9.80553C46.1965 10.0092 46.2755 10.3162 46.5563 10.6635C46.8253 11.0133 47.3605 11.3011 47.7844 11.339C48.6535 11.3974 48.8924 11.1212 49.0656 11.038C49.2271 10.9288 49.2908 10.8631 49.3438 10.8131C49.5223 10.6298 49.5186 10.612 49.5489 10.5756C49.5734 10.5415 49.5692 10.5471 49.574 10.5401C49.5804 10.5308 49.5845 10.5247 49.5874 10.5203C49.5932 10.5115 49.5948 10.5089 49.5949 10.5087C49.5955 10.5074 49.5854 10.523 49.5794 10.5323C49.5624 10.5588 49.5478 10.5818 49.5282 10.6129C49.4953 10.6651 49.4598 10.7222 49.4243 10.7798C49.3546 10.8932 49.2898 11.0017 49.2239 11.1151C49.0935 11.3397 48.975 11.5584 48.8639 11.7817C48.6436 12.225 48.4625 12.6705 48.3397 13.1087C48.0899 13.9911 48.0664 14.855 48.371 15.6903C47.3651 17.062 46.2142 18.6316 45.0239 19.9579C44.5364 20.4976 44.0313 21.0113 43.5367 21.437C42.4499 22.3761 42.6088 20.8529 41.9089 22.4368C41.7537 22.7885 42.5539 22.7342 42.2799 23.2371C41.1135 25.3725 39.4664 27.4342 38.3916 29.5989C38.1757 30.0378 38.7187 30.2465 38.7258 30.4175C38.7582 31.8404 36.5471 32.6655 36.2287 32.9576C33.8201 35.1865 32.7472 37.283 31.0596 39.7346C30.6662 40.3056 31.7557 40.0559 31.4005 40.6196C29.5536 43.532 27.4891 46.4544 25.3188 49.056C24.8331 49.6359 24.6836 48.7011 24.4255 48.9574C24.3644 49.0185 24.3095 49.0786 24.2599 49.1378C23.3782 50.198 24.0473 51.1388 23.0455 52.1772C22.8177 52.4182 22.4608 51.9551 22.3769 51.9705C21.073 52.1941 21.7615 53.6 21.6516 53.8175C20.6187 55.8955 19.2648 56.6775 17.7286 58.3576C17.6927 58.3835 17.6785 58.446 17.3452 58.7483C17.1739 58.8576 16.8611 59.2722 15.817 59.3102C15.3449 59.321 14.7759 59.0771 14.5497 58.8988C14.2898 58.7182 14.098 58.4834 14.0303 58.388C13.9409 58.2656 13.8778 58.1548 13.8315 58.0632C13.796 57.9924 13.7682 57.9284 13.7449 57.8695C13.6949 57.7413 13.679 57.6811 13.6583 57.6075C13.6187 57.4589 13.6082 57.3862 13.5933 57.2972C13.5493 56.9935 13.5435 56.797 13.5312 56.6067C13.5089 56.2151 13.4875 55.8758 13.4432 55.5085C13.4 55.1566 12.738 56.0019 12.6614 54.9892C12.522 53.005 12.4707 51.0637 12.4525 49.092C12.4171 44.4454 12.6079 39.7512 12.981 35.2672C13.0629 34.2777 13.5934 34.9815 13.6582 34.919C14.6693 33.8962 13.3057 33.2479 13.2531 32.9237C12.8736 30.3776 14.0065 27.9929 12.3793 26.2674C12.5782 22.1713 12.5667 18.0644 12.5431 13.9943C12.535 12.6604 12.5259 11.36 12.5182 10.0319C12.514 9.37495 12.5112 8.71907 12.5039 8.08601C12.5019 7.928 12.4995 7.77133 12.4961 7.64494C12.4952 7.61238 12.4946 7.59226 12.4942 7.57677C12.4941 7.57045 12.4943 7.572 12.4963 7.59036C12.4983 7.60714 12.4958 7.58858 12.5044 7.65716C12.509 7.68989 12.5148 7.73375 12.5311 7.81572C12.5519 7.90339 12.5619 8.0055 12.6802 8.30205C12.7121 8.3783 12.7533 8.46971 12.8196 8.58728C12.8528 8.6461 12.8927 8.71159 12.9434 8.78534C13.0421 8.92694 13.2029 9.14113 13.4935 9.37054C13.7793 9.59704 14.2529 9.8586 14.8503 9.92084C15.4454 9.99158 16.0594 9.81549 16.4408 9.59109C17.2124 9.11636 17.3477 8.73087 17.4818 8.51832C17.6952 8.08551 17.6898 7.97416 17.7216 7.86525C17.7462 7.74849 17.7407 7.76758 17.7448 7.74665C17.7541 7.6906 17.7575 7.66034 17.76 7.63908C17.7645 7.59734 17.7637 7.59671 17.7633 7.5994C17.7622 7.60451 17.7598 7.62915 17.7572 7.66511C17.7385 7.91611 17.7222 8.26199 17.7067 8.5728C17.5861 11.1749 17.441 13.823 17.1779 16.4576C17.0429 17.8124 16.8787 19.1659 16.6766 20.5284C16.6581 20.6632 15.9909 20.4124 15.9568 20.682C15.5399 23.9448 16.5894 23.3416 17.8378 25.5087C18.1513 26.0564 16.594 27.6997 16.4797 27.8399C16.0581 28.368 15.0673 27.8038 14.9848 27.9814C14.3361 29.4628 17.6364 29.2493 17.6154 31.2465C17.6092 31.3088 17.0051 31.0403 16.9429 31.2069C16.7477 31.7246 16.9832 32.2477 16.7688 32.7514C16.2727 33.914 14.6658 34.31 15.5796 36.1011C15.6983 36.3273 17.5723 36.004 17.4654 37.7847C17.4211 38.4956 17.4213 41.6401 17.2915 42.5204C17.1617 43.4 16.5649 42.7893 16.5382 42.8519C15.7178 45.2144 15.3963 44.3154 14.2048 45.4901C13.0177 46.6693 15.8249 46.3659 16.1333 46.8528C16.4407 47.3396 15.7669 49.0698 15.5343 49.5C15.3017 49.9258 14.9236 49.3887 14.7906 49.7678C13.9222 52.2772 16.1724 50.8874 16.61 51.7197C17.6463 53.6866 15.5538 55.1916 15.3355 56.9778C15.2765 57.4671 15.7533 57.0722 15.7941 57.5064C15.9496 59.214 15.2927 60.2384 15.8738 62.1871C15.9627 62.4768 17.0577 63.9067 16.4329 64.8955C16.3913 64.9648 16.3421 65.0318 16.2845 65.0963C16.1514 65.2407 15.6356 64.8277 15.5152 65.5582C15.3346 66.6472 15.212 68.5992 15.3823 69.7669C15.5083 70.6444 16.3644 69.6444 16.0969 70.7338C15.9778 71.2136 15.4794 70.3267 15.2975 71.223C15.2068 71.6784 15.1663 72.47 15.1562 73.2754C15.1538 73.4686 15.153 73.6599 15.1555 73.8596C15.1559 73.8969 15.1569 73.9566 15.158 73.9949C15.1585 74.0132 15.1591 74.0312 15.16 74.0472C15.1601 74.0513 15.1608 74.0525 15.1576 74.0262C15.1574 74.0245 15.1572 74.0226 15.1569 74.0205C15.1561 74.0163 15.154 73.994 15.1431 73.949C15.1366 73.9247 15.1297 73.8932 15.1019 73.8295C15.0632 73.7713 15.0548 73.6414 14.7548 73.4727C14.6067 73.3927 14.3452 73.3772 14.1795 73.4499C14.009 73.5182 13.9268 73.6109 13.8763 73.6715C13.7809 73.7968 13.7719 73.8509 13.7555 73.8911C13.731 73.9669 13.7308 73.9861 13.727 74.0052C13.7221 74.0387 13.7251 74.0183 13.7242 74.0247C13.7235 74.03 13.7231 74.0336 13.7229 74.0361C13.7223 74.0413 13.7223 74.0425 13.7223 74.0419C13.7257 73.9915 13.7287 73.8804 13.7303 73.8047C13.7373 73.461 13.737 73.1366 13.7358 72.9304C13.7298 72.0566 13.0756 72.5238 13.033 72.4545C12.7892 72.0259 12.4914 70.3375 12.4928 70.1971C12.4892 69.0039 12.5123 67.834 12.5531 66.67C12.767 60.5123 13.4937 54.6287 13.2039 48.4821C13.1778 47.9087 12.4939 48.2891 12.4828 48.2016C12.2012 46.2381 14.0136 47.7901 14.6248 46.4203C13.2382 46.615 13.4911 45.8059 13.3431 44.4235C13.2707 43.7568 12.7329 44.118 12.6782 44.0571C11.866 43.0655 12.9213 42.3808 13.1373 42.2042C13.9319 41.5561 12.9985 40.8344 13.5299 40.3947C14.0574 39.9525 14.8323 40.9822 14.828 39.6519C14.3334 39.278 13.0325 40.2563 12.8268 39.2495C12.2067 36.2178 12.7535 31.0977 13.0989 27.5951C13.1869 26.6882 13.2612 25.9124 13.2973 25.2851C13.3865 23.7479 13.4273 22.7362 13.4913 21.8594C13.5247 21.4166 13.5599 21.0263 13.6318 20.5825C13.6504 20.4707 13.6712 20.3567 13.6998 20.2275C13.7315 20.0978 13.7504 19.9807 13.8525 19.7131C13.8732 19.6637 13.9184 19.5493 14.0024 19.4173C14.0545 19.3422 14.0671 19.3032 14.2304 19.1391C14.3768 19.0009 14.6153 18.8305 14.9744 18.7789C15.3607 18.7207 15.7266 18.8675 15.9151 19.0044C16.0524 19.1011 16.1305 19.1862 16.1944 19.2625C16.328 19.4322 16.3414 19.4796 16.3837 19.5587C16.5085 19.8289 16.5232 19.9432 16.5624 20.1014C16.8883 22.2623 17.1213 22.4253 17.558 22.7991C17.8231 23.0148 18.1257 23.2728 18.4268 24.0211C19.1915 25.9443 16.6927 25.3509 16.2379 25.7186C15.7806 26.0775 16.3465 26.3016 16.124 26.6872C15.9017 27.0754 15.4436 26.3832 15.466 27.2087C15.4903 28.0295 16.7088 30.1183 17.2741 30.334C18.4747 30.7884 19.5111 29.618 19.3937 31.8465C19.3859 31.9749 18.7149 31.651 18.7164 32.1387C18.7443 35.9196 19.1341 39.788 19.0485 43.5552C19.0469 43.6287 19.045 43.7022 19.043 43.7756C19.027 44.3023 18.2985 43.8927 18.2812 44.1992C18.0875 47.3876 19.1604 46.1709 20.5797 47.8167C18.8306 47.5491 17.8455 48.5779 17.9981 50.9786C18.0906 52.4236 18.8254 52.1232 19.4222 53.0178C19.601 53.2793 19.1632 54.3471 19.5321 54.5002C20.7418 55.002 21.9335 53.9853 21.6569 56.3929C21.6441 56.4967 20.9766 56.2435 20.9793 56.6032C20.9823 57.2232 21.1085 57.7379 21.2606 57.9027C21.2781 57.9191 21.2928 57.9185 21.2973 57.8935C21.2862 57.8488 21.3211 57.8224 21.1461 57.5827C21.0286 57.4531 20.9024 57.2725 20.442 57.1215C19.9703 56.9463 19.2941 57.2056 19.1926 57.299C18.992 57.425 18.8934 57.5355 18.8267 57.6081C18.776 57.6622 18.7512 57.688 18.7269 57.7122C18.6402 57.8002 18.631 57.7473 18.6049 57.698C18.5805 57.65 18.5591 57.5843 18.5404 57.4993C18.3968 56.9775 18.2406 56.2324 18.3475 55.091C18.5382 53.1156 19.7002 49.5839 20.0745 47.2739C21.9987 47.535 21.7973 45.2846 20.5594 44.2541C20.7732 42.7497 20.8646 41.111 21.1953 39.6677C21.3085 39.1703 21.8343 39.5573 21.9011 39.4998C22.946 38.6222 21.7156 37.8366 21.6973 37.5026C21.598 35.0344 22.1614 32.9452 22.3182 30.7501C22.3893 29.7559 22.3783 28.7271 22.1824 27.6494C22.1591 27.5324 20.8373 27.2001 21.9067 26.39C21.9795 26.3438 22.4789 27.519 22.6845 25.9306C22.7338 25.5498 22.8285 25.1025 22.9398 24.5966C22.9673 24.4739 22.9956 24.3488 23.0251 24.2131C23.0389 24.1547 23.0541 24.0822 23.0682 24.0189C23.0756 23.9839 23.0821 23.9587 23.0892 23.9244C23.0925 23.9093 23.0955 23.8988 23.0986 23.8847C23.1001 23.8791 23.1013 23.8756 23.1023 23.8756C23.1029 23.8753 23.1032 23.8776 23.1032 23.8882C23.1033 23.8936 23.1032 23.9011 23.1033 23.9137C23.1034 23.9201 23.1035 23.9278 23.1037 23.9378C23.1038 23.9429 23.104 23.9485 23.1043 23.9551C23.1086 23.9782 23.0925 24.0015 23.1425 24.2115C23.16 24.2709 23.1799 24.3499 23.2597 24.4874C23.3381 24.611 23.5089 24.8783 23.9466 24.9953C24.3883 25.1091 24.7812 24.8951 24.9158 24.7729C25.0722 24.6386 25.1178 24.5534 25.1585 24.4905C25.2813 24.2661 25.2629 24.2426 25.2669 24.2474C25.2686 24.2417 25.2701 24.2364 25.2715 24.2316C25.2742 24.222 25.2763 24.2141 25.2781 24.2071C25.2816 24.1933 25.2838 24.1835 25.2855 24.1756C25.2889 24.16 25.2902 24.1517 25.2911 24.1459C25.2929 24.1341 25.2921 24.1352 25.2917 24.1346C25.2908 24.1342 25.289 24.1383 25.287 24.1449C25.2831 24.1563 25.2792 24.1687 25.2746 24.186C25.2663 24.2139 25.2566 24.2526 25.2483 24.2824C25.2302 24.3522 25.2124 24.4206 25.1948 24.4888C25.159 24.6289 25.1231 24.7721 25.0873 24.9175C24.7752 26.1921 24.4641 27.5528 24.532 28.7704C24.5655 29.331 25.3188 30.9356 24.2185 31.8038C24.0705 31.9169 23.7344 31.6681 23.4744 31.8201C22.6436 32.3112 23.8697 33.0128 22.5455 33.4933C22.5326 33.498 22.5196 33.5028 22.5067 33.5077C21.1981 33.9946 19.961 35.3411 20.113 37.6812C20.1159 37.7553 21.0082 38.5626 20.7956 39.2342C20.4559 40.3059 19.7888 41.7719 19.4589 42.8962C19.3009 43.4361 20.0465 43.284 20.0302 43.3811C19.6101 45.5311 18.9725 47.2423 18.2207 49.0213C17.6659 50.3324 17.0461 51.6792 16.3757 53.2577C16.0908 53.9415 16.2028 56.2664 15.0295 57.3529C14.5628 57.791 13.9285 57.728 13.283 57.6502C12.7319 57.5521 12.1485 57.5142 11.7677 57.4784C11.6891 57.4446 11.5707 57.4578 11.6875 57.173C11.7257 57.0958 11.783 56.9865 11.9567 56.8004C12.1661 56.6289 12.3962 56.2298 13.5516 56.0215C14.0863 55.9342 14.8362 56.0869 15.2521 56.3189C15.7339 56.5745 15.9441 56.8004 16.1265 57.0009C16.4308 57.3607 16.4989 57.5397 16.5664 57.669C16.75 58.0884 16.6862 57.9625 16.6716 57.8755C16.6429 57.7648 16.5894 57.577 16.5146 57.3443C16.4389 57.107 16.2133 56.8404 15.9184 56.5375C14.7387 55.3395 12.4387 53.6304 14.2422 51.5927C13.9477 47.2797 14.9095 43.2931 15.0603 39.0858C15.0903 38.3094 15.0931 37.5452 15.0616 36.7468C15.0518 36.5208 13.9748 35.6651 14.0564 35.1249C14.1786 34.3322 14.7767 33.9628 14.8896 33.3968C15.3766 31.0546 15.2788 28.7941 15.8541 26.5401C16.0773 25.6878 16.5526 26.106 16.8381 25.1124C17.0834 24.3071 16.7667 23.5901 17.1435 22.6717C17.1778 22.639 17.1269 22.5691 17.3534 22.529C17.5993 22.6122 17.5098 22.6542 17.5431 22.6771C17.566 22.7405 17.5655 22.7576 17.5725 22.7973C17.5833 22.8719 17.5846 22.9281 17.5849 22.9963C17.5837 23.1226 17.5703 23.2566 17.5454 23.3981C17.3385 24.5023 15.8324 25.5654 15.6619 26.9694C17.1568 27.0134 17.1322 27.9974 17.5071 29.7286C17.5797 30.0667 18.1045 29.7108 18.1656 29.8716C18.4261 30.515 17.9853 31.1079 18.266 31.7226C18.3333 31.8716 18.8438 31.8885 18.9276 32.0124C19.6604 33.0657 18.4676 34.7426 18.2588 35.0288C17.4677 36.1323 18.115 36.6649 17.7872 37.5177C17.4591 38.3608 17.1291 37.0764 16.9134 38.0621C16.8057 38.561 16.723 39.0796 16.6565 39.6351C16.4211 41.3514 16.3468 43.2697 16.2238 44.8629C16.1621 45.6989 16.8801 45.1736 16.8871 45.2943C16.9445 47.04 16.0937 48.7375 17.3746 49.8008C13.7803 50.7358 17.64 50.868 16.7291 53.2968C16.6553 53.4877 14.9808 53.5845 14.8016 52.824C14.6228 52.0595 15.2317 50.9718 14.9317 49.9082C14.8623 49.6537 13.4147 48.1381 13.3338 47.9418C12.7066 46.3938 15.1945 46.3531 15.3364 46.2828C16.8665 45.4806 15.3057 43.6475 15.2176 43.1904C14.9638 41.8579 15.0502 40.6722 15.0722 39.5403L15.0706 39.5742C15.0735 38.9124 15.0554 38.2758 14.9385 37.642C14.7322 36.4979 13.1108 36.3373 13.1869 35.458C13.4327 32.5292 15.7228 31.5321 13.7839 28.7479C13.3666 28.1565 11.5955 28.7267 12.9888 26.6425C13.0772 26.5293 14.3444 24.9222 13.499 24.1348C13.3931 24.0447 12.8758 24.0611 12.8263 23.942C12.7662 23.7969 12.7281 23.6566 12.7096 23.595C12.7009 23.5644 12.6937 23.54 12.7071 23.6285C12.7144 23.6655 12.7238 23.7573 12.7935 24.018C12.8051 24.0594 12.8486 24.2205 12.9233 24.4184C13.0041 24.6239 13.1062 24.896 13.3943 25.3407C13.5928 25.5999 14.18 26.652 15.9053 27.2411C16.7534 27.5263 17.8571 27.5335 18.7024 27.2652C18.9122 27.2027 19.1221 27.1217 19.2869 27.047C19.4034 26.9945 19.5133 26.9393 19.6167 26.8827C19.8235 26.7693 20.0039 26.6505 20.1617 26.5336C21.3713 25.5556 21.467 25.0019 21.6545 24.67C21.6562 24.6183 21.5406 24.8108 21.4651 24.9881C21.384 25.1776 21.3136 25.4148 21.2932 25.714C21.2268 26.6713 21.2399 27.9223 20.8387 29.0439C20.5973 29.7125 19.4841 30.4659 19.1936 30.7704C18.3539 31.6434 19.2978 32.8776 18.3971 33.3699C17.4897 33.8897 16.4132 32.4693 15.6578 34.0693C16.9833 34.3056 18.3341 34.6229 19.6634 34.8915C19.4469 36.4181 19.1926 37.9161 18.9567 39.4472C18.6447 41.472 18.3663 43.5351 18.2715 45.6305C18.2526 46.0853 19.0023 45.6646 19.0012 46.1524C18.9955 48.207 18.3928 49.9802 18.526 52.1059C18.6212 53.5374 19.1891 55.147 19.4859 56.4766C19.5275 56.6611 19.5641 56.8294 19.5938 56.9836C19.3743 57.1079 19.2005 57.2492 19.0648 57.3837C18.9268 57.5061 18.8384 57.6646 18.7424 57.5853C18.7169 57.5622 18.6897 57.5149 18.6439 57.4067C18.5877 57.2825 18.5601 57.1561 18.3167 56.6675C18.2559 56.5517 18.1767 56.4044 18.0412 56.1983C17.9069 56.0001 17.7526 55.7747 17.4175 55.433C17.2506 55.2671 17.0871 55.1178 16.8199 54.9216C16.5428 54.7199 16.2094 54.5223 15.8259 54.3614C15.0671 54.0175 13.8935 53.8826 13.08 54.0453C11.3158 54.424 10.8811 55.0485 10.507 55.3583C10.1958 55.6726 10.0641 55.8716 9.96545 56.0179C9.64387 56.5435 9.70843 56.5423 9.69742 56.5708C9.70596 56.5785 9.7378 56.5164 9.7711 56.4334C10.1194 55.5086 10.3974 54.6232 10.7218 53.9155C10.9926 53.3251 11.3632 53.5074 11.6465 53.1232C12.6985 51.669 11.1414 51.9728 11.097 51.4601C10.8922 49.3038 13.7818 50.0681 14.5057 47.8419C14.5155 47.8115 14.5249 47.7803 14.5339 47.7484C14.5721 47.6217 13.4783 45.6247 13.4434 45.3888C13.2152 43.8701 14.0564 45.3408 14.428 44.5457C15.1032 43.098 15.7989 42.1515 15.8673 40.2304C15.8853 39.6687 15.2698 38.1367 16.3202 37.3481C16.4581 37.2439 16.9581 37.4675 17.0194 37.3693C18.084 35.5773 16.4564 35.0586 16.2045 33.8103C16.0779 33.184 16.4123 32.5298 16.8269 32.0003C17.2407 31.472 17.7368 31.0592 17.9441 30.9317C19.0229 30.25 18.1311 31.715 18.2 31.7833C19.0388 32.6213 19.1981 31.3319 19.515 30.4081C21.1726 30.6756 21.3977 29.3063 19.8341 29.4476C19.6636 29.4648 19.6366 30.2379 19.515 30.4081C18.1307 29.1757 18.2637 27.7442 20.0775 26.4795C20.9177 25.8806 21.6431 26.7323 21.7087 24.4096C21.7087 24.4092 21.7087 24.4089 21.7087 24.4086C21.7138 24.1416 21.6412 23.9562 21.5292 23.8073C21.4736 23.7299 21.4076 23.6644 21.3368 23.5991C21.3028 23.5573 21.264 23.5381 21.2316 23.4762C21.2175 23.435 21.1907 23.4582 21.1935 23.33C21.1946 23.2981 21.1967 23.2599 21.2082 23.19C21.2143 23.1544 21.2225 23.1108 21.2391 23.0449C21.2481 23.0135 21.2321 23.0597 21.2682 22.9455C21.3089 22.8362 21.3327 22.7131 21.5371 22.3502C21.6562 22.1665 21.7888 21.891 22.3181 21.4642C22.5873 21.2586 22.9975 21.0038 23.6 20.8804C24.2114 20.7476 24.9654 20.8417 25.5152 21.1076C26.6356 21.679 26.8574 22.316 27.028 22.6248C27.1767 22.9564 27.2118 23.1356 27.2442 23.2746C27.299 23.5433 27.3003 23.646 27.3079 23.7353C27.3136 23.8325 27.3129 23.8399 27.3135 23.8421C27.314 23.8473 27.3144 23.8524 27.3149 23.8573C27.3278 24.0066 27.3345 24.0475 27.3436 24.0925C27.4182 24.2854 27.5036 24.2827 27.5826 24.3617C27.6634 24.4135 27.74 24.4847 27.8116 24.5449C27.953 24.6848 28.068 24.8509 28.1219 25.1014C28.5312 26.9988 27.6629 29.214 27.3322 31.237C27.2676 31.6256 27.2215 32.0364 27.2137 32.4087C27.1942 33.2467 27.8991 32.5022 27.9082 33.0683C27.9337 34.5779 27.3349 35.857 27.4276 37.3874C27.4368 37.5262 28.1256 37.2589 28.0881 37.7257C27.8133 41.2858 27.0819 44.3396 26.6591 48.0661C26.4566 49.8632 26.441 53.1335 26.0946 55.0538C25.8604 56.311 25.5922 57.4185 24.9771 59.2263C24.8819 59.4981 24.8168 59.6874 24.6141 60.1549C24.5283 60.3338 24.3815 60.6984 24.0171 61.2223C23.832 61.4705 23.3833 62.1447 22.3693 62.7201C21.8727 63.0313 20.5872 63.4595 19.4832 63.2902C18.9385 63.2306 18.3545 63.0305 18.0263 62.8689C17.6926 62.7104 17.4132 62.5305 17.1812 62.3534C16.717 61.9962 16.4348 61.6602 16.2278 61.3817C16.0605 61.1508 15.9862 61.0213 15.8997 60.868C15.7437 60.5877 15.632 60.3131 15.5861 60.1849C15.4836 59.905 15.4141 59.6368 15.3845 59.4948C15.3117 59.1585 15.2848 58.9286 15.26 58.7053C15.1803 57.8703 15.189 57.2986 15.1756 56.7023C15.1606 55.5564 15.1305 54.5257 14.9902 53.6432C14.7104 51.8401 14.0831 52.2849 13.581 51.5423C12.6108 50.1046 13.9883 47.4103 14.2017 47.0417C14.2095 47.0302 14.4729 48.5448 14.7528 47.7068C15.4227 47.1832 14.2059 47.0577 14.2017 47.0417C14.3074 46.8604 14.2899 45.0701 14.1893 43.9647C14.1573 43.6068 14.1178 43.3198 14.0744 43.1772C13.9769 42.8575 13.3707 43.095 13.3317 42.9281C12.4145 38.9649 11.7885 34.9844 11.5042 30.8902C11.5066 30.8172 12.2138 30.8263 12.2107 30.6558C12.1809 28.2576 11.0987 26.8801 10.2768 25.0589C10.1345 24.7455 10.0124 24.4355 9.91511 24.1451C9.68072 23.439 9.5775 22.7848 9.65255 22.3479C9.6725 22.2433 9.70329 22.154 9.75893 22.1249C9.7876 22.1126 9.82083 22.1113 9.87448 22.1613C9.92903 22.2073 9.99048 22.2966 10.1698 22.5877C10.2243 22.6792 10.2911 22.7896 10.3825 22.9278C10.4826 23.0739 10.5549 23.196 10.8492 23.5583C10.9873 23.7232 11.1588 23.912 11.3913 24.1238C11.5077 24.2294 11.6397 24.3407 11.7919 24.4552C11.8714 24.5147 11.9379 24.5626 12.0462 24.6357C12.1777 24.7244 12.3223 24.8139 12.4818 24.9012C13.6389 25.7242 16.5267 25.7527 17.6965 24.9393C19.0452 24.1924 19.4961 23.3645 19.6546 23.1394C19.8669 22.799 19.9769 22.5434 20.0545 22.3408C20.1739 22.0039 20.1817 21.8742 20.1989 21.7316C20.2073 21.3098 20.0672 21.3374 19.9488 21.3214C19.9985 22.0538 19.398 24.4658 19.0523 25.5997C18.7041 26.8146 20.0634 27.02 20.0881 27.1225C20.1349 27.317 20.1764 27.5115 20.2128 27.7059C20.8062 30.7361 20.0947 32.6751 19.9591 35.9982C19.8884 37.6818 20.0712 41.0124 20.2143 42.8376C20.3294 44.2754 20.0082 45.1448 20.2086 46.4713C20.2354 46.6509 20.8416 46.471 20.8647 46.5259C21.5858 48.009 20.1068 47.2935 19.8416 47.5987C18.8774 48.7047 18.3637 49.3905 18.8125 51.2884C18.9152 51.7273 21.045 53.0083 21.1683 53.8028C21.3247 54.846 20.5612 54.4463 20.7444 55.5367C20.7594 55.6295 21.2309 55.6132 21.209 56.2808C21.1132 59.3997 20.8337 62.7828 20.8689 66.0396C20.8719 66.4844 21.6219 65.9212 21.6384 66.5566C21.6397 66.6073 21.641 66.6579 21.6422 66.7083C21.6774 68.2042 21.6815 69.7491 21.6269 71.2982C21.5992 72.0722 21.5579 72.8538 21.493 73.6536C21.4844 73.7723 21.4765 73.8416 21.4663 73.9803C21.4549 74.1177 21.4516 74.1429 21.4238 74.5186C21.4176 74.5953 21.4125 74.6781 21.3904 74.8759C21.3875 74.9013 21.3842 74.9291 21.3803 74.9601C21.3784 74.9756 21.3763 74.992 21.374 75.0093C21.3728 75.018 21.3716 75.0269 21.3704 75.0361C21.3734 75.0132 21.3606 75.1116 21.3476 75.194C21.3338 75.2819 21.3158 75.3906 21.2837 75.5452C21.2501 75.7023 21.2084 75.8985 21.1042 76.2319C20.9803 76.5734 20.8891 77.0164 20.2422 78.0215C19.896 78.5142 19.4013 79.2254 18.2092 80.0106C17.1055 80.7823 14.8743 81.4183 12.9855 80.9605C9.07746 79.8357 8.68415 77.9171 8.22324 77.3156C7.85124 76.5686 7.77368 76.2164 7.69234 75.9407C7.62029 75.6705 7.58862 75.503 7.56364 75.3681C7.54 75.2377 7.5244 75.1298 7.51602 75.0685C7.51521 75.0625 7.51444 75.0567 7.51368 75.051C7.50761 75.005 7.50281 74.9652 7.49873 74.9295C7.48281 74.788 7.4767 74.7046 7.47177 74.6358C7.45526 74.3789 7.45799 74.3124 7.45776 74.2704C7.45835 74.178 7.45996 74.0698 7.46308 74.0269C7.46871 73.9108 7.4753 73.787 7.48272 73.6935C7.51218 73.287 7.54911 72.9004 7.5912 72.5443C7.67841 71.8023 8.20285 72.2692 8.35807 72.1096C9.29753 71.137 7.9346 69.7725 7.9093 69.5427C7.71129 67.8908 7.69737 66.3322 7.75534 64.8431C7.88538 61.5048 8.3743 58.3994 7.99938 54.6263C7.96727 54.327 6.52197 52.0276 7.78779 51.0227C7.87204 50.9501 9.16667 49.9607 8.29595 49.0561C8.24147 49.0011 7.57382 49.6212 7.6514 48.5276C7.72886 47.4321 7.30359 45.6622 8.04546 44.163C8.27919 43.6877 9.57261 42.5729 8.5646 41.1403C8.49412 41.0467 6.20485 38.8275 7.80783 38.0582C8.0717 37.9332 9.75786 38.0859 8.91034 36.3768C8.74599 36.0506 8.36336 36.6352 8.13729 35.7787C7.78883 34.4628 8.25941 32.7367 7.52541 31.1146C7.39536 30.836 6.26321 29.6199 7.14342 28.6769C7.2813 28.5271 7.84147 28.8204 7.9103 28.3118C8.24017 25.9007 7.89276 23.393 8.3134 20.9374C8.46136 20.0669 9.36632 20.54 9.62211 19.6268C9.84577 18.8479 10.0723 17.3358 9.85441 16.3558C9.82358 16.2096 9.78379 16.0755 9.73375 15.9562C9.33085 15.0009 7.86401 16.0355 7.76872 14.5964C7.615 12.1744 7.63718 9.99217 7.82132 7.28497C7.8292 7.18086 7.83687 7.0713 7.85393 6.87473C7.86456 6.79307 7.86086 6.67039 7.94375 6.13485C7.9718 6.01356 7.9099 6.17613 8.11187 5.36391C8.2755 4.94888 8.1959 4.50932 9.35922 2.85111C9.96926 2.09885 11.3245 0.444738 14.3326 0.0478172C17.4097 -0.314163 19.7414 1.46875 20.505 2.37432C20.7303 2.62132 20.9056 2.84614 21.0508 3.04897C21.1884 3.24391 21.1968 3.2611 21.2617 3.36074C21.3682 3.52755 21.4549 3.67762 21.5289 3.81419C21.6764 4.08717 21.775 4.30684 21.8528 4.49379C22.0058 4.86596 22.0795 5.1133 22.1365 5.31245C22.2445 5.70355 22.278 5.90797 22.3076 6.07436C22.3605 6.394 22.3707 6.54053 22.3748 6.57355C22.3806 6.63351 22.3849 6.68393 22.3884 6.72917C22.426 7.32196 22.4098 7.34603 22.4128 7.58256C22.4096 7.92829 22.4011 8.25824 22.3908 8.55649C22.3704 9.17689 22.3431 9.77009 22.3138 10.3748C22.2547 11.5602 22.1863 12.7565 22.1259 13.9398C22.0534 15.3515 21.9924 16.7699 21.9696 18.1878C21.9547 19.1047 22.4711 18.3413 22.4863 19.6874C22.5439 24.6388 23.0587 33.1784 21.978 37.4679C21.1121 40.9039 20.4159 36.5908 20.0703 39.2152C19.9057 40.4783 21.6025 41.8466 21.6577 42.1457C22.1546 44.7904 21.6376 46.7132 21.6994 48.9677C21.7077 49.2689 21.7251 49.5505 21.7559 49.8556C21.8121 50.4073 22.4876 49.8596 22.5279 50.3195C22.6733 51.8971 22.4017 53.5993 22.5242 54.936C22.5527 55.2269 22.6973 55.3223 22.832 55.4027C22.9664 55.4776 23.0967 55.5947 23.0829 55.652C23.0683 55.64 23.0869 55.6886 22.9659 55.1888C22.932 55.0613 22.8773 54.8424 22.7473 54.4866C22.6694 54.2755 22.5508 53.9781 22.3578 53.6114C22.2267 53.3628 22.0571 53.0721 21.8163 52.7381C21.6843 52.5584 21.5941 52.4361 21.3594 52.168C21.1318 51.9112 20.8573 51.637 20.5212 51.361C20.1704 51.0775 19.8375 50.8355 19.2798 50.5373C18.6977 50.2295 18.0135 49.9757 17.2991 49.833C15.87 49.531 14.3725 49.7472 13.3935 50.1075C12.4682 50.4413 11.9259 50.8023 11.5059 51.1038C11.1507 51.3653 10.9109 51.5857 10.7285 51.7635C10.0993 52.4064 10.0887 52.5053 10.1076 52.4693C10.0857 52.5496 10.2322 52.4063 10.4144 52.2104C10.5943 52.0195 10.8002 51.8009 11.0091 51.5942C11.4277 51.1794 11.8836 50.7726 12.3895 50.3734C12.5015 50.286 12.5317 51.412 13.183 50.4791C14.2372 48.9667 15.9088 47.348 16.6771 45.3212C16.8407 44.8921 16.401 44.4462 16.6269 43.9699C16.7172 43.775 16.9294 43.5778 17.3672 43.3749C17.6653 43.2421 18.6511 44.343 18.5027 42.3542C18.4826 42.0168 18.571 38.9101 20.1871 38.4479C20.6151 38.3222 22.0708 38.2671 22.3399 37.5428C22.3727 37.4422 21.6133 37.4186 21.9105 36.8698C22.9718 34.9349 24.315 33.08 25.4147 31.1042C25.7067 30.5769 24.655 30.9436 25.108 30.1691C26.3532 28.0381 28.2217 25.5885 29.7436 23.7166C30.3082 23.0235 30.4174 23.8416 30.5034 23.8215C31.8896 23.5121 31.1511 22.2609 31.2783 21.9371C32.105 19.9018 33.5272 18.9036 34.4993 17.1761C34.7703 16.6982 34.034 16.6688 34.0487 16.5473C34.2202 15.32 34.6883 16.6356 35.1902 16.1148C35.7122 15.5784 36.2233 14.9563 36.6881 14.3356C37.4756 13.2817 38.1825 12.1605 38.8344 11.0941C39.2162 10.4672 38.1556 10.7484 38.5034 10.1929C39.0128 9.37238 39.5317 8.55518 40.0539 7.75035C40.3147 7.3482 40.5806 6.94279 40.8389 6.55211C40.9701 6.35349 41.0979 6.16105 41.2249 5.97004C41.2859 5.87846 41.3519 5.77924 41.4116 5.68974C41.4446 5.64 41.4745 5.5952 41.5067 5.54678C41.5255 5.51828 41.54 5.49649 41.5669 5.45541C41.5773 5.43977 41.5975 5.40831 41.6382 5.34619C41.6557 5.31939 41.6771 5.28667 41.7148 5.2307C41.7339 5.20236 41.7572 5.16805 41.7908 5.11998C41.8097 5.09399 41.8868 4.97836 42.0568 4.76161C42.1523 4.64324 42.2625 4.49723 42.5562 4.18941C42.7107 4.03199 42.9035 3.8324 43.2968 3.51674C43.7278 3.21473 44.2037 2.70695 45.9383 2.15977C46.8079 1.91774 48.1717 1.66817 49.925 2.11236C51.6753 2.51935 53.4564 3.88378 54.2837 5.17465C55.9313 7.85816 55.5536 9.14384 55.5958 9.89673C55.47 11.3403 55.2927 11.5652 55.2103 11.8849C55.03 12.4015 54.9706 12.4991 54.9181 12.6221C54.8384 12.7936 54.8522 12.7614 54.828 12.8117C54.7957 12.877 54.7788 12.9097 54.7657 12.9353C53.9193 14.4987 52.8877 16.3837 51.7893 18.0944C51.372 18.7436 51.094 18.0578 50.9074 18.1423C49.6243 18.6988 49.8832 20.771 49.7035 21.2832C49.669 21.3948 49.6318 21.504 49.5937 21.6085C48.9992 23.3195 48.3474 23.4704 47.6987 24.633C46.657 26.5084 45.4826 28.4941 44.6755 30.1397C42.2636 34.6303 40.277 38.7515 38.4086 42.6704C38.3555 42.7824 38.3022 42.8951 38.2487 43.0083C34.6751 50.6134 31.637 56.4643 28.6274 63.9445C28.4366 64.4178 29.3231 64.2303 29.1657 64.646C28.2018 67.1478 27.1455 69.6048 26.0918 72.0446C24.912 74.7881 23.6276 77.6838 22.6755 80.2862C22.5466 80.6528 23.4007 80.4113 23.2314 80.9778C23.1559 81.2425 23.0852 81.4851 22.988 81.7932C22.5426 83.1702 21.9546 84.5524 21.3611 85.6299C20.9843 86.3154 20.7878 85.1302 20.4206 85.8224C19.5661 87.4269 18.8474 89.1533 18.3765 90.8105C18.1803 91.5123 19.2242 90.7236 18.9204 91.6103C18.5572 92.6872 18.2306 93.733 17.9596 94.7196C17.835 95.1796 17.6634 96.0958 17.5386 96.972C17.4742 97.4172 17.415 97.8773 17.3655 98.3124C17.3411 98.5265 17.3186 98.7435 17.3038 98.8973C17.2966 98.9596 17.2918 99.0603 17.2921 98.9318C17.2915 98.8979 17.2932 98.8273 17.2863 98.645C17.281 98.556 17.2801 98.3503 17.2183 97.9026C17.2072 97.8279 17.2095 97.8341 17.1795 97.6596C17.1497 97.4929 17.1099 97.2896 17.0342 97.0076C16.7921 96.4357 16.908 95.586 14.9529 93.5038C14.8211 93.3778 14.6772 93.2493 14.5196 93.12C14.4408 93.0554 14.3586 92.9906 14.2728 92.926C14.1971 92.8681 14.0002 92.7263 13.8484 92.6285C13.2027 92.2061 12.3677 91.8125 11.4197 91.5939C9.49688 91.1134 7.39337 91.5941 6.20312 92.25C3.79285 93.6428 3.5073 94.6673 3.10793 95.22C3.02807 95.3589 2.94549 95.5183 2.91185 95.5861C2.89321 95.6234 2.87567 95.6592 2.85907 95.6937C2.82589 95.7628 2.79646 95.8266 2.76983 95.8863C2.71664 96.0055 2.67445 96.108 2.63867 96.199C2.49879 96.5592 2.44446 96.7559 2.40038 96.9101C2.36281 97.0469 2.35696 97.0745 2.34137 97.1381C2.3154 97.2469 2.3007 97.3194 2.29127 97.3675C2.2777 97.4386 2.2724 97.4743 2.27004 97.4925C2.21441 97.8737 2.23593 97.8914 2.24242 97.8093C2.25216 97.7243 2.26297 97.5547 2.27302 97.3711C2.29316 97.0039 2.31322 96.5689 2.3363 96.1441C2.38218 95.2896 2.43994 94.4141 2.51308 93.5408C2.65937 91.7867 2.86442 90.0672 3.14259 88.3074C3.21933 87.8348 4.69589 87.4501 4.44481 86.4092C4.04033 86.3218 3.56183 86.3118 3.12812 86.266C3.13485 85.2217 3.15023 84.2144 3.17501 83.1666C3.27217 77.8146 3.21628 72.0615 3.13046 66.3592C3.07299 63.1015 3.03738 59.8763 2.8774 56.7676C2.85565 56.3629 2.1237 57.1057 2.07708 56.3291C2.01536 55.3316 1.93176 54.3556 1.83138 53.4772C1.40332 49.7267 1.10835 45.995 1.3892 42.2256C1.42296 41.7448 2.80726 41.8667 2.47608 40.4903C2.4653 40.4467 2.4444 40.3436 2.41523 40.2009C2.27447 39.4957 1.98572 37.9331 1.7101 37.505C1.65979 37.4337 1.0534 37.8706 0.982526 37.1849C0.781961 35.155 0.614165 33.2133 0.45267 31.1654C0.298313 29.2079 0.186817 27.2222 0.134196 25.2807C0.117644 24.6338 0.876998 25.2294 0.870999 24.768C0.833266 22.2536 0.253704 19.6265 0.0634265 17.1606C0.0031395 16.4009 -0.0196109 15.659 0.0191417 14.9295C0.131679 12.8243 1.40355 13.4108 2.38273 12.1496C2.52133 11.9705 2.3494 10.6976 3.00233 10.5252C4.64577 10.0915 6.57255 10.4251 8.31299 9.89078C8.68631 9.76679 8.00766 8.14184 9.09126 8.99537C9.16325 9.04906 9.66933 10.2582 10.0317 10.5258C10.2829 10.7118 10.8982 10.2126 11.2452 10.6174C11.5915 11.021 11.0988 11.5978 11.5343 12.2844C11.973 12.9696 12.698 12.5408 12.9986 13.9877ZM17.5319 31.1353C16.8676 32.2854 19.2588 32.4718 18.6981 31.2227C18.6682 31.1622 17.5646 31.0765 17.5319 31.1353ZM16.6672 41.8076C15.4999 43.2172 16.9829 44.3427 17.8677 43.354C18.7532 42.3728 17.0217 41.3836 16.6672 41.8076ZM18.0065 26.5506C16.8174 28.0488 20.0952 28.9678 19.8009 27.1125C19.785 27.009 18.0766 26.4635 18.0065 26.5506ZM3.44367 17.1783C3.45882 17.1699 3.44059 16.9219 3.41539 16.6885C3.38945 16.4515 3.35784 16.231 3.34058 16.2194C2.91914 16.0221 2.76617 16.4105 2.81542 16.773C2.86082 17.1073 3.0886 17.4215 3.44367 17.1783ZM16.5244 34.5777C16.9989 34.0428 16.5052 32.4513 15.919 33.1192C15.4485 33.6498 15.9352 35.2488 16.5244 34.5777ZM14.1671 57.0173C14.203 56.9939 14.2405 56.3363 14.0389 56.3462C13.3893 56.3851 13.565 57.3148 14.1671 57.0173ZM16.5778 53.9239C16.535 54.8927 16.3331 55.7593 16.0752 56.4578C15.9572 56.8206 15.7695 57.0713 15.7113 57.4301C15.7177 57.4397 15.724 57.5058 15.8388 57.5039C15.9358 57.475 15.919 57.466 15.9447 57.4484C15.9807 57.4096 15.9889 57.4082 16.0082 57.3885C16.0446 57.3472 16.0691 57.3334 16.0988 57.3019C16.1555 57.2466 16.2075 57.2004 16.2591 57.1547C16.3611 57.0694 16.4593 56.9926 16.5537 56.9334C16.9284 56.7016 17.2558 56.7077 17.424 57.0874C17.4649 57.1834 17.4975 57.2992 17.5017 57.486C17.5014 57.5376 17.5043 57.5727 17.4933 57.6561C17.4803 57.7349 17.4844 57.7939 17.3973 58.0264C17.3787 58.0685 17.3433 58.1797 17.1977 58.3855C17.1225 58.4868 17.0187 58.6167 16.8204 58.7632C16.7478 58.8226 16.4179 59.026 16.0751 59.0705C15.7201 59.1312 15.3113 59.0502 15.0386 58.9063C14.7571 58.7638 14.5966 58.5867 14.5512 58.5398C14.4817 58.4652 14.43 58.3975 14.3882 58.337C14.3054 58.2159 14.26 58.1233 14.2253 58.047C14.1509 57.8713 14.1547 57.8667 14.1322 57.8003C14.0658 57.5729 14.062 57.5332 14.0415 57.4376C13.9358 56.9074 13.9282 56.5073 13.9584 55.9475C13.998 55.1442 14.8974 57.665 15.1189 56.6267C15.5391 54.8055 13.8133 53.6064 14.7892 51.7851C14.9671 51.4608 16.5907 53.7072 16.5816 53.9309C16.5804 53.9285 16.5791 53.9262 16.5778 53.9239ZM14.6517 31.7739C14.6198 31.7929 14.5817 32.7191 14.6129 32.7452C15.3682 33.2537 15.4453 31.3863 14.6517 31.7739ZM16.0544 18.0449C16.0986 18.0206 16.1532 17.0807 16.169 16.4435C16.1777 16.0784 16.1752 15.8037 16.1539 15.779C15.6454 15.3169 15.3149 15.765 15.1957 16.43C15.028 17.3231 15.2831 18.5939 16.0544 18.0449ZM20.13 47.2429C19.4809 46.1611 19.5197 44.9546 20.5579 44.2586C20.4026 45.2457 20.2869 46.2512 20.13 47.2429Z" fill="var(--stroke-0, white)"/>
</svg>
