<svg preserveAspectRatio="none" width="100%" height="100%" overflow="visible" style="display: block;" viewBox="0 0 120.487 116.678" fill="none" xmlns="http://www.w3.org/2000/svg">
<path id="Vector 183" d="M51.3349 115.538C48.3892 113.654 44.7554 110.819 42.0432 108.572C41.1941 107.869 41.8918 107.836 41.3156 107.335C40.5307 106.655 39.6821 106.153 38.8662 105.577C38.5142 105.329 38.1966 105.088 37.8658 104.795C37.5183 104.483 38.3684 104.241 37.9958 103.928C35.93 102.209 33.7218 101.066 31.4996 99.7604C29.02 98.2747 26.2746 97.1121 23.0794 95.4522C19.1046 93.2588 16.0208 92.5757 11.3442 92.7011C11.0588 92.6943 10.8231 92.7259 10.4973 92.8549C10.3336 92.9214 10.1556 93.0109 9.91978 93.1601C9.79827 93.2372 9.67074 93.3239 9.46189 93.4713C9.35026 93.5491 9.23187 93.6366 8.97906 93.8025C8.84172 93.8894 8.69804 93.9897 8.33007 94.1768C8.15453 94.2625 7.88805 94.3933 7.44709 94.5239C7.21177 94.5926 6.85918 94.6767 6.43426 94.7096C6.00581 94.7466 5.27424 94.7295 4.53655 94.4842C3.58381 94.1154 1.67117 93.5196 0.470106 90.9011C-0.539271 88.2143 0.334886 86.5505 0.707622 85.6276C1.64195 83.7605 2.47898 82.9489 3.28506 82.026C4.87674 80.3044 6.40116 78.9301 7.70878 77.5893C8.30851 76.9784 8.92052 76.3357 9.27653 75.8987C10.8197 73.7913 12.7908 72.1106 14.6315 70.7295C17.6754 68.3691 21.2255 68.4791 23.5258 68.6776C24.2383 68.7465 23.9049 68.1044 24.0472 68.0758C26.2897 67.7186 25.3513 68.7705 26.5576 69.2239C29.034 70.2208 31.3503 71.2996 33.6448 72.286C35.6903 73.1711 37.7238 74.0012 39.6749 74.8332C41.4416 75.6058 40.2296 73.6735 41.6891 75.1721C41.7888 75.2757 41.0576 75.5949 41.4965 75.9054C42.4845 76.5821 44.5983 77.7693 45.3617 78.4406C46.2296 79.1714 46.5769 79.505 46.9282 79.7774C46.9116 79.7674 46.8677 79.7352 46.7646 79.6799C46.7002 79.6457 46.609 79.6008 46.4797 79.5531C46.4141 79.5291 46.3432 79.5057 46.2509 79.4811C46.1411 79.4521 46.0123 79.4253 45.8624 79.4079C45.3742 79.2781 43.9703 79.608 43.4275 80.2616C42.8549 80.8713 42.8203 81.2108 42.765 81.3539C42.7112 81.5853 42.7544 81.471 42.7627 81.3396C42.7768 81.1948 42.7852 80.9878 42.7871 80.7633C42.7905 80.3044 42.77 79.7623 42.7322 79.2079C42.6536 78.0806 42.5089 76.8935 42.2595 75.7613C42.1512 75.2795 41.619 76.0263 41.3883 75.2633C41.1563 74.5043 40.8868 72.3827 40.9414 71.6287C40.9936 70.8818 41.5358 71.1244 41.6333 70.9812C42.4492 69.8266 40.876 67.4086 40.8443 67.0142C40.8281 66.8968 40.8131 66.7799 40.7993 66.6635C40.0922 61.0297 40.8886 56.1474 41.1474 50.8514C41.2699 48.3714 41.3591 45.7796 41.5197 43.2665C41.6164 41.6984 41.7017 40.1052 41.833 38.5921C42.1523 34.9145 42.6528 31.6691 43.1376 28.1837C43.2578 27.3239 43.3674 26.4888 43.4709 25.6094C43.5265 25.1445 42.7056 25.596 42.7737 25.0182C43.5294 18.9396 44.4787 12.5619 47.2544 6.61183C47.5179 6.04098 47.8639 7.02415 48.1634 6.47215C48.6183 5.62909 49.1617 4.715 49.6712 3.74349C50.054 2.99694 50.4848 2.16697 50.802 1.4731C50.8301 1.40472 50.859 1.33747 50.8951 1.26075C50.9199 1.20722 50.9477 1.14998 50.9849 1.08181C51.0186 1.02599 51.0682 0.911542 51.2502 0.691621C51.2969 0.636853 51.3538 0.57506 51.4307 0.505109C51.5288 0.417861 51.7841 0.191199 52.2169 0.0681262C52.6308 -0.0819402 53.3846 0.0315522 53.7085 0.256127C54.0642 0.465131 54.2545 0.711925 54.371 0.891907C54.4863 1.07372 54.5423 1.22227 54.5752 1.31707C54.595 1.37555 54.6094 1.42648 54.621 1.47222C54.644 1.56353 54.6561 1.63469 54.6651 1.69651C54.6927 1.91218 54.6874 1.97738 54.689 2.07032C54.6845 2.37737 54.6654 2.5235 54.6495 2.72058C54.617 3.07571 54.5861 3.39556 54.565 3.70822C54.5212 4.34092 54.5146 4.9299 54.566 5.49316C54.6698 6.60704 55.0059 7.59774 55.7175 8.34498C55.3202 10.356 54.8481 12.7162 54.187 14.67C54.0334 15.1125 53.8743 15.5329 53.7051 15.9298C53.1473 17.2608 52.6039 15.8207 52.6979 17.5777C52.7215 17.9741 53.4063 17.5432 53.3963 18.127C53.3565 20.5781 52.9938 23.2474 53.2768 25.6871C53.336 26.1845 53.9052 26.0572 54.005 26.198C54.8098 27.3667 53.4695 29.3152 53.384 29.7542C52.735 32.9924 53.1748 35.3613 53.4558 38.3615C53.4599 38.4061 53.464 38.4506 53.468 38.4952C53.533 39.2308 54.2086 38.2874 54.298 38.9984C54.7441 42.7141 54.9013 46.3571 54.9651 49.8652C54.9744 50.6442 54.251 50.005 54.2232 50.385C54.1411 51.5916 54.7814 52.0418 55.1143 52.8027C55.2405 53.0824 55.3221 53.3938 55.3095 53.8118C55.3016 54.1269 54.7274 54.0368 54.6755 54.1022C53.8677 55.1603 55.3574 55.6926 55.4306 55.8945C56.1609 57.9277 55.9925 59.4657 56.3962 61.635C56.4774 62.2096 56.6508 62.8189 56.9622 63.4449C57.1151 63.7453 57.4709 62.7819 57.862 63.6339C58.6754 65.3706 59.636 67.1832 60.592 69.0638C60.9628 69.7924 61.3266 70.5143 61.6845 71.1867C61.8628 71.5215 62.0417 71.8463 62.2049 72.1202C62.2855 72.2558 62.3633 72.3788 62.4169 72.4592C62.4506 72.5281 62.5559 72.6021 62.2774 72.3781C62.2768 72.3897 62.2356 72.3457 61.9962 72.264C61.7761 72.181 61.1879 72.1001 60.6764 72.303C60.1624 72.5004 59.9538 72.7786 59.8921 72.8636C59.8197 72.9716 59.8476 72.9635 59.8765 72.9185C60.0315 72.6875 60.2659 71.9808 60.442 71.318C60.8093 69.9391 61.1272 68.4114 61.4895 66.9057C61.7353 65.879 62.1417 66.7029 62.216 66.6474C63.3839 65.7411 62.1596 64.8303 62.1699 64.4736C62.2836 61.6536 63.9959 59.462 63.1866 57.0268C63.2106 56.9703 63.2347 56.914 63.259 56.8577C66.1341 50.3107 69.0437 43.7998 73.0422 37.8368C75.5414 34.1427 79.0164 31.8445 82.1985 29.9039C82.6901 29.5991 83.1698 29.3157 83.7976 29.0255C83.9733 28.9461 84.0103 29.6908 84.3452 29.5434C84.4635 29.494 84.5841 29.4458 84.7371 29.3977C84.9043 29.3598 85.0277 29.27 85.5059 29.3184C85.7164 29.3605 85.9176 29.4076 86.1937 29.6041C86.4456 29.7733 86.6656 30.1561 86.7033 30.3953C86.7934 30.9315 86.6808 31.1381 86.6304 31.3511C86.5095 31.7314 86.3985 31.9696 86.3237 32.1878C86.164 32.6251 86.1187 32.9366 86.1146 33.2707C86.1066 33.9292 86.2759 34.6285 86.0553 35.8805C85.9327 36.557 83.6235 36.9593 83.4441 37.0002C82.7653 37.1758 82.3623 36.0914 82.1804 36.1874C80.7051 36.9999 83.4206 38.8798 82.1167 40.5019C82.0712 40.5499 81.7706 39.9545 81.613 40.0545C81.1281 40.3563 80.9807 40.9289 80.4889 41.2155C79.3645 41.8661 77.8168 41.2361 77.4394 43.2885C77.3979 43.5499 79.0975 44.383 77.9481 45.8056C77.7711 46.0252 77.3861 46.551 76.9495 47.1625C76.3996 47.8995 75.971 48.9015 75.7649 49.3187C75.4283 49.9906 75.0009 49.3365 74.9612 49.3735C73.6391 51.3168 73.5358 50.4767 72.1631 51.5055C70.8308 52.6274 73.6691 52.5996 73.9273 53.1172C74.1829 53.6272 73.3973 55.3689 73.144 55.8081C72.8876 56.2421 72.5403 55.6574 72.3862 56.0506C71.383 58.6456 73.7063 57.2918 74.0982 58.1923C74.6401 59.4309 74.1204 60.469 73.5202 61.4757C73.0906 62.2097 72.6307 62.8858 72.4924 63.67C72.4028 64.1814 72.9034 63.7945 72.9175 64.2517C72.9715 66.0295 72.257 67.0958 72.7548 69.1495C72.8348 69.4928 74.0143 71.1588 73.0671 72.1973C72.9307 72.3421 72.4244 71.9058 72.2873 72.6529C72.0791 73.7939 71.9391 75.8383 72.1294 77.0557C72.2697 77.9395 73.1065 76.9152 72.8624 78.0374C72.7561 78.5299 72.2328 77.6183 72.0774 78.572C71.9123 79.5205 72.0836 81.9048 72.2443 82.7822C72.3923 83.657 72.9617 83.0717 73.0143 83.1354C73.1715 83.3263 73.3989 83.8006 73.6116 84.1484C73.7176 84.3255 73.817 84.4628 73.8863 84.5399C73.9522 84.6122 74.0121 84.6785 74.0764 84.8198C74.0802 84.8281 74.0841 84.8368 74.0881 84.846C74.1005 84.8784 74.1252 84.8923 74.0277 84.7556C73.9861 84.7034 73.8799 84.5558 73.6243 84.3919C73.3909 84.2132 72.7248 84.0392 72.2952 84.1611C71.8243 84.2761 71.6667 84.4371 71.5529 84.5257C71.4383 84.6292 71.4275 84.6529 71.4038 84.6811C71.3727 84.7239 71.4011 84.6874 71.4274 84.6396C71.5531 84.4193 71.7385 83.9935 71.9058 83.5899C72.2415 82.7785 72.5877 81.8984 72.9427 81.0397C73.6527 79.3126 74.408 77.612 75.2021 75.9242C76.776 72.5782 78.4783 69.307 80.0867 65.9137C80.1895 65.6974 80.2906 65.4867 80.3949 65.2723C80.6733 64.7078 79.8746 64.7437 79.9109 64.6542C80.758 62.6107 81.4604 64.999 82.7372 64.0793C81.4576 63.5216 82.1097 62.8941 82.9001 61.5841C83.2889 60.9529 82.6229 60.942 82.6197 60.855C82.6796 59.452 84.0349 59.5424 84.3161 59.5542C85.3813 59.5656 85.2844 58.3582 86.0168 58.4097C86.7255 58.4828 86.4373 59.7713 87.4722 58.8553C87.4632 58.2152 85.7855 57.928 86.5224 57.0406C87.5085 55.8687 89.1362 54.7025 90.9278 53.7915C94.1843 52.094 98.0629 50.9135 100.166 50.3302C103.39 49.4375 104.522 49.2149 106.568 49.302C109.05 49.5491 109.348 49.4557 109.856 49.1039C110.022 49.1145 110.242 49.126 110.601 49.3106C110.951 49.4715 111.415 49.9883 111.547 50.4484C111.798 51.384 111.619 51.6655 111.596 51.9513C111.493 52.4691 111.387 52.7852 111.226 53.1774C110.256 55.3722 108.992 53.0116 108.391 52.989C107.809 52.925 108.034 53.4999 107.592 53.6246C107.148 53.7491 107.345 52.9118 106.746 53.5328C106.419 53.872 106.059 54.7454 105.828 55.5689C105.641 56.2466 105.548 56.8864 105.655 57.1425C106.146 58.3498 107.739 58.2251 106.006 59.7843C105.905 59.874 105.677 59.1521 105.315 59.5158C102.483 62.387 99.9015 65.6531 97.1091 68.5511C96.7248 68.9484 96.4798 68.1359 96.2508 68.3613C93.8515 70.7234 95.5062 70.4979 95.4079 72.7371C94.7203 71.8788 93.9007 71.6094 93.0049 72.0038C92.4494 72.2539 91.8703 72.7515 91.2878 73.5376C90.3758 74.7813 91.1443 75.0115 91.0254 76.1187C90.9939 76.4437 89.9696 77.0607 90.165 77.4205C90.8226 78.5734 92.3865 78.4212 90.7239 80.2715C90.6503 80.354 90.2624 79.744 90.0463 80.0566C88.8746 81.8028 89.4874 82.5946 89.1422 84.3713C89.0849 84.6817 88.9982 85.0284 88.8711 85.419C88.2127 87.4082 86.2782 90.7513 85.4911 93.042C83.6426 92.4302 83.4182 94.8358 84.5269 96.025C84.281 96.9262 84.0814 97.9714 84.031 98.6949C84.0233 98.8005 84.0291 98.8704 84.0162 98.83C84.0026 98.7995 84.0082 98.7565 83.8942 98.5574C83.8306 98.4595 83.7744 98.3708 83.5975 98.2248C83.4328 98.0912 83.202 97.9895 82.9983 97.9576C82.6331 97.8994 82.4053 98.0071 82.3647 98.0276C82.2947 98.0631 82.288 98.0797 82.2998 98.079C82.3234 98.0801 82.4103 98.0311 82.4942 97.9772C82.8315 97.7409 83.0367 98.3221 83.1157 98.3308C84.487 98.2854 83.9354 96.8616 84.1047 96.577C85.9993 93.3776 88.5958 91.4937 90.2605 88.1306C90.3195 88.0126 89.4486 86.9522 90.8477 86.8761C90.9393 86.8777 90.5767 88.1795 91.7763 86.944C92.8369 85.8598 95.098 84.374 96.7536 82.8068C96.9928 82.5781 97.2144 82.346 97.4132 82.1078C97.7846 81.6529 98.4389 79.8858 99.9266 80.0038C100.122 80.0232 100.171 80.4428 100.474 80.5144C101.44 80.7455 101.134 79.3549 102.435 79.9843C103.742 80.62 105.526 80.6827 107.414 79.2087C107.476 79.1642 107.659 77.9617 108.395 77.7706C109.546 77.4653 111.245 77.3341 112.463 77.1691C113.049 77.088 112.589 76.4725 112.69 76.4469C115.005 75.9353 117.048 76.0743 119.053 76.3833C119.313 76.4174 119.467 76.4459 119.758 76.5566C119.984 76.6476 120.337 76.8643 120.453 77.2532C120.604 78.0304 120.219 78.3477 119.972 78.7127C119.433 79.3652 118.787 79.9069 118.092 80.4876C117.508 80.9881 116.347 83.164 114.699 83.5255C112.895 83.9194 112.248 80.2895 109.725 83.1679C108.701 84.3228 109.588 88.842 106.078 88.727C104.955 89.7391 103.78 90.6205 102.625 91.5186C99.6717 93.8379 96.6127 95.9748 94.2383 99.117C94.0858 99.3162 94.379 100.674 93.9767 101.068C93.3776 101.65 92.6659 101.611 92.23 102.027C91.0332 103.159 90.1296 104.436 89.2207 105.693C88.7239 106.378 88.1764 107.028 87.5352 107.607C86.8295 108.227 86.6984 107.597 85.8459 108.27C84.9897 108.917 84.8083 109.971 83.3361 110.458C82.5302 110.72 81.4246 110.366 80.3259 110.389C80.1964 110.219 80.2652 110.066 80.0499 110.011C79.9905 111.529 78.9471 111.349 77.0916 111.228C76.7333 111.211 76.9593 111.81 76.7848 111.829C76.0663 111.914 75.5777 111.342 74.8874 111.475C74.7225 111.508 74.5973 112.003 74.4555 112.058C74.1454 112.183 73.8271 112.179 73.5078 112.099L73.5492 112.108C72.6051 111.897 71.7098 111.041 71.5118 110.852C70.5017 109.886 69.8338 110.437 69.0048 109.978C68.1721 109.519 69.5683 109.398 68.5635 109.027C66.485 108.26 63.7047 107.848 61.5197 107.458C60.6516 107.306 61.1322 108.077 61.0053 108.071C59.1727 107.939 57.4548 106.936 56.2532 108.13C55.5132 104.474 55.1107 108.292 52.6359 107.262C52.4425 107.18 52.3817 105.499 53.2035 105.357C54.0328 105.217 55.1574 105.896 56.304 105.683C56.5797 105.632 58.2935 104.321 58.5161 104.262C60.2222 103.786 60.0474 106.275 60.1082 106.422C60.813 108.027 62.8866 106.679 63.3808 106.648C65.6412 106.501 67.4162 107.177 69.2945 107.14C70.5201 107.119 70.9367 105.544 71.8596 105.769C73.0033 106.049 73.8037 106.563 74.5368 107.029C74.5539 107.033 74.6052 107.042 74.6222 107.047C75.8917 107.873 76.9591 108.601 79.0124 107.878C79.3498 107.75 79.4846 107.218 79.7246 106.946C79.841 106.809 79.9866 106.738 80.131 106.793C80.2424 106.854 80.4984 106.997 80.0235 107.346C79.9968 107.367 79.9125 107.437 79.7348 107.562C79.564 107.684 79.2692 107.89 79.0469 108.142C79.7544 108.085 80.5535 107.918 80.7571 107.247C80.8006 107.103 80.5333 106.66 80.6324 106.55C81.2815 105.83 81.9907 105.861 82.6186 105.14C83.2387 104.42 83.8176 103.501 84.6372 102.854C84.8244 102.706 85.1157 102.616 85.4336 102.544C86.0449 102.322 86.708 102.209 86.9842 102.113C88.2341 101.696 88.2164 100.046 89.304 100.08C90.3888 100.126 90.3908 101.97 92.0161 101.01C91.0822 100.04 90.1849 98.9798 89.2812 97.967C92.1664 94.9954 95.4201 92.5882 98.4806 89.9239C98.8606 89.5923 97.9984 89.3727 98.3983 89.0002C98.8169 88.6119 99.2515 88.2662 99.6958 87.9402C101.185 86.8489 102.545 86.1815 103.856 85.0266C105.202 83.8424 106.312 82.0907 107.648 80.8582C109.455 81.4349 111.288 79.4063 112.801 78.3393C113.325 77.9701 113.564 78.3045 113.989 78.1194C115.588 77.382 114.081 76.8858 114.252 76.4442C114.571 75.5338 115.151 75.6344 115.752 75.8873C115.896 75.9574 116.038 76.0375 116.145 76.1681C116.26 76.2998 116.31 76.4605 116.326 76.9496C116.335 77.2531 116.317 77.6049 116.515 78.2823C116.708 78.9514 117.257 79.6405 117.747 79.9357C118.009 80.1046 118.173 80.1594 118.321 80.2075C118.468 80.2528 118.586 80.2726 118.672 80.2813C118.806 80.2892 118.861 80.2753 118.853 80.2728C118.804 80.2696 118.755 80.2673 118.703 80.2659C118.511 80.2541 116.924 81.8238 116.758 81.9339C115.534 82.5981 116.556 81.357 115.77 81.2468C114.342 81.0702 113.252 80.7741 111.669 81.5592C111.195 81.7927 110.336 83.0355 109.219 82.5556C109.071 82.4927 108.976 81.9542 108.869 81.9541C106.907 82.039 107.458 83.6937 106.763 84.6089C106.086 85.5198 104.167 85.2112 103.694 85.0974C102.487 84.7764 104.102 84.4348 104.102 84.3467C104.129 83.174 103.109 83.9015 102.249 84.3256C101.264 82.9598 100.127 83.8042 101.36 84.7818C101.495 84.886 102.04 84.3599 102.249 84.3256C102.355 85.9915 101.562 86.8674 99.7745 86.85C99.5948 86.8402 99.4017 86.8225 99.1948 86.7971C98.183 86.7021 98.1745 85.5513 96.6137 87.3652C95.9215 88.2093 97.0223 88.748 96.5866 89.6249C95.6171 91.6091 92.9659 93.0805 91.6399 95.0363C91.1634 95.7388 92.1699 95.4797 91.8601 95.9761C91.0438 97.2911 89.8415 98.0979 89.0145 99.5457C88.9384 99.679 89.6922 99.788 89.3669 100.214C88.8435 100.894 88.3429 101.528 87.535 102.353C87.4282 102.46 87.3211 102.565 87.2024 102.676C87.0652 102.805 86.9198 102.935 86.7579 103.07C86.3637 103.357 86.1166 103.72 84.6672 104.3C83.9269 104.548 82.1339 105.099 79.9748 103.841C78.9616 103.205 78.4987 102.553 78.162 102.012C77.8344 101.474 77.6456 100.909 77.582 100.68C77.2617 99.4262 77.3495 99.0541 77.348 98.5409C77.7133 95.059 78.4877 93.5236 79.1487 91.1031C79.7086 89.1848 80.4803 85.7405 81.2778 83.8363C81.5742 83.117 81.9301 82.3752 82.3252 81.623C83.6382 78.9418 85.9504 75.9226 87.1442 73.8859C88.1715 72.1186 87.383 72.1231 87.5314 71.1435C87.6619 70.299 88.3525 69.5451 89.1098 68.9785C89.998 68.3345 90.9928 67.9243 91.2255 67.8419C91.2361 67.8411 90.3628 69.2176 91.1617 68.7416C92.0295 68.7745 91.2156 67.8595 91.2255 67.8419C91.4999 67.743 93.6128 65.2716 93.9089 64.686C94.0694 64.3677 93.4562 64.1383 93.5495 63.9792C95.7748 60.2091 98.3257 56.676 101.238 53.3881C101.294 53.3354 101.776 53.855 101.905 53.722C102.136 53.4884 102.345 53.2513 102.527 53.0235C103.158 52.2311 103.544 51.4484 103.847 50.6624C103.997 50.2719 104.126 49.8803 104.232 49.5115C104.329 49.1597 104.456 48.7365 104.365 48.6677C104.321 48.6855 104.258 48.6458 104.003 49.2421C103.932 49.6215 103.488 49.9253 103.773 52.1524C103.911 53.2505 104.938 55.0555 106.099 55.8107C107.259 56.618 107.973 56.721 108.446 56.8326C108.045 56.7896 107.922 56.7846 107.79 56.7754C107.666 56.7671 107.584 56.76 107.499 56.745C107.337 56.7165 107.194 56.6618 107.034 56.5729C106.713 56.3953 106.353 56.0863 105.943 55.6127C104.921 55.8405 102.991 55.7849 101.794 55.8592C100.594 55.928 100.918 57.2779 100.837 57.3339C98.646 58.9688 96.9124 59.3488 94.5133 60.3778C94.099 60.5543 93.6779 60.7528 93.2525 60.9895C91.9198 61.6783 89.9864 63.4998 89.1947 64.7156C88.5457 65.654 87.8709 66.045 87.4311 67.104C87.3735 67.246 87.9668 67.4411 87.962 67.4923C87.9414 68.9091 86.9783 67.6567 86.615 67.7467C85.9544 67.9291 85.4351 68.1108 85.0287 68.4764C84.5973 68.8912 84.2895 69.4568 84.0622 70.428C83.9588 70.868 85.3199 72.9506 85.1036 73.7167C84.82 74.7091 84.2801 74.05 84.0089 75.1062C83.9855 75.1969 84.4202 75.3757 84.1364 75.9711C82.8089 78.7653 81.3788 81.7678 80.2677 85.0176C80.1056 85.4763 81.0222 85.1465 80.799 85.8122C80.5764 86.4592 80.3703 87.0875 79.9476 88.0643C79.8304 88.328 79.7107 88.5914 79.5045 88.9779C79.4125 89.1493 79.275 89.3947 79.0968 89.6712C78.9348 89.9202 78.6672 90.3221 78.2229 90.8107C78.0323 91.02 77.6569 91.4064 77.1604 91.7799C76.9098 91.969 76.6205 92.1638 76.2821 92.3524C75.9131 92.5599 75.3704 92.8108 74.793 92.9815C73.6417 93.3428 72.078 93.416 70.7287 93.0295C70.0734 92.8546 69.4141 92.5514 69.006 92.3132C68.5963 92.0784 68.2486 91.828 67.9531 91.5836C65.8786 89.6277 66.0672 89.1456 65.6985 88.5295C64.0921 84.5773 64.4402 82.4739 64.4355 80.3177C64.483 79.4813 65.0318 79.9789 65.1785 79.7912C66.0658 78.6529 64.6807 77.15 64.654 76.9051C63.9902 70.9273 65.4724 66.6699 65.3334 60.8645C65.3322 60.8157 65.3308 60.767 65.3292 60.7183C65.3204 60.4198 64.0094 58.0209 65.3242 57.0201C65.4125 56.9514 66.7558 55.9781 65.9426 54.9424C65.8922 54.8767 65.1841 55.5313 65.3339 54.319C65.4898 53.119 65.1956 50.9481 66.3395 48.9468C66.7216 48.2936 68.2073 47.1354 68.2288 44.6492C68.217 44.5609 68.0244 42.759 68.6741 41.358C68.8628 40.7985 69.2207 40.3951 69.8903 40.4731C70.1896 40.5111 71.4591 41.6167 71.8743 39.6001C71.9549 39.2117 71.2623 39.5085 71.6414 38.6104C72.2216 37.2331 73.755 35.999 74.2575 34.1728C74.3465 33.8479 74.2691 32.1194 75.5864 31.88C75.7925 31.8425 76.0404 32.4303 76.4252 32.0577C77.3174 31.1953 78.1024 30.2154 78.7712 29.336C79.0948 28.9115 79.4072 28.4742 79.5302 28.3136C79.5584 28.2789 79.5719 28.2652 79.5515 28.3201C79.5323 28.3781 79.4727 28.4931 79.3554 28.8557C79.3049 29.3329 78.7496 29.7432 79.3269 32.4051C79.6112 33.6511 80.9013 35.3653 81.9957 35.9725C83.2255 36.7105 83.8267 36.7546 84.4053 36.8531C86.1329 37.0319 86.5579 36.7539 86.9568 36.6726C87.6126 36.4569 87.6596 36.3643 87.7574 36.2828C87.8302 36.2042 87.8358 36.1457 87.8302 36.087C87.8134 35.9721 87.7407 35.8584 87.6667 35.7423C87.5093 35.5173 87.348 35.2704 87.0358 35.341C86.9043 35.372 86.7362 35.433 86.5516 35.52C85.6197 36.0286 84.5332 36.7622 84.1789 37.4706C83.7447 38.3584 85.3872 38.8855 84.4909 39.7817C83.1624 41.1322 82.1014 42.2689 81.3966 43.2427C79.2356 46.3379 77.0435 49.5897 75.2895 53.1156C74.8895 53.9286 75.6752 53.4628 75.134 54.6698C74.4212 56.2737 73.6208 58.3368 72.8291 60.5117C71.8066 63.2992 71.1754 67.7445 70.0136 70.6217C68.4905 74.384 68.6661 69.3375 67.7907 72.2726C67.5645 73.006 67.7685 73.8892 67.8978 74.8669C68.0449 75.8215 67.9953 77.0094 67.6893 77.5598C67.4126 78.0794 67.0112 78.7692 66.1515 79.5729C65.363 80.3366 63.7999 81.2481 62.1499 81.4148C58.7059 81.645 57.4448 80.3587 56.5796 79.819C55.3696 78.837 55.2161 78.4741 54.891 78.0777C54.6193 77.7073 54.4379 77.4178 54.2753 77.1463C53.9568 76.6093 53.7335 76.1598 53.5238 75.724C53.1115 74.8604 52.7771 74.0746 52.3758 73.3034C52.2088 72.9818 52.0256 72.6555 51.82 72.3224C51.5036 71.8092 51.164 72.6472 50.9002 72.2036C49.9916 70.6815 49.3997 68.8083 48.6 67.0327C48.2416 66.2256 47.8154 66.572 47.5491 65.7435C47.4244 65.3503 47.3106 64.9493 47.2094 64.5334C47.0602 63.6632 46.7663 62.2614 46.7212 60.6835C46.7179 60.5101 47.6593 61.4291 47.2911 60.0589C46.7985 58.1903 46.7213 55.9255 46.3016 53.893C46.218 53.5033 46.1158 53.1289 45.9864 52.7571C45.7587 52.1039 44.5667 52.22 45.2259 50.6752C45.3652 50.351 46.828 50.5917 45.423 49.031C45.1854 48.7788 43.2554 46.0484 44.2274 44.5946C44.481 44.2096 45.5801 43.2049 45.3346 42.4446C45.2969 42.3423 44.6911 42.8123 44.5775 42.1779C44.4086 41.21 44.2863 40.2393 44.1605 39.2584C43.9879 37.9085 43.8351 36.4562 43.6283 35.0532C43.5299 34.3856 42.9313 35.4285 42.8077 34.4316C42.4651 31.682 42.5534 28.2019 42.8199 25.4801C42.919 24.4801 43.4539 25.1857 43.5152 25.1138C44.5151 23.9737 43.234 23.2443 43.1748 22.8444C42.8314 20.3865 43.5989 18.5677 43.701 16.2969C43.7334 15.6696 43.0582 16.0343 43.0179 15.9034C42.6423 14.5332 43.6329 15.6437 43.8651 14.845C44.0355 14.2694 44.1884 13.6763 44.3312 13.0687C44.7167 11.4812 44.9397 9.81719 45.1211 8.26491C45.2084 7.50524 44.3583 8.24775 44.4459 7.55869C44.5862 6.41528 44.7415 5.25311 44.897 4.13525C44.974 3.57972 45.0536 3.01661 45.1201 2.52801C45.1529 2.28834 45.1832 2.04777 45.1978 1.94743C45.2013 1.92584 45.2034 1.91511 45.2039 1.94642C45.2056 1.98202 45.1999 2.02718 45.2096 2.31876C45.2131 2.40747 45.2188 2.51813 45.2323 2.66858C45.2446 2.78434 45.2647 3.0809 45.3758 3.59046C45.4044 3.71955 45.4401 3.86484 45.4883 4.03262C45.5124 4.11653 45.5398 4.20609 45.5714 4.30234C45.5898 4.35753 45.5958 4.37667 45.6299 4.47307C45.6653 4.5725 45.7053 4.67859 45.7518 4.79239C46.1586 5.59986 46.7316 7.48274 49.8883 8.92319C51.7647 9.74082 54.1399 9.54319 55.4807 8.96783C56.1795 8.69445 56.7022 8.37805 57.1095 8.09008C57.3132 7.94534 57.4887 7.80584 57.6432 7.6738C57.7327 7.59689 57.7621 7.56984 57.7973 7.5383C57.832 7.50686 57.8657 7.47589 57.8982 7.44538C58.4144 6.95622 58.6829 6.59373 58.8867 6.30987C59.3065 5.69349 59.3229 5.6015 59.4238 5.41772C59.5034 5.25991 59.5608 5.13012 59.5914 5.05824C59.6476 4.92553 59.6776 4.8429 59.6977 4.78567C59.281 5.80391 59.0614 6.24672 58.7496 6.97705C58.3418 7.94648 57.9205 8.85111 57.519 9.6686C57.1967 10.3219 56.8293 9.7015 56.6573 9.79909C55.4511 10.4769 56.173 12.1851 56.2004 12.5088C56.2998 14.0175 55.6901 14.4251 55.4817 15.7248C54.8693 19.7095 54.1554 24.6755 53.4597 29.4531C53.0566 32.2201 52.7208 34.9899 52.4421 37.5092C52.1896 39.7937 51.9524 41.9633 51.6666 44.1804C50.9065 49.9095 50.4004 55.1293 50.5295 61.1805C50.5411 61.7012 51.2813 61.172 51.3012 61.618C51.363 63.1795 51.4114 64.7284 51.4663 66.2793C51.5956 69.6491 52.3864 73.7536 53.1434 78.7557C53.2207 79.3665 53.8355 78.3746 53.9816 79.4211C54.0658 80.2139 54.2045 80.9541 54.0408 82.7415C54.0175 82.9551 53.9741 83.2725 53.9149 83.5793C53.8844 83.7383 53.8509 83.8961 53.8057 84.0816C53.7545 84.2908 53.6931 84.5136 53.6159 84.7531C53.2734 85.5602 52.984 87.3054 50.2021 89.3345C48.9049 90.2597 46.8481 90.7925 45.5493 90.7472C44.2153 90.7514 43.1032 90.4131 42.5285 90.1934C41.1252 89.6314 40.6794 89.2421 40.1225 88.8373C39.4231 88.2628 39.075 87.8974 38.8165 87.61C38.432 87.1808 39.403 87.1567 39.0051 86.7363C38.1449 85.8075 36.7259 84.9514 35.1395 84.3024C34.4622 84.0286 35.1274 85.1517 34.2827 84.7538C32.7364 84.0378 31.1002 83.3601 29.4165 82.6809C27.1306 81.76 24.8887 80.9007 23.1219 80.3754C22.2536 80.1108 21.5151 79.9635 21.2353 79.8798C21.0948 79.8337 21.0878 79.7925 21.1857 79.6903C21.2795 79.5927 21.4623 79.4127 21.537 79.24C21.4917 79.2666 21.4467 79.2931 21.4019 79.3195C21.0547 79.5243 19.8075 78.6458 19.3813 79.427C19.6154 79.7655 19.9477 80.11 20.2289 80.4427C19.5803 81.0986 19.0812 81.7039 18.6971 82.2862C16.3055 85.6169 14.4459 87.0603 12.8184 88.7786C12.0487 89.5477 11.2997 90.4071 11.178 90.58C11.1542 90.6018 11.1882 90.5605 11.2942 90.284C11.3846 89.9917 11.6505 89.4263 11.5625 88.1182C11.5246 86.7923 10.4884 84.9761 9.6415 84.3513C8.78112 83.6456 8.35126 83.5645 8.11969 83.4795C7.10405 83.1429 6.10756 83.1213 5.53125 83.1714C4.96006 83.2162 4.4995 83.3274 4.19725 83.4161C3.63436 83.5844 3.32642 83.7407 3.13811 83.8333C2.74557 84.0364 2.66051 84.1074 2.58583 84.1551C2.46514 84.2398 2.52974 84.2005 2.60484 84.1476C2.76972 84.0328 3.05207 83.8299 3.35269 83.6296C3.9624 83.2212 4.69335 82.7883 5.48648 82.42C7.0738 81.6722 8.95143 81.1931 10.7805 81.1305C13.3562 81.0547 16.161 81.0941 19.1415 81.6185C19.7177 81.7242 18.8462 80.7747 19.9805 80.988C23.2214 81.616 26.1936 82.7948 28.6067 84.008C30.5084 84.9814 32.9013 86.0525 35.3844 87.6768C35.859 87.9915 35.0087 89.0828 36.5614 89.6363C36.8397 89.724 39.0931 90.7321 39.7837 90.8011C39.8814 90.8062 39.8078 90.0261 40.509 90.4108C42.6143 91.5788 44.6362 92.901 46.5574 94.3106C48.2496 95.5563 49.8998 96.8529 51.4711 98.1751C52.0021 98.6233 51.0101 98.7598 51.3834 99.0829C54.0254 101.365 57.4108 103.136 59.7458 105.604C61.3036 107.259 59.944 107.72 60.2053 109.35C60.2409 109.578 61.3319 110.427 60.9809 111.006C60.1058 112.464 58.4696 113.549 57.6009 115.151C57.4134 115.494 59.0796 116.236 57.6775 116.348C57.5839 116.354 56.3641 115.825 55.9179 115.891C55.608 115.934 55.5215 116.722 54.9882 116.676C54.4614 116.635 54.4014 115.877 53.5987 115.698C52.7921 115.523 52.6018 116.345 51.3349 115.538ZM96.2323 56.611C94.9055 56.5331 95.8315 58.7464 96.6741 57.6937C96.7127 57.6411 96.2986 56.6146 96.2323 56.611ZM96.6428 93.9995C98.542 93.7101 98.3642 91.8207 96.9614 91.9609C95.5518 92.1145 96.0581 94.0976 96.6428 93.9995ZM85.7465 106.403C87.5957 105.786 85.2504 103.313 84.5803 104.929C84.5397 105.019 85.6419 106.433 85.7465 106.403ZM55.5977 106.396C55.5915 106.43 56.3732 107.032 56.4107 107.02C57.2818 106.711 55.7177 105.508 55.5977 106.396ZM72.2564 109.216C72.7385 109.775 74.4773 109.573 73.8784 108.875C73.3966 108.313 71.6555 108.52 72.2564 109.216ZM71.3236 63.6428C71.3606 63.6217 71.4409 62.9225 71.2388 62.9259C70.5883 62.9179 70.7033 63.9257 71.3236 63.6428ZM44.7536 105.237C48.785 105.754 51.0782 108.721 46.6232 108.039C45.8187 107.912 48.4448 107.299 47.4362 106.959C45.6038 106.339 44.1734 107.97 42.3508 106.812C42.0288 106.604 44.5294 105.206 44.7612 105.234C44.7586 105.235 44.7561 105.236 44.7536 105.237ZM94.3594 54.3283C94.3176 54.3118 93.4433 54.7207 93.4356 54.7618C93.3193 55.6725 95.0727 54.8517 94.3594 54.3283ZM81.8885 31.2046C81.8072 31.1773 79.9643 32.5347 79.9465 32.6397C79.7997 34.333 83.4728 31.618 81.8885 31.2046ZM85.4307 93.0641C85.8679 94.2822 85.6475 95.4491 84.5289 96.0207C84.8116 95.0449 85.0929 94.0486 85.4307 93.0641Z" fill="var(--stroke-0, #78A02D)"/>
</svg>
