<svg preserveAspectRatio="none" width="100%" height="100%" overflow="visible" style="display: block;" viewBox="0 0 148.697 131.56" fill="none" xmlns="http://www.w3.org/2000/svg">
<path id="Vector 190" d="M0.497175 95.7676C1.61856 94.52 3.39671 93.2656 4.82617 92.4104C5.27376 92.1414 5.3599 92.6313 5.68138 92.4597C6.30994 92.1231 6.6533 91.5389 7.29276 91.2296C7.50634 91.1283 7.74454 91.817 7.95853 91.699C9.1272 91.0491 9.9238 90.0946 10.9872 89.3081C12.3559 88.2958 13.6856 87.2539 14.9846 86.1827C18.6553 83.1565 22.0638 79.9025 25.3761 76.4212C26.8533 74.8723 28.9874 73.2402 30.1411 71.3213C30.2751 71.0975 29.7148 70.8575 29.7066 70.7888C29.6391 70.1778 29.8693 70.2262 30.1608 70.3193C30.3754 70.3883 30.6229 70.4819 30.8062 70.3529C32.5188 69.1444 33.8886 67.3543 34.8098 65.6347C35.1998 64.9016 33.7669 64.9124 34.7781 64.6065C34.8474 64.5842 35.2438 65.1122 35.4273 64.9637C35.8432 64.6265 36.2987 63.7566 36.5612 63.4533C37.0707 62.8704 37.1358 62.7606 37.5415 62.1575C38.0996 61.3363 39.0024 60.5085 39.4506 59.5281C39.5444 59.3182 38.841 59.2318 38.9407 58.8671C39.0412 58.5026 39.5904 57.7183 39.8878 57.5209C40.1855 57.3241 40.5443 57.7042 40.6729 57.7155C41.7546 57.8187 41.1721 56.1623 41.2139 56.0252C41.8892 53.9948 43.1529 52.5957 44.2248 50.9982C44.4874 50.6066 44.7369 50.2049 44.9613 49.7819C45.8295 48.143 46.4947 46.2608 47.2866 44.6907C48.2315 42.8219 49.284 41.3418 50.0324 39.4423C50.1119 39.2416 49.319 39.1774 49.4139 38.9332C50.1397 37.0643 50.8989 35.2272 51.7899 33.4316C52.1398 32.7224 52.5043 32.0362 52.8923 31.3625C53.0335 31.1171 53.5382 31.6793 53.7185 31.4417C54.805 30.0188 56.8898 27.7747 54.3895 26.0071C54.8155 24.9514 55.2711 23.6785 56.0616 22.8332C56.5717 22.2776 57.1378 23.0571 57.0094 22.204C56.9803 22.0118 56.3135 22.1089 56.3149 21.8356C56.3184 20.6993 56.7258 19.5253 56.5289 18.4124C56.4877 18.1831 55.9175 18.1791 55.8233 18.1064C55.0619 17.517 56.4911 16.7904 56.6031 16.5917C57.1835 15.6117 57.2329 14.7323 57.2729 13.7317C57.2901 13.2971 57.3005 12.8535 57.347 12.3815C57.3823 12.0309 56.5877 12.3806 56.595 12.038C56.6437 10.2613 56.9269 8.45259 57.4758 6.82679C57.5996 6.46543 58.1987 6.88896 58.2908 6.72068C58.6889 5.97935 57.4977 5.65052 57.8548 4.94398C57.9285 4.79497 58.4676 4.95306 58.5317 4.9323C59.5375 4.60697 58.241 4.05147 58.2252 3.93502C58.1641 3.53485 58.2277 3.19044 58.3525 2.87161C58.432 2.5609 58.4614 2.31986 58.8008 1.65513C58.9639 1.37882 59.3144 0.723089 60.2296 0.278583C60.6903 0.0524552 61.2781 -0.0285931 61.6698 0.00872016C62.057 0.0386112 62.3685 0.138717 62.6101 0.245836C63.0455 0.451212 63.203 0.61036 63.3833 0.775868C63.5093 0.906439 63.602 1.02651 63.6826 1.14183C63.8193 1.34924 63.91 1.5356 63.9711 1.68612C64.2242 2.30895 64.3551 2.78373 64.7196 3.21681C64.8376 3.35637 65.2109 2.63116 65.5106 3.05477C67.4066 5.78038 68.8112 8.60432 70.2078 11.2004C70.4261 11.6015 69.8171 11.6916 69.784 11.7539C69.3087 12.7726 70.5507 12.1195 70.6778 12.1844C70.8653 12.2933 71.0152 12.429 71.1444 12.573C71.6289 13.1308 72.0032 14.0477 73.1789 13.2106C74.7907 14.539 77.2752 15.1783 79.7768 15.9082C81.8727 16.5033 84.4929 16.8135 87.052 17.6593C87.1173 17.6788 86.971 18.3436 87.102 18.3797C88.6883 18.815 88.4226 17.7599 89.4961 16.5113C89.7679 16.1975 90.5454 17.7483 90.6195 17.8617C90.8745 18.2807 90.5908 19.2742 90.6772 19.3558C91.4019 19.9964 91.3163 16.6982 92.2921 16.7038C92.3226 16.7095 92.1912 17.3157 92.2725 17.3765C92.5253 17.5675 92.7806 17.3274 93.0313 17.5371C93.5997 18.022 93.8065 19.625 94.6872 18.6912C94.7988 18.5699 94.6228 16.7001 95.5021 16.7858C95.8489 16.8219 97.4043 16.7816 97.8382 16.8997C98.2747 17.018 97.9795 17.6227 98.0107 17.6486C99.1879 18.438 98.7477 18.7712 99.3427 19.9473C99.9384 21.1189 99.7565 18.316 99.9947 18.0014C100.231 17.6876 101.099 18.3396 101.311 18.567C101.524 18.7945 101.262 19.1791 101.451 19.3074C102.703 20.1459 101.991 17.9125 102.4 17.4652C102.533 17.3199 102.662 17.2336 102.788 17.1935C103.563 16.9415 104.232 18.504 105.001 18.662C105.24 18.7113 105.036 18.2425 105.245 18.193C106.087 18.0051 106.57 18.6223 107.605 18.0231C107.738 17.9702 108.364 17.0373 109.443 17.5551C109.748 17.7068 110.024 17.9777 110.15 18.3176C110.192 18.4395 110.008 18.4972 109.914 18.6279C109.811 18.7593 109.821 18.9332 110.008 19.2843C110.537 20.4662 110.085 21.4454 110.197 22.0992C110.245 22.5682 111.18 22.2031 110.81 22.7326C110.643 22.9592 110.247 22.4017 109.975 22.8293C109.706 23.2477 109.46 24.366 109.374 24.792C109.289 25.2214 109.975 25.1392 110.009 25.1846C110.202 25.4461 110.313 26.3265 110.298 26.3907C109.818 28.644 109.008 30.6653 108.549 32.8141C108.314 33.9369 108.237 35.2845 108.35 36.5812C108.374 36.8675 109.059 36.6848 109.07 36.7285C109.346 37.6846 107.537 36.9229 106.924 37.5854C108.311 37.4979 108.057 37.8919 108.207 38.5781C108.28 38.9019 108.818 38.7271 108.872 38.7566C109.687 39.2486 108.634 39.5774 108.419 39.6688C107.627 39.9975 108.564 40.3374 108.035 40.5656C107.51 40.7841 106.729 40.2848 106.741 40.9355C107.238 41.1176 108.533 40.6253 108.745 41.123C109.545 42.9911 108.568 46.4953 108.484 48.0066C108.4 49.5111 108.5 50.005 108.335 50.8787C108.037 52.4699 108.989 51.8762 109.447 52.8489C109.904 53.8281 107.529 53.3924 107.023 53.5435C106.517 53.6955 107.043 53.8336 106.767 54.0119C106.491 54.1893 106.138 53.8224 106.04 54.23C106.006 54.372 106.096 54.5977 106.25 54.8395C106.539 55.2995 107.063 55.7892 107.414 55.8676C108.554 56.1217 109.709 55.5866 109.349 56.6309C109.328 56.6918 108.695 56.5349 108.646 56.7676C108.276 58.6239 108.493 60.5268 108.442 62.4292C108.435 62.6921 107.711 62.6033 107.699 62.7596C107.591 64.3968 108.62 63.6036 110.071 64.1228C108.349 64.3351 107.424 65.0456 107.718 66.2202C107.895 66.922 108.593 66.6092 109.225 66.9159C109.416 67.0084 109.05 67.6326 109.417 67.6263C110.614 67.6073 111.736 66.8053 111.566 68.1136C111.557 68.1717 110.9 68.1794 110.913 68.368C110.918 68.4356 110.926 68.4991 110.937 68.5589C111.128 69.5651 112.227 69.448 112.706 70.5637C113.103 71.4869 112.933 73.4138 113.178 74.5447C111.325 75.1226 112.091 76.0293 113.5 76.02C113.685 76.7451 114.018 77.4826 114.081 78.2246C114.104 78.4797 113.52 78.5114 113.473 78.561C112.734 79.3324 114.071 79.2071 114.173 79.341C115.225 80.8144 114.8 82.5013 116.306 83.6983C116.348 83.7309 117.127 83.4966 117.131 83.7416C117.132 83.8147 117.066 83.9294 116.896 84.1051C116.844 84.1574 116.071 83.8765 116.317 84.6173C116.56 85.3553 116.467 87.0041 117.487 87.7312C117.734 87.9113 118.995 88.0333 118.453 88.8731C118.379 88.9868 117.997 89.0858 117.848 89.2715C117.378 89.8718 118.678 89.4274 117.818 90.2939C116.958 91.1591 116.577 92.3218 117.819 92.9242C117.857 92.9451 118.929 92.6543 119.083 92.9645C119.328 93.4613 119.527 94.2568 119.828 94.7536C119.971 94.9896 120.459 94.4966 120.494 94.5317C121.209 95.3261 121.578 96.1179 121.919 96.9974C122.182 97.6765 122.426 98.4027 122.797 99.2008C122.951 99.5374 124.287 99.9311 124.063 100.917C123.823 102.002 120.62 103.117 122.267 104.207C122.933 104.652 126.916 103.108 125.838 105.388C127.686 107.182 128.1 109.737 130.195 111.362C130.289 111.435 131.446 111.051 131.588 111.276C131.797 111.612 131.482 112.107 131.619 112.357C132.046 113.16 132.737 113.699 133.319 114.328L133.312 114.319C133.506 114.515 133.687 114.72 133.844 114.943C134.093 115.295 133.56 115.531 133.863 115.957C134.162 116.378 134.959 116.183 135.12 116.95C135.243 117.535 134.395 118.896 134.712 119.563C135.887 118.636 136.169 119.031 137.018 119.441C137.181 119.518 137.472 119.052 137.569 119.072C137.978 119.146 137.835 119.651 138.249 119.693C138.35 119.704 138.744 119.38 138.849 119.371C139.757 119.289 139.406 120.661 139.346 120.901C139.113 121.807 139.794 121.585 139.835 122.098C139.882 122.618 139.184 122.37 139.367 122.868C139.742 123.896 140.664 124.849 141.329 125.65C141.602 125.973 141.927 125.308 141.978 125.344C142.671 125.878 142.705 127.011 144.036 126.461C141.823 129.252 144.629 126.62 144.936 127.993C144.958 128.1 143.829 129.326 143.389 129.208C142.957 129.099 142.952 128.321 142.323 128.188C142.176 128.159 140.539 128.658 140.405 128.649C139.344 128.56 141.143 126.845 141.218 126.724C142.033 125.424 140.202 125.87 139.966 125.773C138.888 125.334 138.577 124.428 137.733 124.015C137.178 123.736 135.903 124.745 135.648 124.363C134.818 123.114 136.241 121.276 133.836 121.448C133.321 121.482 132.133 122.835 132.535 121.121C132.557 121.008 133.05 119.592 132.128 119.739C132.012 119.758 131.611 120.084 131.53 120.054C130.995 119.841 131.09 119.303 130.593 119.002C130.088 118.691 129.442 118.358 129.177 117.746C129.165 117.718 129.156 117.687 129.15 117.652C129.13 117.624 129.062 117.543 129.043 117.513C128.987 117.089 129.401 116.234 129.476 115.967C129.713 115.143 128.483 115.348 128.959 114.602C129.439 113.853 130.827 113.626 130.766 112.628C129.657 113.39 128.494 114.138 127.367 114.887C126.303 113.328 125.6 111.567 124.488 110.052C124.349 109.865 123.887 110.47 123.723 110.279C123.031 109.471 122.941 108.419 122.162 107.624C121.558 107.011 120.405 106.658 119.756 106.018C120.746 104.722 119.592 103.906 119.195 103.024C119.056 102.717 119.413 102.512 119.399 102.24C119.336 101.217 118.413 102.3 118.1 102.207C116.761 101.796 119.316 100.079 118.6 99.0676C118.598 99.0646 118.59 99.0624 118.578 99.0608C118.365 99.0315 116.732 99.1797 116.594 99.1378C115.652 98.8719 117.02 98.7389 116.892 98.2952C116.66 97.4814 116.707 96.7969 115.805 96.1996C115.542 96.03 114.31 95.9355 114.729 95.0598C114.784 94.9457 115.278 94.7179 115.277 94.6515C115.231 93.4682 113.722 94.2536 112.918 93.9659C112.111 93.6747 112.725 92.2695 112.947 91.9496C113.512 91.1078 113.455 92.1334 113.545 92.1195C114.605 91.9479 114.139 91.413 113.99 90.9036C115.462 90.1099 115.068 89.5113 113.833 90.3788C113.698 90.4754 114.013 90.7762 113.99 90.9036C112.315 91.2046 111.759 90.5168 112.801 89.0836C113.293 88.4148 114.209 88.4362 113.444 87.4231C113.1 86.9608 112.121 87.6037 111.64 87.261C111.27 86.9937 111.077 86.618 110.96 86.1923C110.733 85.3606 110.815 84.3607 110.44 83.6813C110.235 83.3101 109.789 83.9142 109.629 83.6666C109.2 83.0076 109.413 82.213 108.927 81.5743C108.882 81.5164 108.319 81.8993 108.23 81.6765C107.549 79.9942 107.439 78.3687 106.864 76.5742C106.586 75.709 105.746 74.2607 105.54 73.3308C105.324 72.3766 105.36 71.208 105.309 70.147C105.277 69.4309 105.197 68.7588 104.955 68.2309C104.571 67.3819 103.987 67.7458 103.45 67.4704C102.406 66.9358 103.59 65.1807 103.788 64.9496C103.794 64.9441 104.133 65.7066 104.362 65.204C104.992 64.7988 103.793 64.9587 103.788 64.9496C103.907 64.7965 103.71 63.1444 103.531 62.8362C103.43 62.6709 102.835 62.8843 102.793 62.7947C101.827 60.6542 101.413 58.2716 101.622 55.9567C101.633 55.916 102.334 55.9504 102.352 55.8558C102.42 55.5095 102.414 55.204 102.358 54.9127C102.201 54.1524 101.624 53.5542 101.236 52.8281C100.711 51.8426 100.868 51.0488 102.058 50.4492C101.895 49.694 102.41 48.6224 102.723 47.9941C103.036 47.3727 101.675 47.3063 101.647 47.2506C100.765 45.5588 101.532 44.5667 101.639 42.7993C101.692 41.9612 101.487 40.2836 101.339 39.3676C101.22 38.6391 101.54 38.2074 101.341 37.5289C101.314 37.4379 100.708 37.5254 100.685 37.4976C99.9658 36.7376 101.444 37.1103 101.71 36.958C102.677 36.4026 103.192 36.0723 102.761 35.0832C102.662 34.8566 100.549 34.1245 100.445 33.6559C100.316 33.0454 101.063 33.3362 100.925 32.6303C100.916 32.553 100.436 32.5807 100.509 32.0359C100.513 32.0026 100.518 31.9691 100.523 31.9353C100.806 30.199 101.371 28.3925 101.679 26.6795C101.724 26.44 100.928 26.5939 100.981 26.245C101.229 24.6194 101.696 22.9006 102.32 21.7539C102.473 21.4821 102.942 21.7798 103.108 21.7507C104.122 21.5361 102.859 20.8373 102.832 20.8252C102.763 20.6405 102.642 20.5239 102.678 21.2683C102.719 21.6383 102.793 22.3761 103.436 23.4479C104.051 24.5341 105.452 25.5596 106.386 25.837C106.948 26.026 107.365 26.0493 107.502 26.04C107.649 26.0295 107.611 25.9972 107.522 25.9725C107.332 25.9207 106.95 25.8798 106.569 25.8565C105.784 25.8108 104.909 25.8311 103.975 26.0378C103.88 26.0616 103.343 26.6927 102.831 26.7879C102.572 26.8396 102.319 26.7354 102.141 26.2948C102.107 26.2113 101.603 24.9284 101.171 25.8102C101.144 25.8654 101.457 26.5253 100.917 26.4612C100.376 26.3973 99.5101 26.8454 98.7573 26.1233C98.5198 25.8958 97.9518 24.6172 97.2516 25.6437C97.2064 25.7154 96.1213 28.0329 95.7221 26.4393C95.6579 26.1769 95.7178 24.4894 94.8714 25.3569C94.7093 25.525 95.0063 25.9009 94.5767 26.1367C93.9181 26.5 93.0455 26.0474 92.2232 26.7943C92.0806 26.9267 91.4608 28.0682 90.9746 27.193C90.899 27.0559 91.0515 26.4943 90.7931 26.4281C89.5652 26.1107 88.2545 26.4602 86.9767 26.0204C86.5245 25.8651 86.7985 24.965 86.3358 24.7001C85.8736 24.4359 84.9371 24.1484 84.4026 24.5267C83.8665 24.9051 84.3206 26.396 83.5287 26.4505C81.5554 26.5616 79.5675 26.2281 77.1071 25.3439C75.8647 24.8268 74.5307 24.2522 73.0359 23.6715C72.5221 23.4678 72.7861 24.1198 71.9921 23.8336C70.1807 23.1751 66.7993 21.9181 64.3337 19.1254C63.3004 17.9332 62.6471 16.7888 62.4087 15.8159C61.9317 13.6847 63.9447 15.2852 63.3598 13.8762C63.0927 13.2134 61.2795 13.5441 61.1377 13.4277C59.7644 12.3448 59.8163 10.995 58.9078 9.9422C58.7207 9.7253 58.2785 10.3157 58.1268 10.1287C57.6045 9.49478 57.4365 8.61932 57.0557 8.12106C56.8932 7.91491 56.47 8.22298 56.3985 8.04085C56.3528 7.93119 56.3312 7.84722 56.3484 7.8015C56.3739 7.76357 56.4075 7.7401 56.6473 7.91183C56.7556 7.98055 56.9582 8.15343 57.3454 8.41524C57.5638 8.5639 57.9118 8.79829 58.4179 9.0381C58.8592 9.24617 59.9981 9.74451 61.4854 9.72884C63.1747 9.83586 65.5607 8.6077 66.2692 7.72392C66.736 7.24699 67.0545 6.78114 67.2807 6.37903C67.4975 5.98479 67.5642 5.79723 67.6557 5.55219C67.9789 4.58214 67.8987 4.35424 67.8898 4.08271C67.8799 4.0044 67.7139 4.17027 67.535 4.28099C67.4464 4.33366 67.3599 4.35759 67.3042 4.29295C67.2475 4.23287 67.2221 4.07282 67.2108 3.90945C67.1937 3.9457 67.1803 3.99069 67.1714 4.04587C67.0241 4.9788 66.3987 6.05541 66.7606 7.14798C66.8702 7.47196 68.0525 7.63804 67.1517 8.18095C66.9639 8.29378 65.5622 7.94389 66.6975 8.84733C66.8846 9.00497 68.3927 10.4367 67.2582 10.9062C66.9589 11.0314 65.748 11.3095 65.8956 11.6796C65.9201 11.7295 66.5773 11.607 66.6103 11.9002C66.6956 12.7309 66.6105 13.5659 66.6448 14.403C66.655 14.5792 66.6723 14.7675 66.7 14.9667C66.7395 15.242 67.4249 14.8713 67.4628 15.2845C67.5744 16.4313 67.2963 18.2903 66.9126 19.6648C66.7722 20.1682 66.2704 19.7448 66.2064 19.7752C65.1664 20.2479 66.4149 20.7721 66.4611 20.9824C66.726 22.2889 65.9409 23.1063 65.8681 24.2216C65.8448 24.5323 66.5032 24.4528 66.5447 24.5246C66.9403 25.2603 65.9453 24.5549 65.7359 24.9181C65.1456 25.9261 64.8916 27.1082 64.674 28.1779C64.593 28.5768 65.4167 28.333 65.3343 28.6927C64.8717 30.7758 64.1275 32.8327 63.085 34.5994C62.8854 34.9368 62.4378 34.5232 62.2908 34.5564C61.2751 34.7527 62.1481 35.925 62.1983 36.1258C62.3242 36.6689 62.1851 36.9506 62.0121 37.2273C61.885 37.4283 61.7371 37.6316 61.664 37.9365C60.8331 41.4628 58.7808 45.4256 57.1507 48.3805C55.6505 51.1179 54.1716 53.2953 52.756 55.644C52.1739 56.6077 51.6016 57.5988 51.0348 58.6685C50.9104 58.9017 51.6884 59.0407 51.5888 59.2472C50.2717 61.8963 48.5131 64.219 47.0941 66.8139C46.976 67.0265 47.7586 67.1153 47.5883 67.4702C47.2429 68.2013 46.6511 69.0299 46.0127 69.5776C45.7026 69.845 45.4948 69.0686 45.1935 69.3437C44.4909 69.9823 43.8929 70.7672 43.4434 71.6089C43.2529 71.9684 44.1937 71.8814 43.8988 72.3175C42.6339 74.2018 41.3555 76.0608 39.8133 77.7473C38.9187 78.7253 37.9388 79.6404 36.8316 80.4567C36.6236 80.6103 35.3531 79.8491 35.2371 80.4315C35.5257 80.721 35.896 81.0242 36.2202 81.3146C33.067 85.4994 29.1816 88.9589 25.4649 92.5479C25.3079 92.6996 26.1237 92.9838 25.8219 93.2809C25.1341 93.9575 24.4747 94.6452 23.7844 95.3C22.7206 96.309 21.583 97.2407 20.1617 97.9219C19.93 98.0338 19.0933 96.947 18.7044 97.5877C18.6371 97.7019 17.9608 98.5706 17.9532 98.9783C17.9551 99.0371 18.532 99.3743 18.2851 99.6246C16.844 101.07 15.1572 102.378 13.3883 103.415C13.102 103.581 12.9133 102.843 12.7056 102.957C11.2376 103.767 10.2371 105.321 8.65909 105.872C7.60175 106.239 7.12401 105.099 5.95098 104.586C5.78531 104.514 5.28308 104.914 4.81807 104.427C3.64745 103.204 2.67105 101.601 1.3955 100.321C1.12123 100.045 0.745131 100.923 0.516033 99.8808C0.501878 99.81 0.768918 99.1674 0.676425 98.8265C0.613084 98.5904 0.0203495 98.1989 0.0005126 97.8436C-0.0192139 97.4886 0.536518 97.7658 0.592034 97.2799C0.644429 96.7913 0.0160935 96.3065 0.497175 95.7676ZM104.126 45.193C104.774 44.6142 102.38 44.5554 102.959 45.1677C102.99 45.1975 104.095 45.223 104.126 45.193ZM127.093 110.542C127.53 109.323 125.962 109.781 125.594 110.683C125.23 111.587 126.962 110.914 127.093 110.542ZM132.354 116.442C132.459 115.245 129.724 117.257 130.846 117.559C130.91 117.577 132.348 116.512 132.354 116.442ZM7.6675 102.663C7.6407 102.644 7.27145 102.923 7.28378 102.954C7.5959 103.69 8.33445 103.13 7.6675 102.663ZM137.878 121.867C138.052 121.36 137.148 121.102 136.924 121.725C136.74 122.223 137.66 122.497 137.878 121.867ZM105.052 19.8291C105.045 19.7937 104.709 19.7691 104.722 19.9703C104.755 20.6191 105.217 20.4252 105.052 19.8291ZM146.635 131.546C146.42 131.266 146.299 130.963 146.217 130.64L146.235 130.656C145.764 129.182 146.901 127.795 147.72 128.916C147.733 128.926 147.769 128.96 147.781 128.97C147.784 128.973 147.787 128.977 147.79 128.98C147.881 129.092 147.78 129.129 147.612 129.151C147.601 129.142 147.571 129.113 147.559 129.104C147.279 129.24 146.648 129.251 146.756 129.592C146.795 129.709 146.857 129.795 146.924 129.848C146.928 129.851 146.939 129.862 146.943 129.865C147.494 130.35 148.812 130.021 148.689 131.132C148.669 131.374 146.688 131.623 146.63 131.546C146.632 131.546 146.633 131.546 146.635 131.546ZM106.997 44.8335C107.028 44.8227 107.054 44.3657 107.022 44.3534C106.26 44.1128 106.209 45.0365 106.997 44.8335ZM85.818 18.2546C85.7963 18.1877 84.758 18.0586 84.724 18.1163C84.082 19.3199 86.2143 19.5885 85.818 18.2546ZM113.134 74.5779C114.014 74.8111 114.284 75.3379 113.5 76.0175C113.392 75.5349 113.243 75.0626 113.134 74.5779Z" fill="var(--stroke-0, white)"/>
</svg>
