<svg preserveAspectRatio="none" width="100%" height="100%" overflow="visible" style="display: block;" viewBox="0 0 103.425 109.719" fill="none" xmlns="http://www.w3.org/2000/svg">
<path id="Vector 199" d="M103.394 6.82944C102.953 8.02139 101.963 9.27862 101.093 10.1629C100.819 10.4446 100.552 10.0606 100.347 10.2433C100.279 10.3046 100.22 10.3715 100.167 10.4423C99.9176 10.77 99.8144 11.1735 99.4606 11.4549C99.3197 11.5624 98.8437 11.0462 98.709 11.167C97.969 11.8417 97.6587 12.7065 97.0462 13.466C94.0275 17.2068 91.453 21.0853 88.8082 25.0755C87.9373 26.3903 86.4627 27.7494 85.9044 29.2952C85.8401 29.4753 86.4097 29.6647 86.4346 29.7197C86.8129 30.5685 85.8613 29.8311 85.5452 30.0742C85.2526 30.2982 84.9765 30.5588 84.7314 30.8228C83.9239 31.7009 83.3629 32.7594 83.0228 33.778C82.8333 34.35 84.1452 34.3704 83.2899 34.5868C83.2315 34.6026 82.7457 34.1803 82.6114 34.2933C82.3059 34.5531 82.0894 35.2182 81.9157 35.4511C81.5817 35.8909 81.5456 35.9768 81.3091 36.4361C80.9824 37.0596 80.3374 37.6784 80.1481 38.4203C80.1094 38.5797 80.7806 38.6584 80.7722 38.9356C80.7644 39.2099 80.4369 39.7984 80.2076 39.9424C79.9774 40.087 79.5554 39.7947 79.4334 39.7844C78.4044 39.6941 79.3305 40.9587 79.3248 41.0594C79.1456 42.8613 77.9866 44.0124 77.3439 45.5481C77.31 45.629 77.2775 45.7112 77.2468 45.7947C76.7859 47.0496 76.5412 48.488 76.0831 49.6845C75.5349 51.1096 74.782 52.2245 74.3549 53.6543C74.3089 53.8054 75.0828 53.8751 75.0281 54.0603C74.5104 55.8114 73.8767 57.5097 72.9162 59.1348C72.7984 59.336 72.6765 59.5329 72.5491 59.7285C72.4297 59.9098 71.8964 59.4321 71.7398 59.5997C70.7961 60.6388 68.863 62.0222 71.2681 63.7815C70.8464 64.5461 70.3511 65.4665 69.5288 65.9532C68.9991 66.2678 68.5064 65.5576 68.5686 66.2295C68.582 66.3804 69.234 66.4528 69.2097 66.6613C69.1073 67.5381 68.5742 68.3212 68.5756 69.2166C68.5776 69.3984 69.1222 69.5611 69.1999 69.6426C69.2815 69.7306 69.3266 69.8094 69.3429 69.8802C69.3786 70.5456 68.1294 70.731 67.9867 70.8212C66.7128 71.6989 66.5079 72.555 65.8781 73.5003C65.7328 73.7144 66.5372 73.8747 66.4193 74.0964C65.7898 75.2518 64.981 76.2843 63.9903 77.0825C63.7701 77.2563 63.3897 76.6758 63.2576 76.7394C62.6791 77.0267 63.5948 77.8482 63.0584 78.1334C62.9458 78.1954 62.5372 77.8143 62.4755 77.7954C61.513 77.4905 62.4326 78.5268 62.4075 78.6111C62.2108 79.317 61.5148 79.4429 60.9136 79.6947C60.5663 79.8466 60.2495 80.0325 60.0702 80.3781C60.0109 80.4945 60.743 80.6999 60.54 81.0031C59.1925 83.014 57.391 84.7373 55.4252 86.0384C55.1204 86.2406 54.9059 85.696 54.8429 85.6684C53.8511 85.2444 54.6889 86.3414 54.6464 86.4621C54.292 87.3826 52.8784 87.2148 53.6272 88.7791C52.9971 89.2736 52.4112 89.8069 51.8527 90.3531C49.578 92.6035 47.19 94.9976 43.9305 95.7622C43.8797 95.7757 43.583 95.1682 43.4841 95.197C42.2906 95.5287 43.0512 96.273 43.0484 97.7794C43.0432 98.1602 41.7217 97.1651 41.6205 97.0941C41.2403 96.8386 40.8944 95.8823 40.7978 95.8467C40.0233 95.5759 41.7929 98.3609 41.1668 98.7329C41.1445 98.7396 40.9176 98.1687 40.8348 98.1475C40.5767 98.0799 40.5389 98.3817 40.2751 98.294C39.958 98.1866 39.5526 97.7759 39.2256 97.57C38.9232 97.3844 38.6948 97.3637 38.6396 97.9026C38.6243 98.0479 39.6466 99.6263 38.9936 99.8741C38.7361 99.9746 37.6673 100.541 37.3099 100.567C36.9546 100.598 36.9121 99.9537 36.8789 99.9404C35.7475 99.5786 35.9175 99.1373 35.0607 98.224C34.2196 97.3048 35.417 99.8419 35.3719 100.2C35.3253 100.559 34.4836 100.188 34.2591 100.029C34.0322 99.8721 34.0722 99.4456 33.8987 99.3741C32.7625 98.9029 34.0216 100.817 33.8918 101.341C33.5678 102.584 32.3386 100.809 31.6735 100.815C31.4907 100.818 31.7746 101.223 31.6402 101.314C31.1027 101.667 30.5577 101.159 30.0635 101.932C29.9849 102.058 29.7957 103.42 29.1841 102.644C29.1042 102.54 29.0928 102.076 28.8715 101.973C28.8511 101.964 28.8289 101.958 28.8048 101.956C28.3506 101.91 27.613 101.959 27.2035 102.197C26.8978 102.375 27.4069 103.162 26.9421 102.962C26.7397 102.87 27.0117 102.33 26.6476 102.195C26.2883 102.064 25.4446 102.152 25.1219 102.177C24.8006 102.206 24.9967 102.847 24.9726 102.892C24.8196 103.149 24.1763 103.468 24.1195 103.465C22.8182 103.496 21.6333 103.206 20.4939 102.924C18.9055 102.558 17.5836 101.954 16.1136 101.688C15.9035 101.648 15.8235 102.341 15.7892 102.341C14.997 102.377 16.1252 100.842 15.8614 100.107C15.4703 101.439 15.274 101.106 14.7488 101.073C14.4957 101.058 14.4303 101.607 14.3905 101.65C13.7574 102.283 13.8965 101.206 13.9175 100.983C13.987 100.16 13.4024 100.934 13.4503 100.382C13.5006 99.835 14.1295 99.2499 13.6925 99.0823C13.3805 99.4906 13.2178 100.826 12.7996 100.881C11.3683 101.068 9.67323 99.49 8.67522 98.7767C8.54429 98.6878 8.4259 98.6089 8.31978 98.5449C7.29357 97.9084 6.92942 97.7514 6.46101 97.2076C5.66355 96.1991 5.43976 97.2352 4.51689 97.0165C3.59564 96.7575 5.54988 95.341 5.82186 94.8991C6.10924 94.4685 5.66482 94.7644 5.77941 94.4807C5.89946 94.2023 6.32055 94.1418 6.21166 93.8758C6.10984 93.6258 4.94304 93.6441 4.45278 93.873C3.42437 94.3815 2.72105 95.4292 2.52508 94.4577C2.51646 94.4029 3.11603 94.1725 3.05886 93.9829C2.5997 92.5019 1.9662 91.1408 1.93151 89.6687C1.92911 89.4683 2.64034 89.4184 2.64816 89.3036C2.66551 89.087 2.64997 88.9346 2.60129 88.8289C2.42121 88.385 1.48063 88.7901 0.386434 88.1181C2.12501 88.223 3.12086 87.8883 3.27045 87.29C3.37751 86.8846 2.63888 86.7473 2.23627 86.2631C2.11693 86.1108 2.72852 85.9468 2.42148 85.7607C1.49914 85.1876 0.291569 85.0094 0.754269 84.4643C0.803542 84.394 0.867054 84.32 0.946848 84.243C0.991576 84.2046 1.49805 84.6207 1.6082 84.4745C2.33752 83.6268 1.45011 82.8001 2.25001 81.7522C2.6587 81.243 3.54015 80.9089 4.28311 80.6963C4.73865 80.5412 5.17294 80.4279 5.51401 80.302C6.4065 82.0189 6.84349 81.3185 6.79903 79.931C7.43068 79.7715 8.1063 79.5455 8.73845 79.653C8.95455 79.6902 8.88242 80.265 8.91624 80.3219C9.37697 81.2269 9.51107 79.9207 9.6563 79.863C11.1347 79.3302 12.0868 80.4665 13.6362 79.9249C13.686 79.9049 14.1928 78.6458 14.2506 79.7089C14.2447 79.7796 13.6151 80.2038 14.2098 80.4701C14.3442 80.533 14.504 80.6485 14.6659 80.7859C15.224 81.2431 15.7607 81.9456 16.5989 82.0806C16.8493 82.0977 18.1188 81.8375 17.7473 82.757C17.6931 82.8762 17.3493 83.0638 17.2299 83.2608C16.836 83.8735 18.0336 83.2061 17.2446 84.1072C16.451 85.0041 15.9571 85.8459 17.0172 86.1463C17.0483 86.1555 18.0915 85.8186 18.1922 86.0543C18.3492 86.424 18.3949 87.0306 18.5807 87.4022C18.6202 87.4808 18.7488 87.447 18.8824 87.3862C18.9016 87.3774 18.9209 87.3682 18.9401 87.3586C19.091 87.2831 19.2331 87.1892 19.2462 87.2023C19.2482 87.2046 19.2502 87.2069 19.2521 87.2091C20.1877 88.337 19.9605 89.5567 19.9277 91.0094C19.9216 91.2592 20.9182 91.9894 20.201 92.5504C19.4086 93.1183 16.1446 92.5891 16.8738 93.5866C17.1655 93.9178 21.2087 95.2697 18.8753 95.7559C18.907 96.2112 18.8174 96.6334 18.6818 97.061C18.2917 98.2642 17.2993 98.9581 16.8839 100.297C16.8616 100.374 17.5474 101.353 17.3905 101.493C17.1628 101.692 16.6645 101.417 16.4939 101.531C15.7863 101.986 15.4789 102.806 14.8075 103.265C14.7884 103.278 14.7691 103.291 14.7494 103.303C14.4676 103.475 14.2382 102.95 13.9216 103.118C13.611 103.275 13.7397 104.055 13.1177 103.96C12.6432 103.884 11.7207 102.631 11.2248 102.639C11.7643 104.034 11.4344 104.132 10.9999 104.72C10.9166 104.834 11.2209 105.275 11.1911 105.353C11.0753 105.685 10.7251 105.357 10.6343 105.707C10.6121 105.791 10.798 106.267 10.7918 106.362C10.7657 106.827 10.4675 106.757 10.172 106.59L10.2287 106.564C9.97372 106.453 9.72471 106.273 9.64492 106.215C8.95315 105.703 9.0611 106.383 8.65176 106.235C8.25195 106.08 8.52259 105.559 8.12982 105.528C7.32691 105.459 6.49816 105.834 5.78655 106.033C5.77409 106.037 5.7629 106.042 5.75291 106.047L5.77041 106.042C5.55263 106.156 5.89865 106.705 5.86392 106.73C5.31703 107.066 4.52649 106.53 4.55366 107.931C3.21996 104.655 4.28385 108.357 3.24849 107.908C3.16613 107.871 2.65165 106.29 2.84414 105.986C3.03635 105.682 3.56131 106.078 3.81538 105.615C3.87711 105.506 3.94314 103.875 3.98186 103.767C4.28884 102.918 5.02612 105.287 5.09112 105.41C5.37789 105.953 5.57006 105.978 5.70281 105.807L5.67934 105.814C5.86588 105.561 5.90443 104.9 5.96867 104.806C6.45744 104.085 7.10937 104.213 7.46447 103.651C7.69684 103.284 7.04812 101.792 7.30012 101.729C7.47237 101.685 7.66969 101.721 7.87711 101.789C7.90918 101.776 8.00106 101.728 8.03366 101.717C9.0301 101.942 9.80912 102.86 9.97942 101.114C10.0138 100.651 9.21181 99.0604 10.33 100.119C10.3942 100.189 11.3389 101.182 11.2208 100.343C11.2048 100.238 10.9851 99.7696 10.9987 99.7152C11.085 99.3629 11.3976 99.6648 11.4626 99.398C11.4999 99.2233 11.4878 99.0203 11.5065 98.9426C11.5918 98.8457 11.6941 98.7741 11.8261 98.7447C12.061 98.6935 12.8891 99.2606 13.1263 99.369C13.8073 99.685 13.2999 98.641 13.9879 99.1245C14.6988 99.5909 15.2622 100.793 16.043 100.784C15.1166 99.8085 14.1774 98.7958 13.2398 97.8205C13.9044 97.2306 14.6737 96.8896 14.8277 96.3567C14.8433 96.2943 14.15 96.0813 14.1429 96.0223C14.1326 95.9453 14.1771 95.9002 14.2398 95.856C14.5003 95.3009 14.7623 95.0854 14.711 94.6834C14.6465 94.2378 13.9516 93.7252 13.7866 93.3903C15.3426 93.3134 14.8449 92.6807 14.951 92.2988C14.9888 92.1555 15.3988 92.1301 15.5215 92.0089C15.9662 91.5419 14.6386 91.9093 14.4142 91.8429C13.4515 91.6234 16.4726 90.984 16.2181 90.3449C16.2025 90.2952 14.5242 90.4385 14.4158 90.446C13.6892 90.4002 14.937 90.2052 14.978 89.9724C15.0219 89.7062 15.1296 89.4417 15.0451 89.2236C14.9711 89.0447 14.8312 88.886 14.5659 88.7545C14.3558 88.6481 13.2549 88.7272 13.8126 88.0838C13.8853 87.9988 14.3778 87.7704 14.3901 87.7251C14.5657 86.92 13.0586 87.7272 12.4265 87.786C11.8 87.8551 12.6328 86.9929 12.8605 86.7321C13.4648 86.0751 13.2409 86.6158 13.3184 86.5803C14.2392 86.1123 13.9225 85.9563 13.866 85.7508C15.1569 84.6844 14.8248 84.4561 13.8013 85.5454C13.6861 85.6594 13.8988 85.6685 13.866 85.7508C12.4451 86.6111 12.3849 86.838 13.1924 85.5179C13.536 84.8846 14.1419 84.2598 13.5308 84.2489C13.2508 84.2548 12.8065 85.3218 12.5369 85.5413C12.533 85.5445 12.5291 85.5476 12.5252 85.5507C11.9848 86.0536 11.6548 84.8521 11.0808 84.9334C10.8858 84.9657 10.969 85.615 10.8437 85.6611C10.5318 85.7902 10.2954 85.3017 10.0045 85.5468C9.98117 85.5699 10.0454 86.2281 9.9705 86.2379C9.43101 86.3311 8.96357 86.0098 8.51561 86.2157C8.42992 86.2569 8.35158 86.3726 8.28333 86.5016C8.01758 86.7989 7.84333 87.0734 7.70058 87.1434C7.39147 87.303 7.01487 87.0399 6.824 86.933C6.61027 87.2115 6.48075 87.436 6.48855 87.63C6.51808 88.0124 7.18811 88.1021 7.60766 88.2646C8.02395 88.3985 7.88063 88.255 7.57368 88.1111C7.26827 87.9606 6.80289 87.8837 6.68063 87.8829C6.67726 87.9004 6.53162 88.0597 6.18933 88.0074C5.48559 88.0479 6.67928 87.8971 6.68063 87.8829C6.62101 87.879 6.55507 87.821 6.49169 87.752C6.48545 88.0012 6.56269 88.3221 6.66889 88.3823C6.76064 88.4341 7.33316 88.1797 7.36909 88.2081C8.21288 88.8771 8.73958 89.4865 9.04007 90.3379C9.03983 90.3578 8.47829 90.7746 8.48621 90.818C8.59651 91.4473 9.48451 91.1264 10.0924 90.9907C10.7094 90.8596 10.7709 91.1123 10.3071 92.248C10.643 92.2957 10.762 92.9723 10.8907 93.3894C10.9268 93.5165 11.0131 93.4904 11.1105 93.3907C11.3847 93.1901 11.6904 92.6049 11.7225 92.599C13.1714 92.3084 13.4678 93.2977 14.5126 93.8811C15.009 94.1621 16.0941 94.3982 16.6775 94.4613C17.1396 94.5109 17.2794 94.9024 17.724 94.8432C17.7834 94.8351 17.933 94.2458 17.956 94.2291C18.5965 93.6842 17.9221 95.0171 17.923 95.2971C17.9252 96.3116 17.9904 96.875 18.6537 96.5964C18.8159 96.5358 19.7037 94.5673 19.8963 94.4843C20.1623 94.3843 19.908 95.1107 20.1869 94.9806C20.2095 94.9696 20.3019 94.5081 20.4302 94.5537C20.6779 94.6387 20.9006 94.7385 21.0753 94.816C21.7288 94.9539 22.361 95.0787 22.9383 95.0783C23.0724 95.0799 22.9369 94.3252 23.1276 94.3146C24.0238 94.266 24.8107 94.2872 25.4248 94.5775C25.5778 94.6511 25.5419 95.1809 25.5904 95.3322C25.9152 96.2448 26.0137 94.8466 26.0328 94.8159C26.2681 94.5932 26.4662 94.507 26.6732 94.4758C27.8288 94.2133 29.0061 94.4123 30.0417 93.6017C30.127 93.5366 30.2794 91.9275 31.0014 92.9968C31.0473 93.069 31.8004 94.1592 31.7345 93.2402C31.7291 93.1831 31.3139 92.6358 31.6415 92.5786C31.9731 92.5195 32.2704 91.9179 32.9623 92.4056C33.1762 92.5613 34.0291 93.5847 33.9684 92.4796C33.9775 92.3975 33.4818 90.0648 34.3978 91.3831C34.5483 91.5998 35.3064 93.112 35.3311 92.1145C35.3313 91.923 35.0062 91.6724 35.101 91.3515C35.1537 91.1687 35.2718 91.076 35.4012 90.9855C35.6794 90.7977 35.9928 90.619 36.0439 90.0392C36.0585 89.8761 35.8105 88.6918 36.5234 89.2774C36.6355 89.3689 36.8462 89.8998 37.0205 89.8684C37.854 89.7189 38.331 88.9769 39.1754 88.8872C39.4749 88.8534 39.8637 89.6889 40.2372 89.7326C40.6106 89.7769 41.2225 89.6393 41.2205 89.1281C41.2153 88.6193 40.116 87.6226 40.386 87.2833C41.5322 85.8226 43.3683 85.3618 44.7605 84.1253C44.9581 83.9491 44.4597 83.753 44.6859 83.4713C44.6925 83.4633 44.6996 83.4551 44.7072 83.4468C45.9026 82.1514 47.5567 79.7024 49.3429 79.377C50.7822 79.1106 50.2887 80.652 51.1586 80.2305C51.5794 80.0224 50.6329 78.5489 50.6601 78.4384C50.921 77.3337 51.9345 77.3068 52.3231 76.4886C52.4025 76.3198 51.765 76.0156 51.837 75.8781C52.0758 75.4074 52.648 75.1879 52.8951 74.7831C53.0038 74.6014 52.5676 74.3111 52.7151 74.1864C52.8497 74.07 52.995 73.97 53.1566 73.8933C53.4458 73.7232 53.7762 73.6114 54.205 73.534C54.2688 73.5229 54.6016 74.1647 54.8541 73.8655C55.2617 73.3792 56.117 73.033 56.1366 72.1572C56.1381 71.8995 55.1803 71.1869 56.1114 71.3055C56.3064 71.3291 57.404 72.26 56.7025 71.1112C56.5915 70.9133 55.7277 69.2426 56.8468 69.5164C57.1416 69.5889 58.2716 70.0171 58.2561 69.7114C58.2503 69.6676 57.6456 69.4165 57.7068 69.2148C57.9237 68.5209 58.3732 67.9557 58.5176 67.3238C58.5527 67.1577 57.8624 67.02 57.9288 66.7891C58.0862 66.241 58.4147 65.8211 58.6267 65.723C58.6959 65.6148 58.7651 65.511 58.8331 65.4123C59.0247 65.1357 59.4544 65.5467 59.5189 65.5462C60.5633 65.5476 59.4228 64.8594 59.3981 64.7133C59.2595 63.8156 60.0528 63.4947 60.164 62.7792C60.1964 62.5819 59.5636 62.477 59.5263 62.4201C59.1695 61.8442 60.1018 62.5411 60.3115 62.3518C60.9016 61.8249 61.1454 61.0834 61.3268 60.4084C61.3924 60.1603 60.6119 60.1588 60.6783 59.94C61.0579 58.6408 61.6022 57.4093 62.4043 56.3527C62.5569 56.1532 63.0332 56.4822 63.1703 56.4781C63.7565 56.4629 63.6165 56.1229 63.4018 55.8303C63.2663 55.6439 63.1029 55.4715 63.076 55.4116C62.7554 54.716 63.2921 54.6751 63.3651 54.1771C63.7121 51.7412 65.0026 48.9619 65.9687 46.8199C66.736 45.1116 67.5277 43.6731 68.2437 42.1669C68.7003 41.2072 69.1289 40.2129 69.5203 39.0916C69.5851 38.9086 68.8217 38.8131 68.8691 38.6509C69.5165 36.5597 70.6726 34.6792 71.4256 32.6384C71.4893 32.4699 70.7424 32.393 70.8228 32.114C70.9862 31.5333 71.3508 30.8877 71.8186 30.4643C72.0453 30.2577 72.4105 30.8747 72.6275 30.6617C73.1323 30.1705 73.5044 29.5624 73.7208 28.9093C73.8112 28.6316 72.9711 28.678 73.1378 28.3445C73.6471 27.3123 74.1504 26.293 74.7364 25.3259C75.4514 24.1465 76.2935 23.0399 77.4232 22.0887C77.5637 21.9708 78.9128 22.5635 78.8496 22.1056C78.5096 21.8805 78.0928 21.6453 77.7207 21.4199C79.3066 18.1575 81.5353 15.339 83.4193 12.2781C83.4988 12.1488 82.696 11.9823 82.8463 11.73C83.7134 10.2731 84.3632 8.74387 85.9066 7.64337C86.0579 7.53511 87.1912 8.30359 87.2704 7.76145C87.2816 7.66809 87.5136 6.91438 87.3544 6.59993C87.3295 6.55397 86.7085 6.35169 86.8183 6.12824C87.2624 5.24001 87.8254 4.38095 88.4715 3.6086C88.7614 3.25793 89.059 2.93814 89.3795 2.62321C89.5496 2.45863 90.0147 3.00964 90.1405 2.89617C91.0324 2.0809 91.215 0.738202 92.2793 0.115116C92.9903 -0.297176 93.8808 0.512811 95.0744 0.745605C95.2458 0.774346 95.4639 0.426474 96.064 0.726099C97.6002 1.43726 99.1219 2.52281 100.767 3.26611C100.952 3.32626 101.012 3.21922 101.24 2.86309C101.3 2.7595 101.383 2.62679 101.5 2.33902C101.627 2.07532 101.759 1.33588 101.794 1.15364C101.819 1.0678 101.849 1.09221 101.875 1.27328C101.901 1.46623 101.905 1.7932 101.877 2.09512C101.826 2.66582 101.797 2.93478 101.828 3.1644C101.767 3.46604 101.771 4.1091 101.992 4.36767C102.14 4.55462 102.819 4.74012 102.977 5.03695C103.134 5.33516 102.539 5.22512 102.692 5.62724C102.849 6.02894 103.583 6.31235 103.394 6.82944ZM11.9975 95.4683C12.0998 96.2292 13.1241 94.0659 12.4975 94.4135C12.4659 94.4328 11.9916 95.4306 11.9975 95.4683ZM16.1358 97.8721C17.2611 98.055 15.9885 97.1122 15.1653 96.9326C14.3739 96.6878 15.8109 97.7866 16.1358 97.8721ZM13.39 101.695C13.5134 101.753 13.582 101.743 13.6039 101.689C13.7778 101.359 12.6284 99.8612 12.3363 100.029C12.3149 100.038 12.3109 100.075 12.326 100.151C12.338 100.19 13.3409 101.67 13.39 101.695ZM94.4746 2.4679C94.5076 2.47452 94.6935 2.21302 94.6724 2.18647C94.1 1.6573 93.721 2.19365 94.4746 2.4679ZM9.01367 104.58C9.11523 104.671 9.20924 104.682 9.28243 104.643C9.2884 104.64 9.3055 104.631 9.31157 104.629C9.52069 104.528 9.61276 104.066 9.28031 103.755C9.14788 103.633 9.01444 103.648 8.92083 103.738C8.90665 103.743 8.86668 103.764 8.85273 103.77C8.71763 103.927 8.71769 104.316 9.01367 104.58ZM31.2896 99.7119C31.3068 99.7439 31.5407 99.6997 31.472 99.5101C31.2501 98.9 31.001 99.1758 31.2896 99.7119ZM0.296494 107.375C1.66183 107.145 3.19461 109.637 1.65801 109.718C1.37989 109.733 1.99587 108.704 1.59576 108.549C0.864753 108.267 0.908889 110.076 0.0417378 109.33C-0.115668 109.193 0.217073 107.382 0.297863 107.371C0.297407 107.372 0.296951 107.374 0.296494 107.375ZM11.0406 98.1884C11.0351 98.2206 11.3229 98.3811 11.3428 98.3556C11.8117 97.7325 11.2353 97.4103 11.0406 98.1884ZM44.3123 94.7139C44.3665 94.7604 45.0426 94.3623 45.0264 94.2954C44.627 93.0576 43.2959 93.8344 44.3123 94.7139ZM5.55176 80.3409C5.59522 79.4574 6.16218 79.1293 6.79683 79.9308C6.37284 80.0214 5.96536 80.1838 5.55176 80.3409Z" fill="var(--stroke-0, #005935)"/>
</svg>
