<svg preserveAspectRatio="none" width="100%" height="100%" overflow="visible" style="display: block;" viewBox="0 0 48.2083 29.8631" fill="none" xmlns="http://www.w3.org/2000/svg">
<path id="Vector 191" d="M22.6437 29.8557C21.5812 29.9256 20.3295 29.4883 19.4416 29.0071C19.1631 28.8575 19.3884 28.4688 19.2053 28.3472C18.8402 28.1082 18.4341 28.2381 18.0884 27.9651C17.9729 27.8722 18.2717 27.2486 18.148 27.1663C17.4857 26.7232 16.7702 26.7382 16.08 26.4292C15.2037 26.0356 14.3337 25.6612 13.4691 25.2993C10.6946 24.1788 7.76803 22.8466 5.17191 20.5949C4.00675 19.6005 3.15238 17.8647 2.09631 16.9722C1.97087 16.8688 1.57386 17.3148 1.5169 17.3218C0.633585 17.4123 1.6631 16.792 1.60347 16.4622C1.52452 16.0124 1.40686 15.6161 1.26831 15.2955C0.487536 14.2223 0.332493 13.0229 0.336127 12.3122C0.338192 11.5716 0.432383 11.0874 0.461778 10.754C0.504865 10.4217 0.55797 10.1038 0.614898 9.802C0.773407 9.04761 -0.592443 9.36415 0.311923 8.85651C0.372744 8.82632 0.878882 9.23823 1.01748 9.08098C1.32431 8.72266 1.60464 7.98135 1.81498 7.75069C2.2177 7.30578 2.26667 7.23155 2.59364 6.81424C3.05113 6.24985 3.82482 5.87662 4.23707 5.29811C4.32568 5.17166 3.73847 4.84055 3.84768 4.59121C3.95876 4.33714 4.49411 3.95099 4.75874 3.93568C5.02254 3.91797 5.26374 4.37155 5.36509 4.43852C6.19442 5.02119 5.93846 3.5349 6.00857 3.44786C7.08726 2.0042 8.7538 1.9855 10.1797 1.40386C10.5385 1.2581 10.9055 1.09314 11.2792 0.932331C12.1214 0.574907 13.0353 0.269759 13.9052 0.200649C15.454 0.0848587 16.6991 0.533895 18.0285 0.724879C18.1703 0.747003 18.1482 -0.0267122 18.3279 0.000712395C20.2451 0.302577 21.8513 1.03062 23.0591 2.06998C23.1805 2.17532 22.7494 2.71511 22.8549 2.85674C23.481 3.7062 24.3656 5.46421 25.7154 2.86365C25.807 2.91983 25.9021 2.97617 25.9944 3.03492C26.4798 3.29638 26.979 3.6352 27.2613 4.21051C27.4912 4.68114 26.9266 5.25373 27.4481 5.10349C27.5654 5.0706 27.6427 4.42956 27.8043 4.42592C28.4879 4.4125 29.0814 4.8385 29.7895 4.74828C29.934 4.72855 30.0948 4.18433 30.1643 4.10109C30.7421 3.43214 30.7534 4.8936 30.8207 5.0252C31.3543 6.01692 32.028 5.96766 32.7539 6.27831C32.9222 6.35089 33.0052 5.5641 33.1779 5.60894C34.0687 5.85064 34.9216 6.27885 35.6057 6.94149C35.7571 7.09059 35.3332 7.61351 35.392 7.71505C35.652 8.15487 36.2247 7.06932 36.4853 7.47252C36.5402 7.55586 36.2735 8.04466 36.263 8.10659C36.0948 9.07758 36.8324 7.92214 36.9005 7.91966C37.7796 7.86297 37.6502 9.35715 38.4073 9.48147C38.4986 9.49516 38.6063 8.77282 38.847 8.8512C39.1706 8.9554 39.4941 9.0777 39.8074 9.2129C41.6673 10.0445 42.8181 11.5019 43.4414 12.9067C43.5632 13.1833 43.0262 13.3658 42.9892 13.4226C42.3929 14.2903 43.5533 13.563 43.6547 13.6074C44.4063 13.9576 43.8529 15.1478 45.4542 14.6126C45.8661 15.5331 46.3512 16.3503 46.83 17.0983C47.6809 18.4176 48.3143 20.0145 48.1935 21.7141C48.1712 23.2704 47.2384 24.3945 46.1866 24.8669C45.9962 24.9403 45.8034 24.9957 45.6107 25.0343C45.5582 25.0451 45.2969 24.4223 45.2027 24.4408C44.0875 24.5736 44.7331 25.4027 44.2504 26.8719C44.0977 27.2444 43.2308 25.8401 43.1945 25.7277C42.97 25.3418 42.9849 24.3308 42.921 24.2591C42.4637 23.6835 42.9162 26.9582 42.2401 27.0091C42.2205 27.0048 42.2645 26.3938 42.2088 26.3369C42.0404 26.1576 41.888 26.4055 41.7311 26.2008C41.3634 25.7248 41.2796 24.1253 40.7817 25.0441C40.7149 25.1617 40.7505 27.04 40.2215 26.9233C40.0053 26.8787 39.0959 26.8296 38.8615 26.6755C38.6252 26.5253 38.8706 25.9475 38.8551 25.9194C38.3118 25.047 38.6007 24.7496 38.4647 23.5387C38.3471 22.3323 38.0025 25.1156 37.8232 25.4043C37.6405 25.6922 37.2894 24.9648 37.2212 24.7192C37.1511 24.474 37.3575 24.1222 37.2832 23.9771C36.8037 23.0266 36.7401 25.291 36.4358 25.6856C35.6999 26.6139 35.7244 24.4907 35.3225 24.1888C35.2113 24.1065 35.2051 24.5913 35.0841 24.6085C34.6033 24.6688 34.4995 23.9751 33.857 24.4235C33.7536 24.4971 33.0248 25.598 33.0029 24.6402C33.0013 24.5025 33.2417 24.0313 33.0885 23.8687C32.8608 23.6255 32.4022 23.3768 32.0602 23.4561C31.8072 23.5149 31.8132 24.4074 31.6147 24.0716C31.5278 23.9219 31.894 23.5102 31.7206 23.2694C31.5458 23.0287 30.9681 22.8729 30.7458 22.8198C30.5255 22.7682 30.4462 23.4226 30.4156 23.4587C30.2316 23.6628 29.7129 23.8229 29.6778 23.8103C29.0003 23.6179 28.3915 23.2827 27.8092 22.9162C26.7094 22.234 25.7625 21.4342 24.5412 21.1465C24.3928 21.1104 24.2057 21.7748 24.1802 21.7757C23.5899 21.8245 24.7054 20.335 24.6336 19.6355C24.1081 20.919 24.0189 20.6037 23.629 20.5913C23.4401 20.586 23.3006 21.1127 23.2632 21.1559C22.6841 21.7862 22.9649 20.7549 23.0151 20.5406C23.1974 19.751 22.6317 20.5192 22.7534 19.9907C22.875 19.4665 23.4469 18.8756 23.1353 18.7385C22.835 19.145 22.5082 20.4256 22.181 20.5024C20.9372 20.7925 19.7321 19.0573 19.0807 18.6079C18.4259 18.1586 18.1591 18.1248 17.8327 17.7574C17.2442 17.0933 17.0793 18.0889 16.4211 18.2474C15.7658 18.4074 17.0615 16.4113 17.2272 15.9246C17.3934 15.4384 17.0854 15.8691 17.133 15.5795C17.18 15.2898 17.5112 15.0702 17.3686 14.8798C17.2255 14.6892 16.3028 15.236 15.9941 15.6764C15.3452 16.6118 15.0444 17.7842 14.7383 17.1657C14.721 17.1295 15.0915 16.6189 15.011 16.5083C14.8264 16.262 14.6144 16.0447 14.4033 15.8492C13.8974 15.3711 13.2523 14.999 12.7404 14.3916C12.6441 14.2738 13.078 13.7201 13.03 13.6466C12.5734 12.8752 12.2661 14.0518 11.0367 14.7731C11.8018 13.8957 12.2056 13.1331 12.3323 12.6641C12.4261 12.4603 12.4886 12.3588 12.4412 12.2813C12.3585 12.1267 11.6949 12.4845 11.1086 12.4493C10.926 12.4248 11.3428 12.018 10.9913 12.0661C9.83326 12.1858 8.61096 12.7721 8.96166 11.8181C8.98046 11.7798 9.62394 11.7883 9.64361 11.666C9.79581 10.9167 8.58778 10.9331 8.41243 10.1409C8.32631 9.73987 8.623 9.16103 8.88262 8.65881C9.0223 8.23411 9.20437 7.85464 9.33384 7.54313C11.2136 8.01043 10.9099 7.47675 9.95969 6.47069C10.3 5.99384 10.6502 5.49023 11.1399 5.29812C11.3066 5.23358 11.5962 5.72832 11.6525 5.75934C12.4775 6.30134 11.7979 5.18876 11.8617 5.07692C12.0026 4.82201 12.1972 4.6546 12.4024 4.53531C13.1096 4.13036 13.8371 4.24726 14.394 3.33678C14.414 3.29596 14.1464 1.96888 14.6679 2.85668C14.6957 2.9203 14.514 3.59083 14.9882 3.53146C15.4844 3.46784 16.3783 4.07699 16.9551 3.43301C17.0854 3.27551 17.4876 2.17085 17.7938 3.03099C17.8331 3.14764 17.7838 3.53352 17.8377 3.74948C18.001 4.43795 18.1526 3.07948 18.3162 4.24548C18.4786 5.41227 18.775 6.29562 19.4006 5.56408C19.4183 5.5428 19.6822 4.48607 19.8623 4.52715C20.1474 4.59269 20.5219 4.87882 20.8166 4.92484C20.9592 4.94664 20.9879 4.27059 21.0149 4.26297C22.0707 4.07682 22.6451 4.82645 23.5756 5.35331C23.7427 5.44991 24.5409 4.7304 24.6855 5.53461C24.8327 6.41288 23.4433 9.41847 24.5047 8.94619C24.9128 8.75377 26.7876 4.98495 26.6678 7.25422C28.0768 7.21938 28.7383 8.70842 30.2198 8.57238C30.2871 8.56715 30.9678 7.60209 31.0863 7.67853C31.2578 7.79225 31.1254 8.33573 31.2369 8.43286C31.7113 8.85996 32.4294 8.71697 32.9199 9.09525C33.1021 9.23718 32.7371 9.67236 32.9446 9.84262C32.974 9.86718 33.0097 9.87573 33.0498 9.87431L33.0144 9.84508C33.2544 9.89717 33.7368 9.68827 33.726 10.1259C33.7164 10.5188 32.7573 11.7212 32.8391 12.0893C33.9847 11.1287 34.1214 11.3329 34.7079 11.4295C34.8213 11.4479 35.1681 11.0491 35.2429 11.0412C35.5585 11.005 35.3181 11.3959 35.6458 11.3408C35.7251 11.3283 36.1287 11.0155 36.2168 10.9883C36.9842 10.7482 36.3464 11.8115 36.2278 11.9882C35.7913 12.6749 36.4058 12.3913 36.2941 12.7487C36.1793 13.1027 35.6839 13.0519 35.6843 13.3654C35.683 14.0108 36.1246 14.517 36.3929 14.978C36.5023 15.1598 36.9981 14.6703 37.0271 14.6877C37.1518 14.7788 37.1974 14.9215 37.2444 15.0551C37.3317 15.3373 37.4213 15.5776 38.3124 15.2936C35.3612 17.22 38.7407 15.3748 38.4191 16.2667C38.3919 16.3362 36.9599 17.1796 36.6516 17.1196C36.3437 17.0599 36.6644 16.5547 36.2073 16.5053C36.0972 16.4875 34.5717 16.9385 34.4723 16.9551C34.1631 16.9828 34.2931 16.8201 34.5704 16.5936L34.6297 16.6922C35.0546 16.3085 35.8612 15.7694 35.9256 15.7145C37.0469 14.7345 35.3981 15.2727 35.2434 15.2495C34.5215 15.1188 34.5669 14.5706 34.0134 14.4466C33.654 14.3652 32.3247 15.3012 32.2457 15.1095C31.9889 14.4873 33.6021 12.8688 31.6721 13.6128C31.2615 13.7753 29.9856 15.0146 30.7586 13.7675C30.8113 13.6929 31.5397 12.5829 30.8053 12.9778C30.7134 13.0283 30.3313 13.3775 30.2785 13.3842C29.9333 13.4241 30.1408 13.0429 29.8501 13.0287C29.8339 13.0281 29.8175 13.0277 29.8009 13.0274L30.534 13.6326C30.3476 13.7416 30.0103 13.8311 29.9014 13.5782C29.8199 13.4102 30.1127 12.4702 30.1473 12.2203C30.2614 11.5078 29.5173 12.3773 29.7643 11.5781C30.0062 10.7719 30.8589 9.79519 30.7235 9.1261C30.1024 10.3192 29.4495 11.5361 28.8216 12.7343C28.0927 12.3153 27.5035 11.5665 26.6761 11.2813C26.5744 11.2479 26.3939 11.9564 26.2789 11.9385C25.7933 11.8598 25.5938 11.225 25.0578 11.2411C24.6365 11.2544 23.9899 11.8348 23.5659 11.8937C23.8401 10.3599 23.1074 10.6686 22.7497 10.4155C22.6228 10.3267 22.749 9.93554 22.6844 9.77683C22.4344 9.18835 22.2432 10.5491 22.0825 10.7259C21.4125 11.4887 22.1697 8.5029 21.5892 8.43913C21.5536 8.43306 20.8412 9.95261 20.7796 10.0444C20.3514 10.6331 20.8537 9.47562 20.6947 9.31776C20.4077 9.03167 20.2281 8.598 19.7606 9.00873C19.6172 9.12961 19.2188 10.1037 19.1162 9.29409C19.1012 9.18783 19.1835 8.6515 19.1641 8.61711C18.7982 8.04096 18.6159 9.73895 18.3683 10.2971C18.1296 10.856 17.903 9.66988 17.835 9.32966C17.6811 8.44868 17.9799 8.95819 17.9931 8.87352C18.1544 7.855 17.8826 8.01905 17.6874 7.93147C17.6769 6.25925 17.3553 6.36174 17.4839 7.84853C17.4975 8.01065 17.6474 7.85446 17.6874 7.93147C17.4901 9.56997 17.3232 9.7791 16.9244 8.27156C16.7282 7.56855 16.7879 6.71472 16.3425 7.07556C16.1474 7.24224 16.3946 8.3692 16.304 8.70223C16.1388 9.45466 15.5503 8.51189 15.357 8.7812C15.307 8.8715 15.6394 9.41191 15.6265 9.48813C15.6153 9.60324 15.5235 9.52033 15.4467 9.48655C15.3546 9.48449 15.2801 9.50393 15.2896 9.62154C15.2939 9.64631 15.6907 10.1732 15.671 10.1974C15.5363 10.3793 15.5668 9.93824 15.7302 9.29461C15.7616 9.17262 15.8479 9.01654 15.9173 8.86594C16.0028 9.20745 16.1095 9.53751 16.0681 9.74784C15.9328 10.3393 15.0985 11.0997 15.2997 10.9075C15.3517 10.8288 15.5007 10.6681 15.6924 10.5162C15.8807 10.3587 16.1183 10.2093 16.2329 9.96184C16.4158 9.56889 16.0583 9.15015 15.4857 8.9343C15.243 9.11106 14.9286 9.63107 14.8636 9.7581C14.8581 9.76468 14.7147 9.85326 14.5475 10.1499C14.1712 10.7476 14.8657 9.76318 14.8636 9.7581C14.8248 9.82579 14.8218 9.91665 14.8876 10.0013C14.9495 10.0841 15.0813 10.1575 15.1568 10.1243C15.2386 10.0877 15.4847 9.51252 15.521 9.50342C15.9942 9.39008 16.6421 9.46048 17.3677 9.75126C17.8542 9.93926 18.283 10.1996 18.6636 10.537C18.6756 10.5572 18.334 11.1676 18.3661 11.2073C18.7958 11.7727 19.5387 11.1923 20.2294 10.9748C20.9191 10.7573 21.2006 11.0917 20.925 12.2976C21.3363 12.3377 21.5832 13.0577 21.7198 13.487C21.8561 13.9162 22.5061 12.7202 22.5428 12.7086C23.6942 12.3235 23.7835 13.2377 24.5187 13.7306C24.8668 13.9673 25.6911 14.1426 26.1529 14.1931C26.5185 14.2313 26.5748 14.6081 26.9492 14.5543C26.9994 14.5472 27.2102 13.9777 27.2317 13.9618C27.848 13.4452 27.0866 14.7259 27.0446 14.997C26.8929 15.9828 26.8428 16.5219 27.4404 16.288C27.581 16.2361 28.6924 14.3927 28.9031 14.3455C29.1795 14.2895 28.8047 14.9614 29.1016 14.8833C29.1266 14.8771 29.3017 14.4396 29.4306 14.5142C29.8099 14.7291 30.1782 15.0107 30.5498 15.2242C30.7995 15.3606 31.0637 15.4809 31.339 15.5569C31.4395 15.5864 31.5565 14.8361 31.7021 14.8657C32.3931 15.0081 33.1079 15.269 33.6521 15.8014C33.7859 15.9348 33.5332 16.4051 33.5227 16.5645C33.4688 17.5316 34.1635 16.3119 34.2197 16.3011C35.5756 16.0128 36.1684 17.4486 37.4717 17.133C37.5503 17.1154 38.3101 15.778 38.2741 17.0497C38.2696 17.1341 38.2467 18.4389 38.5898 17.607C38.61 17.5547 38.601 16.8811 38.8087 16.9861C39.0195 17.0914 39.4232 16.7088 39.6109 17.4676C39.6639 17.706 39.7455 19.0105 40.1248 18.0218C40.1684 17.9554 40.7248 15.6854 40.7274 17.282C40.7271 17.5444 40.6155 19.2312 40.9476 18.3797C41.0067 18.214 40.9295 17.8348 41.0688 17.6042C41.2658 17.2485 41.518 17.6975 41.6234 16.9371C41.6533 16.802 41.6123 15.6562 41.7283 16.5172C41.7509 16.6516 41.81 17.2122 41.8423 17.2715C42.0181 17.5575 41.8166 17.1641 41.5086 17.7544C41.4139 17.9638 41.9447 18.7085 41.9535 18.9925C41.9549 19.0466 41.9521 19.1037 41.9442 19.1605C41.6771 19.5727 41.4087 20.041 40.9259 20.2436C40.3212 20.5716 39.2596 19.2507 38.7428 20.3758C38.5228 20.9394 38.3931 21.6084 38.4128 22.326C38.2605 22.6433 38.7717 22.5326 38.8482 22.2463C38.7538 22.0239 38.6564 21.8115 38.5531 21.6177C38.445 21.415 38.1093 21.8533 37.9235 21.583C37.2199 20.5408 35.9489 19.6118 36.401 18.51C36.7153 17.558 37.6331 17.5422 37.6099 17.0008C37.574 16.7203 36.2973 17.843 36.2519 17.8742C35.9643 17.9806 35.9407 17.8991 35.9441 17.7904C35.952 17.6848 35.981 17.5532 35.9295 17.6558C35.9124 17.7005 35.5995 18.309 35.6002 18.346C35.6012 18.359 35.6045 18.3688 35.6098 18.376C35.2507 18.2563 35.0021 17.8729 34.6603 17.7728C34.4918 17.7253 34.3045 18.2141 34.1756 18.1113C33.867 17.8717 33.6507 17.5331 33.5162 16.9362C33.5035 16.8817 33.9772 16.3817 33.7302 16.2446C33.3322 16.0256 33.0122 15.3556 32.3385 15.6067C32.1368 15.6827 31.659 16.7768 31.6849 15.8899C31.6901 15.7047 32.3357 14.4211 31.4967 15.4097C31.3524 15.5716 30.1234 16.8656 30.2521 15.753C30.2868 15.4604 30.5399 14.2951 30.3001 14.396C30.2663 14.4139 30.1135 15.0445 29.9511 15.0455C29.3821 15.0385 28.8947 14.7695 28.3194 14.7608C28.1662 14.76 28.1231 15.4555 27.9037 15.4352C27.2991 15.38 26.6823 14.9677 26.2186 14.5788C26.0482 14.4342 26.3712 13.9665 26.3774 13.9051C26.4733 12.9049 25.8925 14.0926 25.7909 14.1377C25.1619 14.4013 25.0015 13.6933 24.5071 13.6994C24.3716 13.6997 24.259 14.3226 24.2171 14.3674C23.7954 14.802 24.3368 13.7967 24.2169 13.6263C23.8886 13.1551 23.3857 13.0371 22.9169 12.9727C22.9018 12.9697 22.8867 12.9668 22.8717 12.9638C22.6022 12.9106 22.6774 13.6963 22.434 13.6384C20.9863 13.2995 19.9034 12.7564 19.1741 12.0297C19.0376 11.8912 19.3528 11.4158 19.3665 11.2835C19.4636 10.3577 18.6782 11.356 18.566 11.4368C18.0434 11.8004 18.1053 11.2946 17.8078 11.2825C16.3346 11.2185 15.6001 10.7898 15.1607 10.6212C14.9183 10.5306 14.6889 10.4209 14.3937 10.3778C13.742 10.389 13.0085 10.5457 12.3739 11.0128C12.3065 11.0619 12.7556 11.6607 12.7058 11.7094C12.0726 12.289 11.2208 12.6152 11.0336 13.1519C11.0209 13.1908 11.5804 13.6226 11.5854 13.6925C11.6009 13.8379 11.5436 13.8555 11.3607 13.7242C11.2701 13.6644 10.7607 13.3375 10.6738 13.294C10.4659 13.1951 10.4404 13.1642 10.6096 13.0166C10.6851 12.9416 11.326 13.3119 11.379 13.1655C11.4071 13.0872 11.4364 12.9925 11.4624 12.8868C11.4436 13.0006 11.5409 12.7844 11.5371 12.0439C11.5388 11.3591 11.3048 9.69997 10.1187 8.24209C10.9474 9.34599 11.1636 9.91671 11.187 10.7733C11.1852 10.8634 10.1911 11.9446 10.5081 11.8608C10.7999 11.5769 11.1317 11.2321 11.4371 10.9225C12.5016 11.6342 13.4743 12.7685 15.3238 13.4624C15.399 13.4901 15.5089 12.7093 15.6524 12.7578C15.9844 12.8689 16.3317 12.9364 16.6877 13.0402C17.3432 13.2275 17.9719 13.4977 18.543 14.1111C18.6352 14.2108 18.2636 15.5274 18.6466 15.4056C18.7119 15.3827 19.2611 15.3231 19.4558 15.0627C19.4832 15.023 19.5332 14.3803 19.6987 14.3988C20.6474 14.514 21.5853 14.8573 22.4269 15.4069C22.5609 15.4964 22.2827 16.1362 22.3805 16.2064C23.074 16.6985 23.9669 16.3176 24.5683 17.0155C24.9785 17.4848 24.6654 18.6289 24.7989 19.8071C24.8177 19.9736 25.1172 20.03 25.0747 20.701C24.9628 22.3889 24.6116 24.2152 24.51 26.0161C24.4949 26.4054 25.0239 26.0328 24.6492 26.9412C24.6301 27.003 24.2123 27.2759 24.0888 27.5822C23.9983 27.7939 24.0496 28.4871 23.8797 28.7522C23.7148 29.0175 23.6233 28.4306 23.3664 28.7329C23.1015 29.0378 23.1022 29.8231 22.6437 29.8557ZM22.3418 15.4073C22.3138 16.1226 23.4119 13.9962 22.8777 14.3704C22.8506 14.3911 22.3426 15.3719 22.3418 15.4073ZM28.2385 9.92783C28.3277 8.81181 27.4798 10.137 27.3861 10.9849C27.2801 11.8271 28.2089 10.2653 28.2385 9.92783ZM31.9275 10.9501C31.9905 10.0169 30.2536 12.933 30.923 12.5337C30.9593 12.5104 31.9206 11.0026 31.9275 10.9501ZM23.5179 19.9746C23.5196 20.0071 23.7362 20.0692 23.7492 20.039C23.9722 19.3031 23.5373 19.1794 23.5179 19.9746ZM34.766 12.9488C35.0502 12.5613 34.3871 12.5667 34.0376 13.0491C33.7541 13.4333 34.4089 13.4248 34.766 12.9488ZM35.574 23.0481C35.5704 23.084 35.7297 23.1535 35.7711 22.9562C35.9039 22.3208 35.6353 22.4468 35.574 23.0481ZM38.2714 18.613C37.8622 17.6556 40.0394 15.7933 40.2766 16.859C40.3222 17.0543 39.2958 16.943 39.1966 17.2794C39.0246 17.9076 40.6935 17.2754 40.1179 18.1524C40.0128 18.3141 38.2909 18.6744 38.2671 18.6134C38.2685 18.6133 38.2699 18.6131 38.2714 18.613ZM21.2173 18.0576C21.2085 18.0886 21.4081 18.2207 21.4272 18.195C21.8779 17.5704 21.478 17.305 21.2173 18.0576ZM46.0294 23.9055C46.0604 23.9223 46.2499 23.7788 46.4019 23.5907C46.5565 23.4055 46.6658 23.1804 46.6437 23.1533C46.1703 22.6901 45.7435 22.8338 45.5956 22.9924C45.4547 23.1604 45.4461 23.5611 46.0294 23.9055ZM9.3878 7.54225C8.75257 6.93669 8.96855 6.24379 9.95795 6.47173C9.71687 6.78113 9.54371 7.15668 9.3878 7.54225Z" fill="var(--stroke-0, white)"/>
</svg>
