<svg preserveAspectRatio="none" width="100%" height="100%" overflow="visible" style="display: block;" viewBox="0 0 75.9399 48.8376" fill="none" xmlns="http://www.w3.org/2000/svg">
<path id="Vector 196" d="M65.2701 48.8275C64.8688 48.6256 64.7384 48.0775 64.7239 47.556C64.722 47.3976 65.0977 47.1906 65.1097 47.0675C65.1291 46.8224 64.8645 46.821 64.9081 46.5582C64.9237 46.4693 65.4988 46.1141 65.5026 46.0297C65.5228 45.5749 65.1832 45.4236 65.0696 45.0564C64.5082 43.2449 63.5362 41.7371 62.5292 40.1686C62.1922 39.6466 62.1375 38.6869 61.515 38.4113C61.4413 38.3788 61.0406 38.8136 60.9955 38.8365C60.3016 39.1837 61.2209 38.424 61.2363 38.2092C61.3067 37.3716 60.8984 36.8632 60.3547 36.6261C60.1196 36.5238 59.4406 37.5071 59.7487 36.8794C59.7691 36.8366 60.2618 36.4456 60.2645 36.3521C60.2669 36.1382 60.0006 36.024 59.9562 35.9072C59.8752 35.682 59.8452 35.6603 59.7043 35.5057C59.5107 35.2857 59.5077 34.8385 59.1899 34.7185C59.1212 34.6947 58.7251 35.2071 58.5745 35.21C58.4248 35.2136 58.2659 34.976 58.3117 34.8075C58.355 34.6364 58.7399 34.308 58.8105 34.215C59.4086 33.4322 58.2271 34.162 58.1748 34.1571C57.24 34.0282 57.3356 33.0407 56.8337 32.553C56.4543 32.1868 55.8641 31.9689 55.5283 31.5977C55.12 31.1443 54.9982 30.5476 54.5273 30.1844C54.4782 30.1456 54.0127 30.7441 53.9518 30.6979C53.496 30.3522 53.1139 29.963 52.8283 29.429C52.7262 29.2211 52.6432 28.9916 52.5814 28.7336C52.5605 28.6455 53.0742 28.216 53.0789 28.0977C53.1077 27.3901 53.3496 25.8809 51.3064 27.9378C51.1419 27.6564 50.9258 27.3349 51.0625 26.7044C51.1492 26.2978 51.7312 25.8355 51.3637 25.9409C51.2815 25.9642 50.9482 26.5053 50.8549 26.5032C50.464 26.4948 50.3101 26.1233 49.8648 26.2031C49.7736 26.2207 49.4547 26.6891 49.3804 26.7612C48.7779 27.3443 49.3745 26.0924 49.3849 25.9783C49.4707 25.1325 49.0448 25.1929 48.7289 24.9588C48.6553 24.9041 48.3212 25.596 48.2361 25.5667C47.8024 25.4077 47.4492 25.1013 47.2504 24.5778C47.2072 24.4599 47.6291 23.9595 47.6257 23.8748C47.6039 23.5069 46.9186 24.5222 46.886 24.1915C46.878 24.123 47.1887 23.6628 47.214 23.6068C47.6085 22.7266 46.8101 23.8273 46.7686 23.8371C46.2189 23.982 46.7247 22.6367 46.2818 22.6099C46.2287 22.6084 45.9653 23.2673 45.8388 23.2266C44.9935 22.9587 44.2886 22.3477 43.7823 21.441C43.7031 21.3009 44.0367 20.8811 44.0598 20.8198C44.4136 19.8573 43.694 21.0163 43.6314 21.0412C43.1504 21.2039 43.3854 20.0395 42.428 21.3693C41.367 20.1872 39.6341 20.3507 38.9194 18.3983C38.9095 18.3749 39.2298 17.7851 39.2087 17.741C38.9557 17.2029 38.5871 18.1815 37.7685 19.2029C37.5632 19.4595 38.0131 17.9704 38.0423 17.8595C38.1522 17.4518 38.6497 16.584 38.6613 16.5005C38.7413 15.8393 37.3642 18.8359 37.1123 18.7182C37.1068 18.7095 37.3989 18.1762 37.4035 18.1116C37.4186 17.9092 37.2504 18.0966 37.2748 17.8771C37.3332 17.3702 37.9597 15.894 37.3386 16.6326C37.2585 16.7288 36.5075 18.4427 36.3196 18.257C36.2455 18.1815 35.8311 18.0231 35.772 17.8617C35.7117 17.7 36.0432 17.1895 36.0464 17.1621C36.0819 16.2991 36.3357 16.053 36.6821 14.9124C37.0259 13.7755 35.884 16.337 35.6901 16.592C35.4972 16.8464 35.5541 16.1475 35.5958 15.9148C35.6378 15.682 35.8672 15.3663 35.8733 15.2264C35.9076 14.3098 35.1454 16.4229 34.8518 16.7772C34.6983 16.9627 34.6119 17.0107 34.5688 16.9696L34.6628 17.0108C34.5121 16.8758 34.8448 15.6104 34.7217 15.3889C34.6802 15.3126 34.5524 15.7719 34.4804 15.7905C34.1988 15.8586 34.3027 15.2008 33.8321 15.6529C33.7545 15.7263 33.0883 16.8063 33.2953 15.9012C33.3257 15.7709 33.5701 15.3104 33.5191 15.1652C33.4437 14.9477 33.2272 14.7403 33.0119 14.8418C32.8531 14.9171 32.6691 15.7622 32.6254 15.4601C32.606 15.3252 32.9048 14.9059 32.8527 14.6912C32.8008 14.4766 32.4901 14.379 32.3698 14.3508C32.2488 14.3228 32.0774 14.9511 32.0523 14.9882C31.9063 15.1996 31.5732 15.4057 31.5547 15.3977C30.5544 15.0967 30.0321 13.7335 28.9451 13.7171C28.8601 13.7149 28.6738 14.3743 28.6584 14.3806C28.3024 14.5543 29.1337 12.9252 29.1631 12.2883C28.7104 13.5986 28.6909 13.324 28.4564 13.3999C28.3429 13.4375 28.2061 13.959 28.1792 14.0076C27.7688 14.7254 28.0411 13.704 28.0915 13.4931C28.2773 12.7174 27.8627 13.5627 27.9854 13.0438C28.1063 12.5284 28.5085 11.8455 28.3293 11.791C28.1107 12.2394 27.7975 13.5052 27.593 13.6545C26.8244 14.2204 26.2366 12.929 25.8676 12.6865C25.5003 12.4442 25.3401 12.485 25.1645 12.2332C24.8477 11.7784 24.6848 12.7408 24.277 13.0647C23.8687 13.3887 24.7753 11.198 24.9046 10.7042C25.0344 10.2109 24.8213 10.6911 24.8665 10.4108C24.9117 10.1305 25.1262 9.83883 25.0509 9.70154C24.9753 9.56419 24.3789 10.3153 24.1667 10.8049C23.7169 11.8421 23.465 13.0066 23.3131 12.5145C23.3045 12.4855 23.561 11.9156 23.518 11.8342C23.1696 11.2075 22.6535 11.0001 22.2833 10.4279C22.2326 10.3483 22.5163 9.71324 22.4892 9.65946C22.2068 9.09696 21.9853 10.2543 21.3425 11.4066C21.9429 9.78758 22.1509 8.74346 21.8306 8.62588C21.6388 8.55485 21.4341 9.28119 21.1418 9.7439C21.0541 9.88352 21.0803 9.34689 20.9439 9.67516C20.498 10.7482 20.2184 12.0219 20.0518 11.4229C20.0451 11.3949 20.2898 10.8077 20.2519 10.7547C20.0082 10.4097 19.5895 11.5479 19.1968 11.574C18.8887 11.5944 18.6319 10.7341 18.3553 10.5191C18.9556 8.67383 18.5235 9.00184 17.9961 10.2379C17.809 10.1206 17.5693 10.1238 17.428 9.88521C17.3792 9.8037 17.593 9.28207 17.6027 9.22149C17.758 8.27189 17.2779 9.48535 17.2191 9.52033C16.5966 9.84456 16.4997 8.78135 15.7628 9.56346C15.7442 9.58348 15.5274 10.2311 15.4625 10.2608C15.4354 10.273 15.434 10.18 15.4827 9.89431C15.4945 9.827 15.825 9.28681 15.6241 9.17574C15.4248 9.06499 15.2291 8.25047 14.7527 8.7597C14.6385 8.88241 14.1421 9.87596 14.241 9.01348C14.2547 8.89643 14.3862 8.53224 14.4194 8.3177C14.5234 7.63355 14.0872 8.92516 14.3089 7.78377C14.5293 6.64205 14.5475 5.74361 14.0194 6.42135C14.0031 6.44078 13.6287 7.45636 13.5387 7.41241C13.3951 7.34131 13.2426 7.0631 13.0811 7.02405C13.004 7.00583 12.8677 7.66429 12.8512 7.67229C12.2404 7.8881 12.0402 7.21029 11.5622 6.80811C11.4729 6.73253 10.9449 7.53518 10.9403 6.78447C10.9346 5.96263 12.0242 2.84751 11.3173 3.46819C11.03 3.71538 9.69815 7.68153 9.89895 5.49611C9.06828 5.83022 8.70128 4.59107 7.81235 5.15541C7.77286 5.18038 7.38722 6.28505 7.31781 6.25118C7.21503 6.19864 7.28809 5.65531 7.21886 5.60093C6.93084 5.35947 6.51887 5.7374 6.22105 5.58945C6.10789 5.5345 6.28403 4.99774 6.14789 4.93195C6.01142 4.86666 5.74127 5.56418 5.63171 5.16891C5.54949 4.86795 5.75991 3.35903 5.60441 3.13982C5.2468 4.59188 5.11976 4.52954 4.79064 4.85668C4.72706 4.92023 4.65505 5.43817 4.61875 5.49435C4.46852 5.73424 4.48741 5.29527 4.33644 5.5595C4.29994 5.6229 4.1807 6.11948 4.14425 6.19937C3.83044 6.89776 3.86355 5.72505 3.86961 5.52097C3.8916 4.74561 3.66739 5.37518 3.61855 5.05637C3.56974 4.73762 3.83092 4.41497 3.73526 4.20601C3.53703 3.77371 3.15181 3.76837 2.86787 3.67826C2.75391 3.64538 2.67825 4.32767 2.65835 4.33838C2.38135 4.45148 2.30337 3.68911 1.86547 4.98158C2.49106 1.52259 1.64504 5.2801 1.46295 4.51679C1.44893 4.45522 1.78765 2.82943 1.94566 2.61571C2.10363 2.40223 2.14337 2.94404 2.37225 2.60698C2.4262 2.52792 2.97156 1.05718 3.01961 0.971575C3.3946 0.302392 2.86334 2.72622 2.84342 2.86149C2.63508 4.32286 3.25191 2.74551 3.34126 2.64743C3.7482 2.1974 3.91283 2.59435 4.23938 2.28205C4.45252 2.08071 4.84135 0.502598 4.95382 0.580276C5.32975 0.838157 4.94569 3.0773 5.79129 1.25837C5.97228 0.870647 6.3041 -0.876613 6.2778 0.553736C6.27679 0.644051 6.19747 1.93939 6.51623 1.18506C6.55639 1.08994 6.67796 0.586731 6.70957 0.549651C6.91952 0.311156 6.91651 0.734899 7.11918 0.581103C7.32215 0.427388 7.5799 0.18748 7.71617 0.402023C7.79876 0.530569 7.70432 1.50091 7.69799 1.74267C7.67737 2.4385 8.10273 1.39517 7.99237 2.21674C7.88028 3.04217 7.40081 4.2181 7.50315 4.79533C7.83969 3.49309 8.19638 2.15931 8.54064 0.851153C9.05088 1.0284 9.45473 1.58064 9.99057 1.6588C10.0575 1.66724 10.1735 0.950255 10.2503 0.941346C10.5742 0.907172 10.6986 1.47295 11.0546 1.3552C11.3311 1.26147 11.7881 0.591387 12.0864 0.472303C11.8371 1.99915 12.3353 1.59327 12.5641 1.80227C12.6436 1.87459 12.5281 2.26914 12.558 2.41653C12.6736 2.96313 12.9208 1.6204 13.0465 1.43314C13.586 0.635067 12.7816 3.60653 13.1441 3.62951C13.1623 3.63148 13.8299 2.11497 13.8892 2.02562C14.2669 1.44017 13.7656 2.58421 13.8546 2.73556C14.0176 3.01234 14.06 3.43206 14.4552 3.04582C14.5704 2.93087 15.0366 2.00104 14.9641 2.80389C14.9546 2.90902 14.7922 3.42664 14.7989 3.46168C14.9342 4.05266 15.4169 2.41835 15.7428 1.9125C16.0688 1.40682 15.987 2.60956 15.9399 2.94932C15.8222 3.82939 15.7321 3.27865 15.7006 3.35912C15.3262 4.31662 15.5556 4.20057 15.6688 4.32461C15.212 5.93208 15.432 5.89308 15.7882 4.44683C15.8267 4.28872 15.6747 4.40599 15.6688 4.32461C16.2573 2.78918 16.5354 2.65308 16.3268 4.19033C16.2291 4.91093 15.8836 5.68098 16.3039 5.48826C16.4931 5.40118 16.7698 4.28275 16.9942 4.02315C17.1746 3.81495 17.3026 3.82226 17.4086 3.91649C17.6003 4.08903 17.7171 4.55681 17.9522 4.51505C18.0835 4.49153 18.1601 3.85584 18.2565 3.81912C18.5129 3.71987 18.5563 4.22853 18.8344 4.06215C18.8599 4.04634 19.0117 3.40296 19.0786 3.41517C19.5913 3.49613 19.8897 4.0341 20.3929 4.20806C20.6377 4.29226 21.1869 4.08781 21.4198 4.2407C21.822 4.5008 22.0618 5.58915 22.5088 5.49225C22.7993 5.43166 22.9542 4.78829 23.2011 4.39694C23.68 3.63845 23.5433 5.23797 23.5138 5.48293C23.5126 5.49095 23.2536 5.56803 23.2577 5.92646C23.0982 6.61691 23.5104 5.48501 23.5138 5.48293C23.4957 5.64138 23.8668 5.92437 23.99 5.83305C24.0572 5.78307 24.2322 5.1827 24.2635 5.16784C25.0041 4.8282 25.6195 4.87081 26.0927 5.34344C26.0985 5.35883 25.8552 6.01413 25.8718 6.04205C26.0984 6.44918 26.5881 5.71438 27.0274 5.33009C27.4663 4.94596 27.6262 5.18225 27.3883 6.37036C27.643 6.29981 27.7582 6.90314 27.8188 7.26617C27.879 7.62902 28.3582 6.35567 28.3821 6.33562C29.1335 5.68947 29.1396 6.51879 29.5779 6.80582C29.7848 6.94417 30.3051 6.92324 30.6021 6.87357C30.8385 6.83242 30.8468 7.17506 31.0964 7.04969C31.1301 7.03308 31.3148 6.45562 31.3303 6.43647C31.7815 5.83038 31.173 7.18424 31.1227 7.44757C30.94 8.40521 30.8545 8.91958 31.2665 8.58994C31.3607 8.51439 32.2763 6.58018 32.4293 6.50419C32.6259 6.4087 32.3052 7.1047 32.5172 6.98635C32.5351 6.97688 32.6978 6.53435 32.7813 6.58786C33.1732 6.83114 33.5376 7.26232 33.9915 7.38526C34.0536 7.40402 34.2431 6.67588 34.3374 6.69159C34.7783 6.76538 35.2165 6.96443 35.487 7.44595C35.5531 7.56681 35.3008 8.03037 35.2655 8.18348C35.0527 9.11031 35.7348 7.90981 35.775 7.89768C36.7465 7.57451 36.8447 8.9461 37.8107 8.70532C37.84 8.6969 38.1134 8.32563 38.2995 8.1911C38.352 8.22526 38.5351 8.28019 38.586 8.3166C38.742 8.21082 38.8307 8.26404 38.6505 8.80778C38.6244 8.88782 38.2124 10.1141 38.6975 9.3702C38.7278 9.32365 38.9261 8.68595 39.0386 8.81263C39.1501 8.93876 39.5653 8.6445 39.4531 9.3946C39.4181 9.63105 39.0208 10.8609 39.6359 10.0199C39.6763 9.95997 40.9435 8.00069 40.3685 9.49261C40.2736 9.73807 39.5403 11.2583 40.1267 10.5775C40.2398 10.4453 40.3238 10.0688 40.5339 9.90782C40.8553 9.65846 40.8918 10.1752 41.421 9.59356C41.5142 9.49033 42.1591 8.52802 41.9118 9.37292C41.8733 9.50535 41.5949 9.99694 41.6343 10.0854C41.8212 10.5085 42.3065 10.322 42.4613 10.8282C42.5154 11.006 42.0643 11.7999 42.0761 12.0762C42.088 12.3525 42.22 12.6764 42.5252 12.3616C42.8297 12.0461 43.3256 10.6734 43.5624 10.6588C44.5925 10.5966 45.0233 11.7575 45.7804 12.2793C45.8924 12.3567 46.0259 11.842 46.2095 11.924C46.8822 12.2197 48.2628 12.3908 48.3158 13.6753C48.3523 14.6999 47.4602 14.9828 47.6339 15.4858C47.7151 15.7251 48.7081 14.3446 48.775 14.3207C49.4342 14.0671 49.351 14.8772 49.8202 14.8798C49.9177 14.8805 50.1829 14.2443 50.2632 14.2521C50.5413 14.2739 50.6177 14.6704 50.8527 14.7428C50.9598 14.7745 51.2063 14.3134 51.2727 14.399C51.4345 14.5989 51.5045 14.8958 51.4529 15.4359C51.4479 15.4849 50.9919 15.9693 51.1297 16.0802C51.3548 16.2589 51.3987 16.8515 51.9399 16.6008C52.1012 16.5244 52.7387 15.5144 52.4793 16.3253C52.4255 16.4951 51.6116 17.6766 52.4807 16.7605C52.6229 16.6066 53.8806 15.4271 53.4689 16.4448C53.3607 16.7126 52.8329 17.7693 53.0316 17.6793C53.0612 17.6636 53.3599 17.0923 53.4767 17.0943C53.882 17.1109 54.1497 17.3735 54.5606 17.4126C54.6719 17.4225 54.9286 16.7933 55.0836 16.8266C55.5111 16.9177 55.8284 17.35 56.0253 17.751C56.0971 17.8998 55.6913 18.2843 55.6647 18.3389C55.2248 19.2228 56.0822 18.2232 56.1742 18.196C56.7315 18.0382 56.5756 18.694 56.9316 18.7621C57.0293 18.7826 57.3616 18.248 57.41 18.2147C57.8932 17.8987 57.0936 18.7021 57.1105 18.8722C57.1547 19.3512 57.4699 19.5376 57.7792 19.6861C57.8934 19.7401 58.2449 19.0896 58.3431 19.1455C58.9342 19.4664 59.4206 19.9732 59.6348 20.7011C59.6743 20.8391 59.2445 21.2051 59.1781 21.3171C58.7083 22.0956 59.7086 21.3576 59.832 21.3132C60.2027 21.1716 60.2108 21.3209 60.2446 21.4617C60.2562 21.5266 60.2742 21.5894 60.3451 21.6137C61.3953 21.9639 62.0648 23.0478 62.6086 23.8504C63.3114 24.886 63.6283 25.938 64.5587 26.6652C64.6168 26.7115 65.0878 26.1308 65.1447 26.164C65.8672 26.6282 66.2417 27.4168 66.9792 27.8617C67.0384 27.8988 67.4733 27.3349 67.5854 27.3781C67.8209 27.465 68.0006 27.7041 67.9985 28.025C67.9986 28.1809 67.4601 28.4951 67.4688 28.6431C67.4868 28.9873 67.6446 29.2229 67.9156 29.3417C68.0314 29.3906 68.4307 28.765 68.5409 28.8677C69.2919 29.5464 70.0869 30.2086 70.0987 31.5989C70.1002 31.6951 69.0642 32.7342 69.3718 32.6534C69.679 32.3864 70.031 32.0622 70.3546 31.7716C71.5355 32.7111 72.1454 34.1601 73.0675 35.3611C73.1062 35.4113 73.626 34.8237 73.7041 34.9187C74.166 35.4784 74.7768 35.8736 74.6547 36.9457C74.643 37.051 73.5549 37.8786 73.8542 37.9195C73.9087 37.9267 74.2544 38.0649 74.5363 37.9426C74.5782 37.9234 75.0395 37.479 75.1184 37.5477C75.583 37.9732 75.8716 38.5786 75.9398 39.3132C75.9494 39.432 75.3438 39.7575 75.3454 39.845C75.361 40.4624 76.1081 40.6051 75.8929 41.3651C75.7463 41.875 74.7166 42.4533 73.8674 43.2544C73.7515 43.373 73.8319 43.5331 73.2899 43.9315C71.9166 44.9183 70.3444 45.9006 68.8876 46.9624C68.5769 47.1954 69.0436 47.1346 68.2001 47.5645C68.1438 47.5934 67.7942 47.6363 67.5134 47.7902C67.3178 47.8945 66.7854 48.3265 66.5236 48.4437C66.2591 48.5567 66.7011 48.1886 66.378 48.3052C66.0505 48.4227 65.4452 48.9135 65.2701 48.8275ZM28.0895 8.88984C28.0233 9.5601 28.8545 7.31624 28.4933 7.79489C28.4749 7.8207 28.0923 8.85681 28.0895 8.88984ZM9.00132 3.32839C8.94551 4.40381 9.47784 2.93877 9.53388 2.11132C9.58855 1.28448 9.01735 3.00218 9.00132 3.32839ZM6.6574 3.53359C6.69994 4.40099 7.5521 1.11648 7.12592 1.71795C7.10141 1.75184 6.65477 3.48319 6.6574 3.53359ZM73.1579 42.8282C73.1341 42.8494 73.188 42.9765 73.2149 42.9599C73.8733 42.5734 73.7629 42.3166 73.1579 42.8282ZM4.32693 3.83488C4.29657 4.29933 4.63675 3.83554 4.67455 3.25791C4.70455 2.79309 4.36414 3.25696 4.32693 3.83488ZM35.1558 14.3046C35.1442 14.3383 35.2206 14.4042 35.2949 14.2168C35.5339 13.6132 35.3422 13.733 35.1558 14.3046ZM0.697996 3.03208C1.20413 3.27943 0.899048 6.0853 0.38878 5.64341C0.296282 5.56343 0.816014 4.82453 0.7386 4.54745C0.596227 4.04235 0.0395407 5.72012 4.93228e-05 4.74346C-0.00664626 4.56483 0.670559 3.01191 0.69982 3.02849C0.699211 3.02968 0.698607 3.03088 0.697996 3.03208ZM27.2082 11.627C27.2006 11.6579 27.3129 11.7301 27.3264 11.7016C27.6498 11.0106 27.4229 10.8645 27.2082 11.627ZM39.5138 17.9578C39.4903 18.0212 39.7348 18.209 39.7706 18.1574C40.453 17.1073 39.958 16.7232 39.5138 17.9578ZM18.3662 10.4682C17.9978 11.1525 17.8126 11.1877 17.9964 10.239C18.1156 10.3306 18.246 10.3802 18.3662 10.4682Z" fill="var(--stroke-0, #FF5151)"/>
</svg>
