<svg preserveAspectRatio="none" width="100%" height="100%" overflow="visible" style="display: block;" viewBox="0 0 16.4663 51.5737" fill="none" xmlns="http://www.w3.org/2000/svg">
<path id="Vector 193" d="M0.0773473 50.9673C-0.126534 50.6577 0.10289 50.2809 0.413883 49.9931C0.510275 49.9076 0.933491 49.9595 1.01915 49.8992C1.18627 49.7746 0.980217 49.6655 1.17889 49.5422C1.2468 49.5018 1.91749 49.5652 1.9733 49.5235C2.27416 49.3053 2.10717 49.0795 2.2542 48.8507C2.97967 47.7219 3.25333 46.5943 3.58139 45.4476C3.68907 45.0647 4.30752 44.6107 4.04846 44.2166C4.01764 44.1696 3.42762 44.1859 3.3792 44.1761C2.63808 44.0229 3.82725 44.092 3.98713 44.0033C4.61811 43.6682 4.6804 43.2552 4.45927 42.9211C4.36356 42.7741 3.18987 42.8974 3.84991 42.7632C3.89451 42.7538 4.51979 42.8031 4.58733 42.7642C4.73132 42.6809 4.64137 42.5171 4.67502 42.439C4.67687 42.435 4.67909 42.4312 4.68175 42.4277C4.78306 42.2977 4.77719 42.2755 4.78678 42.1489C4.80532 41.9766 5.12065 41.7684 4.98246 41.5772C4.95109 41.5374 4.30836 41.5768 4.20038 41.5122C4.09256 41.4476 4.15022 41.2813 4.30261 41.2271C4.45506 41.1731 4.95897 41.2071 5.07477 41.1993C6.05217 41.1355 4.70455 40.911 4.67163 40.8845C4.111 40.4177 4.88871 40.0301 4.89479 39.605C4.89773 39.2844 4.65072 38.9121 4.69144 38.612C4.74256 38.2476 5.09673 37.9245 5.0438 37.5726C5.03896 37.5348 4.28359 37.5643 4.27617 37.518C4.19802 37.0217 4.28979 36.5353 4.8088 36.0518C4.86151 36.0031 5.52272 36.0802 5.61499 36.0323C6.16549 35.7316 7.48234 35.295 4.60167 35.0553C4.71829 34.853 4.83963 34.6013 5.42451 34.4346C5.80099 34.3252 6.52044 34.4528 6.21532 34.3031C6.14734 34.2693 5.51451 34.2992 5.46037 34.2494C5.23301 34.0398 5.44287 33.8178 5.12037 33.605C5.05329 33.5617 4.48676 33.5621 4.38502 33.5482C3.56115 33.43 4.92947 33.2976 5.02939 33.2632C5.77444 33.0072 5.48723 32.8021 5.51031 32.5462C5.51598 32.4868 4.75394 32.5423 4.73207 32.4845C4.62895 32.1816 4.70009 31.8884 5.04332 31.6044C5.12148 31.5416 5.76828 31.6134 5.83879 31.5841C6.14179 31.4544 4.91856 31.4003 5.18554 31.2749C5.24026 31.2484 5.79465 31.2747 5.85567 31.2709C6.81352 31.2109 5.45984 31.1158 5.43033 31.0949C5.0265 30.835 6.44421 30.7025 6.24872 30.4533C6.2239 30.4235 5.52075 30.4759 5.4939 30.3928C5.31104 29.8335 5.51504 29.2667 6.0872 28.7283C6.17521 28.6448 6.70126 28.7159 6.76636 28.7119C7.78362 28.6444 6.42403 28.5607 6.37333 28.5322C6.00867 28.3099 7.15375 28.1302 5.53594 27.9508C6.11655 27.036 5.22444 26.101 6.69421 25.222C6.71126 25.2107 7.381 25.2446 7.41212 25.2221C7.79388 24.9504 6.7513 24.9834 5.48112 24.7731C5.16217 24.7201 6.7029 24.6079 6.81588 24.5974C7.2322 24.5596 8.22826 24.6269 8.30902 24.6131C8.94327 24.4976 5.64569 24.455 5.64795 24.2854C5.65356 24.2802 6.26 24.3143 6.32062 24.3013C6.51093 24.2609 6.27064 24.2123 6.48039 24.1732C6.96574 24.0836 8.56856 24.0798 7.63911 23.9097C7.51847 23.8881 5.64761 23.8808 5.73895 23.7304C5.77695 23.6705 5.75018 23.4006 5.87287 23.3272C5.99542 23.2539 6.59709 23.3177 6.6233 23.3128C7.42426 23.1247 7.75305 23.2081 8.93495 23.1295C10.1124 23.052 7.30828 23.0248 6.99617 22.9776C6.68494 22.9303 7.34539 22.7956 7.5747 22.7637C7.80409 22.7319 8.18618 22.7847 8.31622 22.755C9.16593 22.5573 6.92648 22.6336 6.4829 22.5541C5.43257 22.3667 7.51426 22.2774 7.721 22.128C7.77684 22.0876 7.30264 22.1122 7.25908 22.0743C7.09284 21.9246 7.74332 21.8488 7.15177 21.6702C7.05536 21.6414 5.80795 21.4835 6.72701 21.4151C6.85953 21.4055 7.37696 21.4505 7.49424 21.3908C7.67023 21.3018 7.78675 21.1371 7.61553 21.0339C7.48885 20.9577 6.63346 21.0254 6.90049 20.9378C7.01972 20.8989 7.51765 20.9852 7.69999 20.9112C7.88226 20.8377 7.86421 20.6397 7.84844 20.564C7.8323 20.4885 7.18389 20.5169 7.14039 20.51C6.8912 20.4683 6.58177 20.3177 6.58279 20.3049C6.51625 19.667 7.61954 19.0928 7.27046 18.4647C7.24401 18.4154 6.56047 18.4345 6.54939 18.4268C6.26656 18.2543 8.07963 18.4216 8.68966 18.3169C7.30353 18.3065 7.5558 18.2426 7.40614 18.1217C7.3329 18.0634 6.7957 18.0838 6.74087 18.0776C5.92751 17.9773 6.98137 17.9392 7.19701 17.9283C7.99028 17.888 7.05548 17.8087 7.58573 17.7811C8.11202 17.7534 8.8894 17.8563 8.88165 17.7427C8.3862 17.7011 7.08819 17.7598 6.87978 17.6696C6.09149 17.3265 7.12043 16.7461 7.23123 16.4867C7.34192 16.2286 7.25205 16.1424 7.43432 15.9938C7.76389 15.7252 6.8001 15.8066 6.36318 15.6287C5.92632 15.4503 8.29122 15.5794 8.80044 15.565C9.30942 15.551 8.78648 15.5146 9.06661 15.4902C9.34667 15.466 9.69131 15.5372 9.79763 15.4693C9.90384 15.4014 9.00295 15.192 8.47149 15.1567C7.34557 15.082 6.16107 15.1452 6.58032 14.9676C6.6052 14.9574 7.22678 15.0044 7.29048 14.9647C7.7759 14.6499 7.81232 14.3086 8.24234 13.9954C8.30245 13.9521 8.99392 14.0055 9.03673 13.9804C9.48482 13.7194 8.3157 13.7929 7.02197 13.6193C8.74687 13.6865 9.80418 13.6255 9.81841 13.4204C9.82757 13.2971 9.07352 13.3035 8.54393 13.2131C8.38428 13.186 8.90347 13.1087 8.54936 13.0858C7.39183 13.0107 6.09327 13.0677 6.61387 12.8656C6.6386 12.8567 7.27219 12.8989 7.31123 12.8674C7.56673 12.6638 6.35536 12.6163 6.213 12.3897C6.1013 12.2123 6.8464 11.9147 6.97053 11.7167C8.91047 11.7592 8.46995 11.5612 7.13386 11.458C7.19118 11.3291 7.11835 11.1859 7.30569 11.065C7.36957 11.0232 7.9307 11.0625 7.99149 11.0583C8.94519 10.9938 7.64495 10.9119 7.59448 10.8829C7.10451 10.5702 8.09569 10.3423 7.13749 10.033C7.10297 10.022 5.7557 9.9788 6.74119 9.92053C6.80911 9.91684 7.42036 10.0248 7.47046 9.88914C7.52067 9.75326 8.24815 9.50993 7.62741 9.30913C7.47798 9.26047 6.38628 9.12328 7.24285 9.04719C7.35916 9.0371 7.74538 9.05825 7.96081 9.04462C8.64724 9.00035 7.28578 8.942 8.44428 8.89685C9.60272 8.85168 10.4721 8.72744 9.6775 8.52053C9.65441 8.51398 8.57572 8.44747 8.59397 8.38766C8.62404 8.2922 8.85163 8.16022 8.84657 8.05968C8.84376 8.01153 8.17279 8.0291 8.16069 8.02052C7.79136 7.69187 8.3935 7.47466 8.65967 7.13453C8.70979 7.07221 7.79922 6.87223 8.52436 6.76375C9.31818 6.64456 12.6066 6.84792 11.8286 6.52257C11.5174 6.39181 7.34515 6.15225 9.51281 5.97095C8.98531 5.52646 10.1004 5.14487 9.34357 4.69434C9.31005 4.67411 8.14596 4.58929 8.16272 4.54359C8.18987 4.47579 8.73525 4.449 8.77209 4.40092C8.94018 4.19969 8.47788 4.00324 8.55425 3.80726C8.58206 3.73281 9.1447 3.77012 9.17794 3.68131C9.21065 3.59254 8.47025 3.51834 8.83079 3.4042C9.10559 3.31804 10.6231 3.25633 10.8022 3.13878C9.30717 3.10472 9.33961 3.02214 8.94784 2.86643C8.87183 2.83648 8.35084 2.85672 8.28804 2.84203C8.02091 2.78201 8.45319 2.73982 8.16226 2.68207C8.09239 2.66804 7.58181 2.65739 7.49586 2.64534C6.74565 2.5426 7.89704 2.42027 8.0975 2.39931C8.85885 2.31883 8.19564 2.26115 8.49615 2.19382C8.79663 2.12661 9.1683 2.24327 9.35145 2.16145C9.73027 1.99189 9.6523 1.76244 9.6793 1.5833C9.68692 1.51181 9.00439 1.54724 8.98965 1.5367C8.8197 1.38522 9.54765 1.24965 8.19163 1.14077C11.704 1.10714 7.85291 1.04472 8.5598 0.846671C8.61696 0.831102 10.2774 0.842548 10.5198 0.911435C10.762 0.9803 10.2412 1.06724 10.6194 1.1636C10.7081 1.1864 12.2613 1.33758 12.3552 1.35587C13.0891 1.49919 10.608 1.46858 10.4717 1.47272C8.99978 1.52104 10.6727 1.70122 10.7877 1.74249C11.3148 1.93074 10.9629 2.07485 11.3387 2.2309C11.5816 2.3329 13.2063 2.37439 13.1551 2.4497C12.9857 2.70002 10.7172 2.74385 12.6779 3.02125C13.0961 3.08068 14.8731 3.06482 13.473 3.22064C13.3847 3.23042 12.1045 3.34135 12.911 3.43626C13.0127 3.44817 13.5303 3.45805 13.5735 3.47197C13.853 3.56505 13.4396 3.61531 13.6352 3.71452C13.8308 3.81372 14.1229 3.93409 13.9452 4.03938C13.839 4.10284 12.873 4.16791 12.6363 4.19462C11.9544 4.26978 13.0676 4.38663 12.243 4.42522C11.4142 4.4642 10.1592 4.3314 9.62156 4.4658C10.9662 4.49765 12.3462 4.53715 13.6984 4.5724C13.6448 4.88855 13.2038 5.19375 13.2569 5.51411C13.2648 5.55386 13.9886 5.52761 14.0157 5.57059C14.127 5.7518 13.6086 5.89788 13.8102 6.0872C13.969 6.23383 14.7313 6.40605 14.9212 6.5596C13.3806 6.62124 13.8986 6.85487 13.7548 7.01411C13.7051 7.06991 13.2942 7.05802 13.1593 7.09574C12.6605 7.23819 14.0217 7.19363 14.2348 7.23956C15.1446 7.4365 12.0665 7.39122 12.1384 7.60345C12.1412 7.61468 13.7791 7.78338 13.8809 7.80417C14.5447 7.9366 13.3095 7.81269 13.1868 7.88496C12.9626 8.01695 12.5689 8.10354 13.0463 8.27398C13.1877 8.32363 14.208 8.45613 13.4153 8.53145C13.3115 8.54137 12.7694 8.52409 12.7374 8.53308C12.2046 8.69684 13.9084 8.73493 14.4835 8.84574C15.0585 8.95656 13.8793 9.08686 13.5397 9.1114C12.6611 9.17581 13.1661 9.04144 13.0801 9.03531C12.057 8.96317 12.2311 9.07857 12.1429 9.16233C10.4719 9.14182 10.5699 9.26326 12.0581 9.24927C12.2207 9.24755 12.0662 9.17799 12.1429 9.16233C13.7806 9.26961 13.9879 9.40505 12.4533 9.51973C11.734 9.57349 10.8982 9.49251 11.2004 9.70504C11.3368 9.80181 12.4878 9.78812 12.7998 9.87726C13.5117 10.0809 12.4337 10.3057 12.599 10.5038C12.659 10.5757 13.29 10.5192 13.3527 10.5688C13.5211 10.7003 13.0464 10.804 13.2859 10.9373C13.3084 10.9493 13.9681 10.9339 13.9757 10.974C14.0463 11.2774 13.6189 11.5356 13.601 11.8526C13.5926 12.0058 13.9507 12.2867 13.8745 12.4436C13.7464 12.7148 12.7812 13.0352 13.0094 13.2753C13.1554 13.4318 13.8154 13.4111 14.2633 13.4856C15.1315 13.6296 13.5674 13.8229 13.3253 13.8483C13.3173 13.8491 13.1645 13.7143 12.8246 13.7779C12.1186 13.8049 13.3223 13.8468 13.3253 13.8483C13.1689 13.8651 13.0141 14.1249 13.1391 14.1794C13.2074 14.2091 13.8324 14.2055 13.8562 14.2208C14.4083 14.5828 14.56 14.942 14.2609 15.2926C14.2482 15.2986 13.5497 15.2754 13.5284 15.2898C13.2137 15.4902 14.0659 15.639 14.57 15.8188C15.0739 15.9981 14.9013 16.1321 13.6998 16.2095C13.8483 16.3416 13.3144 16.516 12.9905 16.6159C12.6667 16.7158 14.0265 16.7574 14.0532 16.7672C14.908 17.0758 14.1263 17.2264 13.9992 17.5274C13.9364 17.6709 14.128 17.9609 14.2737 18.1195C14.3911 18.2449 14.0709 18.3127 14.2725 18.4298C14.2994 18.4456 14.9053 18.4421 14.9285 18.4472C15.6506 18.5877 14.1713 18.4979 13.9064 18.5188C12.943 18.5942 12.4298 18.6425 12.879 18.8125C12.9818 18.8513 15.1113 19.0028 15.2346 19.0738C15.391 19.1659 14.6276 19.1173 14.8109 19.2141C14.8259 19.2224 15.2973 19.23 15.2753 19.287C15.1798 19.552 14.8998 19.8362 14.9417 20.112C14.9456 20.1496 15.6942 20.1162 15.7122 20.1708C15.7958 20.4251 15.7626 20.7094 15.4077 20.9514C15.318 21.0111 14.7953 20.9623 14.6396 20.9726C13.6974 21.0359 15.0617 21.1787 15.0874 21.1983C15.7351 21.6659 14.4916 21.9904 15.0712 22.4687C15.1052 22.4947 16.5663 22.7183 15.3083 22.7802C15.2246 22.7845 13.9375 22.845 14.8148 22.9379C14.8697 22.9437 15.5325 22.9034 15.4632 22.9951C15.3941 23.0874 15.8331 23.2432 15.1035 23.3596C14.8736 23.3961 13.5895 23.4678 14.6092 23.6097C14.6804 23.6191 16.9879 23.8526 15.392 23.8881C15.1293 23.8938 13.4421 23.8494 14.3044 24.0112C14.4716 24.0421 14.849 23.9993 15.0826 24.0768C15.4426 24.1955 14.9877 24.3341 15.7368 24.4853C15.8694 24.5118 17.0127 24.6352 16.1418 24.6996C16.0054 24.7099 15.4425 24.6743 15.3786 24.7166C15.0721 24.9179 15.4447 25.1413 15.0509 25.3422C14.9124 25.4134 14.0025 25.3578 13.7569 25.4299C13.5114 25.502 13.2737 25.652 13.6883 25.7402C14.1031 25.8285 15.5563 25.7696 15.6701 25.8917C16.1642 26.4266 15.3025 26.9332 15.1677 27.4505C15.1476 27.5286 15.6682 27.4738 15.6758 27.5895C15.706 28.0188 16.179 28.7449 15.068 29.0974C14.1783 29.3747 13.5126 28.9908 13.1484 29.2087C12.9747 29.3139 14.6599 29.4639 14.7125 29.491C15.2472 29.7574 14.4963 29.913 14.7211 30.1521C14.7677 30.2009 15.4526 30.1673 15.4847 30.2087C15.6006 30.3502 15.2925 30.4898 15.3457 30.6228C15.3712 30.6824 15.8938 30.6818 15.8524 30.7353C15.7594 30.8635 15.5376 30.9737 15.0455 31.0899C15.0007 31.1005 14.3524 31.0105 14.3263 31.1054C14.2861 31.2566 13.7992 31.4466 14.2944 31.6358C14.4434 31.6922 15.6373 31.7178 14.8105 31.8162C14.6379 31.8369 13.2049 31.7783 14.4409 31.9357C14.6463 31.9622 16.3128 32.218 15.2337 32.3055C14.9496 32.3287 13.7751 32.3789 13.9582 32.4457C13.9875 32.4549 14.6294 32.4328 14.6909 32.4869C14.8965 32.6805 14.8242 32.8766 15.0213 33.0726C15.0752 33.1249 15.7403 33.0616 15.7995 33.1391C15.9631 33.3537 15.7891 33.6051 15.5773 33.8105C15.498 33.8856 14.9493 33.8219 14.8894 33.8263C13.9146 33.8969 15.2269 33.9754 15.3029 34.0065C15.7579 34.1997 15.1382 34.327 15.2982 34.4978C15.3407 34.5449 15.9675 34.5244 16.0232 34.5347C16.5669 34.6407 15.4437 34.5477 15.3185 34.6056C14.9643 34.766 15.0108 34.959 15.0874 35.1347C15.1165 35.1991 15.844 35.1416 15.8617 35.1992C15.9802 35.5429 15.9041 35.8759 15.4972 36.2057C15.4193 36.2666 14.861 36.2164 14.733 36.2269C13.8378 36.2991 15.054 36.4533 15.1695 36.4855C15.6969 36.6319 15.2014 36.6748 15.2914 36.7957C15.7394 37.3928 15.3978 38.1058 15.1846 38.6621C14.9103 39.3733 14.3674 39.9238 14.4921 40.6204C14.4993 40.664 15.244 40.6347 15.2597 40.6724C15.4297 41.1583 15.1298 41.6301 15.335 42.1297C15.3505 42.1703 16.0568 42.1259 16.1054 42.1915C16.2101 42.3262 16.1686 42.4907 15.9409 42.616C15.8318 42.6768 15.2339 42.5816 15.1312 42.6414C15.1307 42.6418 15.1302 42.6421 15.1297 42.6424C14.8998 42.7951 14.8464 42.9595 14.9564 43.1171C15.0048 43.1841 15.7279 43.0984 15.7346 43.1843C15.7948 43.7726 15.9077 44.3609 14.9625 44.9326C14.8975 44.9731 13.4311 44.9817 13.7105 45.0744C14.1171 45.0888 14.5956 45.0976 15.0304 45.1089C15.2481 45.9724 14.7238 46.8086 14.629 47.667C14.6252 47.7041 15.403 47.6546 15.3995 47.7264C15.3805 48.1258 15.5881 48.5346 14.8085 48.9315C14.7323 48.9716 13.3664 48.9263 13.5708 49.05C13.6081 49.0694 13.7869 49.2587 14.0827 49.3115C14.1273 49.3187 14.7656 49.2972 14.7831 49.3561C14.8737 49.6998 14.7216 50.0554 14.3261 50.3868C14.261 50.4388 13.5829 50.3706 13.5307 50.4073C13.1654 50.676 13.6765 50.9872 13.0563 51.2314C12.6388 51.3942 11.4656 51.3159 10.309 51.3915C10.1457 51.4047 10.1192 51.5005 9.44685 51.5032C7.75591 51.5135 5.90467 51.4477 4.10226 51.4632C3.71386 51.4729 4.13195 51.6414 3.19386 51.5429C3.13096 51.5382 2.82018 51.3931 2.50235 51.3589C2.28253 51.3351 1.59833 51.3694 1.31711 51.3206C1.03619 51.2695 1.6099 51.2308 1.27992 51.1556C0.945797 51.0864 0.167547 51.0989 0.0773473 50.9673ZM11.5429 17.0651C10.8878 17.1503 13.2799 17.2118 12.7096 17.0946C12.6792 17.0888 11.5751 17.0607 11.5429 17.0651ZM11.3993 5.15626C10.3416 5.26429 11.8914 5.38292 12.7081 5.30813C13.5239 5.23334 11.72 5.12332 11.3993 5.15626ZM10.6552 3.80787C9.82031 3.94187 13.2122 4.03232 12.5296 3.85777C12.491 3.84764 10.7037 3.80003 10.6552 3.80787ZM9.9858 50.96C9.95404 50.9589 9.9218 51.0404 9.95328 51.042C10.7125 51.0958 10.7763 50.9382 9.9858 50.96ZM9.84257 2.4681C9.38276 2.50599 9.90983 2.65147 10.4816 2.60442C10.9416 2.56655 10.4146 2.42091 9.84257 2.4681ZM8.88882 22.1468C8.85315 22.1477 8.81992 22.2042 9.02145 22.2071C9.67056 22.2159 9.48895 22.1327 8.88882 22.1468ZM9.84781 0.217968C9.71357 0.547984 6.90734 0.694296 7.23068 0.338518C7.28918 0.274082 8.12152 0.497417 8.3758 0.418943C8.83907 0.27532 7.0816 0.139251 8.0275 0.0019314C8.20062 -0.0228838 9.86169 0.19927 9.8517 0.218634C9.85041 0.21842 9.84911 0.218182 9.84781 0.217968ZM8.66837 17.0651C8.6367 17.0664 8.60516 17.1444 8.63648 17.1469C9.39513 17.2044 9.45912 17.0473 8.66837 17.0651ZM7.34424 25.4456C7.27674 25.4487 7.21012 25.6298 7.27211 25.6369C8.51221 25.7564 8.65059 25.3904 7.34424 25.4456ZM7.02234 11.7146C6.25999 11.6133 6.17206 11.5083 7.13287 11.4584C7.08025 11.5432 7.07105 11.6294 7.02234 11.7146Z" fill="var(--stroke-0, #FF5151)"/>
</svg>
