<svg preserveAspectRatio="none" width="100%" height="100%" overflow="visible" style="display: block;" viewBox="0 0 66.4891 159.794" fill="none" xmlns="http://www.w3.org/2000/svg">
<path id="Vector 198" d="M11.719 1.67419C11.9231 1.98629 12.1098 2.31391 12.283 2.65788C12.9802 3.98271 13.5159 5.93712 13.6787 7.19369C13.7494 7.69584 13.2685 7.59855 13.2964 7.948C13.3506 8.63261 13.736 9.15691 13.7365 9.82119C13.7361 10.047 13.0157 9.99126 13.0288 10.2199C13.0968 11.4482 13.5801 12.4918 13.766 13.6704C14.0467 15.4445 14.3344 17.1707 14.6413 18.9069C15.334 22.8575 16.1077 26.7479 16.8628 30.7243C17.2204 32.6064 17.1746 35.0051 17.8947 36.8599C17.9793 37.0761 18.5205 36.8049 18.578 36.8361C19.4619 37.3304 18.2512 37.3864 18.2022 37.8597C18.0103 39.7361 18.4159 41.6723 19.0324 43.2862C19.2962 43.9719 20.2673 42.9912 19.7971 43.8576C19.7656 43.9175 19.1137 43.8817 19.0948 44.0917C19.0528 44.5663 19.3596 45.3781 19.3919 45.7308C19.4502 46.4084 19.4832 46.5211 19.6226 47.144C19.8077 47.9973 19.7431 49.0839 20.0948 49.9639C20.1714 50.1503 20.7364 49.7478 20.9149 50.0314C21.0953 50.3237 21.2334 51.1541 21.1513 51.468C21.0692 51.7824 20.55 51.7776 20.449 51.8534C19.5931 52.4807 21.1309 53.125 21.1923 53.2417C22.2249 55.2628 21.9834 57.294 22.391 59.301C22.4076 59.3823 22.425 59.463 22.4435 59.5433C22.8125 61.1406 23.4487 62.7939 23.7536 64.3252C24.1149 66.1622 24.1151 67.7673 24.5289 69.6021C24.5711 69.7951 25.2688 69.4222 25.3232 69.6669C25.5606 70.7171 25.7719 72.0511 25.7935 73.2229C25.8351 74.7256 25.7339 76.2313 25.4401 77.7237C25.388 77.9827 24.726 77.6483 24.6341 77.9059C24.0959 79.502 22.6632 81.7929 25.4387 83.0027C25.3763 83.3233 25.3085 83.6647 25.2234 84.0117C25.0086 84.9402 24.6654 85.7936 24.1232 86.3896C23.6255 86.9288 23.0499 86.1829 23.1856 86.9904C23.2145 87.1715 23.8807 87.0954 23.8762 87.3598C23.8538 88.4801 23.3528 89.5587 23.3791 90.6586C23.3861 90.8818 23.9463 90.9822 24.0276 91.0689C24.6796 91.7949 23.1268 92.2233 22.9789 92.3679C21.8666 93.4876 21.8391 94.5314 21.4234 95.75C21.3269 96.0311 22.1594 95.9329 22.092 96.213C22.0725 96.2913 22.0524 96.3697 22.0317 96.4484C21.675 97.8075 21.1612 99.1153 20.4864 100.258C20.3263 100.527 19.7845 100.075 19.676 100.195C19.2052 100.733 20.3451 101.2 19.9354 101.708C19.8509 101.816 19.3324 101.606 19.2675 101.613C18.2476 101.731 19.4866 102.373 19.4953 102.465C19.6291 103.675 18.1018 104.13 18.1343 105.311C18.141 105.449 18.8771 105.245 18.855 105.621C18.8384 105.924 18.8209 106.226 18.8014 106.533C18.6758 108.735 18.4286 111.256 17.9011 113.607C17.8096 114.026 17.286 113.72 17.2206 113.746C16.1997 114.165 17.5578 114.459 17.6076 114.597C17.79 115.151 17.5801 115.687 17.5436 116.177C17.5089 116.59 17.6541 116.979 18.4652 117.232C18.2001 120.737 20.1939 124.004 21.7411 127.013C21.8732 127.315 21.9721 127.567 22.1618 127.855C22.1869 127.887 21.8055 128.444 21.8679 128.511C22.742 129.306 22.9669 128.212 23.8251 127.097C24.016 126.811 24.4052 128.407 24.4736 128.524C24.6406 128.958 24.3293 129.93 24.3924 130.017C24.9715 130.701 25.1072 127.406 25.8646 127.441C25.8893 127.448 25.7601 128.05 25.8243 128.113C26.0259 128.311 26.2429 128.076 26.4415 128.29C26.6473 128.506 26.784 128.934 26.9509 129.27C27.1136 129.701 27.3961 129.975 27.7068 129.405C27.7707 129.27 27.4132 127.449 27.9068 127.436C28.1034 127.448 29.0891 127.094 29.4428 127.067C29.7874 127.057 29.8138 127.697 29.8438 127.713C31.0106 128.082 30.8254 128.518 31.7787 129.379C32.752 130.219 31.4053 127.753 31.445 127.386C31.4825 127.021 32.4193 127.283 32.6868 127.401C32.952 127.521 32.9287 127.964 33.1314 128.005C34.4739 128.256 32.8986 126.555 32.9999 125.999C33.1939 124.905 34.3037 125.77 35.1165 125.997C35.2739 126.047 35.4204 126.068 35.5425 126.04C35.738 125.993 35.3687 125.658 35.4919 125.536C35.9589 125.064 36.6774 125.367 36.9033 124.431C36.956 124.267 36.5431 122.981 37.4282 123.394C37.5596 123.45 37.8088 123.933 38.0915 123.815C38.517 123.643 39.1235 123.117 39.2591 122.638C39.3564 122.289 38.4431 122.095 38.8954 121.919C39.0972 121.836 39.3088 122.408 39.6611 122.215C40.0204 122.024 40.4785 121.202 40.617 120.874C40.7611 120.549 40.0918 120.437 40.0663 120.391C39.9215 120.129 39.8921 119.43 39.9114 119.378C40.0144 119.112 40.1207 118.847 40.2306 118.581C40.9541 116.594 41.9558 113.711 41.5368 111.1C41.4988 110.869 40.8236 111.056 40.8108 111.021C40.482 110.263 42.3325 110.779 42.8991 110.158C41.522 110.345 41.7534 109.993 41.5402 109.458C41.435 109.201 40.9193 109.412 40.8619 109.394C40.0083 109.129 41.0082 108.736 41.208 108.624C41.3157 108.568 41.3869 108.518 41.4315 108.472C41.6981 108.24 41.0647 108.283 41.4516 108.038C41.8689 107.687 42.7756 107.778 42.5035 107.238C42.0134 107.377 40.9886 108.201 40.7068 108.13C40.3151 108.087 40.0487 107.865 39.4655 107.45C38.9051 107.047 38.155 106.535 37.5056 106.094C37.2435 105.893 36.9834 105.74 36.7677 105.655C35.7415 105.28 35.35 105.376 34.6924 105.168C33.4589 104.856 33.9323 105.818 33.2808 106.319C32.6528 106.847 32.6196 104.467 32.4331 103.979C32.2312 103.497 32.184 104.036 31.987 103.789C31.7793 103.544 32.0536 103.138 31.6626 103.108C31.2553 103.073 30.4955 104.219 30.5642 104.765C30.6888 105.824 31.2511 106.776 30.7857 106.767C30.9108 106.701 31.0283 106.606 31.1024 106.507C31.1302 106.47 30.9883 106.376 30.8777 106.25C30.7631 106.127 30.6886 105.973 30.7085 105.911C30.7403 105.729 30.5274 105.888 30.4065 106.079C30.2707 106.278 30.1509 106.538 30.0436 106.81C29.8288 107.357 29.6572 107.962 29.4542 108.56C29.3447 108.846 29.247 109.276 29.1277 109.654C29.06 109.873 28.3756 109.649 28.3285 109.776C27.8428 111.121 29.0269 110.667 30.3063 111.429C28.5845 111.226 27.5186 111.62 27.4923 112.644C27.4761 113.261 28.2315 113.171 28.7572 113.571C28.9157 113.694 28.3925 114.121 28.7459 114.205C29.9014 114.484 31.2034 114.085 30.6742 115.134C30.6491 115.18 30.0166 115.025 29.9763 115.184C29.7128 116.217 30.9236 116.352 31.0582 117.472C31.1638 118.352 30.4079 119.9 30.2762 120.9C28.3362 120.858 28.7696 121.804 30.1027 122.203C30.0961 122.272 30.0909 122.342 30.0867 122.413C30.0515 122.985 30.0985 123.569 29.9533 124.105C29.8983 124.31 29.3318 124.2 29.2721 124.228C28.3378 124.682 29.6578 124.886 29.7181 125.008C30.316 126.363 29.5806 127.672 30.8325 128.877C30.8777 128.92 32.2105 128.706 31.3336 129.294C31.2804 129.328 30.7369 129.079 30.6692 129.466C30.6595 129.522 30.6597 129.591 30.6726 129.675C30.7706 130.331 30.3698 131.742 31.2253 132.468C31.4322 132.651 32.6308 132.858 31.9483 133.535C31.8552 133.626 31.4671 133.68 31.2878 133.827C30.7231 134.312 32.0616 134.023 31.0731 134.711C30.084 135.392 29.5203 136.419 30.6481 137.031C30.6823 137.052 31.7638 136.837 31.8683 137.108C32.0365 137.55 32.1369 138.255 32.3858 138.692C32.5047 138.901 33.0174 138.441 33.0481 138.472C33.8079 139.297 34.1074 140.144 34.4561 141.155C34.5851 141.555 34.7709 141.974 35.0558 142.399C35.2334 142.674 36.4998 142.637 36.4457 143.578C36.3899 144.532 34.0475 146.24 34.955 146.869C35.0424 146.933 35.155 146.99 35.2958 147.037C36.0605 147.319 39.3364 144.646 38.8509 147.014C40.8964 147.929 42.0077 149.961 44.3111 150.403C44.4144 150.423 45.2572 149.562 45.447 149.686C45.7278 149.872 45.6302 150.439 45.8264 150.586C46.1746 150.854 46.5662 151.011 46.9638 151.14C47.4997 151.325 48.0434 151.447 48.5308 151.726C48.8537 151.907 48.4975 152.363 48.8926 152.579C49.2919 152.793 49.8563 152.231 50.27 152.796C50.5821 153.223 50.4325 154.801 50.9433 155.196C51.5191 153.815 51.8978 154.001 52.7282 153.901C52.8888 153.881 52.9353 153.341 53.021 153.306C53.3722 153.155 53.4503 153.648 53.7989 153.469C53.8835 153.427 54.0687 152.951 54.1475 152.889C54.8237 152.343 55.0886 153.674 55.132 153.904C55.2994 154.746 55.7107 154.285 55.9551 154.604L55.9416 154.599C55.9527 154.613 55.9635 154.628 55.974 154.645C56.2201 155.047 55.5821 155.222 55.928 155.533C56.6447 156.177 57.7568 156.455 58.6052 156.751C58.9454 156.867 58.9201 156.143 58.9736 156.145C59.7299 156.206 60.2266 157.122 61.0245 155.949C60.4638 159.453 61.5516 155.758 62.3504 156.743C62.4128 156.822 62.023 158.439 61.6438 158.576C61.2652 158.714 60.9559 158.074 60.4172 158.303C60.2898 158.357 59.2455 159.659 59.1372 159.724C58.2939 160.23 58.9582 157.837 58.9672 157.697C59.0452 156.178 57.8317 157.548 57.6076 157.597C56.5914 157.825 55.9763 157.252 55.1361 157.364C55.0775 157.371 55.019 157.395 54.9605 157.431C54.9467 157.426 54.904 157.412 54.8904 157.406C54.3925 157.699 53.8654 158.881 53.5619 158.718C52.4276 158.11 52.8322 155.838 50.9861 157.227C50.5903 157.521 50.182 159.272 49.8095 157.62C49.7861 157.516 49.612 156.068 48.9196 156.654C48.832 156.727 48.6338 157.206 48.5528 157.219C48.0109 157.296 47.8838 156.793 47.325 156.761C46.7662 156.728 46.0486 156.719 45.5639 156.28C45.2691 156.017 45.2893 154.938 45.2495 154.648C45.2372 154.56 45.2152 154.489 45.1858 154.432L45.2463 154.464C45.0151 154.002 44.2578 154.52 44.3774 153.748C44.5179 152.883 45.598 152.039 45.2077 151.218C44.5384 152.385 43.819 153.565 43.1269 154.728C41.6462 153.859 40.4189 152.617 38.9378 151.688C38.7528 151.573 38.532 152.298 38.3206 152.187C37.4251 151.713 37.0171 150.781 36.0588 150.287C35.3159 149.906 34.1091 149.891 33.2919 149.397C33.4466 149.025 33.4844 148.713 33.4463 148.441C33.434 147.706 32.6962 147.387 32.2735 146.83C32.0758 146.57 32.3787 146.291 32.3035 146.026C31.9994 145.006 31.3194 146.252 30.9644 146.188C29.7265 145.871 30.7533 144.426 30.965 143.347C31.071 143.1 31.0943 142.869 30.9532 142.677C30.9233 142.636 29.1601 142.916 29.0151 142.875C28.1026 142.666 29.444 142.484 29.3325 142.07C29.1257 141.298 29.1951 140.643 28.3357 140.023C28.0869 139.853 26.8571 139.666 27.3587 138.839C27.4246 138.732 27.9369 138.549 27.9433 138.485C28.0346 137.356 26.4585 137.977 25.7017 137.616C24.9449 137.249 25.7698 136.005 26.044 135.745C26.7376 135.038 26.508 135.963 26.5998 135.96C27.6638 135.909 27.2963 135.377 27.2425 134.909C28.8157 134.345 28.5421 133.783 27.1816 134.425C27.0327 134.495 27.2873 134.797 27.2425 134.909C25.5551 135.007 25.1321 134.322 26.4114 133.174C27.0132 132.637 27.904 132.756 27.3453 131.791C27.0937 131.345 26.0224 131.81 25.6148 131.452C25.3721 131.236 25.248 130.986 25.1856 130.694C25.0216 129.923 25.3669 128.923 25.0985 128.149C24.9669 127.765 24.4162 128.263 24.3047 127.998C24.0069 127.282 24.3809 126.529 24.0714 125.783C24.0426 125.715 23.4009 125.948 23.3714 125.702C23.2189 124.463 23.3746 123.392 23.5086 122.334C23.5777 121.837 23.635 121.333 23.6451 120.798C23.6593 120.036 23.3106 118.664 23.3922 117.874C23.5299 116.503 24.5069 114.822 24.2901 113.639C24.1516 112.867 23.4901 113.028 23.0458 112.687C22.184 112.033 23.7668 110.909 24.0128 110.762C24.0207 110.756 24.1613 111.441 24.5076 111.083C25.2174 110.888 24.0157 110.773 24.0128 110.762C24.1694 110.668 24.3586 109.295 24.2548 108.964C24.1955 108.786 23.5664 108.848 23.5476 108.756C23.5037 108.462 23.4386 108.282 23.4795 107.614C23.4109 106.941 23.3913 106.222 23.5407 105.261C23.6243 104.769 23.7287 104.232 24.0459 103.418C24.4797 102.7 24.5466 101.112 27.8213 99.506C28.3037 99.3363 28.6189 99.2673 28.9598 99.1994C29.0065 99.1983 29.1482 99.8857 29.2529 99.8757C30.7043 99.7749 31.332 98.7964 32.5132 98.1447C33.6771 97.5057 34.8174 97.6832 35.4833 98.928C36.4446 98.8208 37.7863 99.5965 38.456 100.146C39.1177 100.684 39.7005 99.4737 39.7899 99.4743C39.9828 99.4803 40.17 99.4978 40.3512 99.5255C41.6444 99.4925 42.329 100.28 44.4732 101.916C45.3896 102.514 47.715 105.018 48.0911 107.283C48.1471 107.466 48.1985 107.639 48.2434 107.787C48.4828 108.585 48.2102 109.077 48.4684 109.753C48.5026 109.845 49.0995 109.705 49.1249 109.732C49.9023 110.472 48.397 110.184 48.1434 110.358C47.2128 110.974 46.7178 111.301 47.1783 112.208C47.2842 112.409 49.4129 113.052 49.5259 113.469C49.6688 113.998 48.9123 113.775 49.0743 114.324C49.087 114.372 49.5596 114.383 49.5206 114.722C49.3312 116.32 48.9322 117.895 48.5112 119.945C48.4437 120.24 49.2689 120.024 49.1712 120.485C49.0978 120.818 48.9982 121.208 48.8414 121.668C48.3826 123.089 47.5759 124.673 46.4908 125.846C46.1732 126.186 45.8837 125.662 45.7004 125.661C44.6081 125.633 45.2423 127.078 45.161 127.224C43.6848 130.108 41.0046 131.038 38.5871 132.624C38.4372 132.732 38.2876 132.853 38.1383 132.99C38.0509 133.075 37.8887 134.822 36.8897 133.928C36.8218 133.869 35.83 132.94 35.8656 133.91C35.8667 133.971 36.4359 134.423 35.9423 134.601C35.4538 134.775 34.8456 135.573 33.7927 135.245C33.4484 135.146 32.4376 134.197 32.014 135.442C32.0513 135.515 31.3303 138.197 30.3052 136.789C30.1319 136.551 29.9129 134.913 28.8497 135.975C28.6231 136.177 29.1549 136.486 28.4885 136.81C28.046 137.016 27.4829 137.067 26.8475 137.073C26.41 137.087 25.9385 137.108 25.4425 137.523C25.3032 137.651 24.5952 138.766 24.1019 137.854C24.0273 137.711 24.2349 137.163 23.9538 137.076C22.6519 136.635 20.8466 136.88 18.6683 135.452C17.9374 134.926 18.7524 134.338 18.1507 133.685C17.7061 133.198 16.993 132.38 16.4385 131.881C16.2797 131.754 16.1047 131.653 15.9252 131.615C15.2436 131.453 14.5346 132.877 13.8759 132.251C11.0718 129.477 10.3504 125.87 9.5925 122.446C9.48492 121.932 9.07911 122.483 8.89421 121.714C8.54489 120.248 8.11505 118.153 8.17176 116.062C8.20776 114.755 8.38215 113.411 8.92945 112.515C9.84003 111.022 10.4788 112.93 10.8597 111.788C11.0419 111.24 9.37067 110.59 9.32162 110.45C8.82167 109.09 9.60531 108.177 9.4655 106.873C9.43777 106.598 8.73586 106.815 8.72042 106.579C8.6962 106.232 8.7532 105.876 8.83392 105.507C8.94055 105.032 9.08473 104.565 9.11534 104.109C9.13858 103.752 8.61216 103.742 8.70199 103.417C8.91278 102.645 9.25829 101.983 9.89364 101.344C9.95122 101.288 10.4923 101.869 10.6334 101.322C10.8625 100.432 11.6007 99.4858 11.3937 98.3971C11.3303 98.0746 10.1877 97.721 11.1584 97.3527C11.3619 97.2761 12.6838 97.8508 11.7097 96.8046C11.5464 96.6305 10.3157 94.9818 11.5155 94.7813C11.8319 94.7252 13.0636 94.7336 12.9888 94.3702C12.9745 94.3195 12.3106 94.2856 12.3343 94.0126C12.358 93.7718 12.3986 93.5359 12.4486 93.2999C12.5907 92.6175 12.8083 91.9465 12.8729 91.2443C12.8944 90.9942 12.1519 91.1415 12.2036 90.7762C12.3449 89.7711 12.8633 88.6435 13.3205 87.7926C13.4906 87.4777 13.9539 87.8593 14.0184 87.8513C15.0669 87.7196 13.8645 87.1349 13.8252 86.9878C13.5973 86.0741 14.3451 85.6322 14.3433 84.9029C14.3434 84.7042 13.702 84.702 13.6559 84.6524C13.2057 84.1585 14.2435 84.6787 14.4162 84.4644C14.8428 83.9385 14.9531 83.3036 14.9432 82.855C14.9449 82.766 14.9455 82.673 14.9448 82.5848C14.9417 82.3178 14.1892 82.539 14.1939 82.3039C14.2065 80.9064 14.3434 79.4017 14.7501 77.9608C14.8277 77.6885 15.3864 77.8611 15.5143 77.8042C16.4094 77.4043 15.1828 76.8254 15.0638 76.7C14.5217 76.1078 15.0082 75.8632 14.8941 75.3316C14.7973 74.8928 14.7172 74.4374 14.6487 73.9713C14.4148 72.5415 13.9779 69.5478 13.677 67.3494C13.3673 65.22 13.206 63.3648 12.9243 61.4697C12.7409 60.2318 12.5082 58.9941 12.1476 57.6791C12.0904 57.4677 11.4154 57.8506 11.3567 57.6702C10.6357 55.351 10.3755 52.9554 9.61184 50.6434C9.55035 50.4529 8.92954 50.8943 8.8077 50.5937C8.55242 49.9761 8.39993 49.161 8.46691 48.4642C8.49837 48.1251 9.18688 48.4078 9.20645 48.069C9.25257 47.2765 9.11496 46.4765 8.82476 45.7426C8.70012 45.4322 8.11345 46.0843 8.00611 45.6678C7.25874 42.8276 6.46862 40.0588 6.67896 36.9576C6.69343 36.7448 8.07684 36.2287 7.70134 35.8734C7.29826 35.9376 6.83359 36.0522 6.40763 36.1409C5.17291 32.0502 4.65688 27.8277 3.67481 23.7002C3.63284 23.525 2.95836 24.0197 2.87356 23.6829C2.74116 23.158 2.58656 22.6196 2.44688 22.1113C2.06817 20.7317 1.73848 19.349 1.88689 17.7997C1.90775 17.5945 3.24818 17.3114 2.88974 16.8029C2.82718 16.7185 2.40745 15.9141 2.05709 15.7741C2.00561 15.7573 1.43752 16.0876 1.34119 15.8235C0.7892 14.2798 0.429779 12.6156 0.299105 11.0932C0.277109 10.8428 1.00378 10.8556 0.993416 10.6752C0.926488 9.76339 0.516652 9.19818 0.189528 8.34333C0.0631876 7.99586 -0.0172319 7.64818 0.00315022 7.27885C0.0494783 6.49324 1.19726 6.14676 1.9939 5.22352C2.10121 5.08101 1.9082 4.74264 2.44051 4.339C3.74186 3.25309 5.44329 2.44718 6.82604 1.28257C6.96997 1.15228 6.79045 0.901358 6.56777 0.552772C6.46409 0.384852 6.30291 0.157991 6.3354 0.0544083C6.3574 -0.0591629 6.67251 0.0218816 7.08699 0.143526C7.15481 0.170691 7.48545 0.424419 7.7538 0.58815C8.03353 0.762804 8.30483 0.894475 8.49644 0.898732C8.76052 0.904446 9.19415 0.309842 9.5967 0.421049C9.99905 0.535742 9.6627 1.0915 10.1567 1.29923C10.6512 1.50679 11.2598 0.983651 11.719 1.67419ZM40.6297 102.553C40.858 103.375 41.9726 101.255 41.1418 101.504C41.1011 101.519 40.6167 102.512 40.6297 102.553ZM41.3966 151.064C41.3961 149.818 40.1651 150.863 40.1283 151.812C40.1052 152.766 41.4049 151.446 41.3966 151.064ZM47.8203 153.713C47.4817 152.631 45.8554 155.612 46.9595 155.38C47.0234 155.368 47.8418 153.776 47.8203 153.713ZM3.20192 6.80543C3.22877 6.7866 3.09439 6.43676 3.06212 6.44385C2.29617 6.6054 2.55537 7.28269 3.20192 6.80543ZM54.35 155.475C54.2934 154.962 53.4743 155.216 53.5421 155.853C53.5992 156.367 54.4185 156.112 54.35 155.475ZM36.1304 127.049C36.1066 127.022 35.8376 127.133 35.9365 127.308C36.2609 127.872 36.5438 127.506 36.1304 127.049ZM65.0913 158.923C63.542 158.313 63.4098 155.339 65.0396 156.172C65.335 156.323 64.1037 156.819 64.4268 157.183C65.0197 157.847 66.019 156.313 66.4854 157.442C66.5691 157.649 65.1781 158.963 65.0874 158.925C65.0887 158.925 65.09 158.924 65.0913 158.923ZM39.7117 105.293C39.708 105.325 40.0489 105.522 40.0708 105.499C40.6125 104.918 39.8865 104.499 39.7117 105.293ZM21.2189 127.982C21.2348 127.952 21.1325 127.817 21.0233 127.672C20.892 127.504 20.7478 127.332 20.715 127.343C20.071 127.58 20.0361 128.084 20.2835 128.351C20.5119 128.599 20.9237 128.555 21.2189 127.982ZM30.2243 120.915C30.9835 121.352 31.0674 121.87 30.1037 122.201C30.1598 121.775 30.1724 121.343 30.2243 120.915Z" fill="var(--stroke-0, #005935)"/>
</svg>
