<svg preserveAspectRatio="none" width="100%" height="100%" overflow="visible" style="display: block;" viewBox="0 0 52.3677 36.3738" fill="none" xmlns="http://www.w3.org/2000/svg">
<path id="Vector 194" d="M0.00532675 27.7032C0.168992 27.1839 0.675517 26.9538 1.1526 26.885C1.30136 26.8629 1.5741 27.193 1.69121 27.1905C1.91362 27.1921 1.86271 26.941 2.10404 26.9703C2.18654 26.9804 2.63606 27.4832 2.7111 27.4835C3.11909 27.4817 3.16823 27.181 3.46425 27.078C4.90105 26.5961 5.97449 25.881 7.12042 25.1866C7.49209 24.963 8.29557 25.0323 8.42244 24.5396C8.43733 24.4812 8.00602 24.078 7.97931 24.0363C7.57406 23.3936 8.36322 24.2862 8.54578 24.3299C8.96636 24.4302 9.25638 24.3879 9.4579 24.2418C9.47921 24.2055 9.59043 24.1362 9.61383 24.1012C9.76158 24.0073 9.86708 23.8582 9.93057 23.6811C9.99371 23.4996 9.11441 22.7084 9.66509 23.1047C9.7025 23.1313 10.0717 23.6387 10.1495 23.6608C10.325 23.7097 10.4048 23.4978 10.4968 23.4861C10.6778 23.4645 10.6934 23.4434 10.8113 23.3556C10.9711 23.2437 11.3548 23.3319 11.4267 23.0908C11.4414 23.0375 10.9903 22.577 10.9776 22.4466C10.9648 22.3165 11.1505 22.2363 11.2956 22.3137C11.4405 22.3914 11.7357 22.8013 11.8171 22.8843C12.5006 23.5868 11.8256 22.3954 11.8279 22.3508C11.8765 21.5823 12.7073 21.9076 13.0846 21.61C13.3742 21.3796 13.5293 20.9383 13.8263 20.7543C14.1858 20.534 14.676 20.5982 14.9601 20.3089C14.9907 20.2788 14.4965 19.7064 14.5331 19.6683C14.9248 19.2631 15.4148 19.0007 16.1613 19.0835C16.2361 19.0927 16.5723 19.668 16.6704 19.7091C17.2648 19.9474 18.4559 20.6975 16.9242 18.2449C17.1753 18.2017 17.4671 18.1345 17.9736 18.4865C18.2983 18.714 18.6166 19.3742 18.5665 19.0309C18.5557 18.9542 18.149 18.468 18.1609 18.3916C18.2114 18.0705 18.5376 18.0901 18.5315 17.6937C18.5297 17.6116 18.1913 17.1572 18.1429 17.0665C17.7547 16.329 18.6957 17.3357 18.7855 17.3937C19.4606 17.8225 19.4726 17.4579 19.7157 17.3096C19.7717 17.2759 19.2719 16.6971 19.3103 16.6421C19.5156 16.3652 19.8353 16.2223 20.2905 16.318C20.393 16.3405 20.7077 16.9109 20.7755 16.949C21.0695 17.111 20.4024 16.0841 20.6713 16.22C20.7269 16.2474 21.0276 16.714 21.0667 16.7611C21.6798 17.5002 20.9732 16.3413 20.9748 16.3039C20.9759 15.8071 21.9257 16.8716 22.035 16.5547C22.0475 16.5155 21.5917 15.9766 21.6513 15.9015C22.0488 15.3964 22.6909 15.1965 23.5053 15.3288C23.6313 15.3486 23.8678 15.8247 23.9088 15.8755C24.5507 16.6685 23.8481 15.5013 23.8452 15.4417C23.8413 15.0013 24.6588 15.8291 23.9024 14.3861C25.0582 14.2951 25.4228 12.9855 27.0402 13.6486C27.0466 13.6513 27.053 13.6539 27.0594 13.6567C27.0792 13.664 27.4199 14.2417 27.4578 14.2539C27.9177 14.4075 27.3091 13.5601 26.8005 12.374C26.6733 12.0758 27.6281 13.2921 27.6997 13.3802C27.9642 13.7047 28.4523 14.5758 28.5095 14.6348C28.9641 15.0952 27.1851 12.3182 27.3448 12.2165C27.3527 12.218 27.655 12.7449 27.7005 12.7876C27.8429 12.9219 27.7557 12.6918 27.9075 12.8431C28.258 13.194 29.1417 14.5312 28.7884 13.6521C28.7421 13.5383 27.7223 11.9697 27.9122 11.9552C27.9884 11.9509 28.2236 11.7665 28.3585 11.8254C28.4932 11.8842 28.7629 12.4264 28.7818 12.4454C29.3924 13.0044 29.4947 13.3299 30.2113 14.274C30.9248 15.215 29.4215 12.8477 29.2954 12.5577C29.1698 12.2683 29.6547 12.7417 29.8088 12.9153C29.9631 13.0889 30.1219 13.441 30.2202 13.5324C30.8645 14.1285 29.5773 12.2936 29.4102 11.8737C29.0151 10.8793 30.2275 12.5751 30.4762 12.6616C30.5436 12.6848 30.2644 12.3004 30.2757 12.2415C30.3242 12.0134 30.7449 12.5166 30.5909 11.9135C30.5659 11.8152 30.0411 10.6707 30.6002 11.4045C30.6806 11.5105 30.9174 11.973 31.0361 12.0367C31.2137 12.1325 31.4293 12.134 31.4334 11.9289C31.4363 11.7772 30.9138 11.0954 31.1389 11.2692C31.2392 11.3469 31.4262 11.8177 31.5929 11.9281C31.7593 12.0386 31.9318 11.9086 31.9934 11.8513C32.0545 11.7938 31.6813 11.2625 31.6644 11.2217C31.5696 10.987 31.5439 10.6378 31.5563 10.6312C32.1208 10.1987 33.2371 10.8036 33.6414 10.1436C33.6735 10.0927 33.2944 9.52338 33.2957 9.50955C33.308 9.16954 34.1094 10.8056 34.5293 11.2634C33.8069 10.0803 33.9999 10.2576 34.034 10.0608C34.0499 9.965 33.7475 9.52036 33.7244 9.47017C33.3895 8.72118 33.981 9.59463 34.1048 9.77167C34.5606 10.4227 34.1424 9.58241 34.4472 10.0175C34.7501 10.4491 35.0639 11.1687 35.1651 11.0975C34.9429 10.6524 34.2051 9.58229 34.1795 9.35343C34.0828 8.48752 35.1729 9.02749 35.4727 8.97481C35.7732 8.92152 35.806 8.79645 36.0399 8.86767C36.4625 8.9968 35.8834 8.22079 35.8239 7.74601C35.7652 7.27088 36.8752 9.36351 37.1541 9.78996C37.4323 10.2165 37.1943 9.74929 37.3629 9.97474C37.5313 10.2002 37.6442 10.5347 37.7629 10.5871C37.8815 10.6395 37.6085 9.75186 37.3655 9.27778C36.8503 8.27358 36.1751 7.29751 36.5602 7.55487C36.5827 7.57034 36.8616 8.12807 36.9319 8.16C37.4815 8.3955 37.8147 8.23752 38.3351 8.42699C38.4071 8.45393 38.7145 9.07586 38.7602 9.09835C39.237 9.33503 38.5632 8.37577 38.0581 7.1703C38.8862 8.68497 39.4897 9.55597 39.689 9.45336C39.8093 9.39215 39.4142 8.74979 39.2259 8.24538C39.1691 8.09334 39.5093 8.49494 39.348 8.1788C38.8216 7.1449 38.0988 6.06396 38.5569 6.39693C38.5779 6.41318 38.8648 6.97982 38.9144 6.9957C39.2364 7.10116 38.6585 6.0354 38.8 5.78556C38.911 5.58953 39.5743 6.0622 39.8247 6.05799C40.7805 7.7467 40.7407 7.25813 40.1524 6.05363C40.303 6.03104 40.3993 5.88938 40.6102 5.9823C40.6825 6.01376 40.9327 6.51773 40.9679 6.56758C41.5173 7.35068 40.9289 6.18805 40.9305 6.12846C40.9762 5.53235 41.6967 6.25806 41.4993 5.26219C41.4921 5.22642 40.8449 4.04393 41.4032 4.85887C41.4413 4.91525 41.6516 5.50081 41.8051 5.46856C41.9584 5.43654 42.5583 5.92766 42.4324 5.28169C42.4022 5.12611 41.9762 4.11019 42.4844 4.80511C42.5532 4.89961 42.73 5.24371 42.8526 5.42155C43.2439 5.9878 42.6057 4.78373 43.2382 5.75584C43.8707 6.72789 44.4298 7.4078 44.2205 6.60946C44.2149 6.58598 43.7289 5.62047 43.7946 5.60312C43.9002 5.5761 44.1395 5.69965 44.2315 5.63993C44.2754 5.61102 43.9179 5.04276 43.9198 5.02761C44.0433 4.52745 44.5554 4.92561 45.011 4.96776C45.0952 4.97664 44.8223 4.08155 45.2924 4.64684C45.8073 5.26555 47.2827 8.21195 47.1938 7.36312C47.1591 7.02315 45.2727 3.29328 46.5422 5.06257C46.6953 4.36295 47.6193 5.11555 47.6621 4.21536C47.6643 4.17531 47.1562 3.12415 47.208 3.11346C47.2859 3.09957 47.5869 3.55549 47.6511 3.56083C47.9268 3.5951 47.8786 3.08848 48.1025 3.04686C48.1869 3.03003 48.4358 3.53617 48.5365 3.51617C48.6369 3.49574 48.3333 2.81587 48.6232 3.06453C48.8434 3.2545 49.6672 4.53106 49.8689 4.62112C49.1467 3.31167 49.2412 3.29436 49.191 2.87063C49.181 2.78856 48.8989 2.34986 48.8811 2.28756C48.8032 2.02396 49.0613 2.37404 48.9692 2.09113C48.9473 2.02309 48.6997 1.57639 48.6678 1.49557C48.3867 0.791331 49.0834 1.71844 49.2042 1.88009C49.6643 2.49344 49.3844 1.88915 49.5996 2.11177C49.8147 2.33442 49.8918 2.71928 50.0616 2.83262C50.4129 3.06691 50.5906 2.87384 50.7735 2.79913C50.845 2.76652 50.4673 2.1965 50.4699 2.17799C50.5276 1.94817 51.023 2.50255 50.4424 1.27171C52.245 4.28675 50.3626 0.926505 50.9066 1.4284C50.9501 1.46926 51.7764 2.9096 51.8334 3.15675C51.8903 3.40371 51.5454 3.00157 51.6448 3.38097C51.6679 3.47012 52.3078 4.89437 52.3379 4.98549C52.5723 5.69784 51.3504 3.53835 51.2777 3.42283C50.4898 2.17816 51.1628 3.72166 51.1819 3.84351C51.2697 4.40179 50.9561 4.17684 50.9982 4.58679C51.0243 4.85234 51.8045 6.27808 51.7076 6.27502C51.3861 6.26553 50.1995 4.33118 50.9266 6.17614C51.0814 6.56978 51.9931 8.09532 51.1393 6.97185C51.0855 6.901 50.3346 5.85651 50.6524 6.60461C50.6925 6.69892 50.9444 7.15118 50.953 7.19611C51.0063 7.48837 50.7502 7.15891 50.7554 7.38206C50.7606 7.60521 50.7946 7.92325 50.6057 7.82745C50.4922 7.77044 49.943 6.97224 49.7983 6.78255C49.3832 6.23509 49.8349 7.26016 49.3818 6.56959C48.9262 5.87571 48.4178 4.71972 48.0189 4.32959C48.6682 5.50748 49.3281 6.72009 49.9781 7.90637C49.6521 8.03373 49.1427 7.81975 48.8677 8.04122C48.8343 8.06984 49.2251 8.67981 49.1984 8.72674C49.0841 8.92204 48.6849 8.55455 48.6081 8.83257C48.5502 9.05006 48.774 9.802 48.7257 10.05C47.8877 8.75525 47.931 9.32968 47.7084 9.29309C47.6308 9.28084 47.4336 8.92015 47.3297 8.8246C46.9429 8.4728 47.6751 9.62154 47.7401 9.83045C48.0168 10.7225 46.4979 8.04481 46.3345 8.22363C46.3252 8.23224 46.9979 9.73634 47.03 9.83545C47.2425 10.4802 46.7319 9.34785 46.6015 9.28197C46.3634 9.16149 46.0814 8.8704 46.1648 9.37478C46.1902 9.52379 46.585 10.4751 46.1112 9.83389C46.0492 9.74996 45.7897 9.27362 45.765 9.25107C45.3403 8.88243 46.1712 10.3704 46.3602 10.9263C46.5491 11.4821 45.827 10.5386 45.631 10.2598C45.1233 9.53906 45.5063 9.89979 45.4683 9.82243C45.0151 8.90204 44.9955 9.11548 44.872 9.08569C44.0403 7.63625 43.9754 7.78793 44.747 9.06082C44.8314 9.19976 44.8183 9.0283 44.872 9.08569C45.6053 10.5543 45.584 10.8073 44.6938 9.55043C44.2766 8.96132 43.9262 8.19771 43.8807 8.57506C43.8597 8.74564 44.4596 9.72825 44.5356 10.0456C44.7093 10.7694 43.9479 9.96691 43.8469 10.2184C43.8103 10.3096 44.1857 10.8209 44.1714 10.9021C44.1344 11.1195 43.7952 10.7685 43.7924 11.0483C43.7926 11.0744 44.1447 11.6326 44.111 11.6614C43.8617 11.8908 43.4054 11.6643 43.0998 11.8247C42.9526 11.9023 42.8749 12.3651 42.6898 12.3865C42.3697 12.4278 41.5757 11.7775 41.4705 12.1062C41.4002 12.3183 41.7599 12.8722 41.9218 13.2973C42.2363 14.1209 41.2497 12.8886 41.1008 12.6955C41.0959 12.6891 41.1422 12.4832 40.9076 12.2277C40.5177 11.6382 41.1007 12.6921 41.1008 12.6955C41.0045 12.5709 40.6827 12.5833 40.6963 12.7209C40.7039 12.796 41.0307 13.3288 41.0288 13.3577C40.9774 14.0325 40.7284 14.3597 40.2482 14.3004C40.236 14.2929 39.8944 13.6831 39.8701 13.673C39.5209 13.5162 39.8266 14.3273 39.9225 14.8587C40.0184 15.3897 39.8079 15.3157 39.1097 14.3341C39.0663 14.5342 38.6266 14.1767 38.3648 13.9569C38.1031 13.7372 38.7763 14.9194 38.7812 14.9477C38.9453 15.849 38.3959 15.2685 38.0532 15.3295C37.889 15.3565 37.7261 15.6816 37.6569 15.8953C37.6039 16.0658 37.373 15.8321 37.3721 16.0695C37.3718 16.1013 37.6948 16.614 37.7024 16.6366C37.9554 17.3291 37.2564 16.0221 37.0974 15.8089C36.5195 15.0335 36.2041 14.625 36.2843 15.1037C36.3023 15.2135 37.2914 17.1058 37.2928 17.2501C37.2923 17.4345 36.932 16.7596 36.9414 16.9695C36.9419 16.9868 37.1848 17.3909 37.1217 17.4043C36.8329 17.4714 36.424 17.3964 36.1963 17.5884C36.1642 17.613 36.5935 18.2275 36.5536 18.2737C36.3659 18.4899 36.0956 18.6206 35.6884 18.458C35.5869 18.416 35.3505 17.947 35.2579 17.8213C34.6958 17.062 35.2979 18.2954 35.2942 18.328C35.2208 19.141 34.2583 18.2794 34.1458 19.0397C34.1408 19.0834 34.733 20.4394 33.9953 19.418C33.9462 19.35 33.1928 18.3042 33.586 19.0945C33.6107 19.1439 34.0068 19.6772 33.8872 19.6718C33.7674 19.6667 33.866 20.1255 33.3662 19.5799C33.2089 19.4079 32.4442 18.3731 32.8749 19.3092C32.9049 19.3746 33.9608 21.4404 33.0567 20.1247C32.9078 19.9081 32.0242 18.47 32.3518 19.2858C32.4159 19.4436 32.6608 19.7344 32.7199 19.9748C32.8119 20.3446 32.4387 20.0451 32.7166 20.7585C32.766 20.8847 33.2864 21.9108 32.7504 21.2208C32.6663 21.1129 32.3875 20.6226 32.3152 20.5937C31.9696 20.454 31.9798 20.8937 31.586 20.6822C31.5182 20.6462 31.3752 20.4399 31.2232 20.2192C31.0634 19.9874 30.8938 19.7395 30.7911 19.6567C30.5907 19.495 30.3245 19.3864 30.4767 19.7833C30.6291 20.1801 31.4899 21.3528 31.4457 21.519C31.2546 22.2407 30.3335 21.8223 29.8032 22.0201C29.7247 22.0492 30.066 22.4467 29.9701 22.5212C29.6175 22.7979 29.2527 23.6233 28.3184 22.9203C27.569 22.3577 27.5204 21.5806 27.1222 21.414C26.9306 21.3358 27.7678 22.8065 27.775 22.8658C27.8521 23.4641 27.2786 22.9491 27.2071 23.2745C27.1926 23.3418 27.6166 23.8809 27.6001 23.9318C27.5461 24.1117 27.2482 23.945 27.1652 24.069C27.129 24.126 27.4327 24.5513 27.363 24.55C27.2003 24.5515 26.9759 24.4389 26.5887 24.1106C26.5533 24.0807 26.254 23.4979 26.1562 23.5356C25.9987 23.5984 25.5585 23.3149 25.6839 23.8345C25.7226 23.9902 26.4 24.9736 25.8318 24.3639C25.7131 24.2366 24.9229 23.0396 25.513 24.138C25.6102 24.3212 26.3724 25.8263 25.6617 25.0087C25.4747 24.7935 24.7392 23.8758 24.7891 24.0659C24.7985 24.0952 25.1957 24.6002 25.1858 24.6834C25.1449 24.9673 24.9367 25.0297 24.8869 25.3105C24.8745 25.3864 25.322 25.883 25.2916 25.9786C25.2098 26.2414 24.8873 26.2627 24.5922 26.2176C24.4826 26.2 24.2084 25.7204 24.1691 25.6749C23.529 24.9359 24.2463 26.0378 24.2661 26.1177C24.3755 26.6031 23.898 26.186 23.8502 26.4214C23.8361 26.4849 24.2294 26.9736 24.2542 27.0245C24.4919 27.5257 23.8956 26.569 23.772 26.5053C23.421 26.3252 23.2883 26.4831 23.1903 26.653C23.1548 26.7161 23.6408 27.2608 23.6043 27.3106C23.3921 27.619 23.0601 27.7756 22.5472 27.656C22.4501 27.6322 22.1509 27.158 22.0644 27.0631C21.4602 26.3982 22.0728 27.4611 22.1171 27.5728C22.3178 28.0838 21.9795 27.7189 21.9343 27.8675C21.717 28.6011 20.9217 28.7905 20.3423 28.9795C19.5902 29.2277 18.8031 29.1664 18.3298 29.7178C18.2992 29.7524 18.7975 30.3067 18.7772 30.3439C18.4997 30.7932 17.9334 30.876 17.6864 31.3559C17.6654 31.3941 18.1572 31.903 18.139 31.9824C18.1059 32.1482 17.9512 32.2259 17.7053 32.1372C17.5862 32.095 17.2672 31.5733 17.1549 31.5406C16.8945 31.4618 16.7305 31.5331 16.6848 31.719C16.6662 31.7995 17.2059 32.2882 17.1461 32.3493C17.0524 32.4494 16.9628 32.5502 16.8691 32.641L17.2026 32.3404C16.8714 32.697 16.4753 32.9519 15.6228 32.7755C15.5474 32.7593 14.4989 31.7341 14.6296 31.9991C14.9083 32.2956 15.2422 32.6385 15.5432 32.9523C15.0587 33.7502 14.0738 34.0081 13.3901 34.5874C13.3619 34.6114 13.9588 35.1125 13.9075 35.1614C13.6054 35.4507 13.4838 35.8831 12.64 35.647C12.5571 35.6243 11.5851 34.6635 11.6505 34.894C11.6647 34.9336 11.6645 35.1979 11.8495 35.4341C11.8777 35.4693 12.3624 35.8852 12.3368 35.9391C12.1745 36.2511 11.8371 36.3995 11.3378 36.3702C11.2563 36.3647 10.7889 35.8689 10.7262 35.8614C10.2843 35.8123 10.4925 36.358 9.91892 36.0844C9.53706 35.8953 8.65157 35.1232 7.70514 34.4568C7.56723 34.3684 7.53033 34.3746 6.98665 33.9792C5.57954 33.0405 4.12945 31.8845 2.63471 30.8765C2.46393 30.787 2.43242 30.8195 2.17371 31.1348C2.13731 31.1828 2.09722 31.2374 2.0536 31.2997C2.0318 31.3308 2.00914 31.3638 1.98585 31.3984C1.95828 31.4415 1.90678 31.5379 1.86331 31.6266C1.67754 31.9485 1.47193 32.7818 1.4376 33.1337C1.41291 33.2939 1.37822 33.2213 1.36131 32.9416C1.34388 32.6673 1.37596 32.2471 1.43941 31.9118C1.47012 31.7417 1.5053 31.5871 1.53851 31.4506C1.57289 31.311 1.60342 31.1964 1.60086 31.1468C1.61102 31.0169 1.61948 30.8902 1.62199 30.7699C1.65799 30.6429 1.72148 30.3757 1.68446 30.2136C1.66746 30.0213 1.58444 29.8717 1.48453 29.7399C1.34151 29.5647 0.742387 29.2222 0.581327 28.9695C0.421537 28.7161 0.92871 28.9988 0.75017 28.6936C0.561307 28.3954 -0.0639129 27.9298 0.00532675 27.7032ZM37.1914 12.9771C36.769 12.4675 37.9666 14.5391 37.7758 13.9873C37.7651 13.9581 37.2124 13.002 37.1914 12.9771ZM48.2655 6.24252C47.6287 5.38924 48.3006 6.79133 48.7841 7.45494C49.2671 8.11784 48.4586 6.5011 48.2655 6.24252ZM49.1628 4.86076C48.6147 4.21352 50.2421 7.19086 50.0621 6.50609C50.0522 6.46725 49.1947 4.89832 49.1628 4.86076ZM7.69114 33.9578C7.66562 33.9386 7.59271 33.9764 7.61617 33.9975C8.17089 34.5181 8.31034 34.4492 7.69114 33.9578ZM50.0194 3.42466C49.7518 3.0483 49.8799 3.58327 50.2129 4.05116C50.4809 4.4275 50.3525 3.89276 50.0194 3.42466ZM31.0908 13.6548C31.0707 13.6252 31.0009 13.6304 31.1074 13.8015C31.4506 14.3525 31.4283 14.1513 31.0908 13.6548ZM52.1504 2.19666C51.7706 2.26143 50.2177 -0.082229 50.7172 0.00222945C50.8076 0.0174712 51.0159 0.858664 51.2183 1.03532C51.5877 1.35681 50.8305 -0.235657 51.4373 0.506112C51.548 0.642048 52.1751 2.19842 52.1517 2.20039C52.1513 2.19915 52.1509 2.19791 52.1504 2.19666ZM35.6841 10.5293C35.6662 10.5031 35.5764 10.5211 35.5905 10.5492C35.9347 11.2279 36.1156 11.1923 35.6841 10.5293ZM27.2141 14.334C27.1738 14.2797 26.9697 14.3353 26.9977 14.3911C27.5791 15.4938 27.9912 15.3861 27.2141 14.334ZM39.8534 6.10126C39.5575 5.39035 39.6122 5.25574 40.1515 6.053C40.0451 6.05494 39.9587 6.09542 39.8534 6.10126Z" fill="var(--stroke-0, #FF5151)"/>
</svg>
