<svg preserveAspectRatio="none" width="100%" height="100%" overflow="visible" style="display: block;" viewBox="0 0 48.5205 18.1608" fill="none" xmlns="http://www.w3.org/2000/svg">
<path id="Vector 195" d="M1.48239 0.058341C1.77361 -0.120386 2.10156 0.138394 2.33617 0.470658C2.40977 0.573798 2.32307 0.99108 2.37203 1.08128C2.46868 1.25724 2.59392 1.06126 2.68547 1.26835C2.71555 1.33903 2.59938 2.00226 2.63257 2.06109C2.81372 2.37855 3.0326 2.22936 3.23274 2.39368C4.22006 3.20445 5.23338 3.56023 6.27827 3.97028C6.62715 4.10536 6.99173 4.75328 7.38841 4.52365C7.43491 4.49625 7.46538 3.90686 7.47826 3.85928C7.67515 3.13086 7.5194 4.31165 7.58707 4.47702C7.86003 5.13053 8.22594 5.21994 8.56195 5.02317C8.7071 4.93793 8.68086 3.75913 8.7563 4.42652C8.76169 4.47164 8.66807 5.09169 8.69933 5.16172C8.77195 5.31945 8.93989 5.22287 9.00052 5.2784C9.11697 5.38856 9.13857 5.38426 9.2586 5.40268C9.42174 5.43325 9.58192 5.76082 9.77344 5.63618C9.81431 5.6077 9.82366 4.96396 9.89426 4.86084C9.96516 4.75793 10.1141 4.82644 10.1538 4.98207C10.1929 5.13773 10.1237 5.63794 10.1224 5.75395C10.1094 6.73292 10.4191 5.40409 10.4462 5.37302C10.9222 4.84502 11.2184 5.6455 11.626 5.68056C11.9245 5.70453 12.2844 5.48201 12.5659 5.54252C12.9119 5.61808 13.1671 5.99032 13.5141 5.9615C13.5507 5.9592 13.576 5.20378 13.6208 5.19944C14.0846 5.15297 14.5361 5.27594 14.9523 5.82447C14.9944 5.88018 14.8755 6.53479 14.9141 6.62991C14.9345 6.67876 14.9557 6.73336 14.9777 6.79054C15.1998 7.39683 15.5154 8.294 15.9004 5.68116C16.0784 5.81001 16.2997 5.94639 16.4213 6.54089C16.4999 6.92354 16.328 7.633 16.4924 7.3383C16.5286 7.2726 16.5449 6.63946 16.5949 6.58854C16.805 6.37475 16.9969 6.59791 17.2177 6.28945C17.2627 6.22523 17.3016 5.66005 17.3217 5.55942C17.4879 4.74483 17.5213 6.11847 17.5455 6.2202C17.7335 6.97944 17.9459 6.70575 18.185 6.74481C18.2404 6.75418 18.2411 5.99052 18.2962 5.97226C18.5772 5.88738 18.8566 5.97743 19.1004 6.33755C19.1541 6.41945 19.0425 7.06026 19.0649 7.1324C19.1637 7.44255 19.2978 6.22554 19.3953 6.49951C19.4161 6.5557 19.3536 7.10717 19.353 7.16828C19.3426 8.12749 19.5236 6.78283 19.5449 6.75466C19.817 6.36795 19.8519 7.79117 20.0945 7.61114C20.1239 7.58821 20.1232 6.88351 20.2023 6.8618C20.733 6.71337 21.2563 6.95227 21.7211 7.55604C21.7936 7.64898 21.6911 8.16943 21.6905 8.23463C21.6841 9.25361 21.8528 7.90214 21.8829 7.8533C22.1165 7.50317 22.2085 8.65669 22.4867 7.05365C23.2993 7.68841 24.2356 6.8553 24.9658 8.37553C24.9752 8.39322 24.8984 9.05938 24.9174 9.09179C25.1458 9.48912 25.185 8.44692 25.467 7.19236C25.5379 6.87734 25.5396 8.42136 25.5419 8.53471C25.5493 8.95238 25.4196 9.94211 25.4271 10.0235C25.4926 10.6633 25.7541 7.37585 25.9128 7.38838C25.9173 7.39428 25.8447 7.99728 25.8528 8.05855C25.878 8.25088 25.9396 8.01408 25.9623 8.22574C26.0139 8.71541 25.9102 10.3148 26.1321 9.39782C26.1605 9.27876 26.2924 7.41257 26.4276 7.51284C26.481 7.55436 26.7375 7.54413 26.7969 7.67088C26.8564 7.79749 26.7571 8.39401 26.7598 8.42044C26.8802 9.23077 26.7807 9.55383 26.7747 10.7378C26.7691 11.9172 26.9818 9.1211 27.0471 8.81256C27.1123 8.50491 27.1952 9.17207 27.21 9.4028C27.2247 9.63362 27.1494 10.0116 27.1688 10.1432C27.2985 11.003 27.3759 8.76396 27.4803 8.32621C27.7268 7.28963 27.6732 9.37215 27.7975 9.58727C27.8313 9.64539 27.8402 9.1708 27.8782 9.1296C28.0286 8.97267 28.0553 9.62618 28.2614 9.04665C28.295 8.95222 28.5271 7.71722 28.5307 8.63839C28.531 8.77121 28.4541 9.28474 28.5027 9.40539C28.575 9.5864 28.7238 9.71277 28.8307 9.54804C28.9102 9.4262 28.9041 8.56868 28.968 8.84035C28.9964 8.96165 28.8827 9.4533 28.9395 9.63965C28.996 9.82591 29.182 9.81975 29.2537 9.80855C29.3253 9.79696 29.3419 9.14831 29.3513 9.10532C29.4068 8.85918 29.568 8.55946 29.5799 8.56124C30.1871 8.53363 30.6478 9.66859 31.2603 9.35802C31.3083 9.33458 31.3358 8.65142 31.3437 8.64083C31.5244 8.36899 31.2471 10.168 31.305 10.7829C31.4067 9.40052 31.45 9.65608 31.5734 9.51402C31.633 9.44444 31.6494 8.9072 31.659 8.85287C31.807 8.04735 31.773 9.10116 31.7689 9.31698C31.7543 10.1109 31.8907 9.18295 31.8816 9.71369C31.8728 10.2405 31.7245 11.0099 31.8318 11.009C31.9037 10.5172 31.9345 9.21853 32.0331 9.01601C32.4024 8.24965 32.8822 9.3114 33.119 9.43756C33.3532 9.5634 33.4389 9.4788 33.5655 9.66951C33.7941 10.0143 33.7816 9.04778 33.9781 8.62253C34.1753 8.19739 33.8975 10.5493 33.8774 11.0583C33.857 11.567 33.9259 11.0474 33.9304 11.3284C33.9348 11.6093 33.8449 11.9489 33.9019 12.059C33.9591 12.1691 34.2157 11.2828 34.2835 10.7546C34.4278 9.63561 34.4471 8.44998 34.5853 8.87886C34.5931 8.90429 34.5082 9.52171 34.5411 9.58762C34.8037 10.0908 35.118 10.1472 35.3869 10.5953C35.4234 10.6578 35.3278 11.3446 35.3484 11.3888C35.5633 11.8515 35.5717 10.6806 35.8197 9.40003C35.6429 11.1171 35.6302 12.1757 35.8215 12.2022C35.9365 12.2187 35.9803 11.4659 36.0999 10.9429C36.1359 10.7852 36.1741 11.3078 36.2188 10.9559C36.3656 9.80537 36.3978 8.50626 36.553 9.03778C36.5596 9.06298 36.4783 9.69267 36.5052 9.7335C36.6788 10.0005 36.8032 8.79465 37.0252 8.66614C37.199 8.56527 37.4293 9.32652 37.607 9.4622C37.4392 11.3953 37.655 10.9677 37.8388 9.64058C37.9553 9.70541 38.0927 9.64113 38.1944 9.83532C38.2295 9.90156 38.1556 10.4591 38.1556 10.52C38.1534 11.4755 38.316 10.183 38.3465 10.1344C38.6724 9.66413 38.8232 10.6669 39.1743 9.72905C39.1868 9.69527 39.3159 8.35352 39.3054 9.34029C39.3044 9.40828 39.1632 10.0118 39.2867 10.0698C39.4102 10.128 39.59 10.8683 39.8202 10.261C39.8758 10.1148 40.0767 9.03365 40.0921 9.8929C40.0939 10.0096 40.0486 10.3937 40.0473 10.6094C40.0437 11.297 40.1878 9.94199 40.1538 11.1006C40.1198 12.2592 40.1789 13.1341 40.4248 12.3535C40.4325 12.3308 40.5657 11.2585 40.6205 11.2802C40.7079 11.3159 40.8164 11.5508 40.9109 11.5517C40.9561 11.5518 40.9838 10.8812 40.9927 10.8697C41.3273 10.5209 41.4898 11.1345 41.7914 11.4203C41.8465 11.474 42.0938 10.5773 42.1478 11.3073C42.2073 12.1065 41.8007 15.3756 42.1566 14.6187C42.2995 14.3159 42.7985 10.167 42.8261 12.3408C43.278 11.8409 43.5621 12.9762 44.0338 12.2477C44.055 12.2155 44.2111 11.059 44.2529 11.0784C44.3148 11.1095 44.3041 11.6553 44.3468 11.6949C44.5246 11.8746 44.7399 11.4251 44.9182 11.5129C44.9861 11.545 44.9142 12.1042 44.9951 12.1427C45.076 12.1806 45.1941 11.4462 45.2772 11.8127C45.3398 12.092 45.2978 13.6099 45.3966 13.7956C45.5267 12.3058 45.6021 12.3431 45.7741 11.9615C45.8072 11.8874 45.8224 11.3663 45.8403 11.3045C45.9143 11.0416 45.9255 11.4754 45.9989 11.1886C46.0166 11.1197 46.0601 10.6108 46.0771 10.5258C46.2229 9.78334 46.2616 10.9395 46.2682 11.1407C46.2935 11.9052 46.3911 11.2468 46.4344 11.5507C46.4777 11.8545 46.344 12.2184 46.4086 12.406C46.5426 12.7941 46.7624 12.7299 46.9288 12.7675C46.9955 12.7793 47.007 12.0962 47.0179 12.0821C47.1714 11.9216 47.2508 12.656 47.4418 11.3094C47.2427 14.8161 47.5541 10.9771 47.6933 11.6942C47.7042 11.7522 47.5844 13.4083 47.5039 13.6461C47.4235 13.8837 47.3762 13.3589 47.261 13.7305C47.2338 13.8177 46.9902 15.3585 46.9668 15.4511C46.7842 16.1748 46.9756 13.701 46.9807 13.5647C47.0319 12.0932 46.7529 13.7517 46.7068 13.864C46.4958 14.3788 46.3839 14.0192 46.213 14.3849C46.1015 14.6212 45.9559 16.2399 45.8888 16.1843C45.6655 16.0004 45.7731 13.7342 45.3839 15.6742C45.3006 16.0879 45.1989 17.862 45.1444 16.4556C45.141 16.367 45.1208 15.0829 44.9791 15.8821C44.9613 15.9829 44.918 16.4987 44.9022 16.541C44.7967 16.8144 44.7768 16.3989 44.6711 16.5882C44.5654 16.7775 44.4337 17.0619 44.3467 16.8783C44.2941 16.7685 44.2964 15.8008 44.2868 15.563C44.261 14.8781 44.0782 15.982 44.0961 15.1568C44.1139 14.3275 44.321 13.0832 44.2301 12.5387C44.1119 13.8785 43.9842 15.2531 43.8624 16.6003C43.5682 16.5279 43.3136 16.0699 43.0088 16.1038C42.971 16.1094 42.9481 16.8331 42.906 16.8576C42.7286 16.9579 42.6256 16.4319 42.4347 16.6218C42.2867 16.7716 42.0751 17.522 41.9186 17.7023C41.9625 16.1615 41.709 16.6644 41.5693 16.5115C41.5203 16.4586 41.5584 16.0493 41.5319 15.9125C41.4312 15.4062 41.3835 16.7671 41.3264 16.9771C41.082 17.8731 41.3268 14.8045 41.1232 14.8636C41.1125 14.8657 40.8467 16.49 40.8205 16.5903C40.6527 17.2448 40.8503 16.0197 40.7903 15.8929C40.6807 15.6613 40.6246 15.2633 40.4339 15.7295C40.3781 15.8677 40.187 16.8779 40.1686 16.0825C40.1662 15.9783 40.218 15.4384 40.2117 15.4059C40.0935 14.8646 39.9457 16.5624 39.8041 17.1297C39.6626 17.6968 39.6183 16.5124 39.6177 16.1721C39.6152 15.2916 39.7077 15.8035 39.7191 15.7181C39.8539 14.7015 39.7349 14.8684 39.6617 14.7754C39.7908 13.1093 39.67 13.1997 39.5854 14.6856C39.5763 14.8479 39.6519 14.6979 39.6617 14.7754C39.453 16.4031 39.3118 16.6018 39.3047 15.0637C39.3015 14.3428 39.4322 13.5136 39.213 13.8025C39.1136 13.9328 39.0505 15.0822 38.9467 15.3882C38.7092 16.0864 38.5714 14.9976 38.3738 15.1506C38.3022 15.2062 38.3138 15.8392 38.2631 15.8988C38.1283 16.0589 38.062 15.5791 37.9209 15.8101C37.9081 15.8318 37.8792 16.491 37.841 16.4962C37.5496 16.5484 37.3402 16.1069 37.0428 16.07C36.8993 16.0524 36.6119 16.393 36.4697 16.3076C36.2231 16.1635 35.9875 15.1814 35.747 15.3948C35.5907 15.5311 35.5666 16.1909 35.4671 16.6334C35.2748 17.4911 35.1969 15.9189 35.1891 15.6758C35.1889 15.6678 35.3252 15.5233 35.2881 15.1804C35.3094 14.4744 35.1907 15.6729 35.1891 15.6758C35.1835 15.5187 34.951 15.3488 34.8907 15.4702C34.8582 15.5366 34.8204 16.1604 34.8044 16.1832C34.4259 16.7123 34.082 16.8425 33.7736 16.5231C33.7688 16.5101 33.8367 15.8145 33.8246 15.7924C33.6575 15.4664 33.4599 16.3076 33.2572 16.7998C33.0544 17.2918 32.9422 17.1117 32.9493 15.9083C32.816 16.0486 32.6896 15.5055 32.6167 15.1764C32.5439 14.8472 32.4149 16.2015 32.4039 16.2275C32.057 17.062 31.965 16.2727 31.6928 16.1279C31.5643 16.0569 31.2795 16.2307 31.1206 16.3665C30.9949 16.4761 30.9524 16.1525 30.829 16.3466C30.8123 16.3725 30.7755 16.9772 30.7691 17.0001C30.5893 17.7121 30.7717 16.2415 30.7696 15.976C30.7626 15.0102 30.7513 14.4952 30.5619 14.9331C30.5183 15.0334 30.2362 17.1492 30.1611 17.2679C30.0643 17.4184 30.1605 16.6596 30.0576 16.8367C30.0488 16.8511 30.0104 17.321 29.9584 17.2957C29.7163 17.1845 29.4685 16.8881 29.2075 16.9133C29.1719 16.9149 29.1537 17.6639 29.101 17.6785C28.8523 17.7462 28.5915 17.6962 28.3885 17.3276C28.3387 17.2346 28.4191 16.7159 28.4199 16.56C28.4234 15.6162 28.1993 16.9688 28.1793 16.9932C27.6954 17.6111 27.4719 16.3507 26.9889 16.9004C26.9621 16.9328 26.6537 18.3771 26.679 17.118C26.6806 17.0342 26.7093 15.7463 26.5631 16.6161C26.554 16.6705 26.5479 17.3343 26.466 17.2596C26.384 17.185 26.2056 17.6134 26.1478 16.8785C26.1291 16.647 26.1503 15.3616 25.9483 16.3704C25.9347 16.4409 25.5609 18.7289 25.6341 17.1345C25.6463 16.872 25.8008 15.1913 25.5911 16.0419C25.5508 16.2068 25.5658 16.5859 25.4774 16.8143C25.3417 17.1663 25.2418 16.704 25.0497 17.4422C25.0159 17.5729 24.8237 18.7062 24.8211 17.8333C24.8206 17.6966 24.8917 17.1371 24.8563 17.0708C24.6881 16.7528 24.4538 17.111 24.2922 16.7058C24.2349 16.5634 24.348 15.6589 24.297 15.4095C24.2458 15.1602 24.1224 14.914 24.0109 15.3222C23.8991 15.7306 23.858 17.1842 23.7341 17.2901C23.1958 17.7503 22.7849 16.8602 22.3027 16.6936C22.2317 16.6688 22.2473 17.1915 22.1395 17.1921C21.7418 17.1967 21.0166 17.6229 20.766 16.4933C20.5658 15.5885 20.9715 14.948 20.7915 14.5713C20.7045 14.3916 20.4495 16.0636 20.4205 16.1144C20.1359 16.6316 20.0346 15.8723 19.7974 16.082C19.7486 16.1255 19.7333 16.8109 19.6925 16.8404C19.5524 16.9473 19.443 16.6314 19.3154 16.6763C19.2581 16.6981 19.223 17.2195 19.1759 17.1749C19.0642 17.0744 18.9715 16.8459 18.8947 16.3477C18.8877 16.3023 19.0176 15.6611 18.9288 15.6292C18.7851 15.5792 18.6458 15.0822 18.4359 15.5647C18.3731 15.7098 18.2689 16.8994 18.2324 16.0684C18.2246 15.8949 18.3781 14.4689 18.1443 15.6922C18.1051 15.8954 17.7485 17.5417 17.7395 16.4597C17.737 16.1749 17.7699 14.9999 17.6943 15.1784C17.6836 15.207 17.6602 15.8488 17.6053 15.9068C17.4151 16.1004 17.2331 16.0157 17.0352 16.2001C16.9822 16.2505 16.9961 16.918 16.919 16.9722C16.7058 17.1219 16.481 16.9325 16.3015 16.7082C16.2366 16.6243 16.3343 16.081 16.3343 16.0209C16.3357 15.0441 16.1714 16.3483 16.137 16.4222C15.9247 16.8639 15.8498 16.2379 15.6784 16.3867C15.6302 16.426 15.6066 17.0527 15.5929 17.1076C15.4534 17.6431 15.6204 16.5286 15.5735 16.4C15.4424 16.036 15.2594 16.0704 15.092 16.1359C15.0304 16.1609 15.0326 16.8902 14.9781 16.9043C14.6739 16.9951 14.3642 16.9137 14.1093 16.5528C14.0915 16.5286 14.0738 16.5031 14.0564 16.4764C14.0043 16.3948 14.0909 15.841 14.09 15.7127C14.0846 14.8151 13.8536 16.0182 13.8152 16.1314C13.64 16.648 13.6346 16.151 13.5147 16.233C12.9185 16.6412 12.2696 16.254 11.7651 16.0051C11.1145 15.6847 10.6279 15.1061 9.97022 15.1842C9.92797 15.1885 9.90158 15.9331 9.8643 15.9463C9.39236 16.0829 8.96546 15.7514 8.4841 15.9222C8.44517 15.9349 8.43339 16.6422 8.36873 16.6862C8.23863 16.7818 8.07743 16.7282 7.97436 16.4923C7.9234 16.3785 8.06202 15.7837 8.00964 15.6815C7.88974 15.4423 7.73757 15.3775 7.57928 15.4761C7.51184 15.5196 7.53853 16.2466 7.4562 16.2472C6.8921 16.2657 6.33309 16.3369 5.86027 15.3526C5.8273 15.2849 5.93467 13.8225 5.8253 14.0943C5.77972 14.4986 5.73371 14.975 5.6889 15.4076C4.85598 15.5619 4.1007 14.9763 3.2935 14.8154C3.25945 14.8087 3.2404 15.5876 3.17409 15.5787C2.78968 15.5281 2.39545 15.704 2.08015 14.8951C2.04897 14.816 2.2107 13.4589 2.07362 13.6525C2.04916 13.6879 1.85764 13.8512 1.78284 14.1417C1.77213 14.1855 1.73757 14.8232 1.68005 14.8359C1.34521 14.8984 1.02145 14.718 0.740713 14.2965C0.695262 14.2273 0.822034 13.5576 0.790314 13.5024C0.565728 13.1162 0.226794 13.5995 0.0417476 12.9598C-0.0814508 12.5291 0.104021 11.3681 0.137133 10.2094C0.141761 10.0459 0.041096 10.0092 0.106667 9.34C0.271254 7.65709 0.516553 5.82122 0.68607 4.02677C0.722672 3.64027 0.540186 4.04138 0.721052 3.11718C0.7334 3.05536 0.866551 2.75638 0.924811 2.44253C0.965211 2.22555 1.00633 1.54222 1.07111 1.26585C1.13587 0.989748 1.11399 1.56389 1.20705 1.24098C1.30036 0.913982 1.35684 0.137645 1.48239 0.058341ZM32.2892 13.7049C32.2523 13.0461 32.0362 15.4291 32.1843 14.8672C32.1917 14.8372 32.2912 13.7372 32.2892 13.7049ZM43.4663 14.2716C43.4351 13.2098 43.2216 14.7491 43.2382 15.5685C43.2546 16.387 43.4759 14.5935 43.4663 14.2716ZM44.7796 13.6092C44.7091 12.7682 44.4015 16.1473 44.6097 15.4765C44.6217 15.4387 44.7838 13.6581 44.7796 13.6092ZM0.583594 9.92576C0.585654 9.89402 0.514417 9.85534 0.509333 9.88647C0.389602 10.638 0.532149 10.7148 0.583594 9.92576ZM46.0891 12.8779C46.0838 12.4169 45.913 12.9342 45.9195 13.5075C45.9247 13.9687 46.0957 13.4514 46.0891 12.8779ZM27.7019 10.7513C27.7035 10.7157 27.6531 10.6792 27.6371 10.8801C27.5854 11.5272 27.6749 11.3509 27.7019 10.7513ZM48.1981 13.0167C47.8975 12.8632 47.9446 10.0544 48.2569 10.3981C48.3135 10.4603 48.0495 11.2776 48.1064 11.536C48.2106 12.0068 48.4535 10.2612 48.5202 11.2132C48.5321 11.3874 48.2147 13.0317 48.1972 13.0206C48.1975 13.0193 48.1978 13.018 48.1981 13.0167ZM32.4794 10.8367C32.4802 10.805 32.4089 10.7688 32.4044 10.7999C32.3001 11.5534 32.4438 11.6268 32.4794 10.8367ZM24.7131 9.01054C24.7148 8.94301 24.5501 8.86558 24.5383 8.92693C24.3429 10.1569 24.6774 10.3173 24.7131 9.01054ZM37.6056 9.51402C37.7509 8.75939 37.8557 8.67796 37.8385 9.63957C37.7633 9.58208 37.6823 9.5677 37.6056 9.51402Z" fill="var(--stroke-0, #FF5151)"/>
</svg>
