<svg preserveAspectRatio="none" width="100%" height="100%" overflow="visible" style="display: block;" viewBox="0 0 35.2518 33.8387" fill="none" xmlns="http://www.w3.org/2000/svg">
<path id="Vector 192" d="M24.5673 33.8319C24.1771 33.6902 24.1509 33.3003 24.2378 32.9196C24.2647 32.8014 24.6198 32.5665 24.653 32.4726C24.7183 32.2902 24.5015 32.3519 24.5921 32.1503C24.6254 32.0844 25.1747 31.6959 25.1977 31.6364C25.3175 31.3102 25.0779 31.2837 25.0747 31.0502C25.0728 29.9151 24.7312 29.0803 24.4133 28.1944C24.3063 27.9005 24.5559 27.2378 24.1605 27.172C24.1135 27.1642 23.6677 27.5506 23.6256 27.5758C22.9798 27.9601 23.9287 27.2407 24.008 27.087C24.3229 26.4828 24.1693 26.2063 23.8292 26.1479C23.6818 26.1224 22.8429 26.9474 23.2822 26.4454C23.3117 26.4113 23.8162 26.0394 23.8486 25.9732C23.9208 25.8238 23.749 25.7896 23.7545 25.7178C23.7661 25.5753 23.7503 25.5658 23.6934 25.4845C23.6194 25.3692 23.7586 25.0472 23.5582 25.0257C23.5138 25.0221 23.0419 25.459 22.9262 25.4899C22.8106 25.5207 22.7699 25.3846 22.8589 25.2543C22.948 25.1241 23.3509 24.82 23.4356 24.7407C24.1492 24.0715 23.0093 24.8127 22.9708 24.8184C22.3047 24.9033 22.7109 24.1839 22.4946 23.9239C22.3335 23.7327 21.9636 23.6831 21.8378 23.4757C21.6928 23.2304 21.8001 22.814 21.5801 22.6418C21.5571 22.6228 20.9975 23.1302 20.9683 23.108C20.8569 23.0229 20.7618 22.9231 20.692 22.8007L21.083 23.2096C20.9286 23.011 20.8491 22.7351 20.8882 22.3308C20.8948 22.2669 21.3752 21.8081 21.4083 21.7149C21.6007 21.1547 22.2076 19.941 20.1707 21.9889C20.1273 21.7984 20.0624 21.5837 20.3458 21.0569C20.5281 20.7176 21.0754 20.2389 20.7869 20.3939C20.7224 20.4283 20.3249 20.9209 20.2602 20.9369C19.9875 21.0032 20.0002 20.739 19.6634 20.8761C19.5939 20.9051 19.2234 21.3336 19.1486 21.4036C18.5411 21.9686 19.3547 20.8646 19.3998 20.7719C19.7336 20.0784 19.4251 20.1937 19.2921 20.0515C19.2614 20.0183 18.7962 20.6227 18.7487 20.6112C18.5117 20.5468 18.375 20.3385 18.4315 19.9382C18.4452 19.8477 18.9081 19.3918 18.9366 19.3237C19.0567 19.0292 18.2302 19.9323 18.3305 19.6683C18.3506 19.6138 18.726 19.2051 18.7634 19.1568C19.3503 18.3992 18.4162 19.3825 18.385 19.3949C17.9697 19.5742 18.8133 18.4321 18.5347 18.4544C18.5007 18.4585 18.0772 19.0206 18.0101 18.9998C17.5588 18.8623 17.3623 18.4358 17.4051 17.7306C17.4121 17.6226 17.7922 17.254 17.8316 17.2022C18.4446 16.3895 17.5223 17.3912 17.4728 17.4162C17.1056 17.5866 17.7323 16.6203 16.5914 17.7772C16.4138 16.8831 15.2945 17.127 15.694 15.5678C15.6978 15.549 16.1405 15.0454 16.1462 15.0102C16.2198 14.5812 15.5837 15.4073 14.6595 16.2955C14.4276 16.5188 15.3284 15.2672 15.3929 15.1742C15.6316 14.8323 16.2968 14.0885 16.3392 14.0191C16.6676 13.4706 14.5733 16.018 14.4742 15.9372C14.4746 15.9304 14.8748 15.4737 14.905 15.4204C15 15.253 14.8206 15.4176 14.9286 15.2358C15.179 14.8155 16.1757 13.5603 15.4905 14.2041C15.402 14.288 14.2295 15.7457 14.1955 15.6033C14.1828 15.5451 14.0043 15.44 14.0372 15.3104C14.0699 15.1806 14.4819 14.7389 14.4953 14.7161C14.8807 14.0016 15.1351 13.7828 15.8211 12.8194C16.5037 11.859 14.7484 14.0459 14.5264 14.2687C14.304 14.4901 14.6293 13.9068 14.7513 13.7114C14.8733 13.5158 15.1425 13.241 15.2044 13.1245C15.6061 12.3614 14.2701 14.1588 13.9472 14.47C13.1847 15.2084 14.4155 13.5294 14.4515 13.2967C14.4614 13.234 14.1844 13.6191 14.1348 13.636C13.9429 13.6987 14.2963 13.1503 13.8228 13.5333C13.7453 13.5955 12.8843 14.5078 13.4046 13.7492C13.4797 13.6399 13.8239 13.2515 13.8587 13.1308C13.9111 12.9498 13.8806 12.7809 13.7133 12.8693C13.5897 12.9349 13.1097 13.644 13.2194 13.3925C13.2685 13.2803 13.624 12.9246 13.69 12.7462C13.7579 12.5694 13.6209 12.4892 13.5647 12.467C13.5079 12.4447 13.1327 12.9737 13.102 13.0051C12.9251 13.1839 12.6456 13.3616 12.6386 13.3551C12.2118 13.1211 12.5166 11.9772 11.9144 11.9739C11.8678 11.9729 11.4751 12.5324 11.4638 12.5379C11.1891 12.6889 12.3661 11.3021 12.6603 10.7625C11.8349 11.8761 11.9437 11.6437 11.7803 11.7109C11.701 11.7443 11.397 12.1873 11.3608 12.2288C10.82 12.842 11.4178 11.9742 11.5377 11.7949C11.9794 11.1357 11.3812 11.8573 11.6745 11.4154C11.9655 10.9766 12.4876 10.394 12.4099 10.3483C12.0931 10.731 11.3691 11.8086 11.1902 11.9373C10.5154 12.425 10.7572 11.3396 10.6537 11.134C10.5549 10.9316 10.4509 10.9695 10.4621 10.7566C10.4789 10.3694 9.98092 11.1962 9.62024 11.4796C9.2603 11.7637 10.6842 9.87193 10.9642 9.44661C11.2438 9.02137 10.9236 9.43607 11.0666 9.1947C11.2095 8.95331 11.4512 8.70067 11.467 8.58313C11.4821 8.46515 10.8378 9.11779 10.5155 9.54163C9.83256 10.4393 9.20544 11.4445 9.32899 11.0232C9.33647 10.9983 9.71603 10.5044 9.72647 10.4348C9.79637 9.89843 9.60496 9.72949 9.63494 9.2364C9.63985 9.16797 10.0565 8.61413 10.0637 8.56774C10.1386 8.08259 9.54233 9.08917 8.7211 10.0991C9.71081 8.68499 10.254 7.77728 10.1221 7.67607C10.0441 7.61544 9.63749 8.25037 9.28979 8.65684C9.18523 8.77953 9.41662 8.31159 9.20934 8.59945C8.53221 9.5407 7.86361 10.6539 8.01837 10.1364C8.02614 10.1121 8.396 9.59628 8.39708 9.55086C8.40577 9.25482 7.71964 10.2542 7.49923 10.2849C7.32604 10.3089 7.53664 9.56403 7.47157 9.37921C8.526 7.75027 8.15962 8.04291 7.39016 9.13894C7.33646 9.03956 7.20799 9.04747 7.22536 8.83962C7.23113 8.76867 7.54977 8.30547 7.57871 8.25195C8.03257 7.4123 7.30067 8.48958 7.25569 8.52156C6.79654 8.81869 7.15685 7.88104 6.46149 8.58508C6.43645 8.61045 5.72002 9.75217 6.18552 8.88314C6.21762 8.82325 6.60074 8.33884 6.53697 8.24407C6.47434 8.14986 6.67986 7.42895 6.23197 7.88817C6.1237 7.99844 5.48473 8.89087 5.86452 8.12178C5.91616 8.01738 6.12393 7.69123 6.22283 7.49971C6.53686 6.88879 5.81676 8.04551 6.36552 7.02515C6.9144 6.00492 7.25955 5.2015 6.72282 5.81172C6.70678 5.82921 6.12662 6.74057 6.09538 6.70231C6.04577 6.64028 6.06861 6.39276 5.9976 6.35932C5.96346 6.34368 5.6453 6.93437 5.63351 6.94168C5.22935 7.14052 5.37773 6.53555 5.27398 6.1766C5.25527 6.10944 4.67907 6.83301 4.95515 6.15829C5.25632 5.41912 6.98133 2.61327 6.37822 3.1725C6.13487 3.39504 3.97252 6.96976 4.88391 4.99979C4.32632 5.30107 4.59131 4.18083 3.92093 4.68441C3.89098 4.70658 3.2835 5.70246 3.25979 5.67119C3.25457 5.66379 3.2557 5.64605 3.26132 5.62113C3.28786 5.48007 3.46001 5.12294 3.4472 5.08076C3.38932 4.85947 3.03249 5.19273 2.93467 5.05388C2.89662 5.00201 3.19248 4.52225 3.1474 4.46051C3.10153 4.39897 2.69667 5.02208 2.79079 4.66398C2.86335 4.39151 3.54121 3.03345 3.53879 2.82996C2.80947 4.13551 2.76634 4.07615 2.47516 4.36678C2.419 4.42337 2.19005 4.89139 2.15071 4.94177C1.98592 5.15742 2.1581 4.76003 1.98443 4.99812C1.94271 5.05529 1.69977 5.5045 1.65224 5.57676C1.24028 6.209 1.68985 5.14708 1.76497 4.96062C2.05465 4.25463 1.71607 4.8272 1.80496 4.53634C1.89251 4.2449 2.13968 3.95176 2.16331 3.75969C2.21009 3.36131 2.00718 3.35168 1.88896 3.26764C1.84016 3.23681 1.57566 3.86635 1.56169 3.87614C1.38359 3.98142 1.5893 3.27589 0.948281 4.47464C2.38252 1.26895 0.739818 4.75238 0.89454 4.04864C0.907291 3.99185 1.59423 2.48016 1.74471 2.28147C1.8944 2.08267 1.74579 2.58635 1.97382 2.27407C2.02725 2.20069 2.78871 0.840243 2.84457 0.762574C3.26747 0.14869 2.19858 2.38803 2.14362 2.5128C1.55589 3.86221 2.39868 2.4089 2.48152 2.32077C2.85204 1.91221 2.81101 2.28269 3.09771 2.00448C3.28394 1.82522 4.04461 0.388991 4.08476 0.466228C4.22285 0.725022 3.20296 2.75118 4.32974 1.12703C4.5706 0.781085 5.39225 -0.794608 4.85835 0.506547C4.82565 0.58908 4.30411 1.7613 4.75645 1.08842C4.8136 1.00364 5.067 0.552209 5.09798 0.519734C5.30094 0.311141 5.1407 0.694289 5.30541 0.560529C5.47105 0.427302 5.69549 0.21609 5.68315 0.410996C5.67549 0.527386 5.25659 1.39869 5.16047 1.61565C4.88415 2.24101 5.49668 1.30616 5.12735 2.04367C4.7566 2.78513 4.06482 3.83831 3.89838 4.35874C4.56402 3.19001 5.25164 1.99291 5.92283 0.81854C5.93268 0.827011 5.94202 0.836465 5.95093 0.846786L5.91624 0.827387C6.08816 1.01592 6.10527 1.46789 6.34478 1.53739C6.37683 1.54534 6.70135 0.898355 6.74493 0.890673C6.92748 0.8612 6.78507 1.37237 7.01609 1.26694C7.19674 1.18318 7.68569 0.580157 7.88839 0.473435C7.19409 1.84901 7.60882 1.48387 7.65465 1.6722C7.67079 1.73744 7.46376 2.09257 7.42554 2.22523C7.28598 2.71695 7.91295 1.50868 8.04929 1.34016C8.63327 0.622272 7.1071 3.2957 7.29168 3.31465C7.30056 3.31633 8.22053 1.953 8.28578 1.87275C8.70621 1.34646 8.01273 2.37465 8.00476 2.5103C7.99015 2.75823 7.85842 3.13513 8.21512 2.78724C8.3199 2.68368 8.91934 1.84972 8.58179 2.56917C8.53757 2.66337 8.25692 3.12752 8.24753 3.15887C8.10003 3.6868 8.97233 2.2228 9.33935 1.76952C9.70675 1.31661 9.21483 2.39322 9.062 2.69695C8.66889 3.48397 8.82511 2.99201 8.77775 3.064C8.21549 3.92134 8.38432 3.81677 8.39947 3.92684C7.54815 5.36476 7.68122 5.32776 8.41859 4.03518C8.49891 3.89386 8.37214 3.99947 8.39947 3.92684C9.29531 2.55239 9.50103 2.4311 8.80972 3.8036C8.48531 4.44667 8.00619 5.13513 8.30797 4.9602C8.44443 4.88144 9.01838 3.88381 9.23996 3.65157C9.74693 3.12257 9.3584 4.14384 9.58371 4.08481C9.6654 4.06331 9.94991 3.49856 10.0175 3.46562C10.1984 3.37693 10.0275 3.82741 10.2471 3.67949C10.2675 3.66545 10.598 3.0945 10.6311 3.10538C10.8907 3.17831 10.8493 3.65244 11.0675 3.80694C11.1741 3.88193 11.5632 3.70104 11.6358 3.83608C11.7651 4.06748 11.4684 5.02118 11.7595 4.93603C11.9487 4.88346 12.2935 4.32069 12.5908 3.97919C13.1696 3.31893 12.4501 4.71599 12.3342 4.92933C12.3302 4.93628 12.1526 5.00359 12.0105 5.31627C11.6418 5.91849 12.3313 4.9311 12.3342 4.92933C12.26 5.06756 12.3563 5.31455 12.4638 5.23557C12.5224 5.19225 12.8651 4.66967 12.8891 4.65688C13.4533 4.36619 13.7857 4.40409 13.8682 4.81979C13.8652 4.83311 13.4559 5.39962 13.4537 5.42375C13.4132 5.77549 13.9969 5.14153 14.4099 4.81277C14.8221 4.48371 14.8214 4.69258 14.1859 5.71346C14.3603 5.65298 14.1732 6.17248 14.0545 6.48419C13.9357 6.79582 14.7479 5.70445 14.7701 5.6874C15.479 5.1394 15.129 5.84864 15.2587 6.09571C15.3181 6.21432 15.6321 6.20256 15.8213 6.15877C15.9745 6.12394 15.8315 6.4154 16.0294 6.30948C16.056 6.29546 16.411 5.80451 16.4282 5.78826C16.9502 5.27445 16.0158 6.42434 15.8735 6.64828C15.3557 7.46252 15.0831 7.8986 15.464 7.62002C15.5516 7.55643 16.9162 5.91585 17.037 5.85129C17.1914 5.77025 16.7047 6.36011 16.8781 6.25979C16.8925 6.25178 17.1784 5.87683 17.2035 5.92236C17.3227 6.12766 17.3539 6.49869 17.5589 6.59854C17.5862 6.61395 18.0145 5.99958 18.0617 6.01231C18.2832 6.07256 18.4518 6.24014 18.4005 6.64568C18.3857 6.74676 18.0359 7.1377 17.9482 7.26649C17.4164 8.04523 18.3384 7.03194 18.3672 7.02154C19.0686 6.73962 18.5299 7.89282 19.19 7.66889C19.2273 7.65455 20.2748 6.61724 19.5397 7.63907C19.4911 7.70727 18.7357 8.74997 19.3389 8.10747C19.3766 8.06732 19.7594 7.52546 19.7774 7.62707C19.7962 7.72909 20.1711 7.46443 19.7913 8.09326C19.6721 8.29172 18.9194 9.33287 19.6436 8.60458C19.6931 8.55291 21.2796 6.86449 20.3096 8.13181C20.1498 8.34033 19.0701 9.63746 19.7118 9.04495C19.8361 8.92999 20.0434 8.61305 20.2395 8.47002C20.5416 8.24954 20.3486 8.67641 20.9123 8.16711C21.0119 8.07678 21.8072 7.24802 21.3033 7.95977C21.2243 8.0712 20.8492 8.49207 20.8358 8.56298C20.7706 8.902 21.1473 8.72529 21.0295 9.13503C20.9884 9.27925 20.38 9.95785 20.2718 10.1856C20.1644 10.414 20.1054 10.6709 20.4227 10.3938C20.7398 10.1163 21.6198 8.95947 21.7691 8.93327C22.4202 8.82161 22.1976 9.74944 22.435 10.116C22.4709 10.171 22.7684 9.74197 22.8457 9.79505C23.1379 9.99365 23.8934 10.0014 23.3987 11.0334C23.0004 11.858 22.333 12.1704 22.2348 12.5613C22.1884 12.7482 23.3669 11.5362 23.4165 11.5089C23.9226 11.2335 23.5384 11.8904 23.8277 11.8384C23.8877 11.8275 24.3093 11.2875 24.3555 11.2841C24.5172 11.2678 24.4047 11.575 24.5222 11.6036C24.576 11.6153 24.9135 11.2164 24.9204 11.276C24.9421 11.4152 24.8647 11.6395 24.617 12.0737C24.5944 12.1133 24.1194 12.5611 24.1604 12.6293C24.2282 12.7385 24.0239 13.2022 24.4612 12.9226C24.5923 12.8381 25.3834 11.9436 24.9069 12.6229C24.8075 12.7649 23.84 13.8235 24.7403 12.9657C24.8898 12.823 26.1328 11.6913 25.4864 12.5577C25.3169 12.7862 24.5821 13.7028 24.7418 13.5979C24.7664 13.5804 25.1713 13.0822 25.2439 13.063C25.4925 13.0036 25.5629 13.1576 25.8108 13.1091C25.8778 13.0952 26.2732 12.5587 26.3592 12.554C26.5964 12.5403 26.6423 12.8076 26.6287 13.074C26.6229 13.1731 26.2249 13.5549 26.1884 13.6025C25.5947 14.3771 26.4985 13.423 26.5672 13.3817C26.9798 13.1354 26.6504 13.6686 26.8588 13.6361C26.9153 13.6284 27.3138 13.1445 27.3565 13.1078C27.7776 12.7524 26.9845 13.5521 26.9378 13.6767C26.8043 14.0285 26.9508 14.0923 27.1074 14.1255C27.1656 14.1371 27.6085 13.5586 27.6552 13.5753C27.9447 13.6673 28.0971 13.8982 28.0227 14.3706C28.0077 14.4604 27.6099 14.8547 27.5318 14.9563C26.9847 15.6663 27.8787 14.8314 27.9744 14.7614C28.4106 14.4411 28.1102 14.8362 28.2437 14.8325C28.3885 14.8272 28.5122 14.8542 28.6191 14.9045C28.71 15.0903 29.2628 15.4476 29.3264 15.6443C29.6743 15.8719 29.7613 16.3444 29.8582 16.7101C30.0206 17.3166 29.8928 17.9993 30.3423 18.3305C30.3708 18.3526 30.9242 17.8541 30.9562 17.8671C31.3407 18.054 31.3564 18.5332 31.7654 18.6956C31.7985 18.7103 32.3163 18.2293 32.3877 18.238C32.538 18.2528 32.5921 18.3802 32.4833 18.6035C32.4312 18.7115 31.9182 19.0397 31.8753 19.1406C31.7725 19.374 31.8194 19.5116 31.9845 19.5359C32.0563 19.5456 32.5668 19.0298 32.6164 19.0778C32.966 19.3958 33.3536 19.6784 32.9216 20.6319C32.892 20.6975 31.7672 21.6381 32.0291 21.5152C32.3495 21.2644 32.7224 20.9645 33.0629 20.6939C33.6718 21.0779 33.6946 21.9206 34.0571 22.5022C34.0724 22.5265 34.6495 22.0042 34.6822 22.0487C34.8726 22.3065 35.2341 22.4156 34.8317 23.1502C34.7924 23.2221 33.7127 24.0599 33.932 24.0037C33.9697 23.9906 34.205 23.9937 34.4588 23.8363C34.4969 23.8123 34.9803 23.3955 35.0229 23.4191C35.2638 23.5666 35.3185 23.8691 35.1684 24.3048C35.1441 24.3769 34.5871 24.7681 34.5652 24.8232C34.4083 25.2038 34.9479 25.0492 34.5405 25.5221C34.2567 25.8291 33.3527 26.5787 32.5069 27.3669C32.3957 27.4868 32.3598 27.4863 31.8746 27.9524C30.7123 29.1814 29.3285 30.4155 28.0791 31.7152C28.0133 31.7867 28.0067 31.8467 28.0306 31.9118C28.0524 31.9741 28.1096 32.05 28.2336 32.1942C28.3424 32.3274 28.5154 32.5075 28.4991 32.614C28.4922 32.7266 28.1864 32.7127 27.7869 32.6814C27.5059 32.5305 27.0245 32.4689 26.7634 32.6543C26.568 32.7667 26.126 33.2968 25.8463 33.4081C25.5633 33.5146 25.9526 33.0891 25.6303 33.2222C25.3189 33.3737 24.7486 33.9045 24.5673 33.8319ZM13.5218 7.8769C13.1973 8.44924 14.6269 6.53047 14.2177 6.9401C14.1962 6.96218 13.5375 7.84868 13.5218 7.8769ZM5.21315 3.04075C4.7876 4.01178 5.60426 2.69045 5.93879 1.94373C6.27223 1.19742 5.34168 2.74614 5.21315 3.04075ZM3.94327 3.211C3.63504 3.99284 5.32645 1.0514 4.87729 1.58518C4.85164 1.61519 3.96106 3.16555 3.94327 3.211ZM32.095 27.3894C32.0715 27.4109 32.084 27.4746 32.1086 27.4549C32.7114 26.9913 32.6902 26.8694 32.095 27.3894ZM2.60451 3.42938C2.42276 3.8524 2.76789 3.43616 2.99565 2.91073C3.17718 2.48704 2.82842 2.90191 2.60451 3.42938ZM15.1817 12.3852C15.1602 12.4137 15.1744 12.4663 15.3002 12.3089C15.7053 11.8016 15.5423 11.9055 15.1817 12.3852ZM0.962951 2.67613C1.15385 2.9032 0.114189 5.51066 0.000680804 5.11046C-0.0207409 5.03774 0.470143 4.34237 0.517465 4.08613C0.601302 3.61821 -0.195461 5.18917 0.0835458 4.28052C0.133933 4.11387 0.954793 2.65753 0.964983 2.67276C0.964306 2.67388 0.963628 2.67501 0.962951 2.67613ZM11.8534 10.2175C11.8358 10.2439 11.867 10.3041 11.8868 10.2798C12.3647 9.68832 12.3012 9.56582 11.8534 10.2175ZM16.2394 15.1711C16.1985 15.2248 16.2648 15.3628 16.3084 15.3182C17.1637 14.4144 17.0301 14.131 16.2394 15.1711ZM7.49759 9.33441C7.02854 9.94127 6.91657 9.97633 7.38988 9.13992C7.41704 9.21777 7.46801 9.25941 7.49759 9.33441Z" fill="var(--stroke-0, #FF5151)"/>
</svg>
