<svg preserveAspectRatio="none" width="100%" height="100%" overflow="visible" style="display: block;" viewBox="0 0 131.703 125.623" fill="none" xmlns="http://www.w3.org/2000/svg">
<path id="Vector 201" d="M27.1743 88.0638C26.29 86.3592 25.4606 84.3857 24.7382 82.3617C24.1017 80.5317 23.3999 78.7297 22.7266 77.1577C22.3255 76.2347 22.9422 76.4717 22.6671 75.8182C22.1165 74.5353 21.2358 73.5286 20.601 72.2152C20.3902 71.7771 21.2827 71.9053 21.0465 71.4519C20.3499 70.1261 19.5162 68.889 18.6466 67.6294C17.8896 66.5331 17.1179 65.4456 16.3735 64.2945C13.3649 59.6801 10.3274 55.1933 6.90547 51.6312C6.81167 51.5236 6.67269 51.406 6.20658 50.9251C6.07936 50.7875 5.92876 50.6355 5.65863 50.278C5.52147 50.0883 5.3487 49.8611 5.10507 49.374C4.91984 48.881 4.35101 48.1062 4.65271 46.0574C4.82429 45.0585 5.43437 43.9939 6.04797 43.3965C6.67456 42.7702 7.18871 42.5019 7.60523 42.3044C8.38214 41.9621 8.79099 41.9208 9.09089 41.8689C9.69068 41.7893 9.94861 41.8088 10.1971 41.8134C19.706 42.3687 26.2748 48.6117 31.2267 53.2644C31.8547 53.8408 32.366 54.3338 32.8071 54.7159C33.022 54.9034 33.2197 55.0608 33.322 55.1364C33.3705 55.1735 33.3955 55.1887 33.3435 55.1666C33.2867 55.1472 33.1671 55.0758 32.7691 54.9934C32.7634 54.9924 32.7576 54.9913 32.7518 54.9902C32.5532 54.9552 32.2006 54.8961 31.6592 54.9559C31.1242 55.0076 30.4202 55.2547 29.9427 55.5853C28.956 56.2934 28.8454 56.7624 28.7413 56.9327C28.6048 57.2788 28.7255 57.0571 28.7778 56.8482C28.9141 56.374 29.0544 55.6461 29.1786 54.9059C29.4279 53.4084 29.6422 51.7652 29.8149 50.1205C30.0334 48.0242 30.1782 45.9323 30.1788 43.9519C30.1779 43.3645 29.5708 43.6828 29.5281 43.5689C28.8762 41.7726 30.0348 42.4127 30.2504 41.2754C31.1022 36.7377 31.3834 31.648 31.3507 27.228C31.3349 25.3479 30.0821 27.1768 30.822 25.3167C30.8722 25.1871 31.4767 25.6919 31.5661 25.1792C31.7676 24.0166 31.7533 21.8037 31.8437 20.8978C31.971 19.6455 32.011 19.1342 32.0539 18.3456C32.0712 18.0251 32.0887 17.6721 32.1129 17.21C32.2376 14.9469 32.6871 12.2597 32.7336 9.78016C32.7431 9.24672 32.0466 9.90613 32.0067 9.04179C31.9589 8.19815 32.2516 5.87008 32.572 5.00278C32.8814 4.14224 33.3126 4.61405 33.4545 4.48351C34.0411 3.97899 34.0827 3.06496 34.79 1.62101C34.9183 1.40797 35.0811 1.18134 35.3108 0.950494C35.5892 0.67865 35.9288 0.421646 36.4222 0.225585C37.443 -0.192989 38.5385 0.0618393 39.012 0.263514C40.0457 0.714486 40.3141 1.03989 40.6172 1.24967C41.1705 1.69416 41.4182 1.91367 41.5079 2.02505C44.9332 7.11335 45.6754 11.0349 47.5311 15.3058C47.8462 16.063 48.1737 16.8129 48.5256 17.5623C50.296 21.3294 52.5091 25.1754 54.4113 28.5226C55.3529 30.1781 56.223 31.7011 57.13 33.057C57.5799 33.7276 58.0431 34.3553 58.4725 34.8267C58.6771 35.0548 58.8912 35.2464 58.9627 35.303C58.9935 35.3318 58.991 35.3214 58.8443 35.2746C58.7146 35.2365 58.3566 35.1401 57.8492 35.247C58.1622 35.1921 58.5089 35.0546 58.906 34.7851C59.1426 34.619 58.4479 34.1825 58.7092 33.9865C61.8435 31.3779 64.6912 24.9044 68.1041 19.6094C68.4531 19.0593 68.6482 20.108 69.0317 19.5787C71.3453 16.2379 75.6944 11.8157 75.3331 8.05406C75.7666 7.59966 76.2473 7.1217 76.7533 6.66314C77.2224 6.24075 77.7984 5.71314 78.9883 5.35646C80.1794 4.95001 81.9588 5.35865 82.7504 5.992C84.3491 7.23459 84.5069 8.12132 84.8481 8.87598C85.38 10.3735 85.476 11.5458 85.4832 12.6089C85.4432 14.3075 84.4429 12.8738 85.0848 14.7655C85.2208 15.1878 85.7572 14.5197 85.913 15.1741C86.4417 17.4339 86.5441 19.8671 86.7993 22.1524C86.8551 22.6514 86.9216 23.1365 87.0043 23.605C87.0993 24.1342 87.6575 23.959 87.767 24.1041C88.6559 25.3123 87.3989 27.5154 87.3225 27.9815C86.7576 31.5365 87.1704 34.0808 87.3024 37.3719C87.3327 38.1389 88.0518 37.2012 88.1079 37.9328C88.3882 41.7157 88.487 45.6382 88.2937 49.3932C88.2485 50.2139 87.5719 49.4902 87.517 49.8789C87.284 51.623 88.52 51.9653 88.3245 53.639C88.2847 53.9788 87.7223 53.8118 87.6641 53.8759C86.7508 54.9289 88.1538 55.6859 88.2019 55.9024C88.3109 56.4161 88.3906 56.8316 88.3883 56.8746C88.3225 56.6473 87.9862 56.187 87.6544 56.0294C87.3277 55.8612 87.1857 55.9148 87.2015 55.9623C87.2425 56.0761 87.6551 56.1945 88.0993 56.2423C88.9984 56.3447 90.1149 56.2758 91.3136 55.8839C91.668 55.766 90.6856 55.2958 91.6818 55.0074C98.3942 52.9482 106.051 51.2949 113.22 51.0386C114.332 50.9936 113.606 51.6107 113.683 51.6668C114.933 52.5431 115.498 51.1215 115.861 51.0342C117.617 50.6326 119.33 50.8673 120.838 50.6987C121.759 50.5964 122.586 50.3494 123.375 49.7368C123.98 49.764 124.579 49.7951 125.301 49.8893C125.666 49.9413 126.05 49.9958 126.595 50.1618C126.87 50.2505 127.198 50.3634 127.626 50.6253C128.049 50.8741 128.628 51.4158 128.921 52.0257C129.851 53.7631 129.368 55.8968 128.766 56.9714C128.157 58.1462 127.45 58.9426 126.765 59.672C125.382 61.1059 123.974 62.2231 122.58 63.3083C119.799 65.4565 116.971 67.3742 114.536 69.3695C112.299 71.214 109.69 73.6313 108.872 75.1793C108.761 75.283 108.704 75.7529 108.801 76.2956C108.823 76.4098 108.117 76.4217 108.171 76.6679C109.204 79.7959 110.014 78.7277 112.266 79.7387C112.836 79.9783 112.736 82.2976 112.765 82.5006C112.814 83.2076 111.666 83.3898 111.728 83.5894C112.3 85.2434 114.622 82.8911 116.046 84.4964C116.087 84.5504 115.445 84.7434 115.521 84.9185C115.756 85.4662 116.311 85.7221 116.531 86.2754C117.029 87.5428 116.158 88.9624 118.17 89.776C118.427 89.8782 119.548 88.3293 120.814 89.8456C121.084 90.171 121.888 91.0528 122.661 91.9434C123.336 92.719 123.981 93.4972 124.236 93.8804C124.79 94.7104 123.889 94.5866 123.915 94.6573C125.015 97.184 124.117 96.6406 124.036 98.3955C123.941 100.143 125.896 98.1062 126.481 98.3363C127.068 98.5649 127.734 100.515 127.825 101.037C127.925 101.56 127.263 101.304 127.408 101.722C128.321 104.47 129.256 101.925 130.162 102.464C130.819 102.867 131.209 103.441 131.43 104.098C131.645 104.819 131.749 105.333 131.684 106.685C131.682 106.912 131.646 107.265 131.447 107.62C131.251 107.976 130.951 108.2 130.727 108.306C130.278 108.504 130.081 108.458 129.885 108.451C129.533 108.408 129.314 108.312 129.105 108.229C128.684 108.057 128.326 107.892 127.949 107.787C127.421 107.636 127.768 108.182 127.279 108.133C125.33 107.903 124.4 106.986 122.162 107.011C121.798 107.016 119.78 107.763 118.944 106.573C118.828 106.403 119.396 106.025 118.66 105.697C118.191 105.488 117.567 105.246 116.876 105.011C115.97 104.701 114.96 104.412 114.222 104.301C113.274 104.157 114.085 105.284 113 104.69C112.529 104.428 113.607 104.224 112.707 103.771C111.801 103.317 109.351 102.614 108.428 102.357C107.492 102.097 107.816 102.869 107.729 102.889C107.211 102.996 105.341 102.763 105.186 102.716C97.2496 100.427 90.2776 97.1751 82.4757 95.2421C81.8607 95.0888 82.0716 95.8634 81.9757 95.8468C79.8356 95.5132 81.971 94.2499 80.6969 93.2408C80.5162 94.6326 79.7281 94.1382 78.2335 93.8598C77.5044 93.7245 77.7403 94.3525 77.6601 94.3863C76.4017 94.8684 75.9547 93.6432 75.8352 93.3844C75.3567 92.4213 74.3659 93.1108 74.0272 92.4633C73.7023 91.8241 74.9906 91.3808 73.5988 90.9948C73.0651 91.3591 73.7613 92.9044 72.6295 92.8019C72.0429 92.7517 71.3766 92.6432 70.7058 92.5066C68.5835 92.0783 66.0985 91.2487 63.9122 90.7061C63.3766 90.5766 62.852 90.4758 62.4937 90.4455C62.3172 90.4265 62.1908 90.443 62.2385 90.4052C62.2799 90.3923 62.5625 90.1059 62.5682 89.9448C62.5886 89.7951 62.5357 89.8717 62.5394 90.0012C62.5365 90.127 62.559 90.3079 62.5932 90.487C62.6635 90.8523 62.7712 91.2177 62.8801 91.5423C63.1037 92.2031 63.3305 92.7851 63.5312 93.3012C64.2441 95.1266 64.6424 96.0313 65.0927 97.4962C66.132 100.88 66.5299 99.3164 67.7721 101.181C69.0157 103.049 66.4191 102.957 66.0686 103.443C65.7138 103.918 66.3297 104.039 66.2173 104.502C66.1044 104.963 65.4695 104.327 65.7142 105.199C65.9634 106.082 67.735 108.017 68.3509 108.117C69.6491 108.314 70.3237 106.837 70.8454 109.212C70.8751 109.35 70.1285 109.168 70.2711 109.684C71.3892 113.754 73.087 117.753 74.0241 121.935C74.124 122.545 73.3189 122.187 73.3519 122.516C73.3538 122.57 73.3539 122.654 73.3438 122.651C73.3153 122.828 73.2492 122.865 73.2504 122.846C73.2538 122.834 73.197 122.85 73.1021 122.836C72.9231 122.814 72.7025 122.747 72.5456 122.718C72.175 122.632 71.9564 122.669 71.6869 122.744C71.1889 122.908 70.6929 123.327 69.5055 123.259C70.8672 122.099 70.6129 120.689 68.6371 119.019C67.4424 118 67.148 118.733 66.0332 118.467C65.6889 118.379 65.1977 117.251 64.8053 117.375C63.5282 117.784 63.4547 119.472 61.7621 117.24C61.6893 117.14 62.4009 116.93 62.1181 116.621C60.3065 114.624 59.2541 115.296 57.031 113.44C55.2906 111.985 52.8452 108.718 51.0117 106.944C52.3386 105.523 50.208 104.246 48.5988 104.659C48.5643 104.629 48.5297 104.598 48.4952 104.568C48.1653 104.276 47.8193 104.004 47.6298 103.905C47.5358 103.854 47.5118 103.856 47.5406 103.857C47.5688 103.859 47.595 103.842 47.532 103.858C46.9482 104.057 46.3929 104.289 45.8427 104.522C45.3849 104.722 45.3705 104.076 45.286 104.056C43.8866 103.801 44.0698 105.326 43.8474 105.564C41.266 108.338 38.2861 109.907 35.9736 113.017C35.888 113.131 36.581 114.31 35.1627 114.186C35.0681 114.174 35.655 112.921 34.243 113.987C32.8129 115.07 29.7241 116.483 28.071 118.392C27.9678 118.511 27.8498 118.716 27.7028 118.957C27.2822 119.652 26.6117 120.632 25.4957 120.582C25.294 120.572 25.2402 120.149 24.9262 120.092C23.9309 119.904 24.2754 121.289 22.9216 120.736C21.5656 120.176 19.6574 120.276 17.7981 121.965C17.738 122.016 17.6361 123.243 16.8987 123.515C15.7353 123.949 13.9827 124.292 12.7317 124.557C12.1247 124.685 12.6417 125.264 12.538 125.297C11.7762 125.508 11.0387 125.654 10.2158 125.617C9.20176 125.635 8.08003 124.739 7.86164 123.815C7.58213 122.906 7.65428 122.101 7.76546 121.313C8.02049 119.721 8.55531 118.247 9.1763 116.511C9.44171 115.753 9.33046 113.2 10.5711 111.964C11.9289 110.621 14.3501 113.438 15.0607 109.517C15.3559 107.943 12.2824 104.448 15.4074 102.628C16.5006 99.1728 18.1783 96.1483 19.5911 92.9505C20.3843 91.1541 20.9629 89.2082 21.0671 87.1577C21.0846 86.8899 20.0651 85.9204 20.1433 85.3631C20.2658 84.5209 20.8368 84.0834 20.9008 83.4561C20.9796 82.6978 20.9725 81.9527 20.9297 81.2207C20.842 79.3978 19.9349 77.8826 18.5302 76.95C17.7674 76.4745 18.311 76.0937 17.2092 75.6414C16.063 75.2469 15.2044 75.8412 13.7037 75.3717C12.5718 75.0278 11.318 73.5205 9.66913 73.4489C9.69779 74.9465 8.62188 74.9782 6.75599 75.5735C6.40003 75.688 6.84439 76.1646 6.67923 76.2454C6.00785 76.5859 5.30793 76.2294 4.66786 76.5864C4.50825 76.6726 4.54995 77.1816 4.42274 77.2803C3.37764 78.157 1.13664 77.095 0.712194 76.6317C0.575206 76.5131 0.406119 76.3699 0.291702 76.2212C-0.111227 75.93 -0.0889524 75.4378 0.310405 75.1417C1.48111 74.921 1.76825 74.2678 2.70479 74.1935C3.70402 74.1553 2.5022 74.973 3.5862 74.7903C5.81625 74.4427 8.63041 73.8557 10.9138 73.5549C11.8217 73.4339 11.1099 72.8453 11.2376 72.8123C12.1645 72.5979 13.129 72.6171 13.9707 72.5163C14.8249 72.4389 15.5706 72.2301 16.0569 71.5097C17.6147 74.9238 17.1845 71.0868 19.9626 71.6266C20.1802 71.671 20.5485 73.3126 19.7399 73.6038C18.9347 73.8948 17.6538 73.4528 16.5435 73.9097C16.2773 74.0158 14.8598 75.6792 14.6651 75.7908C14.5151 75.8732 14.376 75.9254 14.2494 75.9524L14.351 75.9426C13.1495 76.2353 12.7074 74.2385 12.6123 74.125C11.4471 72.7827 9.80759 74.7209 9.36435 74.9183C7.27687 75.8073 5.35969 75.8736 3.88827 76.7883C2.96559 77.3899 3.54087 78.9436 3.19543 79.0842C3.1633 79.0981 3.13424 79.1086 3.1124 79.1125L3.22957 72.3499C2.86335 72.0855 2.57356 71.9746 2.38078 71.915C2.22118 71.8696 2.11676 71.8593 2.05071 71.8605C1.92834 71.8668 1.93924 71.9106 1.98069 71.9525C2.06439 72.0391 2.27774 72.1378 2.5001 72.2314C2.94189 72.4197 3.45541 72.6033 3.95503 72.7137C4.97486 72.9328 6.00031 72.8492 7.44419 71.7527C8.09828 71.2778 7.22489 69.5396 9.90887 70.7574C10.0915 70.8305 12.0313 72.0161 13.2282 71.2639C13.3803 71.1676 13.3963 70.6498 13.6002 70.6157C14.9989 70.4167 15.9006 70.8987 17.6343 71.1213C19.3076 71.3387 22.1098 72.0987 23.8669 74.5942C24.9731 76.0916 24.6846 78.4435 24.5385 79.0342C24.4278 79.843 24.5061 80.4791 24.5864 81.1575C24.6958 81.8359 24.8869 82.5137 24.3883 82.9661C23.5349 83.713 22.3426 82.2234 21.7176 84.1273C23.0556 84.281 24.4209 84.5523 25.7593 84.7872C25.474 88.1979 24.37 91.4488 23.0278 94.3772C22.5081 95.5048 21.9983 96.6444 21.5281 97.7976C21.3356 98.2731 22.2063 98.0729 22.0167 98.5904C21.2141 100.77 19.9446 102.415 19.2049 104.683C18.6358 106.438 18.5671 108.58 18.0418 110.394C16.1836 110.877 15.6338 113.689 14.8667 115.479C14.5981 116.105 14.2211 115.941 13.9418 116.354C12.9073 117.946 14.4779 117.518 14.5356 118.053C14.8914 120.182 11.7619 119.712 11.6321 121.757C11.6295 121.794 12.0357 122.157 12.4727 122.213C12.6885 122.243 12.9027 122.182 13.0392 122.046C13.1808 121.921 13.2314 121.715 13.2271 121.647C13.2155 121.196 12.9063 120.746 12.742 120.624C12.5587 120.476 12.4688 120.534 12.397 120.629C12.2508 120.845 12.1322 121.091 11.4572 120.756C11.0191 120.573 10.7234 120.586 10.5796 120.617C10.5383 120.727 11.053 120.804 11.5045 120.742C11.9885 120.681 12.5353 120.502 13.1655 120.107C13.623 119.827 14.4069 118.482 15.6442 118.82C15.8098 118.864 15.9494 119.393 16.0637 119.38C18.1436 119.057 17.4684 117.455 18.2025 116.439C18.9299 115.421 21.0307 115.547 21.5367 115.629C22.8214 115.869 21.0927 116.341 21.0935 116.433C21.0718 117.633 22.1504 116.805 23.0722 116.316C24.0951 117.651 25.2982 116.737 24.0226 115.797C23.8839 115.695 23.2894 116.27 23.0722 116.316C23.008 115.182 23.3956 114.37 24.224 113.944C24.8048 113.638 25.5351 113.533 26.4886 113.595C27.5939 113.681 27.4451 114.841 29.3627 113.041C30.2097 112.231 29.1785 111.569 29.7905 110.704C31.2239 108.705 34.2174 107.615 35.9507 105.843C36.575 105.206 35.5091 105.311 35.9196 104.86C37.0212 103.652 38.3867 103.02 39.649 101.644C39.7659 101.517 39.0206 101.278 39.4709 100.895C40.9662 99.6138 42.9861 98.307 45.2231 97.5897C46.6908 96.9011 49.6316 97.2877 50.6612 98.0183C51.8195 98.6737 52.2473 99.1364 52.6824 99.5068C53.5895 100.328 54.4922 101.164 55.4551 102.02C56.9759 103.365 59.8574 105.517 61.3129 106.965C63.8406 109.47 66.3661 113.125 68.7355 114.896C70.274 116.045 70.3828 115.258 71.2875 115.439C73.0267 115.799 73.992 118.447 74.0102 118.693C74.0711 118.758 72.9018 118.147 73.2851 118.821C73.2475 119.647 74.007 118.693 74.0102 118.693C74.0145 118.752 74.2315 118.927 74.2163 118.958C74.2025 118.963 74.1676 118.954 74.0262 118.922C73.953 118.906 73.8747 118.888 73.7232 118.866C73.554 118.843 73.3242 118.82 73.0099 118.836C72.4839 118.799 70.7851 119.314 70.034 120.458C69.8399 120.722 69.6944 120.989 69.59 121.234C69.4924 121.466 69.4495 121.612 69.4067 121.776C69.3275 122.09 69.3082 122.33 69.3033 122.506C69.3098 123.35 69.3717 123.259 69.3726 123.335C69.381 123.365 69.3765 123.338 69.3659 123.298C69.3477 123.226 69.3059 123.091 69.2705 122.991C69.1878 122.753 69.1083 122.569 69.0403 122.451C68.8698 122.175 68.3405 122.552 68.26 122.398C66.2652 118.602 64.3384 114.393 62.8846 110.05C62.8655 109.97 63.5586 109.819 63.5055 109.634C62.7815 107.048 61.3447 105.802 60.039 103.96C58.734 102.119 58.2287 100.442 58.8424 98.7773C58.3964 97.9221 58.0695 96.7487 57.8284 95.6372C57.6545 94.8372 57.5095 94.0272 57.4002 93.3323C57.1448 91.7099 55.7416 91.2336 55.6705 90.9717C55.5447 90.3626 55.4004 89.6251 55.6078 88.3845C55.7697 87.1937 56.7094 85.421 57.9375 84.5167C60.4007 82.7943 61.5711 83.0803 62.4312 82.9495C64.1186 82.9076 64.9405 83.1236 65.8633 83.3335C67.6234 83.7782 69.0976 84.3949 71.0131 84.97C71.4783 85.1109 72.0244 85.259 72.6703 85.4254C74.5398 85.9048 76.9606 86.4556 78.4461 86.7705C80.013 87.1005 80.8472 87.6772 82.3119 87.8954C82.5097 87.9252 82.4886 87.2876 82.5532 87.2823C84.3384 87.0527 83.1567 88.2484 83.4067 88.5978C84.3069 89.8665 84.8922 90.5735 87.023 90.7353C87.5164 90.774 89.4752 89.133 90.3507 89.2645C91.4939 89.441 90.8604 90.0492 92.0603 90.2149C92.1627 90.2298 92.2782 89.7722 92.9804 90.0041C96.2405 91.0745 99.7373 92.4122 103.161 93.3897C103.626 93.5246 103.246 92.6299 103.922 92.8126C107.107 93.6751 110.545 94.7324 113.515 95.9745C114.24 96.281 113.621 96.6442 113.74 96.8413C114.484 98.042 116.296 97.1482 116.529 97.1886C117.39 97.3389 118.206 97.5175 118.973 97.7103C121.194 98.2701 123.147 98.9824 125.147 99.6323C126.146 99.956 127.133 100.258 128.111 100.485C128.589 100.596 129.068 100.686 129.416 100.719C129.571 100.734 129.736 100.73 129.582 100.703C129.475 100.701 129.374 100.639 128.579 100.761C128.18 100.869 127.492 100.858 126.036 101.903C125.369 102.39 124.443 103.448 124.021 104.602C123.58 105.747 123.57 106.722 123.613 107.33C123.668 108.02 123.75 108.248 123.78 108.405C124.116 109.27 122.027 108.334 122.483 106.864C122.521 106.77 123.017 105.228 121.768 105.026C121.691 105.016 121.534 105.909 120.935 104.998C120.331 104.083 118.865 102.949 118.418 101.287C118.279 100.764 118.487 99.0183 116.72 98.5577C116.669 98.5437 116.097 98.5082 115.471 98.3456C114.581 98.1211 113.591 97.6489 113.952 96.6489C114.052 96.3703 115.404 95.3437 113.514 94.5611C113.15 94.4128 113.309 95.1429 112.502 94.6114C111.263 93.7965 110.292 92.0744 108.503 91.1996C108.192 91.0513 106.41 90.772 106.324 89.3294C106.311 89.1049 106.962 89.0005 106.618 88.4978C105.019 86.0465 102.711 84.121 101.24 79.9173C100.774 78.2584 101.876 78.8776 101.682 76.8943C101.65 76.1646 101.584 75.077 101.959 73.6175C102.709 71.2003 103.617 70.2314 103.922 69.2597C104.421 67.9119 102.335 68.1973 103.566 66.5081C104.977 64.6537 106.457 63.2047 107.986 61.884C112.476 58.1066 117.106 55.8706 119.717 53.4135C119.949 53.1917 119.856 53.1015 119.803 52.9705C119.737 52.8505 119.734 52.6639 119.866 52.4893C119.96 52.3809 119.919 52.3025 119.689 52.8561C119.583 53.1362 119.431 53.6318 119.425 54.3569C119.412 55.0776 119.621 55.9831 119.96 56.6351C120.412 57.5672 121.317 58.5376 121.987 58.9918C122.661 59.4679 123.12 59.6438 123.424 59.7615C124.027 59.9747 124.149 59.966 124.209 59.986C124.289 60.0025 124.006 59.9835 123.701 59.9873C123.061 59.9894 122.199 60.0266 121.328 60.0721C117.8 60.2502 114.373 60.4978 112.005 60.2639C108.342 59.9258 112.689 58.576 109.919 58.6436C108.56 58.6876 107.447 60.6142 107.157 60.7247C104.2 61.8467 101.938 61.6146 99.2217 62.5462C98.6587 62.7409 99.3951 63.2568 98.911 63.4166C97.2697 63.9651 95.4402 64.1561 93.6965 64.6657C92.905 64.8953 93.188 65.364 92.3996 65.5129C91.4333 65.6922 90.48 65.8312 89.2004 65.8683C88.5275 65.8833 87.818 65.8816 86.7731 65.7442C85.8052 65.5691 84.1875 65.4264 82.1179 63.8714C81.7441 63.5858 82.9736 64.2275 83.3681 64.1941C83.5809 64.2013 83.633 64.1391 83.3007 63.8948C82.9867 63.6248 82.0659 63.2013 80.9213 61.6961C80.3795 60.9473 80.0669 60.2456 79.8472 59.5243C79.2168 56.9248 79.5278 56.1916 79.4641 54.9709C79.4589 53.8355 79.3973 52.7374 79.1247 51.6718C78.9476 50.9751 77.7536 50.9953 78.5212 49.5036C78.6805 49.1713 80.1304 49.541 78.8245 47.8661C78.6077 47.583 76.8223 44.7818 77.8383 43.3341C78.1051 42.9321 79.2383 41.9674 79.0172 41.1289C78.9829 41.0185 78.3616 41.493 78.2693 40.8138C77.9553 38.429 77.9076 35.8961 77.5906 33.4585C77.5038 32.791 76.8881 33.8131 76.7804 32.8303C76.4834 30.1256 76.4862 26.7782 76.5584 24.1291C76.5861 23.1478 77.1698 23.7953 77.226 23.7214C77.5532 23.2924 77.5899 22.9336 77.4978 22.6326C77.3352 22.1407 76.7568 21.8398 76.6935 21.6189C76.0925 19.4975 76.54 17.8118 76.0851 16.0238C75.9594 15.5427 75.401 15.9956 75.3295 15.9086C74.6175 15.046 75.8573 15.5574 75.8592 14.9262C75.8747 14.1111 75.6821 13.2046 75.6228 13.0452C75.6196 13.0198 75.6276 13.0561 75.7586 13.2581C75.9139 13.4593 76.1089 13.8681 77.0847 14.5495C77.9637 15.2766 80.4912 15.8128 81.9242 15.2648C83.3597 14.8019 83.7784 14.2984 84.0587 14.0709C84.0382 14.0933 84.0178 14.1157 83.9973 14.1383C83.6113 14.5731 84.5832 14.6176 84.2414 14.9979C82.2252 17.279 80.1026 20.6554 77.8745 24.0006C77.4518 24.6331 77.1808 23.9511 76.9938 24.0311C75.69 24.5823 76.0178 26.6137 75.9466 27.0075C75.6216 28.8033 74.8716 29.192 74.2066 30.6641C73.2022 32.8619 72.015 35.2679 70.2085 37.8844C68.3604 40.3254 65.9366 44.0135 59.9694 45.4303C56.5779 46.0101 54.8205 44.8641 53.7718 44.3194C52.688 43.6683 52.1194 43.1466 51.5662 42.6332C50.5393 41.6462 49.8864 40.8127 49.2817 40.0131C48.1029 38.4249 47.249 37.0147 46.4605 35.6694C43.0253 29.6523 40.9879 24.5899 38.7042 19.3354C37.6307 16.8366 36.5733 14.3103 35.4086 11.7755C35.1806 11.2803 34.7233 12.0848 34.5166 11.6594C34.0089 10.6037 33.5139 9.55434 33.0751 8.70435C32.8669 8.2967 32.6346 7.89687 32.6059 7.85875C32.604 7.85476 32.6226 7.88487 32.6973 7.97778C32.7866 8.08213 32.9097 8.25213 33.3252 8.61205C33.8369 8.92334 34.4121 9.88503 37.404 10.1165C38.811 10.1854 40.5354 9.55923 41.4069 8.90079C42.4229 8.16073 42.7384 7.68078 43.0755 7.21129C43.541 6.47996 43.5151 6.27647 43.5024 6.36213C43.4768 6.43954 43.4141 6.71891 43.3612 7.04037C43.2515 7.69452 43.1545 8.54657 43.0778 9.40127C42.9224 11.1447 42.8281 13.0093 42.791 14.8817C42.7797 15.3935 43.523 14.7035 43.53 15.5088C43.5416 16.5256 43.4949 17.7108 43.3892 18.8703C43.3219 19.602 43.2283 20.3537 43.1108 21.0065C42.9646 21.844 42.4106 20.6898 42.2761 21.5273C41.9619 23.4751 41.8194 25.5801 41.8435 27.5996C41.8552 28.4613 42.6331 27.1945 42.592 28.3149C42.3246 35.8226 42.1402 43.1891 40.7604 50.8444C40.7405 50.9553 40.7205 51.065 40.7002 51.1736C40.5997 51.7012 39.1063 52.081 39.2964 53.2576C39.695 53.3773 40.1725 53.4105 40.6029 53.4834C40.525 54.7503 40.4331 56.0232 40.2427 57.4816C40.1351 58.2386 40.0429 58.9774 39.7198 60.1738C39.5054 60.8167 39.4292 61.4929 38.3882 63.0944C37.8589 63.859 36.7632 65.1564 34.8613 65.9038C32.945 66.6523 31.2734 66.4247 30.4785 66.2631C28.3581 65.7598 27.7089 65.1845 27.0043 64.7678C26.3539 64.3356 25.8964 63.9674 25.4839 63.626C24.677 62.9515 24.0587 62.3607 23.5872 61.9331C18.4419 57.0042 14.0708 53.6049 9.85786 53.4761C10.0273 53.4723 10.1999 53.5074 10.9372 53.3931C11.5159 53.2985 12.5257 53.0231 13.4769 52.3805C14.4755 51.7092 14.9796 51.0023 15.0928 50.9198C15.2171 50.8055 14.9632 51.2572 14.6282 51.67C14.2988 52.093 13.7881 52.5483 13.5616 52.7498C13.3081 52.9741 13.1844 53.0943 13.3906 53.0264C13.5771 52.8958 14.1977 52.898 15.6219 51.0933C16.3075 50.204 16.9771 48.4455 16.9386 46.9791C16.9341 45.5142 16.5338 44.5155 16.2697 43.9334C15.6797 42.7408 15.3748 42.5166 15.2221 42.3229C15.0312 42.1234 15.0918 42.1932 15.1791 42.272C15.2741 42.3608 15.4289 42.5031 15.6235 42.6922C19.727 46.6947 22.9048 50.7391 25.396 55.3488C25.6516 55.8292 24.3928 56.4162 25.4914 57.5875C25.6854 57.7889 27.2272 59.6398 27.8275 59.9808C27.9124 60.0238 28.183 59.2998 28.6406 59.918C28.7537 60.0717 28.8676 60.2275 28.9821 60.3853C31.4806 63.8148 34.148 67.9332 35.9326 72.3884C36.2294 73.134 35.2447 72.6718 35.4472 73.202C35.9923 74.635 36.6143 76.0836 37.1876 77.5512C37.9882 79.5959 38.8847 81.588 39.3794 83.5267C39.9276 85.6143 38.5321 85.4225 38.0414 86.9802C37.9723 87.2132 38.5941 88.3411 38.0667 88.7412C36.7555 89.833 34.7852 90.1744 33.418 91.3887C33.2801 91.5315 33.5803 92.0204 33.9165 92.5651C34.0724 92.8261 34.3048 93.1574 34.2835 93.2754C34.2754 93.408 33.8714 93.2176 33.3589 92.9225C33.1028 92.736 31.8877 91.3601 31.4453 91.1872C31.1147 91.0449 30.7663 91.8284 30.2375 91.4524C29.7102 91.0729 29.9307 90.261 29.2382 89.6068C28.5471 88.95 28.0024 89.638 27.1743 88.0638ZM64.916 86.0607C66.1615 86.9585 66.8905 84.6684 65.2143 84.9282C65.1283 84.9439 64.8474 86.0163 64.916 86.0607ZM21.4307 93.2057C21.2828 93.3191 21.1551 93.4359 21.0461 93.5545C19.9907 94.644 20.9033 95.9538 22.0035 95.2497C22.4698 94.9498 22.5629 94.5288 22.4723 94.1466C22.351 93.4808 21.7352 92.9684 21.4307 93.2057ZM19.1001 74.8484C19.9507 75.7768 20.8439 75.8393 21.4023 75.4513C21.9538 75.1006 21.8632 73.8935 20.217 73.3238C20.0177 73.2544 18.991 74.7362 19.1001 74.8484ZM35.4015 82.17C35.3766 82.196 35.7498 83.1322 35.789 83.1395C36.6955 83.3177 35.958 81.4707 35.4015 82.17ZM1.53224 75.0324C1.95471 75.5851 3.68973 74.9284 2.91797 74.4054C2.64172 74.1927 2.10105 74.2273 1.81485 74.3503C1.65233 74.4124 1.55754 74.5021 1.50254 74.6171C1.44423 74.7302 1.4227 74.8723 1.53224 75.0324ZM128.096 106.627C128.119 106.671 128.816 106.812 128.831 106.606C128.867 105.965 127.894 105.984 128.096 106.627ZM28.4412 72.4606C24.1615 72.5431 21.4165 69.8823 26.0982 69.9592C26.9451 69.9738 24.323 70.9437 25.411 71.1417C27.3985 71.5023 28.6175 69.6813 30.6689 70.5254C31.04 70.6801 28.6854 72.462 28.4338 72.4649C28.4363 72.4634 28.4388 72.462 28.4412 72.4606ZM65.1457 89.0282C65.1691 89.0618 66.1561 89.3072 66.1797 89.2832C66.8937 88.6616 64.8806 88.1599 65.1457 89.0282ZM108.11 74.6257C108.093 74.6293 109.238 72.8881 109.283 72.8022C109.149 71.9647 108.332 72.41 107.835 73.1598C107.311 73.927 107.353 74.8162 108.11 74.6257ZM51.0164 106.879C49.679 106.716 48.6542 105.953 48.6019 104.663C49.4038 105.396 50.2162 106.11 51.0164 106.879Z" fill="var(--stroke-0, #FBAB56)"/>
</svg>
