<svg preserveAspectRatio="none" width="100%" height="100%" overflow="visible" style="display: block;" viewBox="0 0 28 28" fill="none" xmlns="http://www.w3.org/2000/svg">
<path id="graphic" fill-rule="evenodd" clip-rule="evenodd" d="M4.1005 4.1005C2.69721 5.50379 2.19041 7.4641 2.58012 9.26972C1.02778 10.2709 0 12.0154 0 14C-2.43818e-07 15.9845 1.02778 17.729 2.58012 18.7303C2.19041 20.5359 2.69721 22.4962 4.1005 23.8995C5.50381 25.3028 7.4641 25.8096 9.26972 25.4199C10.2709 26.9723 12.0154 28 14 28C15.9845 28 17.729 26.9723 18.7303 25.4199C20.5359 25.8096 22.4962 25.3028 23.8995 23.8995C25.3028 22.4962 25.8096 20.5359 25.4199 18.7303C26.9723 17.729 28 15.9845 28 14C28 12.0154 26.9723 10.2709 25.4199 9.26972C25.8096 7.4641 25.3028 5.50381 23.8995 4.1005C22.4962 2.69721 20.5359 2.19041 18.7303 2.58012C17.729 1.02779 15.9845 0 14 0C12.0154 0 10.2709 1.02778 9.26972 2.5801C7.4641 2.19041 5.50381 2.69721 4.1005 4.1005Z" fill="var(--fill-0, #F3A632)"/>
</svg>
