<svg preserveAspectRatio="none" width="100%" height="100%" overflow="visible" style="display: block;" viewBox="0 0 44 44" fill="none" xmlns="http://www.w3.org/2000/svg">
<path id="graphic" fill-rule="evenodd" clip-rule="evenodd" d="M6.44365 6.44365C4.23848 8.64882 3.44208 11.7293 4.05447 14.5667C1.61509 16.14 0 18.8814 0 22C-3.83143e-07 25.1185 1.61509 27.8599 4.05447 29.4334C3.44208 32.2707 4.23848 35.3511 6.44365 37.5564C8.64884 39.7615 11.7293 40.5579 14.5667 39.9456C16.1401 42.385 18.8814 44 22 44C25.1185 44 27.8599 42.385 29.4334 39.9456C32.2707 40.5579 35.3511 39.7615 37.5564 37.5564C39.7615 35.3511 40.5579 32.2707 39.9456 29.4334C42.385 27.8599 44 25.1185 44 22C44 18.8814 42.385 16.14 39.9456 14.5667C40.5579 11.7293 39.7615 8.64884 37.5564 6.44365C35.3511 4.23848 32.2707 3.44208 29.4334 4.05447C27.8599 1.61509 25.1185 0 22 0C18.8814 0 16.14 1.61509 14.5667 4.05445C11.7293 3.44208 8.64884 4.23848 6.44365 6.44365Z" fill="var(--fill-0, #F7B3CC)"/>
</svg>
