<svg preserveAspectRatio="none" width="100%" height="100%" overflow="visible" style="display: block;" viewBox="0 0 512.88 489.185" fill="none" xmlns="http://www.w3.org/2000/svg">
<g id="Frame 110">
<path id="Vector 169" d="M45.1061 7.75678C50.0917 6.88298 55.5508 9.45697 59.4355 12.434C60.6645 13.3615 59.4758 16.4168 60.2954 17.1993C61.8752 18.7222 63.7993 17.4472 65.3495 19.2129C65.8405 19.8102 64.2849 24.7002 64.8188 25.2119C67.8158 27.9914 71.1594 27.2496 74.3555 28.8984C87.771 35.8419 101.236 40.3899 115.003 44.9855C117.383 45.7756 119.738 46.5651 122.081 47.3627C127.383 49.1646 133.029 54.9618 138.93 54.0319C139.614 53.9179 140.067 49.4652 140.257 49.1273C143.225 43.9648 140.914 52.6881 141.939 54.0993C146.052 59.6837 151.525 61.114 156.629 60.2877C158.817 59.9257 158.339 50.8402 159.498 56.0999C159.581 56.456 158.226 61.0234 158.696 61.6209C159.779 62.97 162.325 62.564 163.253 63.1091C165.005 64.1776 165.36 64.1916 167.13 64.5566C169.587 65.1036 172.081 67.9239 174.931 67.3225C175.53 67.1782 175.608 62.2674 176.638 61.6053C177.668 60.9448 179.987 61.7556 180.592 63.0175C181.205 64.2819 180.23 67.9864 180.228 68.8727C180.203 76.3538 184.617 66.727 185.03 66.539C187.894 65.2639 190.349 65.5689 192.686 66.4582C195.974 67.7529 198.995 70.3204 202.538 70.8156C207.038 71.4327 212.097 70.1514 216.401 70.9405C221.542 71.9044 225.562 74.9878 231.056 75.1795C231.65 75.2085 231.631 69.4577 232.385 69.4856C232.988 69.5079 233.651 69.5469 234.343 69.6035C234.506 69.6236 234.69 69.6472 234.921 69.6802C235.037 69.6968 235.166 69.7158 235.314 69.739C235.388 69.7505 235.467 69.7632 235.552 69.7773C235.595 69.7843 235.639 69.7917 235.685 69.7995C235.751 69.8107 235.87 69.8317 235.976 69.851C236.43 69.9364 236.976 70.0317 238.09 70.3137C238.663 70.4633 239.374 70.6503 240.543 71.055C240.844 71.1607 241.139 71.2671 241.555 71.4291C242.857 71.9778 244.532 72.532 247.914 74.8322C249.604 76.0497 251.85 77.7158 254.583 81.229C257.214 84.6333 260.609 90.7906 260.785 98.9061C261.08 107.017 257.399 114.683 254.002 118.657C250.545 122.815 247.599 124.612 245.465 125.864C241.18 128.192 239.221 128.508 237.693 128.936C237.321 129.026 236.99 129.099 236.689 129.161C236.614 129.177 236.54 129.192 236.469 129.206C236.453 129.209 236.446 129.21 236.435 129.213C236.415 129.217 236.394 129.221 236.374 129.225C236.293 129.241 236.214 129.256 236.137 129.27C235.983 129.299 235.838 129.325 235.7 129.349C233.564 129.699 232.814 129.701 232.133 129.75C231.812 129.767 231.561 129.777 231.345 129.783C231.237 129.786 231.139 129.788 231.048 129.79C230.997 129.791 230.955 129.792 230.911 129.793C229.557 129.808 229.447 129.789 229.067 129.786C228.524 129.775 228.209 129.767 227.869 129.757C227.261 129.739 226.75 129.716 226.247 129.687C225.248 129.629 224.333 129.547 223.419 129.436C221.604 129.215 219.832 128.881 218.074 128.41C214.57 127.468 211.123 125.981 207.732 123.732C206.999 123.238 208.676 118.408 207.996 117.619C207.885 117.493 207.773 117.363 207.66 117.228C203.185 112.262 198.522 102.496 192.358 122.992C189.556 121.647 186.138 120.16 184.291 115.374C183.076 112.289 185.668 107.2 183.203 109.134C182.644 109.563 182.434 114.379 181.654 114.666C178.414 115.876 175.478 113.782 172.136 115.702C171.461 116.105 170.877 120.351 170.577 121.082C168.065 126.982 167.545 116.405 167.146 115.573C164.236 109.377 161.026 111.046 157.416 110.27C156.592 110.089 156.573 115.929 155.742 115.958C151.409 116.03 147.134 114.771 143.496 111.534C142.676 110.798 144.378 106.122 144.029 105.524C142.512 102.948 140.481 111.99 138.966 109.69C138.654 109.219 139.601 105.126 139.611 104.659C139.776 97.3427 137.022 107.264 136.696 107.436C132.542 109.841 132.119 98.9 128.346 99.7713C127.968 99.8665 127.923 103.608 127.216 104.872C127.07 105.129 126.896 105.283 126.685 105.282C118.545 105.33 110.442 102.382 103.46 96.7517C102.343 95.8776 103.962 92.1239 103.975 91.626C104.134 83.8402 101.445 93.8062 100.983 94.1133C97.3216 96.26 96.0426 87.2227 91.6171 98.8487C81.1364 93.0545 68.3652 95.2037 58.3089 86.6256C58.0529 86.5258 57.765 86.4148 57.3484 86.2497C57.151 86.1696 56.6407 85.9901 55.9575 85.6912C55.779 85.6131 55.5795 85.5231 55.3483 85.4129C55.2326 85.3577 55.109 85.2973 54.9754 85.23C54.9086 85.1964 54.8393 85.161 54.7672 85.1235C54.7223 85.1003 54.7239 85.1008 54.6304 85.0522C54.5301 84.9999 54.4246 84.9438 54.313 84.8828C53.4113 84.332 52.1793 83.8367 49.7884 81.3354C48.6353 80.0346 47.0018 78.0463 45.9286 74.4149C44.7808 70.8804 45.1986 65.4089 47.1318 61.8972C51.3197 54.657 55.2431 54.2116 56.9203 53.3854C57.8632 53.0655 58.5438 52.9105 59.1001 52.7972C59.621 52.6907 60.2011 52.6126 60.2325 52.6109C60.8413 52.5367 61.2658 52.514 61.6165 52.501C61.9649 52.4892 62.2336 52.4907 62.4639 52.4959C62.5773 52.4986 62.6882 52.5025 62.776 52.507C62.8361 52.5112 62.8932 52.5157 62.9478 52.5205C63.3755 52.5583 63.7015 52.6077 63.921 52.6528C64.7017 52.8309 65.0693 53.0081 65.4198 53.1825C66.1273 53.5363 66.6624 53.9036 67.1897 54.2934C68.2337 55.073 69.1713 55.9407 70.0784 56.9093C70.2346 57.0625 69.1379 62.0215 69.449 62.3051C73.098 65.7763 73.548 57.8755 78.0145 48.8737C79.1599 46.6182 79.183 58.4479 79.1992 59.3194C79.2844 62.5312 77.2242 69.8188 77.3323 70.4578C78.2469 75.491 82.5768 50.9253 85.1365 51.4141C85.2066 51.4702 83.9974 55.9111 84.1194 56.4C84.4943 57.9334 85.4986 56.2726 85.8262 57.9496C86.5793 61.8306 84.6288 73.798 88.2375 67.3464C88.5808 66.7309 90.0035 59.0322 91.5824 55.4502C91.598 55.451 91.6432 55.4657 91.6588 55.4665C92.2145 54.1755 92.7837 53.4173 93.316 53.713C94.1245 54.1748 97.796 54.7066 98.6237 55.8076C99.4528 56.9116 97.8483 61.2367 97.8791 61.4445C99.4564 67.9134 97.9271 70.1522 97.6339 79.1912C97.4165 88.2065 101.009 67.3011 102.026 65.0864C103.049 62.8805 104.18 68.151 104.369 69.9417C104.566 71.7359 103.411 74.4699 103.691 75.5159C105.623 82.362 106.871 65.393 108.442 62.254C112.076 54.8015 111.235 70.6069 113.153 72.4806C113.67 72.9862 113.766 69.3732 114.34 69.1267C116.577 68.1905 117.049 73.2315 120.088 69.1416C120.577 68.4746 123.836 59.4019 124.038 66.4425C124.065 67.4576 123.011 71.2646 123.755 72.2597C124.894 73.7566 127.121 74.9363 128.746 73.8371C129.906 73.018 129.603 66.4587 130.627 68.6234C131.088 69.5901 129.496 73.1861 130.412 74.6908C131.361 76.2004 134.135 76.4006 135.25 76.4126C136.315 76.4162 136.369 71.4838 136.496 71.1675C137.244 69.3587 139.588 67.2763 139.776 67.3055C148.829 67.8439 156.348 77.0033 165.542 75.2267C166.255 75.0934 166.335 69.9078 166.449 69.8345C169.052 67.9313 165.738 81.3931 166.949 86.1412C167.776 75.6884 168.632 77.6863 170.389 76.7109C171.251 76.2338 171.226 72.1512 171.342 71.7453C173.159 65.7343 173.199 73.7414 173.255 75.3843C173.465 81.428 175.047 74.4712 175.178 78.5093C175.323 82.5186 173.493 88.2586 175.114 88.3441C175.937 84.6552 175.711 74.7789 177.09 73.3187C178.069 72.2799 179.15 71.7375 180.295 71.5497C185.068 70.7241 190.968 76.4913 193.876 77.408C197.564 78.5469 198.789 77.9607 200.854 79.5068C204.612 82.3026 203.769 74.9237 206.495 71.8208C209.226 68.7177 206.483 86.4462 206.5 90.3105C206.514 94.1727 207.239 90.2615 207.491 92.4058C207.742 94.5496 206.574 97.0743 207.528 97.9541C208.479 98.833 211.803 92.2513 212.512 88.2736C214.001 79.8456 213.512 70.8246 215.929 74.1862C216.068 74.3853 215.164 79.0322 215.718 79.5568C220.048 83.5627 224.878 84.1921 229.318 87.7733C229.916 88.2722 228.919 93.4439 229.262 93.7933C232.858 97.4489 232.2 88.5362 235.131 78.9351C233.579 91.9038 234.161 99.9636 237.079 100.277C238.846 100.471 239.001 94.7642 240.473 90.8521C240.915 89.6726 241.866 93.6757 242.31 91.0218C243.758 82.3463 243.388 72.4757 246.087 76.61C246.205 76.8056 245.401 81.5536 245.836 81.8798C248.652 84.0116 249.76 74.9045 253.062 74.0517C255.624 73.3803 259.728 79.3082 262.506 80.4355C261.307 95.0609 264.293 91.9222 266.185 81.9204C268.025 82.478 270.063 82.0612 271.77 83.5946C272.357 84.1177 271.623 88.3225 271.666 88.7863C272.323 96.059 273.893 86.3069 274.329 85.9532C278.946 82.5436 281.994 90.2564 286.688 83.2984C286.856 83.0477 287.86 72.9013 288.419 80.407C288.454 80.924 286.723 85.4447 288.665 85.9504C290.631 86.4586 293.875 92.1811 296.974 87.6754C297.724 86.5911 300.006 78.4632 300.858 85.0094C300.971 85.8982 300.56 88.7991 300.696 90.4405C301.143 95.6715 302.359 85.4306 302.691 94.2319C303.017 103.032 304.607 109.723 307.779 103.902C307.879 103.733 309.129 95.637 309.983 95.8293C311.347 96.1434 313.188 97.9844 314.642 98.0377C315.331 98.0597 315.262 92.9704 315.388 92.8866C320.211 90.391 323.217 95.1428 328.032 97.4597C328.912 97.8944 332.057 91.1898 333.41 96.7687C334.913 102.877 331.122 127.562 336.011 121.969C337.99 119.734 342.527 88.3966 344.579 104.949C351.148 101.357 356.337 110.124 363.022 104.797C363.323 104.561 364.844 95.8325 365.501 95.9996C366.473 96.2646 366.728 100.413 367.408 100.733C370.261 102.181 373.211 98.8567 376.024 99.6061C377.086 99.8813 376.408 104.104 377.676 104.432C378.945 104.757 380.199 99.2226 381.752 102.049C382.922 104.202 383.44 115.732 385.087 117.189C385.952 105.912 387.133 106.23 389.478 103.403C389.929 102.854 389.767 98.8965 389.995 98.4344C390.928 96.4666 391.429 99.7725 392.335 97.6227C392.555 97.1065 392.836 93.2546 393.032 92.6152C394.705 87.0317 396.176 95.8448 396.429 97.379C397.397 103.206 398.394 98.241 399.289 100.572C400.183 102.903 398.409 105.612 399.543 107.068C401.898 110.081 405.212 109.689 407.79 110.049C408.82 110.169 408.478 104.976 408.634 104.874C410.864 103.721 412.641 109.343 414.545 99.1829C414.159 125.774 416.013 96.7046 418.694 102.222C418.905 102.668 418.328 115.215 417.275 116.988C416.221 118.76 415.097 114.746 413.614 117.523C413.263 118.174 410.7 129.788 410.413 130.483C408.16 135.908 409.217 117.172 409.191 116.137C408.857 104.964 405.841 117.459 405.221 118.293C402.383 122.116 400.391 119.33 398.047 122.036C396.516 123.784 395.513 136.035 394.441 135.582C390.882 134.084 390.803 116.89 386.312 131.476C385.351 134.586 385.134 148.038 383.238 137.314C383.121 136.638 381.835 126.86 380.266 132.876C380.068 133.635 379.796 137.54 379.585 137.855C378.172 139.888 377.552 136.717 376.075 138.11C374.597 139.502 372.794 141.607 371.314 140.17C370.423 139.311 369.728 131.949 369.402 130.136C368.49 124.913 366.524 133.229 366.178 126.959C365.826 120.657 368.058 111.284 366.258 107.1C365.457 117.241 364.537 127.641 363.685 137.836C359.11 137.151 354.848 133.549 350.207 133.667C349.632 133.692 349.824 139.188 349.198 139.355C346.566 140.038 344.577 135.987 341.79 137.342C339.63 138.413 336.956 144.025 334.671 145.322C334.18 133.618 330.69 137.327 328.432 136.097C327.637 135.67 327.917 132.574 327.407 131.52C325.478 127.62 325.765 137.953 325.045 139.524C321.958 146.226 323.439 122.991 320.351 123.343C320.187 123.354 317.306 135.586 316.979 136.337C314.884 141.236 317.007 132.008 315.994 131.015C314.142 129.199 313.014 126.145 310.416 129.599C309.66 130.623 307.471 138.218 306.602 132.155C306.488 131.361 306.884 127.277 306.764 127.027C304.554 122.85 303.548 135.699 301.78 139.945C300.014 144.19 298.453 135.153 298.194 132.563C297.506 125.86 299.306 129.802 299.419 129.158C300.742 121.488 299.026 122.698 297.845 121.954C298.602 109.339 296.83 109.967 296.617 121.234C296.597 122.464 297.64 121.36 297.845 121.954C295.853 134.239 293.824 135.681 292.584 123.969C292.007 118.481 293.402 112.236 290.257 114.324C288.832 115.265 288.704 123.981 287.337 126.258C284.176 131.449 281.265 123.089 278.349 124.151C277.288 124.536 277.927 129.361 277.19 129.788C275.231 130.936 273.869 127.248 271.881 128.933C271.7 129.091 271.73 134.094 271.15 134.113C266.685 134.353 263.148 130.878 258.546 130.432C256.354 130.221 252.148 132.651 249.906 131.92C246.007 130.682 241.706 123.066 238.136 124.546C235.824 125.491 235.913 130.501 234.69 133.811C232.352 140.23 230.012 128.203 229.733 126.347C229.724 126.286 231.735 125.27 230.921 122.635C230.761 117.271 229.757 126.326 229.733 126.347C229.53 125.147 225.861 123.71 224.993 124.594C224.535 125.079 224.378 129.807 224.147 129.971C218.682 133.762 213.487 134.53 208.446 131.88C208.362 131.777 208.952 126.523 208.751 126.347C205.976 123.75 203.463 130.02 200.65 133.627C197.869 137.234 195.947 135.772 195.3 126.605C193.349 127.577 190.989 123.336 189.671 120.771C188.354 118.206 187.201 128.431 187.046 128.62C182.154 134.705 180.247 128.611 175.912 127.27C175.609 127.173 175.259 127.115 174.874 127.088C172.556 126.924 169.209 127.822 167.104 128.571C165.186 129.287 164.411 126.784 162.536 128.139C162.287 128.32 162.043 132.9 161.956 133.068C159.507 138.323 161.576 127.28 161.399 125.25C160.77 117.871 160.349 113.933 157.586 117.077C156.946 117.796 153.661 133.659 152.509 134.481C151.048 135.524 152.18 129.834 150.654 131.073C150.525 131.174 150.153 134.721 149.329 134.47C145.418 133.346 141.415 130.794 137.206 130.643C136.642 130.61 136.677 136.311 135.851 136.355C131.902 136.549 127.718 135.806 124.283 132.676C123.449 131.889 124.552 128.041 124.507 126.849C124.198 119.63 121.09 129.637 120.77 129.791C113.069 133.735 109.145 123.697 101.176 126.881C100.79 127.083 95.7601 137.465 96.0214 127.856C96.0441 127.218 96.3914 117.404 94.0262 123.727C93.8681 124.121 93.8359 129.205 92.417 128.424C91.038 127.652 87.9357 130.463 86.9602 124.659C86.6311 122.827 87.0902 113.028 83.6285 120.203C83.422 120.713 76.8364 137.188 78.3912 125.183C78.6407 123.334 81.1285 112.287 78.6373 115.805L78.8093 115.841C78.6518 116.081 78.473 116.386 78.271 116.765C77.6578 117.932 77.7047 120.851 76.423 122.399C74.468 124.789 73.2724 121.057 70.4653 126.302C69.9705 127.231 67.0861 135.496 67.3245 128.85C67.3563 127.808 68.4477 123.677 67.9947 123.107C65.8611 120.381 62.6895 122.716 60.8099 119.432C60.1421 118.277 61.6431 111.539 61.0432 109.58C60.756 108.603 60.2453 107.614 59.8137 107.273C59.6083 107.104 59.413 107.097 59.4819 107.354C59.4982 107.418 59.5473 107.5 59.6332 107.601C59.7184 107.701 59.8357 107.821 60.0894 107.965C60.2117 108.037 60.3574 108.114 60.5354 108.195C60.747 108.279 61.0734 108.372 61.4797 108.465C61.9574 108.554 62.1587 108.665 63.6817 108.723C64.3864 108.746 65.2626 108.758 66.5826 108.671C66.914 108.648 67.2753 108.619 67.6756 108.578C67.7756 108.568 67.8781 108.557 67.9833 108.545C68.0358 108.54 68.0891 108.534 68.143 108.527C68.2121 108.519 68.3969 108.493 68.5309 108.474C69.1087 108.391 69.7617 108.284 70.526 108.131C73.6236 107.063 78.208 107.894 89.5849 98.2436C96.2042 92.8341 104.117 77.291 101.452 63.7025C99.1239 50.5283 93.2716 44.8961 90.1838 41.5809C86.8159 38.3043 84.6299 36.9731 82.9669 35.9129C82.1378 35.4029 81.4442 35.0136 80.8386 34.6879C80.4518 34.4824 80.4701 34.4892 80.3398 34.4185C80.2358 34.3616 80.1349 34.3069 80.0367 34.254C78.4774 33.4199 77.554 32.9899 76.8229 32.6315C76.1025 32.2823 75.6077 32.0384 75.2089 31.8283C74.92 31.6554 74.7784 31.5314 74.6106 31.3973C73.9895 30.8785 73.7421 30.4527 73.5766 30.017C75.2028 28.2213 75.7599 25.1637 76.7745 22.694C77.6674 20.1892 79.2626 18.365 79.7689 18.1285C83.4934 15.2958 89.7974 23.3009 96.3211 25.597C97.3364 25.9489 97.292 21.9302 98.7884 22.1592C104.481 23.0286 115.055 21.3016 118.613 30.4478C121.528 37.7888 115.382 41.8264 118.058 45.0894C119.293 46.6376 123.256 34.3874 123.699 34.0598C127.951 30.6882 129.43 36.7011 132.96 35.5716C133.699 35.3382 133.948 30.1271 134.567 29.9847C136.608 29.4534 138.168 31.9849 140.106 31.9941C140.138 31.9942 140.171 31.9937 140.203 31.9923C141.09 31.9446 141.621 28.026 142.346 28.464C144.078 29.4652 145.429 31.3909 146.591 35.3574C146.696 35.7187 144.735 40.3632 146.067 40.7847C148.235 41.4546 150.345 45.538 153.566 42.2766C154.522 41.2933 156.099 32.4015 156.663 38.8348C156.778 40.1778 154.46 50.7799 157.98 41.8877C158.549 40.4074 163.966 28.5318 164.095 36.8273C164.139 39.0123 163.651 47.9373 164.794 46.7233C164.955 46.5258 165.311 41.6628 166.139 41.3287C169.094 40.2438 171.765 41.2416 174.765 40.2287C175.567 39.9486 175.355 34.814 176.52 34.5539C179.73 33.8325 183.198 35.7421 185.858 37.8056C186.815 38.5718 185.363 42.5381 185.361 42.9973C185.35 50.4681 187.818 40.8156 188.327 40.317C191.53 37.3582 192.672 42.296 195.277 41.4979C195.989 41.2891 196.34 36.542 196.543 36.1487C198.594 32.3178 196.119 40.5208 196.823 41.5954C198.76 44.6286 201.514 44.7207 204.018 44.5378C204.928 44.4617 204.885 38.8814 205.683 38.8743C210.299 38.7123 215.808 40.1702 217.854 43.4788C217.869 43.4964 217.885 43.5141 217.901 43.5318C218.486 44.1973 217.5 48.331 217.51 49.3073C217.62 56.1436 220.34 47.1922 220.768 46.3583C222.814 42.5647 223.004 46.3481 224.517 45.807C226.121 45.2125 227.795 44.8967 229.427 44.7734C230.238 44.7114 231.052 44.6983 231.753 44.715C232.104 44.7235 232.438 44.7398 232.604 44.7534C232.67 44.7596 232.747 44.7665 232.473 44.7605C232.393 44.7587 232.325 44.7573 232.112 44.7518C232.012 44.7494 231.893 44.7466 231.743 44.7438C231.664 44.7423 231.602 44.7413 231.478 44.7393C231.34 44.7371 231.181 44.735 230.989 44.7335C230.796 44.7322 230.571 44.7314 230.291 44.7329C230.151 44.7336 229.997 44.735 229.824 44.7374C229.737 44.7386 229.646 44.7401 229.549 44.7419C229.41 44.7444 229.173 44.7495 228.946 44.7562C227.945 44.8025 226.865 44.7783 223.502 45.1896C222.628 45.3045 221.573 45.4569 220.128 45.736C220.083 45.7448 220.037 45.7537 219.991 45.7628C219.968 45.7673 219.945 45.7719 219.922 45.7765C219.91 45.7788 219.898 45.7811 219.887 45.7834C219.859 45.789 219.742 45.8124 219.667 45.8275C219.005 45.962 218.262 46.1248 217.398 46.3384C215.662 46.778 213.493 47.356 210.247 48.6392C206.995 50.0137 202.581 51.7602 195.892 57.0953C189.631 62.1676 178.911 73.4489 176.259 92.0327C173.501 110.686 181.792 126.708 187.634 133.683C193.769 141.2 198.328 143.991 201.583 146.126C207.78 149.925 211.794 151.029 211.068 150.83C214.209 152.005 215.767 152.381 217.024 152.715C219.407 153.309 220.399 153.457 221.122 153.59C221.503 153.655 221.802 153.702 222.055 153.741C222.558 153.818 222.884 153.861 223.141 153.894C219.792 153.235 213.575 151.392 209.153 149.988C198.793 146.828 190.886 141.91 180.54 140.922C180.19 140.89 179.838 140.863 179.485 140.841C178.836 140.797 178.572 146.455 178 146.488C170.689 146.665 164.061 143.321 156.646 143.685C156.041 143.705 155.971 149.106 154.969 149.315C152.904 149.78 150.498 149.064 148.842 147.041C148.041 146.066 150.103 141.783 149.284 140.894C147.339 138.807 145.041 138.01 142.599 138.437C141.557 138.63 142.057 144.264 140.778 144.097C132.078 143.071 123.357 142.382 116.121 133.788C115.617 133.197 117.23 122.217 115.568 124.06C114.889 127.063 114.205 130.617 113.539 133.838C108.313 133.572 103.355 132.368 98.6685 130.906C91.8169 128.793 85.1204 126.056 78.1231 124.429C77.6228 124.314 77.4428 130.252 76.4714 130.059C70.8413 128.949 65.0406 129.568 60.2793 122.812C59.8123 122.151 61.8698 112.019 59.8965 113.263C59.5523 113.493 56.7549 114.409 55.7212 116.508C55.5757 116.827 55.2206 121.66 54.3849 121.659C49.5041 121.568 44.7309 119.652 40.492 115.984C39.813 115.384 41.4338 110.442 40.9575 109.97C37.58 106.665 32.7742 109.869 30.1038 104.782C28.3299 101.366 30.401 92.6886 30.2882 83.8608C30.2789 82.614 29.0421 82.2747 29.5476 77.2197C30.5074 64.4643 32.8713 50.6303 33.8646 37.0307C33.9116 36.2978 33.7026 35.9211 33.385 35.6629C32.9947 35.3982 32.4463 35.2479 31.7994 34.9763C30.9835 34.689 29.8031 34.3081 29.5591 33.5645C29.2744 32.8197 30.6071 31.6688 32.2406 30.0005C32.3877 29.7673 33.9177 29.1769 34.6902 28.3075C35.7046 27.4582 36.4203 26.3466 36.8874 25.1903C37.4856 23.5867 37.407 18.3671 38.4478 16.3485C39.4823 14.3323 39.6966 18.7311 41.1536 16.4039C42.5234 14.0355 42.9668 8.15405 45.1061 7.75678ZM183.731 109.293C182.786 104.241 180.868 122.236 182.808 118.07C182.904 117.848 183.781 109.541 183.731 109.293ZM355.845 119.936C354.555 111.842 352.448 123.457 353.318 129.699C354.189 135.935 356.24 122.39 355.845 119.936ZM375.484 115.493C373.763 109.063 371.601 134.633 374.293 129.624C374.448 129.341 375.584 115.867 375.484 115.493ZM36.5629 82.229C36.5705 81.9868 35.4912 81.5902 35.4396 81.8236C34.0211 87.4233 36.1429 88.2068 36.5629 82.229ZM395.003 110.516C394.573 107.006 392.343 110.865 392.88 115.23C393.312 118.742 395.539 114.882 395.003 110.516ZM111.795 81.2086C111.814 80.9387 111.044 80.567 110.815 82.0739C110.072 86.927 111.441 85.746 111.795 81.2086ZM427.435 112.507C422.713 111.206 421.303 89.8579 426.347 92.6109C427.261 93.109 423.837 99.2101 424.905 101.201C426.859 104.829 429.255 91.6559 431 98.928C431.315 100.259 427.701 112.628 427.425 112.536C427.428 112.526 427.432 112.516 427.435 112.507ZM184.967 87.5782C184.966 87.3379 183.854 87.0043 183.798 87.2372C182.636 92.8974 184.889 93.574 184.967 87.5782ZM66.1182 61.3282C66.127 61.073 65.4313 60.7258 64.5874 60.5078C64.3956 60.4556 64.1269 60.4044 63.8729 60.369C63.7214 60.3492 63.5707 60.3333 63.4114 60.3218C63.3018 60.3144 63.187 60.3083 63.0604 60.3042C62.997 60.3022 62.9306 60.3007 62.8598 60.3C62.7863 60.2993 62.728 60.2987 62.572 60.3005C62.2885 60.3069 61.9567 60.3097 61.3201 60.3939C61.2703 60.4008 61.2695 60.4008 61.1663 60.4162C61.0548 60.4331 60.9325 60.4535 60.7953 60.4797C60.5205 60.533 60.1897 60.6053 59.7478 60.7424C58.9023 61.094 57.388 61.2785 55.1351 63.9349C54.0631 65.2622 53.1094 67.5048 53.1617 69.7787C53.1891 72.0295 53.9892 73.7179 54.6463 74.7396C56.0391 76.7691 56.9301 77.1626 57.5068 77.5832C57.8003 77.769 58.0308 77.895 58.2265 77.9966C58.3737 78.0719 58.3899 78.0783 58.4645 78.1143C58.5902 78.1739 58.6988 78.2221 58.7958 78.2634C58.9896 78.3457 59.1388 78.4018 59.266 78.4472C59.5078 78.5332 59.7215 78.5957 59.7942 78.6111C60.1313 78.6866 60.272 78.6766 60.3245 78.6311C60.4016 78.539 60.473 78.4462 60.54 78.3533C61.1318 76.4329 61.6209 74.901 61.7885 73.7243C61.7637 73.4485 61.7257 73.1897 61.6674 72.9427C61.6594 72.8257 61.552 72.6832 61.4332 72.5283C61.4012 72.4887 61.3654 72.4471 61.3231 72.4014C61.3019 72.3785 61.2791 72.3545 61.254 72.329C61.2386 72.3147 61.2378 72.3079 61.2062 72.285C61.1648 72.257 61.1188 72.2253 61.0658 72.1873C60.8707 71.9902 60.4731 71.9506 59.9078 70.7561C59.6303 70.1657 59.6461 69.0007 60.08 68.3328C60.492 67.6404 60.9545 67.392 61.2353 67.2473C61.8074 66.9895 62.0357 67.0212 62.1783 67.012C62.2492 67.0236 62.3072 67.0388 62.3583 67.0552C62.46 67.0883 62.5352 67.1261 62.6026 67.1636C62.7483 67.2397 62.771 67.3136 62.8488 67.3825C62.9991 67.5216 63.0747 67.639 63.1866 67.7372C63.5816 68.1275 64.0058 68.1854 64.4164 67.873C65.2428 67.2502 66.0823 65.1585 66.1182 61.3282ZM262.521 80.8293C264.205 75.1635 265.743 74.6 266.18 81.9126C264.969 81.4327 263.73 81.2798 262.521 80.8293Z" fill="var(--stroke-0, #DEE5FF)"/>
<rect id="Rectangle 41" x="55.5303" y="106.185" width="419" height="383" fill="var(--fill-0, #DEE5FF)"/>
<path id="Vector 166" d="M20.7878 143.244C18.8856 140.675 20.0633 136.338 22.0324 132.357C22.6431 131.108 25.8904 131.435 26.459 130.554C27.5705 128.822 25.8837 127.271 27.2801 125.086C27.7602 124.356 32.8694 125.038 33.2588 124.296C34.1143 122.648 34.4019 120.929 34.6372 118.422C34.7608 117.172 34.8627 115.7 35.1411 113.593C35.502 111.347 35.6541 108.991 37.6799 103.151C39.3212 98.7284 41.1515 95.7059 42.8234 93.4066C47.6132 87.1092 50.7737 85.1596 53.319 83.3538C55.8303 81.7002 57.7634 80.7561 59.0331 80.2826C81.7862 67.241 96.6814 70.2525 108.797 71.6445C114.06 72.5058 119.214 77.6524 124.106 76.3742C124.69 76.2216 125.05 71.7655 125.212 71.4187C127.8 66.1336 125.807 74.9318 126.648 76.2871C130.024 81.6585 134.133 82.9978 138.454 82.3878C140.306 82.1245 141.003 73.1254 141.391 78.3987C141.414 78.7547 139.696 83.1881 140.007 83.8025C140.694 85.1766 142.872 84.9583 143.609 85.596C144.92 86.8123 145.235 86.8692 146.725 87.4631C148.949 88.4374 150.171 91.2906 154.726 92.5682C155.713 92.8831 156.702 88.7307 158.523 88.2711C158.55 88.1424 158.557 88.0302 158.543 87.9399C158.442 87.3984 158.094 87.0959 157.894 87.1577C157.674 87.2093 157.538 87.5778 157.34 88.115C156.955 89.1958 155.441 92.6974 155.118 93.5102C152.567 100.452 157.376 91.3432 157.501 91.1135C161.191 87.8566 162.462 94.2513 165.851 95.069C168.417 95.6725 171.647 94.4151 174.128 95.1912C177.089 96.1353 179.246 99.2152 182.388 99.3067C182.719 99.3217 183.322 93.6337 183.723 93.6396C185.554 93.6654 187.349 93.916 189.096 94.5512C190.96 95.3142 192.453 96.6529 193.812 98.9346C194.059 99.3433 193.36 104.319 193.614 105.028C194.845 109.311 199.606 119.019 198.306 97.1795C199.266 97.9409 200.604 98.628 202.663 102.701C204.012 105.315 204.315 110.827 204.906 108.323C205.034 107.764 203.724 103.157 203.975 102.676C205.008 100.66 207.075 101.746 208.07 98.9285C208.268 98.345 207.08 94.2284 206.973 93.4586C206.105 87.2267 210.122 96.8334 210.644 97.4674C211.422 98.4583 212.088 99.1301 212.69 99.5644C214.921 101.239 215.971 99.5234 217.711 99.1296C218.229 99.0142 216.021 93.6645 216.454 93.3572C218.699 91.8428 221.443 91.5387 224.651 93.2335C225.365 93.6245 226.287 98.4667 226.703 98.8931C228.532 100.711 226.085 91.7797 227.783 93.3511C228.139 93.6704 229.237 97.7222 229.416 98.1495C232.215 104.857 229.784 94.8808 229.889 94.6116C231.151 90.986 235.733 100.765 237.407 98.6505C237.602 98.3878 235.44 93.5027 236.082 93.0748C240.366 90.1886 245.769 89.9781 251.76 92.4661C252.691 92.8456 253.429 96.8023 253.629 97.254C256.799 104.296 254.033 94.3683 254.146 93.9222C255.114 90.6582 259.632 98.2418 256.935 86.2096C260.265 86.7111 263.121 85.7954 265.88 84.8035C270.755 83.0497 275.323 81.0688 282.698 85.6355C282.841 85.7152 284.557 90.4884 284.836 90.6266C288.238 92.3228 284.828 85.2018 282.648 75.6801C282.08 73.2977 287.692 83.5607 288.136 84.2987C289.727 87.0388 292.256 94.1558 292.618 94.6638C295.534 98.6208 285.678 75.7121 287.002 75.1378C287.061 75.158 288.691 79.4537 288.984 79.8247C289.896 80.9931 289.549 79.1567 290.522 80.4575C292.754 83.475 297.943 94.4345 296.348 87.4302C296.134 86.5235 290.203 73.6803 291.661 73.7628C292.257 73.8044 294.273 72.6276 295.247 73.187C296.227 73.7443 297.72 78.0751 297.845 78.2353C301.987 82.964 302.441 85.5049 307.037 93.211C311.659 100.865 302.441 81.7656 301.768 79.4671C301.088 77.1797 304.413 81.1105 305.468 82.5233C306.51 83.9432 307.375 86.7391 308.064 87.4959C312.593 92.4241 304.323 77.6192 303.451 74.3066C301.384 66.4634 309.272 80.1212 311.22 80.908C311.759 81.1146 309.942 78.0106 310.127 77.5544C310.945 75.7695 313.559 79.9404 313.722 75.0238C313.732 74.8712 313.673 74.4122 313.606 73.8055C313.36 71.1585 313.876 65.5767 316.34 70.7709C316.749 71.7003 317.29 75.602 318.265 76.2666C319.706 77.267 321.584 77.8159 322.49 76.387C323.168 75.3273 321.442 69.0286 322.775 70.8944C323.345 71.734 322.919 75.5782 323.876 76.8527C324.825 78.1219 326.752 77.8234 327.496 77.6659C328.239 77.5004 327.632 72.6239 327.679 72.2915C327.964 70.3841 329.485 67.981 329.613 67.9875C336.627 67.2988 341.733 75.9528 347.835 73.7373C348.317 73.5724 348.472 68.4001 348.55 68.3219C350.345 66.3128 347.836 79.8734 348.486 84.5512C349.311 74.1006 349.802 76.052 351.006 75.0166C351.595 74.5102 351.711 70.4429 351.801 70.0343C353.232 63.9823 352.994 71.9637 352.954 73.5973C352.844 79.6103 354.161 72.631 354.092 76.6522C354.017 80.6427 352.573 86.4131 353.624 86.452C354.324 82.7542 354.621 72.9219 355.592 71.4301C359.349 65.7895 364.127 74.1384 366.408 75.2534C368.735 76.3687 369.565 75.7864 370.805 77.3273C372.965 80.1061 373.068 72.7743 375.127 69.7043C377.173 66.635 373.848 84.2413 373.521 88.082C373.187 91.9201 373.994 88.0363 373.963 90.1685C373.929 92.2999 372.966 94.8035 373.487 95.6818C373.64 95.9385 373.982 95.5628 374.413 94.8046C375.427 92.9661 376.993 88.8936 377.562 86.1C379.293 77.7394 379.815 68.7716 381.062 72.136C381.132 72.335 380.122 76.9432 380.423 77.4691C382.858 81.4968 385.891 82.1841 388.364 85.8005C388.705 86.3053 387.555 91.427 387.745 91.7794C389.696 95.4628 390.151 86.602 392.962 77.1083C390.702 89.9669 390.256 97.9759 392.111 98.3345C393.23 98.5551 393.884 92.8887 395.211 89.0258C395.61 87.8612 395.821 91.8514 396.363 89.222C398.142 80.6276 398.856 70.8149 400.193 74.9659C400.249 75.1621 399.27 79.8657 399.517 80.1965C401.116 82.3592 402.698 73.3277 404.884 72.5308C406.598 71.9053 408.6 77.8504 410.278 79.0127C408.125 93.5283 410.337 90.4538 412.467 80.5382C413.582 81.1172 414.927 80.7312 415.863 82.2755C416.185 82.8025 415.337 86.9735 415.322 87.4349C415.078 94.673 416.96 84.997 417.264 84.6498C420.513 81.3154 421.758 89.0137 425.317 82.1266C425.443 81.8782 426.909 71.7902 426.642 79.2604C426.622 79.7751 425.165 84.2631 426.344 84.7771C427.518 85.2913 429.166 91.0056 431.437 86.518C431.899 85.5883 433.452 79.4734 433.903 81.9157C433.972 82.3133 434.013 82.9385 434.022 83.8512C434.029 84.7353 433.591 87.6282 433.569 89.2623C433.533 94.4726 434.853 84.252 434.577 93.0196C434.292 101.786 435.262 108.462 437.564 102.559C437.642 102.388 438.576 94.2656 439.092 94.4229C439.943 94.684 441.11 96.4339 442.047 96.4023C442.491 96.3842 442.319 91.3081 442.397 91.2171C445.218 88.4256 447.126 92.9223 450.426 94.6688C451.078 94.9953 451.963 87.9815 453.604 93.2903C455.556 99.0734 457.177 124 460.114 117.58C461.546 114.949 456.969 83.7024 462.329 99.2618C465.301 94.4411 471.925 101.07 473.738 93.8999C473.828 93.5772 470.6 85.3572 470.962 85.3138C471.538 85.2505 473.685 88.7801 474.211 88.8128C476.474 89.0311 476.136 85.1305 477.814 84.6665C478.463 84.4678 480.67 88.1224 481.515 87.8203C482.377 87.4926 479.434 82.6974 481.934 84.1801C483.482 85.0974 489.061 90.7406 492.233 92.7699C493.024 93.1802 493.678 93.4057 494.153 93.305C486.499 84.9625 487.609 84.3413 486.02 81.3498C485.64 80.8582 482.158 79.0109 481.766 78.7369C480.855 78.2867 480.975 78.7025 481.151 79.1584C481.334 79.6679 481.466 80.0628 480.617 81.2613C480.223 81.8244 476.608 83.2266 476.363 84.2721C475.655 87.2991 477.806 89.6603 479.154 89.8337C480.598 90.128 481.582 89.0618 482.148 87.9076L485.96 88.1945C485.601 86.8842 485.245 85.5457 485.109 85.0383C483.512 79.4675 483.945 84.4947 482.968 82.3874C481.873 80.3095 482.264 77.3308 481.155 76.1687C478.74 73.7883 476.394 75.1857 474.559 75.8087C473.821 76.0822 476.414 80.573 476.356 80.7223C475.782 82.3918 471.654 78.4284 476.406 87.5633C461.541 65.5511 477.092 90.1357 472.96 86.6045C472.629 86.3177 464.659 76.6009 464.242 74.6048C463.871 72.5811 467.117 75.0981 466.558 72.0664C466.328 71.4014 462.033 60.2827 462.055 59.4674C461.608 53.3806 470.217 70.1045 470.691 71.0107C476.253 80.6593 472.568 68.4718 472.965 67.386C473.938 62.7283 476.858 64.64 478.285 61.4043C479.252 59.3101 477.264 47.1815 478.765 47.3155C479.552 47.3928 480.293 47.9043 481 48.6413C483.57 48.9644 490.73 48.2444 492.972 49.5422C495.394 51.3711 498.05 53.8101 501.221 57.7262C504.291 61.4571 508.29 68.1657 508.83 75.2492C509.002 89.7008 504.784 92.2109 507.38 99.8879C507.883 101.762 511.018 104.47 512.317 106.672C513.674 108.8 512.798 110.822 507.281 108.68C507.088 108.599 506.207 108.167 505.138 107.677C502.791 106.132 499.5 104.033 501.606 107.958C501.973 108.651 504.424 111.704 504.466 112.092C504.67 114.645 502.038 112.731 501.703 114.821C501.36 116.916 501.002 119.859 498.776 119.698C497.409 119.627 492.516 114.057 491.243 112.732C487.6 108.91 490.51 116.932 486.866 111.813C483.337 106.595 479.95 97.6396 476.743 94.7442C481.314 103.831 485.894 113.214 490.366 122.415C485.672 124.371 480.079 123.045 475.874 124.835C475.341 125.071 477.543 130.113 476.982 130.508C474.578 132.148 471.337 128.97 469.084 131.064C467.352 132.704 466.12 138.835 464.052 140.638C460.889 129.363 458.488 133.675 456.143 132.827C455.335 132.535 455.1 129.434 454.489 128.47C452.248 124.89 453.947 135.068 453.497 136.727C451.398 143.79 449.895 120.558 447.537 121.209C447.45 121.237 445.981 133.678 445.711 134.45C444.186 139.501 445.419 130.135 444.476 129.221C442.744 127.543 441.732 124.565 439.681 128.13C439.117 129.189 437.283 136.851 436.514 130.811C436.416 130.02 436.738 125.931 436.64 125.684C434.88 121.561 433.931 134.406 432.297 138.654C430.622 142.896 429.549 133.846 429.482 131.258C429.229 124.56 430.511 128.517 430.631 127.873C431.993 120.223 430.607 121.428 429.724 120.668C430.01 117.844 430.163 115.685 430.223 114.163C430.477 108.911 429.592 111.24 428.908 119.943C428.839 120.85 429.247 120.486 429.502 120.475C429.607 120.472 429.691 120.513 429.724 120.668C429.524 121.764 429.328 122.772 429.135 123.692C427.315 133.053 426.016 133.275 426.007 122.648C425.999 117.177 427.397 110.971 425.155 113.027C424.148 113.954 423.404 122.63 422.312 124.883C419.809 130.022 418.517 121.665 416.524 122.686C415.795 123.056 415.805 127.864 415.285 128.279C413.897 129.395 413.319 125.708 411.854 127.353C411.721 127.508 411.302 132.484 410.916 132.494C407.97 132.668 405.945 129.152 403.011 128.636C401.592 128.39 398.65 130.736 397.264 129.972C394.852 128.675 392.818 121.039 390.406 122.456C388.832 123.358 388.401 128.337 387.289 131.605C385.14 137.941 384.858 125.966 384.862 124.119C384.862 124.058 386.236 123.077 385.98 120.449C386.408 115.119 384.88 124.098 384.862 124.119C384.852 122.924 382.626 121.441 382.01 122.312C381.676 122.788 381.111 127.482 380.95 127.642C377.116 131.337 373.762 132.044 370.938 129.391C370.897 129.288 371.755 124.073 371.649 123.897C371.202 123.124 370.701 123.132 370.179 123.621C368.912 124.771 367.464 128.596 366.061 131.12C364.025 134.704 363.11 133.279 363.458 124.168C362.192 125.146 361.147 120.957 360.546 118.423C359.953 115.89 358.49 126.074 358.384 126.265C355.071 132.4 354.438 126.386 351.998 125.177C350.848 124.584 348.316 125.805 346.968 126.799C345.865 127.597 345.545 125.142 344.477 126.589C344.335 126.783 344.027 131.355 343.973 131.527C342.487 136.892 343.992 125.786 343.969 123.775C343.906 116.467 343.694 112.557 342.126 115.862C341.737 116.616 339.651 132.625 339.121 133.533C338.397 134.68 339.041 128.932 338.282 130.283C338.218 130.394 337.993 133.952 337.609 133.769C335.83 132.97 334.009 130.813 332.488 131.15C332.287 131.182 332.457 136.84 332.189 136.981C330.932 137.635 330.037 137.468 329.745 134.841C329.671 134.175 329.34 130.229 329.23 129.059C328.41 121.991 329.529 132.268 329.7 132.444C330.558 134.689 332.026 133.725 335.643 131.211C336.363 130.283 335.768 129.792 335.212 129.812C334.62 129.841 333.919 130.416 333.484 131.912C333.433 132.226 336.585 143 331.728 134.787C331.396 134.245 326.487 125.814 328.638 132.151C328.775 132.546 331.4 136.841 330.335 136.78C329.268 136.722 329.266 140.416 325.735 135.99C324.613 134.6 319.674 126.198 321.757 133.745C321.925 134.262 327.301 151.018 321.694 140.311C320.775 138.546 315.704 126.835 316.986 133.425C317.233 134.703 318.867 137.093 318.882 139.03C318.915 142.009 316.128 139.495 317.027 145.295C317.207 146.313 319.567 154.725 316.201 149.008C315.677 148.111 314.256 144.086 313.655 143.822C310.764 142.557 309.795 146.038 306.657 144.123C305.565 143.445 303.359 136.908 301.947 135.485C300.513 134.071 298.453 132.976 298.821 136.211C299.206 139.442 304.037 149.342 303.191 150.614C300.21 155.035 294.907 153.291 290.229 152.828C289.052 152.708 287.895 152.677 286.832 152.848C286.048 152.974 287.955 156.469 286.899 156.918C282.993 158.6 277.355 164.383 271.373 157.558C266.596 152.09 268.381 146.146 265.493 144.23C264.113 143.317 267.005 155.799 266.886 156.26C265.805 160.903 262.446 156.044 260.876 158.366C260.552 158.847 262.548 163.641 262.254 163.996C261.255 165.256 259.224 163.477 258.144 164.26C257.659 164.623 258.944 168.361 258.35 168.228C256.948 167.951 255.385 166.699 253.118 163.525C252.913 163.235 252.171 158.319 251.233 158.419C249.726 158.591 246.874 155.647 246.333 159.756C246.173 160.991 248.776 169.638 245.911 163.991C245.309 162.812 242.449 152.348 243.93 161.689C244.191 163.237 245.716 175.975 242.344 168.478C241.463 166.504 238.241 158.204 238.043 159.716C238.025 159.954 239.723 164.51 239.361 165.11C238.041 167.15 236.031 167.196 234.564 169.194C234.172 169.737 236.3 174.35 235.669 175.007C235.223 175.48 234.637 175.809 234.043 175.998C232.398 176.522 230.234 176.081 228.247 175.408C227.254 175.06 226.783 170.885 226.605 170.464C223.777 163.597 225.667 173.366 225.452 174.018C224.103 177.936 221.194 173.835 219.086 175.549C218.481 176.012 219.934 180.546 219.886 180.988C219.265 185.332 218.629 176.777 217.541 176.042C214.485 173.949 211.533 174.843 208.555 175.817C207.454 176.181 209.396 181.481 208.356 181.746C202.14 183.449 194.635 183.038 189.217 179.644C188.197 178.999 189.138 174.821 188.985 173.843C188.05 167.013 185.354 176.021 184.767 176.843C182.235 180.616 181.861 176.8 180.078 177.271C178.655 177.651 177.256 177.857 175.873 177.922C170.283 178.501 164.53 175.503 159.87 173.261C152.505 169.748 147.656 164.58 138.79 163.052C138.212 162.94 137.151 168.498 136.618 168.466C134.067 168.207 131.508 167.398 128.438 166.135C125.243 164.745 122.211 163.56 115.27 159.535C117.322 160.783 118.109 161.178 118.661 161.556C119.14 161.889 119.339 162.13 119.374 162.376C119.405 162.522 117.274 167.414 117.285 167.825C117.273 168.691 117.207 168.349 117.422 166.629C117.512 165.795 119.17 161.522 119.199 160.761C119.238 158.97 118.629 158.392 117.711 159.029C117.331 159.315 116.32 164.692 115.962 164.661C113.38 164.541 110.934 165.025 109.434 157.767C109.342 157.27 110.252 146.218 109.628 148.297C109.331 151.36 109.023 154.966 108.73 158.242C107.111 158.986 106.092 158.512 105.935 157.715C105.815 156.868 106.533 155.902 109.647 154.288C109.932 154.138 111.721 159.769 112.378 159.46C114.372 158.515 117.219 157.399 119.819 154.799C118.504 155.323 118.459 154.422 119.734 148.669C120.133 147.229 111.418 141.873 115.108 139.245C115.488 138.857 117.574 137.097 120.305 132.054C122.549 127.243 123.275 126.063 124.397 125.356C124.759 125.179 129.38 127.081 129.801 124.925C130.275 122.238 130.276 121.624 130.244 121.189C130.195 120.816 130.029 120.881 129.765 121.099C129.235 121.561 128.304 122.653 126.949 123.917C126.503 124.333 121.352 124.443 120.991 124.754C118.477 127.022 122.656 129.077 118.32 132.031C115.402 134.036 106.516 134.526 97.9483 136.466C96.7392 136.736 96.672 137.808 91.6285 138.462C78.9474 140.111 64.9886 141.309 51.4791 143.128C48.5707 143.528 51.8522 144.352 44.7237 144.482C44.2472 144.493 41.8027 143.885 39.385 143.942C37.7143 143.987 32.6145 144.892 30.4614 144.832C28.3097 144.766 32.5694 143.885 30.0158 143.622C27.4313 143.362 21.6241 144.344 20.7878 143.244ZM357.775 107.099C357.514 102.088 355.183 120.033 356.627 115.849C356.7 115.626 357.789 107.345 357.775 107.099ZM475.381 110.106C471.248 103.128 474.041 114.559 477.189 119.997C480.503 125.361 476.728 112.184 475.381 110.106ZM487.045 97.6016C482.208 93.2682 495.717 115.092 494.868 109.429C494.825 109.104 487.338 97.844 487.045 97.6016ZM94.9896 132.77C94.7524 132.811 94.6055 133.547 94.8443 133.538C100.595 133.22 100.885 131.757 94.9896 132.77ZM483.613 71.9149C483.764 72.4341 483.911 72.7751 484.05 72.9653C484.536 73.0265 485.891 72.8902 486.315 73.1358C486.694 73.8301 487.55 73.52 488.824 72.8806C490.043 72.2181 491.726 71.2145 491.496 68.9145C491.248 66.8152 489.285 66.0906 488.105 66.7906C487.192 66.262 484.276 66.5552 483.23 66.4236C482.905 67.5354 482.967 69.7233 483.613 71.9149ZM315.01 88.8862C314.883 88.6477 314.317 88.6463 314.975 90.0211C317.108 94.4429 317.144 92.8946 315.01 88.8862ZM461.571 84.5999C462.565 83.7582 465.366 84.4585 468.161 86.1708C468.164 86.1687 468.171 86.1589 468.174 86.1569C472.663 89.1673 477.241 94.4557 477.844 95.7118L478.3 95.2258C478.439 95.477 478.398 95.5733 478.096 95.5137C477.533 95.5117 473.388 90.6152 471.648 89.7108C468.076 88.5628 478.597 96.7478 471.968 93.8235C470.733 93.3181 461.28 84.819 461.551 84.5774C461.557 84.5849 461.564 84.5924 461.571 84.5999ZM359.943 85.4665C359.954 85.2266 359.264 84.9133 359.219 85.1469C358.139 90.8022 359.51 91.4343 359.943 85.4665ZM282.775 90.9313C282.557 90.4702 280.841 90.632 280.961 91.0886C283.553 100.163 287.107 99.8335 282.775 90.9313ZM410.25 79.4042C411.859 73.7982 412.879 73.2581 412.464 80.5304C411.748 80.0381 410.976 79.869 410.25 79.4042Z" fill="var(--stroke-0, #DEE5FF)"/>
<path id="Vector 167" d="M62.0487 51.8671C64.3903 50.2302 67.5814 51.8347 70.034 54.0865C70.8178 54.7843 70.5022 58.0003 71.0325 58.6268C72.0824 59.8475 72.9599 58.252 74.0201 59.7112C74.3632 60.2107 74.0839 65.2992 74.4343 65.7069C76.3858 67.9035 78.1509 66.5651 80.1053 67.5965C89.7217 72.6864 99.0762 74.3664 108.716 76.4523C111.122 76.966 113.924 79.6501 116.57 80.0582C117.733 80.186 118.839 80.0829 119.96 79.5888C120.481 79.3522 120.206 74.8916 120.309 74.5247C122.041 68.9181 121.381 77.9133 122.376 79.1327C126.425 83.9607 130.853 84.7692 135.482 83.8634C137.457 83.4755 137.256 74.4168 138.248 79.6811C138.309 80.0365 136.895 84.5798 137.291 85.177C138.168 86.5106 140.45 86.1868 141.189 86.7763C142.6 87.9276 142.86 87.9558 144.286 88.4443C146.232 89.1614 147.572 92.1258 149.64 91.7512C150.092 91.6598 151.294 86.9279 152.179 86.3765C153.079 85.8313 154.399 86.7777 154.434 88.0185C154.48 89.2631 152.909 92.7464 152.675 93.5933C150.687 100.738 155.809 91.7576 156.063 91.5829C158.568 90.1224 159.71 91.1043 160.707 92.5133C161.807 93.8569 162.73 95.5427 164.155 95.9841C166.434 96.6773 169.306 95.5103 171.302 96.309C173.653 97.272 175.139 100.319 177.593 100.346C177.847 100.353 178.665 94.6974 178.963 94.6914C182.112 94.6236 184.682 95.618 187.357 99.6947C187.629 100.108 186.845 105.074 187.11 105.786C188.614 110.056 192.322 120.048 193.571 98.2193C194.885 99.0758 196.596 99.924 198.114 104.277C199.101 107.078 198.391 112.563 199.45 110.197C199.691 109.67 199.193 104.904 199.563 104.474C201.113 102.67 203.035 104.146 204.775 101.618C205.129 101.093 204.893 96.8149 204.976 96.0406C205.699 89.7665 207.571 100.051 207.909 100.797C209.305 103.65 210.464 104.457 211.641 104.594C212.554 104.723 213.474 104.243 214.51 104.315C214.99 104.351 214.453 98.5947 214.918 98.4234C217.356 97.6122 219.88 98.1206 222.249 100.686C222.78 101.271 222.263 106.169 222.515 106.699C223.614 108.977 223.92 99.7216 224.975 101.727C225.198 102.138 225.05 106.333 225.088 106.794C225.692 114.031 226.315 103.784 226.478 103.559C228.587 100.478 229.875 111.184 231.91 109.678C232.154 109.487 231.633 104.176 232.312 103.964C236.854 102.519 241.637 103.995 246.109 108.252C246.805 108.907 246.297 112.894 246.34 113.386C247.039 121.069 247.524 110.778 247.751 110.39C249.553 107.604 251.211 116.238 252.445 103.98C257.957 107.082 263.458 104.27 268.861 106.713C270.777 107.625 272.643 109.251 274.636 112.159C274.728 112.283 274.774 117.354 274.962 117.578C277.29 120.324 276.544 112.467 277.216 102.774C277.335 100.344 279.171 111.873 279.35 112.714C279.935 115.82 280.175 123.365 280.339 123.963C281.77 128.64 279.519 103.804 280.578 103.693C280.619 103.731 280.92 108.314 281.064 108.759C281.523 110.153 281.638 108.307 282.106 109.845C283.158 113.406 284.996 125.395 285.251 118.245C285.262 117.318 283.181 103.329 284.181 103.857C284.61 104.08 286.17 103.569 286.785 104.377C287.411 105.187 287.989 109.72 288.055 109.908C290.606 115.541 290.614 118.088 293.347 126.626C296.197 135.097 291.19 114.487 290.915 112.12C290.632 109.764 292.82 114.342 293.552 115.934C294.264 117.535 294.67 120.425 295.171 121.304C298.577 127.001 293.068 110.965 292.615 107.597C291.345 99.6687 296.756 114.452 298.46 115.505C298.894 115.797 297.497 112.489 297.646 112.084C298.219 110.533 300.546 114.91 300.144 110.251C300.098 109.484 297.55 100.333 300.695 106.548C301.154 107.442 302.351 111.185 303.13 111.818C304.293 112.772 305.865 113.051 306.098 111.531C306.268 110.408 303.143 104.718 304.591 106.284C305.24 106.982 306.153 110.698 307.259 111.714C308.37 112.729 309.784 111.939 310.292 111.575C310.798 111.209 308.537 106.851 308.451 106.529C307.97 104.677 308.094 102.045 308.189 102.01C309.532 101.23 311.132 101.165 312.875 101.325C316.893 101.791 321.567 103.589 324.075 100.336C324.356 99.9815 321.984 95.385 322.005 95.2824C322.372 92.7411 327.039 105.704 329.818 109.491C325.372 99.9981 326.664 101.497 327.084 100.045C327.283 99.337 325.374 95.746 325.242 95.3497C323.332 89.447 327.056 96.5016 327.843 97.9332C330.737 103.201 328.28 96.5413 330.214 100.062C332.14 103.554 333.914 109.219 334.734 108.765C333.425 105.239 328.745 96.5938 328.738 94.8524C328.706 88.2672 336.464 93.2043 338.768 93.0467C341.072 92.8874 341.425 91.9718 343.132 92.6942C346.21 94.0063 342.49 87.6997 342.437 84.0788C342.397 80.4543 349.013 97.1019 350.759 100.537C352.499 103.973 351.095 100.265 352.176 102.099C353.255 103.933 353.829 106.54 354.677 107.033C355.522 107.526 354.208 100.627 352.78 96.8601C349.751 88.8802 345.489 80.98 348.183 83.2312C348.34 83.3661 349.963 87.7938 350.467 88.0922C354.406 90.3226 357.081 89.4089 360.825 91.2967C361.342 91.5635 363.09 96.5103 363.413 96.7206C366.773 98.9313 362.585 91.1184 359.922 81.5968C364.735 93.7327 368.464 100.824 370.031 100.253C370.977 99.9142 368.631 94.7166 367.704 90.7517C367.426 89.5558 369.585 92.8988 368.684 90.3708C365.754 82.101 361.381 73.2902 364.537 76.2191C364.68 76.3613 366.262 80.8969 366.622 81.0634C368.962 82.1644 365.708 73.592 367.114 71.8356C368.091 70.6017 371.911 73.8804 374.048 74.7382C374.29 74.8322 374.511 74.8959 374.705 74.9195C379.897 88.644 380.125 84.9657 377.232 75.2479C378.417 75.2491 379.365 74.2929 380.845 75.2467C381.358 75.5688 382.563 79.6503 382.763 80.0663C385.856 86.6069 382.986 77.1812 383.088 76.7357C384.317 72.3229 388.693 78.7141 388.782 71.0155C388.782 70.7396 385.775 60.998 388.721 67.8679C388.917 68.3441 389.555 73.0105 390.785 72.9917C392.025 72.9702 395.709 77.5439 395.896 72.5608C395.931 71.3631 394.593 63.1293 397.176 69.1133C397.522 69.9272 398.222 72.7679 398.818 74.289C400.715 79.1369 398.159 69.1521 401.094 77.4185C404.033 85.6836 406.805 91.7127 406.709 85.4897C406.708 85.3083 404.977 77.3186 405.498 77.3158C406.327 77.3192 407.841 78.6888 408.63 78.4391C409.006 78.3169 407.547 73.4544 407.591 73.3478C409.586 69.9331 412.541 73.8931 415.746 75.2202C416.315 75.4771 416.462 68.3874 418.536 73.5522C420.782 79.2121 424.437 103.855 425.621 97.5953C425.98 95.6818 423.491 76.9017 424.472 75.255C424.778 74.7602 425.356 75.8875 426.333 79.6274C429.309 75.1005 433.682 82.9563 436.492 76.7701C436.619 76.4957 436.033 67.6863 436.442 67.7571C437.039 67.8805 437.842 71.9333 438.271 72.1551C440.103 73.1858 441.248 69.5078 442.945 69.8764C443.591 70.0077 443.826 74.2662 444.576 74.4269C445.336 74.5832 445.25 68.9532 446.529 71.5496C447.485 73.5311 449.304 84.8749 450.367 86.1212C449.392 74.8545 450.088 75.0241 451.054 71.9485C451.238 71.3521 450.666 67.4498 450.737 66.9652C451.042 64.9046 451.725 68.1228 451.988 65.8876C452.055 65.3504 451.765 61.4992 451.805 60.8426C452.145 55.1115 454.042 63.6878 454.333 65.185C455.527 70.8627 455.565 65.828 456.327 68.0491C457.062 70.2723 456.331 73.1466 457.1 74.4774C458.693 77.23 460.467 76.5285 461.894 76.6717C462.464 76.7051 461.959 71.5603 462.037 71.4454C463.275 70.1088 464.451 75.5887 465.225 65.3266C465.508 76.284 465.611 77.7633 465.85 76.0957L465.733 76.0922C466.112 73.7273 466.954 64.9873 467.875 68.1751C468.011 68.6153 467.256 81.1484 466.718 82.9608C466.315 84.324 465.969 82.4227 465.462 82.6113L465.734 82.6194C465.58 82.6855 465.417 82.978 465.253 83.6873C465.063 84.3586 464.25 96.1228 464.184 96.8369C463.471 102.411 463.068 83.655 462.988 82.6249C462.197 71.5129 461.298 84.2185 461.09 85.1033C459.923 89.1585 458.687 86.5782 457.722 89.5027C457.096 91.394 457.795 103.666 457.243 103.324C455.424 102.199 453.341 85.1638 452.78 100.129C452.663 103.322 454.214 116.669 451.957 106.266C451.819 105.609 449.908 96.0808 449.891 102.224C449.892 102.998 450.272 106.894 450.209 107.231C449.776 109.411 449.038 106.35 448.482 107.909C447.928 109.467 447.321 111.772 446.378 110.54C445.806 109.804 444.359 102.627 443.913 100.881C442.636 95.8483 442.894 104.311 441.736 98.175C440.558 92.0103 440.301 82.4647 438.648 78.5886C439.823 88.6922 440.979 99.0685 442.144 109.231C439.708 109.166 436.884 106.216 434.477 106.999C434.183 107.106 435.236 112.481 434.943 112.735C433.705 113.783 431.949 110.094 430.749 111.837C430.504 112.197 430.297 112.87 430.107 113.696L431.232 113.515C430.822 115.839 430.627 119.36 430.075 120.557C427.314 109.231 426.465 113.415 425.171 112.593C424.711 112.311 424.118 109.26 423.633 108.324C421.805 104.872 424.407 114.837 424.459 116.48C424.733 123.484 419.727 100.746 418.305 101.654C418.218 101.697 420.047 114.009 420.116 114.787C420.481 119.877 419.003 110.611 418.285 109.839C416.975 108.428 415.59 105.714 415.375 109.517C415.311 110.644 416.51 118.321 414.394 112.692C414.114 111.956 413.113 107.978 412.986 107.763C410.743 104.215 414.053 116.674 414.581 121.055C415.117 125.433 411.73 117.145 410.794 114.747C408.405 108.531 410.444 111.898 410.293 111.265C408.543 103.709 408.116 105.215 407.333 104.761C403.735 92.6463 403.039 93.6404 406.529 104.342C406.91 105.511 407.051 104.242 407.333 104.761C410.24 116.827 409.913 118.578 405.537 107.797C403.483 102.747 402.093 96.5474 401.259 99.2299C400.887 100.441 403.75 108.663 403.886 111.107C404.24 116.671 400.041 109.505 399.055 111.19C398.71 111.797 400.718 116.145 400.542 116.713C400.089 118.233 398.142 115.125 397.853 117.168C397.829 117.358 399.681 121.992 399.429 122.148C397.582 123.415 394.689 121.074 392.467 121.822C392.342 121.864 392.219 121.947 392.097 122.059C391.194 122.9 390.368 125.465 389.215 125.397C386.981 125.281 381.837 119.546 380.807 121.879C380.136 123.378 382.289 127.884 383.131 131.214C384.784 137.66 378.621 127.455 377.681 125.869C377.651 125.816 378.145 124.331 376.642 122.187C374.27 117.399 377.682 125.844 377.681 125.869C377.08 124.841 374.726 124.611 374.719 125.652C374.717 126.219 376.691 130.514 376.656 130.727C375.781 135.701 373.733 137.901 370.243 137.023C370.159 136.955 368.1 132.087 367.928 131.99C365.465 130.506 367.103 136.852 367.417 140.912C367.729 144.972 366.226 144.236 361.777 136.286C361.295 137.753 358.289 134.705 356.504 132.839C354.719 130.972 358.825 140.406 358.84 140.622C359.36 147.527 355.682 142.727 353.044 142.915C351.782 142.988 350.262 145.315 349.541 146.877C348.997 148.118 347.418 146.186 347.204 147.975C347.173 148.215 349.178 152.336 349.216 152.512C350.501 157.946 346.354 147.531 345.33 145.8C341.61 139.5 339.572 136.17 339.739 139.849C339.786 140.687 345.551 155.774 345.409 156.872C345.216 158.27 343.1 152.885 342.943 154.49C342.928 154.622 344.399 157.87 343.885 157.928C342.049 158.176 339.753 157.726 337.783 158.116C337.242 158.21 336.739 158.378 336.296 158.664C336.028 158.82 338.669 163.837 338.311 164.151C336.653 165.611 334.302 166.417 331.057 164.928C330.248 164.546 329.033 160.759 328.452 159.728C324.951 153.489 327.955 163.44 327.833 163.705C325.378 170.103 318.219 162.92 313.87 168.99C313.711 169.321 314.199 180.76 310.378 171.955C310.095 171.378 306.446 162.304 307.165 168.986C307.2 169.406 309.211 174.056 307.79 173.897C306.407 173.729 304.994 177.501 302.071 172.494C301.125 170.922 298.052 161.657 297.934 169.535C298.021 170.074 298.275 187.77 295.463 175.991C295.007 174.05 293.255 161.416 292.431 168.143C292.257 169.448 293.293 172.18 292.593 174.069C291.506 176.981 289.275 173.804 288.135 179.63C287.951 180.661 287.435 189.414 285.824 182.949C285.58 181.936 285.515 177.666 284.962 177.233C282.36 175.15 280.077 178.139 277.656 175.291C276.802 174.289 276.939 167.39 276.08 165.575C275.215 163.762 273.633 162.032 272.908 165.195C272.161 168.361 273.297 179.32 272.038 180.222C271.19 180.844 270.328 181.203 269.456 181.361C265.617 182.191 261.862 177.521 258.153 176.732C257.495 176.592 258.039 180.52 257.074 180.595C253.509 180.891 247.379 184.564 244.342 176.207C241.909 169.514 245.006 164.432 243.144 161.706C242.247 160.406 241.229 173.166 241.01 173.568C238.867 177.642 237.405 171.982 235.488 173.709C235.09 174.068 235.457 179.243 235.119 179.491C233.966 180.383 232.765 178.068 231.671 178.486C231.175 178.685 231.248 182.637 230.796 182.33C229.72 181.64 228.761 179.975 227.73 176.266C227.635 175.928 228.312 171.016 227.507 170.83C226.209 170.541 224.633 166.88 223.115 170.645C222.666 171.777 222.612 180.808 221.685 174.566C221.494 173.263 221.8 162.42 220.654 171.784C220.453 173.34 218.532 185.967 217.664 177.816C217.443 175.671 216.869 166.794 216.333 168.186C216.26 168.408 216.52 173.26 216.081 173.731C214.518 175.305 212.913 174.779 211.322 176.29C211.299 176.313 211.278 176.352 211.261 176.404C211.1 177.262 211.352 181.751 211.049 182.182C210.191 183.447 208.811 182.195 207.338 180.673C206.8 180.101 207.019 175.934 206.968 175.483C206.089 168.148 206.028 178.091 205.83 178.678C204.553 182.195 203.167 177.581 201.61 178.868C201.177 179.211 201.647 183.935 201.573 184.36C200.759 188.515 201.193 179.99 200.565 179.072C198.802 176.47 196.789 176.896 194.836 177.512C194.111 177.744 194.96 183.233 194.291 183.378C190.327 184.341 185.697 183.674 181.728 180.339C180.994 179.702 181.806 175.522 181.72 174.546C181.202 167.731 178.834 176.77 178.353 177.604C176.239 181.423 175.956 177.627 174.392 178.141C166.557 180.713 158.243 176.481 152.711 173.459C146.187 169.972 142.142 165.166 136.528 163.26C135.696 162.976 134.874 162.744 134.016 162.56C133.536 162.453 132.096 167.914 131.651 167.886C125.877 167.226 122.755 163.567 121.181 164.785C121.06 164.874 119.46 169.963 119.244 170.289C118.795 170.995 118.956 170.745 119.496 169.126C119.742 168.342 120.888 163.911 121.076 163.203C121.491 161.538 121.531 161.158 121.376 161.999C121.323 162.371 120.314 167.732 120.37 167.806C120.763 168.365 120.538 169.032 118.549 164.353C117.967 163.754 117.384 163.062 116.8 162.264C116.451 161.787 115.894 150.71 115.233 152.853C115.252 155.93 115.34 159.548 115.394 162.836C108.33 164.775 101.229 161.101 94.1008 160.681C93.7984 160.664 94.4629 166.524 93.8791 166.522C90.5183 166.518 87.2958 168.225 83.7153 162.473C83.3601 161.911 83.284 151.575 82.3192 153.163C82.1372 153.453 80.6698 154.868 80.3352 157.12C80.2897 157.46 80.6906 162.275 80.1985 162.428C77.3834 163.231 74.373 162.205 71.49 159.33C71.0164 158.857 71.3804 153.71 71.0374 153.328C68.6455 150.661 66.2593 154.629 63.9237 150.023C62.3654 146.922 62.6609 138.032 61.6816 129.314C61.5153 128.085 60.5916 127.913 60.436 122.83C59.9968 110.05 60.0547 96.0417 59.5373 82.4205C59.4949 80.9532 59.163 81.0182 58.9584 80.5598C58.9049 80.4453 58.8792 80.2976 58.861 80.0852C58.8519 79.8732 58.9329 79.5911 59.4083 79.2148C59.5073 79.121 59.5642 79.0218 59.5079 78.9158C59.4558 78.8099 59.3217 78.6979 59.2159 78.5794C58.9945 78.3427 58.8868 78.0782 58.8364 77.78C58.7558 77.1834 58.7997 76.4557 58.8515 75.5673C58.8546 75.0924 59.7169 72.7151 59.8391 70.3044C59.9501 68.6371 59.5367 63.4743 59.8023 61.3367C60.0519 59.2016 60.5348 63.5258 60.9563 61.0116C61.4138 58.4654 61.0259 52.5901 62.0487 51.8671ZM348.468 124.527C345.7 120.356 353.041 136.896 352.05 132.593C351.994 132.365 348.605 124.731 348.468 124.527ZM435.104 92.6893C433.021 84.9141 433.898 96.6385 435.423 102.653C436.94 108.662 435.725 95.0478 435.104 92.6893ZM444.969 85.6362C443.079 79.5103 445.712 105.035 446.374 99.7464C446.413 99.4475 445.077 85.9921 444.969 85.6362ZM65.2574 126.733C65.251 126.492 64.5575 126.276 64.556 126.514C64.3459 132.268 65.701 132.698 65.2574 126.733ZM454.945 78.3786C454.329 74.9408 453.524 79.0173 454.305 83.288C454.924 86.7236 455.692 82.6554 454.945 78.3786ZM301.328 123.859C301.228 123.608 300.694 123.532 301.184 124.975C302.767 129.623 303.005 128.08 301.328 123.859ZM472.003 78.3596C469.965 77.0508 470.046 55.7432 473.498 58.59C474.051 59.1034 471.236 65.1026 471.767 67.1032C472.553 70.723 475.571 57.7341 475.733 64.9953C475.728 66.3176 472.093 78.475 471.994 78.388C471.997 78.3785 472 78.369 472.003 78.3596ZM339.1 104.91C338.988 104.698 338.298 104.76 338.381 104.983C340.424 110.364 341.812 110.242 339.1 104.91ZM273.178 117.161C273.121 116.654 271.692 116.213 271.646 116.683C271.059 126.095 274.139 127.01 273.178 117.161ZM374.87 75.2758C373.516 69.608 374.135 68.6488 377.226 75.2422C376.393 75.1413 375.693 75.3435 374.87 75.2758Z" fill="var(--stroke-0, #DEE5FF)"/>
<path id="Vector 168" d="M79.645 2.15649C81.0243 0.591202 82.8557 2.30882 84.2107 4.66275C84.6389 5.39292 84.3167 8.59185 84.6009 9.24044C85.1457 10.5049 85.7732 8.95318 86.3087 10.4611C86.4845 10.9766 86.0364 16.0425 86.2238 16.4668C87.2389 18.7553 88.3536 17.5149 89.4781 18.6653C92.2169 21.4846 94.9903 23.5067 98.565 25.481C100.394 26.4891 102.365 27.4406 105.307 28.8316C106.796 29.549 108.522 30.3385 111.139 31.7504C113.777 33.461 117.344 34.3232 124.602 42.5458C124.755 42.7561 124.906 42.9688 125.056 43.1842C126.92 45.9139 128.529 49.3309 129.843 54.8148C130.94 59.9804 132.693 69.6197 127.056 80.8866C125.641 83.0446 124.358 85.133 123.275 87.5979C122.863 88.5238 126.728 90.8134 126.897 91.1948C129.054 97.438 122.86 90.7774 120.71 91.3287C111.853 93.6502 106.115 95.4313 102.131 98.3209C100.461 99.5143 104.454 107.659 101.285 103.291C101.088 102.99 100.531 98.2657 99.9412 97.8767C98.5892 97.0147 96.9811 98.1126 96.2195 97.8172C94.7903 97.2248 94.5986 97.2817 93.4866 97.2959C91.9146 97.2666 90.377 94.9068 89.0688 95.9259C88.7737 96.1567 88.9629 101.024 88.4357 101.827C87.8697 102.629 86.7057 102.138 86.4136 100.963C86.1219 99.7898 86.6182 96.0027 86.6276 95.1259C86.8056 87.7363 84.7065 97.7905 84.4816 98.0172C81.1363 101.955 80.0207 95.8346 78.0923 95.4716C76.6092 95.2028 74.6917 96.748 73.4757 96.1969C72.0351 95.5224 71.454 92.674 70.0319 92.791C69.8825 92.7977 68.6853 98.3803 68.499 98.3994C66.5231 98.5975 65.0265 97.5823 64.3589 93.4595C64.2921 93.0409 65.6673 88.218 65.6683 87.5079C65.6873 83.2754 66.2012 73.2433 60.961 94.4301C60.5535 93.4672 60.0796 92.467 60.435 88.0527C60.6572 85.2105 62.0543 79.9227 61.1688 82.1219C60.973 82.6124 60.1749 87.3274 59.9587 87.7097C59.0677 89.3187 58.7407 87.68 57.831 90.0323C57.6464 90.5222 56.9747 94.7529 56.8234 95.5097C55.6256 101.643 56.9229 91.3946 56.9258 90.6365C57.1226 85.009 56.3064 87.125 55.8305 86.9391C55.7191 86.8936 55.2694 92.6311 55.1597 92.7948C54.6099 93.57 54.3889 93.0626 54.1737 90.5045C54.1216 89.9218 54.2628 85.0224 54.2304 84.493C54.0173 82.2187 53.997 91.4765 53.909 89.4776C53.8827 89.0683 53.8051 84.8733 53.7912 84.4127C53.4872 77.1842 53.6968 87.4328 53.73 87.6581C53.845 90.7458 52.8562 80.0906 52.7099 81.6358C52.7269 81.8274 53.4822 87.0822 53.5283 87.293C53.7014 88.0131 54.0876 87.9413 54.3248 87.0963C54.6691 86.8829 55.096 86.6294 55.8611 86.1637C56.3159 85.8923 56.7104 85.6467 57.5319 85.105C58.2601 84.59 59.2829 83.9625 61.0836 82.2338C62.3841 80.4791 67.5896 77.2749 67.5382 65.594C67.1773 59.9533 64.5877 55.6894 62.4871 53.3182C60.579 51.1508 58.7713 49.9701 57.7447 49.3616C55.3732 48.0027 54.2249 47.7674 53.296 47.5193C52.371 47.3029 51.7853 47.2549 51.2684 47.2319C49.3952 47.2171 48.883 47.6539 48.3695 48.0616C47.9058 48.4891 47.6669 48.9854 47.5072 49.5222C47.3341 50.1872 47.763 54.1562 47.7643 54.6486C48.352 62.3072 47.4984 52.0504 47.3289 51.6786C47.0914 50.6016 47.0707 51.2837 47.1033 51.7571C47.1202 52.2336 47.179 52.4974 46.6172 50.6844C46.4435 49.6676 46.0956 48.038 45.4788 45.497C48.7847 48.9858 47.9869 41.9828 54.6891 50.9552C54.7734 51.056 56.888 55.6633 57.0513 55.8426C59.0746 58.029 55.5331 50.9869 51.5746 42.194C50.5508 40.001 56.1771 50.1881 56.6261 50.9153C58.199 53.6388 61.5659 60.3882 61.8897 60.9056C64.5222 64.9204 52.7983 42.9085 53.11 42.7307C53.1419 42.7607 55.2853 46.8204 55.5353 47.2039C56.3251 48.4056 55.549 46.7508 56.4135 48.0782C58.3978 51.1585 64.5122 61.6246 61.4449 55.2527C61.0357 54.4317 53.9093 42.2121 54.5398 42.6173C54.8101 42.7828 55.222 42.2511 55.862 42.9313C56.5027 43.611 58.8087 47.5454 58.9222 47.7073C62.6161 52.5062 63.7672 54.7332 68.8789 62.0582C74.0333 69.3141 62.424 51.5671 61.2307 49.5199C60.0374 47.4811 63.1311 51.398 64.1998 52.7626C65.2634 54.132 66.7511 56.6223 67.3912 57.3715C71.6261 62.2274 61.7409 48.4853 60.0076 45.5935C55.8044 38.8121 65.1124 51.4914 66.4614 52.4171C66.8161 52.6736 64.6194 49.8425 64.5138 49.5049C64.1002 48.2222 67.2777 51.9737 64.9519 48.0877C64.5892 47.4419 59.0395 39.7811 63.5141 45.088C64.1642 45.8494 66.5143 48.9877 67.2106 49.5555C68.2477 50.4148 69.2293 50.7204 68.6299 49.5136C68.1863 48.6211 63.8454 43.8337 65.3362 45.2012C66.0056 45.8083 68.2645 48.8454 69.3319 49.7338C70.3959 50.6259 70.7851 50.0688 70.8787 49.8096C70.973 49.547 67.6072 45.9851 67.4034 45.7248C66.2282 44.2406 64.9102 42.2467 64.9346 42.2316C65.127 41.8435 65.7189 41.8924 66.4594 42.1338C66.8272 42.2571 67.2391 42.4214 67.6453 42.6153C67.8463 42.7145 68.0479 42.8187 68.226 42.9468C68.3139 43.0122 68.3986 43.0805 68.4593 43.1751C68.5198 43.2721 68.5777 43.3585 68.4169 43.7334C68.2653 44.0881 68.0727 44.5206 67.8497 45.1005C67.6341 45.6693 67.1565 46.7944 66.9359 48.3035C66.5975 50.2116 66.7309 53.4281 68.6444 56.233C70.6462 59.0236 72.3574 59.5927 73.5665 60.0806C75.6331 60.7067 76.239 60.4529 76.7536 60.3939C77.1659 60.2896 77.385 60.1691 77.4946 60.0794C77.7286 59.8951 77.6847 59.8135 77.6375 59.8693C77.5816 59.9247 77.4848 60.1151 77.4121 60.4654C77.3587 60.6888 78.5077 65.7253 78.5107 65.8115C78.7451 67.9765 75.9889 54.5187 74.569 50.1293C77.0184 60.3216 76.4112 58.5131 76.3675 59.7103C76.3551 60.2941 77.4522 64.2029 77.541 64.6091C78.9129 70.6217 76.748 62.959 76.2653 61.402C74.5289 55.6645 76.2297 62.5401 75.0426 58.7136C73.837 54.9236 72.539 49.1659 72.1549 49.3537C73.0884 52.9895 76.0352 62.3453 76.2305 63.9426C77.0928 69.9433 73.0704 63.1572 71.947 62.7C70.8846 62.2205 70.8623 62.9648 69.9388 61.8558C68.2638 59.8566 71.0593 66.5814 71.8041 69.8585C72.1586 71.384 71.0188 68.5441 69.5204 64.7277C68.8644 62.9793 68.0968 61.0429 67.3881 59.2144C66.4472 56.7647 65.5892 54.517 65.0762 53.2372C65.0079 53.0684 64.9452 52.9167 64.8886 52.7838C63.3219 49.2675 64.706 52.978 63.6487 51.1448C62.4129 49.4044 61.9858 46.6727 60.7181 46.4473C59.9736 46.4219 59.1714 48.6129 59.8586 51.6735C60.2338 53.1468 61.3858 54.4178 62.6228 54.5957C63.8558 54.8339 65.0086 54.4031 65.9298 54.0221C69.7905 52.2049 73.6675 50.1864 76.1375 48.6275C77.345 47.8025 78.0955 46.8563 78.0439 45.8107C78.0265 45.3021 77.7876 44.7586 77.4193 44.3728C77.0916 44.0342 76.591 43.7836 75.973 43.7234C75.7296 43.7454 72.735 47.4009 72.0409 47.3883C70.8256 47.5024 70.3502 48.0749 70.0241 48.5443C69.7109 49.0342 69.6112 49.5215 69.5419 50.0013C69.4404 50.9829 69.5113 51.9755 69.3277 53.6598C69.2765 54.1307 66.9275 58.8124 66.8768 59.1421C66.3938 62.6094 69.7731 54.4431 74.225 45.6927C68.766 57.5485 65.7883 64.9668 66.4706 65.3519C66.8787 65.5871 69.0954 60.3344 70.9687 56.7688C71.5317 55.6932 70.254 59.4064 71.3805 56.973C75.0624 49.0184 78.7107 39.907 77.8502 43.7936C77.807 43.9773 75.7883 48.3301 75.7795 48.6433C75.7198 50.6925 79.4707 42.3275 80.7346 41.6726C81.7332 41.1613 80.6164 46.7887 80.974 47.9615C74.7602 61.2548 76.7544 58.4793 81.4541 49.514C81.7672 50.1249 82.5701 49.8844 82.4286 51.3832C82.3794 51.8938 80.3268 55.6159 80.1387 56.0353C77.122 62.5815 81.8522 53.9483 82.1569 53.6729C85.1956 51.0461 82.2933 57.9647 87.4648 52.6348C87.6382 52.435 93.3891 44.0145 89.6477 50.4694C89.3667 50.8991 86.3562 54.459 86.7479 55.1611C87.2661 55.9618 84.7639 60.8878 88.7604 58.1616C89.1497 57.912 90.3541 56.9102 91.4738 56.1514C93.0555 54.8433 94.3171 53.9826 91.7213 56.9294C91.1385 57.5879 89.0387 59.6227 87.9411 60.8255C84.4334 64.6478 91.8208 57.465 85.794 63.8179C79.7674 70.171 75.3582 75.034 80.1457 71.3015C80.2843 71.1923 86.2917 65.6586 86.3548 65.9122C86.4459 66.3169 85.5443 67.8415 85.8271 68.068C85.9656 68.1754 89.6075 64.6456 89.6961 64.6047C92.6196 63.5801 89.872 67.2834 89.223 69.5145C89.0903 69.9228 94.7559 65.8979 90.9202 69.8208C86.7057 74.0978 67.5315 89.9781 72.6578 86.8479C74.6868 85.5715 99.2184 65.6693 87.1983 76.8036C91.3147 75.4091 85.7216 81.8024 91.1946 79.3723C91.4376 79.2652 98.4562 73.9282 98.4691 74.1365C98.4732 74.4539 95.3397 77.1321 95.238 77.4398C94.7278 78.7905 97.913 77.1349 97.9254 78.0354C97.9388 78.374 94.5354 80.9374 94.5479 81.3378C94.5627 81.7349 99.1015 78.4322 97.2454 80.4546C95.8282 81.9931 87.0079 89.3247 86.2291 90.497C95.1366 83.5291 95.1374 83.9074 97.8166 82.4859C98.3364 82.21 101.364 79.6926 101.77 79.4367C103.489 78.3411 101.036 80.4992 102.888 79.2819C103.333 78.9899 106.372 76.6064 106.907 76.2328C111.571 72.9633 105.064 78.7429 103.93 79.7471C99.6237 83.5644 103.674 80.5882 102.059 82.1939C100.447 83.8019 97.984 85.2456 97.0986 86.339C95.2685 88.6023 96.2886 88.8831 96.5659 89.5098C96.6968 89.7471 100.595 86.3682 100.707 86.327C102.057 85.9184 98.1743 89.8325 106.276 83.5157C86.0597 100.732 108.47 82.1297 104.831 86.0575C104.538 86.3754 95.0543 94.606 93.4682 95.5864C91.8877 96.5705 94.6239 93.7255 92.189 95.2902C91.6243 95.6661 82.2061 102.738 81.599 103.121C76.9158 106.193 91.4393 94.3109 92.2248 93.6436C100.678 86.4105 90.476 93.9506 89.6874 94.3668C86.1184 96.3304 87.8199 94.2287 85.2317 95.5738C83.553 96.4354 73.8736 104.01 73.9897 103.549C74.3689 102.021 87.6619 91.1863 75.4279 99.6777C72.82 101.491 62.3641 109.927 70.2684 102.889C70.7661 102.444 78.0679 96.0957 73.0908 99.6547C72.4633 100.103 69.3856 102.523 69.0988 102.691C67.2378 103.765 69.5628 101.676 68.1887 102.346C66.8141 103.015 64.8233 104.087 65.6432 102.983C66.1319 102.32 71.6745 97.5703 73.0065 96.376C76.8483 92.9411 70.0496 97.9433 74.8085 93.9192C79.586 89.8682 87.2605 84.2416 90.1011 81.3153C82.1392 87.6452 73.9537 94.1256 65.9432 100.487C65.5869 99.4671 67.5202 96.6254 66.5438 96.1425C66.4153 96.0896 62.2645 99.6515 62.0197 99.6867C61.0127 99.829 63.7181 96.9836 62.1772 97.5603C60.9673 98.0188 56.2564 101.413 54.8927 102.061C63.5969 94.3302 60.1758 96.4099 60.6994 95.3919C60.8762 95.0352 63.2259 93 63.9154 92.2478C66.455 89.4546 58.8558 96.3891 57.5683 97.3759C52.099 101.618 69.4971 86.1488 68.6424 86.0572C68.5959 86.0391 59.1407 94.0845 58.547 94.5806C54.6253 97.758 61.7094 91.6381 62.2572 90.8782C63.2612 89.4931 65.2485 87.2767 62.3173 89.4643C61.4438 90.1065 55.6564 95.2431 59.849 90.9709C60.3964 90.4098 63.3731 87.5877 63.5302 87.4045C66.1123 84.3118 56.8275 93.2519 53.5786 96.172C50.3401 99.1015 56.484 92.6624 58.2375 90.7897C62.8004 85.9717 60.3383 88.8813 60.8057 88.4285C66.3874 83.0552 65.2472 83.7994 65.559 83.187C74.4413 74.1976 73.6448 74.4776 65.845 82.587C64.9912 83.4709 65.9347 82.7463 65.559 83.187C60.9951 87.6494 58.4532 90.083 58.1371 90.2367C58.3013 90.8355 60.4809 89.4082 64.3851 85.3487C68.0973 81.377 72.0562 76.435 70.7158 78.3281C70.1133 79.1833 64.8682 86.1276 63.6331 88.1631C60.9708 92.914 65.6715 86.2732 64.8462 87.2675C64.5917 87.6565 62.1991 91.775 61.959 92.1924C61.3451 93.3303 63.0353 90.1799 62.0618 91.7351C61.9742 91.8833 59.6335 96.2856 59.5885 96.3336C59.2109 96.7879 60.2847 93.7502 59.7078 93.3826C59.4338 93.209 57.6961 95.4395 57.5169 94.7551C57.2213 93.606 59.0675 86.5027 57.5176 87.7473C56.5196 88.5411 54.6272 93.1564 53.0026 96.1539C49.8513 101.964 53.5924 90.7129 54.2286 88.9942C54.2543 88.9398 55.3203 88.1306 56.0621 85.6571C58.0817 80.7166 54.2476 88.9773 54.2286 88.9942C54.6331 87.8841 53.8143 86.2598 53.0535 86.9486C52.6624 87.3388 50.7087 91.642 50.5372 91.7618C48.467 93.0995 46.5264 93.6937 43.6955 92.6628C43.3408 92.5311 42.9762 92.3745 42.5993 92.1894C42.1747 91.9742 41.7311 91.7248 41.2662 91.4351C40.3492 90.8609 39.3095 90.1227 37.8908 88.9014C36.6077 87.772 34.7357 86.0603 32.4095 83.1671C31.408 81.9034 29.65 79.5828 28.0918 76.7803C27.2956 75.358 26.4968 73.7527 25.7495 71.9293C24.8405 69.7437 23.9959 67.2155 23.3844 64.3747C23.133 62.7824 28.7228 63.8847 28.2343 60.4293C26.765 51.8571 30.462 39.5144 34.008 34.6583C35.7902 31.8077 37.6289 29.5887 39.2981 27.7844C40.7483 26.2043 41.793 25.1401 42.8782 24.0636C47.5332 19.7444 48.5237 17.9953 50.462 15.4521C50.2633 14.1883 50.0719 12.8697 49.9549 11.7501C49.5564 7.79998 50.7245 8.7452 54.2631 17.1152C54.493 15.8192 56.6773 19.3063 57.9307 21.4508C59.1821 23.5958 55.9644 13.8247 55.9466 13.616C55.2931 6.97083 57.9853 12.2875 59.7972 12.6921C60.6641 12.9 61.8236 11.0079 62.5978 9.64002C63.2081 8.54049 64.3264 10.7429 64.8883 9.02511C64.9739 8.79346 63.79 4.36629 63.7907 4.18494C63.768 -1.43495 65.6754 9.61882 66.3413 11.518C68.8426 18.4218 69.7518 22.1577 71.1594 18.4584C71.3883 17.637 70.9562 1.34832 74.1584 0.208584C75.84 -0.481728 77.0805 0.668842 77.8564 1.79901C78.8898 2.98611 79.0066 3.86232 84.264 3.82694C84.7375 3.84103 85.0368 2.94971 86.2047 2.25771C87.5391 1.70681 89.763 0.769859 97.2818 3.8359C103.26 6.72475 111.064 9.95007 120.08 23.2012C128.659 36.499 128.961 51.419 126.91 60.5113C125.425 67.5359 122.704 72.7256 121.137 75.3409C119.575 77.9391 118.129 79.8339 116.842 81.3698C116.023 82.3325 115.59 82.7528 115.188 83.1446C114.919 83.3764 114.68 83.5676 114.453 83.7433C114.339 83.8309 114.228 83.9142 114.12 83.9947C114.023 84.0629 113.947 84.1069 113.861 84.1611C113.694 84.2653 113.531 84.3651 113.369 84.463C113.022 84.6837 112.787 84.7835 112.513 84.9315C112.247 85.071 111.978 85.2198 111.762 85.3238C110.824 85.8179 110.079 86.2839 109.622 86.9107C109.43 87.1464 113.656 90.926 113.425 91.3498C112.37 93.3023 110.654 94.564 107.605 93.6944C106.834 93.4738 104.468 90.286 103.632 89.454C98.6345 84.3689 104.731 92.745 104.733 92.9988C105.442 98.857 97.9205 92.8391 98.132 98.1552C98.1812 98.4432 103.389 108.324 97.5251 100.818C97.1238 100.326 91.2275 92.5788 94.5391 98.3606C94.7418 98.7252 97.8205 102.689 97.021 102.608C96.2414 102.516 97.1584 105.908 93.5029 101.713C92.3326 100.403 86.7179 92.4782 90.1327 99.4523C90.4238 99.9089 98.3108 115.569 91.7369 105.442C90.6585 103.772 84.2541 92.7345 86.7927 98.8283C87.2764 100.014 88.9853 102.315 89.4603 104.093C90.1678 106.847 87.6635 104.334 89.5675 109.77C89.9245 110.723 93.3367 118.726 89.7417 113.187C89.1827 112.318 87.3407 108.472 86.8615 108.185C84.5904 106.795 84.5681 109.994 82.0075 107.949C81.1149 107.227 78.39 100.895 77.1814 99.4234C75.9707 97.9538 74.4196 96.7108 75.2505 99.7854C76.0703 102.866 81.0404 112.675 80.6244 113.816C78.674 118.83 72.7537 114.183 69.0735 114.368C68.5145 114.398 70.14 118.005 69.3708 118.324C68.1492 118.836 66.7075 120.04 65.0042 120.648C58.7971 122.481 52.5537 122.356 46.4569 117.449C36.9762 110.117 49.7397 106.001 42.7102 102.642C40.5947 101.537 38.5016 104.851 29.0938 104.129C24.5365 103.041 14.4169 102.203 4.51437 84.1815C-5.08755 63.7029 3.40377 46.5139 4.76242 43.8311C13.4893 29.1886 17.219 28.7891 20.2906 25.9211C21.5696 24.9615 22.6932 24.2069 23.7055 23.5711C24.6165 22.9916 25.3328 22.5645 26.0501 22.1666C28.7426 20.6804 30.1773 20.1826 31.5438 19.8081C33.7809 19.4467 36.0938 20.9459 37.8416 19.3571C38.3904 18.8603 36.5993 13.9639 37.1079 13.5922C38.8819 12.2712 41.2622 14.1921 42.8635 13.5357C43.5637 13.2331 42.8995 9.33604 43.64 9.54756C45.3841 10.0166 46.99 11.5368 48.6349 15.1351C48.7677 15.4643 48.336 20.4204 49.3011 20.5382C50.8859 20.7173 52.7092 24.3172 54.2133 20.5504C54.6538 19.4179 54.8133 10.3844 55.7343 16.6391C55.9286 17.9474 55.3756 28.776 56.7389 19.4445C56.9097 17.8872 59.5489 5.35474 59.9572 13.5527C60.0666 15.7086 59.9643 24.5974 60.5117 23.2434C60.595 23.027 60.7272 18.1707 61.166 17.7322C62.7096 16.2731 64.0283 16.9347 65.534 15.5929C65.9411 15.2259 66.0385 10.1783 66.6356 9.79223C68.2814 8.72329 69.9077 10.2628 70.881 12.0205C71.247 12.679 70.2331 16.7249 70.1934 17.177C69.4698 24.5188 71.4459 14.7804 71.732 14.2426C73.4343 11.0219 73.364 15.7581 74.5022 14.7233C74.8174 14.451 75.5582 9.76917 75.6906 9.3648C77.032 5.42398 74.974 13.6876 75.1165 14.6724C75.5061 17.4587 76.5091 17.281 77.4809 16.8733C77.8383 16.7166 78.6609 11.2745 78.9736 11.1972C80.8498 10.6394 82.3529 11.5304 83.0223 14.8045C83.1459 15.4306 81.9958 19.5039 81.8239 20.4561C80.6064 27.1138 83.2848 18.278 83.6159 17.4548C85.1076 13.6914 84.4284 17.3756 85.0529 16.8101C88.1512 13.9927 89.8749 16.9758 90.9161 18.7887C92.2343 21.1228 92.5782 25.282 93.122 24.307C93.1454 24.2488 93.98 18.6849 93.9986 18.5613C94.0695 17.2216 93.255 19.224 90.6127 17.6111C90.3666 17.4914 90.6679 12.1519 90.2148 11.7827C89.261 10.989 87.8294 11.3523 86.5452 13.21C85.9604 14.1029 87.361 18.5479 86.8185 19.3491C85.6155 21.2255 83.958 21.8801 81.5737 21.6297C80.5189 21.5286 80.5959 15.8478 79.213 16.1683C70.6061 16.9162 51.2333 29.9927 51.5101 44.8335C49.5359 49.9093 48.5276 55.1665 48.3513 59.7959C48.2086 64.6617 59.108 68.3096 57.7964 73.5765C54.8275 74.4806 51.2618 75.0943 48.0597 75.8734C50.7006 90.2365 54.9957 94.7073 58.5512 99.2016C70.9139 112.019 74.9158 111.051 78.0107 112.55C80.9191 113.384 82.2688 113.336 83.2771 113.243C85.1836 112.986 85.4764 112.253 85.4965 112.035C85.4978 112.012 84.7401 117.837 84.755 117.822C84.7863 117.739 84.2668 119.314 83.9528 113.443C83.9174 112.868 84.6356 102.558 84.2681 104.101C84.2068 104.383 83.7126 105.735 83.4923 107.97C83.4615 108.307 83.2717 113.128 83.1448 113.262C82.4057 113.956 81.6426 112.825 80.8431 109.857C80.7136 109.369 80.9931 104.237 80.8982 103.845C80.1976 101.1 79.2923 104.992 78.5646 100.323C78.0591 97.1792 78.303 88.3013 78.0306 79.5598C77.9913 78.3264 77.6243 78.1302 77.6095 73.045C77.5694 60.2576 77.7947 46.2559 77.7319 32.6258C77.7182 29.6898 77.0944 32.8516 77.4659 25.7572C77.4915 25.2823 77.9531 22.9284 78.076 20.5221C78.1616 18.8584 78.0295 13.6863 78.2042 11.5568C78.3826 9.42936 78.5436 13.7652 78.8414 11.2643C79.1409 8.73259 79.0527 2.84811 79.645 2.15649ZM63.4314 31.0867C65.3462 35.6607 59.9218 18.3975 60.752 22.6779C60.7987 22.9053 63.3354 30.863 63.4314 31.0867ZM78.1257 88.0373C84.0444 82.6647 74.7621 89.852 70.1692 93.9734C65.5707 98.0776 76.3274 89.6609 78.1257 88.0373ZM85.5461 87.9917C90.1525 83.6709 69.9746 99.5227 74.386 96.7391C74.6359 96.5826 85.2785 88.2424 85.5461 87.9917ZM79.5089 77.0821C79.5078 76.8417 79.2419 76.6046 79.2346 76.8427C79.0397 82.588 79.549 83.0578 79.5089 77.0821ZM93.4761 87.816C96.0995 85.5369 92.6423 87.6224 89.3811 90.4579C86.7592 92.7412 90.2153 90.6543 93.4761 87.816ZM71.6672 59.5527C71.5024 59.3392 71.1888 59.2666 72.0845 60.4998C74.9675 64.4735 74.4206 63.1584 71.6672 59.5527ZM99.4012 94.4218C98.8246 92.4249 114.646 78.2683 113.303 80.3569C113.095 80.7697 108.108 84.6936 106.841 86.1398C104.685 88.9342 114.312 79.7425 109.422 84.9278C108.7 86.0427 99.4816 94.6528 99.3782 94.4405C99.3859 94.4343 99.3935 94.428 99.4012 94.4218ZM70.298 51.7095C70.378 51.935 70.7177 52.065 70.6525 51.8369C69.0744 46.3105 68.3533 46.0568 70.298 51.7095ZM56.2206 55.7002C55.9955 55.2433 55.2907 55.0377 55.4674 55.4724C58.9543 64.2046 60.5987 64.5526 56.2206 55.7002ZM80.8199 48.3215C83.591 43.2373 84.348 42.844 81.4558 49.5067C81.2964 49.002 80.9929 48.7951 80.8199 48.3215ZM117.325 151.285C110.126 152.88 106.746 152.888 103.738 153.009C100.887 153.064 99.1137 152.958 97.4384 152.802C94.3987 152.503 92.44 152.009 90.8421 151.446C87.7232 150.315 86.0281 148.84 84.7236 147.312C83.9374 146.364 85.2368 143.39 84.7803 142.606C83.922 141.084 82.4832 142.311 81.8791 140.589C81.6906 140.005 83.5179 135.246 83.2959 134.748C82.0937 132.057 80.1537 132.813 78.8791 131.283C77.6855 129.836 76.5486 128.529 75.5382 127.372C75.0415 126.796 74.5768 126.258 74.2253 125.781C74.069 125.548 73.9182 125.325 73.8922 125.144C73.8736 124.964 73.912 124.815 74.4935 124.8C72.6137 124.307 70.2351 123.655 66.6669 121.919C64.8825 121.033 62.7785 119.852 60.3205 117.991C58.4874 116.735 50.3629 109.835 47.0823 99.7242C43.0871 89.7178 45.7835 75.846 48.2887 71.2933C50.3345 66.7272 52.645 63.6762 54.6036 61.4277C56.5833 59.1852 58.2866 57.7132 59.7308 56.5679C60.4541 55.9981 61.1163 55.517 61.7276 55.0956C61.8699 54.9974 62.0651 54.8652 62.1451 54.812C62.2275 54.7571 62.3089 54.7033 62.3894 54.6505C62.5504 54.5449 62.7078 54.4434 62.8616 54.3458C65.3135 52.8043 66.9325 52.0765 68.2512 51.4991C68.413 51.4297 68.5801 51.3593 68.7208 51.3013C68.8251 51.2589 68.9271 51.2179 69.027 51.1783C69.2268 51.0991 69.4182 51.0252 69.6024 50.9558C69.9708 50.8169 70.3102 50.6957 70.6277 50.5868C71.2526 50.3725 71.8427 50.1899 72.2765 50.0665C72.6515 49.9619 72.9958 49.8726 73.3183 49.7935C73.954 49.6378 74.5588 49.5091 74.93 49.446C75.7691 49.2947 76.4721 49.2011 77.0018 49.1505C77.281 49.1222 77.56 49.0963 77.8134 49.0772C78.0408 49.063 78.2632 49.051 78.482 49.0408C80.199 48.968 81.4435 49.0304 82.5521 49.1119C84.8007 49.278 86.6186 49.5418 88.3506 49.8209C91.7807 50.388 94.8147 51.0451 97.7799 51.8126C100.95 52.6298 104.323 57.4228 107.437 55.6433C107.805 55.431 107.942 50.9695 108.037 50.6083C109.562 45.0852 108.499 54.031 109.073 55.2789C111.373 60.2118 114.149 60.9215 116.845 59.521C116.997 59.4416 117.13 59.2203 117.248 58.9069C118.191 56.8448 118.053 50.6457 118.776 55.1014C118.828 55.4475 117.835 60.0907 118.144 60.6428C118.854 61.8842 120.486 61.2878 121.048 61.7685C122.074 62.7068 122.274 62.6967 123.319 62.9551C124.742 63.352 125.861 66.0061 127.499 65.2904C127.858 65.1254 128.565 60.3046 129.254 59.6191C129.956 58.937 131.15 59.6553 131.297 60.8741C131.446 62.0927 130.32 65.7431 130.179 66.6096C128.935 73.9075 132.875 64.3752 133.148 64.1875C137.576 60.9167 138.676 67.31 141.477 68.1377C143.624 68.7602 146.436 67.6213 148.312 68.4858C150.544 69.5345 151.687 72.656 154.017 72.9155C154.26 72.9478 155.704 67.4194 156.004 67.4476C159.194 67.7554 161.878 69.2446 163.628 73.7957C163.803 74.2572 161.986 78.943 162.077 79.6917C162.633 84.1626 162.839 94.5243 169.811 73.8213C170.737 74.9694 171.881 76.1976 171.781 80.7231C171.724 83.6372 169.664 88.7379 171.103 86.7097C171.425 86.2578 172.399 81.5709 172.784 81.2412C174.391 79.8543 175.28 81.6824 176.994 79.5572C177.345 79.1137 178.289 74.9351 178.534 74.2007C180.141 69.3896 179.427 75.1761 179.143 77.9784C179.079 78.6404 179.034 79.1352 179.041 79.2839C179.364 85.1015 181.042 83.2197 182.498 83.6747C182.837 83.7827 183.643 78.0706 184.008 77.9714C185.876 77.5299 187.525 78.374 188.718 81.2114C188.983 81.8564 187.689 86.5969 187.769 87.1515C188.146 89.5404 190.079 80.4857 190.465 82.5961C190.549 83.0294 189.673 87.1335 189.616 87.5918C188.737 94.7879 191.05 84.7938 191.205 84.5927C193.266 81.8326 192.323 92.5356 194.086 91.3077C194.297 91.1496 194.816 85.8509 195.348 85.7255C198.881 84.8554 202.09 86.8459 204.786 91.5333C205.211 92.2557 204.263 96.1474 204.224 96.6385C203.657 104.319 205.486 94.1838 205.706 93.8238C207.421 91.2519 207.511 99.9774 210.06 87.9515C215.146 92.9323 221.489 86.7301 226.08 98.2314C226.142 98.3655 225.498 103.395 225.623 103.641C226.743 105.927 227.293 101.936 228.393 95.7312C228.744 93.7673 229.151 91.5815 229.639 89.3013C230.135 86.919 229.893 98.5808 229.896 99.4371C229.884 102.592 228.9 110.074 228.938 110.689C229.312 115.521 231.436 90.6732 232.416 90.7499C232.445 90.794 231.921 95.3564 231.967 95.8184C232.114 97.2692 232.512 95.472 232.65 97.0686C232.929 100.759 232.257 112.864 233.713 105.897C233.891 104.992 234.735 90.8713 235.502 91.5913C235.817 91.8932 237.203 91.7247 237.497 92.6491C237.815 93.5766 237.423 98.1244 237.437 98.3224C238.309 104.379 237.824 106.864 238.38 115.798C239.08 124.693 238.884 103.484 239.028 101.116C239.18 98.757 239.829 103.712 240.127 105.424C240.402 107.139 240.382 110.044 240.626 111.008C242.6 117.246 239.983 100.491 239.438 97.1775C238.184 91.6507 236.439 98.3861 237.584 103.474C236.978 105.089 235.731 107.761 236.184 110.786C236.731 113.62 238.162 114.363 238.597 114.71C239.487 115.2 236.222 116.859 236.566 117.751C236.839 118.484 237.061 118.54 237.282 118.45C237.497 118.347 237.698 118.053 237.8 117.82C238.008 117.353 237.813 117.119 236.463 118.948C235.967 119.514 231.336 127.763 234.013 121.351C234.389 120.422 236.272 116.978 236.338 116.036C236.444 114.625 235.861 113.415 234.762 114.358C233.954 115.058 231.787 121.163 232.093 119.103C232.226 118.182 234.195 114.923 234.31 113.478C234.425 112.032 233.204 111.676 232.706 111.6C232.209 111.527 230.479 116.117 230.31 116.404C229.335 118.04 227.504 119.814 227.423 119.771C226.876 119.614 226.377 119.312 225.92 118.91C225.901 118.908 225.85 118.87 225.83 118.868C226.224 118.882 226.175 118.609 226.107 118.299C226.013 117.978 225.852 117.587 225.657 117.165C225.246 116.316 224.782 115.37 224.199 114.516C223.078 112.82 221.683 111.546 219.764 112.299C219.423 112.429 218.389 117.494 218.325 117.566C216.813 119.425 220.857 106.275 221.206 101.629C218.844 111.842 218.887 109.899 217.887 110.843C217.402 111.305 216.656 115.3 216.527 115.697C214.598 121.575 216.086 113.744 216.361 112.136C217.389 106.222 215.384 113.024 216.072 109.072C216.741 105.146 218.621 99.5333 217.899 99.4426C216.853 103.052 215.15 112.723 214.265 114.149C210.946 119.547 208.908 111.204 207.455 110.065C206.007 108.927 205.323 109.486 204.676 107.956C203.499 105.189 202.544 112.427 200.797 115.455C199.036 118.48 203.342 101.097 204.005 97.3038C204.669 93.5118 203.663 97.3453 203.921 95.2375C204.178 93.1302 205.144 90.6625 204.863 89.7895C204.579 88.9164 201.942 95.3477 200.932 99.2463C198.806 107.508 197.464 116.371 196.96 113.047C196.933 112.85 198.137 108.295 197.984 107.775C196.718 103.797 194.621 103.12 193.264 99.555C193.074 99.0567 194.415 93.9885 194.317 93.6405C193.296 90 192.088 98.7693 189.122 108.166C192.038 95.4423 193.169 87.5192 191.888 87.1697C191.127 86.9568 190.081 92.5621 188.748 96.3871C188.348 97.5403 188.602 93.5936 187.947 96.1954C185.811 104.701 184.291 114.406 183.783 110.307C183.764 110.113 184.937 105.458 184.797 105.132C183.894 102.998 181.819 111.929 180.205 112.724C178.921 113.344 178.112 107.463 177.029 106.308C180.06 91.95 178.184 94.9902 175.633 104.793C175.08 104.357 174.37 104.465 173.831 103.877C173.788 103.883 173.66 103.825 173.616 103.83C173.548 103.661 173.486 103.419 173.437 103.062C173.362 102.56 174.31 98.4172 174.38 97.9631C175.295 90.8021 173.133 100.419 172.998 100.787C171.055 104.265 170.447 96.712 168.209 103.859C168.124 104.116 167.37 114.28 167.45 106.828C167.446 106.314 168.292 101.72 167.533 101.313C166.783 100.905 165.429 95.3754 164.126 100.066C163.804 101.194 162.951 109.45 162.516 102.976C162.458 102.097 162.592 99.1757 162.511 97.5472C162.236 92.3582 161.897 102.657 161.584 93.8998C161.271 85.143 160.31 78.5779 159.039 84.6166C158.997 84.7921 158.706 92.9579 158.321 92.8298C157.702 92.6182 156.832 90.9226 156.179 90.9825C155.869 91.014 156.121 96.0824 156.068 96.1757C154.066 99.0394 152.55 94.5465 150.27 92.6368C149.854 92.2767 148.872 99.2178 147.938 93.7746C146.91 87.8162 147.124 62.9061 145.258 68.8924C144.495 71.2876 144.435 102.886 142.493 86.5746C139.815 90.7133 136.98 82.4252 134.358 88.2892C134.242 88.549 134.078 97.3711 133.774 97.2591C133.324 97.0759 132.975 92.9638 132.654 92.7004C131.316 91.4928 130.172 95.0441 128.886 94.5195C128.394 94.3291 128.489 90.0672 127.911 89.8386C127.336 89.6137 127.041 95.2282 126.216 92.5287C125.592 90.4708 124.91 79.0117 124.176 77.6793C124.215 88.9881 123.675 88.7592 122.725 91.7443C122.541 92.3234 122.736 96.2597 122.648 96.7367C122.284 98.7651 121.963 95.5019 121.616 97.7085C121.528 98.2384 121.503 102.1 121.428 102.752C120.775 108.436 119.863 99.7374 119.735 98.2223C119.205 92.4694 118.815 97.4858 118.374 95.2136C117.949 92.9413 118.718 90.1308 118.206 88.7459C117.18 85.8821 115.76 86.4547 114.671 86.2169C114.232 86.1456 114.243 91.3094 114.174 91.4188C113.11 92.6688 112.634 87.1341 111.218 97.3191C112.887 70.8093 110.427 99.8443 109.423 94.3864C109.345 93.9443 110.741 81.4662 111.267 79.6711C111.777 77.8761 111.917 81.8355 112.644 79.0142C112.84 78.3553 114.366 66.6736 114.468 65.9657C115.4 60.4484 114.288 79.1769 114.274 80.2091C114.049 91.3397 115.694 78.732 115.896 77.8633C117.052 73.8987 117.822 76.5619 118.743 73.718C119.347 71.8795 119.635 59.5914 120.02 59.9742C121.292 61.2364 121.823 78.3848 123.205 63.5177C123.498 60.346 123.158 46.9147 124.233 57.4726C124.292 58.1384 125.164 67.7959 125.573 61.6785C125.624 60.9072 125.579 56.9925 125.651 56.6628C126.137 54.5297 126.507 57.6441 127.043 56.142C127.575 54.6399 128.22 52.4012 128.881 53.716C129.281 54.5022 129.946 61.7837 130.18 63.5647C130.844 68.6956 131.231 60.2491 131.719 66.4685C132.222 72.7188 131.773 82.2415 132.799 86.2621C132.573 76.0931 132.381 65.6545 132.169 55.4274C134.131 55.7348 136.187 58.9638 138.211 58.4522C138.462 58.3785 138.035 52.9208 138.3 52.701C139.415 51.7976 140.542 55.6624 141.703 54.0738C142.603 52.8231 143.458 47.005 144.423 45.5177C145.374 57.134 146.735 53.1428 147.867 54.1779C148.261 54.5354 148.314 57.6437 148.61 58.6507C149.725 62.3752 148.998 52.1047 149.243 50.4797C150.326 43.5447 150.952 66.8164 152.349 66.2141C152.414 66.19 153.148 53.7658 153.275 52.9911C154.041 47.9393 153.483 57.3075 154.02 58.2163C154.995 59.8781 155.689 62.8332 156.796 59.19C157.114 58.1109 157.889 50.3717 158.583 56.3536C158.672 57.1369 158.629 61.2387 158.699 61.4788C159.948 65.4827 160 52.596 160.794 48.2353C161.617 43.8757 162.734 52.7882 162.916 55.3563C163.425 61.9989 162.401 58.1834 162.357 58.8343C161.871 66.5755 162.707 65.2518 163.32 65.9184C163.182 78.5546 164.029 77.8143 163.973 66.5595C163.963 65.33 163.438 66.4978 163.32 65.9184C164.102 53.5318 165.306 51.9698 166.04 63.5877C166.387 69.0344 165.667 75.3393 167.282 73.0886C168.024 72.0758 168.15 63.3705 168.955 61.0361C170.874 55.7148 172.494 63.9647 174.357 62.8741C175.09 62.4838 174.912 57.6758 175.452 57.2491C176.932 56.1105 177.647 59.8011 179.425 58.2267C179.593 58.0793 180.017 53.0979 180.529 53.1155C181.88 53.1216 183.455 53.7 184.895 54.4899L184.188 54.3352C185.209 55.3631 186.062 56.9005 187.345 57.2271C188.318 57.4723 190.596 55.1402 191.502 55.8956C193.042 57.1679 193.695 64.7145 195.561 63.3082C196.767 62.4106 197.583 57.486 198.7 54.2492C200.857 47.9731 199.866 59.8227 199.67 61.6484C199.664 61.7089 198.584 62.6819 198.499 65.2807C197.653 70.5538 199.655 61.669 199.67 61.6484C199.542 62.8277 200.995 64.2933 201.524 63.4313C201.813 62.9601 202.695 58.3172 202.827 58.1589C205.949 54.5 208.467 53.8103 210.298 56.4648C210.318 56.5668 209.144 61.7201 209.206 61.8955C210.023 64.4755 212.259 58.3448 214.164 54.8307C216.084 51.3216 216.7 52.7719 215.4 61.7754C216.501 60.8472 216.799 65.0204 216.982 67.5539C217.144 70.0828 219.469 60.0609 219.575 59.876C222.908 53.9497 222.735 59.9458 224.541 61.2982C225.386 61.956 227.635 60.9452 228.982 60.1081C230.009 59.4197 230.012 61.8991 231.141 60.5857C231.294 60.411 232.264 55.9328 232.338 55.7691C234.554 50.6671 231.466 61.4411 231.18 63.4297C230.125 70.6587 229.586 74.5138 231.552 71.4796C231.983 70.7798 236.795 55.3661 237.568 54.5925C238.595 53.6232 236.864 59.144 237.962 57.9859C238.06 57.8936 238.937 54.4369 239.397 54.7227C241.721 56.0978 242.912 58.4036 248.862 60.2377C249.81 60.5742 250.574 54.7877 252.192 55.2858C252.955 55.5366 253.794 55.8401 254.758 56.2365L254.434 56.0882C255.449 56.0426 256.661 56.991 257.2 59.8706C257.34 60.6641 255.482 64.1724 255.096 65.2871C252.751 72.0278 257.797 62.9614 258.046 62.8581C260.733 61.477 262.148 63.078 264.511 65.5492C265.792 66.8716 267.056 68.1414 270.501 70.8165C272.355 72.4153 274.474 73.4272 280.233 79.7106C282.85 83.4335 288.643 87.4656 291.895 105.326C293.375 113.646 291.152 127.154 286.401 135.178C281.36 144.148 276.602 148.099 272.391 151.411C270.338 153.093 268.038 154.694 265.989 155.977C264.803 156.812 260.302 161.919 256.508 164.514C252.712 167.191 249.672 167.962 247.667 163.429C247.224 162.853 243.979 153.423 242.982 160.119C242.897 160.538 244.315 165.482 242.306 165.068C240.393 164.645 238.053 167.986 236.609 162.45C236.09 160.705 235.447 150.986 233.934 158.655C233.888 159.196 231.002 176.551 231.127 164.471C231.155 162.483 232.037 149.752 230.405 156.2C230.082 157.45 230.318 160.32 229.561 162.049C228.415 164.714 227.457 161.21 225.907 166.783C225.63 167.77 224.055 176.329 223.993 169.721C223.986 168.686 224.559 164.459 224.271 163.954C223.528 162.609 222.632 162.841 221.752 162.779C221.141 162.739 220.508 162.509 220.017 161.143C219.617 160.062 220.559 153.233 220.236 151.345C219.904 149.456 219.048 147.583 218.164 150.656C217.284 153.73 216.745 164.713 215.817 165.499C211.739 168.904 208.744 162.079 205.178 160.682C204.644 160.472 204.615 164.429 203.781 164.398C200.763 164.316 194.938 167.225 193.543 158.568C192.456 151.642 195.818 147.002 194.665 144.076C194.125 142.681 191.338 155.165 191.089 155.532C188.634 159.279 188.256 153.49 186.344 154.929C185.946 155.227 185.424 160.385 185.091 160.582C183.936 161.298 183.286 158.843 182.256 159.091C181.791 159.214 181.187 163.12 180.843 162.749C180.015 161.908 179.458 160.119 179.216 156.309C179.195 155.962 180.639 151.23 179.986 150.924C178.915 150.44 178.24 146.595 176.247 150.051C175.654 151.091 173.899 159.95 174.273 153.668C174.351 152.355 176.683 141.763 173.905 150.763C173.459 152.262 169.284 164.312 170.124 156.166C170.344 154.022 171.627 145.225 170.888 146.495C170.779 146.699 170.032 151.499 169.55 151.881C167.873 153.145 166.558 152.33 164.829 153.501C164.363 153.822 163.832 158.847 163.164 159.167C162.169 159.648 161.224 159.372 160.376 158.715C159.584 158.141 158.881 157.295 158.301 156.412C157.84 155.694 159.242 151.756 159.305 151.306C160.376 143.991 157.602 153.537 157.224 154.04C154.947 157.046 155.032 152.248 153.451 153.108C153.016 153.333 152.052 157.977 151.874 158.367C150.077 162.16 152.81 154.084 152.593 153.056C152.001 150.15 150.52 150.138 149.106 150.37C148.584 150.462 147.617 155.895 147.162 155.915C144.436 156.131 142.07 154.889 140.683 151.311C140.424 150.627 141.911 146.658 142.101 145.706C143.45 139.055 139.911 147.614 139.448 148.391C137.358 151.945 138.096 148.259 137.094 148.681C132.141 150.794 128.304 146.974 125.493 144.487C121.827 141.272 119.864 136.453 116.128 136.476C115.895 136.474 114.58 141.949 114.365 142.018C111.716 142.678 110.217 140.031 108.464 141.32C108.332 141.418 107.367 146.665 107.134 147.002C106.653 147.729 106.442 147.394 106.583 145.69C106.642 144.867 107.548 140.38 107.57 139.64C107.609 138.04 107.469 137.57 107.366 138.175C107.301 138.218 107.235 138.269 107.168 138.328C106.804 138.661 106.612 144.133 106.202 144.147C103.405 144.354 101.001 145.073 98.96 137.884C98.8281 137.391 99.2501 126.311 98.7409 128.415C98.5649 131.487 98.3952 135.102 98.2279 138.387C96.4787 139.19 94.9562 138.654 93.7985 137.871C93.2358 137.478 92.7483 137.027 92.6342 136.621C92.59 136.415 92.625 136.224 93.0112 136.012C93.2092 135.905 93.4788 135.797 94.0713 135.629C94.7312 135.429 95.1952 135.373 98.1448 134.506C99.2834 134.154 99.3433 135.658 99.5824 137.118C99.7151 137.843 99.9074 138.55 100.42 138.965C100.917 139.365 101.718 139.583 104.836 138.345C105.501 138.073 107.142 137.394 109.099 136.393C110.097 135.883 111.231 135.27 112.569 134.461C113.239 134.056 113.96 133.6 114.744 133.074C115.88 132.315 117.645 131.057 119.467 129.525C123.1 126.337 128.349 121.818 133.596 111.501C135.307 108.746 140.941 93.6068 138.907 80.5559C137.422 66.8568 130.272 55.1927 124.051 48.8308C122.481 47.1765 120.944 45.759 119.478 44.5274C118.484 43.6962 117.867 43.2178 117.093 42.6343C115.612 41.5238 114.219 40.5927 112.917 39.7898C110.312 38.1875 108.072 37.0853 106.125 36.227C102.233 34.5343 99.4594 33.7592 97.2226 33.1917C99.9655 33.8771 100.721 34.049 101.786 34.3262C102.696 34.5658 103.444 34.8173 104.076 35.2172C105.322 36.0123 106.146 37.416 106.415 40.4217C106.476 41.0395 103.252 50.8593 104.398 49.5806C104.61 49.3486 106.001 48.3382 106.895 46.2656C107.026 45.9518 108.28 41.291 108.613 41.246C110.497 41.0607 111.718 42.5495 111.493 45.5246C111.446 46.0121 110.155 50.9846 110.124 51.3783C110.002 52.7579 110.247 52.4777 109.238 52.2601C108.678 52.1573 107.832 52.0349 105.658 52.2867C105.029 52.3507 104.281 52.4457 103.392 52.6C102.946 52.6773 102.464 52.7697 101.937 52.883C101.332 53.0019 100.577 53.1554 99.7762 53.351C96.7731 54.578 91.7756 53.8333 80.0796 63.9805C71.7099 71.6133 68.2453 84.3944 68.9967 91.3746C69.0956 93.1616 69.3641 94.9477 69.6437 96.07C69.9119 97.1248 70.2178 98.0477 70.5384 98.8632C71.1818 100.493 71.8772 101.699 72.552 102.644C73.9066 104.514 75.1919 105.426 76.3371 105.91C77.3875 106.181 78.3909 106.185 79.3848 106.072C83.2628 105.435 87.5605 103.943 91.6256 102.051C92.866 101.656 93.6308 102.169 97.1093 98.4473C105.979 89.2318 116.426 79.8826 125.925 70.1038C127.897 67.8787 123.15 67.7755 129.534 64.0272C129.962 63.7644 133.635 64.0357 136.743 63.9922C138.705 63.7343 141.284 58.7579 144.516 59.3102C145.344 59.485 145.896 59.9779 146.333 60.6733C146.867 61.4979 147.421 62.7226 148.014 64.1074C149.132 67.2418 150.999 69.1981 155.336 80.727C157.212 85.7577 158.506 93.2984 158.507 99.4187C158.526 105.656 157.961 111.206 155.581 117.986C153.215 124.671 148.189 133.185 139.648 140.108C132.581 146.161 123.032 150.045 117.325 151.285ZM217.696 78.8595C217.244 83.8221 221.328 66.1935 219.675 70.2588C219.591 70.4764 217.717 78.6158 217.696 78.8595ZM136.596 72.606C137.654 80.5592 137.862 68.8117 137.097 62.6681C136.338 56.5309 136.277 70.195 136.596 72.606ZM128.339 78.6411C129.412 84.9153 129.04 59.2579 128.166 64.4623C128.115 64.7564 128.277 78.2768 128.339 78.6411ZM105.052 77.6596C105.034 77.7793 104.95 77.8915 104.731 77.9465C104.53 78.001 104.223 78.0099 104.201 77.8922C103.667 75.042 104.236 73.4508 104.746 73.3712C105.259 73.2918 105.316 74.684 105.052 77.6596ZM120.135 85.0217C120.383 88.4968 121.275 84.4976 120.947 80.1782C120.695 76.7041 119.841 80.6997 120.135 85.0217ZM245.871 109.7C245.776 109.806 245.804 110.035 246.06 110.364C246.305 110.623 246.724 111.201 247.472 111.122C249.973 110.849 250.359 108.609 249.585 108.007C248.887 107.414 247.534 108.148 245.871 109.7ZM107.142 84.2431C108.103 85.4667 107.117 106.758 104.192 103.826C103.735 103.3 106.615 97.4013 106.269 95.3944C106.025 93.5802 105.148 95.9081 104.181 97.7397C103.212 99.5709 102.115 100.886 102.455 97.2668C102.765 96.003 107.235 84.1718 107.152 84.215C107.149 84.2244 107.145 84.2338 107.142 84.2431ZM213.283 100.145C213.243 100.381 213.694 100.716 213.758 100.487C215.298 94.9452 214.384 94.2666 213.283 100.145ZM224.242 103.018C224.272 102.508 223.162 101.914 223.072 102.376C221.478 111.655 223.754 112.889 224.242 103.018ZM177.09 105.921C175.35 111.461 174.581 111.995 175.634 104.801C176.094 105.291 176.609 105.457 177.09 105.921Z" fill="var(--stroke-0, #DEE5FF)"/>
</g>
</svg>
