<svg preserveAspectRatio="none" width="100%" height="100%" overflow="visible" style="display: block;" viewBox="0 0 234.423 541.244" fill="none" xmlns="http://www.w3.org/2000/svg">
<g id="Group 4">
<path id="Vector 11" d="M43.6514 291.408L72.0103 340.524C-81.84 577.439 157.773 546.38 188.141 530.49C253.116 518.933 246.494 386.029 188.142 340.524L201.302 291.408H43.6514Z" fill="var(--fill-0, #467603)"/>
<path id="Vector 24" d="M152.802 313.303C152.579 311.881 153.007 310.113 153.53 308.786C153.692 308.362 154.291 308.61 154.43 308.332C154.703 307.771 154.435 307.226 154.753 306.665C154.861 306.488 155.816 306.775 155.907 306.587C156.402 305.516 156.216 304.51 156.49 303.415C157.528 299.316 158.177 295.258 158.781 291.099C158.957 289.902 159.133 288.649 159.312 287.41C159.569 285.629 160.585 283.495 160.318 281.614C160.286 281.396 159.428 281.471 159.36 281.426C158.328 280.714 160.031 281.036 160.286 280.627C161.292 279.003 161.488 277.149 161.263 275.517C161.165 274.817 159.433 275.403 160.425 274.766C160.492 274.721 161.383 274.955 161.492 274.771C161.735 274.363 161.625 273.548 161.718 273.221C161.901 272.592 161.899 272.478 161.948 271.879C162.022 271.066 162.535 270.11 162.387 269.208C162.353 269.018 161.412 269.206 161.274 268.897C161.136 268.589 161.266 267.799 161.501 267.543C161.737 267.288 162.457 267.45 162.626 267.413C164.059 267.11 162.17 266.061 162.13 265.942C161.449 263.728 162.68 261.944 162.811 259.916C162.907 258.374 162.65 256.706 162.798 255.239C162.978 253.5 163.579 252.047 163.607 250.349C163.611 250.169 162.509 250.306 162.512 250.086C162.542 247.751 162.818 245.453 163.712 243.189C163.803 242.962 164.737 243.327 164.884 243.105C165.767 241.738 167.808 239.628 163.71 238.493C163.94 237.542 164.19 236.388 165.089 235.586C165.668 235.069 166.67 235.681 166.274 234.969C166.186 234.809 165.261 234.944 165.198 234.708C164.933 233.719 165.306 232.672 164.904 231.682C164.82 231.48 164 231.474 163.857 231.408C162.7 230.86 164.724 230.225 164.879 230.067C166.039 228.855 165.687 227.897 165.801 226.695C165.828 226.418 164.708 226.665 164.695 226.396C164.639 225.004 164.841 223.561 165.429 222.25C165.562 221.959 166.475 222.305 166.587 222.169C167.068 221.563 165.315 221.287 165.742 220.705C165.83 220.582 166.624 220.715 166.714 220.698C168.119 220.436 166.191 219.97 166.155 219.872C165.657 218.643 167.755 218.015 167.555 216.851C167.529 216.712 166.494 216.942 166.483 216.554C166.406 213.934 166.902 211.229 167.922 208.736C168.079 208.354 168.815 208.697 168.911 208.68C170.407 208.394 168.47 207.961 168.407 207.825C167.962 206.747 169.684 205.954 167.412 205.043C167.557 204.514 167.671 203.989 167.762 203.469C168.421 199.68 167.991 195.827 170.214 192.228C170.243 192.176 171.196 192.375 171.252 192.269C171.93 191.011 170.405 191.126 168.671 190.041C168.235 189.767 170.517 189.346 170.685 189.308C171.305 189.162 172.713 189.539 172.836 189.482C173.808 188.994 169.064 188.551 169.154 187.746C169.164 187.722 170.024 187.927 170.118 187.869C170.414 187.692 170.091 187.447 170.414 187.28C171.163 186.883 173.482 186.983 172.228 186.118C172.066 186.004 169.364 185.836 169.579 185.119C169.667 184.829 169.777 183.569 169.999 183.223C170.218 182.889 171.051 183.245 171.091 183.224C172.357 182.42 172.782 182.853 174.536 182.594C176.283 182.342 172.25 181.937 171.828 181.681C171.408 181.425 172.444 180.861 172.796 180.73C173.147 180.604 173.665 180.895 173.872 180.768C175.223 179.937 171.944 180.045 171.354 179.623C169.964 178.6 173.025 178.441 173.428 177.761C173.537 177.579 172.836 177.633 172.8 177.45C172.664 176.739 173.659 176.456 172.939 175.546C172.823 175.394 171.151 174.451 172.529 174.271C172.727 174.245 173.435 174.541 173.652 174.275C173.978 173.879 174.281 173.131 174.125 172.617C174.008 172.239 172.721 172.401 173.181 172.04C173.387 171.876 174.025 172.376 174.353 172.059C174.679 171.745 174.833 170.825 174.882 170.47C174.93 170.12 173.975 170.115 173.919 170.075C173.6 169.832 173.307 169.051 173.322 168.994C173.878 165.929 176.138 163.584 176.497 160.601C176.527 160.366 175.537 160.228 175.532 160.189C175.372 159.3 177.696 160.671 178.697 160.401C177.418 160.061 177.177 159.856 177.149 159.582C177.134 159.441 177.176 159.283 177.162 159.079C177.14 158.788 176.357 158.696 176.288 158.648C175.287 157.907 176.823 158.099 177.141 158.126C178.312 158.223 177.114 157.532 177.897 157.596C178.675 157.66 179.618 158.399 179.769 157.888C179.135 157.523 177.23 157.322 177.068 156.838C176.456 154.998 178.798 152.731 179.365 151.625C179.93 150.512 179.947 150.092 180.442 149.507C181.339 148.455 179.871 148.41 179.567 147.422C179.268 146.43 182.314 148.034 183.042 148.19C183.768 148.35 183.107 147.962 183.535 147.977C183.962 147.993 184.318 148.456 184.578 148.205C184.837 147.956 183.951 146.641 183.282 146.246C181.862 145.412 180.121 145.162 181.009 144.56C181.061 144.526 181.833 145.014 181.99 144.867C183.209 143.693 183.863 142.232 185.032 141.062C185.194 140.902 186.038 141.47 186.143 141.382C187.234 140.469 185.506 140.218 184.073 138.819C186.293 139.966 187.843 140.224 188.246 139.356C188.491 138.833 187.456 138.479 186.912 137.819C186.748 137.621 187.599 137.555 187.163 137.275C185.743 136.356 183.874 135.934 184.976 135.323C185.027 135.298 185.8 135.809 185.914 135.694C186.658 134.951 185.121 134.104 185.391 133.038C185.604 132.201 187.22 131.317 187.801 130.541C189.356 131.328 189.876 131.207 189.671 130.717C189.547 130.417 189.156 129.98 188.567 129.526C188.917 129.01 189.127 128.363 189.641 127.954C189.817 127.814 190.474 128.309 190.564 128.326C191.965 128.615 190.425 127.504 190.422 127.351C190.468 125.731 192.28 125.381 191.735 123.499C191.714 123.433 190.055 122.411 191.477 122.781C191.574 122.809 192.123 123.64 192.501 123.107C192.881 122.571 194.389 122.037 194.065 120.805C193.986 120.51 192.907 119.227 194.197 119.474C194.371 119.508 194.818 119.849 195.129 119.935C196.12 120.206 194.506 119.069 196.107 119.651C197.707 120.233 199.113 120.325 198.598 118.961C198.584 118.92 197.366 117.922 197.537 117.693C197.811 117.328 198.426 116.956 198.669 116.553C198.785 116.359 197.889 115.964 197.895 115.921C198.255 114.339 199.574 113.89 200.787 112.743C201.009 112.536 200.395 111.08 201.584 111.187C202.888 111.305 206.449 114.518 206.321 112.705C206.279 112.083 202.95 109.013 203.997 108.728C204.172 108.694 204.467 108.741 204.912 108.902C205.589 106.823 208.017 106.366 208.464 104.078C208.486 103.974 207.373 102.676 207.529 102.524C207.764 102.297 208.472 102.675 208.666 102.522C209.47 101.921 209.508 100.824 210.194 100.17C210.451 99.9244 210.995 100.541 211.295 100.257C211.608 99.9556 210.966 99.0563 211.733 98.9554C212.319 98.8769 214.251 99.9884 214.814 99.7289C213.193 98.3013 213.491 98.0246 213.514 97.1348C213.518 96.9632 212.86 96.5722 212.833 96.4649C212.721 96.0061 213.347 96.2394 213.192 95.78C213.155 95.6692 212.607 95.1755 212.548 95.0542C212.028 94.0045 213.728 94.6019 214.018 94.7138C215.133 95.1212 214.567 94.3215 215.128 94.3557C215.68 94.3994 215.72 95.1441 216.184 95.0349C217.141 94.8125 217.786 93.9887 218.412 93.4733C218.655 93.2678 217.841 92.6752 217.86 92.6289C218.246 91.9523 219.354 92.4298 218.653 90.5586C219.224 91.285 219.577 91.7371 219.79 91.986L219.758 92.0043C220.646 93.1902 219.138 89.9324 220.267 90.3263C220.375 90.3673 221.457 92.5094 221.343 92.9495C221.241 93.3532 220.636 92.9652 220.498 93.409L220.605 93.3488C220.597 93.3866 220.594 93.4303 220.595 93.4809C220.562 93.6494 221.56 95.6896 221.638 95.805C222.065 96.8136 219.716 94.1139 219.566 93.9812C217.936 92.5714 219.052 94.8346 219.064 95.0583C219.058 96.123 218.236 96.2492 218.177 97.1081C218.124 97.68 219.835 99.2891 219.549 99.4928C218.628 100.145 215.908 98.2774 217.32 100.972C217.625 101.544 219.698 103.069 217.643 102.359C217.514 102.313 215.705 101.583 216.358 102.615C216.441 102.746 217.01 103.231 217.018 103.317C217.056 103.898 216.449 103.693 216.377 104.219C216.307 104.743 216.303 105.407 215.783 105.633C215.479 105.76 214.159 105.168 213.801 105.064C212.776 104.759 213.748 106.112 212.663 105.555C211.575 104.995 210.503 103.441 209.467 103.481C210.95 104.737 212.452 106.05 213.935 107.324C212.937 108.425 211.548 109.134 210.671 110.354C210.566 110.503 211.495 111.016 211.404 111.193C211.006 111.949 209.978 112.038 209.659 112.908C209.625 113.002 209.603 113.108 209.59 113.223L209.859 112.866C209.841 113.553 210.19 114.544 210.059 115.155C207.995 114.23 208.041 115.497 207.466 115.988C207.264 116.163 206.781 115.816 206.518 115.861C205.536 116.041 207.352 116.86 207.504 117.188C208.159 118.588 204.409 116.196 203.97 117.069C203.944 117.118 205.596 118.926 205.675 119.077C206.192 120.053 204.932 118.706 204.602 118.897C203.997 119.248 203.284 119.314 203.485 120.3C203.544 120.593 204.533 121.799 203.345 121.549C203.189 121.516 202.538 121.079 202.476 121.092C201.407 121.369 203.498 122.672 203.978 123.487C204.461 124.298 202.65 124.014 202.156 123.886C200.877 123.556 201.837 123.364 201.74 123.284C200.592 122.321 200.549 122.888 200.24 123.163C198.135 121.981 197.977 122.532 199.93 123.452C200.144 123.551 200.105 123.176 200.24 123.163C202.101 124.669 202.067 125.322 199.821 124.784C198.767 124.534 197.868 123.67 197.775 124.72C197.734 125.194 199.26 125.873 199.468 126.425C199.944 127.679 198.048 127.897 197.835 128.799C197.76 129.124 198.708 129.284 198.685 129.52C198.625 130.147 197.781 130.276 197.816 130.957C197.821 131.019 198.722 131.351 198.649 131.516C198.194 132.574 197.355 133.293 196.709 134.254C196.587 134.436 196.472 134.627 196.367 134.831C196.051 135.448 195.979 136.792 195.576 137.392C194.88 138.433 192.975 139.25 192.839 140.37C192.747 141.096 193.68 141.346 194.151 141.882C195.066 142.915 192.598 142.931 192.222 142.921C192.209 142.921 192.245 142.28 191.668 142.378C190.66 142.141 192.22 142.914 192.222 142.921C191.979 142.913 191.303 143.931 191.377 144.223C191.418 144.382 192.277 144.669 192.282 144.744C192.399 146.532 192.007 148.084 191.018 149.431C190.991 149.451 190.068 149.038 190.015 149.089C189.251 149.8 190.182 150.814 190.591 151.794C191 152.775 190.56 153.251 188.776 153.076C188.776 153.698 187.769 154.22 187.168 154.52C186.566 154.819 188.394 155.545 188.416 155.597C189.147 157.253 187.838 157.592 187.236 158.833C186.946 159.422 186.816 160.732 186.811 161.463C186.809 161.911 186.485 162.12 186.4 162.458C186.376 162.556 186.371 162.666 186.401 162.794C186.418 162.872 187.275 163.063 187.301 163.093C188.136 163.937 186.171 163.052 185.771 163.052C184.319 163.051 183.531 163.098 183.952 163.981C184.047 164.187 186.871 165.508 186.964 165.837C187.08 166.268 186.056 165.83 186.205 166.289C186.217 166.328 186.875 166.504 186.781 166.733C186.351 167.799 185.658 168.904 185.451 170.078C185.42 170.237 186.519 170.283 186.493 170.516C186.369 171.604 186.08 172.757 185.374 173.716C185.197 173.951 184.487 173.641 184.256 173.654C182.852 173.746 184.694 174.623 184.717 174.708C185.283 176.828 183.266 178.067 183.796 180.256C183.829 180.37 185.794 181.556 183.944 181.67C183.821 181.678 181.928 181.801 183.137 182.323C183.213 182.355 184.194 182.244 184.038 182.655C183.885 183.051 184.427 183.815 183.31 184.255C182.958 184.391 181.064 184.587 182.458 185.334C182.555 185.391 185.766 186.628 183.441 186.657C183.059 186.658 180.644 186.319 181.806 187.128C182.031 187.281 182.598 187.12 182.896 187.488C183.357 188.047 182.627 188.67 183.636 189.403C183.815 189.534 185.407 190.181 184.117 190.421C183.914 190.459 183.118 190.256 183.005 190.446C182.469 191.317 182.902 192.383 182.243 193.272C182.011 193.594 180.72 193.282 180.332 193.606C179.944 193.934 179.535 194.598 180.096 195.037C180.657 195.473 182.785 195.27 182.895 195.851C183.381 198.334 181.933 200.615 181.537 203.039C181.478 203.396 182.252 203.163 182.219 203.696C182.201 204.004 182.195 204.352 182.191 204.727C182.178 206.681 182.243 209.385 180.786 210.694C179.401 211.963 178.573 210.153 177.969 211.163C177.681 211.656 180.067 212.4 180.133 212.525C180.815 213.767 179.671 214.538 179.917 215.622C179.968 215.848 180.971 215.709 181.003 215.901C181.124 216.555 180.63 217.212 180.663 217.829C180.68 218.107 181.436 218.115 181.358 218.363C181.181 218.96 180.823 219.475 180.072 220.019C180.003 220.069 179.096 219.629 179.026 220.081C178.916 220.803 178.152 221.652 178.807 222.552C179.004 222.818 180.723 222.963 179.495 223.404C179.239 223.498 177.184 223.199 178.922 223.955C179.211 224.082 181.54 225.31 179.949 225.712C179.531 225.82 177.815 226.04 178.058 226.358C178.098 226.401 179.034 226.308 179.105 226.562C179.343 227.455 179.176 228.375 179.4 229.293C179.461 229.538 180.444 229.251 180.505 229.614C180.675 230.612 180.342 231.834 179.974 232.77C179.836 233.116 179.061 232.814 178.973 232.834C177.541 233.148 179.416 233.53 179.517 233.676C180.116 234.583 179.18 235.173 179.36 235.98C179.407 236.202 180.32 236.112 180.398 236.161C181.152 236.667 179.555 236.216 179.356 236.489C178.793 237.253 178.803 238.15 178.862 238.966C178.884 239.266 179.954 239.005 179.963 239.274C180.032 240.865 179.818 242.496 179.135 243.996C179.004 244.279 178.211 244.041 178.023 244.088C176.706 244.416 178.421 245.148 178.579 245.3C179.299 245.991 178.569 246.19 178.663 246.763C179.137 249.565 178.435 252.935 177.97 255.517C177.368 258.885 176.428 261.469 176.416 264.712C176.414 264.92 177.5 264.781 177.513 264.961C177.621 267.275 177.057 269.483 177.219 271.81C177.23 271.999 178.264 271.794 178.317 272.1C178.432 272.725 178.326 273.506 177.961 274.116C177.785 274.413 176.939 273.946 176.78 274.245C176.407 274.944 176.286 275.69 176.401 276.449C176.453 276.768 177.523 276.36 177.509 276.769C177.436 279.543 177.443 282.275 175.919 284.999C175.815 285.185 173.691 285.213 174.071 285.647C174.655 285.716 175.345 285.757 175.972 285.81C176.015 287.95 175.765 290.059 175.466 292.14C175.193 294.062 174.881 295.952 174.708 297.865C174.693 298.039 175.832 297.808 175.808 298.144C175.673 300.051 175.868 301.923 174.634 303.816C174.513 304.005 172.549 303.789 172.812 304.372C172.861 304.461 173.07 305.366 173.484 305.602C173.547 305.635 174.476 305.539 174.486 305.81C174.528 307.427 174.214 309.112 173.557 310.681C173.449 310.936 172.486 310.601 172.4 310.781C171.803 312.048 172.463 313.517 171.507 314.698C170.864 315.484 169.187 315.091 167.497 315.444C167.258 315.49 167.197 316.001 166.225 315.983C163.782 315.941 161.122 315.562 158.516 315.547C157.955 315.545 158.526 316.278 157.191 315.8C157.102 315.771 156.677 315.223 156.224 315.07C155.911 314.962 154.916 315.08 154.519 314.872C154.122 314.664 154.96 314.502 154.499 314.17C154.031 313.847 152.902 313.913 152.802 313.303ZM184.477 155.893C183.436 156.014 186.683 157.203 186.06 156.474C186.026 156.438 184.528 155.886 184.477 155.893ZM209.524 107.493C207.966 106.993 209.439 108.735 210.625 109.143C211.806 109.555 209.996 107.646 209.524 107.493ZM212.639 101.978C211.263 101.747 214.947 104.981 214.672 103.769C214.657 103.7 212.719 101.992 212.639 101.978ZM167.133 313.37C167.087 313.367 167.021 313.748 167.066 313.755C168.151 314.015 168.282 313.275 167.133 313.37ZM215.771 96.5344C215.129 96.2541 215.281 97.2287 216.073 97.5816C216.699 97.8769 216.564 96.8887 215.771 96.5344ZM175.098 178C175.046 177.999 174.959 178.259 175.248 178.298C176.178 178.421 175.973 178.014 175.098 178ZM223.837 90.735C222.326 91.2163 219.807 87.9078 221.543 87.6277C221.858 87.5766 221.471 89.0765 221.976 89.2491C222.905 89.5598 222.289 87.0481 223.519 87.985C223.743 88.1572 223.927 90.7162 223.837 90.7413C223.837 90.7392 223.837 90.7371 223.837 90.735ZM180.468 154.783C180.421 154.777 180.259 155.115 180.299 155.138C181.272 155.684 181.598 155.008 180.468 154.783ZM171.051 193.321C170.952 193.329 170.775 194.18 170.861 194.219C172.602 194.845 172.965 193.13 171.051 193.321ZM187.875 130.56C187.461 130.117 187.288 129.768 187.408 129.579C187.521 129.401 187.893 129.365 188.565 129.527C188.45 129.679 188.346 129.839 188.244 130C188.125 130.188 188.007 130.378 187.875 130.56Z" fill="var(--stroke-0, #467603)"/>
<path id="Vector 26" d="M124.837 349.051C124.363 346.826 124.509 344.064 124.824 341.977C124.921 341.315 125.544 341.669 125.639 341.221C125.824 340.336 125.484 339.518 125.718 338.649C125.798 338.366 126.773 338.748 126.835 338.451C127.172 336.81 126.853 335.241 126.978 333.577C127.011 333.145 127.042 332.719 127.072 332.28C127.59 324.904 127.304 317.159 127.24 309.31C127.212 306.566 127.889 303.245 127.381 300.379C127.32 300.044 126.49 300.214 126.418 300.148C125.315 299.113 127.024 299.503 127.222 298.863C127.361 298.412 127.474 297.944 127.566 297.478C127.988 295.312 127.928 293.021 127.625 290.964C127.466 289.895 125.815 290.847 126.735 289.843C126.797 289.774 127.693 290.102 127.784 289.819C127.988 289.173 127.817 287.92 127.885 287.412C128.021 286.444 128.012 286.28 128.024 285.351C128.049 284.081 128.508 282.615 128.333 281.235C128.293 280.94 127.371 281.231 127.225 280.748C127.079 280.265 127.189 279.041 127.419 278.649C127.647 278.259 128.36 278.52 128.527 278.466C129.935 278.029 128.066 276.384 128.028 276.191C127.361 272.748 128.647 270.049 128.901 266.964C128.911 266.842 128.92 266.72 128.929 266.597C129.082 264.35 128.995 261.931 129.276 259.834C129.632 257.199 130.401 255.073 130.664 252.505C130.693 252.233 129.584 252.31 129.618 251.977C129.977 248.445 130.632 244.991 131.968 241.711C132.103 241.383 132.951 242.081 133.142 241.767C133.342 241.433 133.583 241.068 133.824 240.69C134.962 238.877 136.125 236.673 133.02 234.663C133.472 233.304 133.988 231.677 135.051 230.68C135.735 230.037 136.586 231.105 136.354 229.998C136.303 229.75 135.362 229.781 135.351 229.428C135.307 227.943 135.886 226.495 135.68 224.995C135.636 224.689 134.829 224.55 134.7 224.432C133.664 223.453 135.774 222.859 135.957 222.642C137.318 221.063 137.137 219.588 137.442 217.851C137.514 217.443 136.367 217.662 136.398 217.259C136.43 216.862 136.472 216.459 136.526 216.046C136.742 214.398 137.128 212.767 137.745 211.263C137.92 210.841 138.772 211.467 138.902 211.276C139.461 210.453 137.769 209.823 138.269 209.028C138.372 208.857 139.139 209.144 139.23 209.13C140.656 208.902 138.813 207.986 138.789 207.842C138.462 205.949 140.612 205.292 140.562 203.519C140.553 203.309 139.501 203.544 139.537 202.966C139.779 199.095 140.566 195.132 141.817 191.511C142.01 190.949 142.705 191.523 142.801 191.506C144.311 191.2 142.433 190.408 142.383 190.201C142.041 188.585 143.82 187.492 141.643 186.001C143.17 179.742 142.531 173.124 145.135 167.094C145.166 167.017 146.105 167.325 146.162 167.17C146.861 165.303 145.349 165.43 143.643 163.839C143.303 163.522 144.66 163.061 145.316 162.852C145.486 162.798 145.609 162.761 145.643 162.748C146.258 162.522 147.649 163.085 147.771 162.995C148.736 162.246 144.04 161.644 144.125 160.454C144.135 160.418 144.987 160.711 145.08 160.624C145.371 160.354 145.05 159.992 145.368 159.735C146.103 159.151 148.399 159.237 147.143 157.972C146.979 157.811 144.307 157.618 144.499 156.573C144.579 156.158 144.643 154.274 144.843 153.774C145.044 153.271 145.882 153.751 145.921 153.719C147.13 152.452 147.571 153.06 149.287 152.566C150.995 152.068 146.995 151.738 146.563 151.389C146.133 151.042 147.115 150.118 147.451 149.902C147.788 149.686 148.32 150.076 148.513 149.87C149.779 148.5 146.559 148.957 145.945 148.381C144.488 147.032 147.479 146.471 147.8 145.419C147.887 145.135 147.205 145.299 147.149 145.032C146.935 143.981 147.874 143.455 147.047 142.199C146.913 141.99 145.146 140.88 146.46 140.392C146.649 140.323 147.385 140.639 147.555 140.215C147.81 139.584 147.978 138.41 147.731 137.685C147.549 137.148 146.332 137.645 146.71 137.022C146.878 136.744 147.591 137.342 147.847 136.815C148.104 136.291 148.063 134.89 148.031 134.358C147.999 133.825 147.08 134.052 147.017 134.005C146.658 133.721 146.197 132.682 146.196 132.593C145.999 128.093 147.364 123.97 146.537 119.544C146.473 119.197 145.519 119.421 145.499 119.368C145.006 118.186 147.655 119.13 148.456 118.301C146.496 118.416 146.816 117.928 146.533 117.092C146.394 116.69 145.65 116.913 145.569 116.876C144.363 116.289 145.822 115.866 146.118 115.755C147.208 115.348 145.841 114.934 146.568 114.655C147.289 114.375 148.452 114.983 148.364 114.175C147.639 113.96 145.855 114.584 145.5 113.981C144.976 113.094 144.811 111.902 144.793 110.661C144.767 108.735 145.093 106.687 145.042 105.559C144.96 103.711 144.749 103.124 144.857 102.035C145.047 100.068 143.788 100.864 142.997 99.7098C142.204 98.5536 145.622 98.897 146.314 98.6723C147.006 98.4489 146.241 98.3152 146.603 98.0733C146.966 97.8314 147.521 98.2563 147.595 97.7444C147.669 97.2317 146.187 95.9585 145.412 95.8454C143.768 95.5998 142.199 96.3456 142.58 94.9878C142.603 94.9095 143.516 95.0812 143.56 94.785C143.874 92.4296 143.52 90.0366 143.716 87.6757C143.744 87.3499 144.764 87.5347 144.791 87.3438C145.077 85.363 143.559 86.2098 141.556 85.3613C144.016 85.3386 145.393 84.5926 145.142 83.1346C144.99 82.2507 143.963 82.5225 143.115 82.0438C142.861 81.9037 143.468 81.1941 142.952 81.1411C141.261 80.96 139.558 81.7574 139.998 80.178C140.02 80.1084 140.947 80.2116 140.957 79.9785C141.031 78.4759 139.304 78.507 138.791 76.9542C138.389 75.7378 138.982 73.4071 138.86 71.9736C141.571 71.6409 140.676 70.3787 138.702 70.1062C138.586 69.171 138.277 68.2155 138.345 67.2842C138.368 66.9689 139.192 67.0551 139.269 67.0048C140.47 66.2336 138.571 66.0822 138.459 65.903C138.248 65.5295 138.105 65.1423 138.011 64.7829C137.581 63.1434 137.969 61.5735 136.498 60.114C136.434 60.0552 134.541 60.2474 135.777 59.4922C135.861 59.4375 136.869 59.9513 136.707 58.9985C136.55 58.0657 137.074 56.0585 135.809 55.0527C135.5 54.7891 133.811 54.5841 134.697 53.6375C134.816 53.5057 135.354 53.3999 135.586 53.1812C136.308 52.4562 134.48 52.9955 135.743 51.9247C137.008 50.851 137.53 49.2467 135.835 48.5585C135.781 48.5313 134.317 48.99 134.113 48.6078C133.993 48.3815 133.888 48.1153 133.774 47.8211C133.584 47.3175 133.381 46.7534 133.13 46.3644C132.938 46.0662 132.266 46.7409 132.219 46.6975C130.531 44.9809 130.328 43.1336 129.253 40.8168C129.059 40.3928 127.268 39.9606 127.615 38.6702C127.991 37.2517 132.372 35.6281 130.2 34.3096C129.324 33.7732 123.865 35.9866 125.442 32.9732C123.327 31.0025 122.763 28.2048 120.793 26.1848C120.527 25.9121 120.243 25.6623 119.922 25.4229C119.8 25.3313 118.222 25.8907 118.045 25.6037C117.787 25.1795 118.237 24.5142 118.071 24.1967C117.38 22.8427 116.052 22.1119 115.278 20.8945C114.979 20.4286 115.722 20.1233 115.363 19.5673C115.006 19.016 113.926 19.2837 113.787 18.2774C113.684 17.5158 114.938 15.7028 114.581 14.8366C112.927 16.0777 112.591 15.5676 111.493 15.0478C111.282 14.9486 110.856 15.5723 110.727 15.5487C110.192 15.4658 110.43 14.8038 109.878 14.7559C109.745 14.7443 109.192 15.1831 109.053 15.1993C107.85 15.3525 108.428 13.5327 108.525 13.2132C108.9 12.0041 107.986 12.3347 107.967 11.6574C107.946 10.9881 108.821 11.2564 108.654 10.6489C108.651 10.6396 108.648 10.6302 108.645 10.6206C108.217 9.27728 107.055 8.06358 106.193 7.03789C105.846 6.63225 105.393 7.54408 105.327 7.50076C104.443 6.85993 104.377 5.33203 102.656 6.26842C104.749 3.27413 103.296 4.61744 102.259 4.84564C101.889 4.92346 101.569 4.86068 101.444 4.40036C101.411 4.26418 102.766 2.38003 103.357 2.46474C103.615 2.50185 103.775 2.72785 103.939 2.97334C104.148 3.28844 104.369 3.64122 104.846 3.70091C105.039 3.71613 107.218 2.86874 107.409 2.88447C108.866 2.94709 106.464 5.42044 106.362 5.58594C105.269 7.40766 107.692 6.65947 108.011 6.78694C109.351 7.2875 109.747 8.37101 110.705 8.9291C110.765 8.96393 110.828 8.99707 110.894 9.02823C111.611 9.37178 113.387 7.99537 113.696 8.48785C114.731 10.1372 112.681 12.5998 115.913 12.3269C116.603 12.2719 118.305 10.4558 117.629 12.7428C117.586 12.8869 116.811 14.78 118.053 14.5703C118.21 14.5446 118.777 14.1078 118.884 14.1493C119.591 14.4403 119.401 15.1354 120.048 15.5464C120.695 15.9561 121.537 16.4091 121.826 17.2147C122.003 17.7009 121.299 18.9975 121.172 19.3788C120.8 20.4657 122.466 20.1414 121.779 21.137C121.089 22.1377 119.212 22.5016 119.232 23.8C120.768 22.7523 122.375 21.7191 123.935 20.6874C124.441 21.4402 124.878 22.2351 125.303 23.0371C125.994 24.3425 126.65 25.6637 127.524 26.8504C127.7 27.0865 128.357 26.277 128.568 26.5164C129.453 27.531 129.515 28.8913 130.521 29.8794C131.303 30.6422 132.838 31.0358 133.681 31.8245C132.28 33.5585 133.796 34.5445 134.292 35.6585C134.467 36.0497 133.973 36.3326 133.981 36.6827C134.021 38.0001 135.315 36.5437 135.734 36.6444C137.526 37.0876 133.997 39.4653 134.929 40.7222C134.975 40.7872 137.448 40.4442 137.645 40.4921C138.907 40.7597 137.053 41.0326 137.211 41.5947C137.498 42.6206 137.413 43.5023 138.617 44.1846C138.763 44.2663 139.134 44.3192 139.473 44.4238C139.964 44.586 140.403 44.8751 140.067 45.5645C139.992 45.7188 139.316 46.0493 139.317 46.1367C139.384 47.6844 141.468 46.5899 142.622 47.0285C143.791 47.4889 142.99 49.6 142.656 50.0281C141.839 51.1918 141.933 49.6788 141.799 49.6892C140.29 49.8228 140.958 50.642 141.137 51.3985C139.007 52.3074 139.483 53.1528 141.32 52.1704C141.521 52.0586 141.097 51.5747 141.137 51.3985C143.532 51.2181 144.319 52.4851 142.597 54.1702C141.784 54.9517 140.515 54.7327 141.364 56.1843C141.742 56.8472 143.249 56.2569 143.844 56.805C145.202 58.0765 144.124 60.118 144.665 61.4705C144.863 61.97 145.627 61.335 145.794 61.6753C146.108 62.3048 145.948 62.9489 146.033 63.5954C146.065 63.8386 146.134 64.0845 146.285 64.3329C146.335 64.4128 147.207 64.0711 147.281 64.3605C147.851 66.5053 147.664 68.4952 148.11 70.7598C148.327 71.8565 149.231 73.7638 149.351 74.9087C149.57 76.909 148.693 79.4978 149.33 81.1462C149.741 82.2171 150.62 81.8747 151.335 82.2787C152.722 83.0553 150.827 84.9157 150.526 85.1666C150.516 85.1734 150.129 84.2493 149.745 84.8053C148.809 85.2041 150.52 85.1562 150.526 85.1666C150.334 85.3358 150.455 87.2517 150.696 87.6102C150.827 87.8048 151.684 87.6029 151.736 87.7063C152.956 90.1713 153.599 92.721 153.585 95.3498C153.574 95.3968 152.58 95.4069 152.567 95.5162C152.358 97.0481 153.703 97.9174 154.597 99.1132C155.49 100.309 155.386 101.321 153.792 102.158C154.131 103.084 153.556 104.474 153.197 105.269C152.839 106.063 154.774 106.082 154.821 106.149C155.956 107.751 155.647 108.891 155.472 110.339C155.419 110.774 155.378 111.237 155.39 111.75C155.414 112.81 155.891 114.901 156.198 116.049C156.445 116.956 156.036 117.504 156.39 118.339C156.437 118.453 157.289 118.34 157.324 118.375C158.424 119.316 156.287 118.857 155.925 119.048C154.61 119.739 153.913 120.153 154.633 121.347C154.798 121.62 157.88 122.474 158.087 122.987C158.35 123.649 157.249 123.376 157.55 124.069C157.574 124.128 158.245 124.133 158.237 124.557C158.213 126.526 157.909 128.655 158.034 130.699C158.049 130.978 159.104 130.676 159.142 131.082C159.321 132.987 159.314 135.069 158.825 136.871C158.702 137.315 157.954 136.972 157.733 137.053C156.396 137.547 158.343 138.555 158.38 138.701C159.309 142.147 157.501 144.538 158.233 148.021C158.277 148.21 160.314 149.888 158.499 150.305C158.378 150.337 156.524 150.73 157.751 151.441C157.828 151.486 158.787 151.214 158.661 151.885C158.536 152.556 159.113 153.737 158.03 154.53C157.689 154.78 155.828 155.227 157.233 156.305C157.332 156.371 160.541 158.212 158.242 158.364C157.864 158.389 155.47 157.951 156.634 159.181C156.86 159.416 157.418 159.134 157.719 159.709C158.182 160.593 157.467 161.563 158.464 162.722C158.641 162.926 160.215 163.92 158.935 164.313C158.735 164.375 157.948 164.07 157.835 164.368C157.773 164.529 157.724 164.693 157.683 164.86C157.374 166.143 157.628 167.569 157.026 168.81C156.786 169.304 155.516 168.813 155.123 169.303C154.729 169.795 154.3 170.838 154.839 171.517C155.378 172.196 157.494 171.932 157.581 172.823C157.955 176.706 156.375 180.191 155.799 183.873C155.713 184.42 156.498 184.106 156.424 184.922C156.157 187.93 156.243 193.246 154.361 195.51C152.857 197.315 152.226 194.514 151.522 195.986C151.185 196.701 153.468 198.025 153.52 198.23C154.055 200.196 152.837 201.22 152.949 202.91C152.972 203.258 153.981 203.143 153.99 203.437C154.029 204.455 153.461 205.379 153.414 206.326C153.395 206.748 154.143 206.837 154.033 207.211C153.78 208.103 153.357 208.85 152.542 209.582C152.467 209.649 151.627 208.894 151.498 209.56C151.29 210.657 150.417 211.847 150.935 213.282C151.091 213.708 152.775 214.103 151.492 214.649C151.224 214.761 149.235 214.073 150.842 215.415C151.109 215.646 153.224 217.793 151.588 218.202C151.159 218.3 149.423 218.441 149.613 218.947C149.645 219.018 150.586 218.996 150.616 219.387C150.619 219.426 150.621 219.464 150.623 219.502C150.685 220.863 150.385 222.188 150.439 223.581C150.456 223.965 151.479 223.662 151.473 224.224C151.46 225.776 150.894 227.597 150.334 228.982C150.127 229.487 149.425 228.907 149.334 228.924C147.853 229.189 149.625 230.054 149.691 230.301C150.087 231.786 149.029 232.537 149.018 233.794C149.012 234.141 149.934 234.162 149.999 234.251C150.622 235.157 149.155 234.191 148.895 234.568C148.159 235.631 147.952 236.972 147.816 238.182C147.768 238.626 148.882 238.444 148.827 238.839C148.567 240.823 148.128 242.708 147.428 244.441C147.302 244.751 147.165 245.066 147.02 245.369C146.839 245.746 146.101 245.28 145.907 245.317C144.548 245.564 146.108 246.886 146.238 247.12C146.829 248.213 146.077 248.382 146.076 249.215C146.085 253.273 144.961 258.034 144.25 261.722C143.741 264.361 143.188 266.658 142.773 268.972C142.433 270.868 142.186 272.772 142.153 274.881C142.147 275.178 143.223 275.031 143.232 275.288C143.301 278.594 142.784 281.773 143.059 285.115C143.08 285.389 144.088 285.091 144.156 285.53C144.301 286.436 144.245 287.556 143.929 288.438C143.777 288.868 142.911 288.207 142.776 288.644C142.458 289.66 142.4 290.777 142.581 291.865C142.66 292.325 143.675 291.704 143.698 292.295C143.785 294.264 143.91 296.216 143.887 298.186C143.862 300.245 143.677 302.334 143.108 304.458C143.032 304.742 140.96 304.941 141.394 305.561C141.975 305.621 142.656 305.635 143.276 305.669C143.946 311.695 143.654 317.702 143.959 323.883C143.972 324.144 145.046 323.706 145.077 324.211C145.25 327.068 145.729 329.874 144.862 332.902C144.84 332.971 144.819 333.04 144.796 333.109C144.702 333.398 142.75 333.185 143.084 334.049C143.144 334.21 143.465 335.508 143.903 335.859C143.969 335.906 144.866 335.701 144.912 336.115C145.167 338.543 145.092 341.065 144.68 343.449C144.611 343.829 143.621 343.403 143.564 343.674C143.168 345.621 144.041 347.758 143.314 349.544C142.828 350.73 141.124 350.309 139.548 350.979C139.324 351.078 139.369 351.775 138.427 351.852C136.06 352.136 133.389 351.865 130.869 352.195C130.601 352.243 130.645 352.556 130.658 353.083C130.668 353.24 130.661 353.343 130.678 353.572C130.687 353.77 130.696 353.974 130.647 354.045C130.562 354.245 130.119 353.512 129.727 353.151C129.569 352.849 128.992 351.793 128.523 351.607C128.193 351.452 127.258 351.785 126.822 351.456C126.388 351.138 127.166 350.77 126.652 350.283C126.135 349.804 125.046 350.016 124.837 349.051ZM151.576 108.831C150.731 109.575 154.13 109.566 153.233 108.817C153.185 108.781 151.617 108.792 151.576 108.831ZM124.045 26.3408C123.384 27.9489 125.523 27.2749 126.071 26.0841C126.616 24.8923 124.243 25.8504 124.045 26.3408ZM117.429 18.9206C117.164 20.4977 121.044 17.859 119.566 17.4519C119.481 17.427 117.444 18.8283 117.429 18.9206ZM138.823 347.942C138.778 347.95 138.776 348.51 138.822 348.523C139.924 348.821 139.928 347.711 138.823 347.942ZM110.55 11.8801C110.274 12.5492 111.464 12.8691 111.809 12.0346C112.087 11.364 110.889 11.0405 110.55 11.8801ZM149.464 145.576C149.413 145.581 149.356 145.982 149.643 146.006C150.569 146.083 150.324 145.487 149.464 145.576ZM98.6752 0.00854694C100.727 1.62277 99.4185 5.6223 97.7773 3.82526C97.4562 3.49395 99.234 3.34453 98.9665 2.71252C98.4192 1.51986 96.5871 3.25578 96.3202 1.5189C96.2604 1.19152 98.5544 -0.100659 98.6816 0.00626766C98.6794 0.0070269 98.6773 0.00778722 98.6752 0.00854694ZM147.553 109.384C147.51 109.4 147.53 109.964 147.575 109.976C148.685 110.247 148.646 109.105 147.553 109.384ZM145.936 168.735C145.838 168.748 145.635 170.016 145.719 170.074C147.421 171.057 147.839 168.485 145.936 168.735ZM138.928 71.9417C137.741 71.4886 137.463 70.7697 138.701 70.1092C138.753 70.7125 138.871 71.3357 138.928 71.9417Z" fill="var(--stroke-0, #467603)"/>
<path id="Vector 28" d="M94.4918 342.606C93.7522 341.355 93.456 339.468 93.4251 337.991C93.4141 337.529 94.0664 337.547 94.0822 337.211C94.1195 336.575 93.6515 336.127 93.7337 335.482C93.7621 335.262 94.7611 335.188 94.7695 334.964C94.8193 333.768 94.2338 332.803 94.0707 331.672C93.8198 329.969 93.5169 328.296 93.1714 326.618C92.3844 322.765 91.3873 318.949 90.4104 315.052C89.9508 313.22 90.0594 310.762 89.0797 309.036C88.9639 308.832 88.1987 309.231 88.1184 309.211C86.8826 308.9 88.5877 308.579 88.6652 308.087C88.9669 306.134 88.4238 304.243 87.5845 302.748C87.2234 302.108 85.8435 303.325 86.5174 302.336C86.5624 302.268 87.479 302.16 87.5084 301.941C87.572 301.441 87.1557 300.693 87.115 300.34C87.0415 299.659 86.9982 299.557 86.8092 298.948C86.5622 298.125 86.668 297.004 86.1841 296.184C86.0787 296.01 85.2786 296.547 85.0308 296.297C84.7832 296.047 84.5982 295.226 84.7182 294.889C84.8383 294.552 85.5685 294.441 85.7118 294.341C86.9235 293.51 84.7692 293.2 84.6844 293.096C83.197 291.183 83.6573 288.992 83.0008 286.963C82.5 285.422 81.6217 283.884 81.2018 282.402C80.7041 280.631 80.7131 278.998 80.094 277.322C80.0297 277.144 79.0563 277.683 78.9757 277.467C78.1199 275.174 77.5078 272.817 77.4916 270.274C77.4907 270.018 78.4983 270.036 78.5522 269.764C78.8621 268.105 79.9783 265.298 75.7349 265.668C75.5933 264.645 75.401 263.43 75.9423 262.314C76.2913 261.598 77.4533 261.841 76.8208 261.283C76.6794 261.157 75.8652 261.621 75.7193 261.411C75.1072 260.536 75.0693 259.37 74.3312 258.54C74.1789 258.372 73.4103 258.658 73.2525 258.644C71.9702 258.517 73.6282 257.165 73.7163 256.956C74.3618 255.362 73.6781 254.52 73.3552 253.309C73.2808 253.028 72.3202 253.663 72.2107 253.403C71.8883 252.613 71.6435 251.784 71.5124 250.945C71.4118 250.312 71.3729 249.674 71.4087 249.036C71.4302 248.701 72.4102 248.729 72.4667 248.556C72.7063 247.803 70.9592 248.121 71.155 247.398C71.1941 247.247 71.9868 247.106 72.065 247.059C73.293 246.316 71.3174 246.517 71.2493 246.433C70.343 245.368 72.1055 244.063 71.5074 242.958C71.4339 242.826 70.5407 243.409 70.3939 243.022C69.4137 240.46 68.9519 237.59 69.0768 234.775C69.0944 234.335 69.9067 234.441 69.9913 234.392C71.3084 233.615 69.3348 233.828 69.2297 233.713C68.4506 232.799 69.8091 231.424 67.3603 231.271C67.0611 226.646 64.7487 222.487 65.821 217.617C65.8324 217.556 66.7999 217.446 66.8187 217.326C67.0511 215.855 65.6409 216.448 63.6466 215.943C63.145 215.813 65.1678 214.658 65.3143 214.565C65.8535 214.219 67.3104 214.14 67.4081 214.042C68.1688 213.242 63.5323 214.342 63.3536 213.521C63.3559 213.494 64.2362 213.417 64.3067 213.329C64.5283 213.059 64.142 212.92 64.3913 212.644C64.9698 212.011 67.198 211.362 65.7231 210.908C65.5322 210.852 62.9195 211.557 62.8873 210.796C62.8781 210.499 62.5542 209.202 62.6492 208.807C62.7424 208.405 63.6476 208.475 63.6789 208.441C64.5962 207.221 65.1425 207.494 66.7061 206.652C68.2617 205.803 64.3294 206.786 63.8445 206.68C63.3607 206.573 64.1383 205.666 64.4226 205.417C64.7079 205.171 65.2962 205.275 65.4454 205.079C66.4178 203.787 63.3821 205.047 62.6808 204.843C61.0185 204.354 63.8212 203.102 63.9478 202.301C63.9823 202.087 63.3491 202.394 63.2482 202.232C62.855 201.579 63.6795 200.964 62.6617 200.35C62.4959 200.249 60.5907 200.008 61.7888 199.301C61.9618 199.2 62.7297 199.2 62.8256 198.866C62.9428 198.471 62.9464 197.839 62.7605 197.4C62.7144 197.29 62.6571 197.191 62.5871 197.108C62.3236 196.799 61.2186 197.485 61.487 196.957C61.6069 196.722 62.3953 196.917 62.5618 196.489C62.7282 196.059 62.4697 195.131 62.3552 194.775C62.2419 194.424 61.3824 194.846 61.3141 194.832C60.9212 194.747 60.3125 194.178 60.2982 194.118C59.4239 191.145 60.1642 187.938 58.756 185.191C58.6462 184.974 57.753 185.423 57.7266 185.393C57.0878 184.745 59.7827 184.563 60.4444 183.749C58.563 184.44 58.8049 184.003 58.4184 183.528C58.2294 183.297 57.5403 183.684 57.4569 183.684C56.2113 183.666 57.5661 182.923 57.8367 182.751C58.8343 182.126 57.4602 182.285 58.1233 181.86C58.7811 181.437 59.9865 181.481 59.7908 180.956C59.0628 181.044 57.4247 182.039 57.0025 181.746C55.4167 180.647 55.7755 177.425 55.434 176.187C55.1027 174.957 54.8219 174.636 54.7732 173.856C54.703 172.781 54.0522 173.104 53.3476 173.101C53.1275 173.1 52.9019 173.068 52.6863 172.954C51.7792 172.481 55.0558 171.435 55.6783 171.026C56.2989 170.615 55.5556 170.807 55.8615 170.505C56.1666 170.201 56.7563 170.288 56.7469 169.904C56.7377 169.517 55.1411 169.201 54.398 169.434C52.8205 169.914 51.4662 171.03 51.6186 169.982C51.628 169.92 52.5067 169.668 52.5011 169.453C52.4252 167.748 51.6832 166.294 51.3974 164.628C51.3586 164.397 52.3166 164.049 52.3027 163.908C52.1477 162.425 50.9554 163.712 48.9981 164.121C51.1855 162.917 52.261 161.752 51.6919 160.872C51.3514 160.349 50.5088 161.048 49.6547 161.161C49.399 161.197 49.765 160.416 49.3008 160.647C47.7869 161.408 46.4902 162.81 46.5164 161.572C46.5191 161.516 47.3427 161.09 47.2974 160.933C47.0006 159.917 45.5297 160.874 44.7225 160.182C44.0936 159.644 43.9872 157.833 43.4875 156.993C45.6282 155.181 44.5218 154.887 42.835 155.901C42.4788 155.382 41.9428 154.957 41.7296 154.335C41.6542 154.121 42.3411 153.667 42.3874 153.589C43.1119 152.348 41.551 153.435 41.4064 153.389C39.8808 152.823 40.0418 150.96 38.0583 150.963C37.9859 150.962 36.5687 152.299 37.2963 151.022C37.3466 150.934 38.2985 150.625 37.872 150.114C37.4418 149.599 37.2573 147.978 35.959 147.999C35.6421 148 34.1633 148.782 34.6657 147.565C34.7347 147.4 35.1629 147.035 35.3088 146.747C35.3885 146.588 35.411 146.496 35.3984 146.446L35.4344 146.477C35.3658 146.242 34.5421 146.999 35.2106 145.756C36.0152 144.252 36.2654 142.835 34.8057 143.133C34.7621 143.141 33.5977 144.204 33.3883 144.002C33.049 143.674 32.7304 142.999 32.3383 142.696C32.1494 142.551 31.6612 143.402 31.6179 143.39C30.0415 142.82 29.6994 141.444 28.5942 140.094C28.3931 139.845 26.8706 140.327 27.0427 139.135C27.2262 137.826 30.6971 134.504 28.7914 134.451C28.0225 134.425 23.7014 138.706 24.7477 135.56C22.5785 134.856 21.9858 132.377 19.6042 131.941C19.4973 131.921 18.2286 133.069 18.0632 132.913C17.8207 132.68 18.1496 131.941 17.9905 131.753C17.3363 130.952 16.188 130.921 15.4822 130.249C15.21 129.993 15.8069 129.425 15.4851 129.122C15.1678 128.823 14.2734 129.488 14.1196 128.719C13.9944 128.127 14.976 126.121 14.6477 125.549C13.3176 127.252 13.0226 126.971 12.0922 126.978C11.9142 126.981 11.577 127.67 11.4692 127.702C11.0237 127.85 11.1968 127.198 10.7376 127.378C10.6266 127.421 10.1767 128.005 10.0608 128.074C9.06244 128.678 9.49343 126.92 9.57435 126.618C9.85669 125.453 9.11658 126.095 9.08143 125.525C9.05592 124.961 9.81327 124.86 9.63768 124.396C9.59486 124.282 9.54443 124.174 9.48801 124.072C9.04801 123.296 8.23112 122.782 7.63028 122.283C7.35934 122.063 6.94771 122.989 6.89497 122.975C6.16106 122.726 6.21538 121.445 4.69699 122.75C7.40065 118.427 4.05232 122.874 3.84078 121.419C3.82654 121.303 5.22533 119.352 5.69209 119.271C6.14759 119.181 6.07315 120.073 6.74699 119.901C6.91358 119.868 8.74925 118.446 8.89764 118.389C10.0433 117.929 7.92746 120.823 7.83367 120.999C6.84663 122.921 8.89443 121.44 9.14377 121.421C10.0628 121.365 10.4195 121.87 10.9922 122.104C11.1408 122.163 11.3053 122.202 11.5001 122.204C12.1029 122.22 13.555 120.375 13.8126 120.662C14.6588 121.606 13.0288 124.482 15.6834 122.936C16.2543 122.61 17.6094 120.416 17.1052 122.569C17.076 122.707 16.4861 124.579 17.5068 123.89C17.6353 123.802 18.088 123.207 18.1778 123.197C18.7678 123.136 18.6323 123.782 19.1834 123.844C19.7258 123.9 20.4415 123.912 20.7108 124.437C20.8765 124.755 20.3613 126.116 20.2755 126.48C20.0242 127.525 21.3807 126.535 20.8699 127.643C20.3588 128.758 18.829 129.874 18.9276 130.923C20.1317 129.398 21.3946 127.854 22.6186 126.33C23.8269 127.344 24.6723 128.788 25.9766 129.687C26.1398 129.798 26.6199 128.848 26.811 128.945C27.6149 129.357 27.7726 130.421 28.6825 130.753C29.3891 131.007 30.6875 130.616 31.4492 130.858C30.441 132.891 31.7789 132.98 32.2877 133.639C32.4671 133.87 32.0848 134.324 32.1227 134.601C32.2728 135.631 33.211 133.869 33.5665 133.756C35.0885 133.277 32.3894 136.811 33.2775 137.377C33.3207 137.405 35.3358 135.98 35.5008 135.923C36.5679 135.543 35.0629 136.629 35.2453 136.999C35.5829 137.679 35.596 138.415 36.6561 138.378C36.9639 138.362 38.3409 137.576 37.9701 138.747C37.9229 138.902 37.4023 139.488 37.4112 139.555C37.6096 140.703 39.1782 138.806 40.103 138.487C41.0196 138.16 40.5503 139.979 40.3527 140.452C40.3142 140.548 40.2781 140.631 40.2442 140.701C40.2912 140.748 40.4492 140.871 40.4938 140.92C40.3494 141.189 40.2465 141.275 40.1704 141.271C40.129 141.225 39.9824 141.112 39.9388 141.068C39.7868 141.07 39.7272 140.698 39.6671 140.748C38.7942 141.487 38.9335 141.76 39.1553 142.009C39.1901 142.044 39.3072 142.134 39.3403 142.171C39.4084 142.255 39.4853 142.337 39.5414 142.43C37.9495 144.245 38.4851 144.545 39.7896 142.823C39.9313 142.634 39.5309 142.57 39.5414 142.43C41.43 140.95 42.1359 141.192 41.1593 143.313C40.6992 144.306 39.6251 144.952 40.6896 145.355C41.1691 145.538 42.1876 144.211 42.8045 144.176C44.2303 144.114 44.0392 146.101 44.9206 146.645C45.2396 146.842 45.6374 145.95 45.8785 146.063C46.5265 146.369 46.4419 147.263 47.1646 147.514C47.2308 147.535 47.8163 146.769 47.9714 146.914C49.1612 148.007 49.6638 149.461 50.7607 150.757C51.291 151.379 52.6445 152.186 53.1025 152.937C53.9098 154.231 53.8879 156.529 54.8826 157.378C55.5326 157.941 56.2159 157.257 56.9589 157.197C58.4088 157.092 57.1985 159.384 56.9816 159.699C56.9747 159.708 56.399 159.22 56.192 159.807C55.449 160.538 56.9728 159.694 56.9816 159.699C56.8525 159.911 57.4163 161.248 57.7138 161.403C57.8782 161.486 58.6123 160.954 58.6838 161.007C60.369 162.283 61.5105 163.948 61.9818 165.901C61.9803 165.939 61.0484 166.331 61.0557 166.416C61.1332 167.617 62.546 167.742 63.5942 168.3C63.71 168.361 63.814 168.426 63.9053 168.494C64.6246 169.009 64.5338 169.728 63.295 170.758C63.7576 171.293 63.4151 172.479 63.188 173.164C62.9591 173.844 64.8161 173.199 64.87 173.229C66.5876 174.202 65.8576 175.455 66.2268 176.996C66.4019 177.735 67.1583 179.049 67.619 179.758C67.986 180.313 67.6682 180.824 68.1305 181.3C68.1926 181.365 69.0009 181.02 69.0405 181.033C70.2395 181.347 68.1041 181.692 67.7812 181.937C66.6063 182.83 65.9875 183.326 66.8562 183.932C67.0542 184.067 70.1677 183.722 70.4419 184.014C70.7929 184.393 69.6864 184.544 70.0776 184.928C70.1101 184.961 70.7615 184.761 70.8164 185.058C71.0793 186.431 71.099 187.989 71.5298 189.354C71.5865 189.543 72.5668 189.023 72.6659 189.292C73.1289 190.549 73.4454 191.972 73.2559 193.341C73.2063 193.681 72.4241 193.664 72.222 193.784C70.9993 194.51 73.0555 194.625 73.1156 194.716C73.1674 194.79 73.2157 194.864 73.2608 194.938C74.4831 196.937 73.2599 198.976 74.5379 200.996C74.6125 201.103 76.8887 201.617 75.2037 202.418C75.0919 202.472 73.365 203.277 74.6864 203.383C74.769 203.39 75.6479 202.927 75.6505 203.405C75.6506 203.871 76.4338 204.482 75.5367 205.312C75.2541 205.574 73.5439 206.438 75.111 206.705C75.2191 206.718 78.68 206.936 76.4936 207.73C76.1339 207.861 73.7373 208.314 75.109 208.75C75.3746 208.833 75.8544 208.477 76.262 208.758C76.8877 209.181 76.4027 210.033 77.6052 210.457C77.8176 210.53 79.5397 210.665 78.3975 211.325C78.2186 211.428 77.3978 211.484 77.3537 211.711C77.1377 212.776 77.8932 213.683 77.5639 214.804C77.4474 215.194 76.1231 215.3 75.8596 215.741C75.5959 216.181 75.4322 217.006 76.1033 217.25C76.776 217.501 78.7286 216.624 79.021 217.16C80.2906 219.484 79.66 222.217 80.0748 224.729C80.1355 225.098 80.793 224.621 80.9355 225.155C81.4651 227.134 82.9938 230.374 81.8904 232.491C81.0045 234.183 79.6189 232.689 79.3856 233.874C79.2769 234.448 81.7818 234.396 81.8866 234.495C82.9501 235.491 82.1249 236.601 82.7308 237.594C82.8566 237.8 83.7536 237.327 83.8501 237.505C84.1903 238.118 83.9405 238.891 84.1866 239.493C84.2988 239.762 85.0136 239.513 85.0267 239.785C85.065 240.427 84.9033 241.04 84.385 241.825C84.3378 241.897 83.3314 241.778 83.4223 242.241C83.5732 242.995 83.1464 244.069 84.0789 244.728C84.3587 244.924 86.0207 244.462 85.023 245.316C84.8149 245.495 82.7804 245.913 84.6788 246.051C84.894 246.067 86.1779 246.254 86.549 246.671C86.7212 246.861 86.6936 247.103 86.2631 247.401C85.9075 247.648 84.3764 248.459 84.7188 248.687C84.7713 248.716 85.6152 248.297 85.7734 248.521C86.3181 249.323 86.4832 250.249 87.0256 251.073C87.1721 251.292 87.9879 250.665 88.1767 250.999C88.6943 251.908 88.8223 253.208 88.8184 254.25C88.8151 254.635 87.9814 254.617 87.9061 254.667C86.681 255.481 88.5733 255.186 88.7202 255.292C89.611 255.962 88.9509 256.865 89.4138 257.586C89.5393 257.786 90.3594 257.371 90.4497 257.391C91.3397 257.613 89.683 257.747 89.5972 258.083C89.3537 259.033 89.6893 259.891 90.0461 260.667C90.1783 260.951 91.0806 260.312 91.1876 260.571C91.8382 262.088 92.2438 263.752 92.1651 265.455C92.1486 265.777 91.3205 265.834 91.1629 265.949C90.0584 266.747 91.9292 266.835 92.1326 266.924C93.0613 267.333 92.456 267.792 92.7585 268.315C94.2469 270.862 94.8643 274.391 95.411 277.071C96.1276 280.56 96.239 283.416 97.4721 286.574C97.5494 286.775 98.505 286.238 98.5847 286.406C99.5706 288.607 99.8985 290.967 100.943 293.157C101.026 293.336 101.906 292.75 102.073 293.027C102.42 293.589 102.626 294.392 102.521 295.115C102.472 295.468 101.508 295.334 101.475 295.683C101.397 296.493 101.58 297.283 101.977 297.963C102.148 298.252 102.982 297.456 103.127 297.856C104.134 300.579 105.201 303.223 104.848 306.432C104.824 306.653 102.871 307.492 103.391 307.768C103.959 307.612 104.614 307.392 105.215 307.207C106.868 311.094 107.508 315.31 108.753 319.364C108.805 319.532 109.772 318.887 109.877 319.209C110.059 319.764 110.259 320.291 110.44 320.806C110.923 322.177 111.302 323.511 111.017 325.172C110.977 325.393 109.074 325.927 109.551 326.409C109.638 326.498 110.17 327.252 110.655 327.349C110.726 327.359 111.547 326.908 111.666 327.177C112.34 328.74 112.7 330.47 112.71 332.265C112.708 332.549 111.687 332.591 111.678 332.796C111.623 334.265 112.81 335.453 112.384 336.977C112.099 338.009 110.386 338.237 108.954 339.215C108.75 339.348 108.891 339.88 107.979 340.216C105.689 341.07 103.071 341.678 100.64 342.616C100.378 342.716 100.448 342.888 100.415 343.066C100.389 343.261 100.256 343.451 99.509 343.364C99.4049 343.341 98.8078 342.981 98.3304 343.004C97.9992 343.017 97.1176 343.494 96.6707 343.442C96.2279 343.401 96.9421 342.928 96.3937 342.798C95.8372 342.663 94.8122 343.14 94.4918 342.606ZM62.1442 176.212C61.4377 177.014 64.7028 175.877 63.7331 175.648C63.6824 175.638 62.1783 176.171 62.1442 176.212ZM23.0724 130.847C22.6462 132.444 24.359 130.935 24.7237 129.729C25.0858 128.522 23.2008 130.363 23.0724 130.847ZM17.1653 127.716C17.026 129.123 20.0967 125.301 18.8622 125.604C18.7911 125.62 17.1731 127.634 17.1653 127.716ZM107.811 337.313C107.77 337.335 107.85 337.714 107.898 337.713C109.005 337.56 108.839 336.79 107.811 337.313ZM11.2392 124.716C11.0157 125.379 12.0174 125.181 12.286 124.349C12.4997 123.677 11.5143 123.888 11.2392 124.716ZM65.5919 201.922C65.5432 201.94 65.5577 202.224 65.841 202.157C66.7532 201.938 66.4113 201.613 65.5919 201.922ZM2.58102 117.992C3.53362 119.096 1.93228 122.966 0.7258 121.391C0.517763 121.109 2.11948 120.873 2.02093 120.316C1.93465 119.811 1.39866 119.971 0.875894 120.01C0.36931 120.067 -0.186479 119.922 0.060582 119.157C0.174177 118.917 2.57586 117.985 2.58673 117.989C2.58483 117.99 2.58293 117.991 2.58102 117.992ZM58.3591 177.942C58.3203 177.968 58.4145 178.345 58.4604 178.339C59.5632 178.155 59.3703 177.386 58.3591 177.942ZM66.97 218.432C66.8802 218.477 66.9878 219.377 67.082 219.386C68.9356 219.453 68.723 217.632 66.97 218.432ZM43.5343 156.932C42.4288 157.341 42.0196 157.072 42.8352 155.904C43.0534 156.26 43.3164 156.576 43.5343 156.932Z" fill="var(--stroke-0, #467603)"/>
</g>
</svg>
