<svg preserveAspectRatio="none" width="100%" height="100%" overflow="visible" style="display: block;" viewBox="0 0 50.4482 26.9066" fill="none" xmlns="http://www.w3.org/2000/svg">
<path id="Vector 75" d="M37.6582 26.5589C36.8734 26.6305 36.1194 26.7004 35.3524 26.7918C32.1786 27.1307 29.2102 26.6573 26.4381 26.1748C25.5741 26.0188 24.7166 25.8822 23.8428 25.7374C23.312 25.6489 23.3674 25.5137 23.2198 25.4728C22.815 25.3595 22.5379 25.4845 22.2347 25.4222C20.757 25.1203 19.3718 24.7965 17.968 24.3892C17.6476 24.2964 17.4437 24.2116 17.3023 24.1317C16.7912 23.8421 17.2112 23.6601 16.8309 23.4663C15.8899 22.9669 16.5763 23.7713 16.141 23.7732C14.9865 23.3803 13.8821 22.8715 12.8663 22.4137C13.1392 22.4606 13.4168 22.5126 13.6998 22.5689C13.2355 22.3759 12.6164 22.0431 13.4383 22.1995C13.2823 22.0948 13.1406 21.9884 12.9816 21.8848C12.8563 22.0578 12.0589 21.7839 11.9526 21.883C11.8423 21.9752 12.2849 22.099 12.2801 22.11C12.2174 22.2026 11.3355 21.8074 10.8211 21.6423C10.6379 21.5773 10.4861 21.5355 10.454 21.5257C10.1479 21.4397 10.4576 21.2164 10.1756 21.2027C9.66947 21.1939 10.005 21.7335 9.31896 21.0168C9.03116 21.2427 9.00917 21.1245 8.63674 21.1168C8.58763 21.1161 8.62907 21.2467 8.60761 21.2507C8.04525 21.3654 8.4718 21.1074 8.46937 21.0942C8.41233 20.8695 7.7964 20.9933 7.66265 20.978C7.2071 20.9239 6.77914 20.8756 6.3636 20.8288C5.29982 20.7084 4.31145 20.6584 3.0823 20.8279C2.83649 20.8618 2.26752 21.0189 1.84275 21.1728C1.65791 21.2386 1.50745 21.316 1.41293 21.3546C1.12912 21.4805 1.18336 21.2583 0.993164 21.2933C0.989922 21.5687 0.954241 21.7405 0.791796 21.8973L0.894685 21.767C0.834372 21.8877 0.711692 22.0294 0.531354 22.2626C0.750233 22.5595 0.526983 22.467 0.50701 22.9318C0.505168 22.9947 0.510683 23.0663 0.520274 23.1436L0.522538 23.1224C0.58289 23.4953 0.828399 23.9387 0.637823 24.3346C0.605764 23.8479 0.457933 23.9145 0.365608 23.388C0.360597 23.3525 0.357599 23.252 0.36359 23.1089L0.362045 23.1233C0.388327 22.6669 0.54425 21.8948 0.595779 21.6019L0.561961 21.6447C0.604761 21.5571 0.609304 21.4952 0.553682 21.4731C0.521403 21.4604 0.478887 21.473 0.431718 21.5016C0.276484 21.6766 0.225391 22.1146 0.202474 22.1262C0.00687032 22.233 -0.100163 21.7972 0.131178 21.4843C0.119967 21.5817 0.109079 21.6933 0.107664 21.7921C0.236496 21.6096 0.273933 21.503 0.269081 21.4215C0.276411 21.4094 0.299914 21.3778 0.310756 21.3687C0.357634 21.1787 0.0656938 21.0629 0.704613 21.1775C0.811513 21.2008 0.844308 21.2849 0.984827 21.2924C0.982206 21.2485 0.817276 21.256 0.903442 21.1727C0.995074 21.0836 1.27617 21.1179 1.23525 20.9758C1.17755 20.7551 0.770659 21.1103 0.741237 21.1306C0.741685 21.1319 0.742134 21.1331 0.742583 21.1344C0.393397 21.2601 0.975112 20.8007 1.01107 20.7771C1.15791 20.5462 0.951204 20.5275 1.26652 20.267C1.32144 20.2244 1.41019 20.1798 1.51419 20.1414C1.73245 20.0581 2.01712 19.9977 2.14082 19.9534C2.3163 19.8897 2.01148 19.86 2.12815 19.8095C2.24599 19.7586 2.41442 19.799 2.55179 19.7452C2.6106 19.7219 2.58545 19.6125 2.61462 19.6027C2.92648 19.4987 2.7601 19.7671 3.04376 19.7024C3.22525 19.6589 3.82153 19.3559 3.37935 19.3534C3.58506 19.3003 3.78651 19.2574 3.99187 19.2158C3.85715 19.1978 3.71882 19.1923 3.58478 19.1708C3.9842 19.1717 4.1392 18.9634 4.38509 18.9245C4.63116 18.8864 4.86846 19.0979 5.12831 18.9672C5.6877 18.6877 4.26902 18.9 4.08371 18.8877C4.01174 18.8785 4.26121 18.6701 4.30262 18.6613C4.48506 18.6203 4.71314 18.7302 4.85301 18.7136C5.35387 18.6538 5.65216 18.4675 6.12989 18.4148C6.18164 18.4091 6.23387 18.4037 6.28585 18.3983C7.74635 18.2647 9.63523 17.9194 11.5404 18.2864C11.551 18.2885 11.5614 18.2906 11.5718 18.2928C12.2019 18.4293 12.4934 18.7231 12.751 18.7991C13.3559 18.9865 13.4807 18.859 13.9775 19.0348C14.7142 19.3002 15.6044 19.8094 16.1499 20.0339C16.5277 20.1921 16.9241 20.1514 17.0236 20.179C17.4169 20.2885 17.8288 20.3981 18.2498 20.4995C19.3914 20.7776 20.5499 21.0454 21.4201 21.215C21.9887 21.3263 22.229 21.5508 22.3498 21.5671C22.8652 21.6333 22.7529 21.4564 23.167 21.5395C23.3909 21.5835 23.4114 21.7372 23.4407 21.7476C23.7019 21.8376 23.7849 21.6532 23.9967 21.6784C25.0313 21.7999 26.0623 22.0329 27.1133 22.2541C27.2928 22.292 27.474 22.3283 27.6552 22.3614C27.7415 22.3773 27.7198 22.4611 27.7768 22.4661C28.021 22.4849 27.9316 22.3328 28.1838 22.3636C28.7091 22.4266 29.2372 22.5286 29.7811 22.6174C29.8351 22.6261 29.8451 22.7393 29.969 22.755C30.0933 22.7707 30.1997 22.6781 30.3927 22.7065C30.8961 22.78 31.3816 22.9532 31.9115 22.9955C31.9994 23.0023 32.1155 22.8758 32.2454 22.8842C32.653 22.9122 33.249 23.0456 33.5912 23.0433C34.058 23.0424 34.501 23.0071 34.9185 22.9466C35.629 22.847 36.3278 22.7562 37.0132 22.6953C37.2887 22.6709 37.5372 22.7726 37.6764 22.7623C37.9882 22.7386 37.7436 22.6455 38.0538 22.6134C38.4598 22.5707 38.8454 22.5227 39.2207 22.46C40.5753 22.2341 42.1034 22.0613 42.8577 21.7859C43.8065 21.41 44.7227 21.136 44.9832 20.9278C45.0391 20.8883 45.0423 20.8671 45.0156 20.8901C45.5911 20.069 45.9416 19.4323 46.2282 18.8523C46.373 18.5604 46.5424 18.5601 46.6223 18.3355C46.7527 17.9315 46.5717 17.8051 46.6326 17.3752C46.6771 17.0332 46.9209 16.6389 46.912 16.2444C46.9116 16.2239 46.9106 16.204 46.909 16.1845C46.881 15.7598 46.7012 15.5373 46.6773 15.0358C46.6569 14.6005 46.74 14.0024 46.706 13.5497C46.6515 12.8081 46.5684 12.0963 46.4311 11.4533C46.1812 10.2775 45.7698 9.00084 45.3045 8.2783C44.9425 7.70957 44.0245 6.88273 43.1308 6.06326C42.7395 5.67545 42.0022 5.31187 41.1242 4.97603C40.1935 4.61928 39.0838 4.33908 37.9804 4.02849C37.4473 3.88216 36.9632 3.71314 36.5215 3.54314C36.3832 3.49006 36.6459 3.35331 36.181 3.28353C35.9326 3.24868 35.5643 3.33168 35.0311 3.25005C34.4224 3.15798 33.8119 3.09496 33.175 3.06423C30.7616 2.96604 28.1841 2.73355 26.0462 3.09461C25.5061 3.19544 24.976 3.30037 24.4523 3.41327C22.043 3.96968 19.5239 4.59318 17.8584 5.62574C15.2997 7.09374 12.4874 8.38708 10.2404 8.78578C10.2008 8.76462 10.1622 8.54384 9.99616 8.52859C9.83862 8.49788 9.72911 8.37233 9.72172 8.28153C9.86645 8.27376 10.0252 8.293 10.1891 8.30431C9.93837 7.73234 10.0141 7.85689 10.5634 7.54724C10.9063 7.36011 10.5036 7.31516 10.6398 7.13778C10.8088 6.90429 11.774 5.98197 11.7621 6.45818C11.794 6.35874 11.8241 6.26399 11.8589 6.16507C12.6376 5.64557 13.3873 5.12755 14.1433 4.60271C14.2768 4.5104 14.2228 4.39623 14.3575 4.30386C14.7274 4.05085 15.0698 3.9695 15.4667 3.75549C15.6887 3.63631 15.6436 3.49569 15.9395 3.35889C16.2282 3.22596 16.3025 3.39911 16.592 3.04354C16.5989 3.03527 16.606 3.02673 16.6131 3.01792C16.5966 3.01396 16.5832 3.0094 16.5727 3.00423C16.5465 2.9907 16.5393 2.97344 16.5477 2.95317C16.6067 2.79478 17.6044 2.48018 17.9927 2.34445C18.0555 2.31724 18.5416 1.92505 18.843 1.87152C19.1453 1.81295 19.6161 1.84082 20.0393 1.66283C20.2384 1.57904 20.3277 1.38249 20.5474 1.32516C20.7035 1.28459 20.9256 1.39477 21.1195 1.36121C21.3217 1.32564 21.7169 1.11704 21.7945 1.09946C22.0773 1.03424 21.7847 1.20301 21.9799 1.16947C22.9112 1.00842 23.9873 0.858511 24.8828 0.608835C24.9944 0.57799 24.8132 0.483844 24.8275 0.476713C25.5532 0.175361 25.1814 0.417158 25.409 0.48861C25.4352 0.496726 25.4788 0.499017 25.5356 0.496277C25.9954 0.454284 27.1962 0.256191 27.1897 0.0670785C27.2605 0.338253 27.5875 0.100132 27.6763 0.0865359C28.022 0.0324899 27.9668 0.27597 28.2964 0.184793C28.4165 0.151989 28.1715 0.00165594 28.303 3.89814e-05C28.63 -0.00358057 28.9299 0.245737 29.3562 0.262098C29.4596 0.266274 29.4905 0.149547 29.674 0.150465C29.858 0.150201 30.6235 0.288086 30.2701 0.0455058C30.7355 0.239584 30.8269 0.132058 31.3659 0.141579C31.5016 0.144484 31.6744 0.332966 31.9648 0.279434C32.0627 0.261305 32.0619 0.0811732 32.2097 0.0822461C32.5357 0.0842549 32.8402 0.265734 33.2461 0.293549C33.2597 0.294453 33.2735 0.295217 33.2874 0.295832C34.1208 0.331521 35.0428 0.295767 35.8995 0.509151C36.1306 0.567479 36.0378 0.732269 36.3693 0.807178C36.4176 0.816973 36.8521 0.755668 37.0722 0.825883C37.2087 0.867581 37.8634 1.14799 37.9933 1.18863C38.2125 1.25732 38.292 1.09593 38.4036 1.1574C38.5446 1.23448 38.5604 1.31282 38.5748 1.35678C38.5954 1.41383 38.6141 1.41235 38.906 1.27516C39.006 1.49824 39.2718 1.54056 39.2964 1.79396C39.5105 1.57411 39.6441 1.8668 39.9541 1.85459C40.2671 1.84309 40.6413 1.41577 40.5664 1.96499C40.7209 1.9363 41.3292 1.99373 41.4334 2.01877C41.728 2.08538 41.5318 2.18332 41.752 2.23217C41.7909 2.24145 41.7866 2.1295 42.027 2.2208C42.1878 2.26811 43.3756 2.74195 43.4391 2.80615C44.1749 3.34449 42.9558 2.68326 42.7439 2.74167C42.7247 2.70222 42.7053 2.66272 42.6827 2.62259C42.3459 2.44164 42.4667 2.7381 42.6035 2.84957C42.739 2.95977 43.0761 2.988 43.1745 3.11854C43.2235 3.18382 43.0641 3.41851 42.8897 3.30548C43.0567 3.47303 42.7454 3.437 42.7926 3.5465C42.8534 3.65484 43.6893 4.11619 43.7687 4.00237C43.6159 3.90154 43.4127 3.79674 43.2499 3.7091C43.124 3.3554 44.2949 2.85426 44.7485 3.67423C44.9598 4.11661 44.4861 3.94887 44.8187 4.1789C44.9012 4.23714 45.0375 4.32152 45.2552 4.45306C45.1291 4.32505 45.0331 4.20522 44.92 4.08881C45.0422 3.92685 45.0895 4.26759 45.234 4.31098C45.3039 4.33144 45.0991 3.95524 45.3917 4.15388C45.4228 4.5715 45.7903 4.50823 46.1718 4.86112C46.0314 4.79966 45.8915 4.73996 45.7519 4.68184C46.2429 5.4206 44.7298 4.11623 45.8744 5.33769C45.7221 5.20578 45.5773 5.06826 45.4192 4.94302C45.4195 5.08702 45.0946 5.21187 45.1141 5.31895C45.1641 5.59857 45.4784 5.74872 45.6633 5.95099C45.7442 6.03918 45.6322 6.04721 45.6391 6.05463C45.7481 6.17549 45.8098 6.06296 45.916 6.15944C46.0536 6.28059 46.309 6.74277 46.3671 6.79778C46.5302 6.94087 46.4894 6.5095 46.5136 6.51228C46.6974 6.54249 46.8004 6.83325 46.9131 6.72866C46.4238 6.21333 45.0296 4.72988 46.531 5.84768C46.3493 5.30853 46.6909 5.14178 47.2517 5.7178C47.7058 6.21745 47.3213 5.97353 47.4193 6.34045C47.4255 6.36453 47.555 6.57202 47.6811 6.78688C47.8019 6.99065 47.9148 7.18709 47.9719 7.1824C47.7404 7.26954 47.6695 7.60972 47.3614 7.56523C47.318 7.55788 47.1711 7.26391 47.0491 7.46449C46.9884 7.56433 46.8634 7.8051 46.7356 7.84327C46.8446 7.85538 46.9652 7.86753 47.0792 7.88501C47.3046 8.29907 47.234 8.40798 47.1682 8.70426C47.2307 8.67014 47.4228 8.33653 47.4673 8.71233C47.4684 8.73183 47.3752 8.78388 47.3855 8.97495C47.4044 9.36297 47.3907 9.4399 47.0084 9.2722C47.4047 9.93611 47.1091 10.1904 47.3721 10.919C47.7332 10.6884 47.5868 10.4251 47.3209 9.75765C47.4045 9.70163 47.4916 9.66134 47.5755 9.60326C47.6204 10.5954 47.5148 10.1202 47.8307 10.6136C47.88 10.692 47.9365 11.0174 48.0244 11.1629C48.0732 11.2425 48.1343 11.2696 48.2143 11.1679C48.221 11.1593 48.2254 11.1447 48.2282 11.1258C48.2486 10.9948 48.1856 10.6586 48.2803 10.6853C48.294 10.689 48.367 10.9183 48.4073 11.0931C48.4291 11.1868 48.4421 11.2655 48.436 11.2837C48.2028 11.9393 47.8629 10.8921 48.1567 12.5261C48.1639 12.5714 48.2822 12.578 48.3054 12.6669C48.3482 12.8343 48.2128 12.8455 48.2535 12.9946C48.294 13.1432 48.4874 13.3466 48.3272 13.5824C48.0345 14.0073 47.8265 13.0408 47.9494 12.604C47.575 12.4545 47.6437 15.5236 47.6549 15.7388C47.8011 16.5955 47.7208 15.1707 47.8304 15.1001C47.8773 15.0701 48.4756 15.0824 48.0855 14.7259C47.97 14.6213 47.8213 15.0635 47.7564 14.8007C47.6911 14.5385 47.8677 14.641 47.8798 14.6218C47.9215 14.5558 47.8523 14.2775 47.8763 14.2412C48.2417 13.6758 48.8181 13.7135 47.9855 14.472C48.1807 14.794 48.475 14.044 48.6104 14.4469C48.7742 14.9397 48.5001 15.3016 48.488 15.3632C48.3408 16.1065 48.7415 15.2498 48.6107 16.1587C48.6089 16.1708 48.6071 16.1819 48.6053 16.192C48.576 16.3478 48.5334 16.278 48.492 16.1915C48.4393 16.0813 48.389 15.9416 48.3735 16.191C48.3685 16.2692 48.3667 16.381 48.3636 16.5463C48.3234 17.4822 48.4901 16.9952 48.8017 17.0913C48.8731 17.1148 48.9075 17.6716 48.9487 16.9237C48.8686 16.8961 48.7639 16.8487 48.6916 16.7972C48.7644 16.628 49.1832 16.3346 49.1974 16.2313C49.1992 16.2188 49.2009 16.2065 49.2023 16.1946C49.2572 15.7707 49.0612 15.7841 49.3063 15.5197C49.0314 15.7134 49.1977 15.3975 49.1396 15.2786C48.9246 14.8369 48.8505 15.4189 49.116 14.4237C48.9891 14.5551 48.864 14.673 48.7366 14.7983C48.7314 14.68 48.7258 14.5617 48.7198 14.4434C49.0017 14.264 48.9503 13.6274 49.2483 14.1975C49.3155 13.5016 49.235 13.2168 49.0074 13.0777C48.9638 13.051 48.9413 12.9481 48.9292 12.826C48.8688 12.8533 48.6796 12.8949 48.6549 12.8773C48.4385 12.7222 48.7724 12.4315 48.9154 12.51C48.915 12.424 48.9164 12.3552 48.9176 12.331C48.9248 12.1768 49.0745 12.4646 49.1054 12.3371C49.1168 12.295 49.045 11.8649 49.0924 11.8504C49.3972 11.757 49.2849 12.5189 49.2518 11.0282C48.9621 11.0458 49.1258 11.7026 48.7925 11.574C48.5187 11.4713 48.6853 11.1917 48.5792 11.0618C48.5484 11.0248 48.4943 11.001 48.3995 11.0002C48.46 10.9581 48.5128 10.9355 48.5831 10.8956C48.2972 10.3725 48.6218 10.2953 48.6556 10.1042C48.7322 9.73007 48.2507 8.21529 48.3666 9.65899C48.2846 9.46833 48.2128 9.27081 48.1266 9.08389C48.6874 8.85509 48.5269 9.04859 48.2503 8.0569C48.1846 7.84029 48.3986 7.65755 48.0132 7.58375C48.3169 7.47927 47.8241 6.93053 47.8133 6.85748C47.8113 6.32702 48.9134 7.65775 48.4282 8.04518C48.7221 8.20705 48.4561 8.30782 48.5844 8.55987C48.765 8.92633 48.8377 8.9699 48.7642 9.48388C49.1972 9.86238 48.3331 7.66446 49.143 8.91153C49.3332 9.21475 49.6191 9.90002 49.864 10.8276C50.2831 12.3963 50.3816 14.4621 50.4393 16.2001C50.5326 18.2117 49.8674 20.0692 49.498 20.7979C49.0307 21.7933 48.445 22.5824 48.091 23.1079C47.2541 24.2203 46.4178 24.4817 45.8367 24.758C45.2352 25.0099 44.7462 25.1755 44.3319 25.3545C43.3174 25.7522 42.6147 25.8431 41.7708 25.9931C41.5407 26.0342 40.29 26.2426 39.8611 26.1852C39.6766 26.1701 39.6015 26.1168 39.7167 26.0082C39.7279 25.9976 39.768 25.9797 39.8218 25.9564C40.0334 25.8536 40.5201 25.6452 39.8448 25.5323C39.9367 25.5971 39.8722 25.6741 39.7842 25.7376C39.6804 25.804 39.5454 25.8556 39.5251 25.8671C38.5993 26.378 39.1356 26.413 37.6582 26.5589ZM33.2367 23.8353C35.0116 23.8821 33.7035 23.6784 34.0466 23.1539C33.8309 23.1616 33.6125 23.1648 33.3927 23.1639C33.4507 23.1962 33.508 23.228 33.5662 23.2597C33.5664 23.2597 33.5667 23.2597 33.5669 23.2597C33.4614 23.4525 33.3499 23.6444 33.2367 23.8353ZM2.98675 19.0822C3.05375 19.0019 3.12086 18.9221 3.1961 18.8432C3.4665 18.823 3.73316 18.8091 3.9987 18.8003C3.97249 18.8497 3.94756 18.8995 3.92169 18.9491C3.61174 18.9835 3.30078 19.0245 2.98675 19.0822ZM47.8529 12.3588C48.0067 12.0037 47.6777 12.0711 47.7694 11.6147C47.531 11.7046 47.2979 11.796 47.0608 11.8824C47.1378 12.194 47.2402 12.2595 47.2107 12.6206C47.287 12.5726 47.3635 12.5228 47.4399 12.4747C47.4175 12.4165 47.3919 12.3546 47.371 12.2988C47.5855 12.1813 47.6724 12.7625 47.8535 12.3599C47.8533 12.3596 47.8531 12.3592 47.8529 12.3588ZM47.0347 9.05342C47.0142 8.87474 46.8633 8.18419 46.7243 8.14912C46.2989 8.00781 47.2075 9.65793 46.4019 8.49874C46.3595 8.52415 46.3131 8.53798 46.2687 8.55762C46.3497 8.78372 46.4248 9.01897 46.4946 9.26257C46.6729 9.18633 46.8564 9.13249 47.0347 9.05342ZM39.8118 23.1869C40.1132 23.1661 41.4308 22.7878 40.9567 22.64C40.8206 22.5974 40.2665 23.0058 40.0296 23.0296C39.8765 23.0452 40.0197 22.8461 39.7294 22.9577C39.7549 23.0311 39.7767 23.1135 39.8125 23.1863C39.8123 23.1865 39.8121 23.1867 39.8118 23.1869ZM39.4378 24.2738C39.4679 24.2655 39.498 24.2571 39.5282 24.2485C39.7881 24.1743 40.0518 24.0971 40.3144 24.0255C40.0657 23.8643 39.6571 24.0599 39.5858 23.79C39.6641 23.7555 39.7422 23.7213 39.821 23.687C39.8936 23.7369 39.9651 23.787 40.0363 23.8373C40.2686 23.6469 40.1024 23.5973 40.585 23.565C40.2342 23.199 40.146 22.9803 39.4034 23.5224C39.3977 23.5268 39.3921 23.5312 39.3864 23.5357C39.3914 23.524 39.3957 23.5112 39.3991 23.4977C39.4332 23.3758 39.4019 23.1882 39.3248 23.0654C39.2326 22.9078 39.0859 22.8524 38.9015 23.1654C38.8358 23.2749 39.1772 23.2913 39.1834 23.3054C39.266 23.4902 39.0982 23.6426 39.1818 23.8164C39.2199 23.895 39.4273 23.8604 39.4798 23.9671C39.48 23.9675 39.4803 23.968 39.4805 23.9685C39.4825 23.9728 39.4831 23.978 39.4827 23.984C39.4788 24.0523 39.3375 24.2194 39.4378 24.2738ZM38.7194 23.3781C38.7898 23.2495 38.4616 23.0099 38.2078 23.0939C37.807 23.2248 38.4841 23.4242 38.7194 23.3781ZM2.98504 19.0827C2.98561 19.0825 2.98618 19.0823 2.98675 19.0822C2.9865 19.0825 2.98625 19.0828 2.986 19.0831C2.98568 19.0829 2.98536 19.0828 2.98504 19.0827ZM47.172 9.96502C47.0212 9.78951 46.946 9.49476 46.7996 9.56404C46.8003 9.46032 46.7991 9.35575 46.7973 9.25221C46.752 9.26846 46.7069 9.28561 46.6621 9.30168C46.7274 9.58922 46.7825 9.88196 46.8291 10.1783C46.944 10.1094 47.0597 10.042 47.172 9.96502ZM45.9473 7.0757C45.7192 6.78744 45.7575 7.16348 45.6258 7.17214C45.4984 7.18369 45.3399 6.88944 45.2562 7.02128C45.3996 7.18007 45.5387 7.3445 45.6574 7.50059C45.7524 7.35717 45.8569 7.22141 45.9468 7.07515C45.947 7.07534 45.9471 7.07552 45.9473 7.0757ZM25.821 22.7821C26.0908 22.8722 25.9512 23.017 26.5307 22.9145C26.5302 22.9145 26.5298 22.9144 26.5294 22.9143C26.0313 22.6938 25.3718 22.4713 24.7834 22.5183C25.107 22.7429 25.3949 22.6417 25.821 22.7821ZM47.4291 13.3174C47.5667 13.4235 47.6488 12.8944 47.5168 12.7898C47.3066 12.6224 47.2232 13.1568 47.4291 13.3174ZM14.7512 21.4503C14.2113 21.6759 14.7986 22.3975 15.6763 22.4922C15.7509 22.5006 15.2751 22.197 15.4551 22.1765C15.4726 22.1748 15.7535 22.2832 15.8424 22.2536C15.9311 22.2241 15.9001 22.0752 16.0316 22.0616C16.2622 22.039 16.6659 22.354 16.8545 22.2779C16.8787 22.2679 16.6477 22.0137 16.6324 22.0015C16.3766 21.8103 16.0289 21.9341 15.9834 21.9202C15.7512 21.8492 15.8462 21.6913 15.802 21.6313C15.7201 21.5187 15.5041 21.5255 15.4926 21.515C15.2047 21.2437 15.9709 21.5678 16.0978 21.5396C16.4376 21.4684 16.2277 21.2329 16.9335 21.3531C17.0007 21.3647 17.7631 21.6066 16.8579 21.12C18.8557 21.2835 15.994 20.6163 15.6567 20.5539C15.5009 20.5423 15.6558 20.7815 15.5435 20.8224C15.2866 20.9164 14.9373 20.8172 14.8796 21.0609C14.7593 21.5743 15.3279 21.423 15.6071 21.6151C15.5363 21.7102 15.4865 21.81 15.3882 21.8925C15.531 21.787 14.7898 21.4342 14.7516 21.4493C14.7515 21.4496 14.7513 21.45 14.7512 21.4503ZM19.8727 22.3337C20.2838 22.5874 20.3231 22.2583 20.6912 22.5289C21.1121 22.3141 20.3986 22.1857 20.3207 22.1502C19.9593 21.9941 20.0403 21.6823 19.638 21.6907C19.7257 21.9068 19.7893 22.119 19.8727 22.3337ZM16.106 21.1635C16.4445 21.1033 15.9353 20.9311 15.926 20.8929C15.8153 20.5003 17.3059 21.0737 16.106 21.1635ZM41.6871 23.5523C41.8416 23.5358 41.7165 23.3961 41.8412 23.325C41.9658 23.2551 42.4428 23.2952 42.4093 23.1992C42.3735 23.1076 41.519 23.0187 42.3111 22.7968C42.2721 22.7481 42.2721 22.7053 42.2486 22.6587C42.0337 22.7044 41.8078 22.7456 41.5814 22.785C41.7341 22.921 41.8929 23.0636 42.043 23.1925C41.9397 23.3436 41.8356 23.1956 41.8293 23.1968C41.8293 23.197 41.8293 23.1971 41.8294 23.1973C41.5935 23.2547 41.3393 23.5879 41.6871 23.5523ZM29.5817 23.6912C29.4835 24.0821 29.9033 23.6862 30.0555 23.6543C30.2086 23.6233 30.3939 23.7934 30.3375 23.6136C30.1143 23.4693 29.5936 23.6482 29.5817 23.6917C29.5817 23.6915 29.5817 23.6914 29.5817 23.6912ZM22.3004 22.8176C22.6942 22.7859 22.6495 22.6735 23.0933 22.8644C23.0904 22.766 23.0876 22.6655 23.0849 22.5686C22.7201 22.5082 22.6998 22.7899 22.2962 22.6065C22.2304 22.576 22.4173 22.3814 22.093 22.3973C22.1633 22.5315 22.232 22.6784 22.3004 22.8176ZM24.2325 22.757C23.7933 22.7073 23.33 23.4299 24.1893 23.1999C24.3169 23.1653 24.5638 22.7942 24.2325 22.757ZM37.6638 24.1583C38.4137 24.1097 37.5529 24.0654 37.3465 23.9621C39.0724 23.7032 37.1572 24.0148 36.9415 23.6295C36.7371 23.7619 36.3581 24.058 36.811 24.0871C36.9997 24.0993 36.9212 23.9868 36.9324 23.9862C37.2766 23.9851 37.2531 24.1834 37.6638 24.1583ZM19.095 22.1714C19.124 22.1724 19.1127 22.0306 19.2065 22.0254C19.2999 22.0204 19.4744 22.1588 19.514 22.0828C19.5508 22.006 19.1731 21.85 19.0362 21.8788C18.9024 21.9092 18.8334 22.1616 19.095 22.1714ZM21.8398 23.0948C22.2241 23.0651 21.7117 22.4673 21.6344 22.4542C20.9335 22.3469 21.8833 22.9447 21.8398 23.0948ZM35.9978 25.1603C36.8743 24.8223 36.1773 24.4449 35.5767 24.2427C35.5076 24.3037 35.4346 24.3653 35.3669 24.4259C35.6633 24.0777 36.2132 23.7045 35.0455 24.0722C35.0121 24.0835 34.977 24.0952 34.9401 24.1076C34.9809 24.1078 35.0173 24.1084 35.0497 24.1093C35.5998 24.1208 35.0855 24.2553 35.0685 24.2762C35.0683 24.2765 35.0682 24.2767 35.0682 24.277C35.0674 24.322 35.0723 24.3615 35.0821 24.3963C35.2053 24.8241 36.0948 24.5392 35.997 25.1603C35.9972 25.1603 35.9975 25.1603 35.9978 25.1603ZM17.9491 21.7366C17.9424 21.7349 17.9355 21.7332 17.9285 21.7315C17.541 21.6418 16.5911 21.4578 16.9578 21.8373C17.2838 21.8115 17.6061 21.7786 17.9265 21.7391C17.934 21.7383 17.9415 21.7375 17.9491 21.7366ZM48.7954 18.6995C49.0336 18.409 49.1072 18.0876 49.165 17.6627C48.8876 18.0059 48.9066 17.7511 48.8738 17.6191C48.8251 17.4183 48.7581 17.8736 48.7407 17.8721C48.5378 17.8227 48.57 17.543 48.4381 18.176C48.4051 18.0035 48.3655 17.8362 48.3223 17.6705C48.2259 18.1407 48.0596 18.2225 47.8228 18.4578C48.2854 18.2915 47.9504 18.587 48.0177 18.9838C48.0498 19.1908 48.6755 18.8572 48.7957 18.6983C48.7956 18.6987 48.7955 18.6991 48.7954 18.6995ZM36.9369 25.1531C37.024 25.0728 37.1005 24.968 37.1834 24.8778C37.2813 24.8613 37.3797 24.8456 37.4771 24.829C37.4951 24.8914 37.5113 24.957 37.5311 25.0168C37.6631 25.0236 37.604 24.9397 37.6422 24.9278C37.6422 24.9282 37.6423 24.9285 37.6423 24.9289C38.1878 24.7602 38.4143 24.7509 38.8807 24.8915C38.8559 24.6975 38.831 24.5036 38.8062 24.3096C38.712 24.3405 38.616 24.3704 38.5211 24.3995C38.4813 24.5098 38.4409 24.6201 38.3999 24.7302C38.2801 24.685 38.1618 24.6392 38.0433 24.5927C37.9562 24.6392 37.8514 24.6891 37.7764 24.733C37.2763 24.2309 38.3329 24.5046 38.3178 24.2752C38.3091 24.1326 37.2875 24.235 37.1465 24.3472C37.1263 24.3638 37.3845 24.7494 36.9898 24.5716C36.9285 24.5436 36.8278 23.6682 36.486 24.4154C36.4377 24.5214 36.6896 25.0473 36.9369 25.1531ZM40.7418 24.9556C40.075 24.4937 42.3046 24.7328 41.307 24.4277C41.5272 24.1286 41.4772 24.1406 41.1775 23.9575C41.1513 23.941 41.3204 23.8409 41.3036 23.8345C41.0384 23.7505 40.7541 23.8636 40.7158 23.6365C40.6515 23.6592 40.5909 23.6799 40.5265 23.7026C40.8369 23.873 40.42 24.0868 40.2787 24.2947C40.2145 24.3889 40.3963 24.3859 40.3426 24.4679C40.3225 24.4979 40.0666 24.4853 40.0684 24.5621C40.0751 24.7351 40.2664 24.9394 40.5501 25.0227C40.5501 25.0228 40.5502 25.023 40.5502 25.0232C40.6148 25.0015 40.677 24.9778 40.7418 24.9556ZM28.194 24.7674C28.1427 24.4441 27.7669 24.2964 28.5413 24.2615C28.5132 24.1952 28.484 24.1293 28.4563 24.063C28.3297 24.0491 28.2057 24.0352 28.0773 24.0198C27.5449 24.8647 27.0074 23.7238 27.3521 24.4414C27.3898 24.5194 27.7047 24.4913 27.3752 24.6315C27.3756 24.6317 27.3759 24.6319 27.3763 24.6322C27.8021 24.6427 27.8717 24.542 28.194 24.7674ZM31.0268 24.9075C32.0454 24.3455 29.7375 24.4114 30.0966 24.6172C30.1297 24.6401 31.13 24.6019 31.0268 24.9075ZM23.2441 24.3476C23.6751 24.4243 23.7547 24.0781 23.7301 23.9459C23.7055 23.8133 23.3886 23.8962 23.3531 23.8704C23.2381 23.7859 23.5096 23.7828 23.3612 23.6684C23.3113 23.632 22.5842 23.3895 22.5488 23.3978C22.3444 23.4496 22.5755 23.7836 22.5156 23.8074C22.3187 23.8861 22.1023 23.6949 22.025 23.8388C21.8567 24.1455 22.368 23.8812 22.4448 23.8877C22.6771 23.91 22.6277 24.0905 22.7943 24.155C22.9614 24.2192 23.0836 24.1735 23.234 24.2099C23.2839 24.2219 23.2224 24.3431 23.2441 24.3476ZM24.7757 23.8195C24.2898 24.0183 25.3356 24.4667 25.4724 24.4257C25.881 24.3001 25.0099 23.7239 24.7757 23.8195ZM39.1727 24.3483C38.9243 24.51 39.246 24.5787 39.5822 24.5626C39.7606 24.5547 39.9415 24.5271 40.0332 24.4842C39.9973 24.4432 39.7622 24.3746 39.5444 24.3426C39.3812 24.3192 39.2287 24.3113 39.1727 24.3483ZM35.7483 25.1845C36.1181 25.0863 35.5748 24.7012 35.2585 24.7435C35.1059 25.0495 35.2722 24.9733 35.4798 24.9629C35.6867 24.9529 35.4602 25.2619 35.7483 25.1845ZM18.6377 23.1107C18.7178 23.1385 20.0659 23.208 19.346 22.9396C19.2895 22.9207 18.3745 22.7412 18.299 22.766C18.1401 22.8181 18.4311 23.0472 18.6377 23.1107ZM33.8996 25.7582C34.1056 25.504 34.3075 25.4969 34.1044 25.2141C34.1041 25.2141 34.1038 25.2141 34.1035 25.2142C34.6183 25.1009 34.687 25.6874 34.804 25.6665C35.2067 25.5852 34.7847 25.1978 35.0197 25.0349C34.4587 25.2182 34.5992 24.9176 34.1698 24.9232C34.0741 24.9249 33.6922 25.1066 33.635 25.213C33.5786 25.3204 33.7858 25.637 33.8996 25.7582ZM16.7868 22.6836C17.2017 22.9062 17.7055 22.6248 17.1212 22.3949C16.8401 22.2807 16.5363 22.5469 16.7868 22.6836ZM48.1301 7.94952C48.0607 8.05742 47.9909 8.16512 47.9211 8.27356C47.8353 8.1247 47.7454 7.97804 47.6513 7.83455C47.7373 7.94263 47.8206 8.05366 47.902 8.16714C47.8152 7.85919 47.9252 7.63862 48.1297 7.94872C48.1298 7.94899 48.1299 7.94925 48.1301 7.94952ZM38.9319 1.59715C38.8211 1.46711 38.4787 1.71307 38.508 1.74483C38.7277 1.98104 39.0907 1.77861 38.9319 1.59715ZM39.934 25.1927C40.4413 25.1547 40.0153 24.7046 39.7008 24.722C39.9047 24.7869 39.6478 25.2152 39.934 25.1927ZM42.7439 2.74167C42.772 2.80021 42.8013 2.85948 42.8352 2.92109C42.6987 2.79915 42.6881 2.75177 42.7439 2.74167ZM18.7372 23.6001C18.8071 23.6582 19.3718 23.8242 19.4629 23.7944C19.6469 23.7315 19.2618 23.3543 18.9802 23.376C18.9502 23.3785 18.6687 23.5432 18.7384 23.6004C18.738 23.6003 18.7376 23.6002 18.7372 23.6001ZM47.9849 7.17715C47.981 7.18033 47.9766 7.18202 47.9719 7.1824C47.9763 7.18086 47.9804 7.17849 47.9849 7.17715ZM27.1829 0.0442113C27.187 0.0518199 27.1895 0.0595098 27.1897 0.0670785C27.1878 0.0597959 27.1845 0.0522462 27.1829 0.0442113ZM22.7622 24.8468C22.8826 25.3597 23.3716 25.1715 23.0534 24.8791C23.0352 24.8635 22.81 24.8554 22.7622 24.8468Z" fill="var(--stroke-0, #467603)"/>
</svg>
