<svg preserveAspectRatio="none" width="100%" height="100%" overflow="visible" style="display: block;" viewBox="0 0 35.1752 16.6614" fill="none" xmlns="http://www.w3.org/2000/svg">
<path id="Vector 78" d="M24.9738 2.67372C26.6593 3.70939 28.2709 4.80796 29.7395 6.29435C29.7854 6.34236 29.8127 6.38359 29.8287 6.41955C29.8631 6.51689 29.8049 6.57893 29.8274 6.6215C29.9085 6.77504 30.0971 6.72731 30.1746 6.82134C30.5522 7.27852 30.934 7.68579 31.3184 8.14087C31.7151 8.61126 31.1995 8.71923 31.2748 8.94515C31.4212 9.38826 31.5758 8.73211 31.7835 8.75822C31.9352 8.93389 32.0844 9.1178 32.2311 9.30776C32.3817 9.50488 32.5238 9.69896 32.6642 9.88768C32.5494 9.84755 32.4345 9.80484 32.32 9.75808C32.4507 9.90985 32.5858 10.1727 32.2463 10.0408C32.2684 10.1223 32.2821 10.2052 32.3066 10.2872C32.4699 10.1563 32.7265 10.3883 32.8352 10.3207C32.9439 10.254 32.7878 10.1403 32.7961 10.133C32.9127 10.0364 33.3258 10.723 33.3586 10.7703C33.4374 10.9031 33.1677 11.0083 33.2735 11.0808C33.4574 11.2052 33.6896 10.7101 33.4571 11.4331C33.6945 11.3364 33.6252 11.4326 33.7304 11.5398C33.7443 11.5539 33.8161 11.4424 33.8249 11.4452C34.0598 11.5106 33.7723 11.5922 33.7645 11.603C33.6379 11.791 33.8922 11.8664 33.9198 11.9147C33.9629 11.9915 34.0057 12.0655 34.0489 12.1373C34.1258 12.1848 34.2558 12.3742 34.301 12.4526C34.3617 13.1158 34.3693 13.6146 34.4844 14.2571C34.5141 14.4149 34.7145 14.8688 34.7081 15.0279C34.703 15.1841 34.5272 15.1385 34.4673 15.2314C34.875 15.2743 34.9428 15.3885 34.7444 15.7152C34.8149 15.7267 34.8562 15.7372 34.8793 15.749C34.88 15.7515 34.8809 15.7592 34.8816 15.7617C34.9555 15.8024 34.8385 15.849 34.9054 16.0026C34.9787 16.1678 35.3506 16.4484 35.0747 16.6614C35.0828 16.442 34.9464 16.4757 34.8355 16.2405C34.8183 16.204 34.7817 15.9824 34.7105 15.7899C34.6283 15.5756 34.5139 15.3862 34.3721 15.4479C34.23 15.5093 34.4195 15.7489 34.3939 15.7648C34.2455 15.8559 34.0201 15.7455 34.0628 15.6011C34.1016 15.6272 34.1422 15.6604 34.1814 15.6891C34.3222 15.3532 33.5962 15.7127 34.2204 15.3515C34.2968 15.3067 34.3847 15.2997 34.4623 15.2352C34.4242 15.2334 34.3465 15.3083 34.3204 15.2633C34.294 15.2176 34.4435 15.0872 34.2975 15.104C34.0853 15.1284 34.2105 15.3137 34.2014 15.3319C34.2027 15.3318 34.2039 15.3317 34.2052 15.3316C34.1228 15.4897 34.0514 15.2102 34.0285 15.2014C33.8802 15.1428 33.7934 15.223 33.6582 15.1184C33.5814 15.0591 33.5746 14.8667 33.5384 14.8039C33.5021 14.7417 33.4295 14.8695 33.3977 14.8296C33.3658 14.79 33.4263 14.7161 33.3888 14.6698C33.3724 14.6501 33.264 14.679 33.2574 14.6692C33.186 14.5652 33.4316 14.582 33.3901 14.4806C33.3629 14.4134 33.0906 14.2503 33.0712 14.4207C33.0291 14.3535 32.9928 14.2875 32.9544 14.2212C32.936 14.2758 32.9278 14.3287 32.9027 14.3835C32.9152 14.2337 32.7127 14.2295 32.6738 14.1532C32.6349 14.0775 32.8295 13.9316 32.6925 13.8798C32.4029 13.7738 32.6646 14.1948 32.6393 14.2699C32.6301 14.2973 32.4309 14.2635 32.4219 14.2525C32.3822 14.2013 32.4827 14.093 32.4621 14.0501C32.3876 13.8978 32.1932 13.8628 32.1069 13.7389C32.0564 13.6666 32.0044 13.5939 31.9517 13.5227L32.4881 14.1936C31.9366 13.8898 31.3531 13.4858 30.9266 13.1304C30.7345 12.9707 30.7612 12.7297 30.679 12.6576C30.4875 12.4887 30.348 12.5849 30.1859 12.4347C29.9983 12.261 29.8323 11.9656 29.6991 11.7504C29.664 11.6921 29.6296 11.6387 29.5965 11.5948C29.4939 11.4587 29.2693 11.4616 29.2353 11.4329C28.7579 11.034 28.2044 10.4872 27.8222 10.1131C27.6422 9.93717 27.6844 9.72353 27.6435 9.69065C27.4681 9.54891 27.4016 9.70151 27.283 9.56176C27.2188 9.48622 27.3108 9.36751 27.3055 9.35408C27.2576 9.23716 27.1038 9.35855 27.0348 9.29859C27.0194 9.28524 27.0042 9.27173 26.9892 9.25806C26.7126 9.01575 26.4465 8.62763 26.1116 8.32729C26.0859 8.30413 26.143 8.23956 26.1227 8.22857C26.0352 8.1841 25.9841 8.31766 25.9003 8.26203C25.7255 8.14712 25.5709 7.99558 25.4056 7.84544C25.3892 7.83056 25.4493 7.73692 25.409 7.70568C25.3681 7.67413 25.2745 7.73462 25.2148 7.68156C25.0586 7.54314 24.9697 7.31946 24.7948 7.18269C24.7659 7.16027 24.6506 7.24137 24.6073 7.20808C24.4715 7.10366 24.3348 6.85774 24.2165 6.77004C23.8265 6.48117 23.4141 6.29931 23.0381 6.06824C22.9508 6.01425 22.9352 5.86043 22.8911 5.83062C22.7906 5.76345 22.8088 5.90997 22.7039 5.84885C22.3456 5.64043 21.9833 5.43796 21.6752 5.2974C20.9923 4.9898 20.4767 4.71087 19.926 4.48664C19.5527 4.3314 19.0617 4.27328 18.7075 4.11706C18.5608 4.05183 18.5841 3.88961 18.4746 3.85211C18.2804 3.78723 18.1825 3.9735 17.9708 3.93064C17.801 3.89625 17.6698 3.64315 17.4892 3.60667C17.3982 3.58841 17.3186 3.62505 17.2338 3.66076C17.163 3.69729 17.0861 3.73275 16.9912 3.72163C16.8336 3.70307 16.6306 3.56454 16.4517 3.54358C14.7981 3.35234 13.1393 3.31801 11.4424 3.22824C10.8415 3.19693 10.1838 3.28022 9.54218 3.16454C9.48486 3.15427 9.53926 2.97197 9.39179 3.00622C9.38228 3.00838 9.372 3.01135 9.36087 3.01519C9.25602 3.05171 9.13007 3.23737 8.88719 3.27987C7.46565 3.53494 5.78013 3.41682 4.75881 3.92936C4.55799 4.03338 4.4103 4.16895 4.34627 4.28922C3.13022 5.72138 2.80321 7.25368 0.858592 7.69993C0.747448 7.73271 0.282249 7.58903 0.164261 7.4971C0.272718 7.47568 0.397228 7.46985 0.517814 7.46036C-0.0370503 7.20931 0.106664 7.26003 0.251932 7.0492C0.344284 6.92037 0.0563323 6.93152 0.0242383 6.82172C-0.0243205 6.68035 -0.0264658 6.04887 0.276024 6.33809C0.23148 6.27478 0.188361 6.21533 0.1455 6.15288C0.290545 5.77837 0.421878 5.40372 0.566734 5.01839C0.591065 4.9526 0.492523 4.87369 0.520102 4.80477C0.59362 4.61975 0.753728 4.55338 0.86949 4.39601C0.932543 4.311 0.832168 4.20366 0.931225 4.10458C1.03247 4.00431 1.17359 4.14105 1.14546 3.85508C0.877898 3.77916 1.39131 3.49149 1.52141 3.34553C1.54 3.32377 1.554 2.99943 1.66451 2.93097C1.77434 2.86165 2.00989 2.83705 2.10176 2.64864C2.14447 2.56052 2.07448 2.39227 2.14298 2.32051C2.19146 2.26989 2.35546 2.33227 2.42646 2.28152C2.47243 2.24858 2.51669 2.14546 2.55054 2.07012C2.57861 2.02133 2.60245 1.9828 2.61508 1.97222C2.74418 1.8651 2.66203 2.06085 2.75485 1.99909C3.20644 1.6997 3.73143 1.52938 4.11983 1.31147C4.16776 1.28474 4.05381 1.19069 4.05896 1.18434C4.36071 0.912043 4.22619 1.1361 4.3561 1.21192C4.48228 1.28012 5.10721 1.0418 5.05741 0.830215C5.14674 1.09306 5.2358 0.852788 5.27204 0.835872C5.41082 0.770438 5.43411 1.01114 5.55711 0.9071C5.60269 0.869176 5.46666 0.733774 5.52324 0.725894C5.66102 0.707084 5.83622 0.935456 6.01864 0.925031C6.06193 0.922818 6.05273 0.806377 6.12962 0.795233C6.20837 0.783295 6.55003 0.863956 6.35869 0.650937C6.58674 0.807988 6.60665 0.695106 6.8294 0.662027C6.88722 0.653787 6.98899 0.82589 7.09915 0.748994C7.13627 0.722962 7.10708 0.545274 7.16697 0.534028C7.30493 0.507708 7.46479 0.671079 7.64195 0.651374C7.97161 0.615275 8.30098 0.435432 8.64758 0.434484C8.74218 0.434323 8.74456 0.616699 8.878 0.601956C8.89212 0.600022 8.96894 0.507296 9.04752 0.456467C9.07874 0.43672 9.10999 0.423307 9.13737 0.423854C9.19734 0.424404 9.50793 0.497239 9.56985 0.499614C9.671 0.502464 9.66983 0.326602 9.72822 0.354781C9.89646 0.436499 9.79471 0.705809 9.95094 0.336012C10.0326 0.524368 10.1412 0.494803 10.1973 0.731441C10.2378 0.463184 10.3442 0.708239 10.4609 0.610645C10.5768 0.513035 10.6475 -0.00351 10.7144 0.542742C10.7685 0.471871 11.0104 0.343501 11.0534 0.333228C11.177 0.303376 11.1179 0.458507 11.2103 0.43358C11.2266 0.429433 11.2046 0.326225 11.3107 0.331968C11.382 0.334459 11.8923 0.326516 11.9228 0.341513C12.271 0.49915 11.7365 0.447061 11.6635 0.562929C11.6497 0.533756 11.6359 0.504494 11.621 0.475719C11.4672 0.431383 11.5619 0.663285 11.6315 0.71575C11.7008 0.76815 11.8281 0.660528 11.8863 0.736623C11.9153 0.774831 11.9029 1.05649 11.8175 1.0243C11.91 1.10908 11.7883 1.20324 11.8259 1.28394C11.867 1.37152 12.2689 1.39447 12.2705 1.24013C12.1953 1.23494 12.1011 1.24107 12.0239 1.23575C11.9166 0.967795 12.2205 0.0415517 12.512 0.411694C12.7179 0.680093 12.3725 0.886388 12.8652 0.670988C12.7905 0.65861 12.7262 0.632369 12.6581 0.620206C12.653 0.417912 12.7623 0.64173 12.8206 0.5786C12.8492 0.547646 12.6802 0.401414 12.8301 0.356494C12.9511 0.648174 13.0558 0.359491 13.2707 0.363825C13.2096 0.413149 13.1484 0.462419 13.0873 0.51217C13.4389 0.733174 12.608 0.775691 13.2953 0.915772C13.2129 0.921882 13.1305 0.9166 13.0462 0.928405C13.0836 1.03562 13.0101 1.34503 13.044 1.41184C13.1329 1.58717 13.2696 1.48783 13.3841 1.50807C13.4334 1.51664 13.3989 1.59928 13.4031 1.59995C13.4701 1.61233 13.4609 1.48853 13.5205 1.48356C13.5943 1.47709 13.8056 1.60933 13.8397 1.59806C13.9314 1.56897 13.7976 1.31675 13.8068 1.2992C13.8715 1.18504 13.9852 1.29057 13.9894 1.13645C13.6974 1.21992 12.8675 1.04996 13.6367 0.829612C13.4417 0.570764 13.5125 0.229299 13.8264 0.220067C14.0818 0.213222 13.9092 0.340246 14.0317 0.499882C14.0483 0.519416 14.3793 0.617079 14.4059 0.512591C14.3724 0.75687 14.4613 0.98329 14.3679 1.23032C14.3545 1.26654 14.2206 1.24091 14.2513 1.44835C14.2668 1.55251 14.3144 1.78057 14.2927 1.90986C14.3272 1.8216 14.364 1.7222 14.3997 1.6302C14.6014 1.62153 14.62 1.72216 14.7101 1.90144C14.7126 1.83064 14.6409 1.52459 14.7858 1.63029C14.793 1.6365 14.7892 1.74321 14.86 1.80407C15.0017 1.92631 15.0305 1.9631 14.8778 2.26095C15.2158 2.11995 15.2374 2.47444 15.5715 2.4186C15.5665 2.01139 15.436 2.09201 15.129 2.13224C15.1278 2.03564 15.1332 1.94082 15.1314 1.84317C15.5057 2.10881 15.305 2.06123 15.5608 1.8998C15.6218 1.8597 15.9111 1.95508 15.8531 1.67215C15.8397 1.60534 15.6511 1.58505 15.6874 1.48884C15.6925 1.46994 15.9304 1.45623 15.9449 1.4851C16.1445 1.84267 15.6679 1.98751 16.3629 1.98868C16.3824 1.98871 16.4101 1.8746 16.4497 1.86531C16.5244 1.84818 16.4981 1.9814 16.5663 1.96248C16.6348 1.9436 16.7523 1.78049 16.8133 1.96532C16.9165 2.3004 16.4927 2.3932 16.3498 2.20278C16.221 2.55281 17.2594 2.79939 17.4526 2.8364C17.469 2.83883 17.4806 2.83965 17.4866 2.83874C17.6961 2.80708 17.6034 2.77269 17.4815 2.72758C17.3969 2.69541 17.2915 2.65776 17.2908 2.60808C17.2908 2.55966 17.4372 1.97973 17.207 2.32367C17.1402 2.42591 17.2751 2.61354 17.1596 2.6512C17.0426 2.68875 17.1235 2.52711 17.1186 2.51334C17.1043 2.46672 16.98 2.50552 16.9708 2.47802C16.8327 2.06088 16.9749 1.50502 17.0859 2.39562C17.256 2.23843 17.0272 1.87436 17.2178 1.78454C17.4524 1.67621 17.5326 1.97812 17.5517 1.99562C17.6112 2.04407 17.6413 2.05784 17.6605 2.053C17.7306 2.03709 17.6441 1.78674 17.8988 1.95821C18.0794 2.08125 17.5313 2.13145 17.9928 2.23195C18.378 2.31869 18.2121 2.12776 18.3271 1.83305C18.3539 1.76417 18.5917 1.73917 18.2931 1.68635C18.2623 1.76279 18.217 1.86223 18.1778 1.92969C18.1257 1.85251 18.1165 1.42397 18.081 1.39939C17.95 1.30783 17.8918 1.41719 17.851 1.33551C17.8403 1.3135 17.8306 1.27744 17.82 1.21939C17.8309 1.50592 17.741 1.31136 17.678 1.35544C17.4454 1.51838 17.6659 1.65151 17.3231 1.28967C17.3474 1.42712 17.3657 1.56096 17.3872 1.69779C17.3377 1.69058 17.2894 1.68404 17.2412 1.67762C17.2302 1.38419 16.9659 1.3643 17.2599 1.13625C16.992 0.994669 16.8629 1.03391 16.7596 1.23804C16.7401 1.27712 16.6928 1.28509 16.6431 1.27984C16.6409 1.3425 16.6169 1.53286 16.605 1.5545C16.5001 1.74479 16.4559 1.37415 16.5171 1.24684C16.483 1.23402 16.4561 1.22146 16.4475 1.21656C16.3903 1.1849 16.5314 1.08494 16.4894 1.03455C16.4763 1.01807 16.2957 1.01399 16.2998 0.96408C16.3326 0.644909 16.586 0.919075 16.029 0.64091C15.97 0.927072 16.2516 0.906991 16.1321 1.20219C16.0048 1.51911 15.9258 1.05438 15.8312 1.4539C15.829 1.38558 15.8319 1.3293 15.8326 1.252C15.576 1.39439 15.62 1.05748 15.5575 0.972914C15.4383 0.807007 14.7926 0.753514 15.3317 1.1153C15.2438 1.13394 15.159 1.13749 15.0717 1.15369C15.1213 0.545233 15.1474 0.790174 14.7485 0.655755C14.6616 0.62654 14.6561 0.356229 14.5379 0.665881C14.5779 0.354944 14.2948 0.520622 14.2719 0.481138C14.1266 0.221218 14.7657 -0.0709805 14.7866 0.489117C14.908 0.284823 14.8808 0.568238 14.9959 0.54262C15.1604 0.505898 15.1957 0.453971 15.3586 0.685718C15.5857 0.413366 14.6311 0.470591 15.2443 0.145015C15.6068 -0.0452739 16.9176 -0.0557852 18.1635 0.158175C18.9933 0.293355 19.7571 0.492032 20.0842 0.582613C21.4573 0.954194 22.2929 1.31665 23.1826 1.71937C23.214 1.7329 23.2455 1.74679 23.2772 1.76104C23.4426 1.81971 24.3971 2.2868 24.0349 2.48533C23.9862 2.51348 23.5365 2.42444 23.7426 2.83657C23.7509 2.66107 23.9905 2.67282 24.015 2.66766C24.5639 2.54112 24.4081 2.33997 24.9738 2.67372ZM24.795 6.21017C24.2259 5.71839 24.5464 6.22036 24.1265 6.55757C24.2027 6.61182 24.2788 6.66644 24.3547 6.7216C24.3532 6.6809 24.3517 6.64046 24.35 6.59973C24.3499 6.59967 24.3499 6.59961 24.3498 6.59954C24.4974 6.46909 24.646 6.3394 24.795 6.21017ZM32.7858 14.6246C32.713 14.6159 32.6403 14.608 32.5684 14.5978C32.5648 14.5051 32.56 14.4135 32.5544 14.3221C32.6017 14.319 32.6494 14.3154 32.6967 14.3126C32.7255 14.4157 32.7527 14.52 32.7858 14.6246ZM16.2337 2.2579C16.129 2.04779 16.0837 2.38196 15.9266 2.20069C15.9098 2.45012 15.8953 2.69448 15.8781 2.94142C16.0159 2.92694 16.0661 2.83943 16.2 2.92529C16.1973 2.84348 16.193 2.76093 16.1911 2.67882C16.164 2.69142 16.1347 2.7061 16.1084 2.71695C16.1088 2.48955 16.3513 2.49871 16.2343 2.25748C16.2341 2.25762 16.2339 2.25776 16.2337 2.2579ZM14.8047 2.15731C14.7333 2.11646 14.449 1.96648 14.3976 2.06592C14.2326 2.40049 15.0772 2.26019 14.4407 2.51023C14.4389 2.55933 14.4317 2.60693 14.4272 2.65529C14.5356 2.6826 14.6425 2.7082 14.7514 2.73379C14.7662 2.54082 14.7907 2.35135 14.8047 2.15731ZM22.5314 4.81997C22.4422 4.73873 21.9252 4.68107 21.9803 4.95045C21.9907 5.02536 22.3236 4.83316 22.398 4.88729C22.4445 4.92099 22.3091 5.04652 22.4354 5.03996C22.4664 4.96983 22.5029 4.89313 22.5309 4.82029C22.531 4.82018 22.5312 4.82008 22.5314 4.81997ZM23.1946 4.028C23.0722 3.9968 22.9434 3.97354 22.8177 3.94729C22.8106 4.16463 23.0209 4.13174 22.9003 4.38319C22.861 4.38618 22.8225 4.38957 22.7839 4.39326C22.79 4.32778 22.7963 4.26241 22.8023 4.19706C22.642 4.28534 22.6622 4.37863 22.5147 4.25773C22.4329 4.68681 22.3377 4.88794 22.8187 4.66187C22.6597 4.83591 22.3509 5.51322 22.7581 5.13116C22.8352 5.06098 22.7465 4.93647 22.7527 4.92219C22.8274 4.74036 22.9554 4.6683 23.0241 4.49547C23.0549 4.41708 22.978 4.37666 23.0215 4.26858C23.0427 4.2157 23.1936 4.11403 23.1946 4.028ZM22.9227 5.00988C22.8337 5.09557 22.801 5.39932 22.9182 5.40183C23.104 5.40811 23.0158 5.0466 22.9227 5.00988ZM32.7862 14.6252C32.7861 14.625 32.7859 14.6248 32.7858 14.6246C32.7861 14.6247 32.7863 14.6247 32.7866 14.6247C32.7865 14.6249 32.7863 14.625 32.7862 14.6252ZM15.171 2.33783C15.0718 2.42666 14.9458 2.39726 14.9366 2.55724C14.8978 2.52111 14.8586 2.48558 14.8205 2.44977C14.8156 2.49762 14.8111 2.54561 14.8063 2.59297C14.9289 2.63657 15.0496 2.68114 15.1721 2.72747C15.1726 2.59784 15.174 2.46786 15.171 2.33783ZM13.784 2.0958C13.6234 2.06985 13.7459 2.29527 13.7042 2.39803C13.6633 2.50073 13.5245 2.40758 13.5335 2.55909C13.6278 2.56992 13.7249 2.58157 13.8181 2.59306C13.804 2.42778 13.7973 2.25997 13.7837 2.09578C13.7838 2.09578 13.7839 2.09579 13.784 2.0958ZM27.0801 8.21416C27.0313 8.10869 27.1721 8.01029 26.8837 8.01875C26.8838 8.01886 26.884 8.01896 26.8841 8.01906C26.9503 8.2546 27.06 8.51286 27.3036 8.56091C27.3293 8.34533 27.1563 8.37976 27.0801 8.21416ZM16.5172 2.80937C16.5886 2.68919 16.3979 2.54 16.331 2.65232C16.2216 2.8332 16.4119 2.99188 16.5172 2.80937ZM31.1352 10.5774C31.397 10.4779 31.5323 10.2187 31.4987 10.0143C31.478 9.89564 31.4004 9.79446 31.2599 9.75369C31.2266 9.74415 31.2924 9.99549 31.1891 10.003C31.1789 10.0036 31.0993 9.90866 31.0377 9.92644C30.976 9.94429 30.9049 10.0589 30.8311 10.0623C30.7014 10.0676 30.689 9.80251 30.5536 9.84561C30.5357 9.85151 30.4976 10.0616 30.4981 10.0716C30.5109 10.2348 30.7583 10.1593 30.773 10.1721C30.8487 10.2379 30.7094 10.3525 30.6971 10.4002C30.6736 10.4897 30.7882 10.4935 30.7881 10.5019C30.7796 10.719 30.573 10.4422 30.4941 10.455C30.2823 10.4894 30.2477 10.685 29.9683 10.5438C29.9418 10.5303 29.7106 10.2838 29.8686 10.727C28.9832 10.434 29.9959 11.1906 30.1497 11.2216C30.2234 11.2362 30.2813 11.0498 30.3628 11.0232C30.4037 11.0099 30.4415 11.0035 30.4774 10.9996C30.6069 10.9877 30.7136 11.0096 30.8458 10.8673C31.0398 10.6579 31.0138 10.5912 30.9453 10.5482C30.8885 10.5127 30.8017 10.4935 30.7871 10.4214C30.8782 10.3523 30.9613 10.279 31.0594 10.2207C30.9857 10.2614 31.0063 10.3672 31.0441 10.4529C31.0759 10.5249 31.1208 10.5833 31.1345 10.5781C31.1347 10.5778 31.135 10.5776 31.1352 10.5774ZM29.203 9.48469C29.178 9.23894 28.9564 9.48351 28.9643 9.22676C28.6471 9.32997 28.8771 9.52843 28.8906 9.56519C28.9531 9.73141 28.7247 9.9583 28.9113 10.0031C29.0047 9.82766 29.107 9.65826 29.203 9.48469ZM30.2718 10.7402C30.0652 10.7681 30.2238 10.9255 30.207 10.9541C30.0344 11.2611 29.6131 10.74 30.2718 10.7402ZM22.1904 3.92725C22.1336 3.8906 22.109 4.05409 22.0361 4.07393C21.9614 4.09373 21.8349 3.88694 21.7987 3.97959C21.7598 4.0718 21.9981 4.46132 21.6314 4.35847C21.6199 4.41467 21.5988 4.45094 21.5836 4.49955C21.6772 4.54348 21.7739 4.5891 21.8726 4.63306C21.8812 4.4615 21.8955 4.28281 21.909 4.11856C22.0132 4.02456 21.9772 4.18811 21.9801 4.18938C21.9802 4.18922 21.9802 4.18907 21.9803 4.18891C22.0361 4.2057 22.1311 4.15331 22.1849 4.08748C22.2108 4.05373 22.2282 4.01751 22.2276 3.98622C22.2262 3.96351 22.215 3.94303 22.1904 3.92725ZM26.0934 6.99864C26.3543 6.69449 25.9612 6.95518 25.8837 6.95825C25.8057 6.96066 25.829 6.79209 25.7495 6.94808C25.755 7.10152 26.0642 7.03236 26.0937 6.99824C26.0936 6.99837 26.0935 6.99851 26.0934 6.99864ZM28.4655 8.75892C28.2834 8.7154 28.2281 8.80713 28.1726 8.58473C28.1098 8.65871 28.0456 8.73418 27.9838 8.80714C28.0932 8.91853 28.2831 8.71129 28.3317 8.91819C28.3395 8.95221 28.1368 9.06723 28.2824 9.10969C28.3389 8.99725 28.4044 8.87515 28.4655 8.75892ZM27.6584 8.46271C27.6845 8.48395 27.7303 8.48099 27.7838 8.46371C27.9704 8.41849 28.2353 8.21394 28.097 8.15067C28.0707 8.13975 28.0275 8.13491 27.9627 8.13855C27.8895 8.14111 27.5612 8.38431 27.6584 8.46271ZM23.6539 4.66883C23.4036 4.49306 23.6366 4.77865 23.6413 4.9232C22.9871 4.64318 23.7298 4.93579 23.575 5.31367C23.7069 5.26137 23.9836 5.12792 23.8679 4.97276C23.8192 4.90816 23.7797 5.02397 23.7761 5.02113C23.6746 4.92365 23.7911 4.76625 23.6539 4.66883ZM29.4516 9.7026C29.4391 9.69857 29.3573 9.80766 29.3118 9.80074C29.2663 9.79353 29.2727 9.66701 29.2084 9.72015C29.144 9.77377 29.2192 9.93877 29.2988 9.93187C29.3789 9.9247 29.5635 9.73993 29.4516 9.7026ZM28.8339 8.62671C28.6547 8.58639 28.4863 9.1198 28.5122 9.142C28.7427 9.33276 28.7168 8.73263 28.8339 8.62671ZM24.7181 4.33763C24.2586 4.34312 24.2621 4.86611 24.309 5.21159C24.364 5.18367 24.4198 5.15627 24.4741 5.12869C24.178 5.3233 23.8028 5.4597 24.4054 5.51903C24.2028 5.29223 24.4562 5.35584 24.4683 5.34192C24.828 4.86313 24.3023 4.84965 24.7184 4.33781C24.7183 4.33775 24.7182 4.33769 24.7181 4.33763ZM29.7097 10.1581C29.8268 10.271 30.1966 10.4956 30.2423 10.173C30.0646 10.1674 29.8872 10.1627 29.7097 10.1581ZM19.0212 1.73445C18.935 1.55078 18.8124 1.51527 18.6493 1.47665C18.7317 1.72759 18.6292 1.72264 18.5657 1.75898C18.4694 1.81345 18.6489 1.86048 18.6446 1.87457C18.582 2.07075 18.4594 2.06613 18.7171 2.14045C18.6336 2.18949 18.5483 2.23889 18.4666 2.28858C18.6571 2.35618 18.6614 2.49863 18.7324 2.69332C18.7377 2.27454 18.8132 2.56131 19.0174 2.41883C19.1202 2.34761 19.0648 1.82795 19.0207 1.73429C19.0209 1.73435 19.021 1.7344 19.0212 1.73445ZM24.4261 4.05631C24.354 4.09638 24.2717 4.16022 24.1961 4.2105C24.1569 4.19547 24.1184 4.17994 24.0785 4.1648C24.1073 4.10763 24.1383 4.04837 24.165 3.9928C24.1274 3.94819 24.0997 4.03539 24.0814 4.03405C24.0816 4.03376 24.0818 4.03346 24.082 4.03317C23.8211 4.01353 23.7486 3.95617 23.6836 3.69216C23.5873 3.86232 23.491 4.03247 23.3946 4.20263C23.4387 4.20617 23.4833 4.21067 23.5277 4.21532C23.5986 4.13493 23.6698 4.05468 23.7414 3.97477C23.7531 4.0486 23.7644 4.12194 23.7756 4.19593C23.8279 4.18295 23.8865 4.17167 23.9335 4.15699C23.8116 4.72117 23.6394 4.18526 23.5211 4.38013C23.4461 4.50397 23.8093 4.71353 23.9131 4.6608C23.9285 4.65303 24.0639 4.25813 24.0849 4.52065C24.0886 4.56237 23.6282 5.31224 24.1476 4.79737C24.2219 4.72473 24.4456 4.21868 24.4261 4.05631ZM23.1486 3.01144C23.1388 3.62698 22.5226 2.68861 22.7085 3.28135C22.4969 3.47061 22.5225 3.47791 22.5293 3.73268C22.5295 3.75528 22.4312 3.78916 22.4336 3.80021C22.4762 3.95735 22.6091 3.9464 22.5118 4.15518C22.5412 4.15557 22.5691 4.15692 22.5977 4.15721C22.593 3.91379 22.8143 3.85864 22.9635 3.72932C23.0308 3.67036 22.9736 3.61287 23.0314 3.5607C23.0533 3.54187 23.1243 3.63759 23.1628 3.57206C23.2498 3.42367 23.2977 3.18635 23.2447 3.01839C23.2448 3.01824 23.2449 3.01809 23.2449 3.01793C23.2128 3.01456 23.1806 3.01393 23.1486 3.01144ZM27.2707 6.31871C27.1076 6.58725 27.1778 6.75762 26.839 6.68106C26.813 6.73869 26.7874 6.79614 26.7611 6.85363C26.8056 6.88231 26.8476 6.90922 26.8923 6.9391C27.5969 6.32889 27.1687 7.31882 27.4362 6.69575C27.4649 6.62769 27.3163 6.60788 27.5356 6.53961C27.5356 6.53936 27.5356 6.53912 27.5355 6.53888C27.3631 6.47344 27.2755 6.54458 27.2707 6.31871ZM26.2134 5.7742C25.5039 6.06117 26.4322 6.39649 26.4121 6.16483C26.4102 6.14282 25.9996 6.00924 26.2134 5.7742ZM29.0805 7.45292C28.9629 7.31967 28.7047 7.56113 28.6274 7.66386C28.5498 7.76688 28.7285 7.76289 28.7255 7.78833C28.7155 7.87197 28.6065 7.82516 28.5902 7.93716C28.5851 7.97385 28.7173 8.28277 28.7383 8.28202C28.8541 8.27773 28.9771 7.98907 29.0167 7.98132C29.146 7.95544 29.1105 8.13368 29.2347 8.03845C29.5001 7.83555 29.1233 7.95139 29.0969 7.93317C29.0184 7.87739 29.1555 7.75105 29.1313 7.67451C29.1073 7.59809 29.0294 7.61065 28.9944 7.55713C28.9827 7.53932 29.0861 7.46011 29.0805 7.45292ZM28.1299 7.56977C28.4514 7.50228 28.3059 6.97281 28.2188 6.98172C27.9768 7.01595 27.9781 7.6014 28.1299 7.56977ZM23.3094 4.05367C23.5563 3.96864 23.2761 3.63381 23.1333 3.64965C23.1172 3.73134 23.2263 4.08314 23.3094 4.05367ZM24.8066 4.39648C24.6394 4.35964 24.5791 4.84148 24.6904 4.90738C24.9137 4.71101 24.8217 4.718 24.7562 4.66063C24.6904 4.60307 24.9372 4.42588 24.8066 4.39648ZM30.2339 9.04043C30.2128 9.01307 29.657 8.79884 29.8114 9.08934C29.8233 9.11127 30.125 9.3502 30.1766 9.33918C30.2809 9.31666 30.2872 9.1109 30.2339 9.04043ZM25.6846 4.47678C25.4727 4.63211 25.4065 4.58274 25.3051 4.86693C25.3052 4.86699 25.3053 4.86706 25.3054 4.86712C25.0796 4.82042 25.4061 4.32159 25.3602 4.30579C25.1997 4.25173 25.0907 4.69023 24.9289 4.74954C25.1963 4.77152 24.9802 4.97125 25.1157 5.08596C25.146 5.11138 25.374 5.06138 25.4544 4.98765C25.5347 4.91371 25.6501 4.60458 25.6846 4.47678ZM30.8274 9.54232C30.763 9.34332 30.3594 9.5098 30.4957 9.73576C30.5616 9.84598 30.8665 9.66352 30.8274 9.54232ZM14.6848 0.720545C14.7034 0.828376 14.7223 0.935853 14.7421 1.04292C14.6718 1.06156 14.6008 1.08096 14.5294 1.10058C14.587 1.0723 14.6444 1.04469 14.7019 1.01726C14.5776 0.968206 14.5341 0.771479 14.6844 0.720512C14.6845 0.720523 14.6847 0.720534 14.6848 0.720545ZM10.0217 0.638689C9.95309 0.543038 9.86861 0.867962 9.88604 0.890896C10.0136 1.06172 10.1157 0.771414 10.0217 0.638689ZM23.5328 3.08763C23.3487 2.94204 23.2549 3.46933 23.3573 3.5638C23.3285 3.43756 23.6369 3.17126 23.5328 3.08763ZM11.6635 0.562929C11.6843 0.606365 11.7055 0.649821 11.7285 0.69332C11.6577 0.633933 11.6448 0.593213 11.6635 0.562929ZM30.4893 8.65752C30.4937 8.60665 30.3453 8.41492 30.2881 8.4268C30.1684 8.45234 30.1037 8.78507 30.2431 8.80045C30.2584 8.80243 30.4847 8.70817 30.4889 8.65716C30.4891 8.65728 30.4892 8.6574 30.4893 8.65752ZM14.4076 0.498808C14.4075 0.503722 14.4069 0.508361 14.4059 0.512591C14.4065 0.508062 14.4068 0.503349 14.4076 0.498808ZM5.04962 0.808073C5.053 0.815405 5.0557 0.822846 5.05741 0.830215C5.05503 0.823159 5.052 0.81587 5.04962 0.808073ZM29.5946 7.16445C29.8824 6.76305 29.5712 6.81906 29.5025 7.091C29.4993 7.10566 29.5817 7.15029 29.5946 7.16445Z" fill="var(--stroke-0, #467603)"/>
</svg>
