<svg preserveAspectRatio="none" width="100%" height="100%" overflow="visible" style="display: block;" viewBox="0 0 43.9107 29.9962" fill="none" xmlns="http://www.w3.org/2000/svg">
<path id="Vector 77" d="M4.48767 15.6533C4.60784 16.0813 4.73725 16.463 4.91037 17.0037C5.20961 18.0969 5.82029 19.203 5.86423 19.0983C7.26202 20.1122 7.39743 20.9293 7.66419 21.1877C7.76534 21.3291 7.77277 21.2782 7.60222 21.1965C7.42886 21.1136 7.25389 21.1401 7.30607 21.1385C9.01171 20.9091 9.87515 21.605 10.5165 21.969C10.9743 22.2718 10.8452 22.3658 10.9536 22.4605C11.2337 22.7175 11.4986 22.7058 11.6922 22.8603C12.3946 23.4331 13.0267 23.8665 13.3748 23.9884L13.1259 23.9364C13.3747 23.9811 13.6113 24.021 13.8603 24.0595C14.9587 24.2157 14.4126 24.6035 14.7944 24.7379C15.5621 24.983 14.9286 24.3815 15.2313 24.2649C16.1004 24.33 16.9655 24.3537 17.905 24.3448C17.6809 24.415 17.4626 24.483 17.2394 24.5461C17.6334 24.5341 18.2256 24.578 17.5572 24.7761C17.7115 24.8069 17.8509 24.8451 18.0128 24.8735C18.0344 24.6623 18.7776 24.5914 18.8482 24.4653C18.9103 24.3371 18.4803 24.3931 18.4833 24.3826C18.4625 24.2102 20.3803 24.3585 20.5612 24.4424C20.9515 24.5317 20.5767 24.7468 20.9056 24.7746C21.459 24.8463 21.2411 24.2481 21.8029 25.1265C22.1597 25.0024 22.1569 25.1238 22.4995 25.2825C22.5453 25.3043 22.5611 25.1678 22.5833 25.1736C23.1518 25.3248 22.6418 25.3605 22.6418 25.375C22.5987 25.5965 23.17 25.7752 23.2594 25.8584C23.3059 25.8971 23.3519 25.9362 23.3975 25.9755C24.3794 26.8622 25.1261 27.517 26.3211 28.2203C26.5894 28.3814 27.4745 28.7198 27.7305 28.8741C27.9832 29.0304 27.7724 29.1129 27.8828 29.2475C28.2706 28.9904 28.489 29.0435 28.9138 29.4782C29.2041 29.2805 29.0991 29.4909 29.4875 29.5585C29.8171 29.6173 30.4124 29.4206 30.6855 29.7534C30.3092 29.6602 30.3237 29.8075 29.8586 29.7738C29.6991 29.7891 28.1811 29.2271 28.1824 29.5256C28.1823 29.6925 28.7469 29.7659 28.7567 29.7969C28.8172 29.9932 28.4538 30.0736 28.2226 29.9029C28.2991 29.8986 28.3884 29.8983 28.4687 29.8944C27.9757 29.4763 28.063 30.3577 27.8995 29.5455C27.8803 29.4456 27.9355 29.3743 27.8854 29.2549C27.8527 29.2807 27.9216 29.411 27.8238 29.3858C27.724 29.36 27.6211 29.1225 27.5341 29.2433C27.4057 29.4192 27.826 29.517 27.8507 29.5401C27.8515 29.5391 27.8523 29.5381 27.8531 29.537C28.0668 29.7535 27.5209 29.5288 27.4874 29.5336C27.2654 29.5775 27.337 29.7236 27.0389 29.7047C26.8683 29.694 26.5217 29.4832 26.3806 29.4338C26.2393 29.3855 26.3994 29.5791 26.3007 29.5535C26.2017 29.5277 26.1262 29.4033 26.0109 29.3717C25.9615 29.3584 25.912 29.4591 25.8886 29.4514C25.6382 29.369 25.8973 29.2416 25.6835 29.1444C25.5451 29.0822 24.9922 29.0278 25.2711 29.2538C25.1106 29.1923 24.9583 29.1272 24.8017 29.0599C24.8785 29.1411 24.964 29.2144 25.0364 29.2989C24.7835 29.0987 24.5641 29.1951 24.3833 29.109C24.2023 29.0225 24.1623 28.7336 23.9184 28.7216C23.3933 28.6928 24.4499 29.1794 24.5577 29.2852C24.599 29.3277 24.3206 29.3782 24.2892 29.3661C24.15 29.3132 24.061 29.1133 23.9601 29.0616C23.5969 28.8763 23.2972 28.8969 22.9482 28.7286C22.6473 28.5834 22.3297 28.4241 22.0182 28.267C21.247 27.8911 20.633 27.7855 19.9603 27.7919C19.6251 27.7941 19.3754 27.6161 19.1925 27.6297C18.7574 27.6663 18.712 27.8396 18.301 27.8784C17.683 27.9412 16.734 27.8509 16.1756 27.8225C15.7869 27.8065 15.4324 27.9607 15.3312 27.9621C14.4536 27.9785 13.4778 27.908 12.5877 27.7869C12.5345 27.7769 12.3764 27.749 12.3249 27.732C11.5083 27.4987 10.9579 27.1658 10.5297 26.9059C10.0138 26.581 9.92529 26.2838 9.82822 26.2242C9.4322 25.9694 9.44329 26.1668 9.16138 25.9444C9.01223 25.8267 9.07313 25.6876 9.0558 25.668C8.90901 25.5039 8.76483 25.6409 8.6342 25.5601C8.36537 25.3943 8.13297 25.2499 7.9933 25.173C7.84754 25.0888 7.85754 25.1137 8.03549 25.0651C7.54483 25.1415 6.91828 25.15 6.28118 24.9336C6.11336 24.8745 6.1599 24.7976 6.05622 24.7599C5.62285 24.5754 5.73977 24.7982 5.32815 24.5368C4.51049 23.9466 4.21703 23.3146 3.97298 22.9229C3.95012 22.8839 4.03158 22.8051 3.98057 22.7261C3.93095 22.6498 3.8059 22.6503 3.75399 22.5684C3.67487 22.4401 3.66819 22.3927 3.77045 22.4148C3.50246 22.215 3.26511 21.989 3.04891 21.7629C2.9606 21.6709 2.75287 21.6406 2.63716 21.4929C2.26111 21.0235 2.03933 20.321 1.89434 19.9753C1.60472 19.2981 1.39329 18.7094 1.19564 18.1379C1.07957 17.8143 0.920806 17.3789 0.800224 16.9637C0.730557 16.7253 0.791869 16.4785 0.762022 16.3535C0.694562 16.0681 0.63627 16.3129 0.563473 16.0234C0.0601978 13.9938 -0.0891292 11.8656 0.0487664 9.76918C0.0710875 9.42413 0.102189 9.06807 0.146003 8.70925C0.262407 7.71997 0.428641 6.41388 1.0013 5.38207C1.24232 4.95724 1.43397 4.96624 1.63374 4.67874C2.01784 4.1752 1.93991 3.93246 2.5046 3.42955C2.62496 3.32887 2.76394 3.24183 2.91464 3.16606C3.27771 2.99362 3.65876 2.91626 3.95435 2.7593C4.3543 2.55031 4.45459 2.28568 4.90961 2.07049C5.28237 1.89524 5.84037 1.78388 6.24385 1.62979C7.54278 1.1323 8.84179 0.734875 10.1639 0.410362C12.9869 -0.201859 15.4345 -0.0178573 17.9324 0.249231C18.0471 0.262948 18.1643 0.27655 18.2839 0.290255C19.5395 0.434619 20.8886 0.578087 22.125 0.928342C22.2521 0.964718 22.0272 1.12903 22.4475 1.14654C22.6729 1.15624 23.0081 1.03454 23.5283 1.10786C23.8588 1.15478 24.193 1.20982 24.5318 1.2746C26.2337 1.57366 27.9493 2.33872 29.2818 2.79541C30.3624 3.14048 31.5147 3.4494 32.6639 3.73867C34.193 4.15298 35.7313 4.32328 37.5633 5.29745C40.4553 6.93193 42.9709 8.87936 43.9024 12.0493C43.9799 12.3226 43.4916 12.4752 43.3095 12.4647C43.3158 12.3115 43.3357 12.1519 43.3437 11.9898C42.7815 12.27 42.9309 12.1905 42.5999 11.7546C42.3975 11.4919 42.3896 11.8606 42.2165 11.7863C41.9942 11.6847 41.0314 11.1616 41.4556 11.0154C41.36 11.0199 41.2684 11.0245 41.1763 11.0308C40.5812 10.5463 39.9612 10.1237 39.3216 9.72828C39.2107 9.66014 39.1239 9.752 39.0106 9.68259C38.7035 9.4957 38.54 9.2536 38.2464 9.03444C38.087 8.91597 37.975 9.01285 37.7772 8.84633C37.5791 8.68076 37.7026 8.52649 37.2923 8.48466C37.3273 8.81803 36.6185 8.06579 36.3099 7.87634C36.2826 7.85886 36.0846 7.82757 35.8993 7.77419C35.8078 7.75525 35.7143 7.72747 35.6577 7.68332C35.5087 7.56571 35.291 7.29321 34.9509 7.23309C34.7934 7.20577 34.6396 7.32898 34.4792 7.27584C34.3673 7.23893 34.2859 7.04351 34.1425 6.9846C33.9991 6.92477 33.6394 6.93532 33.5793 6.91817C33.3644 6.85622 33.6326 6.83064 33.4885 6.77773C32.7893 6.52336 31.9502 6.23111 31.1977 6.10934C31.1053 6.09422 31.1978 6.25001 31.1847 6.25097C30.533 6.24226 30.9016 6.16726 30.7643 6.01393C30.633 5.86571 29.4278 5.62075 29.3613 5.83119C29.3942 5.55372 29.0728 5.6888 29.0018 5.67842C28.7245 5.63716 28.8325 5.42544 28.565 5.41965C28.5609 5.4195 28.5568 5.41938 28.5526 5.41931C28.4847 5.41792 28.5185 5.49795 28.5291 5.55119C28.5331 5.57513 28.5326 5.59365 28.5166 5.59689C28.5104 5.59796 28.5019 5.59694 28.4906 5.59333C28.2163 5.50526 28.0521 5.18327 27.7219 5.04938C27.6422 5.01687 27.5792 5.11835 27.437 5.06749C27.2918 5.01544 26.7506 4.68738 26.9445 5.00876C26.6509 4.70641 26.5472 4.78441 26.1447 4.65472C26.0426 4.622 25.9645 4.40297 25.7297 4.39668C25.65 4.39473 25.6046 4.56883 25.494 4.54012C25.2419 4.47581 25.0509 4.23455 24.7262 4.15404C24.5017 4.09839 24.2664 4.06566 24.0274 4.04071C23.6166 3.99724 23.1894 3.96907 22.7766 3.87659C22.5987 3.83677 22.6703 3.66422 22.4067 3.62204C22.3678 3.61623 22.0278 3.72561 21.8471 3.68614C21.7384 3.66166 21.1828 3.47737 21.068 3.4545C20.8789 3.41635 20.8237 3.58608 20.7233 3.53925C20.4338 3.4048 20.7056 3.17766 20.3009 3.48488C20.2043 3.27675 19.9891 3.27202 19.9474 3.02534C19.7942 3.27361 19.6609 3.00401 19.4106 3.06667C19.16 3.12939 18.9141 3.61857 18.9092 3.06602C18.79 3.12106 18.3017 3.19083 18.2209 3.19271C18.0788 3.19451 18.0705 3.14593 18.0492 3.10707C18.0344 3.08047 18.0133 3.05846 17.9391 3.06078C17.9074 3.06169 17.9309 3.16764 17.7307 3.14155C17.5969 3.12196 16.6248 3.05026 16.5683 3.03497C15.9148 2.8362 16.9344 2.95136 17.0869 2.85112C17.1102 2.88229 17.1333 2.91355 17.1584 2.94453C17.4508 3.01407 17.2986 2.76797 17.168 2.7044C17.0396 2.64089 16.78 2.72933 16.6758 2.64614C16.6236 2.60436 16.6727 2.325 16.8389 2.36921C16.6643 2.27169 16.9157 2.19529 16.8495 2.10961C16.7795 2.01406 15.9608 1.94428 15.9505 2.10074C16.1026 2.11265 16.2933 2.11654 16.4451 2.13111C16.6281 2.4114 15.9797 3.29551 15.449 2.91131C15.058 2.6346 15.7212 2.43688 14.7692 2.64116C14.9143 2.65398 15.0384 2.68166 15.1692 2.69618C15.1795 2.89859 14.968 2.67125 14.8577 2.73397C14.8047 2.76443 15.1259 2.91337 14.8443 2.95603C14.6034 2.66348 14.4151 2.95144 14.0105 2.95831C14.1214 2.90562 14.2361 2.85384 14.3482 2.80241C13.6548 2.59404 15.2683 2.52129 13.9151 2.40878C14.0796 2.39729 14.242 2.39902 14.4043 2.38526C14.325 2.27898 14.4535 1.96788 14.3819 1.90191C14.1929 1.72862 13.9105 1.83466 13.6787 1.82464C13.5769 1.82051 13.638 1.73507 13.6295 1.73476C13.4913 1.72881 13.5236 1.85126 13.402 1.86281C13.2495 1.87626 12.8014 1.77798 12.7275 1.79724C12.5448 1.84347 12.8673 2.06728 12.8509 2.0868C12.739 2.21058 12.4945 2.12968 12.5184 2.28266C13.0885 2.12449 14.7396 2.23744 13.2594 2.52726C13.6754 2.76331 13.5626 3.10553 12.9955 3.15895C12.5286 3.20835 12.823 3.05324 12.5669 2.91878C12.5326 2.89943 11.8972 2.8857 11.877 2.99892C11.8759 2.75092 11.639 2.55986 11.751 2.29041C11.7658 2.25045 12.0379 2.23585 11.9223 2.04285C11.8651 1.94553 11.7 1.73966 11.7074 1.60737C11.6619 1.70412 11.6116 1.81322 11.5675 1.91445C11.1581 1.99617 11.0876 1.91221 10.8264 1.7871C10.8517 1.85448 11.1124 2.1074 10.7807 2.07851C10.7627 2.07683 10.7301 1.97338 10.5553 1.95699C10.5393 1.95553 10.524 1.95411 10.5094 1.9527C10.2085 1.92267 10.1473 1.89244 10.3147 1.54751C9.69503 1.87392 9.46967 1.56968 8.81929 1.84701C9.05745 2.20071 9.26401 2.03899 9.86358 1.81404C9.91277 1.9007 9.94746 1.98985 9.99731 2.0774C9.12961 2.06581 9.53546 1.98926 9.1239 2.29589C9.02352 2.37008 8.41183 2.48652 8.68412 2.69241C8.74839 2.74014 9.11512 2.63314 9.09865 2.74199C9.09514 2.76204 8.66122 2.93148 8.61552 2.9182C8.0331 2.75449 8.85579 2.27152 7.52169 2.7987C7.48547 2.81373 7.50724 2.92971 7.43907 2.96858C7.31125 3.04154 7.26788 2.91292 7.15452 2.9831C7.04162 3.05337 6.93242 3.28254 6.69335 3.18721C6.2537 3.01538 6.99616 2.5669 7.40747 2.61141C7.43404 2.15392 4.84596 3.07201 4.70501 3.2234C4.07499 3.6788 5.1904 3.07019 5.29203 3.15981C5.33565 3.19323 5.54772 3.75006 5.68923 3.27635C5.73328 3.135 5.3175 3.13809 5.50886 2.99327C5.70054 2.84929 5.67949 3.04712 5.69951 3.05231C5.76857 3.07013 5.97182 2.92299 6.01134 2.93519C6.5945 3.1252 6.74972 3.67348 5.85925 3.10567C5.66952 3.38302 6.36807 3.44197 6.09629 3.68428C5.77087 3.97737 5.39439 3.84321 5.33888 3.85351C4.70915 3.97354 5.52488 4.03853 4.78598 4.2428C4.37116 4.36822 5.24633 3.71926 4.37838 4.18081C3.66104 4.60177 4.1287 4.50603 4.23364 4.80492C4.25938 4.87552 3.94744 5.16708 4.42094 4.84843C4.39453 4.76916 4.3689 4.65956 4.36599 4.5748C4.52428 4.55497 4.92239 4.81312 4.99377 4.79466C5.35094 4.69807 5.24905 4.51376 5.54859 4.65478C5.29579 4.46627 5.59315 4.51561 5.65887 4.42542C5.90367 4.09378 5.44329 4.18965 6.28944 4.15205C6.1463 4.06904 6.01162 3.98604 5.86866 3.90506C5.95792 3.86471 6.04721 3.82499 6.13698 3.78591C6.37506 3.99703 6.83983 3.78902 6.50551 4.21578C7.05133 4.10026 7.24349 3.97495 7.29068 3.72591C7.29931 3.67868 7.37349 3.63624 7.46704 3.60154C7.42997 3.54842 7.34743 3.37393 7.35516 3.34669C7.42561 3.10617 7.74338 3.38015 7.71306 3.53257C7.78073 3.518 7.83537 3.50899 7.85486 3.50638C7.9783 3.49014 7.78556 3.67915 7.89284 3.68993C7.92809 3.6928 8.24908 3.56697 8.27016 3.61337C8.40158 3.91108 7.79582 3.84223 8.93212 3.70915C8.88006 3.41943 8.39016 3.62697 8.43378 3.2916C8.4822 2.92989 8.89293 3.2791 8.84718 2.86773C8.88856 2.92609 8.91381 2.97732 8.95425 3.04562C9.35706 2.75173 9.45087 3.08159 9.60561 3.11901C9.90559 3.18978 11.1264 2.88152 9.95575 2.8558C10.1101 2.78772 10.2722 2.73523 10.4278 2.67264C10.5505 3.08654 10.5106 3.10128 10.7541 3.04521C10.8488 3.02364 10.9924 2.99081 11.2161 2.98027C11.3839 2.973 11.4748 3.23096 11.5917 2.89252C11.6131 3.20346 12.075 2.95754 12.1277 2.99267C12.4332 3.20657 11.4252 3.66441 11.2061 3.15412C11.0683 3.39789 11.0168 3.11733 10.8283 3.19602C10.8154 3.20155 10.8032 3.20695 10.7916 3.21223C10.5378 3.32228 10.4946 3.37338 10.1071 3.26109C9.90772 3.52487 10.698 3.31226 10.8329 3.3966C10.8505 3.40881 10.8559 3.42653 10.8452 3.45177C10.8216 3.49934 10.7349 3.57405 10.556 3.69187C9.93042 4.11317 6.4758 5.18966 4.93394 6.29519C4.62401 6.53627 4.3955 7.0041 4.29619 7.27455C3.96678 8.17187 3.90124 9.10875 3.86898 10.0076C3.84407 10.8709 3.85524 11.7128 3.94773 12.7546C3.94649 12.9715 4.23979 14.5545 3.85171 14.2882C3.79272 14.2542 3.54251 13.5664 3.38383 14.2219C3.51722 14.0705 3.68397 14.407 3.70714 14.4332C4.223 15.0301 4.21072 14.6191 4.48767 15.6533ZM2.77197 19.9832C2.14151 18.3594 2.44228 19.6173 1.81821 19.4724C1.90087 19.6872 1.99137 19.9053 2.09596 20.1291C2.0976 20.057 2.10012 19.9853 2.10417 19.9152C2.10406 19.915 2.10395 19.9147 2.10384 19.9145C2.32649 19.943 2.55024 19.9681 2.77197 19.9832ZM25.3578 29.6745C25.2705 29.7049 25.1829 29.7352 25.0912 29.7613C24.9137 29.6413 24.7376 29.5206 24.5627 29.3984C24.6072 29.3705 24.6513 29.3416 24.6959 29.3137C24.9142 29.4377 25.132 29.5593 25.3578 29.6745ZM7.59687 2.47377C7.93534 2.56784 7.8127 2.25169 8.23509 2.28879C8.11967 2.06299 8.00027 1.84409 7.88066 1.62229C7.59712 1.74441 7.55858 1.85475 7.22269 1.89618C7.28357 1.96087 7.34531 2.02587 7.4052 2.09153C7.4526 2.05877 7.50354 2.02261 7.54963 1.9926C7.69555 2.18151 7.20436 2.36915 7.59603 2.47457C7.59631 2.47431 7.59659 2.47404 7.59687 2.47377ZM10.5166 1.59993C10.6938 1.58939 11.3596 1.60404 11.4331 1.49418C11.6983 1.09004 9.84431 1.62807 11.1873 1.08595C11.1737 1.03838 11.173 0.989884 11.166 0.941841C10.9055 0.963106 10.6449 0.993852 10.374 1.03852C10.4291 1.22451 10.4603 1.41319 10.5166 1.59993ZM1.04922 14.3337C1.02434 14.0832 0.720557 12.8996 0.546426 13.3158C0.493496 13.4433 0.877026 13.9427 0.897052 14.1475C0.909179 14.2807 0.713006 14.1576 0.819409 14.4114C0.892966 14.3872 0.975481 14.366 1.0486 14.3331C1.0488 14.3333 1.04901 14.3335 1.04922 14.3337ZM2.12504 14.6114C2.0485 14.3751 1.96699 14.1298 1.89754 13.8872C1.72811 14.0993 1.9152 14.4358 1.64594 14.5078C1.61254 14.4415 1.58013 14.3778 1.54761 14.3121C1.59868 14.249 1.65012 14.1864 1.70186 14.1246C1.51944 13.9345 1.46209 14.0723 1.44909 13.6616C1.0673 13.9614 0.844121 14.0601 1.39004 14.6876C1.14149 14.5952 0.430525 14.8625 1.03347 15.1564C1.14495 15.2094 1.14723 14.8904 1.16253 14.8837C1.34514 14.7998 1.50054 14.9435 1.6717 14.8576C1.74906 14.8198 1.71242 14.6364 1.8218 14.5895C1.87495 14.5669 2.06576 14.7069 2.12504 14.6114ZM1.25603 15.3074C1.12309 15.2525 0.907184 15.586 1.02076 15.8128C1.19663 16.1599 1.31317 15.5182 1.25603 15.3074ZM25.3592 29.6749C25.3587 29.6747 25.3583 29.6746 25.3578 29.6745C25.3582 29.6743 25.3585 29.6742 25.3588 29.6741C25.359 29.6744 25.3591 29.6746 25.3592 29.6749ZM9.67733 1.65453C9.83704 1.51169 10.1135 1.46236 10.0574 1.3113C10.1545 1.32102 10.2522 1.33043 10.3492 1.34085C10.3378 1.29412 10.3256 1.24749 10.3143 1.20124C10.0361 1.23306 9.75845 1.26765 9.48036 1.30499C9.54532 1.42146 9.60728 1.53921 9.67733 1.65453ZM12.7498 1.29477C13.102 1.29176 12.7964 1.09035 12.8679 0.98126C12.9408 0.871605 13.2615 0.943964 13.219 0.795034C13.0093 0.796963 12.787 0.802115 12.5736 0.810616C12.6402 0.97066 12.689 1.13503 12.7506 1.29473C12.7503 1.29475 12.7501 1.29476 12.7498 1.29477ZM8.0489 24.3391C7.98553 24.2795 7.9699 24.1088 7.89672 24.3108C7.89676 24.3108 7.89681 24.3108 7.89686 24.3108C7.95405 24.4318 8.10698 24.5713 8.50056 24.6372C8.38862 24.3793 8.17785 24.4419 8.0489 24.3391ZM6.65666 2.26304C6.60368 2.41939 7.08248 2.37493 7.14264 2.22826C7.24231 1.9882 6.73965 2.02276 6.65666 2.26304ZM16.8483 25.9894C17.1736 25.567 16.5036 25.1536 15.8427 25.348C15.7827 25.366 16.2211 25.4919 16.0925 25.5719C16.0788 25.5801 15.8381 25.5717 15.779 25.6274C15.7188 25.6835 15.7816 25.815 15.6816 25.8693C15.5047 25.9648 15.1158 25.7756 14.9839 25.8953C14.9667 25.9118 15.1998 26.0961 15.2185 26.103C15.472 26.2173 15.7171 25.9896 15.7562 25.9882C15.9556 25.9811 15.9234 26.1601 15.9762 26.2023C16.0754 26.2814 16.2435 26.1994 16.2549 26.205C16.5636 26.3572 15.8594 26.3241 15.7661 26.3855C15.5042 26.5569 15.7482 26.7277 15.1132 26.8085C15.058 26.8163 14.3352 26.7757 15.235 27.0125C13.416 27.353 16.141 27.2968 16.4269 27.1609C16.5613 27.1147 16.3521 26.9487 16.4321 26.8696C16.6125 26.6894 16.9203 26.6451 16.8815 26.3979C16.7999 25.8792 16.4126 26.2367 16.1363 26.1513C16.1637 26.0375 16.1733 25.9268 16.2237 25.8149C16.142 25.9675 16.8228 26.0235 16.8483 25.9905C16.8483 25.9901 16.8483 25.9898 16.8483 25.9894ZM12.3477 26.2521C12.0096 25.9434 11.8972 26.2487 11.6432 25.8998C11.1986 25.9899 11.8026 26.3059 11.8809 26.352C12.1974 26.5761 12.077 26.8813 12.5391 26.9207C12.442 26.6949 12.395 26.4745 12.3477 26.2521ZM15.8634 26.7442C15.5992 26.9107 16.0716 26.9085 16.0942 26.9391C16.3083 27.2816 14.8662 27.2052 15.8634 26.7442ZM1.5151 12.7177C1.51528 12.5833 1.36286 12.6815 1.30662 12.568C1.24884 12.4529 1.36219 12.0422 1.26416 12.0568C1.16345 12.0702 0.951301 12.8385 0.850884 12.0852C0.796308 12.114 0.754188 12.1074 0.704337 12.1225C0.713684 12.3326 0.725596 12.5454 0.741562 12.7544C0.892401 12.6254 1.05282 12.4979 1.20091 12.3782C1.33647 12.4854 1.17755 12.5609 1.17799 12.5673C1.17816 12.5673 1.17833 12.5673 1.1785 12.5672C1.20755 12.7816 1.51674 13.0173 1.5151 12.7177ZM4.91942 22.3786C5.27744 22.196 4.73668 22.1771 4.63762 22.1207C4.53623 22.0575 4.57743 21.8664 4.46867 22.0085C4.45724 22.1865 4.87606 22.394 4.91985 22.3784C4.91971 22.3784 4.91956 22.3785 4.91942 22.3786ZM10.4282 25.1285C10.1077 25.0182 10.0875 25.1306 9.84143 24.8074C9.79722 24.8947 9.75171 24.9838 9.70826 25.0698C9.95719 25.2514 10.1032 25.0118 10.3357 25.3173C10.3746 25.3678 10.1367 25.4745 10.4049 25.5758C10.4075 25.4313 10.4186 25.2762 10.4282 25.1285ZM8.96233 24.5416C9.24374 24.7047 9.92421 24.2166 9.18399 24.156C9.07318 24.1494 8.75055 24.4248 8.96233 24.5416ZM2.13632 16.1173C1.99614 15.4939 2.05564 16.2277 1.98807 16.4218C1.50963 14.9967 2.05508 16.5753 1.72487 16.8318C1.88684 16.9772 2.23665 17.2237 2.19195 16.8421C2.17473 16.6853 2.07687 16.7728 2.07469 16.764C2.02029 16.4758 2.21637 16.4554 2.13632 16.1173ZM13.1352 26.4148C13.1106 26.4177 13.1315 26.5566 13.0514 26.5736C12.9713 26.5906 12.8075 26.4729 12.7783 26.5524C12.7497 26.6332 13.0967 26.745 13.2087 26.6965C13.3214 26.648 13.3558 26.3896 13.1352 26.4148ZM10.9138 25.0394C10.5965 24.9362 10.7401 25.6445 10.8073 25.6847C11.3517 26.0128 10.7973 25.1566 10.9138 25.0394ZM3.3674 17.2682C2.92085 16.659 2.67726 17.2226 2.55561 17.7227C2.54865 17.7529 2.54215 17.7829 2.53611 17.8124C2.60582 17.8569 2.67648 17.9035 2.74575 17.9468C2.6253 17.8933 2.4997 17.8201 2.39964 17.7703C2.26522 17.7124 2.17761 17.6972 2.21426 17.8269C2.24196 17.9244 2.32693 18.0962 2.5029 18.3751C2.38277 17.7579 2.62682 18.2286 2.64541 18.2257C3.0028 18.1506 2.94224 17.8367 2.99583 17.5883C3.02944 17.4277 3.10513 17.2927 3.36761 17.2689C3.36754 17.2687 3.36747 17.2685 3.3674 17.2682ZM14.1622 26.6633C14.5056 26.6937 15.3843 26.6238 14.9884 26.3476C14.7143 26.4579 14.443 26.5635 14.1622 26.6633ZM3.55577 5.75743C3.81911 5.67387 3.95145 5.5354 4.15997 5.36783C3.83501 5.34511 3.9405 5.22989 3.98468 5.13123C4.04912 4.98401 3.78251 5.19166 3.77452 5.18506C3.64786 5.0289 3.7968 4.83613 3.40904 5.2062C3.45125 5.06186 3.50314 4.91762 3.56947 4.77427C3.22969 5.04338 3.07444 5.03123 2.7577 5.15178C3.24758 5.19286 2.80364 5.31286 2.79578 5.69072C2.7977 5.86692 3.42589 5.78421 3.55633 5.75675C3.55614 5.75697 3.55596 5.7572 3.55577 5.75743ZM3.21137 16.5065C3.12084 16.4567 3.00634 16.4145 2.90695 16.3686C2.87658 16.2929 2.84782 16.2177 2.81835 16.1417C2.87707 16.1148 2.93909 16.0887 2.99504 16.0609C2.98463 15.9541 2.91022 16.018 2.89382 15.9899C2.89415 15.9898 2.89448 15.9897 2.89481 15.9896C2.66335 15.5852 2.63253 15.396 2.74866 15.0107C2.55768 15.0526 2.36669 15.0945 2.1757 15.1364C2.21166 15.2133 2.24703 15.2873 2.28326 15.3628C2.39549 15.3816 2.5077 15.3993 2.61968 15.4157C2.58428 15.5166 2.55153 15.6237 2.51779 15.7259C2.57315 15.7902 2.63416 15.8661 2.68615 15.9179C2.25505 16.4226 2.39572 15.5042 2.17752 15.5495C2.0304 15.5796 2.25807 16.4209 2.39417 16.51C2.41338 16.5226 2.75147 16.2313 2.6368 16.591C2.61866 16.6456 1.78132 16.924 2.56398 17.0373C2.67496 17.0525 3.14551 16.7282 3.21137 16.5065ZM2.84141 13.5256C2.33755 14.0632 2.72981 12.281 2.35145 13.0715C2.07188 12.8856 2.07854 12.9216 1.87375 13.1655C1.85533 13.1873 1.76832 13.043 1.76078 13.0566C1.65573 13.2755 1.75458 13.5197 1.52637 13.5497C1.54575 13.6041 1.56384 13.6572 1.58372 13.7117C1.76721 13.4489 1.96099 13.799 2.16451 13.912C2.25622 13.9631 2.25926 13.8131 2.33917 13.8557C2.36814 13.872 2.34762 14.0809 2.42444 14.078C2.59686 14.0663 2.80473 13.9049 2.89924 13.6759C2.89941 13.6759 2.89958 13.6758 2.89975 13.6758C2.881 13.6255 2.8603 13.5768 2.84141 13.5256ZM6.53237 22.4507C6.35048 22.7016 6.54289 23.0461 5.98227 22.6636C5.95552 22.7276 5.93178 22.7936 5.90873 22.8602C5.99136 22.9458 6.07796 23.0262 6.17695 23.1039C6.61494 22.876 6.73623 22.9748 6.84906 23.0826C6.9616 23.1861 6.96983 23.2875 6.90959 22.9277C6.89799 22.8511 6.69849 22.8446 6.94276 22.7438C6.9426 22.7436 6.94245 22.7433 6.9423 22.7431C6.70274 22.7 6.58155 22.7371 6.53237 22.4507ZM4.92153 20.7474C4.88323 20.7476 4.84895 20.7503 4.81844 20.7548C4.56937 20.8062 4.53755 20.9016 4.64839 21.0242C4.83005 21.2023 5.37361 21.7118 5.35202 21.4814C5.34989 21.4655 5.20325 21.3073 5.07024 21.1565C4.94062 21.0037 4.8056 20.8596 4.92153 20.7474ZM10.4211 23.4497C10.1172 23.2245 9.89698 23.5072 9.85871 23.6336C9.819 23.7597 10.1006 23.7962 10.1161 23.8321C10.1656 23.9475 9.95547 23.8542 10.0165 24.0076C10.038 24.0566 10.4738 24.5256 10.5056 24.5303C10.6845 24.5552 10.6662 24.1822 10.7227 24.1819C10.9073 24.1803 10.9815 24.4203 11.1062 24.3185C11.3726 24.1024 10.8694 24.1694 10.8136 24.1356C10.6492 24.0363 10.7715 23.8948 10.6759 23.7798C10.5793 23.6645 10.464 23.6605 10.3652 23.5749C10.3323 23.5465 10.4359 23.4615 10.4211 23.4497ZM8.97655 23.4328C9.20637 23.4011 9.15728 23.2131 9.00069 23.0326C8.84859 22.8509 8.56177 22.7014 8.48527 22.7183C8.26853 22.766 8.39379 22.9459 8.53812 23.1127C8.687 23.2796 8.86785 23.4491 8.97655 23.4328ZM2.20079 14.8274C2.45859 15.1221 2.45469 14.3176 2.34605 14.1096C2.2712 14.1619 2.10972 14.7248 2.20079 14.8274ZM3.43066 17.4738C3.42774 17.4683 3.42476 17.4631 3.42174 17.4582C3.3407 17.3248 3.2289 17.4051 3.14917 17.5415C3.07444 17.6689 3.02973 17.849 3.07129 17.9673C3.39184 18.0248 3.29261 17.9054 3.2528 17.7393C3.21327 17.5725 3.5471 17.6918 3.43066 17.4738ZM13.4401 25.4235C13.4067 25.4176 13.1255 25.4414 12.9099 25.482L12.9534 25.4911C12.7579 25.5074 12.6107 25.5477 12.8891 25.6868C12.8908 25.6876 12.8937 25.6887 12.8976 25.6899L12.8813 25.6865C12.9852 25.7072 13.6889 25.7509 13.7475 25.7116C13.8701 25.6342 13.6139 25.4573 13.4401 25.4235ZM4.30545 18.695C4.01814 18.6511 3.96367 18.4983 3.7457 18.7426C3.74578 18.7428 3.74586 18.743 3.74594 18.7432C3.51421 18.3914 4.07506 18.1712 4.03411 18.0961C3.89352 17.8237 3.58484 18.2348 3.39008 18.0938C3.66189 18.4841 3.34815 18.4542 3.45507 18.7895C3.47917 18.8664 3.75706 19.0891 3.87279 19.0836C3.98748 19.0794 4.21886 18.8129 4.30545 18.695ZM14.9603 25.4858C14.6031 25.3739 14.2467 25.7519 14.7468 25.8469C15.0005 25.892 15.1773 25.5527 14.9603 25.4858ZM11.309 2.89323C11.2394 2.79752 11.1668 2.70312 11.0902 2.61049C11.218 2.56194 11.3443 2.51564 11.475 2.47087C11.374 2.51887 11.2737 2.56765 11.1761 2.61752C11.4297 2.6131 11.5649 2.78848 11.3096 2.89313C11.3094 2.89316 11.3092 2.8932 11.309 2.89323ZM20.2575 3.16969C20.3587 3.28363 20.6189 2.99767 20.5937 2.96997C20.4014 2.76259 20.1161 3.01158 20.2575 3.16969ZM3.0483 14.164C3.02482 13.7589 2.56354 14.1137 2.57515 14.3746C2.64389 14.204 3.06436 14.3969 3.0483 14.164ZM17.0869 2.85112C17.0521 2.80471 17.0178 2.75835 16.978 2.71163C17.1066 2.78129 17.1268 2.82402 17.0869 2.85112ZM13.3278 24.9547C13.2964 24.9289 13.1426 24.8896 12.9962 24.864L13.1219 24.8903C13.0429 24.8643 12.963 24.8415 12.9353 24.8543C12.8384 24.8969 12.9037 25.1074 13.0351 25.1996L12.9518 25.1821C13.0178 25.2114 13.0874 25.2244 13.1488 25.2087C13.1747 25.2029 13.3849 25.0015 13.3269 24.9546C13.3272 24.9546 13.3275 24.9547 13.3278 24.9547ZM11.8777 3.01282C11.8764 3.00803 11.8763 3.00335 11.877 2.99892C11.8771 3.00351 11.8778 3.00819 11.8777 3.01282ZM29.3591 5.85477C29.3585 5.84642 29.3591 5.83843 29.3613 5.83119C29.3604 5.83863 29.3605 5.84672 29.3591 5.85477ZM11.0257 23.1836C11.1772 22.6911 10.6975 22.6721 10.8157 23.0497C10.823 23.0701 10.9942 23.1596 11.0257 23.1836Z" fill="var(--stroke-0, #467603)"/>
</svg>
