<svg preserveAspectRatio="none" width="100%" height="100%" overflow="visible" style="display: block;" viewBox="0 0 44.1018 120.894" fill="none" xmlns="http://www.w3.org/2000/svg">
<path id="Vector 121" d="M8.70736 0.0213089C9.39636 0.348454 9.96169 1.14723 10.2962 1.85514C10.4025 2.07695 10.0346 2.31711 10.0958 2.485C10.2088 2.80674 10.5641 2.84538 10.6538 3.18935C10.6831 3.30577 10.1427 3.72351 10.1837 3.83414C10.4111 4.43636 10.9255 4.66866 11.2592 5.16165C12.8976 7.58841 14.7838 9.65159 16.6855 11.8492C17.3169 12.5776 17.7337 13.8101 18.642 14.3172C18.7479 14.3754 19.1078 13.9033 19.1575 13.8838C19.9226 13.5891 19.0163 14.3684 19.0693 14.6406C19.0882 14.7354 19.1098 14.8268 19.134 14.9151C19.6199 16.0593 20.2927 16.9843 21.0007 17.7319C21.3291 18.0798 22.088 17.0705 21.7709 17.8235C21.7489 17.8738 21.1492 18.0884 21.1549 18.2309C21.1696 18.5513 21.5145 18.9598 21.5638 19.1711C21.6562 19.5769 21.6886 19.6321 21.8372 19.9712C22.0342 20.4386 21.9663 21.0865 22.2793 21.4947C22.3481 21.5818 22.8937 21.2151 23.0578 21.3345C23.2227 21.4555 23.3299 21.8879 23.2388 22.0754C23.1485 22.2645 22.6546 22.3849 22.5555 22.4496C21.7166 22.9905 23.1499 22.9623 23.202 23.0054C23.3195 23.1113 23.4152 23.2204 23.4936 23.3319C23.9995 24.0087 23.7894 24.9983 24.1517 25.8052C24.4713 26.5113 25.0551 27.1657 25.3431 27.8551C25.6836 28.6767 25.7018 29.512 26.1403 30.2676C26.1858 30.3475 26.8153 29.9176 26.8722 30.0142C27.4772 31.0423 27.9343 32.1303 28.0263 33.4194C28.0349 33.549 27.3757 33.7165 27.3493 33.8643C27.1987 34.7612 26.5885 36.4094 29.3385 35.4336C29.4701 35.9201 29.6498 36.4979 29.3507 37.1626C29.1586 37.591 28.3936 37.6972 28.8309 37.8536C28.9295 37.8903 29.4334 37.4949 29.539 37.5724C29.9448 37.8668 30.0503 38.379 30.4721 38.6551C30.5148 38.6906 30.5595 38.7249 30.6069 38.7578C30.7312 38.8427 31.2113 38.5409 31.3201 38.5274C32.2126 38.4382 31.2164 39.5096 31.1635 39.6315C30.827 40.6489 31.2862 40.9906 31.5257 41.6195C31.5801 41.7647 32.2158 41.3087 32.2929 41.4371C32.6855 42.1139 32.9067 42.8772 32.8441 43.6811C32.8286 43.8609 32.1686 43.9446 32.1299 44.0417C31.9656 44.465 33.1414 44.1165 33.0042 44.5146C32.9766 44.5978 32.4416 44.7496 32.3885 44.7821C31.5549 45.2898 32.8877 44.9923 32.9329 45.0297C33.533 45.4959 32.3318 46.3473 32.7196 46.8564C32.7675 46.9175 33.3772 46.532 33.4714 46.7182C34.1015 47.953 34.3743 49.3867 34.2575 50.8394C34.2402 51.065 33.6925 51.0865 33.6348 51.1192C32.7353 51.6372 34.0722 51.3474 34.1421 51.3966C34.479 51.6556 34.2006 52.0981 34.4234 52.3323C34.5438 52.4615 34.8068 52.5305 35.3841 52.4832C35.55 54.8592 37.0517 56.8551 36.2036 59.4264C36.1944 59.4586 35.5319 59.5728 35.5163 59.6361C35.3195 60.3959 36.2971 60.0135 37.6449 60.1557C37.9837 60.1932 36.5731 60.8997 36.4709 60.9569C36.0941 61.1652 35.0975 61.2877 35.0283 61.3435C34.4876 61.7936 37.6806 60.9672 37.7809 61.3776C37.7786 61.3916 37.1757 61.4805 37.1253 61.5289C36.9664 61.6784 37.2271 61.7304 37.0489 61.8833C36.6359 62.2336 35.0987 62.6952 36.0921 62.8389C36.2208 62.8565 38.0237 62.3525 38.0245 62.7355C38.0234 62.8893 38.2081 63.5209 38.133 63.725C38.0586 63.9321 37.4431 63.9516 37.4208 63.9705C36.7626 64.6374 36.3977 64.5348 35.3109 65.0583C34.229 65.5817 36.935 64.8429 37.2629 64.8649C37.5899 64.8873 37.0393 65.3951 36.8399 65.5379C36.64 65.6799 36.2416 65.6675 36.1356 65.7759C35.4482 66.499 37.5409 65.6522 38.0141 65.7043C39.1334 65.8192 37.2033 66.648 37.1096 67.0654C37.0837 67.1756 37.517 66.9679 37.5839 67.0406C37.7646 67.2411 37.5439 67.4885 37.6299 67.6886C37.6676 67.7767 37.7621 67.8579 37.9693 67.9235C38.0811 67.9574 39.373 67.9048 38.5593 68.38C38.4417 68.4477 37.9215 68.5191 37.8551 68.6981C37.7558 68.9677 37.7687 69.3947 38.0064 69.5785C38.1825 69.7154 38.9376 69.2655 38.7509 69.5609C38.6674 69.6926 38.1347 69.6595 38.0178 69.8948C37.901 70.1304 38.0634 70.5854 38.1343 70.7586C38.2048 70.929 38.7949 70.6436 38.841 70.645C39.1062 70.6575 39.5086 70.9063 39.5169 70.9361C40.0535 72.4264 39.4264 74.1357 40.203 75.5112C40.2632 75.6197 40.8965 75.3517 40.9125 75.3663C41.303 75.6853 39.4679 75.8772 38.9641 76.3228C40.284 75.8978 40.0904 76.1314 40.3169 76.3694C40.4272 76.484 40.922 76.2625 40.9783 76.2596C41.8197 76.2362 40.8473 76.666 40.6504 76.7607C39.9262 77.1105 40.8677 76.9989 40.3838 77.2339C39.9035 77.4671 39.0952 77.4726 39.1805 77.7374C39.6793 77.6779 40.8706 77.1255 41.1307 77.2733C41.9394 77.732 41.6923 78.9814 41.6091 79.7698C41.5932 79.9481 41.5838 80.1063 41.595 80.2308C41.6508 80.9124 41.7799 81.1059 41.6812 81.5222C41.4946 82.2694 42.3907 81.8361 42.9022 82.1983C43.4115 82.5668 41.0394 82.7382 40.548 82.8838C40.0557 83.024 40.5826 83.0022 40.3182 83.1192C40.0537 83.2349 39.6875 83.1358 39.6105 83.3192C39.5344 83.5044 40.4961 83.8205 41.0319 83.8123C42.1661 83.7836 43.3079 83.402 42.9608 83.9269C42.94 83.957 42.3115 83.9543 42.2631 84.065C41.898 84.939 41.9627 85.7755 41.6198 86.6182C41.5715 86.7331 40.8729 86.7031 40.8369 86.7704C40.4591 87.4719 41.5985 87.1256 42.9234 87.3779C41.1967 87.4474 40.1641 87.7438 40.1944 88.2384C40.2118 88.5373 40.959 88.4262 41.504 88.5823C41.6684 88.6307 41.1682 88.8807 41.5246 88.8936C42.6896 88.9371 43.9689 88.6363 43.4915 89.2053C43.4686 89.2303 42.8307 89.2005 42.798 89.2835C42.5821 89.8105 43.7961 89.7994 43.9768 90.3484C44.1191 90.7852 43.4233 91.6044 43.3265 92.105C41.388 92.1888 41.8535 92.6301 43.1982 92.7615C43.1576 93.0866 43.2473 93.431 43.0743 93.7492C43.0153 93.8588 42.4513 93.8095 42.3911 93.8253C41.4473 94.0673 42.7529 94.1583 42.8063 94.226C43.3284 94.9626 42.36 95.6026 43.3414 96.2942C43.3767 96.3187 44.7253 96.3284 43.7459 96.5445C43.6783 96.5583 43.0598 96.336 43.0201 96.6738C42.9804 97.0124 42.2706 97.66 42.9024 98.1175C43.0546 98.2287 44.153 98.4988 43.3012 98.7413C43.1856 98.7736 42.7986 98.7452 42.5841 98.7922C41.9006 98.9435 43.2638 99.0054 42.1085 99.1864C40.9531 99.3672 40.0903 99.7205 40.8924 100.181C40.9157 100.196 41.9964 100.299 41.9803 100.447C41.9537 100.683 41.7305 101.019 41.7384 101.265C41.7425 101.383 42.4128 101.305 42.4251 101.325C42.79 102.091 42.2461 102.645 41.9714 103.445C41.9606 103.479 41.9502 103.509 41.9402 103.538C41.8869 103.693 42.7881 104.164 42.0572 104.445C41.2572 104.754 37.9756 104.324 38.7394 105.11C39.0449 105.429 43.2099 105.917 41.0345 106.418C41.5467 107.498 40.4228 108.472 41.1786 109.556C41.2121 109.604 42.3763 109.767 42.3596 109.879C42.3326 110.046 41.7873 110.136 41.7507 110.255C41.5839 110.757 42.0491 111.219 41.9773 111.703C41.9514 111.886 41.3879 111.823 41.3571 112.043C41.3269 112.263 42.0692 112.407 41.7128 112.705C41.4412 112.932 39.9269 113.168 39.7531 113.472C41.2486 113.468 41.2196 113.676 41.6188 114.034C41.6962 114.103 42.2157 114.021 42.2792 114.054C42.5491 114.186 42.1194 114.314 42.4132 114.438C42.4838 114.468 42.9944 114.462 43.081 114.486C43.836 114.691 42.6931 115.062 42.4942 115.127C41.9102 115.317 42.1757 115.419 42.1897 115.542L42.1893 115.528C42.1943 115.564 42.1777 115.602 42.1118 115.645C41.8215 115.837 41.4352 115.588 41.2641 115.807C40.9102 116.264 41.0302 116.832 41.0467 117.282C41.0564 117.462 41.7245 117.278 41.7417 117.303C41.9458 117.646 41.2654 118.097 42.6374 118.143C39.1786 118.796 42.9997 118.321 42.3654 118.914C42.3141 118.961 40.6737 119.224 40.4117 119.094C40.15 118.964 40.6355 118.66 40.2324 118.48C40.1378 118.44 38.5569 118.3 38.4585 118.263C37.6896 117.993 40.1553 117.701 40.2892 117.673C41.7342 117.341 40.0337 117.122 39.9104 117.025C39.3456 116.605 39.6711 116.19 39.2744 115.827C39.2014 115.759 39.0175 115.714 38.7926 115.679C38.7938 115.664 38.7887 115.62 38.7903 115.605C38.2282 115.508 37.4062 115.472 37.4394 115.335C37.5931 114.695 39.857 114.45 37.8842 113.877C37.4636 113.755 35.6885 113.898 37.0806 113.425C37.1684 113.394 38.4431 113.043 37.6336 112.852C37.5315 112.828 37.0138 112.832 36.9701 112.799C36.6874 112.582 37.099 112.432 36.9006 112.195C36.7021 111.956 36.407 111.668 36.5826 111.394C36.6875 111.229 37.6524 111.018 37.8887 110.941C38.5694 110.72 37.455 110.48 38.2795 110.346C39.1081 110.213 40.3639 110.486 40.9008 110.131C39.5559 110.11 38.1757 110.071 36.8232 110.04C36.8757 109.24 37.3202 108.459 37.2746 107.66C37.2677 107.561 36.5429 107.65 36.5168 107.543C36.41 107.092 36.9333 106.71 36.7385 106.243C36.585 105.881 35.8292 105.469 35.6461 105.089C37.1905 104.9 36.683 104.333 36.835 103.936C36.8875 103.798 37.2982 103.819 37.4351 103.723C37.9416 103.361 36.577 103.498 36.3661 103.389C36.2927 103.351 36.2458 103.316 36.2214 103.284L36.2191 103.422C35.9353 103.079 38.5271 103.016 38.4578 102.545C38.4549 102.517 36.8141 102.185 36.7118 102.14C36.0453 101.852 37.283 102.092 37.404 101.911C37.6251 101.581 38.0164 101.348 37.5339 100.962C37.3911 100.85 36.3668 100.585 37.1563 100.361C37.2597 100.331 37.8022 100.343 37.8338 100.32C38.3601 99.895 36.6556 99.8974 36.0762 99.6644C35.4969 99.4317 36.6688 99.0506 37.0068 98.9698C37.8814 98.7609 37.3836 99.1165 37.4697 99.1262C38.4956 99.2402 38.316 98.9701 38.3997 98.7616C40.0702 98.7089 39.9657 98.4183 38.4797 98.5455C38.3174 98.5597 38.4755 98.7188 38.3997 98.7616C36.7579 98.6012 36.5435 98.2924 38.0692 97.9143C38.7842 97.7372 39.6245 97.8781 39.3087 97.3818C39.1659 97.1561 38.0173 97.2675 37.6995 97.0744C36.9745 96.6362 38.0328 96.0191 37.8501 95.5522C37.7838 95.3836 37.1591 95.5678 37.092 95.4535C36.9121 95.1521 37.3758 94.8648 37.1233 94.5642C37.0996 94.5372 36.443 94.6278 36.4313 94.5327C36.3295 93.8115 36.726 93.1653 36.7017 92.4102C36.6899 92.0461 36.2925 91.4166 36.3433 91.039C36.4287 90.3878 37.3308 89.5187 37.056 88.9859C36.8794 88.6346 36.228 88.767 35.768 88.6508C34.8772 88.4349 36.3856 87.7811 36.6195 87.6894C36.6273 87.6859 36.8094 87.9776 37.132 87.7843C37.826 87.6258 36.6228 87.6923 36.6195 87.6894C36.7712 87.6287 36.862 87.003 36.7237 86.8954C36.6485 86.8362 36.0307 86.9364 36.0032 86.9047C35.3647 86.1569 35.115 85.4005 35.2926 84.586C35.3031 84.5704 35.9978 84.4913 36.0137 84.4556C36.2548 83.9556 35.3633 83.7981 34.8025 83.5349C34.2422 83.2756 34.3601 82.9937 35.494 82.5507C35.2938 82.3233 35.7319 81.8561 35.9928 81.5734C36.253 81.2871 34.9299 81.6087 34.9 81.6C34.8752 81.5929 34.8515 81.5858 34.8289 81.5788C33.9269 81.1392 34.5389 80.563 34.4639 79.8517C34.4297 79.5043 34.0542 78.8999 33.8083 78.5817C33.612 78.331 33.8692 78.0719 33.5976 77.8662C33.5612 77.8384 32.9897 78.0424 32.9642 78.0381C32.1838 77.9484 33.6465 77.6762 33.883 77.5423C34.7429 77.0548 35.1949 76.7746 34.6503 76.5249C34.5254 76.4671 32.4056 76.8155 32.2399 76.6947C32.0277 76.5348 32.7834 76.3952 32.5425 76.2337C32.5225 76.2196 32.0717 76.3575 32.0523 76.2191C31.9566 75.5794 32.0185 74.8312 31.7788 74.2028C31.7478 74.1166 31.0661 74.4455 31.0096 74.3247C30.7454 73.7584 30.5731 73.0991 30.7296 72.4158C30.7706 72.2474 31.2985 72.1832 31.4377 72.1067C32.2781 71.6389 30.8888 71.7708 30.8499 71.7327C30.2699 71.2032 30.3834 70.5551 30.3614 69.9221C30.3235 69.4355 30.2429 68.9722 29.8864 68.5441C29.8347 68.4879 28.2775 68.3362 29.4363 67.7955C29.5129 67.7581 30.7008 67.2161 29.8003 67.2409C29.7439 67.242 29.1372 67.5427 29.1418 67.2854C29.1467 67.03 28.6232 66.7554 29.2515 66.262C29.4497 66.1082 30.6376 65.5659 29.5733 65.5129C29.499 65.5096 27.1422 65.5954 28.6542 65.0609C28.9032 64.9736 30.5513 64.6087 29.6265 64.4627C29.4475 64.4355 29.1101 64.6431 28.8398 64.5238C28.4241 64.3435 28.7794 63.8867 27.9708 63.7411C27.8282 63.7172 26.6568 63.7468 27.4561 63.3541C27.5812 63.2923 28.1424 63.2155 28.1793 63.1005C28.3567 62.5507 27.8689 62.1478 28.1271 61.5775C28.2172 61.3751 29.1221 61.2379 29.3136 61.0002C29.5059 60.7656 29.6405 60.3466 29.19 60.2689C28.7391 60.1898 27.3867 60.7566 27.2028 60.5129C26.4072 59.4689 26.9078 58.0949 26.6805 56.9024C26.6469 56.7256 26.1916 57.0151 26.1069 56.7687C25.9575 56.338 25.6653 55.793 25.4752 55.2173C25.2497 54.5323 25.1614 53.8128 25.5706 53.1869C26.1896 52.2378 27.1077 52.8763 27.28 52.248C27.361 51.9448 25.6694 52.2054 25.5994 52.163C24.8941 51.7505 25.4684 51.1109 25.0751 50.6639C24.9937 50.5717 24.3814 50.8965 24.3193 50.8157C24.1016 50.5431 24.2795 50.1195 24.1251 49.8428C24.0542 49.7192 23.5688 49.9142 23.5652 49.7804C23.5503 49.4612 23.669 49.1352 24.0317 48.6913C24.0647 48.6508 24.7386 48.6072 24.6861 48.386C24.5987 48.0268 24.9006 47.4368 24.288 47.2145C24.1047 47.1507 22.9825 47.558 23.6652 47.0266C23.8075 46.9153 25.1767 46.4823 23.908 46.6266C23.6959 46.6462 21.9577 46.7733 22.8752 46.1613C23.1166 45.9996 24.1503 45.4203 23.9253 45.3527C23.8909 45.3458 23.3223 45.6522 23.2214 45.5671C22.8762 45.2639 22.7808 44.851 22.4454 44.5824C22.3553 44.5129 21.8048 44.9111 21.6917 44.8036C21.3819 44.5106 21.3427 44.042 21.4548 43.8203C21.5013 43.7438 21.9945 43.4993 22.0455 43.4679C22.104 43.4299 22.1523 43.3977 22.1916 43.3708C22.6286 42.8919 21.5778 43.3444 21.4799 43.3157C20.843 43.1199 21.206 42.5025 20.8507 42.1957C20.7551 42.1118 20.247 42.4878 20.1866 42.4938C19.5883 42.5379 20.6637 42.1596 20.6968 41.962C20.7917 41.4041 20.5173 41.0028 20.2372 40.6494C20.1334 40.5196 19.5795 41.0238 19.4941 40.9041C18.9757 40.2002 18.6203 39.3734 18.5914 38.4459C18.5873 38.2708 19.1296 38.1021 19.2281 38.0144C19.9189 37.4047 18.6844 37.6692 18.5461 37.6538C17.9162 37.5869 18.2953 37.2416 18.0746 37.011C16.9866 35.8857 16.4601 34.0782 16.0309 32.7046C15.4657 30.9031 15.3516 29.3998 14.4885 27.6697C14.4329 27.5545 13.7923 27.9543 13.7352 27.8575C13.6178 27.6486 13.5078 27.4165 13.4111 27.1862C12.9875 26.1865 12.8376 25.2747 12.3918 24.6873C12.3496 24.6302 11.7396 24.997 11.6517 24.919C11.4671 24.7614 11.4043 24.5343 11.5306 24.2839C11.5901 24.1607 12.1823 23.9911 12.2289 23.8685C12.3374 23.5806 12.2785 23.3728 12.0948 23.2918C12.0169 23.2611 11.4566 23.7251 11.4081 23.6638C11.2242 23.4496 11.0831 23.3684 11.0421 23.1766C10.6724 22.6879 10.3595 22.1021 10.1865 21.3472C10.1583 21.2319 11.1092 20.1132 10.7641 20.1735C10.4729 20.4581 10.1446 20.8063 9.84064 21.1174C8.19375 19.8819 7.02436 18.1114 5.53358 16.6431C5.47062 16.5813 5.05927 17.2575 4.93483 17.1411C4.21327 16.4669 3.36069 15.9837 3.12725 14.7327C3.10313 14.6093 4.05655 13.6289 3.69833 13.5842C3.63527 13.578 3.18015 13.4134 2.89668 13.5575C2.8552 13.5803 2.48872 14.1086 2.37014 14.0269C1.68524 13.5413 1.13505 12.8535 0.773203 12.0101C0.714399 11.872 1.27368 11.4604 1.23576 11.3577C0.968918 10.638 0.0759962 10.5378 0.00140142 9.65259C-0.0399292 9.06464 0.842168 8.27639 1.43125 7.25665C1.51631 7.1144 1.3278 6.91641 1.75803 6.39954C2.83759 5.09761 4.15199 3.78672 5.29111 2.38893C5.53418 2.08571 4.98408 2.16284 5.76138 1.59474C5.81166 1.55512 6.22792 1.50393 6.48675 1.30739C6.66569 1.17142 7.05197 0.601035 7.30786 0.450341C7.56353 0.299829 7.2691 0.803624 7.60729 0.659711C7.9453 0.510311 8.40279 -0.12333 8.70736 0.0213089ZM37.1047 80.158C37.6723 79.7562 35.3553 80.3543 35.9746 80.4494C36.0073 80.4533 37.077 80.1782 37.1047 80.158ZM39.1262 108.49C40.1859 108.186 38.6379 107.943 37.8194 108.157C37.0018 108.373 38.805 108.583 39.1262 108.49ZM39.877 111.807C40.7085 111.434 37.3154 111.375 38.0019 111.778C38.0407 111.802 39.8287 111.829 39.877 111.807ZM2.45462 7.71566C2.47266 7.68919 2.34672 7.53714 2.32292 7.55818C1.74362 8.06071 1.99439 8.36308 2.45462 7.71566ZM40.747 115.072C41.2039 114.947 40.6691 114.624 40.1006 114.776C39.6432 114.898 40.1785 115.227 40.747 115.072ZM35.9888 67.394C36.022 67.3807 36.0147 67.2367 35.8214 67.2936C35.1989 67.4783 35.4295 67.62 35.9888 67.394ZM41.3089 120.671C41.3288 119.846 44.0428 118.989 43.8454 119.91C43.8098 120.078 42.9138 119.683 42.6902 119.92C42.2829 120.351 44.0604 120.369 43.1752 120.874C43.0129 120.964 41.3016 120.718 41.3049 120.671C41.3062 120.671 41.3076 120.671 41.3089 120.671ZM39.8412 79.2688C39.8705 79.2559 39.8482 79.0607 39.8167 79.0645C39.0565 79.1645 39.1006 79.5561 39.8412 79.2688ZM35.4399 59.0797C35.5024 59.0513 35.4501 58.5973 35.3859 58.5981C34.1251 58.6842 34.226 59.5975 35.4399 59.0797ZM43.2751 92.1153C44.0488 92.294 44.1504 92.5483 43.1991 92.7605C43.2407 92.5461 43.2385 92.3326 43.2751 92.1153Z" fill="var(--stroke-0, #467603)"/>
</svg>
