<svg preserveAspectRatio="none" width="100%" height="100%" overflow="visible" style="display: block;" viewBox="0 0 29.1054 47.7877" fill="none" xmlns="http://www.w3.org/2000/svg">
<path id="Vector 124" d="M0.000598907 42.7152C-0.0189033 41.992 0.441141 41.1645 0.925582 40.5763C1.07652 40.3913 1.45416 40.6141 1.57692 40.4913C1.81612 40.2527 1.69199 39.9308 1.962 39.704C2.05355 39.6292 2.66529 39.9318 2.7463 39.8499C2.86059 39.7328 2.94407 39.609 3.01051 39.4803C3.16781 39.2206 3.23481 38.7355 3.468 38.3333C4.59658 36.3826 5.52005 34.6919 6.42508 32.9199C6.77767 32.2367 7.12386 31.5541 7.47628 30.8709C7.89198 30.0608 8.84781 29.2701 8.93495 28.304C8.94426 28.1918 8.37103 28.0396 8.3331 28.0029C7.75513 27.4345 8.82688 27.9633 9.04965 27.8256C9.93686 27.2627 10.3207 26.4264 10.4047 25.5883C10.4378 25.2339 9.22253 25.1251 9.95983 25.0455C10.0099 25.0396 10.5612 25.3485 10.6574 25.2862C10.8731 25.1476 10.9203 24.7218 11.0261 24.589C11.2339 24.3312 11.247 24.2809 11.3654 24.0008C11.5307 23.624 12.0012 23.2823 12.032 22.8218C12.0366 22.7232 11.3947 22.6003 11.3483 22.4217C11.3017 22.244 11.503 21.8869 11.6924 21.8208C11.8826 21.7531 12.3297 21.9935 12.4459 22.0146C13.4216 22.2031 12.3428 21.2622 12.333 21.1973C12.2086 19.9804 13.2717 19.4093 13.6555 18.4687C13.9453 17.7542 14.0248 16.8986 14.3442 16.2276C14.724 15.4368 15.338 14.8806 15.6289 14.0638C15.6598 13.9792 14.9262 13.7733 14.9624 13.6696C15.0751 13.3523 15.1946 13.0544 15.3445 12.7405C15.5059 12.4096 15.6178 12.1949 15.9626 11.6505C16.2545 11.2869 16.5949 10.9456 17.0104 10.6268C17.1032 10.5562 17.6367 10.9718 17.7655 10.9175C18.5383 10.594 20.1913 10.0994 17.6718 8.63645C17.9404 8.28732 18.2309 7.86246 18.8998 7.71411C19.3299 7.61785 19.9389 8.06715 19.7418 7.68939C19.6968 7.60696 19.0712 7.48589 19.0474 7.38145C18.9958 7.19535 19.0477 6.95021 19.0137 7.01994C18.9959 7.09879 18.9709 7.17652 18.9627 7.4207C18.9604 7.54663 18.9665 7.70512 19.001 7.90148C19.0455 8.14633 19.1403 8.46295 19.3354 8.795C19.7615 9.59511 20.8134 10.1247 21.3646 10.1828C21.8717 10.2697 22.1477 10.2323 22.3085 10.2438C22.5516 10.2513 22.6387 10.81 22.7302 10.8893C23.0944 11.2019 23.1533 11.013 23.0327 10.7939C22.9209 10.5689 22.6787 10.287 22.6377 10.2546C21.9482 9.81871 21.7527 10.3416 21.3691 10.6484C21.2748 10.7238 21.8793 11.2069 21.8085 11.2987C21.4459 11.7583 20.9455 12.1421 20.2724 12.3374C20.1205 12.3806 19.7517 11.8327 19.655 11.8307C19.2326 11.8296 20.061 12.7335 19.6789 12.7484C19.5992 12.7531 19.222 12.3449 19.1706 12.3104C18.3609 11.7726 19.2367 12.819 19.2309 12.8689C19.155 13.5463 17.871 12.8555 17.6555 13.4026C17.6321 13.4679 18.2548 13.8225 18.1577 13.9764C17.6585 14.7751 16.9884 15.4641 16.1839 16.0256C15.9961 16.127 15.7688 16.2686 15.5429 16.3896C15.3835 16.4809 14.9976 16.1039 14.9377 16.077C13.9779 15.6961 15.0748 16.5153 15.0944 16.5832C15.2021 17.1261 13.9833 16.996 15.2931 18.0023C13.9324 19.4878 14.0874 21.7238 12.0834 23.2366C12.0593 23.257 11.4347 23.0089 11.3893 23.0508C10.8384 23.55 11.8697 23.7445 12.9683 24.5113C13.2444 24.7032 11.6798 24.5685 11.5632 24.5659C11.1352 24.5486 10.2091 24.1633 10.122 24.1743C9.43261 24.2802 12.6119 25.1562 12.5073 25.5251C12.4987 25.5353 11.929 25.3197 11.862 25.3345C11.6517 25.381 11.8569 25.5416 11.6289 25.5803C11.1027 25.6661 9.53542 25.3199 10.3415 25.9076C10.4468 25.9819 12.2682 26.4113 12.0938 26.7187C12.0222 26.8409 11.8982 27.4377 11.7387 27.5732C11.579 27.7081 11.0242 27.445 10.996 27.4501C10.1088 27.7025 9.83217 27.451 8.62978 27.3928C7.43119 27.3396 10.1682 27.9534 10.4491 28.1208C10.7291 28.2879 10.0093 28.4624 9.76717 28.4916C9.525 28.5199 9.17747 28.3273 9.03393 28.3703C8.09437 28.6614 10.3364 28.9075 10.7317 29.1687C11.6698 29.78 9.57759 29.5979 9.30008 29.901C9.22532 29.9823 9.70449 30.0104 9.72906 30.1029C9.82076 30.4669 9.14263 30.5284 9.64353 31.0279C9.72485 31.1104 10.884 31.6689 9.94536 31.6756C9.81005 31.6763 9.31932 31.491 9.1763 31.6083C8.96161 31.784 8.77388 32.1375 8.89809 32.4013C8.99044 32.594 9.86599 32.5687 9.56428 32.7268C9.42969 32.7972 8.97372 32.5272 8.76164 32.6683C8.54949 32.809 8.48539 33.2594 8.47011 33.4359C8.45541 33.6104 9.10971 33.6353 9.15 33.6573C9.37994 33.7868 9.62795 34.1656 9.62226 34.1934C9.44105 35.6379 8.1494 36.8145 8.32858 38.286C8.34194 38.4007 9.02901 38.4106 9.03804 38.429C9.27634 38.838 7.50957 38.3223 6.87407 38.5175C8.25518 38.6419 7.98714 38.7667 8.10788 39.0568C8.16752 39.1947 8.70886 39.1822 8.76215 39.2001C9.55202 39.4762 8.49211 39.4923 8.27424 39.5053C7.47358 39.5463 8.3909 39.7856 7.85573 39.8201C7.32418 39.859 6.56724 39.5819 6.55266 39.8483C7.04026 39.9654 8.34864 39.8936 8.54062 40.1045C9.13053 40.7492 8.51546 41.6771 8.2285 42.3164C8.20264 42.1944 8.31088 42.0545 7.96197 41.4466C7.79365 41.1472 7.21382 40.7357 6.68367 40.7571C6.16384 40.7632 5.90818 40.9503 5.76052 41.048C5.61249 41.1564 5.54797 41.2318 5.49803 41.288C5.45701 41.3367 5.47263 41.3197 5.46088 41.3347C5.44787 41.3525 5.43717 41.3682 5.42798 41.3822C5.3918 41.4382 5.37697 41.4705 5.36703 41.4941C5.34871 41.54 5.35251 41.5513 5.35951 41.5528C5.37452 41.5547 5.39368 41.5451 5.41398 41.5287C5.45622 41.4923 5.49633 41.4437 5.52206 41.4081C5.83226 40.9357 5.82025 40.7022 6.11343 40.4423C6.64221 39.967 5.66046 39.8406 5.38538 39.3228C5.1149 38.7909 7.2631 39.803 7.76006 39.9271C8.25514 40.0553 7.78548 39.8165 8.07132 39.8503C8.35718 39.8839 8.62921 40.1444 8.78422 40.0293C8.93967 39.913 8.2511 39.1674 7.76979 38.9347C6.75501 38.4289 5.57444 38.2111 6.11547 37.9455C6.14741 37.9301 6.70284 38.2229 6.79561 38.1531C7.50285 37.6192 7.80725 36.8705 8.45937 36.314C8.55063 36.236 9.16988 36.5595 9.2304 36.5166C9.86581 36.0616 8.68734 35.8874 7.58445 35.1228C9.18221 35.7797 10.2387 35.9632 10.4141 35.5051C10.5165 35.24 9.79049 35.0313 9.35297 34.6775C9.22094 34.5713 9.77718 34.5532 9.45607 34.3984C8.40621 33.8929 7.12094 33.6348 7.77338 33.3442C7.80368 33.3324 8.37809 33.6099 8.43911 33.5533C8.83667 33.1878 7.71683 32.7195 7.75318 32.1796C7.78006 31.7606 8.72224 31.3153 8.99009 30.9181C10.8157 31.5758 10.5464 31.0042 9.34283 30.3944C9.49447 30.1291 9.53189 29.7952 9.80423 29.5781C9.8974 29.5031 10.4053 29.7524 10.4668 29.7604C11.4295 29.893 10.2449 29.338 10.2183 29.2595C9.98523 28.4259 11.1062 28.2087 10.4196 27.2496C10.3947 27.2154 9.13455 26.7357 10.1232 26.8892C10.1911 26.9004 10.697 27.3126 10.8461 27.0284C10.9953 26.7446 11.8756 26.4124 11.4297 25.7913C11.3226 25.641 10.3769 25.0281 11.2557 25.1022C11.3749 25.1127 11.73 25.2689 11.9469 25.2996C12.6389 25.3957 11.3752 24.8816 12.521 25.1091C13.6668 25.3366 14.5943 25.3056 13.9844 24.6236C13.967 24.6025 12.9803 24.1516 13.042 24.0244C13.1414 23.8215 13.4573 23.5937 13.5262 23.3707C13.5588 23.2638 12.9012 23.1144 12.8959 23.0921C12.7844 22.2569 13.5222 21.9451 14.0269 21.264C14.1202 21.141 13.3906 20.4445 14.167 20.4042C15.0171 20.3592 18.0335 21.7168 17.5211 20.78C17.3185 20.3979 13.4745 18.726 15.6924 18.9148C15.5051 17.781 16.8521 17.2335 16.4399 16.0268C16.4313 16.0016 16.1909 15.8783 15.9438 15.7451C15.9443 15.7424 15.948 15.7349 15.9489 15.7322C15.6926 15.5471 15.43 15.3476 15.4622 15.2987C15.5548 15.1627 16.0844 15.3172 16.1648 15.2317C16.5213 14.8643 16.2888 14.2763 16.564 13.8869C16.666 13.7418 17.14 14.0529 17.2637 13.8777C17.3853 13.7063 16.7878 13.2449 17.2375 13.1566C17.5775 13.0949 19.0164 13.6165 19.2997 13.4643C17.9902 12.7426 18.106 12.591 17.9307 12.0966C17.896 12.0021 17.4079 11.8081 17.3682 11.75C17.1985 11.5046 17.6354 11.6095 17.4429 11.3591C17.3971 11.2983 16.9558 11.0412 16.8946 10.9751C16.3569 10.4024 17.5317 10.6798 17.7301 10.7399C18.4984 10.9414 17.9894 10.5044 18.3391 10.5148C18.6829 10.5356 18.8583 10.9501 19.1158 10.8886C19.6508 10.7577 19.8709 10.3119 20.1379 10.0372C20.2422 9.92581 19.6605 9.55652 19.6633 9.53037C19.7798 9.13465 20.4845 9.46451 19.779 8.28873C22.1503 10.8943 19.7286 7.86843 20.6509 8.13073C20.6637 8.13644 20.707 8.1964 20.7677 8.29158C20.9265 8.5445 21.1989 9.04711 21.3692 9.42986L21.3897 9.41885C21.4888 9.62247 21.5617 9.78927 21.5732 9.86197C21.625 10.1121 21.2213 9.75693 21.3488 10.1413C21.3622 10.2439 22.2965 11.4948 22.368 11.5586C22.8293 12.1357 21.0044 10.4577 20.8924 10.3774C19.702 9.49522 20.7609 10.8426 20.8249 10.9519C21.0408 11.5356 20.5938 11.5702 20.7424 12.0338C20.839 12.3343 22.2038 13.2178 22.0873 13.3101C21.7044 13.6178 19.6334 12.6713 21.1024 14.0722C21.4159 14.3724 23.0262 15.1278 21.6198 14.7911C21.5304 14.7709 20.2687 14.42 20.903 14.9516C20.9837 15.0172 21.4427 15.2566 21.4687 15.3007C21.6348 15.5904 21.2084 15.5174 21.2939 15.7849C21.3758 16.0594 21.5332 16.4025 21.2692 16.5408C21.1143 16.6175 20.1668 16.3598 19.9231 16.3212C19.2234 16.2046 20.1396 16.8733 19.3421 16.6319C18.5405 16.3898 17.5113 15.6262 16.8859 15.6961C18.096 16.2833 19.3318 16.8992 20.5464 17.4947C20.4898 17.596 20.4229 17.6945 20.3494 17.792L20.5646 17.2472C20.254 17.7931 19.7792 18.2967 19.6296 18.9072C19.6084 18.9994 20.3252 19.1348 20.32 19.2396C20.2951 19.6804 19.6923 19.8601 19.7466 20.3461C19.7931 20.7176 20.4021 21.3101 20.471 21.711C18.9421 21.4293 19.2723 22.0864 19.0158 22.4061C18.9268 22.5177 18.5401 22.378 18.3826 22.4249C17.7988 22.603 19.1404 22.8812 19.3118 23.0425C20.0419 23.7343 17.1148 22.7804 17.0272 23.2742C17.0217 23.2996 18.4717 24.1318 18.5541 24.2069C19.094 24.6882 17.9985 24.0666 17.8269 24.194C17.5134 24.4267 17.0703 24.5115 17.4032 25.0227C17.5024 25.1724 18.3842 25.7538 17.5666 25.699C17.4595 25.692 16.9516 25.5011 16.9142 25.5121C16.2806 25.7267 17.8888 26.2906 18.3584 26.6998C18.8277 27.1091 17.5977 27.0671 17.2533 27.0257C16.3615 26.9209 16.947 26.7642 16.869 26.7263C15.9405 26.2768 16.0215 26.5826 15.874 26.7443C14.2852 26.226 14.2884 26.5237 15.7275 26.914C15.8849 26.9561 15.7887 26.7575 15.874 26.7443C17.3661 27.4463 17.463 27.8083 15.9039 27.6283C15.1731 27.5439 14.432 27.126 14.5622 27.6849C14.6206 27.9381 15.7354 28.2354 15.9679 28.5219C16.4985 29.1751 15.2944 29.3687 15.3036 29.8548C15.3069 30.0312 15.9546 30.087 15.9774 30.2147C16.0402 30.5528 15.5047 30.6521 15.6334 31.0165C15.6458 31.0499 16.2901 31.205 16.2669 31.2965C16.1036 31.993 15.4994 32.4375 15.2385 33.1405C15.1139 33.4768 15.2409 34.207 15.0471 34.5337C14.7156 35.0999 13.5464 35.5236 13.577 36.1283C13.5962 36.5163 14.2437 36.6642 14.615 36.9596C15.332 37.5401 13.6848 37.5094 13.4346 37.4909C13.4263 37.4906 13.3843 37.1488 13.0102 37.1883C12.3144 37.0385 13.433 37.4865 13.4346 37.4909C13.2751 37.4734 12.9175 38.0226 12.996 38.1756C13.0382 38.2613 13.6382 38.4394 13.6491 38.48C13.8883 39.4605 13.7571 40.2827 13.1833 40.9919C13.1664 41.0013 12.5186 40.7381 12.487 40.7631C12.0227 41.1219 12.7205 41.6974 13.0435 42.28C13.3797 42.8266 13.0924 43.1021 11.8824 42.9044C11.9045 43.2657 11.247 43.4897 10.8089 43.6966C10.5983 43.7808 10.7612 44.0497 10.9906 44.2708C11.2181 44.4991 11.4265 44.8483 11.391 44.9366C11.341 45.0548 11.2772 45.1963 11.1369 45.4232C11.1013 45.4804 11.0601 45.5435 11.0101 45.6149C10.9851 45.6506 10.9578 45.6884 10.9276 45.7287C10.9125 45.7489 10.8967 45.7697 10.8801 45.7911C10.8647 45.8103 10.8869 45.7848 10.8332 45.8491C10.7832 45.9086 10.7266 45.9733 10.6604 46.0448C10.3781 46.3229 10.0444 46.7492 8.9527 47.2841C8.40324 47.5356 7.5877 47.8139 6.49909 47.7857C5.42144 47.7737 4.14843 47.3141 3.31718 46.6473C1.62639 45.2402 1.48488 44.0639 1.31005 43.4744C1.17862 42.8457 1.1845 42.5195 1.18025 42.263C0.469845 41.4476 1.22358 40.9716 1.39331 40.2165C1.48039 39.824 1.35039 39.0694 1.24539 38.6544C1.15912 38.3286 1.49863 38.1626 1.32946 37.8556C1.30698 37.8139 0.700861 37.7817 0.679093 37.7672C-0.00197935 37.3589 1.44973 37.6909 1.72014 37.6571C2.70371 37.5379 3.23055 37.4497 2.83403 36.9995C2.7431 36.897 0.667657 36.3369 0.569281 36.1426C0.444798 35.894 1.18941 36.0851 1.03941 35.8296C1.02733 35.8077 0.560077 35.7439 0.601781 35.6038C0.790319 34.9455 1.17673 34.2699 1.24708 33.5834C1.25852 33.4897 0.500934 33.4822 0.505561 33.3438C0.528954 32.6887 0.683615 32.0017 1.1459 31.456C1.26188 31.3228 1.75763 31.5168 1.91655 31.514C2.87812 31.4965 1.59313 30.9505 1.5773 30.8971C1.15787 29.6496 2.5504 29.0569 2.23404 27.8047C2.21378 27.7377 0.898818 26.9248 2.17228 27.0035C2.25725 27.0075 3.55671 27.101 2.74686 26.7111C2.69627 26.6865 2.02129 26.6609 2.14221 26.4493C2.26271 26.2388 1.92512 25.7631 2.70935 25.6295C2.95685 25.5856 4.25694 25.6766 3.3437 25.1269C3.27855 25.093 1.16431 24.0432 2.7495 24.2906C3.01041 24.3317 4.63221 24.798 3.89113 24.2245C3.74751 24.1134 3.35095 24.1366 3.17255 23.8974C2.89776 23.5285 3.43236 23.2933 2.80491 22.7525C2.69332 22.6583 1.66537 22.087 2.55927 22.128C2.69916 22.1348 3.22264 22.3521 3.31397 22.2646C3.74914 21.8547 3.55021 21.2116 4.08159 20.8223C4.26963 20.6818 5.1088 21.0489 5.40059 20.9371C5.69245 20.8244 6.03483 20.5305 5.70397 20.2068C5.37433 19.8786 3.9244 19.6367 3.91516 19.2988C3.87896 17.8277 5.16224 16.8054 5.85072 15.515C5.95499 15.3204 5.40493 15.2821 5.52708 14.9782C5.9474 13.887 6.57541 11.5708 8.33603 10.998C9.69354 10.6121 9.4555 12.1023 10.2095 11.6717C10.2444 11.6527 10.2653 11.6231 10.2749 11.5849C10.3157 11.2949 9.38182 10.2455 9.38453 10.1636C9.38696 9.27991 10.2738 9.37347 10.489 8.75722C10.5342 8.62909 9.92932 8.28586 9.97459 8.18062C10.126 7.81583 10.6143 7.71636 10.8062 7.41328C10.8913 7.27623 10.4808 6.95179 10.6097 6.86722C10.9126 6.66246 11.2889 6.57423 11.8791 6.65685C11.9325 6.66482 12.2694 7.25791 12.4614 7.08585C12.7731 6.80412 13.4687 6.77298 13.4516 6.07903C13.4441 5.87302 12.6 5.0273 13.4076 5.38612C13.5768 5.46111 14.5247 6.53916 13.9112 5.4046C13.8051 5.21898 13.1068 3.56902 14.0788 4.13757C14.3333 4.28786 15.2853 5.00546 15.2912 4.75147C15.2897 4.71312 14.7855 4.30427 14.8556 4.15662C15.1234 3.63368 15.6116 3.30098 16.0073 2.73495C16.1149 2.58144 15.4928 2.22417 15.6726 2.00821C15.9386 1.69912 16.3045 1.42547 16.8633 1.12568C17.4929 0.832499 17.9188 0.497753 19.9475 0.0548258C20.7716 -0.0878325 21.1517 0.0751252 21.0338 0.233255C20.9275 0.396584 20.6496 0.588576 20.7264 0.608471C21.3672 0.767723 22.0523 0.830214 22.9609 1.01294C23.9398 1.21311 24.9825 1.5808 25.9381 2.2279C27.8651 3.62515 28.4399 4.78552 28.7144 5.51954C29.2989 7.66192 29.0419 8.29576 28.9716 8.96226C28.8529 9.58574 28.7157 9.75837 28.5873 9.99458C28.4613 10.2105 28.3523 10.3968 28.3436 10.613C28.3342 10.7766 28.9631 10.8717 29.006 10.9194C29.4174 11.4018 28.4303 10.8136 28.2499 10.9546C27.7392 11.3484 27.5934 11.8649 27.481 12.3531C27.4413 12.5304 28.1901 12.6181 28.1457 12.776C27.8917 13.7226 27.4174 14.5966 26.6512 15.246C26.5062 15.3664 26.053 15.0212 25.9227 14.9965C25.0152 14.8163 25.9427 15.6803 26.0058 15.8107C26.3011 16.3937 25.793 16.2959 25.7141 16.6364C25.6871 16.7546 25.6549 16.8731 25.6177 16.992C25.7685 16.7968 25.7089 16.9741 25.6917 17.0686C25.6653 17.1783 25.6181 17.3158 25.5641 17.454C25.4575 17.727 25.3085 18.0345 25.1556 18.3147C24.8406 18.8963 24.4696 19.4597 24.1568 19.9598C23.2813 21.3692 22.3 22.3602 21.8307 23.8853C21.8008 23.9805 22.528 24.1668 22.5112 24.2524C22.2576 25.357 21.577 26.2749 21.3613 27.4015C21.3428 27.4924 22.047 27.63 22.0393 27.7847C22.0289 28.1021 21.8478 28.456 21.5282 28.6527C21.3726 28.7516 20.883 28.3434 20.7377 28.4478C20.3977 28.6919 20.2121 29.0268 20.1863 29.4026C20.1763 29.5642 20.9327 29.6108 20.8675 29.8003C20.4379 31.0938 20.0716 32.3829 18.706 33.3343C18.6122 33.3996 17.2137 32.9522 17.4036 33.2424C17.778 33.4022 18.2253 33.5726 18.629 33.7344C18.3371 34.8869 17.8033 35.9421 17.2553 37.0003C16.8898 37.7022 16.5254 38.3929 16.2353 39.1056C16.2053 39.1799 16.9828 39.3132 16.929 39.4568C16.6179 40.2916 16.5481 41.15 15.568 41.6957C15.4717 41.751 14.1791 41.3041 14.3046 41.6004C14.3271 41.6542 14.3978 42.0561 14.6557 42.2341C14.695 42.2594 15.3271 42.3694 15.311 42.4922C15.2879 42.649 15.2507 42.8174 15.1838 43.0395C15.006 43.6222 14.6845 44.1813 14.2276 44.6821C14.1318 44.7859 13.5141 44.4733 13.4402 44.5459C12.9213 45.0606 13.2352 45.8666 12.4796 46.2965C11.9711 46.5848 10.8774 46.132 9.70403 46.0435C9.53892 46.0295 9.44543 46.276 8.79285 46.1129C7.15239 45.7017 5.3981 45.0969 3.64531 44.6741C3.26424 44.597 3.59695 44.9634 2.73261 44.569C2.6736 44.5473 2.43637 44.2328 2.1453 44.0899C1.94427 43.9905 1.2641 43.886 1.01469 43.7293C0.76652 43.5692 1.34435 43.6283 1.06386 43.3982C0.779644 43.1662 0.0114398 43.0263 0.000598907 42.7152ZM3.79116 41.4493C4.45445 41.232 2.06646 41.0755 2.62585 41.3846C2.65576 41.3996 3.75862 41.4609 3.79116 41.4493ZM18.0948 17.6083C16.9992 17.5617 18.4081 18.2442 19.2489 18.2968C20.089 18.3489 18.4271 17.6217 18.0948 17.6083ZM18.4844 14.7431C17.5866 14.6785 20.6055 16.2285 20.1482 15.6081C20.1225 15.5728 18.5364 14.7473 18.4844 14.7431ZM9.65472 44.97C9.62325 44.9645 9.5447 45.1346 9.57399 45.1469C10.2813 45.4413 10.4374 45.1029 9.65472 44.97ZM19.1779 11.7193C18.7293 11.5722 19.0284 12.1067 19.5861 12.2854C20.0307 12.4347 19.7315 11.9081 19.1779 11.7193ZM8.15871 29.653C8.19427 29.6573 8.25508 29.5342 8.05798 29.4922C7.42293 29.3571 7.5603 29.5802 8.15871 29.653ZM22.6357 8.51362C21.8236 8.83394 20.1938 6.50496 21.0026 6.43587C21.1541 6.41831 21.1642 7.36541 21.4426 7.50181C21.98 7.73332 21.2707 6.10977 22.0452 6.73755C22.1989 6.84611 22.6951 8.4963 22.6365 8.51772C22.6362 8.51636 22.636 8.51499 22.6357 8.51362ZM6.6684 41.437C6.70005 41.4342 6.73907 41.2519 6.70815 41.2454C5.95464 41.1031 5.87493 41.4813 6.6684 41.437ZM11.608 22.5762C11.6753 22.5864 11.8646 22.2124 11.8111 22.1774C10.702 21.5737 10.3075 22.353 11.608 22.5762ZM9.04134 30.9285C8.3877 30.4846 8.38449 30.2235 9.34161 30.3949C9.22846 30.5625 9.1524 30.7554 9.04134 30.9285Z" fill="var(--stroke-0, #467603)"/>
</svg>
