<svg preserveAspectRatio="none" width="100%" height="100%" overflow="visible" style="display: block;" viewBox="0 0 66.313 118.222" fill="none" xmlns="http://www.w3.org/2000/svg">
<path id="Vector 123" d="M66.3036 7.78168C66.0783 8.44934 65.3671 9.07049 64.7156 9.47021C64.5093 9.60025 64.2267 9.26404 64.0709 9.33986C63.7672 9.48765 63.7749 9.84161 63.4474 9.97036C63.3362 10.0132 62.8531 9.53068 62.7489 9.58466C62.1807 9.88561 62.0204 10.4224 61.5763 10.8209C59.3971 12.7721 57.6321 14.9778 55.834 17.2319C55.2427 17.9741 54.116 18.6254 53.8433 19.5881C53.8127 19.6995 54.3511 19.9489 54.3817 19.9921C54.8459 20.6615 53.8836 19.9527 53.6357 20.0579C52.6551 20.4767 52.1211 21.2844 51.9518 22.0773C51.8822 22.4156 53.0675 22.6816 52.3408 22.6494C52.2915 22.6478 51.7733 22.2877 51.6749 22.3316C51.6648 22.3361 51.655 22.3412 51.6455 22.3468C51.4335 22.4906 51.3476 22.8765 51.232 23.0003C50.9963 23.2473 50.978 23.2982 50.8335 23.5731C50.6328 23.9439 50.1306 24.267 50.0632 24.7411C50.0507 24.8428 50.686 25.0006 50.7185 25.1877C50.7504 25.375 50.5292 25.7206 50.3334 25.7845C50.1378 25.847 49.7043 25.5824 49.589 25.5564C48.617 25.333 49.6462 26.336 49.6531 26.4026C49.712 27.6586 48.6241 28.238 48.2088 29.2277C47.894 29.9824 47.7951 30.8865 47.4575 31.6084C47.0527 32.4656 46.4229 33.0798 46.0735 34.0041C46.0343 34.1041 46.774 34.3001 46.7268 34.4243C46.5154 34.9707 46.2747 35.5141 45.8406 36.1798C45.3459 36.904 44.7822 37.4799 44.0981 37.9542C43.981 38.0338 43.5296 37.5201 43.3804 37.5765C42.476 37.937 40.7104 38.1501 42.7615 40.2301C42.355 40.5954 41.8753 41.0453 41.1266 41.073C40.6446 41.0909 40.2459 40.4209 40.2677 40.9031C40.2718 41.0115 40.8419 41.3056 40.8096 41.4396C40.6726 42.004 40.1571 42.3391 40.0941 42.9546C40.0823 43.0809 40.5481 43.4044 40.6102 43.4908C41.1067 44.1991 39.7662 43.698 39.6322 43.7083C39.2689 43.7439 39.0244 43.8406 38.8418 43.972C38.5272 44.1912 38.4087 44.5343 38.1568 44.8457C38.0662 44.9574 38.7743 45.2831 38.7094 45.4065C38.3635 46.0421 37.8661 46.6037 37.1714 46.9824C37.0153 47.0658 36.5784 46.5651 36.4768 46.5857C36.0355 46.6811 36.9816 47.4615 36.5783 47.5674C36.4944 47.5909 36.0674 47.2346 36.0107 47.209C35.121 46.8069 36.1203 47.7383 36.1154 47.7963C36.0767 48.5496 34.6894 48.0571 34.4929 48.6772C34.4707 48.7521 35.1389 49.0242 35.0414 49.2098C34.3953 50.449 33.3859 51.5422 32.11 52.3459C31.9136 52.4696 31.5772 52.0353 31.5165 52.0082C30.5636 51.5919 31.5811 52.5061 31.5795 52.5952C31.5492 53.1918 30.5779 53.0537 31.1023 53.9115C31.1738 54.0135 31.2694 54.1317 31.3943 54.2691C29.7169 55.6077 29.3311 58.084 26.9551 59.33C26.9262 59.3471 26.368 58.9723 26.3127 59.0079C25.6408 59.435 26.6149 59.8288 27.5048 60.8494C27.7286 61.1051 26.2118 60.6693 26.0976 60.6431C25.6784 60.5427 24.8627 59.9568 24.7737 59.9516C24.066 59.9268 26.9799 61.4714 26.7768 61.8443C26.7656 61.8534 26.26 61.5128 26.1899 61.5152C25.9704 61.5216 26.1287 61.7349 25.893 61.7305C25.3494 61.7176 23.8978 61.0324 24.5348 61.8141C24.6182 61.9144 26.298 62.7404 26.0385 63.0345C25.9342 63.1497 25.6425 63.7591 25.4459 63.8694C25.2501 63.9783 24.7801 63.5793 24.7507 63.5788C23.8069 63.6522 23.6066 63.3267 22.4457 62.9949C21.2873 62.6679 23.7938 63.9272 24.0206 64.1668C24.2472 64.4049 23.4894 64.428 23.2447 64.401C22.9998 64.3741 22.7155 64.0931 22.563 64.104C21.5599 64.1881 23.6785 64.9703 23.9872 65.3373C24.7176 66.2074 22.7285 65.5183 22.3655 65.7656C22.2676 65.8322 22.7256 65.98 22.7209 66.0828C22.7184 66.1264 22.7083 66.1638 22.6927 66.1967C22.5732 66.4522 22.0646 66.4373 22.3811 66.9938C22.4361 67.1008 23.4236 67.9282 22.5069 67.7215C22.3745 67.6922 21.9427 67.3926 21.7723 67.4821C21.5163 67.6162 21.2407 67.9462 21.2962 68.2473C21.3394 68.4651 22.2038 68.6229 21.8691 68.7229C21.7194 68.7685 21.3397 68.392 21.0959 68.4962C20.8523 68.5994 20.6766 69.0605 20.6185 69.2419C20.5606 69.4228 21.1975 69.5803 21.2316 69.6117C21.4268 69.7908 21.5746 70.2447 21.563 70.2711C21.0261 71.7611 19.4661 72.7469 19.2328 74.3443C19.2139 74.4688 19.8803 74.6396 19.884 74.6611C19.9981 75.1583 18.4255 74.1907 17.7511 74.2489C19.0589 74.7102 18.763 74.779 18.7969 75.1132C18.8142 75.2749 19.3433 75.3947 19.3898 75.4268C20.0736 75.9191 19.0387 75.6765 18.8237 75.6353C18.0337 75.4821 18.8512 75.9645 18.3231 75.8621C17.7982 75.7625 17.15 75.2772 17.0569 75.5471C17.4912 75.8 18.7777 76.0672 18.8959 76.3452C19.344 77.3946 17.8471 78.4595 17.5119 79.0389C17.1777 79.6163 17.1879 79.8452 16.8818 80.1425C16.332 80.6703 17.3197 80.7816 17.5766 81.3409C17.833 81.9008 15.6987 80.8561 15.2016 80.7312C14.705 80.6055 15.1698 80.8557 14.8814 80.8264C14.5933 80.797 14.3295 80.5192 14.1673 80.6483C14.1545 80.6585 14.1469 80.6727 14.1439 80.6905C14.1125 80.8889 14.7125 81.5736 15.1493 81.8028C16.1522 82.3342 17.334 82.559 16.7758 82.8482C16.7431 82.8643 16.1946 82.5575 16.0986 82.6307C15.3536 83.2249 15.0133 84.0125 14.3192 84.6227C14.2233 84.7051 13.615 84.3595 13.5519 84.4047C12.8901 84.8797 14.0659 85.079 15.137 85.9002C13.5612 85.1912 12.5007 85.0034 12.3029 85.4807C12.182 85.7709 12.9039 85.9947 13.3252 86.3758C13.4524 86.4902 12.8897 86.508 13.2051 86.6748C14.2359 87.2206 15.5199 87.4988 14.8444 87.8081C14.813 87.8211 14.2495 87.5205 14.1841 87.5822C13.7587 87.9801 14.8649 88.4796 14.7966 89.0591C14.742 89.5163 13.7687 89.9805 13.4737 90.41C11.6681 89.6993 11.9098 90.3061 13.0882 90.9687C12.9194 91.2539 12.8624 91.6125 12.5765 91.8414C12.4786 91.9207 11.9797 91.6525 11.9181 91.6436C10.9533 91.5 12.1176 92.0993 12.1401 92.1833C12.3295 93.0762 11.1851 93.3104 11.8289 94.3354C11.8522 94.3721 13.0987 94.8865 12.109 94.722C12.041 94.71 11.5521 94.2682 11.3867 94.5731C11.2212 94.8781 10.3164 95.2343 10.7363 95.8991C10.8367 96.0606 11.7622 96.7125 10.8794 96.6359C10.7597 96.6252 10.4087 96.4595 10.1912 96.4277C9.49726 96.3288 10.7487 96.8729 9.60312 96.6355C8.45806 96.3967 7.51868 96.4415 8.10453 97.1698C8.12106 97.1924 9.09756 97.6673 9.03031 97.8037C8.92262 98.0196 8.59325 98.2725 8.51607 98.511C8.47873 98.6275 9.13683 98.7779 9.14129 98.802C9.18451 99.2727 8.99601 99.5916 8.73168 99.8938C8.49256 100.171 8.19362 100.432 7.94609 100.783C7.84751 100.923 8.57207 101.642 7.79 101.709C6.93208 101.79 3.90778 100.44 4.41006 101.443C4.60815 101.856 8.47644 103.474 6.2425 103.381C6.43471 104.59 5.08657 105.267 5.53279 106.544C5.55215 106.602 6.63593 107.059 6.59077 107.166C6.52133 107.326 5.97078 107.277 5.90483 107.386C5.6132 107.849 5.94799 108.421 5.75844 108.885C5.68812 109.06 5.15691 108.861 5.07191 109.077C4.98744 109.293 5.67502 109.606 5.25557 109.823C4.93602 109.989 3.40846 109.865 3.16504 110.139C4.62071 110.482 4.54337 110.682 4.84864 111.132C4.90784 111.22 5.433 111.255 5.48726 111.302C5.7196 111.495 5.27108 111.528 5.52957 111.716C5.59159 111.761 6.09073 111.869 6.16971 111.912C6.85974 112.281 5.66215 112.4 5.45409 112.42C4.66175 112.503 5.29005 112.749 4.9616 112.868C4.63313 112.988 4.31866 112.649 4.09959 112.823C3.64247 113.203 3.61997 113.776 3.5172 114.234C3.48033 114.412 4.17318 114.405 4.1835 114.433C4.29027 114.832 3.51351 115.099 4.82474 115.507C1.31478 115.237 5.12609 115.778 4.35761 116.201C4.29594 116.233 2.64266 116.068 2.424 115.868C2.20689 115.66 2.755 115.495 2.41562 115.2C2.33463 115.138 0.847096 114.581 0.762119 114.518C0.090169 114.058 2.54672 114.416 2.68373 114.422C4.16766 114.464 2.57876 113.82 2.4847 113.689C2.04281 113.146 2.45996 112.819 2.16323 112.365C1.97139 112.073 0.383178 111.727 0.472979 111.534C0.770127 110.902 3.03356 111.16 1.24916 110.123C0.86915 109.901 -0.894831 109.646 0.576658 109.472C0.670449 109.456 1.99409 109.4 1.25489 109.013C1.16166 108.964 0.657452 108.846 0.623114 108.802C0.403872 108.506 0.839382 108.457 0.707036 108.164C0.575251 107.869 0.361583 107.504 0.602727 107.265C0.747493 107.119 1.7376 107.14 1.98623 107.121C2.702 107.068 1.68578 106.544 2.5199 106.611C3.35681 106.684 4.50258 107.27 5.11353 107.051C3.81692 106.694 2.49078 106.309 1.18944 105.939C1.45373 105.13 2.09235 104.459 2.27118 103.632C2.29184 103.53 1.56789 103.429 1.57241 103.314C1.59606 102.824 2.2077 102.578 2.1554 102.046C2.1126 101.634 1.50445 101.012 1.44379 100.565C2.98271 100.803 2.66753 100.077 2.9343 99.7184C3.02732 99.5916 3.41445 99.7303 3.57514 99.6718C4.17238 99.4482 2.82323 99.1952 2.65551 99.0218C1.94237 98.2771 4.86907 99.2314 4.97666 98.6857C4.97857 98.6776 4.86724 98.603 4.70442 98.4977C4.28526 98.2308 3.52722 97.7611 3.46958 97.7032C2.94404 97.1874 4.02573 97.8429 4.20489 97.6982C4.53076 97.4389 4.98308 97.3351 4.66871 96.786C4.57508 96.6247 3.71097 96.0041 4.53471 96.0519C4.64263 96.058 5.14706 96.2581 5.18534 96.2456C5.83615 96.0023 4.23711 95.4135 3.78317 94.973C3.32993 94.531 4.57076 94.5644 4.91691 94.6056C5.81296 94.7103 5.21307 94.8864 5.29004 94.9267C6.20587 95.4046 6.13902 95.0744 6.29644 94.8976C7.87536 95.4455 7.88653 95.1256 6.45274 94.7137C6.2959 94.6693 6.38319 94.8829 6.29644 94.8976C4.82389 94.1519 4.74612 93.7563 6.31154 93.9424C7.04527 94.0297 7.7723 94.4758 7.66968 93.8749C7.62379 93.6029 6.51383 93.2862 6.29444 92.9776C5.79456 92.272 7.02083 92.0627 7.03925 91.538C7.04601 91.3473 6.39472 91.2882 6.37911 91.15C6.33599 90.7824 6.88055 90.6806 6.77196 90.2868C6.76138 90.2508 6.11953 90.0835 6.14829 89.9848C6.35458 89.2314 6.99121 88.7532 7.29374 88.0039C7.44005 87.6405 7.35345 86.8589 7.56811 86.5091C7.93611 85.9021 9.1425 85.4488 9.14293 84.8087C9.14512 84.394 8.50037 84.232 8.14295 83.9126C7.44892 83.2963 9.10958 83.3341 9.36156 83.3532C9.37002 83.3535 9.39333 83.7202 9.77332 83.6782C10.4677 83.8394 9.36303 83.3578 9.36156 83.3532C9.52568 83.3621 9.90689 82.7994 9.83895 82.6272C9.80108 82.535 9.20463 82.3447 9.19585 82.301C8.99965 81.2686 9.17507 80.3846 9.76943 79.6591C9.78682 79.6492 10.43 79.9235 10.4628 79.8969C10.6657 79.7432 10.6601 79.5295 10.5549 79.309C10.4209 79.0032 10.1226 78.6593 9.93974 78.329C9.62168 77.7423 9.90021 77.4907 11.113 77.6789C11.0878 77.3227 11.751 77.0742 12.1467 76.9408C12.5433 76.8052 11.2869 76.2822 11.2701 76.2507C10.7293 75.2564 11.6105 75.1322 11.9982 74.4597C12.1848 74.1406 12.2604 73.3935 12.2655 72.9671C12.2652 72.6346 12.6334 72.5661 12.5465 72.2259C12.5354 72.1792 11.9561 71.9979 11.9387 71.9782C11.3812 71.4109 12.705 72.093 12.9759 72.1257C13.9601 72.2477 14.4917 72.2935 14.2206 71.7433C14.1576 71.6198 12.2759 70.5772 12.2237 70.3689C12.1593 70.1 12.8402 70.4568 12.7559 70.1654C12.7494 70.1407 12.3092 69.9716 12.3829 69.8414C12.721 69.2306 13.2571 68.6279 13.4908 67.9317C13.5243 67.8378 12.7831 67.6743 12.8213 67.5308C12.9988 66.864 13.3212 66.1669 13.9196 65.6704C14.0688 65.5499 14.5059 65.8575 14.663 65.8861C15.6139 66.0589 14.4946 65.213 14.4944 65.1501C14.4429 64.0081 15.4022 63.5022 15.9162 62.5752C16.026 62.3805 16.1019 62.1484 16.1084 61.8675C16.1089 61.793 15.0472 60.6699 16.2592 61.0676C16.3398 61.0941 17.5784 61.5037 16.8929 60.9211C16.8501 60.8845 16.2016 60.6938 16.3736 60.5148C16.5458 60.3349 16.3374 59.787 17.134 59.84C17.3862 59.8543 18.631 60.2466 17.8793 59.4858C17.8249 59.4361 16.0205 57.9112 17.5059 58.5172C17.7505 58.617 19.2206 59.4462 18.6381 58.7045C18.5245 58.562 18.1317 58.4967 18.0148 58.2191C17.8344 57.7916 18.4149 57.6706 17.9276 56.995C17.8404 56.877 16.9652 56.0904 17.8307 56.3212C17.9662 56.3575 18.429 56.6851 18.5388 56.6165C19.063 56.2921 19.0086 55.6144 19.6192 55.3247C19.8344 55.2219 20.5788 55.7561 20.8906 55.7005C21.2029 55.6438 21.6073 55.408 21.3526 55.0158C21.0977 54.6236 19.722 54.1034 19.7827 53.7652C20.0553 52.2854 21.5158 51.4952 22.4566 50.2834C22.5984 50.1017 22.0586 49.9759 22.2395 49.6856C22.5106 49.2521 22.8171 48.6471 23.2687 48.0002C23.6867 47.3751 24.2553 46.7422 25.1079 46.6931C26.2471 46.6236 26.2627 47.7547 26.8779 47.5154C27.175 47.3959 25.9725 46.1759 25.9665 46.0929C25.8967 45.2623 26.7646 45.3321 26.9153 44.7249C26.9462 44.5994 26.3205 44.2988 26.3531 44.1962C26.4595 43.8421 26.9224 43.7185 27.0733 43.4108C27.1396 43.2722 26.6981 42.9913 26.8122 42.9009C27.0804 42.6811 27.4322 42.5669 28.0216 42.5857C28.0752 42.5875 28.4857 43.1302 28.6504 42.9422C28.9159 42.6365 29.6005 42.5132 29.4724 41.8413C29.4329 41.6405 28.4707 40.933 29.3148 41.1756C29.4914 41.226 30.6001 42.1385 29.808 41.1237C29.6755 40.9559 28.6853 39.4826 29.7274 39.8874C30.0018 39.9935 31.0585 40.5393 31.0139 40.2917C31.0043 40.2554 30.4353 39.945 30.4709 39.7934C30.6058 39.2656 30.9831 38.8834 31.1522 38.3397C31.1971 38.1928 30.5419 37.9535 30.6265 37.7466C30.6504 37.6882 30.678 37.6308 30.709 37.5745C30.9332 37.142 31.3992 36.7968 31.8204 36.5565C31.9945 36.4584 32.3519 36.8951 32.4075 36.9211C33.3098 37.3449 32.3478 36.4409 32.33 36.3384C32.2361 35.7076 32.9306 35.8142 33.0461 35.3907C33.0791 35.2751 32.5313 34.9611 32.5002 34.9096C32.2031 34.3974 32.9979 35.2116 33.1849 35.1693C33.7121 35.0528 33.945 34.6561 34.1233 34.2786C34.1879 34.1396 33.5029 33.8453 33.5673 33.7259C33.9357 33.0127 34.4604 32.3994 35.2015 32.0269C35.3422 31.9574 35.7551 32.3442 35.8767 32.3927C36.7285 32.7307 35.8796 31.8079 35.8159 31.6938C35.5339 31.1598 36.0047 31.3429 36.0564 31.0903C36.0973 30.8737 36.1544 30.673 36.2115 30.503C36.1684 30.271 37.0654 28.8533 37.6202 27.9389C38.5499 26.3817 39.6034 25.2154 40.2109 23.4849C40.2502 23.3752 39.5218 23.1836 39.5471 23.085C39.9092 21.8154 40.7178 20.7477 41.1107 19.4481C41.1445 19.3414 40.4401 19.1769 40.4738 18.994C40.5381 18.6171 40.7813 18.2136 41.1505 17.983C41.3295 17.8697 41.7593 18.3604 41.9281 18.2418C42.1853 18.0618 42.3805 17.8413 42.5159 17.585C42.5948 17.4356 42.6575 17.2759 42.7039 17.1068C42.7594 16.9 41.9766 16.8305 42.0959 16.5932C42.8898 14.9957 43.5839 13.622 45.2174 12.7577C45.3285 12.7005 46.6219 13.3965 46.5039 13.0549C46.1679 12.8247 45.7616 12.5718 45.3969 12.3349C46.4017 10.2874 48.0308 8.71564 49.3278 6.90349C49.3823 6.82702 48.6454 6.53252 48.7479 6.3821C49.3411 5.51037 49.7348 4.53822 50.9792 4.07972C51.1017 4.0338 52.2008 4.84744 52.206 4.47247C52.2067 4.40429 52.3231 3.91008 52.1462 3.64344C52.1187 3.60451 51.5436 3.31541 51.614 3.17966C52.037 2.38991 52.6894 1.70175 53.5223 1.19192C53.6564 1.1123 54.1259 1.62583 54.226 1.57291C54.9397 1.18292 54.9798 0.233691 55.8999 0.0152519C56.5132 -0.122243 57.3656 0.702195 58.4412 1.18982C58.589 1.26379 58.7901 1.03544 59.3368 1.42748C60.7143 2.40872 62.1208 3.62014 63.5994 4.65207C63.9206 4.87028 63.7778 4.36385 64.4151 5.07753C64.4593 5.12302 64.5618 5.50672 64.7794 5.74807C64.9327 5.91101 65.5257 6.259 65.7042 6.49163C65.8824 6.7242 65.3653 6.45976 65.5438 6.77672C65.7291 7.09151 66.4001 7.49103 66.3036 7.78168ZM13.9234 76.3238C14.6221 76.3263 12.4007 75.4362 12.8395 75.891C12.8634 75.9141 13.8889 76.3243 13.9234 76.3238ZM3.83156 104.953C4.93662 104.923 3.50913 104.274 2.6598 104.278C1.81072 104.286 3.49608 104.964 3.83156 104.953ZM3.69448 108.482C4.59373 108.311 1.31771 107.426 1.88193 108C1.91369 108.034 3.64221 108.492 3.69448 108.482ZM58.0377 2.30711C58.0659 2.3222 58.2085 2.1766 58.1854 2.15492C57.6312 1.62368 57.3452 1.91688 58.0377 2.30711ZM3.76093 111.984C4.23383 111.962 3.78693 111.513 3.19741 111.543C2.72235 111.57 3.17165 112.015 3.76093 111.984ZM21.3303 65.2249C21.3635 65.2384 21.4603 65.1251 21.2812 65.0326C20.7036 64.7362 20.7704 65.0002 21.3303 65.2249ZM2.91151 117.735C3.10818 116.82 5.9554 116.722 5.55063 117.518C5.47861 117.669 4.69364 117.099 4.4228 117.27C3.92783 117.609 5.65996 117.995 4.72213 118.201C4.54688 118.333 2.88808 117.819 2.90772 117.733C2.90898 117.734 2.91024 117.734 2.91151 117.735ZM16.6582 77.2188C16.6892 77.2264 16.7893 77.0491 16.7617 77.0334C16.0913 76.6601 15.8897 77.0159 16.6582 77.2188ZM26.6468 58.547C26.7105 58.571 26.9935 58.203 26.9471 58.1594C25.9901 57.3306 25.4103 58.0802 26.6468 58.547ZM13.4225 90.3988C14.057 90.8767 14.0472 91.1516 13.0895 90.9681C13.2149 90.7845 13.3005 90.5838 13.4225 90.3988Z" fill="var(--stroke-0, #467603)"/>
</svg>
