<svg preserveAspectRatio="none" width="100%" height="100%" overflow="visible" style="display: block;" viewBox="0 0 44.1024 24.0561" fill="none" xmlns="http://www.w3.org/2000/svg">
<path id="Vector 77" d="M4.00044 12.9779C4.15343 14.3233 4.46201 15.5367 4.97756 17.0584C5.11543 17.5023 5.28311 17.8744 5.45097 18.119C5.62364 18.3662 5.7679 18.5085 6.11524 18.7364C6.08393 18.7609 6.68696 18.9304 7.27068 18.9284C7.59813 18.9343 7.58727 19.0718 7.68446 19.0865C7.95661 19.1225 8.10777 18.939 8.30795 18.9288C8.63733 18.9109 8.96707 18.8759 9.29517 18.8297C10.3352 18.662 11.3425 18.7745 12.193 18.98C13.4789 19.321 12.7458 19.6167 13.1414 19.8252C13.8677 20.244 13.3577 19.5059 13.6998 19.4674C14.1164 19.6023 14.5126 19.7428 14.901 19.8784L14.6785 19.8318C15.1478 19.9266 15.6074 20.0227 16.0683 20.117C15.8519 20.1427 15.6209 20.1648 15.4014 20.1852C15.7813 20.2488 16.3242 20.4099 15.6578 20.473C15.7979 20.5335 15.9211 20.5987 16.0625 20.658C16.133 20.4565 16.8168 20.5275 16.8907 20.4113C16.9684 20.2959 16.5856 20.2762 16.5872 20.2654C16.6328 20.1175 18.1714 20.5183 18.2835 20.5454C18.5761 20.6244 18.287 20.8534 18.5426 20.8649C18.9848 20.8839 18.7441 20.3278 19.2653 21.0874C19.5236 20.8838 19.5324 21.0039 19.8288 21.0476C19.8679 21.0532 19.8496 20.9188 19.8671 20.917C20.3254 20.86 19.9571 21.0734 19.9578 21.0868C19.9809 21.3164 20.4717 21.2579 20.573 21.2872C21.3623 21.5224 22.032 21.6874 22.7769 21.8503C22.7818 21.8505 22.7965 21.8528 22.8014 21.8532C23.2313 21.9709 23.6752 22.0826 24.1806 22.1884C24.4728 22.2491 25.3826 22.3066 25.6611 22.3916C25.9351 22.4753 25.7584 22.6112 25.8921 22.7125C26.1912 22.3647 26.422 22.3591 26.9084 22.7C27.1509 22.45 27.0885 22.6735 27.4741 22.678C27.7958 22.6821 28.3941 22.4305 28.6938 22.7732C28.3028 22.6847 28.3215 22.8298 27.8628 22.8424C27.7106 22.8474 26.1639 22.601 26.2312 22.9076C26.2669 23.0679 26.8015 23.0137 26.8173 23.0447C26.906 23.225 26.588 23.3769 26.3452 23.2656C26.4134 23.2433 26.4953 23.2228 26.5688 23.2013C26.0317 22.906 26.2966 23.7455 25.9749 22.9969C25.9356 22.9051 25.9699 22.8218 25.8962 22.7189C25.872 22.7524 25.9652 22.8608 25.8694 22.8616C25.7726 22.8625 25.6199 22.6607 25.5699 22.8012C25.4946 23.0051 25.9008 22.9869 25.929 23.0042C25.9295 23.003 25.93 23.0018 25.9306 23.0006C26.173 23.1554 25.6257 23.0783 25.5958 23.0938C25.4063 23.1973 25.5032 23.3171 25.2326 23.3837C25.0782 23.4216 24.7163 23.3245 24.5768 23.322C24.4396 23.3204 24.6314 23.4543 24.5378 23.4609C24.4434 23.4673 24.3437 23.3732 24.2325 23.3805C24.1853 23.384 24.1696 23.4955 24.1471 23.4958C23.9029 23.4999 24.0969 23.2941 23.8798 23.2733C23.739 23.2599 23.2407 23.4016 23.5501 23.5169C23.3925 23.5146 23.2418 23.5075 23.0862 23.5013C23.1767 23.5493 23.2727 23.5874 23.3601 23.6412C23.0825 23.5429 22.9232 23.7135 22.7444 23.7012C22.673 23.6962 22.6099 23.6534 22.5489 23.6093L22.6066 23.6163C22.5122 23.5541 22.4146 23.4884 22.2932 23.5468C22.0279 23.674 22.3169 23.7096 22.595 23.736L22.5318 23.7284C22.7112 23.754 22.8998 23.7765 22.9454 23.8003C22.9928 23.8246 22.7731 23.9742 22.7442 23.9752C22.6631 23.9768 22.5819 23.9225 22.5103 23.8779L22.5805 23.8863C22.5332 23.8593 22.4885 23.8363 22.4498 23.8351C22.0983 23.8262 21.8644 23.9827 21.5053 23.9928C20.2698 24.0336 18.6952 23.9781 17.5283 23.8765C17.0891 23.839 16.8547 23.616 16.6604 23.5974C16.205 23.5533 16.1273 23.7121 15.7311 23.6694C15.2654 23.6196 14.6644 23.448 14.1899 23.3277C14.1409 23.3183 13.9952 23.2929 13.9479 23.2771C13.8248 23.2279 13.7125 23.1838 13.6143 23.1488C13.2873 23.0324 12.953 23.1043 12.8699 23.0848C11.6727 22.783 10.5905 22.5876 10.07 22.7134C10.0522 22.7164 10.0348 22.7187 10.0179 22.7204C9.5612 22.7836 9.31144 22.6573 9.21145 22.6773C8.74542 22.7634 8.89033 22.9017 8.4975 22.9275C8.28387 22.9396 8.23123 22.7925 8.20268 22.7892C7.94893 22.7588 7.91007 22.956 7.70772 22.9714C6.60996 23.011 5.48033 22.9907 3.98807 22.1058C3.92472 22.0635 3.86036 22.0199 3.79504 21.9746C3.7181 21.9208 3.77406 21.854 3.72156 21.8228C3.49357 21.6847 3.51319 21.8707 3.27543 21.6971C2.77707 21.3283 2.32263 20.7915 1.99397 20.234C1.96095 20.1781 2.03977 20.0961 1.96744 19.9732C1.89731 19.8519 1.7507 19.8068 1.65819 19.6088C1.44006 19.1364 1.37455 18.6548 1.25865 18.1939C1.2523 18.1647 1.24267 18.1284 1.23235 18.0936C1.21352 18.0307 1.05843 17.986 1.02589 17.8798C0.92119 17.5438 0.873649 16.9707 0.794627 16.6607C0.526177 15.633 0.258941 14.6673 0.134011 13.6633C0.104638 13.4242 0.207181 13.2041 0.198542 13.0813C0.179896 12.8054 0.0809519 13.0232 0.057466 12.742C-0.0198091 11.7648 -0.0172775 10.781 0.0538007 9.80237C0.159036 8.46869 0.354627 7.05707 1.04413 5.58463C1.40439 4.81506 2.02154 3.81268 2.96572 3.19485C3.18391 3.04861 3.38752 2.93271 3.58102 2.83703C3.94602 2.66039 4.07649 2.78099 4.32097 2.66695C4.75262 2.47182 4.74823 2.24836 5.19783 2.04442C5.55627 1.88417 6.04025 1.92766 6.40903 1.78772C6.778 1.64851 6.88765 1.40031 7.31398 1.2427C7.66468 1.11349 8.18738 1.05757 8.57203 0.93895C9.12619 0.767173 9.68221 0.609496 10.2419 0.465624C13.202 -0.202501 15.7636 -0.0287502 18.3841 0.231137C18.819 0.279772 19.2525 0.336151 19.685 0.399715C20.9511 0.586083 22.3549 0.733852 23.6367 1.13621C23.7563 1.17436 23.5384 1.33597 23.9393 1.35972C24.1022 1.36972 24.3272 1.30619 24.6438 1.31133C24.7522 1.31398 24.8681 1.324 24.9961 1.34747C26.5838 1.61755 28.1822 2.32358 29.4294 2.75972C30.7472 3.19128 32.1647 3.58911 33.5776 3.96879C34.8623 4.3353 36.165 4.54048 37.6997 5.35914C40.6099 6.9716 43.2208 8.86253 44.0958 12.0988C44.1645 12.3611 43.68 12.5219 43.5007 12.5156C43.5124 12.3684 43.5362 12.2123 43.5483 12.0539C42.9886 12.3396 43.1369 12.2587 42.8279 11.8438C42.638 11.5926 42.6205 11.9539 42.4519 11.8837C42.2361 11.7889 41.3175 11.3054 41.734 11.1505C41.6414 11.1579 41.5537 11.1664 41.4625 11.1735C40.8994 10.7157 40.3091 10.3155 39.7026 9.94294C39.5968 9.87812 39.5104 9.9709 39.4024 9.90494C39.111 9.72836 38.9609 9.4942 38.6842 9.28472C38.5342 9.17153 38.4218 9.26852 38.2365 9.10861C38.0504 8.94912 38.1763 8.79602 37.7805 8.76116C37.8014 9.08861 37.1444 8.35936 36.8541 8.17496C36.8122 8.14663 36.3533 8.09403 36.1912 7.9534C36.1473 7.91529 36.1016 7.86588 36.0517 7.81186C35.9509 7.68759 35.7981 7.52744 35.5746 7.47952C35.4299 7.44836 35.2786 7.56804 35.1357 7.51362C35.0346 7.47532 34.9749 7.28125 34.8438 7.22053C34.7151 7.15961 34.3755 7.16577 34.3221 7.14905C34.1236 7.08549 34.3772 7.06249 34.2441 7.0084C33.6018 6.74968 32.8203 6.4565 32.1141 6.33837C32.0275 6.32371 32.1103 6.47891 32.0979 6.47993C31.4846 6.47495 31.8335 6.39795 31.708 6.24555C31.5881 6.09699 30.4568 5.86732 30.3924 6.08076C30.4268 5.80262 30.1247 5.94468 30.057 5.93581C29.796 5.90165 29.9042 5.68113 29.6403 5.69014C29.5422 5.69288 29.6792 5.89598 29.5825 5.86619C29.3438 5.7924 29.1917 5.48347 28.8751 5.37135C28.8199 5.35169 28.7756 5.40069 28.7043 5.41435C28.6747 5.41921 28.6405 5.4185 28.5995 5.40584C28.449 5.36226 27.9003 5.04161 28.1006 5.36103C27.801 5.061 27.6992 5.13997 27.3026 5.00342C27.203 4.96879 27.1329 4.74787 26.9049 4.73468C26.8284 4.73056 26.7741 4.90285 26.6682 4.87037C26.4259 4.7969 26.2557 4.54749 25.9517 4.45204C25.3837 4.27319 24.7491 4.25591 24.1575 4.10029C24.15 4.09831 24.143 4.09606 24.1365 4.09357C24.0003 4.04216 24.0561 3.88365 23.8216 3.83969C23.7843 3.83306 23.462 3.9382 23.2931 3.89657C23.1922 3.87075 22.672 3.67968 22.5638 3.65555C22.3869 3.61538 22.3293 3.78479 22.236 3.73681C21.9656 3.59888 22.2283 3.3741 21.8377 3.67769C21.7514 3.46794 21.5478 3.46076 21.5145 3.21294C21.363 3.46004 21.2439 3.18822 21.0048 3.24784C20.7655 3.30752 20.5198 3.79461 20.5295 3.24044C20.4151 3.29405 19.9498 3.35637 19.8729 3.35672C19.6456 3.35577 19.7822 3.21712 19.6101 3.21948C19.5798 3.21979 19.6002 3.32664 19.4096 3.29653C19.2845 3.275 18.3633 3.18169 18.3097 3.16438C18.23 3.13624 18.177 3.11433 18.1454 3.0971C18.0875 3.06617 18.0992 3.05031 18.1499 3.04203C18.2869 3.01869 18.7141 3.05522 18.8079 2.99207C18.8292 3.02385 18.8501 3.05571 18.873 3.08732C19.1463 3.1631 19.0111 2.91324 18.8895 2.84669C18.7682 2.78013 18.522 2.86313 18.4238 2.77697C18.3749 2.73374 18.4315 2.45489 18.5881 2.50316C18.4251 2.40122 18.6666 2.33054 18.6063 2.24304C18.5765 2.20002 18.4059 2.15692 18.2253 2.13754C17.999 2.11321 17.7651 2.12566 17.7546 2.21106C17.8976 2.22724 18.0691 2.23577 18.2156 2.25394C18.218 2.25424 18.2204 2.25454 18.2227 2.25484C18.2708 2.33702 18.2506 2.46781 18.1865 2.60268C18.0235 2.93591 17.6022 3.29599 17.2489 3.00863C16.8887 2.71771 17.5283 2.54374 16.6134 2.71339C16.7536 2.73209 16.8653 2.76411 16.9917 2.78344C16.9917 2.98671 16.8031 2.75139 16.6942 2.80991C16.6429 2.8385 16.9428 2.99999 16.6719 3.03205C16.4555 2.72929 16.263 3.01074 15.876 2.99821C15.985 2.95081 16.097 2.9042 16.2058 2.85757C15.5591 2.61745 17.0915 2.61745 15.8142 2.44274C15.9672 2.43925 16.1238 2.44857 16.2787 2.44181C16.2081 2.3318 16.3446 2.02549 16.2798 1.95624C16.1109 1.77447 15.8401 1.86757 15.6204 1.84516C15.5254 1.83564 15.5872 1.75323 15.5792 1.75247C15.4501 1.73907 15.4728 1.86351 15.3577 1.86821C15.2158 1.87356 14.7955 1.74614 14.7276 1.75977C14.5529 1.79314 14.8407 2.03997 14.8239 2.05821C14.7113 2.17477 14.4851 2.0756 14.4964 2.23041C15.044 2.1197 16.6059 2.31488 15.185 2.52555C15.5654 2.78584 15.4405 3.12436 14.8934 3.14156C14.4381 3.15882 14.7346 3.02405 14.4966 2.87071C14.4683 2.8501 13.8535 2.78217 13.8257 2.89168C13.8459 2.64398 13.6394 2.42958 13.7694 2.17168C13.7896 2.13349 14.045 2.14432 13.9529 1.94069C13.9073 1.83826 13.7724 1.61662 13.7905 1.48517C13.7379 1.57739 13.6842 1.6812 13.6332 1.77765C13.2446 1.81532 13.1862 1.72117 12.9619 1.56196C12.9757 1.63238 13.1869 1.91969 12.8843 1.84514C12.8686 1.84071 12.8486 1.73419 12.6935 1.69097C12.3783 1.6059 12.3037 1.57998 12.5237 1.24776C11.8855 1.47944 11.7056 1.14253 11.0303 1.3526C11.2336 1.72969 11.4468 1.58602 12.0546 1.44582C12.0911 1.53879 12.1126 1.63227 12.1483 1.7264C11.3216 1.59587 11.7124 1.57543 11.2864 1.83178C11.1824 1.89162 10.5793 1.95727 10.8308 2.18532C10.8892 2.23705 11.248 2.16607 11.222 2.27377C11.2161 2.29213 10.7954 2.42035 10.753 2.40542C10.7193 2.39225 10.6911 2.37844 10.6672 2.36415C10.2993 2.15276 10.9288 1.80422 9.72186 2.20705C9.68654 2.21939 9.70226 2.33665 9.63609 2.37016C9.51188 2.43303 9.47598 2.30159 9.3659 2.36247C9.25536 2.42365 9.14053 2.64335 8.91921 2.52805C8.51218 2.3194 9.23613 1.93675 9.62201 2.01161C9.66547 1.56666 7.18843 2.24937 7.05216 2.35586C6.43817 2.7174 7.51183 2.27087 7.60161 2.36485C7.63988 2.40275 7.80288 2.97902 7.96629 2.52325C8.01576 2.38781 7.62687 2.34667 7.81433 2.22348C8.00273 2.10051 7.971 2.29456 7.98956 2.30181C8.05241 2.32695 8.25319 2.20015 8.28849 2.21624C8.82795 2.45855 8.94534 3.01967 8.13612 2.3709C7.94055 2.62811 8.59799 2.75401 8.32581 2.96908C7.99864 3.22975 7.64853 3.05452 7.5974 3.05769C6.99294 3.09981 7.75921 3.26811 7.04051 3.37294C6.6398 3.43523 7.52246 2.92636 6.66479 3.24959C5.94778 3.53191 6.38932 3.52138 6.44541 3.83633C6.45918 3.91012 6.1052 4.13857 6.61885 3.91318C6.60555 3.83043 6.59697 3.71814 6.60464 3.63468C6.75637 3.64348 7.10845 3.95698 7.18115 3.94754C7.53794 3.89884 7.45624 3.70193 7.73188 3.87716C7.50557 3.66071 7.78772 3.74399 7.8574 3.66137C8.11802 3.35672 7.66929 3.40774 8.48082 3.45276C8.34845 3.35698 8.22684 3.26093 8.0956 3.16619C8.18371 3.13495 8.27009 3.10451 8.35826 3.07405C8.57098 3.30735 9.02817 3.14045 8.68311 3.53612C9.21321 3.46924 9.4019 3.35809 9.45906 3.11388C9.47001 3.06736 9.54262 3.03093 9.6328 3.00365C9.60017 2.94779 9.53017 2.76733 9.53875 2.74079C9.6176 2.50635 9.90529 2.80391 9.86987 2.9536C9.93522 2.94405 9.9878 2.93904 10.0063 2.93792C10.1241 2.9309 9.93262 3.10517 10.0341 3.12387C10.067 3.12958 10.3783 3.02711 10.3959 3.07494C10.5018 3.36402 9.99473 3.28307 10.86 3.22501C10.9041 3.22311 10.9562 3.22092 11.0092 3.22032C10.995 3.09757 10.9065 3.05419 10.8146 3.02225C10.6789 2.97996 10.5328 2.95814 10.5653 2.76526C10.5869 2.63794 10.6491 2.60357 10.7186 2.59356C10.8409 2.57599 10.9867 2.64098 10.9748 2.37437C11.0101 2.43637 11.0305 2.48981 11.0639 2.56175C11.4617 2.3095 11.5238 2.65226 11.6608 2.70831C11.9264 2.81296 13.0931 2.69143 12.0137 2.49344C12.163 2.44759 12.324 2.41897 12.4749 2.38081C12.5585 2.99134 12.4461 2.74513 13.1872 2.80022C13.349 2.81381 13.4118 3.08128 13.5602 2.75634C13.5498 3.06992 14.0205 2.86995 14.0683 2.90864C14.3516 3.15134 13.3147 3.51437 13.1559 2.97205C12.9889 3.19679 12.9737 2.91121 12.7784 2.96149C12.4962 3.03605 12.463 3.09351 12.1057 2.91725C11.8067 3.23765 13.4093 2.94156 12.4623 3.41085C12.2179 3.53741 11.6402 3.6776 11.011 3.8989C8.96588 4.53851 5.76854 5.81679 5.20458 6.28692C5.14209 6.32801 5.08563 6.3674 5.03659 6.4039C4.37484 6.98407 4.07351 8.25782 3.94292 10.045C3.93964 10.0926 3.93648 10.1404 3.93346 10.1885C3.90246 10.3918 3.94098 11.9198 3.59844 11.6116C3.54581 11.5709 3.40778 10.8893 3.14568 11.4794C3.30224 11.3581 3.4131 11.6965 3.4317 11.7253C3.8443 12.3614 3.90132 11.977 4.00044 12.9779ZM1.6459 16.755C1.31548 15.2457 1.39067 16.3987 0.804744 16.2156C0.854419 16.4168 0.905 16.6097 0.959872 16.8083C0.976743 16.7487 0.993211 16.6873 1.01048 16.6277C1.01042 16.6275 1.01036 16.6272 1.0103 16.627C1.22262 16.6738 1.43356 16.7129 1.6459 16.755ZM23.7462 23.8831C23.6782 23.9412 23.6123 23.9999 23.5411 24.0561C23.3547 24.0046 23.1693 23.9541 22.9843 23.9041C23.0143 23.8619 23.0423 23.8188 23.072 23.7765C23.2948 23.8132 23.5192 23.8513 23.7462 23.8831ZM9.80744 1.88857C10.1241 2.0073 10.0213 1.68312 10.4196 1.75006C10.3198 1.51651 10.2154 1.28967 10.1121 1.05963C9.83872 1.16117 9.79782 1.26848 9.47913 1.28424C9.5339 1.35337 9.58959 1.42282 9.64319 1.49285C9.68933 1.46378 9.73829 1.43169 9.78361 1.40505C9.913 1.60456 9.44147 1.7546 9.80661 1.88931C9.80689 1.88906 9.80716 1.88882 9.80744 1.88857ZM12.7048 1.33105C12.8623 1.35131 13.4693 1.44801 13.5482 1.344C13.8213 0.978555 12.1028 1.27772 13.3645 0.909428C13.357 0.860428 13.361 0.812018 13.3593 0.763306C13.1231 0.754327 12.8881 0.750808 12.6493 0.752442C12.6743 0.94538 12.6784 1.1372 12.7048 1.33105ZM0.814681 11.2348C0.83131 10.997 0.71065 9.84693 0.474399 10.2096C0.402769 10.3212 0.706089 10.8461 0.69337 11.0376C0.684315 11.1645 0.509466 11.0226 0.574583 11.2727C0.651331 11.2612 0.736461 11.2538 0.814162 11.2341C0.814335 11.2343 0.814508 11.2345 0.814681 11.2348ZM1.83592 11.6553C1.79838 11.4221 1.75679 11.183 1.72602 10.9441C1.5249 11.1176 1.65648 11.4603 1.37806 11.4866C1.35566 11.4206 1.3337 11.3539 1.31198 11.2886C1.37265 11.2375 1.43358 11.1874 1.49464 11.1376C1.34381 10.9286 1.26554 11.0557 1.31661 10.6663C0.891214 10.8914 0.655719 10.9483 1.0956 11.6164C0.864223 11.493 0.117238 11.6347 0.666173 12.0009C0.767906 12.0673 0.822305 11.7692 0.838471 11.7649C1.03295 11.7136 1.16348 11.8721 1.34696 11.8171C1.42972 11.7925 1.42324 11.6175 1.53912 11.5892C1.59543 11.5765 1.76171 11.7346 1.83592 11.6553ZM0.86173 12.1763C0.739226 12.1056 0.470498 12.3828 0.545047 12.6134C0.660962 12.9637 0.883642 12.38 0.86173 12.1763ZM23.7475 23.883C23.7471 23.8831 23.7467 23.8831 23.7462 23.8831C23.7465 23.8829 23.7467 23.8826 23.747 23.8824C23.7472 23.8826 23.7473 23.8828 23.7475 23.883ZM11.8954 1.26152C12.0685 1.14089 12.3433 1.13277 12.3093 0.974658C12.4018 0.998695 12.4951 1.02282 12.5863 1.04817C12.5822 1.00007 12.5772 0.951935 12.573 0.904334C12.3004 0.892992 12.0258 0.886832 11.7464 0.887758C11.7953 1.01215 11.8424 1.13735 11.8954 1.26152ZM14.7816 1.25825C15.1122 1.27894 14.8379 1.05674 14.9122 0.952291C14.9848 0.847545 15.281 0.939659 15.2486 0.787746C15.0521 0.777204 14.8477 0.767999 14.651 0.761116C14.7013 0.926113 14.7357 1.0941 14.7822 1.25826C14.782 1.25825 14.7818 1.25825 14.7816 1.25825ZM5.89105 22.0473C5.62721 21.9441 5.79335 21.8302 5.19516 21.8557C5.19557 21.8559 5.19598 21.856 5.19639 21.8561C5.67942 22.163 6.339 22.3697 6.8685 22.2551C6.55672 22.0651 6.30149 22.1915 5.89105 22.0473ZM8.92974 1.60453C8.87255 1.756 9.3251 1.75111 9.38936 1.60903C9.49388 1.3776 9.01878 1.37258 8.92974 1.60453ZM14.7607 21.5371C15.0067 21.3041 14.8649 20.9967 14.5381 20.8369L14.627 20.8555C14.4694 20.7481 14.2577 20.676 14.0181 20.6786C13.9589 20.6795 14.3294 20.9206 14.1871 20.9623C14.1728 20.9664 13.9521 20.8927 13.8815 20.9312C13.8103 20.9696 13.832 21.1128 13.7257 21.1396C13.54 21.1862 13.228 20.911 13.0735 20.9999C13.0535 21.0118 13.2294 21.2439 13.2416 21.2545C13.4416 21.4219 13.7251 21.2648 13.7616 21.2736C13.9454 21.3185 13.8689 21.4841 13.903 21.538C13.9676 21.6396 14.1434 21.607 14.1525 21.6157C14.3877 21.8472 13.7643 21.6221 13.6618 21.6598C13.3836 21.7624 13.5483 21.9784 12.976 21.9185C12.9212 21.9124 12.3121 21.7317 13.0304 22.1424C11.4141 22.1293 13.7153 22.5845 14.0249 22.5804C14.1557 22.5727 14.0222 22.3564 14.1153 22.3023C14.1536 22.28 14.1945 22.2632 14.2361 22.2494C14.2559 22.2561 14.3171 22.2667 14.3377 22.2706C14.5177 22.1832 14.7114 22.1515 14.7186 21.9462C14.7285 21.6442 14.5957 21.6103 14.4297 21.6123C14.4268 21.6118 14.4183 21.6103 14.4156 21.6094C14.295 21.5949 14.1564 21.5981 14.0607 21.5315C14.1182 21.4296 14.1586 21.3256 14.2375 21.2323C14.1775 21.2961 14.3089 21.3937 14.4549 21.4692C14.5965 21.5197 14.7473 21.5506 14.7605 21.5381C14.7606 21.5377 14.7606 21.5374 14.7607 21.5371ZM10.7472 21.2607C10.422 21.0933 10.4531 21.4245 10.1538 21.2548C9.93454 21.5728 10.4128 21.5105 10.4688 21.5335C10.7284 21.6089 10.6999 21.9316 10.9605 21.8531C10.8904 21.6545 10.8293 21.4564 10.7472 21.2607ZM13.6496 22.0307C13.3701 22.1244 13.7882 22.2421 13.7972 22.2779C13.886 22.6574 12.6569 22.2341 13.6496 22.0307ZM1.52516 9.79445C1.54527 9.66892 1.3794 9.739 1.34053 9.62295C1.30011 9.50682 1.4743 9.13649 1.37502 9.13537C1.27304 9.13071 0.946865 9.82731 0.960936 9.09822C0.902439 9.11705 0.861684 9.10426 0.809942 9.11096C0.787125 9.31259 0.767393 9.51496 0.752123 9.71443C0.920886 9.61679 1.09911 9.51904 1.2639 9.42868C1.38233 9.55072 1.21361 9.59589 1.21301 9.60302C1.21318 9.60303 1.21335 9.60304 1.21352 9.60306C1.21196 9.70778 1.28137 9.82965 1.35589 9.88362C1.40313 9.91929 1.45218 9.92867 1.48623 9.89175C1.50401 9.87309 1.51768 9.84209 1.52516 9.79445ZM2.9481 19.694C3.30779 19.5132 2.75084 19.4704 2.6386 19.3612C2.52578 19.2583 2.57708 19.0207 2.45293 19.1611C2.44237 19.4253 2.90768 19.7216 2.94854 19.6937C2.94839 19.6938 2.94825 19.6939 2.9481 19.694ZM8.89751 21.4639C8.59721 21.6006 8.65597 21.7006 8.25533 21.6195C8.27905 21.7148 8.30329 21.8122 8.32752 21.906C8.6439 21.8766 8.58845 21.5998 8.95858 21.6657C9.01957 21.6759 8.92478 21.9174 9.18019 21.8073C9.08541 21.6999 8.98911 21.5788 8.89751 21.4639ZM7.3267 21.9444C7.71656 21.9222 7.96303 21.1275 7.30471 21.4985C7.20713 21.5519 7.03627 21.9562 7.3267 21.9444ZM1.59736 13.0648C1.56375 12.4622 1.49909 13.1562 1.3994 13.3277C1.16623 11.9227 1.43956 13.479 1.07042 13.6752C1.20676 13.8404 1.51169 14.1188 1.53078 13.7548C1.53944 13.6015 1.42836 13.6713 1.42761 13.6624C1.42223 13.3846 1.61952 13.3933 1.59736 13.0648ZM11.3199 21.2968C11.2987 21.2998 11.3108 21.4384 11.2437 21.4565C11.1768 21.474 11.044 21.3638 11.0215 21.4456C11.0004 21.5263 11.2718 21.6234 11.3694 21.5789C11.4666 21.5324 11.5148 21.2732 11.3199 21.2968ZM9.17339 21.066C8.8879 21.2082 9.45648 21.6272 9.52634 21.6113C10.1037 21.4833 9.17551 21.2296 9.17339 21.066ZM2.62487 14.3062C2.26186 13.6614 1.90121 14.2261 1.72739 14.7299C1.79149 14.7798 1.85624 14.831 1.91992 14.8783C1.54929 14.6729 1.13278 14.2505 1.62733 15.261C1.58138 14.6655 1.76805 15.134 1.78697 15.1332C2.38196 15.0698 1.94974 14.2906 2.62497 14.3068C2.62494 14.3066 2.6249 14.3064 2.62487 14.3062ZM12.1797 21.613C12.465 21.6764 13.2622 21.7951 12.9734 21.4426C12.7038 21.4943 12.4382 21.5499 12.1797 21.613ZM5.47053 4.55129C5.75597 4.58835 5.9616 4.49942 6.24172 4.37892C5.90666 4.2777 6.06513 4.18789 6.13256 4.1043C6.23602 3.97765 5.91715 4.10999 5.91078 4.0975C5.83948 3.9044 6.03342 3.7884 5.56635 3.98667C5.65357 3.87195 5.74157 3.75771 5.83378 3.64418C5.46658 3.78147 5.33187 3.69422 5.0323 3.64638C5.42005 3.91537 5.01974 3.81303 4.84379 4.11929C4.75982 4.27012 5.3287 4.52865 5.47139 4.55092C5.4711 4.55104 5.47082 4.55117 5.47053 4.55129ZM2.59458 13.5859C2.51315 13.5243 2.40759 13.4722 2.31687 13.4134C2.29976 13.3394 2.28368 13.2619 2.26757 13.1884C2.33019 13.172 2.39593 13.1569 2.45596 13.1394C2.46381 13.039 2.37934 13.0867 2.36787 13.0581C2.36822 13.058 2.36856 13.058 2.3689 13.058C2.20837 12.647 2.20937 12.4632 2.38811 12.1222C2.19215 12.1328 1.9962 12.1433 1.80025 12.1539C1.8231 12.2302 1.84587 12.3051 1.86914 12.381C1.97708 12.4152 2.08516 12.4486 2.19324 12.481C2.14157 12.5724 2.09079 12.6624 2.04056 12.7563C2.08446 12.8238 2.13196 12.9035 2.17467 12.9601C1.66338 13.3685 1.95694 12.5277 1.73346 12.5402C1.58302 12.5438 1.6665 13.3663 1.78615 13.471C1.803 13.4853 2.18634 13.263 2.01231 13.5815C1.98537 13.6301 1.11056 13.7715 1.86652 13.991C1.97383 14.0207 2.49181 13.7802 2.59458 13.5859ZM2.71825 10.7464C2.13641 11.1739 2.7973 9.56699 2.30203 10.2484C2.05267 10.0343 2.05394 10.0686 1.81389 10.2656C1.79233 10.2831 1.72782 10.1359 1.71827 10.1475C1.58112 10.3362 1.64149 10.5796 1.41055 10.5738C1.42137 10.6273 1.43109 10.6789 1.44233 10.7333C1.66507 10.5132 1.80291 10.8746 1.98676 11.0063C2.06962 11.0679 2.09625 10.9285 2.16875 10.98C2.19495 10.9984 2.14157 11.1943 2.21812 11.2015C2.39082 11.2176 2.6226 11.0934 2.75214 10.8966C2.75231 10.8966 2.75248 10.8967 2.75265 10.8967C2.74195 10.8465 2.72903 10.7973 2.71825 10.7464ZM4.56074 19.6619C4.39488 19.93 4.57688 20.2336 4.02808 19.9152C4.00497 19.98 3.98387 20.0457 3.9632 20.1119C4.04437 20.1849 4.12567 20.2524 4.21232 20.3199C5.02347 19.8127 4.86581 20.9334 4.94422 20.2056C4.95203 20.126 4.72568 20.0617 5.01585 20.0311C5.01571 20.0308 5.01556 20.0305 5.01542 20.0302C4.73705 19.9045 4.62887 19.9571 4.56074 19.6619ZM3.30524 18.047C2.4101 17.5462 3.37099 19.1809 3.42118 18.7984C3.41301 18.7763 2.97772 18.1035 3.30524 18.047ZM7.85064 20.1987C7.53521 20.2064 7.52422 20.5575 7.56176 20.6849C7.60002 20.8125 7.82511 20.6717 7.85515 20.6893C7.95641 20.7496 7.75278 20.8064 7.8852 20.8895C7.9282 20.92 8.53174 20.9912 8.558 20.9696C8.69774 20.8677 8.44563 20.6026 8.48491 20.5642C8.60799 20.44 8.81229 20.5661 8.83049 20.4063C8.86872 20.0661 8.57657 20.4573 8.51708 20.4689C8.34376 20.5046 8.33916 20.3167 8.20681 20.2921C8.07509 20.267 7.99668 20.3374 7.88208 20.332C7.84417 20.3301 7.86689 20.1988 7.85064 20.1987ZM6.77633 20.9561C7.12897 20.7088 6.33152 20.3657 6.24864 20.4003C5.93044 20.5396 6.58204 21.0854 6.77633 20.9561ZM1.87582 11.8689C2.0829 12.1819 2.2106 11.4301 2.13542 11.2191C2.05317 11.256 1.80256 11.7573 1.87582 11.8689ZM2.65836 14.497C2.54649 14.2204 2.18276 14.6821 2.24105 14.9271C2.55333 15.0128 2.46812 14.8873 2.44904 14.7294C2.43011 14.5693 2.747 14.7108 2.65836 14.497ZM11.6489 20.3112C11.5776 20.2768 10.4722 20.421 11.0826 20.5717C11.1293 20.574 11.8677 20.646 11.9309 20.6214C12.0611 20.5566 11.8218 20.352 11.6489 20.3112ZM3.37734 15.7502C3.09769 15.6682 3.06399 15.5188 2.81484 15.7275C2.81489 15.7277 2.81494 15.7279 2.81499 15.7281C2.63164 15.3672 3.21395 15.2134 3.18274 15.1376C3.07569 14.8656 2.7196 15.2275 2.54285 15.0757C2.76567 15.47 2.45812 15.4121 2.52047 15.7418C2.5343 15.8153 2.77712 16.0614 2.89183 16.0731C3.00631 16.086 3.27576 15.8563 3.37734 15.7502ZM13.144 20.5945C12.8224 20.4066 12.4055 20.7174 12.8647 20.9044C13.0864 20.9971 13.3381 20.7091 13.144 20.5945ZM13.2868 2.72494C13.2304 2.62122 13.1728 2.51815 13.1099 2.4161C13.2366 2.38435 13.3656 2.35309 13.491 2.32298C13.3926 2.35964 13.2891 2.39659 13.191 2.43402C13.4313 2.46078 13.5482 2.65008 13.2875 2.72491C13.2872 2.72492 13.287 2.72493 13.2868 2.72494ZM21.8045 3.36119C21.8977 3.4766 22.1511 3.19274 22.1281 3.16471C21.9512 2.95468 21.6748 3.2011 21.8045 3.36119ZM2.82258 11.3751C2.86386 10.9933 2.35047 11.2539 2.32 11.5011C2.41553 11.3522 2.80109 11.595 2.82258 11.3751ZM18.8079 2.99207C18.7763 2.94475 18.7442 2.8974 18.708 2.84965C18.829 2.92251 18.8466 2.96576 18.8079 2.99207ZM11.5411 19.8353C11.4818 19.7823 10.9617 19.6954 10.8849 19.7451C10.736 19.8395 11.1174 20.1426 11.348 20.0874C11.3732 20.0804 11.6024 19.8839 11.54 19.8352C11.5404 19.8352 11.5407 19.8353 11.5411 19.8353ZM13.825 2.90562C13.8242 2.90072 13.8245 2.89603 13.8257 2.89168C13.8253 2.89627 13.8255 2.90101 13.825 2.90562ZM30.3899 6.10436C30.3895 6.09603 30.3902 6.08804 30.3924 6.08076C30.3914 6.08821 30.3914 6.09629 30.3899 6.10436ZM8.08851 19.6093C7.91118 19.135 7.63179 19.4131 7.8888 19.6385C7.90333 19.6505 8.0557 19.6116 8.08851 19.6093Z" fill="var(--stroke-0, #EC5B13)"/>
</svg>
