<svg preserveAspectRatio="none" width="100%" height="100%" overflow="visible" style="display: block;" viewBox="0 0 35.3031 16.722" fill="none" xmlns="http://www.w3.org/2000/svg">
<path id="Vector 78" d="M25.0646 2.68344C26.7562 3.72288 28.3737 4.82545 29.8476 6.31724C29.8937 6.36543 29.9211 6.40681 29.9372 6.44289C29.9717 6.54058 29.9132 6.60286 29.9359 6.64558C30.0173 6.79968 30.2066 6.75177 30.2843 6.84615C30.6633 7.30499 31.0465 7.71374 31.4323 8.17048C31.8305 8.64257 31.313 8.75094 31.3885 8.97768C31.5355 9.4224 31.6906 8.76387 31.8991 8.79007C32.0513 8.96638 32.201 9.15096 32.3483 9.3416C32.4994 9.53945 32.6421 9.73423 32.783 9.92363C32.6678 9.88336 32.5524 9.8405 32.4375 9.79357C32.5687 9.94589 32.7043 10.2097 32.3636 10.0773C32.3857 10.1591 32.3995 10.2423 32.4241 10.3246C32.588 10.1932 32.8455 10.426 32.9547 10.3582C33.0637 10.2913 32.907 10.1772 32.9153 10.1699C33.0323 10.0729 33.447 10.762 33.4799 10.8094C33.559 10.9427 33.2883 11.0484 33.3945 11.1211C33.5791 11.246 33.8121 10.749 33.5788 11.4747C33.8171 11.3776 33.7475 11.4742 33.853 11.5818C33.867 11.5959 33.939 11.484 33.9479 11.4869C34.1837 11.5525 33.8951 11.6344 33.8873 11.6452C33.7603 11.8338 34.0154 11.9095 34.0432 11.9581C34.0864 12.0351 34.1294 12.1094 34.1727 12.1814C34.2499 12.2291 34.3804 12.4192 34.4257 12.4978C34.4867 13.1635 34.4943 13.6641 34.6098 14.3089C34.6396 14.4674 34.8407 14.9228 34.8344 15.0825C34.8292 15.2393 34.6528 15.1935 34.5926 15.2868C35.0019 15.3299 35.0699 15.4445 34.8708 15.7723C34.9415 15.7839 34.9829 15.7945 35.0061 15.8062C35.0069 15.8087 35.0078 15.8165 35.0084 15.819C35.0826 15.8598 34.9652 15.9066 35.0324 16.0608C35.1059 16.2266 35.4791 16.5082 35.2022 16.722C35.2104 16.5018 35.0735 16.5356 34.9622 16.2996C34.9449 16.2629 34.9082 16.0406 34.8368 15.8474C34.7542 15.6323 34.6394 15.4422 34.4971 15.5041C34.3545 15.5657 34.5446 15.8061 34.519 15.8221C34.37 15.9136 34.1438 15.8028 34.1866 15.6578C34.2256 15.684 34.2663 15.7173 34.3057 15.7461C34.447 15.409 33.7183 15.7698 34.3448 15.4073C34.4215 15.3623 34.5097 15.3553 34.5876 15.2906C34.5494 15.2888 34.4714 15.364 34.4452 15.3188C34.4187 15.2729 34.5687 15.142 34.4222 15.159C34.2092 15.1834 34.3349 15.3694 34.3257 15.3876C34.327 15.3875 34.3283 15.3874 34.3296 15.3873C34.2469 15.5461 34.1752 15.2655 34.1523 15.2567C34.0034 15.1978 33.9163 15.2783 33.7806 15.1734C33.7035 15.1138 33.6967 14.9207 33.6604 14.8577C33.6239 14.7953 33.5511 14.9236 33.5191 14.8836C33.4872 14.8438 33.5479 14.7696 33.5102 14.7231C33.4938 14.7034 33.3849 14.7323 33.3784 14.7226C33.3067 14.6182 33.5532 14.635 33.5115 14.5332C33.4842 14.4658 33.2109 14.3021 33.1915 14.4731C33.1492 14.4057 33.1128 14.3394 33.0743 14.2729C33.0557 14.3277 33.0476 14.3808 33.0223 14.4358C33.0349 14.2855 32.8317 14.2812 32.7926 14.2047C32.7536 14.1287 32.9489 13.9823 32.8114 13.9302C32.5207 13.8239 32.7833 14.2464 32.758 14.3218C32.7488 14.3493 32.5489 14.3153 32.5398 14.3043C32.5 14.2529 32.6008 14.1443 32.5801 14.1012C32.5054 13.9483 32.3103 13.9133 32.2236 13.7889C32.173 13.7163 32.1208 13.6433 32.0679 13.5719L32.6063 14.2452C32.0528 13.9403 31.4671 13.5348 31.0391 13.1782C30.8462 13.0179 30.8731 12.776 30.7906 12.7036C30.5984 12.5341 30.4584 12.6306 30.2957 12.4799C30.1074 12.3056 29.9408 12.0091 29.8071 11.7932C29.7719 11.7346 29.7374 11.681 29.7042 11.6369C29.6012 11.5003 29.3757 11.5033 29.3416 11.4745C28.8625 11.0742 28.307 10.5254 27.9234 10.1499C27.7427 9.97331 27.785 9.75888 27.744 9.72589C27.568 9.58363 27.5013 9.73679 27.3822 9.59653C27.3177 9.52072 27.4101 9.40158 27.4048 9.38809C27.3567 9.27075 27.2024 9.39258 27.1331 9.33241C27.1176 9.31901 27.1024 9.30545 27.0873 9.29173C26.8097 9.04853 26.5426 8.659 26.2066 8.35758C26.1808 8.33433 26.2381 8.26952 26.2177 8.2585C26.1299 8.21386 26.0786 8.34791 25.9945 8.29207C25.819 8.17674 25.6638 8.02466 25.498 7.87397C25.4815 7.85903 25.5419 7.76506 25.5014 7.7337C25.4603 7.70203 25.3664 7.76275 25.3065 7.70949C25.1498 7.57057 25.0605 7.34607 24.8849 7.20881C24.8559 7.18631 24.7403 7.2677 24.6968 7.23429C24.5605 7.12949 24.4233 6.88267 24.3046 6.79466C23.9131 6.50474 23.4992 6.32222 23.1219 6.0903C23.0343 6.03612 23.0186 5.88174 22.9743 5.85182C22.8735 5.78441 22.8917 5.93146 22.7865 5.87012C22.4269 5.66094 22.0633 5.45773 21.754 5.31666C21.0686 5.00794 20.5512 4.728 19.9985 4.50296C19.6238 4.34715 19.131 4.28882 18.7755 4.13204C18.6283 4.06657 18.6517 3.90375 18.5418 3.86612C18.3468 3.801 18.2486 3.98795 18.0361 3.94493C17.8658 3.91042 17.7341 3.6564 17.5528 3.61978C17.4615 3.60146 17.3815 3.63823 17.2964 3.67407C17.2255 3.71073 17.1482 3.74632 17.053 3.73516C16.8948 3.71654 16.691 3.5775 16.5115 3.55647C14.8519 3.36453 13.187 3.33007 11.484 3.23998C10.8809 3.20856 10.2208 3.29214 9.57688 3.17605C9.51935 3.16574 9.57395 2.98278 9.42594 3.01715C9.4164 3.01932 9.40608 3.0223 9.39491 3.02616C9.28968 3.06281 9.16327 3.24915 8.9195 3.29179C7.4928 3.5478 5.80115 3.42925 4.77611 3.94365C4.57457 4.04805 4.42634 4.18411 4.36208 4.30481C3.1416 5.74219 2.8134 7.28006 0.861714 7.72793C0.750166 7.76083 0.283276 7.61662 0.164859 7.52437C0.27371 7.50287 0.398672 7.49701 0.519697 7.48748C-0.037185 7.23553 0.107051 7.28643 0.252848 7.07483C0.345536 6.94553 0.0565372 6.95673 0.0243264 6.84653C-0.024409 6.70464 -0.0265618 6.07087 0.277028 6.36114C0.232322 6.29759 0.189046 6.23793 0.146029 6.17525C0.291602 5.79938 0.423412 5.42337 0.568795 5.03664C0.593214 4.97061 0.494314 4.89141 0.521993 4.82224C0.595779 4.63655 0.75647 4.56994 0.872652 4.412C0.935934 4.32667 0.835195 4.21895 0.934612 4.1195C1.03622 4.01887 1.17786 4.15611 1.14963 3.8691C0.881091 3.79291 1.39637 3.50419 1.52694 3.3577C1.5456 3.33586 1.55965 3.01033 1.67056 2.94163C1.78079 2.87206 2.0172 2.84737 2.10941 2.65827C2.15227 2.56983 2.08203 2.40097 2.15078 2.32895C2.19943 2.27814 2.36403 2.34075 2.43529 2.28982C2.48142 2.25676 2.52584 2.15326 2.55982 2.07765C2.58799 2.02868 2.61191 1.99001 2.62459 1.97939C2.75416 1.87188 2.67171 2.06835 2.76487 2.00635C3.21811 1.70588 3.745 1.53495 4.13481 1.31624C4.18291 1.28941 4.06855 1.19502 4.07372 1.18865C4.37657 0.915359 4.24156 1.14023 4.37194 1.21633C4.49858 1.28478 5.12579 1.04559 5.0758 0.833234C5.16546 1.09703 5.25484 0.855889 5.29121 0.838912C5.4305 0.773239 5.45387 1.01481 5.57732 0.910399C5.62306 0.872336 5.48654 0.736442 5.54332 0.728533C5.68161 0.709655 5.85744 0.938858 6.04053 0.928394C6.08398 0.926173 6.07474 0.809309 6.15191 0.798125C6.23094 0.786143 6.57385 0.867097 6.38182 0.653304C6.61069 0.810925 6.63067 0.697634 6.85424 0.664434C6.91227 0.656164 7.01441 0.828893 7.12496 0.751717C7.16222 0.725591 7.13292 0.547257 7.19304 0.53597C7.33149 0.509554 7.49193 0.673519 7.66974 0.653742C8.00059 0.617513 8.33117 0.437015 8.67902 0.436063C8.77397 0.435902 8.77636 0.618941 8.91028 0.604144C8.92446 0.602203 9.00155 0.509141 9.08042 0.458127C9.11175 0.438308 9.14312 0.424846 9.17059 0.425395C9.23079 0.425947 9.5425 0.499047 9.60465 0.50143C9.70617 0.504291 9.70499 0.32779 9.7636 0.35607C9.93244 0.438086 9.83032 0.708375 9.98713 0.337234C10.0691 0.526274 10.1781 0.496602 10.2344 0.7341C10.2751 0.464867 10.3819 0.710814 10.4989 0.612865C10.6153 0.5149 10.6862 -0.00352311 10.7534 0.544716C10.8076 0.473587 11.0504 0.34475 11.0936 0.33444C11.2177 0.304479 11.1583 0.460174 11.2511 0.435156C11.2674 0.430994 11.2454 0.327411 11.3518 0.333175C11.4234 0.335675 11.9356 0.327703 11.9661 0.342754C12.3156 0.500964 11.7792 0.448686 11.7059 0.564975C11.692 0.535697 11.6782 0.506328 11.6633 0.477449C11.5089 0.432952 11.604 0.665697 11.6738 0.718352C11.7433 0.770942 11.8712 0.662929 11.9295 0.739302C11.9586 0.777648 11.9462 1.06033 11.8605 1.02803C11.9533 1.11311 11.8311 1.20761 11.8689 1.28861C11.9101 1.3765 12.3135 1.39955 12.3151 1.24464C12.2397 1.23943 12.1451 1.24558 12.0676 1.24024C11.9599 0.971314 12.265 0.0417025 12.5575 0.413191C12.7641 0.682566 12.4175 0.889611 12.912 0.673427C12.8371 0.661005 12.7724 0.634668 12.7042 0.622461C12.699 0.419431 12.8087 0.644064 12.8672 0.580703C12.8959 0.549637 12.7263 0.402873 12.8767 0.35779C12.9982 0.650531 13.1033 0.360798 13.319 0.365148C13.2576 0.414651 13.1962 0.4641 13.1349 0.514032C13.4878 0.73584 12.6538 0.778511 13.3437 0.919102C13.2609 0.925234 13.1783 0.919933 13.0936 0.93178C13.1311 1.03939 13.0574 1.34992 13.0915 1.41697C13.1807 1.59294 13.3179 1.49324 13.4328 1.51356C13.4823 1.52216 13.4476 1.60509 13.4518 1.60577C13.519 1.61819 13.5099 1.49394 13.5696 1.48896C13.6437 1.48247 13.8558 1.61519 13.89 1.60387C13.982 1.57467 13.8477 1.32154 13.857 1.30392C13.922 1.18934 14.0361 1.29526 14.0403 1.14058C13.7472 1.22435 12.9143 1.05378 13.6863 0.832628C13.4906 0.572839 13.5616 0.230132 13.8766 0.220867C14.133 0.213997 13.9598 0.341483 14.0827 0.5017C14.0994 0.521304 14.4316 0.619322 14.4583 0.514454C14.4247 0.759622 14.5139 0.986865 14.4202 1.2348C14.4067 1.27115 14.2723 1.24542 14.3032 1.45361C14.3187 1.55815 14.3665 1.78705 14.3447 1.9168C14.3793 1.82822 14.4163 1.72846 14.4521 1.63612C14.6545 1.62742 14.6732 1.72842 14.7636 1.90836C14.7661 1.83729 14.6941 1.53014 14.8396 1.63622C14.8468 1.64245 14.843 1.74955 14.9141 1.81063C15.0563 1.93331 15.0851 1.97024 14.9319 2.26917C15.2711 2.12766 15.2928 2.48344 15.6281 2.4274C15.6231 2.0187 15.4921 2.09962 15.184 2.13999C15.1828 2.04304 15.1883 1.94788 15.1865 1.84987C15.5621 2.11648 15.3607 2.06872 15.6173 1.90671C15.6786 1.86647 15.9689 1.96219 15.9108 1.67823C15.8973 1.61118 15.708 1.59081 15.7444 1.49425C15.7496 1.47529 15.9884 1.46152 16.0029 1.4905C16.2033 1.84937 15.7249 1.99473 16.4224 1.99591C16.442 1.99594 16.4697 1.88141 16.5096 1.87209C16.5845 1.8549 16.5581 1.98861 16.6265 1.96961C16.6953 1.95067 16.8132 1.78696 16.8744 1.97246C16.978 2.30877 16.5527 2.4019 16.4093 2.21079C16.28 2.56209 17.3222 2.80957 17.516 2.84671C17.5325 2.84915 17.5442 2.84997 17.5502 2.84906C17.7605 2.81728 17.6674 2.78277 17.545 2.7375C17.4601 2.70521 17.3544 2.66743 17.3537 2.61756C17.3537 2.56897 17.5006 1.98693 17.2695 2.33212C17.2026 2.43473 17.3379 2.62305 17.222 2.66084C17.1046 2.69853 17.1857 2.5363 17.1809 2.52248C17.1665 2.47569 17.0418 2.51463 17.0325 2.48704C16.8939 2.06837 17.0367 1.51049 17.148 2.40433C17.3187 2.24657 17.0891 1.88118 17.2804 1.79103C17.5158 1.68231 17.5964 1.98532 17.6156 2.00287C17.6752 2.0515 17.7055 2.06532 17.7247 2.06046C17.7951 2.0445 17.7083 1.79324 17.9639 1.96534C18.1452 2.08882 17.595 2.13921 18.0582 2.24006C18.4449 2.32712 18.2783 2.13549 18.3937 1.83972C18.4207 1.77058 18.6593 1.7455 18.3597 1.69248C18.3287 1.7692 18.2832 1.869 18.2439 1.93671C18.1916 1.85925 18.1823 1.42915 18.1467 1.40448C18.0153 1.31259 17.9569 1.42235 17.9159 1.34036C17.9052 1.31828 17.8955 1.28209 17.8848 1.22383C17.8957 1.51139 17.8055 1.31613 17.7423 1.36037C17.5088 1.5239 17.7301 1.65751 17.3861 1.29436C17.4105 1.43231 17.4288 1.56664 17.4505 1.70396C17.4007 1.69673 17.3523 1.69016 17.3039 1.68372C17.2929 1.38923 17.0276 1.36926 17.3226 1.14038C17.0538 0.998286 16.9243 1.03767 16.8205 1.24254C16.801 1.28177 16.7535 1.28976 16.7037 1.2845C16.7014 1.34738 16.6773 1.53843 16.6653 1.56016C16.5601 1.75114 16.5158 1.37915 16.5772 1.25138C16.543 1.23851 16.516 1.2259 16.5073 1.22099C16.4499 1.18921 16.5916 1.08889 16.5494 1.03831C16.5362 1.02177 16.355 1.01767 16.3591 0.967585C16.392 0.647254 16.6463 0.922418 16.0873 0.643241C16.0281 0.930443 16.3107 0.910289 16.1907 1.20656C16.063 1.52463 15.9837 1.05821 15.8887 1.45919C15.8866 1.39061 15.8895 1.33414 15.8902 1.25655C15.6326 1.39946 15.6768 1.06133 15.6141 0.976452C15.4944 0.809942 14.8464 0.756254 15.3875 1.11935C15.2992 1.13806 15.2141 1.14162 15.1265 1.15788C15.1762 0.547215 15.2024 0.793047 14.8022 0.658139C14.7149 0.628818 14.7094 0.357524 14.5908 0.668302C14.6309 0.356234 14.3467 0.522515 14.3238 0.482887C14.178 0.222023 14.8193 -0.0712389 14.8404 0.490895C14.9622 0.285858 14.9349 0.570304 15.0504 0.544593C15.2155 0.507737 15.251 0.455621 15.4145 0.688212C15.6424 0.414869 14.6843 0.472302 15.2998 0.145542C15.6636 -0.0454388 16.9791 -0.055988 18.2295 0.158751C19.0624 0.294422 19.8289 0.493822 20.1572 0.584732C21.5353 0.957664 22.3739 1.32144 23.2669 1.72562C23.2984 1.7392 23.33 1.75314 23.3619 1.76744C23.5279 1.82632 24.4858 2.29512 24.1223 2.49436C24.0734 2.52262 23.622 2.43326 23.8289 2.84688C23.8372 2.67075 24.0778 2.68254 24.1023 2.67736C24.6532 2.55036 24.4968 2.34848 25.0646 2.68344ZM24.8851 6.23276C24.314 5.73919 24.6357 6.24298 24.2142 6.58142C24.2907 6.63586 24.3671 6.69069 24.4433 6.74605C24.4417 6.7052 24.4403 6.6646 24.4386 6.62373C24.4385 6.62367 24.4384 6.6236 24.4383 6.62354C24.5865 6.49261 24.7356 6.36245 24.8851 6.23276ZM32.905 14.6778C32.832 14.6691 32.7589 14.6611 32.6869 14.6509C32.6832 14.5579 32.6784 14.4659 32.6728 14.3742C32.7202 14.371 32.7681 14.3675 32.8156 14.3646C32.8445 14.4681 32.8718 14.5728 32.905 14.6778ZM16.2927 2.26611C16.1876 2.05524 16.1422 2.39062 15.9845 2.20869C15.9677 2.45903 15.9531 2.70427 15.9358 2.95212C16.0741 2.93758 16.1245 2.84975 16.2589 2.93593C16.2562 2.85382 16.2518 2.77097 16.2499 2.68856C16.2227 2.70121 16.1934 2.71594 16.167 2.72683C16.1674 2.4986 16.4107 2.50779 16.2933 2.26569C16.2931 2.26583 16.2929 2.26597 16.2927 2.26611ZM14.8585 2.16515C14.7869 2.12416 14.5016 1.97363 14.4499 2.07343C14.2843 2.40922 15.132 2.2684 14.4932 2.51936C14.4914 2.56864 14.4842 2.61641 14.4797 2.66495C14.5884 2.69236 14.6957 2.71805 14.805 2.74373C14.8199 2.55006 14.8445 2.3599 14.8585 2.16515ZM22.6133 4.8375C22.5238 4.75596 22.0049 4.69809 22.0602 4.96845C22.0707 5.04364 22.4048 4.85074 22.4795 4.90506C22.5261 4.93889 22.3903 5.06487 22.517 5.05829C22.5481 4.9879 22.5847 4.91093 22.6128 4.83782C22.613 4.83771 22.6131 4.83761 22.6133 4.8375ZM23.279 4.04265C23.1561 4.01133 23.0269 3.98799 22.9006 3.96164C22.8936 4.17977 23.1046 4.14676 22.9836 4.39913C22.9442 4.40213 22.9055 4.40554 22.8668 4.40923C22.8729 4.34352 22.8792 4.27791 22.8852 4.21232C22.7243 4.30093 22.7446 4.39455 22.5966 4.27321C22.5144 4.70385 22.4189 4.90571 22.9017 4.67882C22.7421 4.8535 22.4321 5.53327 22.8409 5.14981C22.9182 5.07939 22.8292 4.95442 22.8355 4.94009C22.9105 4.7576 23.0389 4.68528 23.1078 4.51181C23.1388 4.43314 23.0615 4.39258 23.1052 4.2841C23.1265 4.23103 23.278 4.12899 23.279 4.04265ZM23.0061 5.0281C22.9168 5.1141 22.8839 5.41895 23.0016 5.42148C23.188 5.42778 23.0995 5.06495 23.0061 5.0281ZM32.9054 14.6783C32.9053 14.6782 32.9051 14.678 32.905 14.6778C32.9053 14.6778 32.9056 14.6779 32.9058 14.6779C32.9057 14.6781 32.9056 14.6782 32.9054 14.6783ZM15.2262 2.34633C15.1266 2.43548 15.0001 2.40597 14.9909 2.56654C14.9519 2.53028 14.9126 2.49462 14.8744 2.45868C14.8695 2.5067 14.865 2.55487 14.8602 2.6024C14.9832 2.64616 15.1043 2.69089 15.2272 2.73739C15.2278 2.60729 15.2292 2.47683 15.2262 2.34633ZM13.8341 2.10342C13.6729 2.07738 13.7959 2.30362 13.754 2.40675C13.713 2.50982 13.5737 2.41633 13.5827 2.56839C13.6774 2.57927 13.7748 2.59095 13.8684 2.60249C13.8541 2.4366 13.8474 2.26819 13.8338 2.1034C13.8339 2.1034 13.834 2.10341 13.8341 2.10342ZM27.1786 8.24403C27.1296 8.13818 27.2709 8.03942 26.9815 8.04791C26.9816 8.04802 26.9817 8.04812 26.9818 8.04823C27.0483 8.28462 27.1584 8.54381 27.4029 8.59204C27.4287 8.37568 27.2551 8.41023 27.1786 8.24403ZM16.5772 2.81959C16.6489 2.69897 16.4575 2.54924 16.3904 2.66196C16.2806 2.84351 16.4716 3.00276 16.5772 2.81959ZM31.2484 10.6158C31.5111 10.516 31.6469 10.2559 31.6132 10.0508C31.5925 9.93162 31.5146 9.83007 31.3736 9.78916C31.3401 9.77958 31.4062 10.0318 31.3025 10.0394C31.2923 10.04 31.2124 9.9447 31.1506 9.96253C31.0887 9.98045 31.0173 10.0955 30.9432 10.0989C30.8131 10.1042 30.8006 9.83815 30.6647 9.88141C30.6467 9.88734 30.6085 10.0982 30.6091 10.1083C30.6219 10.2721 30.8701 10.1963 30.8849 10.2091C30.9609 10.2751 30.8211 10.3902 30.8087 10.4381C30.7851 10.5278 30.9001 10.5317 30.9001 10.5401C30.8915 10.758 30.6842 10.4802 30.605 10.4931C30.3925 10.5275 30.3577 10.7238 30.0772 10.5821C30.0507 10.5686 29.8186 10.3212 29.9772 10.766C29.0885 10.4719 30.105 11.2313 30.2593 11.2624C30.3333 11.277 30.3914 11.09 30.4732 11.0633C30.5142 11.0499 30.5522 11.0435 30.5882 11.0396C30.7182 11.0276 30.8253 11.0497 30.958 10.9068C31.1527 10.6967 31.1266 10.6297 31.0578 10.5865C31.0008 10.5509 30.9138 10.5317 30.8991 10.4593C30.9905 10.3899 31.0739 10.3164 31.1723 10.2579C31.0983 10.2987 31.119 10.4049 31.157 10.4909C31.1889 10.5631 31.234 10.6218 31.2477 10.6165C31.2479 10.6163 31.2482 10.6161 31.2484 10.6158ZM29.3091 9.51918C29.2841 9.27254 29.0617 9.518 29.0697 9.26031C28.7513 9.3639 28.9821 9.56308 28.9957 9.59998C29.0584 9.7668 28.8291 9.99452 29.0165 10.0395C29.1102 9.8634 29.2129 9.69338 29.3091 9.51918ZM30.3819 10.7792C30.1745 10.8073 30.3337 10.9652 30.3169 10.994C30.1437 11.302 29.7208 10.779 30.3819 10.7792ZM22.271 3.94153C22.2141 3.90474 22.1894 4.06883 22.1162 4.08875C22.0413 4.10861 21.9143 3.90108 21.878 3.99406C21.8389 4.08661 22.0781 4.47754 21.7101 4.37432C21.6985 4.43073 21.6773 4.46713 21.6621 4.51591C21.756 4.56 21.853 4.60579 21.9522 4.64991C21.9608 4.47772 21.9751 4.29838 21.9887 4.13354C22.0933 4.03919 22.0571 4.20334 22.06 4.20462C22.0601 4.20446 22.0602 4.2043 22.0602 4.20414C22.1162 4.221 22.2115 4.16841 22.2656 4.10234C22.2915 4.06847 22.309 4.03212 22.3084 4.00071C22.307 3.97792 22.2957 3.95737 22.271 3.94153ZM26.1883 7.02409C26.4501 6.71883 26.0556 6.98047 25.9778 6.98355C25.8996 6.98597 25.9229 6.81678 25.8432 6.97335C25.8487 7.12734 26.159 7.05794 26.1886 7.02369C26.1885 7.02382 26.1884 7.02396 26.1883 7.02409ZM28.569 8.79077C28.3863 8.74709 28.3308 8.83916 28.2751 8.61595C28.2121 8.69019 28.1475 8.76595 28.0856 8.83917C28.1954 8.95096 28.3859 8.74297 28.4347 8.95062C28.4426 8.98477 28.2391 9.1002 28.3852 9.14282C28.4419 9.02997 28.5077 8.90743 28.569 8.79077ZM27.759 8.49348C27.7851 8.5148 27.8312 8.51183 27.8849 8.49449C28.0722 8.4491 28.338 8.24381 28.1992 8.18031C28.1728 8.16935 28.1294 8.16449 28.0643 8.16815C27.9909 8.17071 27.6614 8.4148 27.759 8.49348ZM23.7399 4.68581C23.4887 4.5094 23.7225 4.79603 23.7272 4.9411C23.0707 4.66007 23.8161 4.95374 23.6608 5.33299C23.7931 5.2805 24.0708 5.14657 23.9547 4.99084C23.9058 4.92601 23.8661 5.04224 23.8625 5.03939C23.7607 4.94155 23.8777 4.78358 23.7399 4.68581ZM29.5587 9.73788C29.5462 9.73384 29.4641 9.84333 29.4184 9.83638C29.3727 9.82915 29.3791 9.70216 29.3147 9.7555C29.25 9.80931 29.3255 9.97492 29.4053 9.96799C29.4857 9.96079 29.6711 9.77535 29.5587 9.73788ZM28.9388 8.65809C28.7589 8.61761 28.5899 9.15296 28.6159 9.17524C28.8473 9.36669 28.8212 8.76438 28.9388 8.65809ZM24.808 4.3534C24.3468 4.35892 24.3504 4.88381 24.3974 5.23054C24.4526 5.20252 24.5086 5.17502 24.5631 5.14734C24.2659 5.34265 23.8894 5.47956 24.4942 5.5391C24.2908 5.31147 24.5451 5.37532 24.5573 5.36135C24.9182 4.88081 24.3906 4.86729 24.8083 4.35359C24.8082 4.35353 24.8081 4.35346 24.808 4.3534ZM29.8178 10.195C29.9353 10.3084 30.3064 10.5338 30.3522 10.21C30.1739 10.2044 29.9959 10.1997 29.8178 10.195ZM19.0904 1.74076C19.0039 1.55642 18.8808 1.52078 18.7171 1.48202C18.7998 1.73387 18.697 1.7289 18.6332 1.76537C18.5366 1.82005 18.7168 1.86724 18.7124 1.88139C18.6496 2.07828 18.5266 2.07364 18.7852 2.14824C18.7013 2.19745 18.6157 2.24703 18.5338 2.2969C18.725 2.36475 18.7293 2.50771 18.8005 2.70311C18.8058 2.28281 18.8816 2.57062 19.0865 2.42762C19.1898 2.35615 19.1341 1.83459 19.0899 1.7406C19.09 1.74065 19.0902 1.74071 19.0904 1.74076ZM24.5149 4.07106C24.4425 4.11128 24.36 4.17535 24.2841 4.22581C24.2447 4.21072 24.2061 4.19514 24.166 4.17995C24.1949 4.12257 24.2261 4.0631 24.2529 4.00732C24.2151 3.96255 24.1874 4.05007 24.169 4.04872C24.1692 4.04843 24.1694 4.04813 24.1695 4.04784C23.9077 4.02812 23.835 3.97055 23.7697 3.70559C23.673 3.87636 23.5764 4.04714 23.4797 4.21791C23.524 4.22146 23.5687 4.22598 23.6133 4.23065C23.6844 4.14997 23.7559 4.06942 23.8278 3.98922C23.8395 4.06332 23.8508 4.13693 23.8621 4.21119C23.9145 4.19816 23.9734 4.18684 24.0206 4.17211C23.8982 4.73834 23.7254 4.20048 23.6066 4.39606C23.5314 4.52034 23.8959 4.73067 24.0001 4.67775C24.0155 4.66995 24.1514 4.27362 24.1725 4.53709C24.1762 4.57896 23.7141 5.33156 24.2354 4.81481C24.3099 4.74191 24.5345 4.23402 24.5149 4.07106ZM23.2327 3.02239C23.2229 3.64017 22.6045 2.69839 22.7911 3.29328C22.5787 3.48324 22.6044 3.49056 22.6113 3.74625C22.6114 3.76893 22.5128 3.80294 22.5152 3.81403C22.5579 3.97174 22.6914 3.96076 22.5937 4.17029C22.6231 4.17068 22.6512 4.17204 22.6798 4.17233C22.6751 3.92803 22.8973 3.87267 23.047 3.74288C23.1145 3.68371 23.0572 3.62601 23.1152 3.57365C23.1371 3.55475 23.2084 3.65081 23.247 3.58505C23.3343 3.43612 23.3824 3.19793 23.3292 3.02937C23.3293 3.02922 23.3294 3.02906 23.3295 3.02891C23.2972 3.02553 23.2648 3.02489 23.2327 3.02239ZM27.3699 6.34169C27.2062 6.61121 27.2766 6.78219 26.9366 6.70535C26.9105 6.7632 26.8848 6.82085 26.8584 6.87855C26.9031 6.90734 26.9452 6.93435 26.9901 6.96434C27.6972 6.35191 27.2675 7.34543 27.536 6.7201C27.5648 6.65179 27.4157 6.63191 27.6357 6.56339C27.6357 6.56314 27.6357 6.5629 27.6357 6.56266C27.4626 6.49699 27.3747 6.56838 27.3699 6.34169ZM26.3087 5.7952C25.5966 6.08321 26.5284 6.41975 26.5081 6.18724C26.5062 6.16516 26.0942 6.0311 26.3087 5.7952ZM29.1863 7.48002C29.0682 7.34629 28.8091 7.58863 28.7315 7.69173C28.6537 7.79513 28.8329 7.79112 28.83 7.81665C28.82 7.90059 28.7106 7.85361 28.6942 7.96602C28.6891 8.00285 28.8217 8.31289 28.8428 8.31213C28.959 8.30783 29.0824 8.01812 29.1222 8.01034C29.252 7.98437 29.2164 8.16326 29.341 8.06768C29.6073 7.86404 29.2292 7.98031 29.2028 7.96202C29.1239 7.90604 29.2615 7.77923 29.2373 7.70242C29.2131 7.62572 29.135 7.63832 29.0998 7.58461C29.0881 7.56673 29.1919 7.48724 29.1863 7.48002ZM28.2322 7.5973C28.5548 7.52956 28.4089 6.99817 28.3214 7.00711C28.0785 7.04146 28.0798 7.62904 28.2322 7.5973ZM23.3942 4.06841C23.642 3.98308 23.3608 3.64702 23.2174 3.66293C23.2013 3.74491 23.3107 4.09799 23.3942 4.06841ZM24.8968 4.41247C24.729 4.37549 24.6685 4.85909 24.7802 4.92523C25.0043 4.72815 24.912 4.73515 24.8462 4.67757C24.7801 4.61981 25.0279 4.44197 24.8968 4.41247ZM30.3439 9.07331C30.3227 9.04585 29.7649 8.83084 29.9198 9.12239C29.9317 9.1444 30.2346 9.38421 30.2863 9.37314C30.391 9.35054 30.3973 9.14403 30.3439 9.07331ZM25.778 4.49306C25.5653 4.64896 25.4989 4.5994 25.3971 4.88463C25.3972 4.88469 25.3973 4.88476 25.3974 4.88482C25.1708 4.83795 25.4985 4.33731 25.4524 4.32145C25.2914 4.26719 25.1819 4.70728 25.0195 4.76682C25.2879 4.78887 25.0711 4.98933 25.2071 5.10445C25.2374 5.12997 25.4663 5.07978 25.5469 5.00579C25.6276 4.93158 25.7434 4.62133 25.778 4.49306ZM30.9395 9.57702C30.8749 9.3773 30.4698 9.54438 30.6066 9.77117C30.6728 9.88178 30.9787 9.69866 30.9395 9.57702ZM14.7382 0.723164C14.7568 0.831388 14.7759 0.939256 14.7957 1.04671C14.7251 1.06542 14.6539 1.08489 14.5823 1.10459C14.6401 1.07619 14.6977 1.04849 14.7554 1.02096C14.6306 0.971726 14.587 0.774284 14.7378 0.723131C14.7379 0.723142 14.7381 0.723153 14.7382 0.723164ZM10.0582 0.641012C9.98928 0.545012 9.9045 0.871118 9.92199 0.894136C10.0501 1.06558 10.1524 0.774219 10.0582 0.641012ZM23.6183 3.09886C23.4336 2.95274 23.3395 3.48195 23.4423 3.57676C23.4133 3.45006 23.7229 3.18279 23.6183 3.09886ZM11.7059 0.564975C11.7268 0.60857 11.748 0.652183 11.7712 0.69584C11.7001 0.636238 11.6872 0.59537 11.7059 0.564975ZM30.6002 8.689C30.6046 8.63795 30.4556 8.44552 30.3982 8.45744C30.2781 8.48308 30.2131 8.81702 30.353 8.83246C30.3684 8.83444 30.5956 8.73984 30.5998 8.68865C30.5999 8.68877 30.6001 8.68888 30.6002 8.689ZM14.4599 0.500621C14.4599 0.505553 14.4593 0.510209 14.4583 0.514454C14.4589 0.509909 14.4592 0.505179 14.4599 0.500621ZM5.06799 0.811011C5.07137 0.81837 5.07408 0.825838 5.0758 0.833234C5.07341 0.826152 5.07037 0.818836 5.06799 0.811011ZM29.7022 7.19051C29.991 6.78765 29.6787 6.84385 29.6098 7.11679C29.6065 7.1315 29.6892 7.1763 29.7022 7.19051Z" fill="var(--stroke-0, #EC5B13)"/>
</svg>
