<svg preserveAspectRatio="none" width="100%" height="100%" overflow="visible" style="display: block;" viewBox="0 0 52.1353 31.3055" fill="none" xmlns="http://www.w3.org/2000/svg">
<path id="Vector 74" d="M8.56647 3.24554C11.3217 2.33557 14.5663 1.56212 17.1077 0.828992C18.6936 0.304528 20.0957 0.192394 21.4418 0.0923256C22.1774 0.0442171 22.9071 0.01352 23.6264 0.000483513C24.2433 -0.00942206 24.2053 0.135979 24.3772 0.150356C24.8503 0.192372 25.1296 0.0231955 25.4769 0.035079C27.1547 0.0987551 28.7121 0.18149 30.4136 0.45578C31.1319 0.576552 31.449 0.741709 31.5753 0.875417C31.7423 1.06947 31.5492 1.20305 31.9036 1.36662C33.0291 1.94345 32.1975 1.07121 32.7129 1.10766C34.0852 1.63456 35.2284 2.34622 36.3027 2.96401C36.0094 2.87423 35.7116 2.77829 35.4069 2.67704C35.8995 2.94552 36.5473 3.37931 35.665 3.09308C35.8273 3.22371 35.9728 3.35343 36.1382 3.48315C36.2489 3.36254 36.7638 3.56917 37.0565 3.6304C37.1569 3.65344 37.2326 3.66232 37.2654 3.6441C37.3316 3.606 37.2385 3.53639 37.1298 3.47457C37.0295 3.41695 36.9134 3.36535 36.9172 3.36122C36.937 3.336 37.0273 3.36202 37.1571 3.41657C37.6966 3.64859 38.9596 4.36196 39.0768 4.42833C39.4522 4.64547 39.0009 4.72888 39.3438 4.86324C39.9352 5.09749 39.7673 4.43887 40.2681 5.44237C40.6816 5.38483 40.6601 5.50381 41.0566 5.71914C41.109 5.7478 41.1272 5.609 41.1523 5.61782C41.1746 5.62541 41.1955 5.63275 41.2151 5.63985C41.8014 5.86957 41.2361 5.82753 41.2331 5.84067C41.1972 6.07503 41.8547 6.32552 41.9746 6.4181C43.4528 7.55787 44.5382 8.37993 46.21 9.37506C46.4416 9.51276 47.0022 9.78229 47.4654 10.0178L47.438 10.0039C47.7042 10.1173 47.9372 10.2161 48.0638 10.2852C48.41 10.4724 48.153 10.541 48.3164 10.6921C48.7751 10.4489 49.0473 10.5256 49.6796 10.9614C50.0094 10.7514 49.9171 10.9618 50.4374 11.0189L50.4265 11.0168C50.4313 11.0172 50.4361 11.0176 50.441 11.0179C50.874 11.0522 51.6797 10.8064 52.1353 11.157C51.5781 11.0604 51.6176 11.2099 50.9821 11.2072C50.92 11.2063 50.6903 11.1808 50.4037 11.1406C49.7062 11.0499 48.7143 10.7788 48.7475 11.003C48.7756 11.1823 49.5241 11.2659 49.544 11.2928C49.6665 11.4928 49.2051 11.587 48.8688 11.3989C48.9678 11.397 49.0838 11.3986 49.1888 11.3954C48.4678 10.9481 48.7384 11.8675 48.3857 11.0067C48.3442 10.9001 48.4041 10.8296 48.3208 10.7C48.2829 10.7248 48.3917 10.8669 48.2627 10.8331C48.1297 10.7982 47.9607 10.5376 47.8687 10.6575C47.7299 10.8319 48.2862 10.9729 48.3219 10.9976C48.3228 10.9965 48.3237 10.9955 48.3246 10.9945C48.6363 11.2383 47.8942 10.9603 47.8531 10.96C47.5755 10.9857 47.6891 11.1477 47.3041 11.0973C47.2233 11.0867 47.1069 11.0445 46.9817 10.9908C46.974 10.9869 46.9506 10.9758 46.9432 10.9714C46.7425 10.8688 46.5261 10.7387 46.4121 10.6906C46.2331 10.6158 46.4475 10.8489 46.3232 10.8054C46.2002 10.7624 46.0923 10.6155 45.9477 10.5645C45.8857 10.543 45.8336 10.6428 45.8039 10.6309C45.484 10.5039 45.7948 10.4079 45.5167 10.2706C45.3384 10.183 44.6469 10.0493 45.0178 10.3293C44.814 10.2422 44.6167 10.1517 44.4133 10.0589C44.5199 10.1565 44.6332 10.2454 44.7338 10.3464C44.3976 10.0984 44.1369 10.1738 43.9036 10.0602C43.6671 9.94477 43.578 9.63009 43.2715 9.58794C42.6211 9.49918 43.9985 10.1424 44.1422 10.2707C44.1986 10.3214 43.8625 10.3416 43.8228 10.3254C43.6434 10.2514 43.5079 10.0275 43.3745 9.95956C42.9004 9.71944 42.5326 9.70926 42.0733 9.49093C41.362 9.15608 40.4891 8.71347 39.8094 8.39583C38.9689 8.02155 38.0293 7.66005 37.2181 7.31775C36.6506 7.0795 36.3879 6.74744 36.1329 6.63552C35.9624 6.56062 35.8296 6.51629 35.713 6.48514C35.4063 6.39967 35.2181 6.40519 34.8435 6.22283C34.0627 5.84025 33.1392 5.18588 32.5819 4.90083C32.1931 4.69716 31.7863 4.71192 31.689 4.67973C31.3703 4.5728 31.0473 4.47893 30.7381 4.41376C29.6889 4.21009 28.1484 4.11149 27.1269 4.07455C26.4846 4.05242 26.1814 3.86909 26.0465 3.87218C25.4711 3.88976 25.6254 4.04671 25.1597 4.03265C24.9083 4.02621 24.8583 3.87785 24.825 3.87236C24.5263 3.82753 24.4715 4.02427 24.2396 4.03634C23.3969 4.0815 22.5715 4.08081 21.7402 4.10323C21.2684 4.11565 20.8015 4.13797 20.3461 4.18956C20.2562 4.19975 20.2531 4.11298 20.1952 4.12529C19.95 4.1813 20.0835 4.29907 19.8328 4.34829C19.3332 4.44976 18.8529 4.53401 18.4141 4.66584C18.3849 4.67507 18.3554 4.6842 18.3257 4.69328C18.2485 4.71666 18.1841 4.62116 18.0243 4.66998C17.8661 4.71775 17.7811 4.85242 17.5439 4.91221C16.9336 5.06441 16.3332 5.08544 15.7219 5.23538C15.6222 5.25991 15.5293 5.42201 15.3796 5.459C14.9054 5.57597 14.1824 5.6391 13.7823 5.74203C12.4611 6.08144 11.2806 6.50028 10.0652 6.88274C9.95559 6.91714 9.84459 6.93288 9.74069 6.94199C9.57489 6.95661 9.43211 6.95285 9.3412 6.98056C9.00965 7.08265 9.29343 7.1122 8.96422 7.22267C8.2356 7.4606 7.39095 7.80525 7.30549 7.91647C6.97224 8.20231 6.36066 9.17177 6.01797 9.98915C5.52236 11.0986 5.06658 11.9396 4.7064 12.8534C4.29594 13.8562 4.06433 15.1066 3.88713 16.0848C3.81186 16.4924 3.6445 16.5493 3.613 16.8465C3.57297 17.2798 3.70502 17.4299 3.75653 17.771C3.76849 17.8554 3.77663 17.9472 3.77856 18.0588C3.78635 18.5335 3.58204 19.0776 3.61297 19.5701C3.64525 20.0617 3.85863 20.2748 3.92853 20.8305C3.98619 21.2879 3.96933 21.9455 4.05521 22.4581C4.1098 22.7875 4.16813 23.1188 4.22865 23.4539C4.42943 24.5563 5.05611 26.0516 5.50609 26.4798C6.83961 27.4244 10.171 28.5865 12.5053 28.3717C12.6948 28.3597 12.8848 28.3389 13.0747 28.3094C14.4893 28.0845 16.0047 27.6597 17.4525 27.3164C17.6088 27.2787 17.4471 27.5479 17.9161 27.3282C18.1677 27.2076 18.4721 26.9134 19.028 26.6564C19.0987 26.6234 19.1683 26.5905 19.2344 26.5587C20.8471 25.7966 22.4868 25.4115 24.102 25.0858C26.7543 24.6027 28.9868 24.3546 31.2783 23.528C31.7945 23.352 32.3093 23.1579 32.8246 22.9509C34.9235 22.1191 36.7096 21.0996 38.9221 20.054C40.5138 19.3662 42.1988 18.3885 44.2442 17.9386C45.6196 17.6503 46.9069 17.5946 48.2029 17.7178C48.485 17.7458 48.4697 18.2545 48.3541 18.4287C48.1855 18.3712 48.0263 18.2922 47.8483 18.2246C47.8218 18.8639 47.8135 18.6996 47.1104 18.8394C46.6774 18.9266 47.0872 19.0814 46.8821 19.2167C46.6132 19.3876 45.3506 20.0887 45.4901 19.6252C45.4272 19.7184 45.3701 19.807 45.3106 19.8983C45.1928 19.9444 45.0758 19.9918 44.9613 20.0401C44.1458 20.3829 43.3955 20.8132 42.6409 21.2738C42.4919 21.3648 42.5379 21.4831 42.3834 21.5769C41.9678 21.83 41.5804 21.9179 41.1205 22.1328C40.8698 22.2489 40.8925 22.3993 40.5507 22.5301C40.2659 22.6372 40.1734 22.5256 39.9272 22.7023C39.8861 22.7346 39.8372 22.78 39.7788 22.8426C40.1575 22.9501 38.8332 23.3155 38.3679 23.5338C38.3028 23.5641 37.8359 24.0043 37.5299 24.1027C37.2227 24.2028 36.7185 24.2547 36.2847 24.5115C36.0819 24.6318 36.0128 24.8446 35.7791 24.9444C35.6168 25.0138 35.3625 24.945 35.1498 25.0171C34.9371 25.0898 34.5252 25.3735 34.441 25.4054C34.1413 25.5212 34.4379 25.3005 34.2302 25.3686C34.063 25.4235 33.8936 25.4776 33.7171 25.5331C32.8336 25.8113 31.8815 26.0921 31.0567 26.4024C30.9358 26.4478 31.1433 26.519 31.1283 26.5279C30.3268 26.9283 30.7354 26.6333 30.4722 26.5908C30.2238 26.5575 28.603 27.0308 28.6344 27.2413C28.5219 26.9824 28.1988 27.2711 28.1055 27.2986C27.7381 27.4077 27.7641 27.1566 27.4202 27.3007C27.2946 27.3529 27.5807 27.4624 27.4391 27.4854C27.0872 27.5423 26.7285 27.3431 26.2733 27.4038C26.1641 27.4184 26.1499 27.5395 25.9585 27.5732C25.7655 27.605 24.9425 27.6359 25.3605 27.7972C25.066 27.7469 24.9165 27.7668 24.7379 27.8164C24.6005 27.8547 24.4487 27.91 24.2054 27.9672C24.0643 28.0002 23.8361 27.8633 23.5518 27.9982C23.4561 28.044 23.5054 28.2176 23.3555 28.2598C23.014 28.3572 22.6401 28.2693 22.2095 28.3991C21.6052 28.5817 21.0163 28.8754 20.4559 29.1569C20.2372 29.2656 20.0163 29.3623 19.7931 29.4444C19.5479 29.5333 19.5384 29.3417 19.19 29.4778C19.1402 29.4984 18.7767 29.8086 18.528 29.8832C18.379 29.9315 17.5839 30.0911 17.4275 30.1302C17.1694 30.1996 17.1762 30.3812 17.026 30.3924C16.5902 30.4229 16.8431 30.0766 16.4544 30.5612C16.239 30.4202 15.9575 30.5194 15.8024 30.3111C15.7055 30.6117 15.4235 30.4243 15.1209 30.5904C14.8194 30.7562 14.6576 31.317 14.4587 30.7961C14.3296 30.8908 13.7608 31.1131 13.5975 31.1609C13.5862 31.1643 13.5767 31.167 13.5694 31.1688C13.2213 31.2522 13.3854 31.0707 13.1258 31.1294C13.0798 31.1384 13.1426 31.2385 12.8408 31.2623C12.6417 31.3021 11.2014 31.3241 11.119 31.285C10.1609 31.0659 11.6516 31.2166 11.8586 31.0788C11.8957 31.1078 11.9327 31.1367 11.973 31.1649C12.4042 31.1978 12.1464 30.9732 11.9568 30.9242C11.7666 30.8761 11.4117 30.9783 11.2559 30.8943C11.1792 30.8522 11.2387 30.5737 11.4679 30.6124C11.2234 30.5202 11.5606 30.4353 11.465 30.3516C11.3587 30.2733 10.2927 30.1641 10.2679 30.3069C10.4686 30.3367 10.7218 30.3549 10.9264 30.3742C11.1987 30.6603 10.2501 31.5436 9.49987 31.0358C8.98387 30.6656 9.94247 30.6525 8.59044 30.5888C8.78798 30.6472 8.95334 30.7091 9.13488 30.757C9.11494 30.9604 8.85861 30.6803 8.69357 30.7074C8.61136 30.7214 9.03843 30.9649 8.62939 30.9215C8.3538 30.5576 8.0261 30.7791 7.45695 30.6059C7.62825 30.6057 7.80066 30.6034 7.97064 30.5976C7.09112 30.1226 9.27466 30.6875 7.50509 30.0411C7.72389 30.1022 7.93724 30.1689 8.15827 30.2152C8.08223 30.0835 8.33188 29.8285 8.25737 29.7393C8.065 29.5064 7.68665 29.4994 7.4047 29.3849C7.28168 29.3352 7.38733 29.2827 7.37689 29.2785C7.21119 29.2099 7.20656 29.3396 7.05354 29.2914C6.86146 29.2336 6.37257 28.9006 6.28451 28.8734C6.04763 28.806 6.32109 29.195 6.29237 29.2013C6.09969 29.2481 5.84874 29.0236 5.7976 29.1698C6.52926 29.4329 8.63388 30.2734 6.60825 29.8293C7.05321 30.2615 6.79007 30.5474 5.98109 30.2452C5.32152 29.9826 5.79715 30.0407 5.52761 29.7504C5.49224 29.7216 4.68883 29.2241 4.59867 29.2851C4.75132 29.0886 4.60493 28.7483 4.90589 28.6298C4.95212 28.6153 5.26005 28.8031 5.24817 28.5621C5.23956 28.4403 5.20368 28.1614 5.29267 28.0612C5.18432 28.1039 5.07034 28.1555 4.95859 28.1985C4.50398 27.9442 4.49009 27.7987 4.44196 27.5267C4.39524 27.5744 4.36685 27.9129 4.20726 27.7034C4.19617 27.6876 4.18458 27.6689 4.17258 27.6468C4.16421 27.628 4.22894 27.5465 4.15475 27.367C4.00986 26.9933 4.01524 26.921 4.42448 26.9688C3.86732 26.4419 4.1031 26.1006 3.71586 25.3817C3.39618 25.6694 3.58075 25.9508 3.99803 26.5765C3.92917 26.651 3.85337 26.7105 3.7856 26.7881C3.50639 25.7655 3.72643 26.2456 3.31183 25.7678C3.20654 25.6511 3.01097 24.8817 2.83319 25.2153C2.78838 25.2962 2.96189 25.7696 2.84935 25.7498C2.82387 25.748 2.57961 25.1749 2.59286 25.1132C2.73306 24.3711 3.19768 25.4711 2.70944 23.7312C2.70561 23.7147 2.68913 23.7042 2.66787 23.6936C2.62698 23.6715 2.56854 23.6493 2.54793 23.5852C2.48919 23.4014 2.62369 23.3793 2.56774 23.2157C2.51191 23.0527 2.29679 22.8444 2.43081 22.5686C2.67528 22.0693 2.99466 23.1247 2.91056 23.6333C3.31249 23.7547 2.89209 20.3572 2.89613 20.1541C2.69802 19.2432 2.8649 20.7673 2.76949 20.8556C2.72548 20.8916 2.1246 20.9281 2.54936 21.2855C2.67489 21.3892 2.78103 20.8942 2.8711 21.1748C2.96206 21.4545 2.77571 21.359 2.76537 21.3809C2.73018 21.4568 2.82863 21.7557 2.80866 21.7981C2.50586 22.4568 1.92435 22.4681 2.67507 21.5547C2.44638 21.2185 2.231 22.0716 2.05324 21.6401C1.83719 21.1101 2.082 20.6865 2.08924 20.6188C2.18284 19.7898 1.83702 20.7615 1.91423 19.7476C1.96455 19.187 2.20939 20.57 2.13951 19.3005C2.10064 18.2362 1.97233 18.8115 1.65422 18.7361C1.58033 18.7188 1.48717 18.1226 1.5238 18.9334C1.60634 18.9552 1.7153 18.9968 1.79197 19.0468C1.73437 19.2432 1.33244 19.5863 1.32252 19.6949C1.27559 20.2181 1.49009 20.1801 1.25766 20.5025C1.5184 20.266 1.37538 20.6326 1.44406 20.7614C1.69965 21.2381 1.71509 20.5825 1.55035 21.7125C1.66325 21.555 1.77625 21.4128 1.89128 21.2629C1.90806 21.3935 1.92582 21.5239 1.94425 21.6541C1.68104 21.8789 1.80288 22.5777 1.44247 21.9757C1.45218 22.7522 1.563 23.0512 1.8047 23.1851C1.85108 23.2108 1.88416 23.3214 1.90807 23.4542C1.96587 23.42 2.1512 23.3595 2.17763 23.377C2.34788 23.4911 2.22763 23.7049 2.09226 23.782C2.04609 23.8083 1.99813 23.8187 1.9591 23.8024C1.95619 23.8013 1.95333 23.7999 1.95053 23.7985C1.95068 23.8002 1.95082 23.802 1.95096 23.8037C1.95889 23.8979 1.96485 23.9741 1.96625 24.0007C1.97614 24.1764 1.79459 23.8608 1.77734 24.0074C1.769 24.0589 1.89577 24.5362 1.85159 24.5563C1.56305 24.6865 1.5541 23.8362 1.8173 25.4842C2.10341 25.4339 1.83798 24.7262 2.19157 24.8327C2.56362 24.9391 2.2549 25.4613 2.67524 25.4199C2.62149 25.4723 2.57278 25.5041 2.5092 25.556C2.88709 26.0953 2.58363 26.2204 2.5904 26.4376C2.57182 26.8712 3.5421 28.4436 2.98598 26.8816C3.11742 27.0753 3.24667 27.2767 3.3956 27.4576C2.97599 27.7968 2.96338 27.6367 3.52503 28.3461C3.60765 28.4392 3.69967 28.5283 3.79613 28.6175C4.00303 28.8053 3.9264 29.0768 4.31768 28.9492C4.11752 29.2022 4.87896 29.4296 4.91927 29.4863C5.21688 29.9381 3.51152 29.3866 3.63404 28.705C3.46464 28.6824 3.38413 28.6084 3.33776 28.5226C3.29136 28.4215 3.29459 28.298 3.1508 28.1503C2.80703 27.7784 2.71576 27.7343 2.63624 27.1444C2.38176 26.9682 2.5819 27.4621 2.78136 27.8459C2.98704 28.2234 3.11349 28.5225 2.44143 27.8672C1.96747 27.3751 1.12556 25.9815 0.702163 23.9954C0.265856 22.0565 -0.0186687 19.5269 0.000954747 17.6746C-0.00258076 16.5376 0.117379 15.6049 0.198126 15.0831C0.675163 12.0637 1.72543 10.1408 2.44844 8.47274C2.76203 7.72926 3.13481 6.97785 3.72039 6.14326C3.83059 6.00375 4.08551 5.56428 4.74315 4.98621C5.88468 4.0966 6.68816 4.03685 6.4423 4.32383C6.39156 4.37749 5.23065 5.11984 6.38132 4.84207C6.11319 4.78825 6.6525 4.43322 6.68924 4.40567C7.60085 3.65307 6.99388 3.76528 8.56297 3.24667C8.56413 3.24629 8.5653 3.24591 8.56647 3.24554ZM13.9875 4.86647C11.9743 5.32551 13.4985 5.1538 13.221 5.76548C13.4758 5.6975 13.7269 5.63146 13.984 5.5647C13.909 5.55096 13.8342 5.53735 13.7583 5.52397C13.758 5.52405 13.7577 5.52412 13.7574 5.5242C13.8348 5.30458 13.9092 5.08591 13.9875 4.86647ZM45.1718 10.7921C45.0671 10.8122 44.9657 10.8343 44.8547 10.8491C44.6234 10.6968 44.395 10.5462 44.1628 10.3929C44.214 10.3683 44.2645 10.3428 44.3158 10.3183C44.5996 10.4784 44.8839 10.6384 45.1718 10.7921ZM3.02944 23.8858C2.91502 24.2789 3.23474 24.1736 3.20851 24.6776C3.43363 24.5542 3.65313 24.4288 3.87844 24.3115C3.76084 23.9905 3.64825 23.9271 3.64929 23.5661C3.57624 23.6184 3.50383 23.6752 3.43149 23.7302C3.45925 23.7884 3.49068 23.8489 3.51768 23.9055C3.31407 24.0481 3.17187 23.4485 3.0287 23.8847C3.02895 23.8851 3.02919 23.8854 3.02944 23.8858ZM4.46102 27.1766C4.48156 27.2164 4.52011 27.2876 4.56925 27.3624C4.63955 27.5079 5.01327 27.8116 5.10751 27.778C5.34987 27.7219 4.97452 27.456 4.82642 27.2944C4.74418 27.2089 4.74794 27.1879 4.77163 27.1729C4.79272 27.1497 4.84749 27.1654 5.18236 27.3012C5.20492 27.257 5.23713 27.2206 5.26448 27.1803C5.13899 27.0836 4.9987 26.9525 5.01099 26.9462C4.9779 26.9043 4.9418 26.8554 4.90562 26.8022C4.76002 26.9312 4.60461 27.0437 4.46102 27.1766ZM7.07645 7.09657C7.00396 7.12672 6.87425 7.21763 6.79074 7.32781C6.59765 7.56864 6.38691 8.09303 6.67613 7.95196C6.75821 7.91746 6.8346 7.59443 6.88829 7.43937C6.91213 7.37126 6.94875 7.31385 6.98946 7.29149C7.08375 7.24236 7.06586 7.45377 7.22317 7.29011C7.17737 7.22758 7.13065 7.156 7.07613 7.09734C7.07624 7.09708 7.07634 7.09682 7.07645 7.09657ZM7.12458 5.94953C6.83143 6.10878 6.54337 6.29195 6.3055 6.5119C6.59854 6.52859 6.94063 6.22066 7.08725 6.46293C7.01958 6.51794 6.95488 6.57347 6.8937 6.63018C6.81031 6.60548 6.72756 6.58204 6.64249 6.56231C6.53057 6.78816 6.63659 6.7996 6.45218 6.94064C6.4218 6.96544 6.38108 6.99766 6.32852 7.04159C6.44358 7.06532 6.53776 7.09789 6.61419 7.12591C6.88848 7.21323 6.9036 7.21943 7.34623 6.65883C7.30853 6.92888 7.70539 7.55732 7.93321 6.89728C7.97907 6.7729 7.61611 6.84358 7.6073 6.83177C7.47981 6.67197 7.62246 6.47884 7.49701 6.32987C7.43934 6.262 7.22702 6.35221 7.14825 6.2608C7.10868 6.21557 7.25409 5.97736 7.12458 5.94953ZM8.0835 6.6415C8.03431 6.78602 8.43756 6.93763 8.69625 6.7899C9.10375 6.5589 8.32678 6.53589 8.0835 6.6415ZM45.1735 10.7927C45.1729 10.7925 45.1724 10.7923 45.1718 10.7921C45.1722 10.792 45.1726 10.7919 45.173 10.7918C45.1731 10.7921 45.1733 10.7924 45.1735 10.7927ZM4.09723 26.3367C4.28377 26.4856 4.42746 26.7451 4.55142 26.6389C4.57501 26.7353 4.60109 26.8288 4.62892 26.9191C4.66716 26.8897 4.70502 26.8595 4.74293 26.8305C4.61485 26.6073 4.495 26.3397 4.39071 26.0563C4.29133 26.147 4.19119 26.2368 4.09723 26.3367ZM6.5474 28.4405C6.93191 28.6232 6.68909 28.2817 6.81606 28.2213C6.94262 28.162 7.25361 28.3778 7.26932 28.2207C7.04152 28.126 6.81401 28.0242 6.59052 27.9169C6.58108 28.0933 6.55526 28.2653 6.54819 28.4409C6.54793 28.4408 6.54766 28.4407 6.5474 28.4405ZM22.0917 3.3086C21.8771 3.2894 21.8704 3.19572 21.6752 3.22873C21.596 3.24225 21.4874 3.27667 21.3238 3.34715C21.3243 3.34711 21.3247 3.34707 21.3252 3.34704C21.4396 3.36507 21.5608 3.38253 21.6877 3.39762C22.1885 3.45659 22.7505 3.47906 23.2417 3.35193C22.8511 3.1938 22.5701 3.35121 22.0917 3.3086ZM3.3581 22.7849C3.20903 22.6768 3.18443 23.2811 3.32634 23.3934C3.55431 23.5734 3.58274 22.9474 3.3581 22.7849ZM34.1826 3.65358C34.7844 3.50699 34.203 2.67693 33.2278 2.46735C33.1466 2.44891 33.6587 2.81966 33.4584 2.81686C33.439 2.81587 33.1341 2.66963 33.0347 2.68982C32.9358 2.70951 32.9646 2.86426 32.8189 2.86312C32.5671 2.85958 32.1258 2.50542 31.9144 2.57326C31.8885 2.58153 32.1426 2.85384 32.158 2.86784C32.4338 3.07976 32.8162 2.99244 32.8665 3.01201C33.1169 3.11052 33.0064 3.26056 33.0507 3.32621C33.1338 3.44999 33.3686 3.47098 33.3806 3.48328C33.6775 3.7965 32.865 3.36736 32.7253 3.38517C32.3555 3.42449 32.5678 3.67229 31.8241 3.504C31.7504 3.48662 30.9626 3.21578 31.8975 3.74332C29.8535 3.52098 32.7611 4.26564 33.1418 4.43549C33.3084 4.46768 33.1582 4.20513 33.2816 4.17848C33.5649 4.11715 33.9359 4.2685 34.0161 4.02993C34.1823 3.52625 33.5542 3.59651 33.2622 3.36709C33.3444 3.27957 33.4042 3.18481 33.5164 3.11412C33.3559 3.20108 34.1404 3.66289 34.1822 3.6545C34.1823 3.65419 34.1825 3.65388 34.1826 3.65358ZM28.6164 2.73408C28.1246 2.54001 28.1377 2.87306 27.6882 2.65953C27.2678 2.93637 28.0688 2.95594 28.1591 2.9805C28.5788 3.0834 28.5411 3.40431 28.9755 3.3417C28.8492 3.1385 28.741 2.9358 28.6164 2.73408ZM32.6978 3.76484C32.3327 3.78977 32.8674 4.01783 32.8754 4.05907C32.9673 4.46078 31.4189 3.74056 32.6978 3.76484ZM5.51116 7.83099C5.41217 7.96634 5.60367 7.9627 5.56836 8.11062C5.53165 8.25573 5.17086 8.62906 5.26669 8.66619C5.36162 8.69165 6.01673 8.05027 5.63903 8.85124C5.70262 8.851 5.73496 8.87951 5.78646 8.89068C5.90006 8.67947 6.02204 8.47276 6.14824 8.27653C5.9432 8.29798 5.72681 8.32777 5.52577 8.36435C5.48476 8.17755 5.66816 8.19443 5.67174 8.18831C5.67159 8.18822 5.67144 8.18813 5.6713 8.18804C5.79173 7.96296 5.73817 7.53211 5.51116 7.83099ZM18.0516 3.63076C17.9781 3.23353 17.6963 3.79588 17.5386 3.8907C17.382 3.98771 17.1135 3.9066 17.2454 4.04972C17.5427 4.09512 18.0601 3.67947 18.0514 3.63027C18.0515 3.63043 18.0515 3.63059 18.0516 3.63076ZM25.875 2.6254C25.4482 2.72062 25.518 2.82438 24.9997 2.70902C25.0208 2.80591 25.0419 2.90492 25.0627 3.00036C25.4704 2.99979 25.4418 2.71743 25.9176 2.83387C25.9952 2.8535 25.8252 3.07626 26.1778 3.00846C26.078 2.88682 25.9742 2.75227 25.875 2.6254ZM23.7834 3.01315C24.2645 2.98311 24.636 2.18698 23.7443 2.56811C23.613 2.62572 23.421 3.03749 23.7834 3.01315ZM9.06128 5.60612C8.34691 5.81803 9.0212 5.70082 9.34813 5.71024C9.38659 5.71127 9.42006 5.71403 9.44574 5.71921C9.41658 5.73009 9.38836 5.74062 9.36106 5.75082C8.17799 6.20084 8.82081 5.94543 9.40143 5.87749C9.63896 5.84971 9.86155 5.85488 9.94886 5.94726C10.1392 5.76802 10.488 5.38788 9.9957 5.46589C9.79092 5.49887 9.89787 5.59099 9.88598 5.59413C9.59718 5.66014 9.5265 5.55365 9.3011 5.56269C9.23489 5.56576 9.16048 5.57702 9.06128 5.60612ZM29.4867 2.79338C29.4557 2.79606 29.4891 2.93588 29.3896 2.95277C29.2879 2.96905 29.0782 2.85399 29.0469 2.9349C29.0201 3.01593 29.4518 3.12255 29.5943 3.07829C29.7336 3.0324 29.7731 2.77205 29.4867 2.79338ZM26.3295 2.27694C25.9138 2.36771 26.5843 2.87831 26.6695 2.87935C27.4579 2.87581 26.3086 2.43208 26.3295 2.27694ZM10.6756 4.21963C9.77367 4.75481 10.6151 4.96033 11.2933 5.03778C11.3585 4.96285 11.4245 4.88773 11.4891 4.81375C11.2167 5.23309 10.6721 5.72435 12.0065 5.04481C11.2104 5.19227 11.8358 4.92226 11.8349 4.9035C11.7578 4.30061 10.6805 4.90383 10.6765 4.21937C10.6762 4.21945 10.6759 4.21954 10.6756 4.21963ZM30.7624 3.11815C30.8372 3.13211 30.9363 3.1482 31.034 3.16322C31.4843 3.22984 32.1285 3.3509 31.8031 3.01381C31.5481 3.02107 31.2981 3.03947 31.0557 3.07117C30.9623 3.08564 30.862 3.10102 30.7624 3.11815ZM1.4009 17.0144C1.29197 17.2388 1.24705 17.4586 1.23053 17.7062C1.2207 17.8522 1.22026 18.0057 1.22187 18.1754C1.44542 17.7729 1.46589 18.0412 1.51739 18.1768C1.5948 18.3842 1.59503 17.8846 1.61049 17.8842C1.79063 17.8957 1.83236 18.1379 1.84776 17.722C1.8502 17.6607 1.85244 17.5855 1.8555 17.4942C1.88317 17.5712 1.91152 17.6478 1.9404 17.7244C1.97904 17.8274 2.01814 17.9267 2.05727 18.0295C2.06135 17.9104 2.07147 17.8143 2.08651 17.7281C2.14169 17.4222 2.25973 17.2923 2.40652 17.0404C1.9843 17.3383 2.25807 16.9272 2.10226 16.5125C2.02388 16.3 1.48753 16.8249 1.4008 17.0157C1.40084 17.0153 1.40087 17.0148 1.4009 17.0144ZM9.64517 4.44712C9.56687 4.54719 9.50348 4.66959 9.43204 4.77876C9.32988 4.81906 9.22669 4.85892 9.12345 4.90005C9.09754 4.85468 9.07241 4.8071 9.04604 4.76239C9.03932 4.75107 9.03252 4.73993 9.02561 4.72905C8.87971 4.75608 8.96195 4.82345 8.92334 4.84461C8.92324 4.84428 8.92313 4.84396 8.92303 4.84363C8.36902 5.1468 8.12849 5.21283 7.595 5.19417C7.66206 5.3786 7.72912 5.56302 7.79618 5.74744C7.8923 5.69259 7.98774 5.63939 8.08576 5.586C8.10433 5.4679 8.12644 5.34868 8.14704 5.23023C8.28507 5.24456 8.42411 5.25889 8.56021 5.27516C8.6457 5.20695 8.74791 5.13163 8.81898 5.0698C9.46628 5.43648 8.26551 5.43488 8.33037 5.65677C8.3612 5.75437 8.8996 5.60269 9.26744 5.45708C9.42237 5.3953 9.54373 5.33453 9.58108 5.29144C9.59977 5.27017 9.24001 4.95462 9.70506 5.03225C9.77892 5.04461 10.0583 5.88205 10.2809 5.06619C10.3133 4.95031 9.93754 4.49038 9.64517 4.44712ZM5.39325 5.99316C5.90086 5.91416 5.45291 6.28446 5.18495 6.60251C4.90113 6.92738 4.67731 7.20454 5.185 6.8939C5.21054 7.29954 5.24822 7.23824 5.60852 7.14104C5.6399 7.13302 5.57676 7.33706 5.59467 7.32889C5.85389 7.18345 6.01205 6.90439 6.18372 7.06129C6.2194 7.0041 6.25519 6.95132 6.29285 6.89821C6.06825 6.92338 6.06506 6.76119 6.12125 6.56219C6.15131 6.45579 6.20092 6.34288 6.22253 6.24943C6.25275 6.12641 6.05844 6.23268 6.08162 6.12658C6.09049 6.08238 6.38234 5.96067 6.35524 5.89199C6.29388 5.73327 6.00512 5.60502 5.5968 5.76415C5.59669 5.76402 5.59658 5.76389 5.59648 5.76375C5.56546 5.79497 5.53536 5.82711 5.50664 5.85932C5.46674 5.90386 5.42967 5.94838 5.39325 5.99316ZM19.0151 2.07452C19.1886 2.36148 19.6241 2.36398 18.8335 2.67769C18.8875 2.72897 18.9404 2.78016 18.9934 2.83208C19.1283 2.79882 19.2597 2.76862 19.3985 2.73956C19.6766 1.75347 20.622 2.68811 20.0279 2.10407C19.9634 2.04051 19.6333 2.16665 19.9438 1.92924C19.9433 1.92913 19.9428 1.92902 19.9423 1.92891C19.4777 2.05356 19.4414 2.17219 19.0151 2.07452ZM16.0368 3.10692C15.1594 4.01464 17.5705 3.08353 17.1067 3.02101C17.0669 3.01947 16.0357 3.43689 16.0368 3.10692ZM24.5617 1.26712C24.0731 1.26545 24.0493 1.62286 24.1019 1.74879C24.1556 1.87522 24.4862 1.73812 24.5302 1.75774C24.6734 1.8216 24.3735 1.87122 24.5592 1.95888C24.6219 1.98558 25.4601 2.1046 25.4989 2.09107C25.7115 2.00643 25.4007 1.71346 25.4613 1.68003C25.6597 1.56988 25.9348 1.72433 25.9924 1.56944C26.1221 1.23839 25.6074 1.58267 25.5241 1.58901C25.2654 1.6049 25.286 1.41812 25.0921 1.38193C24.896 1.34616 24.7711 1.4119 24.5987 1.4016C24.5412 1.3982 24.5866 1.26786 24.5617 1.26712ZM22.9826 2.06941C23.4762 1.77618 22.2278 1.54594 22.0841 1.62185C21.6665 1.83586 22.7514 2.20602 22.9826 2.06941ZM7.39346 5.80443C7.761 5.45434 6.67732 5.6935 6.42003 5.95038C6.52045 5.97293 7.27115 5.91565 7.39346 5.80443ZM10.9463 4.14109C10.5558 4.31904 11.2195 4.58027 11.5565 4.47696C11.6757 4.14318 11.5052 4.25097 11.2784 4.30422C11.0538 4.35692 11.2524 4.00274 10.9463 4.14109ZM29.8454 1.80255C29.7514 1.77802 28.2492 1.88798 29.09 2.05952C29.156 2.06793 30.1866 2.13934 30.2721 2.11289C30.4442 2.04659 30.0841 1.84223 29.8454 1.80255ZM12.7985 3.17877C12.6481 3.47764 12.4303 3.53393 12.7088 3.76128C12.7091 3.7612 12.7094 3.76112 12.7097 3.76104C12.1851 3.99742 12.0011 3.42828 11.8848 3.47383C11.4827 3.63354 11.9904 3.93343 11.7694 4.14122C12.3355 3.84526 12.2411 4.17038 12.7019 4.06253C12.807 4.03766 13.1731 3.761 13.2053 3.64185C13.2375 3.52246 12.9454 3.26868 12.7985 3.17877ZM31.9844 2.16558C31.5026 1.91402 30.9521 2.20334 31.6161 2.44307C31.9306 2.56762 32.2685 2.3212 31.9844 2.16558ZM3.97959 28.6688C3.9717 28.5313 3.97051 28.3971 3.96535 28.2553C4.13674 28.3663 4.31052 28.456 4.48269 28.5377C4.33678 28.4821 4.19838 28.4264 4.04912 28.3515C4.32016 28.6033 4.3651 28.8592 3.98039 28.6694C3.98013 28.6692 3.97986 28.669 3.97959 28.6688ZM16.2622 30.295C16.4425 30.3497 16.6486 29.9576 16.6034 29.9454C16.2708 29.8548 16.0142 30.2188 16.2622 30.295ZM6.34185 5.21678C5.69571 5.51504 6.3932 5.70467 6.73387 5.58906C6.4772 5.60091 6.69314 5.07666 6.34185 5.21678ZM11.8586 31.0788C11.8031 31.0356 11.7478 30.9921 11.6872 30.9481C11.8778 31.0084 11.913 31.0476 11.8586 31.0788ZM29.6569 1.32504C29.5729 1.27434 28.9097 1.1809 28.8171 1.22439C28.6255 1.31234 29.1137 1.63382 29.4226 1.57802C29.4586 1.57184 29.7403 1.37353 29.6555 1.3249C29.656 1.32495 29.6564 1.32499 29.6569 1.32504ZM4.5904 29.2964C4.59188 29.2916 4.59475 29.2878 4.59867 29.2851C4.59575 29.2887 4.59356 29.2929 4.5904 29.2964ZM28.6446 27.263C28.6393 27.2561 28.6356 27.2488 28.6344 27.2413C28.6374 27.2483 28.6418 27.2553 28.6446 27.263ZM25.0006 0.691871C24.7738 0.204056 24.2651 0.474148 24.6736 0.708915C24.6964 0.721126 24.946 0.691258 25.0006 0.691871Z" fill="var(--stroke-0, #EC5B13)"/>
</svg>
