<svg preserveAspectRatio="none" width="100%" height="100%" overflow="visible" style="display: block;" viewBox="0 0 40.3952 25.7496" fill="none" xmlns="http://www.w3.org/2000/svg">
<path id="Vector 76" d="M39.0171 16.9469C38.8449 17.3396 38.6659 17.7135 38.4858 18.0789C37.2453 20.2472 35.4748 20.3136 34.922 20.699C33.4243 21.4812 31.4639 21.6051 30.6232 21.7617C29.7106 21.9465 28.8002 22.0656 27.9478 22.1446C27.5069 22.1852 27.5236 22.0397 27.4002 22.0347C27.0656 22.0199 26.8917 22.2072 26.6635 22.2216C26.5065 22.2317 26.3548 22.2427 26.2095 22.2553C24.9297 22.3429 24.1328 22.3115 23.1208 22.3153C21.9495 22.309 22.4824 21.8455 22.0727 21.7557C21.2699 21.5819 21.9717 22.1253 21.6653 22.2688C20.7585 22.277 19.8465 22.2651 18.9429 22.2655C19.1587 22.1965 19.3757 22.1293 19.5947 22.0656C19.2011 22.0785 18.6318 22.0296 19.2807 21.8345C19.1315 21.803 18.9931 21.764 18.8396 21.7344C18.8134 21.9455 18.1191 22.0148 18.0661 22.1445C18.0127 22.2732 18.4002 22.2139 18.3985 22.2251C18.3881 22.3378 17.5384 22.3245 17.0287 22.3152C16.8357 22.3112 16.6949 22.3065 16.6625 22.3051C16.3605 22.2913 16.594 22.0047 16.3403 22.0497C15.9048 22.1299 16.2654 22.616 15.5855 21.9973C15.3839 22.256 15.3471 22.141 15.0521 22.1714C15.0129 22.1757 15.064 22.3013 15.0476 22.3074C14.6256 22.477 14.9213 22.1785 14.917 22.1657C14.8397 21.9481 14.3817 22.1321 14.2791 22.1322C13.0397 22.1251 12.0952 22.2023 10.9602 22.7527L11 22.7269C10.956 22.7557 10.9123 22.7845 10.8679 22.8141C10.6147 22.9818 9.93132 23.6068 9.67565 23.7541C9.42265 23.8988 9.44732 23.6755 9.27934 23.7052C9.32416 24.1641 9.16803 24.3379 8.57854 24.4681C8.59309 24.8185 8.47273 24.62 8.19965 24.9045C8.16635 24.9392 8.13256 24.9823 8.09827 25.0301C7.88 25.3012 7.86513 25.6556 7.48168 25.7496C7.73574 25.4705 7.59015 25.4022 7.81969 25.073C7.83757 25.0497 7.89442 24.9971 7.9996 24.91C8.37586 24.5845 9.11308 23.9485 8.89907 23.8234C8.75684 23.7403 8.42224 24.1756 8.38908 24.166C8.19433 24.11 8.30568 23.769 8.55696 23.6644C8.52515 23.7306 8.48315 23.8053 8.4477 23.8744C9.03951 23.6763 8.23969 23.3007 9.01346 23.5722C9.10875 23.6053 9.14503 23.6881 9.27174 23.7039C9.26417 23.6631 9.11978 23.6579 9.18623 23.5865C9.25411 23.5138 9.50809 23.5395 9.4412 23.406C9.34558 23.2104 9.07189 23.5245 9.04051 23.533C9.04103 23.5342 9.04155 23.5354 9.04207 23.5367C8.75774 23.6115 9.1998 23.2571 9.20922 23.225C9.26835 23.0132 9.11112 23.0037 9.25517 22.7571C9.33745 22.6163 9.66676 22.4156 9.76841 22.3151C9.8694 22.2142 9.63282 22.2643 9.69611 22.1902C9.75941 22.1161 9.89961 22.1077 9.97451 22.0212C10.0061 21.9842 9.93735 21.8949 9.9536 21.878C10.1272 21.6965 10.1357 21.981 10.3076 21.8373C10.3152 21.8309 10.3235 21.8229 10.3323 21.8134C10.3458 21.8045 10.3856 21.7768 10.4001 21.7695C10.5421 21.647 10.8486 21.2734 10.5134 21.3785C10.6611 21.2748 10.8117 21.182 10.966 21.0915C10.8496 21.1082 10.7341 21.1384 10.6171 21.1532C10.9441 21.0503 11.0055 20.815 11.1985 20.7177C11.3927 20.6214 11.6507 20.7699 11.8289 20.5874C12.2181 20.1939 11.0928 20.7144 10.9357 20.7573C10.8721 20.7669 11.0156 20.5055 11.0482 20.4869C11.1905 20.4019 11.4146 20.4532 11.5278 20.405C11.9302 20.2336 12.1348 19.9903 12.5241 19.8448C13.8529 19.3492 15.4796 19.0417 16.7006 18.8887C16.701 18.8886 16.7014 18.8886 16.7018 18.8885C17.1509 18.8319 17.437 19.001 17.6375 18.9788C18.1061 18.9276 18.1511 18.7565 18.5604 18.7177C19.1705 18.6593 20.0346 18.7538 20.5426 18.7588C20.8928 18.7617 21.2017 18.5844 21.2933 18.576C22.5513 18.4551 24.0981 18.4089 25.0755 18.3524C25.4519 18.3302 25.6407 18.4353 25.6929 18.468C25.7215 18.4724 25.7449 18.4739 25.7634 18.4705C26.2218 18.3887 26.0802 18.2504 26.4432 18.2242C26.637 18.2107 26.688 18.3557 26.7142 18.3586C26.9425 18.3829 26.9643 18.1841 27.1339 18.1587C28.0745 18.0182 28.9402 18.0199 29.811 17.8627C29.8469 17.856 29.8825 17.8494 29.9179 17.8431C30.0066 17.8274 30.0143 17.9142 30.0694 17.8996C30.3017 17.8376 30.1722 17.721 30.4101 17.6741C30.8991 17.5805 31.3196 17.5586 31.6951 17.5097C31.7323 17.5048 31.7686 17.6116 31.8524 17.5957C31.9353 17.5796 31.9762 17.4641 32.0988 17.4417C32.417 17.3828 32.7497 17.4087 33.0704 17.2777C33.1206 17.2569 33.1307 17.1211 33.1966 17.0768C33.2033 17.0729 33.2103 17.0692 33.2174 17.0659C33.6463 16.8676 34.1947 16.7929 34.4204 16.6981C34.682 16.5921 34.8649 16.4865 34.9458 16.4145C35.0301 16.3389 35.0027 16.33 34.992 16.332C35.113 16.0667 35.2292 15.8088 35.3436 15.5583C35.427 15.3767 35.6088 15.2681 35.6504 15.176C35.7419 14.9701 35.5704 15.082 35.6518 14.8746C35.8868 14.2684 36.036 13.7 36.1429 13.0241C36.3663 11.67 36.6625 10.0471 36.5008 9.70613C36.4944 9.6876 36.4882 9.68137 36.4855 9.68455C36.1102 9.02647 35.6158 8.30651 35.2969 7.66817C35.1445 7.36242 35.2562 7.22944 35.14 7.0164C34.932 6.63622 34.7119 6.66848 34.4711 6.27391C34.4165 6.18411 34.3754 6.08151 34.3405 5.97319C34.2443 5.68489 34.2006 5.37696 34.0726 5.16212C33.8951 4.8672 33.6487 4.83982 33.4611 4.60568C33.329 4.44242 33.2264 4.21631 33.0765 4.06388C33.0377 4.0253 33.0019 3.99192 32.9683 3.964C32.35 3.37482 31.091 3.27143 29.5469 3.24461C27.6508 3.22214 25.7688 3.16529 23.8844 3.09256C22.9355 3.05703 21.9026 3.08265 20.9569 3.06888C20.6503 3.06636 20.3474 3.05793 20.0496 3.03988C19.9299 3.03292 20.0926 2.82036 19.7183 2.89983C19.5182 2.94353 19.2547 3.13976 18.8016 3.20962C17.6434 3.38417 16.5589 3.57792 15.3045 3.86849C13.606 4.22572 12.0693 4.63786 10.6428 5.39001C9.76394 5.84985 8.94459 6.43969 8.17181 7.0815C6.96268 8.07224 5.78379 9.07399 4.56844 9.91614C3.96003 10.3384 3.34568 10.7182 2.72797 11.0378C2.41926 11.1979 2.11284 11.3405 1.81609 11.4643C1.67152 11.5231 1.52523 11.5813 1.4016 11.6197C1.34113 11.6374 1.28317 11.6538 1.2439 11.6503C1.20703 11.6361 1.17657 11.6583 1.23948 11.452C1.05523 11.6124 0.872258 11.7576 0.682549 11.9194C0.528425 12.0734 0.0989915 11.8152 0 11.6711C0.125667 11.6056 0.266548 11.5604 0.406932 11.5062C-0.0302208 11.2229 -0.00332567 11.2231 0.164015 10.9762C0.183552 10.9569 0.225326 10.9135 0.276221 10.8661C0.492646 10.6744 0.143088 10.6714 0.206379 10.4979C0.284249 10.261 0.917154 9.3674 1.01213 9.81064C1.01892 9.71603 1.02256 9.62798 1.03115 9.5345C1.59051 9.02341 2.12231 8.51813 2.65369 8.00168C2.74624 7.91183 2.67901 7.80428 2.7734 7.71353C3.03256 7.46498 3.30504 7.37751 3.5981 7.16047C3.75352 7.04538 3.69762 6.90619 3.91282 6.77053C4.13093 6.63321 4.23632 6.80033 4.40657 6.42538C4.07926 6.34741 5.02227 5.92656 5.31449 5.71307C5.35781 5.68157 5.59005 5.25808 5.79662 5.15117C5.9961 5.04769 6.35379 4.97421 6.60647 4.72211C6.61194 4.71673 6.61736 4.71128 6.62273 4.70576C6.74726 4.57796 6.73808 4.37689 6.89246 4.2664C7.00122 4.18876 7.21489 4.2364 7.36117 4.15396C7.50413 4.07266 7.75108 3.77841 7.80675 3.7441C8.01088 3.61563 7.83584 3.84266 7.98047 3.76512C8.67425 3.39099 9.51281 3.025 10.1944 2.64065C10.2782 2.59335 10.1049 2.53113 10.1148 2.52205C10.6502 2.11359 10.399 2.40757 10.6054 2.44239C10.8028 2.46869 11.9354 1.96835 11.8758 1.76177C12.0039 2.01081 12.1949 1.71933 12.2619 1.6885C12.5173 1.56968 12.5411 1.81507 12.7748 1.66207C12.8614 1.60619 12.6273 1.50989 12.731 1.48198C12.9874 1.4134 13.2889 1.59472 13.6272 1.52479C13.7088 1.50811 13.7028 1.38877 13.8461 1.35266C13.9916 1.31552 14.6129 1.2937 14.279 1.13052C14.3988 1.15836 14.4885 1.16657 14.5613 1.16274C14.74 1.15203 14.8468 1.06804 15.1429 0.992141C15.2502 0.965102 15.4351 1.10941 15.6502 0.994485C15.7233 0.955582 15.6765 0.780887 15.7949 0.749962C16.0667 0.679003 16.3655 0.800961 16.7139 0.73576C17.3651 0.614236 18.043 0.371985 18.7277 0.333235C18.9148 0.323005 18.8887 0.508743 19.1573 0.481255C19.1947 0.476721 19.4998 0.285194 19.6866 0.28202C19.7996 0.278719 20.381 0.337806 20.4981 0.338271C20.6335 0.337613 20.6843 0.247181 20.7415 0.204757C20.7642 0.187704 20.7882 0.178464 20.8195 0.186108C21.1385 0.263807 20.9017 0.537789 21.2528 0.162555C21.3836 0.351544 21.5975 0.321705 21.676 0.560114C21.7897 0.29028 21.9611 0.537688 22.1958 0.441519C22.432 0.345257 22.6182 -0.171601 22.6881 0.378426C22.799 0.308387 23.2726 0.185959 23.353 0.176952C23.5899 0.150471 23.4643 0.304472 23.6425 0.28208C23.6737 0.278384 23.6407 0.174195 23.8416 0.182996C23.9746 0.187709 24.9408 0.193762 24.9983 0.209267C25.6549 0.375833 24.6397 0.310724 24.4973 0.424647C24.4722 0.395002 24.4474 0.365266 24.4206 0.335989C24.1296 0.287238 24.2963 0.522538 24.4274 0.57709C24.5588 0.631586 24.8046 0.526982 24.9136 0.604784C24.9679 0.643844 24.9331 0.926163 24.7691 0.89165C24.9445 0.979106 24.7046 1.07041 24.7738 1.15237C24.8501 1.24154 25.6363 1.274 25.6422 1.11888C25.4949 1.11213 25.3119 1.11618 25.1631 1.10899C24.9685 0.837473 25.5695 -0.0840874 26.1115 0.29185C26.5032 0.564097 25.8499 0.767167 26.7858 0.556525C26.6428 0.543431 26.5213 0.516384 26.3913 0.503279C26.3798 0.300173 26.5893 0.526211 26.6987 0.463361C26.7517 0.432581 26.431 0.284079 26.7119 0.240481C26.9494 0.534386 27.1388 0.245498 27.544 0.249783C27.4311 0.299365 27.3164 0.348725 27.2039 0.398481C27.882 0.621293 26.2967 0.66181 27.6204 0.803987C27.4618 0.810227 27.3018 0.804751 27.1417 0.816227C27.2176 0.924052 27.0877 1.23436 27.1561 1.30161C27.3338 1.47807 27.6067 1.37875 27.8278 1.39853C27.9242 1.40693 27.8627 1.49006 27.8707 1.49072C28.0046 1.50286 27.9777 1.37858 28.0941 1.37318C28.2426 1.36643 28.6621 1.49626 28.7326 1.48426C28.9124 1.45347 28.6192 1.20244 28.6377 1.18465C28.7555 1.06909 28.9831 1.17258 28.9758 1.01772C28.4137 1.10986 26.8072 0.940818 28.2702 0.715416C27.8735 0.45698 27.9961 0.114695 28.5764 0.100678C29.0561 0.0891284 28.7427 0.219906 28.9888 0.377556C29.0148 0.393546 29.4394 0.45444 29.6161 0.420313C29.6603 0.412391 29.69 0.399351 29.6971 0.379189C29.665 0.625388 29.8694 0.850681 29.7202 1.10116C29.7106 1.11755 29.6528 1.12217 29.5985 1.14085C29.5341 1.16418 29.4746 1.20883 29.5225 1.32375C29.5381 1.36169 29.5645 1.41599 29.5902 1.47601C29.6369 1.58066 29.6807 1.70288 29.6651 1.78578C29.7206 1.69615 29.7789 1.59542 29.8354 1.5023C30.2244 1.49107 30.2744 1.59463 30.4697 1.77832C30.4659 1.70699 30.2899 1.39492 30.5815 1.50752C30.5969 1.51432 30.5982 1.62113 30.7444 1.68753C31.0314 1.82198 31.0854 1.86334 30.8294 2.15168C31.4469 2.04193 31.525 2.40397 32.0906 2.43548C32.085 2.01869 31.8497 2.05162 31.2857 2.04805C31.2756 1.94957 31.2773 1.85378 31.265 1.75413C31.9865 2.08671 31.6062 2.00304 32.0667 1.90001C32.1833 1.87087 32.6948 2.0835 32.6019 1.76967C32.5822 1.69272 32.2281 1.60225 32.2943 1.51703C32.3067 1.49644 32.7526 1.57681 32.7802 1.61908C32.9588 1.85494 32.8118 1.94821 32.7951 2.02841C32.7728 2.11738 32.8806 2.14019 33.4286 2.40208C33.4584 2.4173 33.5326 2.32481 33.5987 2.35026C33.7218 2.3995 33.6416 2.51026 33.7493 2.55429C33.8561 2.59797 34.1037 2.56927 34.1217 2.81776C34.1428 3.26308 33.4889 2.87355 33.3477 2.60456C33.22 2.73079 33.4217 2.96863 33.7417 3.35563C34.1009 3.77271 34.4715 4.397 34.5341 4.4673C34.9792 4.94068 34.3815 4.07262 34.44 3.98728C34.4679 3.94615 34.9671 3.60478 34.4946 3.62052C34.3594 3.63124 34.4195 3.96931 34.2602 3.85955C34.1024 3.75579 34.2838 3.70438 34.2858 3.68623C34.2915 3.62295 34.1172 3.51691 34.1192 3.48322C34.1241 2.93733 34.5809 2.56266 34.3049 3.53767C34.6071 3.60343 34.4813 2.97325 34.7813 3.12918C35.159 3.34016 35.0857 3.74734 35.0998 3.79034C35.2782 4.36652 35.2777 3.57574 35.5277 4.27122C35.6592 4.65883 35.0066 3.8722 35.4689 4.66502C35.8549 5.33952 35.7797 4.90385 36.0844 4.80406C36.1559 4.78082 36.4357 5.10916 36.1346 4.6182C36.0543 4.64264 35.9442 4.66663 35.8599 4.66987C35.8464 4.5168 36.096 4.1113 36.0705 4.03537C35.9449 3.66762 35.7683 3.79286 35.8647 3.46459C35.7152 3.74912 35.7185 3.43315 35.6129 3.37909C35.218 3.18543 35.465 3.63788 35.1638 2.79501C35.1362 2.96406 35.0963 3.11927 35.0531 3.27717C34.9923 3.20238 34.9296 3.12926 34.865 3.05798C35.0003 2.76623 34.583 2.38086 35.1388 2.55681C35.0313 2.399 34.9279 2.28028 34.8326 2.1941C34.6363 2.01673 34.4673 1.97376 34.301 2.03519C34.255 2.05195 34.1764 2.00871 34.09 1.94876C34.0689 2.01072 33.971 2.17789 33.9442 2.18713C33.7157 2.27097 33.7385 1.85974 33.8735 1.7846C33.8154 1.73863 33.7688 1.7014 33.7529 1.68793C33.6493 1.60087 33.9382 1.63112 33.8673 1.53836C33.8442 1.50283 33.4904 1.34331 33.5054 1.29907C33.5939 1.00269 34.117 1.43552 32.9628 0.78321C32.8458 1.04643 33.4107 1.19474 33.152 1.42915C32.8922 1.68054 32.7517 1.16065 32.5662 1.53506C32.5628 1.4635 32.5684 1.40646 32.5692 1.32663C32.0775 1.37566 32.1471 1.05296 32.019 0.94696C31.7613 0.730769 30.4879 0.600427 31.5846 1.0432C31.4148 1.04655 31.2433 1.03789 31.0803 1.04595C31.1108 0.436216 31.184 0.673314 30.3864 0.521998C30.2099 0.490519 30.1656 0.218389 29.9764 0.530738C29.9983 0.328637 29.7888 0.327284 29.618 0.343704C29.532 0.352759 29.4562 0.366025 29.4396 0.352104C29.3162 0.247826 29.4383 0.133329 29.6247 0.0721785C29.9147 -0.0173732 30.3726 0.0201606 30.4396 0.354856C30.6542 0.152861 30.6322 0.437454 30.8586 0.419312C31.1834 0.396097 31.2441 0.344948 31.5983 0.609089C32.0251 0.355575 30.1183 0.305815 31.3072 0.039884C31.5774 -0.0122329 32.1295 -0.0352857 32.9077 0.112012C33.6526 0.218018 34.8589 0.790601 35.5451 1.43558C36.5969 2.31867 37.1935 3.51383 37.6157 4.18598C38.1136 5.00266 38.5429 5.70951 38.76 6.07018C39.1749 6.75679 39.5305 7.35115 39.8533 7.91251C40.557 9.3283 40.385 10.2696 40.3554 11.0642C40.2874 11.8618 40.1621 12.5688 40.0376 13.35C40.0312 13.3905 40.0186 13.4777 40.0011 13.5918C39.9322 14.2047 39.5424 15.5315 39.3643 15.1006C39.341 15.022 39.4178 14.1469 38.979 14.8038C39.1722 14.6964 39.1584 15.1497 39.1614 15.1911C39.2606 16.1163 39.5231 15.7244 39.0171 16.9469ZM34.4648 17.539C35.1421 17.3037 35.136 17.2329 35.0619 17.1513C34.9751 17.0704 34.7633 16.9653 34.7498 16.6833C34.631 16.7409 34.4877 16.802 34.3251 16.8677C34.3802 16.8801 34.4335 16.8929 34.4866 16.9056C34.4867 16.9056 34.4869 16.9055 34.4871 16.9054C34.4872 17.1143 34.4778 17.3262 34.4648 17.539ZM10.096 21.2308C10.1212 21.138 10.1477 21.0449 10.1819 20.9505C10.3988 20.8572 10.617 20.7724 10.8367 20.6959C10.8306 20.7495 10.8259 20.8032 10.8206 20.8567C10.5743 20.9688 10.3314 21.0912 10.096 21.2308ZM33.1613 2.57698C33.0473 2.29767 32.9191 2.60677 32.6936 2.34643C32.6394 2.59355 32.5814 2.83404 32.5137 3.07423C32.6994 3.11703 32.7841 3.0528 32.9198 3.20932C32.9444 3.12955 32.9663 3.0479 32.9875 2.96626C32.9477 2.96224 32.9053 2.96043 32.8677 2.9571C32.9221 2.72677 33.2666 2.89383 33.1622 2.57694C33.1619 2.57696 33.1616 2.57697 33.1613 2.57698ZM30.6791 2.04154C30.5431 1.99369 29.9754 1.83801 29.8895 1.94046C29.6199 2.27268 31.2126 2.14726 30.0298 2.38724C30.0327 2.43668 30.0251 2.4846 30.0227 2.53328C30.2325 2.56071 30.4399 2.58942 30.644 2.6217C30.6502 2.42732 30.6749 2.23708 30.6791 2.04154ZM36.787 13.9702C36.8377 13.8422 36.8644 13.3593 36.7868 13.1188C36.7493 12.9778 36.6879 12.9157 36.5927 13.0317C36.5828 13.0439 36.5777 13.0632 36.5764 13.0879C36.5721 13.24 36.7492 13.6355 36.7052 13.7779C36.6737 13.8817 36.5298 13.7277 36.5458 13.9464C36.6227 13.9548 36.707 13.9685 36.7866 13.9695C36.7868 13.9697 36.7869 13.97 36.787 13.9702ZM37.668 14.6202C37.7028 14.3802 37.7203 14.1352 37.735 13.8934C37.508 14.0249 37.5522 14.3823 37.2756 14.3314C37.2709 14.2649 37.2653 14.1997 37.2591 14.1338C37.3296 14.1012 37.3999 14.0679 37.4699 14.0341C37.3628 13.8057 37.2672 13.9122 37.3772 13.5565C36.9178 13.705 36.7078 13.6779 36.9705 14.3694C36.7767 14.2028 36.0368 14.1023 36.4554 14.5549C36.5321 14.6431 36.6699 14.419 36.6851 14.4198C36.885 14.4349 36.964 14.6107 37.1538 14.6215C37.2402 14.6262 37.2846 14.4651 37.4031 14.4707C37.4615 14.4734 37.5734 14.6751 37.668 14.6202ZM36.5845 14.763C36.4921 14.6642 36.1564 14.7837 36.1415 14.9823C36.1139 15.3002 36.5414 14.9433 36.5845 14.763ZM10.0949 21.2318C10.0953 21.2315 10.0957 21.2311 10.096 21.2308C10.096 21.2312 10.0959 21.2315 10.0958 21.2318C10.0955 21.2318 10.0952 21.2318 10.0949 21.2318ZM31.3809 2.26391C31.2048 2.33802 30.9697 2.29563 30.9691 2.45736C30.8959 2.41709 30.817 2.37756 30.7424 2.33873C30.7385 2.38684 30.7354 2.43513 30.7316 2.48276C30.9652 2.53544 31.191 2.59416 31.4074 2.66093C31.3996 2.52878 31.3956 2.39685 31.3809 2.26391ZM28.6715 1.98504C28.3461 1.96129 28.6142 2.18594 28.5403 2.28973C28.4658 2.39348 28.1774 2.30125 28.208 2.45328C28.3992 2.46339 28.5991 2.47391 28.7951 2.48395C28.7478 2.31818 28.7157 2.14974 28.6708 1.98502C28.671 1.98503 28.6713 1.98503 28.6715 1.98504ZM28.7401 18.7849C28.9569 18.7987 28.9007 18.9785 29.281 18.7153C29.2807 18.7153 29.2804 18.7154 29.2801 18.7154C28.8639 18.6506 28.3448 18.6043 27.9184 18.7903C28.2119 18.9303 28.3988 18.7619 28.7401 18.7849ZM33.3595 3.32733C33.5045 3.27605 33.3052 2.96396 33.1764 3.02922C32.9788 3.13169 33.1417 3.39753 33.3595 3.32733ZM19.9665 20.6139C19.6535 21.0401 20.3178 21.4559 20.9727 21.2252C21.0287 21.2049 20.5928 21.0984 20.7158 21.0124C20.7287 21.0039 20.9643 21.0013 21.0212 20.9418C21.0771 20.8822 21.0087 20.7539 21.1022 20.694C21.2649 20.5891 21.6566 20.7493 21.7774 20.6171C21.7939 20.5993 21.5466 20.4347 21.5323 20.4287C21.2846 20.3339 21.0608 20.5755 21.0234 20.5789C20.829 20.5967 20.8502 20.4152 20.7988 20.3754C20.7028 20.3006 20.5431 20.389 20.5315 20.3837C20.2296 20.2417 20.9031 20.2506 20.9917 20.1814C21.2278 19.9939 20.9925 19.8417 21.5758 19.7147C21.6327 19.7026 22.2997 19.6824 21.4484 19.5199C23.0879 19.0232 20.6018 19.3181 20.3365 19.4301C20.214 19.4799 20.4126 19.641 20.3412 19.7224C20.1774 19.9086 19.8868 19.957 19.9275 20.2044C20.0151 20.7243 20.3788 20.3591 20.6488 20.4332C20.627 20.5483 20.6223 20.6598 20.5766 20.7738C20.6481 20.6196 19.9893 20.5814 19.9665 20.6128C19.9665 20.6132 19.9665 20.6135 19.9665 20.6139ZM24.1109 19.8215C24.4876 19.9638 24.4448 19.6346 24.7907 19.8076C25.0695 19.4963 24.4919 19.5446 24.4203 19.5305C24.1071 19.4692 24.0994 19.146 23.7843 19.2585C23.9 19.4451 24.0009 19.6343 24.1109 19.8215ZM20.8793 19.8269C21.1205 19.6468 20.6747 19.6725 20.6551 19.6416C20.4406 19.3118 21.7778 19.3104 20.8793 19.8269ZM37.6781 12.7218C37.7089 12.5987 37.538 12.6528 37.5085 12.5356C37.4788 12.4173 37.6737 12.0647 37.5735 12.0585C37.4732 12.053 37.1084 12.6976 37.1617 12.0011C37.1026 12.0155 37.0625 12.0012 37.0106 12.0045C36.9795 12.1921 36.9464 12.3838 36.9148 12.5757C37.0911 12.4948 37.276 12.4145 37.4461 12.339C37.5563 12.4653 37.3838 12.5005 37.3829 12.5058C37.3831 12.5059 37.3832 12.5059 37.3834 12.5059C37.3645 12.7081 37.6096 12.9983 37.6781 12.7218ZM31.8403 18.5955C31.8737 18.9977 32.0713 18.5075 32.1623 18.4361C32.2579 18.3657 32.4348 18.4755 32.341 18.3204C32.1516 18.2457 31.8408 18.551 31.8404 18.596C31.8404 18.5958 31.8404 18.5956 31.8403 18.5955ZM26.0668 19.6865C26.3688 19.5508 26.3088 19.453 26.7028 19.5283C26.6773 19.4334 26.6516 19.3365 26.6262 19.2431C26.3213 19.2759 26.377 19.5522 26.007 19.4844C25.9477 19.4739 26.0376 19.2493 25.8106 19.3309C25.8059 19.3334 25.8008 19.3362 25.7951 19.3394C25.8025 19.352 25.8098 19.3646 25.8169 19.3774C25.9009 19.4762 25.9855 19.5839 26.0668 19.6865ZM27.5595 19.1532C27.2131 19.208 27.0199 20.0204 27.6283 19.5943C27.7184 19.5304 27.8195 19.1111 27.5595 19.1532ZM36.8921 15.818C37.1404 15.2802 36.7671 15.8548 36.5925 15.942C37.0295 14.6562 36.5704 16.1016 36.1375 16.0516C36.1723 16.2482 36.2699 16.6481 36.4848 16.3609C36.5735 16.2411 36.4423 16.2385 36.4466 16.2308C36.5858 15.9999 36.7514 16.1112 36.8921 15.818ZM23.4696 19.8673C23.4923 19.8604 23.451 19.7264 23.5227 19.6963C23.5935 19.6665 23.7629 19.7546 23.7758 19.6708C23.7879 19.5865 23.4567 19.535 23.3558 19.6002C23.2588 19.6658 23.2634 19.9279 23.4696 19.8673ZM25.7917 20.0786C26.0575 19.95 25.5583 19.5041 25.4958 19.5076C24.9484 19.5718 25.7885 19.9257 25.7917 20.0786ZM37.0465 17.474C37.0557 17.4374 37.0625 17.4026 37.0674 17.3697C37.1006 16.8759 36.7793 16.9026 36.4413 17.0567C36.3251 17.1025 36.2065 17.1444 36.0995 17.1739C36.1141 17.2431 36.1225 17.3167 36.1263 17.3906C36.0917 17.1902 36.027 16.9917 35.9592 16.9373C35.8784 16.8849 35.8927 16.938 35.6964 17.2929C36.0602 17.0664 35.8661 17.3672 35.8673 17.3883C36.0392 17.6348 36.2362 17.5791 36.4263 17.4809C36.6158 17.3896 36.7955 17.2446 37.0461 17.4747C37.0463 17.4745 37.0464 17.4742 37.0465 17.474ZM22.4772 19.7653C22.1582 19.7804 21.3348 19.9223 21.7336 20.1653C21.9801 20.0316 22.2303 19.8982 22.4772 19.7653ZM36.9304 5.72634C36.9354 5.42675 36.8173 5.21866 36.6553 4.94394C36.6032 5.30044 36.4901 5.14648 36.397 5.08751C36.2557 4.99648 36.4332 5.30632 36.421 5.3143C36.2369 5.40777 36.099 5.22448 36.3538 5.67617C36.2287 5.59837 36.1041 5.5225 35.9797 5.44457C36.1626 5.79637 36.0896 5.94213 36.0673 6.24207C36.301 5.83374 36.2363 6.237 36.5521 6.39452C36.7102 6.47333 36.9276 5.87899 36.93 5.72548C36.9301 5.72577 36.9303 5.72606 36.9304 5.72634ZM37.469 16.7987C37.4361 16.6986 37.3775 16.5923 37.333 16.491C37.3597 16.4139 37.3867 16.3374 37.4121 16.2604C37.4747 16.2773 37.5393 16.2969 37.6005 16.3108C37.6612 16.2189 37.5623 16.2221 37.5674 16.1895C37.5678 16.1896 37.5681 16.1897 37.5684 16.1899C37.6405 15.7209 37.7164 15.5578 38.0235 15.2747C37.8376 15.2119 37.6517 15.1491 37.4657 15.0863C37.4585 15.1662 37.4495 15.2469 37.4398 15.3269C37.5247 15.4019 37.6087 15.4789 37.6923 15.556C37.6049 15.6229 37.5176 15.6875 37.4294 15.7505C37.4369 15.8333 37.4398 15.9303 37.4487 16.0037C36.8026 16.1238 37.4654 15.5081 37.2501 15.4168C37.1203 15.3635 36.8152 16.1114 36.8513 16.2608C36.8574 16.2826 37.3042 16.2899 36.9831 16.4769C36.9314 16.5074 36.1293 16.1408 36.6332 16.7418C36.7039 16.8282 37.2691 16.9228 37.469 16.7987ZM38.7496 13.8526C38.4055 14.058 38.5084 13.6775 38.5731 13.3817C38.6295 13.1362 38.674 12.9489 38.4069 13.2568C38.1814 13.0109 38.1789 13.0489 37.9193 13.2253C37.8961 13.2408 37.8474 13.0845 37.8366 13.0956C37.7919 13.1466 37.7627 13.2038 37.7383 13.2588C37.6783 13.3925 37.6455 13.5083 37.4828 13.4819C37.4863 13.5359 37.4888 13.5853 37.4915 13.6392C37.7441 13.4615 37.8287 13.8303 37.9785 14.0067C38.0471 14.0866 38.1021 13.9464 38.1626 14.0142C38.185 14.0398 38.0891 14.2324 38.1611 14.2575C38.3249 14.3136 38.5837 14.2352 38.7535 14.0296C38.7536 14.0296 38.7538 14.0296 38.754 14.0297C38.7541 13.9697 38.7509 13.9122 38.7496 13.8526ZM31.0654 19.9867C30.9472 19.6876 30.6173 19.6411 31.2036 19.4089C31.1656 19.3518 31.1269 19.2953 31.0887 19.2383C30.9873 19.2572 30.8878 19.2758 30.7835 19.2956C30.6082 20.2444 29.8813 19.3365 30.3564 19.9065C30.4079 19.9684 30.6244 19.8499 30.4311 20.08C30.4314 20.0801 30.4318 20.0803 30.4321 20.0804C30.7369 19.9663 30.7673 19.8528 31.0654 19.9867ZM33.2808 19.3197C33.7918 18.4628 32.1687 19.2713 32.4823 19.3433C32.5191 19.3615 33.2375 19.0084 33.2808 19.3197ZM27.1626 20.934C27.5108 20.9069 27.495 20.5513 27.4454 20.4285C27.3964 20.3051 27.1701 20.4606 27.1373 20.4439C27.0292 20.3889 27.2379 20.3216 27.0973 20.2454C27.0508 20.2206 26.4338 20.1623 26.4077 20.1816C26.2647 20.284 26.5225 20.5482 26.4826 20.5866C26.354 20.7121 26.1442 20.5852 26.1238 20.7449C26.0794 21.0852 26.3874 20.6947 26.449 20.6823C26.6297 20.6452 26.6352 20.8329 26.776 20.8546C26.9169 20.8764 27.0003 20.8027 27.1232 20.8025C27.1644 20.8024 27.1448 20.9348 27.1626 20.934ZM28.2241 20.055C27.8945 20.3688 28.8202 20.5423 28.9195 20.4606C29.1991 20.23 28.3779 19.9086 28.2241 20.055ZM37.6379 14.8402C37.7245 15.224 38.1096 14.5042 38.0762 14.2574C37.9902 14.2852 37.6102 14.7151 37.6379 14.8402ZM36.9054 17.6949C37.0635 17.3411 36.4386 17.5318 36.2685 17.6809C36.3481 17.9977 36.4242 17.862 36.5615 17.7265C36.6954 17.5851 36.7568 17.9666 36.9054 17.6949ZM23.3325 20.8982C23.3987 20.9002 24.4516 20.6185 23.8371 20.5447C23.7878 20.5394 23.0463 20.6115 22.9937 20.6581C22.8844 20.7524 23.161 20.8924 23.3325 20.8982ZM35.7068 19.1148C35.7703 18.8119 35.925 18.7347 35.6487 18.5462C35.6485 18.5463 35.6483 18.5464 35.6481 18.5465C35.9923 18.2716 36.3282 18.7484 36.4207 18.6759C36.7248 18.4046 36.172 18.279 36.2688 18.031C35.9354 18.4355 35.8922 18.1071 35.5774 18.259C35.5079 18.2924 35.2918 18.5792 35.2894 18.6952C35.288 18.8122 35.5666 19.0418 35.7068 19.1148ZM21.8368 21.0243C22.1995 21.1034 22.5069 20.6857 22.0092 20.6435C21.7643 20.6229 21.6165 20.9763 21.8368 21.0243ZM30.269 0.586039C30.3204 0.695052 30.3717 0.80389 30.4236 0.912522C30.2894 0.929276 30.1512 0.947937 30.0175 0.968172C30.1247 0.939369 30.2318 0.911907 30.342 0.885599C30.0888 0.833701 29.9835 0.636456 30.2683 0.586C30.2686 0.586013 30.2688 0.586026 30.269 0.586039ZM21.3488 0.466979C21.2317 0.370753 21.0233 0.70022 21.055 0.723018C21.278 0.892637 21.5127 0.600241 21.3488 0.466979ZM38.7005 14.5954C38.848 14.1607 38.2783 14.357 38.1784 14.6007C38.3148 14.4648 38.6127 14.8391 38.7005 14.5954ZM24.4973 0.424647C24.5347 0.468794 24.5723 0.512963 24.6141 0.557222C24.4826 0.495737 24.4598 0.454518 24.4973 0.424647ZM23.5198 21.3446C23.5853 21.3814 24.0505 21.3949 24.1146 21.3434C24.2412 21.2355 23.8653 20.9674 23.6538 21.0632C23.6314 21.0735 23.455 21.3077 23.5207 21.3445C23.5204 21.3446 23.5201 21.3446 23.5198 21.3446ZM29.6985 0.365298C29.6991 0.370234 29.6986 0.374911 29.6971 0.379189C29.6977 0.374622 29.6977 0.369879 29.6985 0.365298ZM11.8643 1.74094C11.8695 1.74754 11.8735 1.75452 11.8758 1.76177C11.8723 1.75509 11.8677 1.74841 11.8643 1.74094ZM26.9126 21.5344C27.118 22.0039 27.447 21.7057 27.1386 21.4963C27.1214 21.4854 26.9493 21.5312 26.9126 21.5344Z" fill="var(--stroke-0, #EC5B13)"/>
</svg>
