<svg preserveAspectRatio="none" width="100%" height="100%" overflow="visible" style="display: block;" viewBox="0 0 30.2754 23.8588" fill="none" xmlns="http://www.w3.org/2000/svg">
<path id="Vector 80" d="M25.5423 13.1152C25.7914 12.0254 25.9811 10.8493 26.2358 9.56713C26.337 9.11383 26.2683 8.55943 26.1712 8.34549C26.2352 8.4223 25.947 8.05372 25.5148 7.78065C25.0768 7.4822 24.5596 7.21111 23.9077 6.85266C23.8601 6.82541 23.8096 6.79736 23.7586 6.76969C23.4617 6.61201 23.533 6.49357 23.4511 6.43505C23.218 6.2746 22.9923 6.36394 22.8029 6.27587C21.8692 5.84787 20.896 5.52467 19.8714 5.18344C18.8083 4.83674 19.4296 4.54997 19.0782 4.34559C18.3846 3.94961 18.876 4.6698 18.5515 4.71997C18.2607 4.63368 17.9676 4.54512 17.6738 4.45484C17.1487 4.29107 16.6029 4.13609 16.0386 3.98124C16.262 3.97113 16.4831 3.96221 16.704 3.9576C16.3349 3.8683 15.8063 3.67279 16.471 3.65332C16.3396 3.58428 16.2178 3.51047 16.0805 3.44185C16.0006 3.63937 15.3165 3.52086 15.2281 3.62953C15.1411 3.73886 15.5325 3.78784 15.5274 3.79782C15.4877 3.90794 14.6119 3.64341 14.1221 3.47666C14.0063 3.43141 13.9198 3.40187 13.8995 3.39431C13.6833 3.31878 13.9144 3.08572 13.7112 3.08029C13.3471 3.0857 13.6012 3.61561 13.1074 2.91926C12.9197 3.15727 12.9022 3.03821 12.6449 3.0528C12.6112 3.0552 12.6543 3.18279 12.6402 3.18811C12.2783 3.341 12.5291 3.05475 12.5276 3.04148C12.4603 2.81943 12.0435 2.99889 11.9479 3.00229C11.1999 3.0026 10.5312 3.11641 9.76582 3.21843C9.33297 3.26705 8.88778 3.35718 8.40687 3.5258C8.13028 3.61042 7.4063 4.08399 7.16216 4.20631C6.91298 4.31989 6.94739 4.10483 6.78252 4.11959C6.80553 4.57657 6.66804 4.72338 6.08833 4.84236C6.08918 4.86027 6.08969 4.87672 6.08985 4.89186L6.09894 4.88467C6.10429 5.16847 5.95657 5.0141 5.74883 5.26029C5.72888 5.28542 5.71108 5.31511 5.69604 5.34728C5.628 5.52138 5.6838 5.98694 5.32818 6.16506C5.50518 5.82925 5.35485 5.78733 5.47252 5.4179C5.48404 5.38981 5.51628 5.32651 5.59246 5.2417C5.69127 5.12824 5.86832 4.97961 6.03807 4.80998C6.30571 4.54984 6.53299 4.29621 6.40574 4.21342C6.26577 4.12354 5.93157 4.54936 5.90006 4.53962C5.70751 4.4814 5.81566 4.14306 6.06986 4.04366C6.03669 4.10901 5.99394 4.18265 5.95831 4.25085C6.54657 4.07019 5.76737 3.66526 6.52728 3.96974C6.61996 4.00844 6.6523 4.0924 6.77517 4.11768C6.76986 4.07666 6.62836 4.06113 6.69716 3.99519C6.7685 3.92702 7.01445 3.9771 6.95958 3.8388C6.88149 3.63399 6.58579 3.92458 6.556 3.93235C6.55645 3.9336 6.55691 3.93485 6.55736 3.9361C6.27026 3.99435 6.73021 3.66659 6.74512 3.63759C6.82487 3.43127 6.6655 3.4072 6.84447 3.17282C6.94713 3.03746 7.3207 2.88007 7.44559 2.79967C7.56945 2.71696 7.31841 2.72596 7.39869 2.66308C7.48043 2.59945 7.62665 2.61628 7.72299 2.54667C7.76468 2.51635 7.71798 2.41392 7.73904 2.40055C7.96587 2.25817 7.89532 2.54053 8.1088 2.43989C8.24337 2.37374 8.65975 1.99965 8.30112 2.05554C8.45584 1.97645 8.61271 1.9074 8.7709 1.84064C8.65752 1.84015 8.5426 1.85307 8.4294 1.84961C8.75531 1.79773 8.84155 1.57373 9.03647 1.5046C9.13264 1.47108 9.23527 1.49737 9.34008 1.51387C9.42312 1.53807 9.51213 1.54789 9.58604 1.46669C9.76956 1.26747 9.52682 1.32035 9.30528 1.37455C9.08222 1.42858 8.84663 1.50581 8.78132 1.50665C8.71945 1.50709 8.88717 1.26949 8.91921 1.2558C9.02368 1.20972 9.16133 1.23902 9.27323 1.24621C9.30324 1.25212 9.33144 1.25385 9.35417 1.24619C9.65228 1.14372 9.8141 0.910813 10.1542 0.770368C11.2672 0.268772 13.2681 -0.23402 14.8396 0.117268C14.8551 0.120021 14.8704 0.122757 14.8857 0.125475C15.2971 0.198746 15.5074 0.437064 15.6949 0.469476C16.1349 0.544826 16.2212 0.390586 16.6117 0.459228C17.1906 0.559011 18.0118 0.879359 18.5158 1.03938C18.5168 1.03968 18.5177 1.03997 18.5186 1.04027C18.8433 1.14252 19.1869 1.06159 19.2755 1.07995C20.5018 1.32626 21.9948 1.7467 23.0229 2.09336C23.5079 2.25529 23.6767 2.51382 23.7784 2.54521C24.2168 2.68566 24.1579 2.49645 24.5062 2.65302C24.6959 2.73982 24.6727 2.89345 24.6964 2.90965C24.9016 3.05133 25.0265 2.89368 25.2093 2.97059C25.4117 3.05656 25.6158 3.1557 25.8166 3.26621C26.4413 3.61106 27.2065 4.0762 27.9953 4.65814C28.0675 4.71196 28.0099 4.77727 28.0593 4.80821C28.274 4.94421 28.2627 4.76163 28.4857 4.92964C28.9452 5.29173 29.4381 5.77829 29.8239 6.59445C29.8489 6.64937 29.8189 6.70539 29.8202 6.79234C29.8187 6.82962 29.8247 6.8747 29.8448 6.92622C29.9051 7.0839 30.0466 7.16666 30.1075 7.40696C30.2593 8.03058 30.1941 8.63045 30.1674 9.24481C30.1629 9.34517 30.2899 9.48157 30.274 9.63662C30.2514 9.85883 30.1869 10.1223 30.1047 10.3745C30.028 10.5758 29.9486 10.7867 29.9163 10.9389C29.7186 11.8812 29.6272 12.8075 29.4167 13.7545C29.3669 13.9776 29.1993 14.1476 29.1684 14.2632C29.0983 14.5243 29.2612 14.3537 29.1947 14.6219C28.792 16.0249 28.5118 17.4771 27.0836 19.0892C26.4574 19.7301 25.7319 20.3146 24.9866 20.7968C24.5661 21.0714 24.1107 21.3673 23.6787 21.6281C23.3971 21.8102 22.9472 22.0961 22.5603 22.2755C22.2153 22.4359 22.0783 22.32 21.8352 22.4314C21.3947 22.6267 21.3917 22.8544 20.9075 23.0574C20.5173 23.2174 19.9985 23.1605 19.5848 23.2764C19.1676 23.391 19.0151 23.6305 18.5166 23.7363C18.1055 23.8225 17.519 23.7902 17.0731 23.8219C15.9158 23.91 14.7628 23.8372 13.6478 23.6352C11.707 23.3156 9.51511 22.555 7.843 21.5438C7.685 21.433 7.11816 21.2462 6.53385 21.0904C5.40215 20.7268 3.76559 20.6981 2.15137 19.1525C2.01483 18.9933 2.36124 19.0906 1.88359 18.634C1.80119 18.5483 1.69866 18.4555 1.58386 18.3351C1.35654 18.0979 1.13127 17.8349 0.964007 17.4599C-0.0283442 14.8075 -0.459982 12.2452 0.67783 9.07091C0.862817 8.66853 1.05014 8.14807 1.24504 7.62822C1.73943 6.35354 2.21743 4.81926 3.62436 3.49385C6.96974 0.822012 10.079 0.646511 12.9393 1.48668C13.1431 1.55501 13.117 2.05306 13.0275 2.2077C12.9086 2.12643 12.7954 2.02552 12.6718 1.93229C12.6376 2.55555 12.6296 2.39517 12.1251 2.42417C11.8101 2.44301 12.1001 2.65825 11.9494 2.75894C11.7524 2.88775 10.8202 3.36217 10.9375 2.93117C10.8875 3.01154 10.8426 3.08807 10.7955 3.16656C10.0947 3.36015 9.42352 3.60009 8.76805 3.87697C8.65649 3.92484 8.68127 4.04913 8.56503 4.09903C8.25701 4.2338 7.98454 4.22119 7.66413 4.33125C7.4887 4.39245 7.50969 4.53852 7.28595 4.60372C7.06252 4.67148 6.9946 4.48367 6.78025 4.79842C7.05458 4.95076 6.1702 5.12277 5.93004 5.30308C5.88799 5.32757 5.71932 5.69818 5.56522 5.78825C5.53907 5.80303 5.50915 5.81712 5.47657 5.83167C5.32673 5.89144 5.0994 5.97935 4.9959 6.19913C4.93818 6.32245 5.02411 6.49139 4.94946 6.60604C4.89733 6.68662 4.70176 6.69561 4.62375 6.8032C4.54458 6.90917 4.50725 7.22335 4.48456 7.27099C4.3989 7.44427 4.40646 7.20462 4.33786 7.31928C4.00606 7.87641 3.6556 8.60524 3.46417 9.31381C3.43989 9.40166 3.60411 9.33029 3.60378 9.343C3.52714 9.97697 3.48933 9.61194 3.32189 9.7265C3.26614 9.76638 3.18753 9.91894 3.09992 10.1234C2.98815 10.3697 2.97402 10.7958 3.12037 10.8267C2.84121 10.7984 3.01316 11.0439 3.01504 11.0971C3.01843 11.31 2.78406 11.243 2.83902 11.4662C2.85989 11.5475 3.03395 11.4069 3.02257 11.4906C2.9957 11.692 2.72603 11.8771 2.70263 12.175C2.69726 12.2473 2.81355 12.2674 2.81373 12.3938C2.81029 12.5187 2.70962 13.0677 2.93541 12.8013C2.76609 13.1409 2.87982 13.2004 2.92541 13.5794C2.9374 13.6751 2.77021 13.8294 2.86354 14.0265C2.89531 14.0927 3.07269 14.0591 3.09342 14.1619C3.14194 14.396 3.00592 14.6584 3.07387 14.9611C3.20057 15.5226 3.51453 16.077 3.69608 16.5558C3.7446 16.679 3.57017 16.745 3.65913 16.8983C3.66185 16.9026 3.67476 16.9097 3.6927 16.9167C3.76019 16.946 3.90685 16.9744 3.95662 17.0362C3.97688 17.0831 4.22089 17.3937 4.30673 17.4418C4.42694 17.5231 4.52981 17.3757 4.58551 17.4399C4.75968 17.6243 4.48868 17.7928 4.89329 17.5716C4.91608 17.7903 5.09764 17.8306 5.08325 18.0788C5.26693 17.8593 5.33021 18.1444 5.56757 18.1159C5.80502 18.0871 6.09799 17.6292 6.02375 18.1784C6.14009 18.138 6.60515 18.1244 6.68412 18.1328C6.91228 18.1586 6.76054 18.2814 6.93451 18.2986C6.96523 18.3019 6.95586 18.1927 7.14795 18.246C7.26711 18.2735 8.23708 18.5233 8.30051 18.5698C8.93668 18.9496 7.89389 18.5447 7.73432 18.6357C7.71695 18.6006 7.69966 18.5655 7.68012 18.5304C7.40373 18.412 7.51206 18.6807 7.62803 18.766C7.74119 18.85 8.01393 18.8153 8.10044 18.9227C8.14234 18.9762 8.02845 19.2355 7.88003 19.1579C8.02525 19.2898 7.76994 19.3126 7.81437 19.4102C7.86896 19.5077 8.56032 19.7805 8.62519 19.6554C8.4958 19.5901 8.32757 19.5316 8.19085 19.4791C8.10288 19.2156 8.70882 18.6399 9.24607 18.9398C9.31431 18.9804 9.37288 19.0417 9.41638 19.1283C9.62483 19.5404 8.97508 19.4425 9.87086 19.6539C9.75445 19.5828 9.66281 19.5068 9.55791 19.4388C9.64073 19.2532 9.71545 19.5444 9.83768 19.5341C9.89582 19.5285 9.69074 19.2615 9.94736 19.3396C10.0179 19.7006 10.3059 19.5199 10.6431 19.6699C10.5276 19.6744 10.4117 19.6772 10.2944 19.6785C10.788 20.1437 9.39476 19.5651 10.4916 20.2076C10.348 20.1539 10.2119 20.0878 10.0665 20.0336C10.0879 20.1621 9.84362 20.3914 9.87626 20.4804C9.96448 20.7154 10.2544 20.7337 10.4516 20.8343C10.539 20.8785 10.4503 20.9324 10.4576 20.9361C10.5763 20.9963 10.5981 20.8713 10.7079 20.9078C10.8462 20.9554 11.1996 21.2171 11.2715 21.2268C11.4496 21.2532 11.2545 20.9243 11.2777 20.9129C11.4235 20.8409 11.6044 21.0071 11.6431 20.8567C11.082 20.7946 9.71574 20.0446 11.0997 20.3523C10.8399 19.9765 11.0792 19.7093 11.5759 19.8693C11.9923 19.9965 11.6807 20.0307 11.8483 20.2502C11.8689 20.2803 12.4179 20.5312 12.4794 20.4347C12.3855 20.6648 12.5151 20.9307 12.315 21.1379C12.2844 21.1684 12.0441 21.0801 12.0695 21.3021C12.0814 21.4135 12.1445 21.6662 12.0872 21.7859C12.166 21.7141 12.2478 21.6311 12.3269 21.5548C12.7112 21.6356 12.74 21.7422 12.907 21.9603C12.914 21.8888 12.7955 21.5519 13.0649 21.7126C13.0787 21.7215 13.0644 21.8286 13.2023 21.9161C13.4776 22.09 13.5402 22.1369 13.2326 22.3893C13.5332 22.3771 13.7083 22.4387 13.8763 22.5172C14.0948 22.6163 14.2907 22.7396 14.6833 22.7391C14.6127 22.361 14.4095 22.3808 13.9103 22.3511C13.8549 22.3478 13.7964 22.3439 13.7348 22.339C13.729 22.2395 13.7368 22.144 13.7311 22.0435C13.8171 22.0882 13.8893 22.126 13.9497 22.1579C14.4098 22.3928 14.153 22.3071 14.5858 22.2049C14.7033 22.1788 15.2932 22.3017 15.126 22.0074C15.0869 21.9399 14.7242 21.898 14.781 21.8033C14.7902 21.7871 15.2339 21.7946 15.2677 21.8224C15.7262 22.1821 14.8193 22.3579 16.2085 22.3141C16.247 22.3115 16.2632 22.1944 16.337 22.1792C16.4758 22.1503 16.4746 22.2865 16.6014 22.2544C16.7288 22.2219 16.889 22.0353 17.0845 22.1951C17.4515 22.485 16.624 22.7089 16.255 22.529C16.0785 22.9927 18.818 22.805 18.9678 22.656C19.6525 22.3521 18.4784 22.6976 18.3946 22.5841C18.3597 22.5411 18.286 21.9488 18.0447 22.375C17.9696 22.502 18.367 22.5997 18.151 22.6944C17.9323 22.7879 18.001 22.6001 17.9827 22.5903C17.9236 22.5558 17.6912 22.6471 17.6579 22.6246C17.1574 22.2843 17.1503 21.7165 17.8448 22.4982C18.0879 22.2775 17.4487 22.0416 17.7601 21.8764C18.1246 21.6761 18.4452 21.8935 18.4989 21.8967C19.1106 21.9242 18.3635 21.6749 19.0909 21.6429C19.4993 21.6146 18.5619 22.0495 19.4588 21.7955C20.2018 21.5563 19.7526 21.5399 19.7144 21.2235C19.7063 21.1484 20.0636 20.9408 19.5479 21.1364C19.5567 21.2197 19.5591 21.3322 19.5455 21.4152C19.3936 21.3975 19.0687 21.0569 19.0011 21.0583C18.6516 21.0716 18.7126 21.2741 18.4639 21.0675C18.6584 21.31 18.3966 21.1927 18.3195 21.2645C18.0275 21.5273 18.4655 21.5506 17.6908 21.3733C17.8019 21.4907 17.9031 21.6058 18.0189 21.7196C17.9263 21.7369 17.838 21.7526 17.7461 21.7675C17.5725 21.5029 17.1149 21.5761 17.5114 21.2547C16.999 21.2195 16.802 21.2777 16.6918 21.5026C16.6711 21.5452 16.5923 21.5633 16.4997 21.5673C16.5164 21.6295 16.5402 21.8216 16.5251 21.8452C16.3915 22.0532 16.1892 21.69 16.2635 21.555C16.1991 21.547 16.1471 21.5376 16.1298 21.5336C16.0181 21.5085 16.2432 21.3925 16.1529 21.3471C16.1248 21.3336 15.8079 21.3446 15.8041 21.293C15.7911 20.9647 16.274 21.2481 15.2776 20.9681C15.2172 21.2586 15.7077 21.2401 15.5573 21.5386C15.3875 21.861 15.1583 21.384 15.0473 21.7831C15.0325 21.7133 15.0294 21.6561 15.0196 21.5774C14.5641 21.6961 14.6055 21.3507 14.4938 21.2559C14.4328 21.2041 14.3025 21.1522 14.1638 21.1107C13.7982 21.0007 13.3768 20.9807 14.0919 21.3532C13.9312 21.3504 13.7713 21.33 13.6145 21.3215C13.7157 20.7137 13.7482 20.981 13.0568 20.7108C12.9034 20.6494 12.9262 20.3764 12.6888 20.6426C12.7931 20.3471 12.2894 20.3974 12.2575 20.3457C12.0693 20.031 13.1421 19.9921 13.1364 20.5556C13.3611 20.3896 13.2907 20.6668 13.4949 20.6768C13.7881 20.6892 13.8378 20.6438 14.1314 20.9211C14.5168 20.7044 12.8779 20.5068 13.9335 20.3418C14.0291 20.3265 14.1597 20.3199 14.3254 20.3203C15.1108 20.3234 16.6223 20.3752 17.978 20.0437C19.3438 19.7414 20.5277 19.0876 21.0205 18.7867C21.2952 18.623 21.5345 18.4629 21.8809 18.2601C23.0235 17.5842 23.6119 17.1088 24.2939 16.3936C24.3823 16.2985 24.5559 16.0499 24.7281 15.6862C24.8134 15.5838 25.2485 14.1837 25.4792 14.5664C25.5158 14.6248 25.434 15.2954 25.8669 14.8345C25.6803 14.8983 25.6819 14.545 25.6728 14.5132C25.4843 13.7764 25.3006 14.1359 25.5423 13.1152ZM29.1956 10.494C28.8385 11.9108 29.2697 10.9017 29.7207 11.2977C29.7579 11.1124 29.7945 10.931 29.8317 10.7511C29.7901 10.7933 29.7494 10.8325 29.708 10.8742C29.708 10.8744 29.708 10.8746 29.7079 10.8748C29.5366 10.7495 29.3662 10.6206 29.1956 10.494ZM7.91901 1.84497C7.95537 1.75775 7.99362 1.67027 8.03793 1.583C8.25748 1.52545 8.47588 1.47522 8.69434 1.43166C8.68207 1.48372 8.67124 1.536 8.65981 1.58798C8.41138 1.66239 8.16372 1.74521 7.91901 1.84497ZM16.0345 22.5974C15.7549 22.3944 15.758 22.7358 15.3833 22.5495C15.4081 22.8026 15.4414 23.0508 15.4744 23.3016C15.7865 23.2875 15.8631 23.1971 16.1986 23.2682C16.1609 23.187 16.1226 23.1051 16.0874 23.023C16.0323 23.0384 15.9731 23.0557 15.9188 23.0684C15.8472 22.8415 16.365 22.8263 16.0355 22.5969C16.0352 22.5971 16.0348 22.5972 16.0345 22.5974ZM13.0853 22.2567C12.9436 22.1919 12.385 21.919 12.2792 21.9943C11.9049 22.262 13.6529 22.4875 12.3273 22.4644C12.3202 22.5135 12.3017 22.5585 12.2889 22.6055C12.5132 22.6845 12.7412 22.7578 12.9685 22.8261C13.0011 22.6343 13.0538 22.4498 13.0853 22.2567ZM27.9963 15.8136C27.9137 16.0305 27.5949 17.2146 27.9522 16.9383C28.0659 16.8495 27.9718 16.2229 28.0455 16.0437C28.0966 15.9234 28.2148 16.118 28.2362 15.8542C28.1597 15.8407 28.0767 15.8204 27.9966 15.8144C27.9965 15.8141 27.9964 15.8139 27.9963 15.8136ZM27.1646 15.084C27.1255 15.3195 27.0892 15.5572 27.0388 15.7948C27.2867 15.6962 27.2729 15.3258 27.5446 15.391C27.5448 15.4607 27.5444 15.5304 27.5433 15.6011C27.4691 15.6309 27.3951 15.6591 27.3212 15.6863C27.3947 15.9345 27.5122 15.8398 27.3306 16.1965C27.8075 16.1253 28.0558 16.1377 27.854 15.3568C28.0333 15.5501 28.7886 15.6476 28.3838 15.1258C28.3084 15.03 28.1619 15.298 28.1454 15.2961C27.9447 15.283 27.8709 15.0918 27.6795 15.0858C27.5933 15.0828 27.544 15.2509 27.4248 15.2418C27.3673 15.2361 27.2604 15.0315 27.1646 15.084ZM28.2535 14.898C28.3473 15.0044 28.6903 14.8239 28.6918 14.5868C28.693 14.2218 28.2972 14.696 28.2535 14.898ZM7.91774 1.84574C7.91817 1.84548 7.91859 1.84523 7.91901 1.84497C7.91888 1.8453 7.91875 1.84563 7.91861 1.84595C7.91832 1.84588 7.91803 1.84581 7.91774 1.84574ZM13.8288 22.5625C13.6306 22.6252 13.3701 22.5524 13.355 22.7133C13.276 22.6634 13.1927 22.6125 13.1146 22.5618C13.1044 22.6089 13.095 22.6564 13.0849 22.7031C13.3198 22.7865 13.5521 22.8655 13.7894 22.9425C13.812 22.9497 13.8347 22.9569 13.8573 22.964C13.8509 22.8754 13.846 22.7868 13.8394 22.6978C13.8365 22.6528 13.8331 22.6077 13.8288 22.5625ZM11.054 21.6821C10.7418 21.55 10.9325 21.8531 10.826 21.9262C10.7167 21.9991 10.4594 21.8067 10.4379 21.9604C10.628 22.0421 10.826 22.1225 11.0205 22.1967C11.0235 22.0233 11.0453 21.853 11.0534 21.6819C11.0536 21.682 11.0538 21.6821 11.054 21.6821ZM26.2953 4.45622C26.4772 4.61021 26.3091 4.70274 26.8111 4.76792C26.8108 4.76775 26.8105 4.76757 26.8102 4.76739C26.495 4.42119 26.0409 4.05057 25.5958 3.96837C25.7515 4.2482 26.011 4.21932 26.2953 4.45622ZM16.857 23.0937C16.954 22.96 16.4828 22.8591 16.3822 22.9782C16.2089 23.1754 16.7071 23.3014 16.857 23.0937ZM17.4394 2.65691C17.0922 2.93434 17.409 3.38764 17.9096 3.49863C18.0008 3.51895 18.1031 3.52892 18.2065 3.52357C18.2657 3.52037 17.8862 3.29336 18.0267 3.24636C18.0408 3.24177 18.2636 3.30685 18.3343 3.26623C18.4038 3.22511 18.3769 3.08283 18.4813 3.05198C18.666 2.99843 18.9861 3.26384 19.1364 3.17192C19.1562 3.15943 18.9753 2.93158 18.9621 2.9214C18.7568 2.75941 18.4761 2.92657 18.4414 2.91952C18.2534 2.88092 18.3269 2.71344 18.2898 2.66059C18.2526 2.60815 18.1871 2.59426 18.1331 2.59192C18.083 2.58943 18.0415 2.59624 18.0369 2.59226C17.9129 2.48029 18.0134 2.47529 18.1573 2.49365C18.2949 2.51086 18.4752 2.55024 18.5269 2.52997C18.8013 2.41781 18.6243 2.20444 19.2113 2.25097C19.2653 2.255 19.9048 2.42997 19.1473 2.02768C20.5962 2.02947 19.0225 1.70343 18.3685 1.63703C18.2526 1.62397 18.1642 1.6187 18.1223 1.62257C17.9893 1.6353 18.136 1.84653 18.0437 1.9042C17.8339 2.03595 17.5423 2.00317 17.5141 2.25244C17.4568 2.76346 17.8773 2.53518 18.1156 2.66301C18.1212 2.6661 18.1268 2.66941 18.1323 2.67296C18.1183 2.70027 18.1055 2.72767 18.0929 2.75497C18.057 2.83166 18.0224 2.90756 17.9671 2.97864C18.079 2.85018 17.4702 2.63058 17.4397 2.6559C17.4396 2.65624 17.4395 2.65657 17.4394 2.65691ZM21.5681 3.12272C21.8737 3.38123 21.9475 3.05769 22.2129 3.34103C22.5895 3.15032 22.0198 2.98754 21.9585 2.95221C21.6803 2.7879 21.7798 2.48044 21.4411 2.48371C21.4937 2.69851 21.5246 2.90937 21.5681 3.12272ZM18.5238 2.15854C18.8024 2.05506 18.3765 1.95226 18.3669 1.91703C18.2607 1.53999 19.5183 1.92151 18.5238 2.15854ZM26.8094 16.9562C26.7392 17.067 26.9202 17.0674 26.9066 17.1934C26.8948 17.3241 26.5604 17.6018 26.6472 17.6455C26.7353 17.705 27.3778 17.148 26.9978 17.8691C27.06 17.8769 27.0898 17.9077 27.1398 17.9241C27.2698 17.7286 27.3848 17.5315 27.4871 17.3367C27.2877 17.3707 27.0803 17.395 26.8892 17.4123C26.8368 17.2469 27.0114 17.2696 27.0146 17.264C27.0145 17.264 27.0143 17.2639 27.0142 17.2638C27.1094 17.0619 26.9608 16.7073 26.8094 16.9562ZM28.8084 7.01069C28.6124 7.08348 28.6713 7.15105 28.7863 7.23243C28.8915 7.30162 29.0452 7.3819 29.0912 7.44524C29.1883 7.57764 29.094 7.81472 29.242 7.69606C29.2769 7.52723 29.1283 7.28992 28.9864 7.14724C28.9002 7.05444 28.8236 7.00505 28.808 7.01092C28.8081 7.01084 28.8083 7.01076 28.8084 7.01069ZM23.4754 3.76101C23.8027 3.7817 23.7966 3.66572 24.1101 3.92278C24.1336 3.82737 24.1575 3.72992 24.1799 3.63571C23.8904 3.51584 23.8091 3.78639 23.5178 3.55461C23.4697 3.51684 23.6663 3.3491 23.3928 3.32551C23.4238 3.46475 23.4502 3.61678 23.4754 3.76101ZM25.0766 4.0564C24.7231 3.90084 24.1405 4.49522 24.8936 4.46367C25.0046 4.46015 25.3397 4.17692 25.0766 4.0564ZM27.84 13.8253C27.6769 14.4043 27.9616 13.771 28.1131 13.6436C27.879 15.0375 28.1218 13.484 28.5383 13.4312C28.4641 13.2368 28.2746 12.87 28.1318 13.2029C28.0718 13.3418 28.2001 13.3144 28.1977 13.323C28.1096 13.5842 27.9266 13.5091 27.84 13.8253ZM20.9496 2.96094C20.973 2.96151 20.9762 2.82131 21.0532 2.81524C21.1303 2.80936 21.2616 2.94659 21.3005 2.87133C21.34 2.79541 21.0408 2.64069 20.9264 2.67194C20.8124 2.70366 20.7379 2.95476 20.9496 2.96094ZM23.0453 3.98013C23.362 3.99115 23.0668 3.35249 23.0006 3.33302C22.441 3.16745 23.1188 3.8358 23.0453 3.98013ZM27.3028 12.2981C27.4087 13.0449 27.9464 12.628 28.2935 12.2345C28.2524 12.1657 28.2113 12.0958 28.1705 12.0276C28.4381 12.3554 28.6635 12.8854 28.5873 11.7929C28.4018 12.3452 28.4081 11.8536 28.3906 11.847C27.8152 11.6702 27.923 12.5604 27.303 12.2975C27.3029 12.2977 27.3029 12.2979 27.3028 12.2981ZM20.0461 2.56265C19.7395 2.48131 18.9241 2.38005 19.2273 2.72722C19.4992 2.67083 19.7719 2.61572 20.0461 2.56265ZM20.697 20.5399C20.4138 20.4994 20.211 20.5838 19.9352 20.6921C20.26 20.8062 20.1057 20.8888 20.0349 20.9703C19.9286 21.093 20.2475 20.9726 20.2538 20.9846C20.3192 21.1793 20.124 21.2918 20.5955 21.1028C20.5059 21.2162 20.414 21.329 20.3189 21.4396C20.693 21.311 20.8245 21.3993 21.1276 21.4485C20.74 21.1769 21.1428 21.2818 21.3197 20.9765C21.4057 20.8255 20.8354 20.5654 20.6962 20.5403C20.6965 20.5401 20.6967 20.54 20.697 20.5399ZM27.0742 12.9983C27.1296 13.0847 27.2111 13.1707 27.2765 13.2577C27.2675 13.3346 27.2572 13.4114 27.2476 13.4881C27.1831 13.4831 27.116 13.4757 27.0535 13.4726C27.0126 13.5665 27.1083 13.5485 27.1097 13.5796C27.1093 13.5795 27.109 13.5795 27.1087 13.5794C27.125 14.0248 27.0668 14.197 26.7884 14.4665C26.9776 14.5185 27.1669 14.5705 27.3561 14.6225C27.3586 14.5427 27.361 14.4636 27.3629 14.3845C27.2714 14.3181 27.1796 14.2519 27.0875 14.1865C27.1657 14.1163 27.243 14.0457 27.3207 13.9735C27.3008 13.8956 27.282 13.8037 27.2602 13.7356C27.8762 13.5172 27.3258 14.2153 27.5422 14.2771C27.6853 14.3196 27.8718 13.5183 27.7958 13.3816C27.7849 13.3621 27.3485 13.4443 27.6203 13.2007C27.6625 13.1636 28.5311 13.332 27.8979 12.8675C27.8079 12.8021 27.2382 12.8455 27.0742 12.9983ZM26.0384 15.6476C26.7303 15.4619 25.5656 16.6738 26.2613 16.2435C26.4177 16.5274 26.4264 16.5024 26.7226 16.404C26.7492 16.3952 26.7551 16.5575 26.7681 16.55C26.9675 16.4202 26.9945 16.17 27.2101 16.253C27.2189 16.1974 27.2272 16.1459 27.2352 16.0902C26.9507 16.2231 26.9443 15.8345 26.8132 15.6498C26.755 15.5649 26.6842 15.6872 26.6326 15.6149C26.6141 15.5888 26.7276 15.4234 26.6574 15.3917C26.499 15.321 26.2405 15.3618 26.055 15.4993C26.0549 15.4993 26.0547 15.4992 26.0545 15.4992C26.0487 15.5482 26.0446 15.5983 26.0384 15.6476ZM27.1749 6.94761C27.3415 6.67955 27.1621 6.37581 27.7092 6.69746C27.7329 6.63295 27.7541 6.56721 27.775 6.50098C27.694 6.42738 27.6138 6.36013 27.5281 6.29193C26.708 6.78992 26.8917 5.66402 26.7939 6.39204C26.7838 6.47161 27.0114 6.54366 26.7178 6.56473C26.7179 6.56505 26.7181 6.56536 26.7182 6.56568C26.9978 6.70176 27.1068 6.64982 27.1749 6.94761ZM28.1681 8.61304C28.521 8.95703 28.6077 8.70111 28.5489 8.36301C28.4921 8.02671 28.259 7.68819 28.2211 7.86209C28.2311 7.88162 28.5051 8.64182 28.1681 8.61304ZM23.8121 5.36978C24.1002 5.50988 24.2704 5.20184 24.2948 5.07134C24.3183 4.9402 24.0539 4.96234 24.0343 4.93223C23.971 4.83169 24.1804 4.87593 24.0994 4.74058C24.0758 4.69469 23.5735 4.35059 23.5402 4.35659C23.3691 4.38086 23.4672 4.73341 23.4147 4.74889C23.2468 4.8006 23.1245 4.5919 23.0326 4.72384C22.8362 5.00467 23.2838 4.80058 23.341 4.81775C23.5132 4.86858 23.4278 5.03603 23.5358 5.12044C23.6422 5.20461 23.746 5.1791 23.8455 5.23691C23.8784 5.25612 23.7977 5.36217 23.8121 5.36978ZM25.1234 5.18034C24.6834 5.25479 25.3199 5.9127 25.4327 5.90401C25.7862 5.88081 25.3369 5.1445 25.1234 5.18034ZM27.1942 14.8693C27.097 14.5055 26.7383 15.1803 26.7413 15.4019C26.8317 15.3934 27.2289 14.9979 27.1942 14.8693ZM27.3426 12.1048C27.3436 12.4093 27.8515 12.1075 27.8925 11.8595C27.6374 11.6613 27.6675 11.8064 27.6244 11.9648C27.5812 12.1221 27.3413 11.8679 27.3426 12.1048ZM20.5 3.89816C20.5602 3.91725 21.6206 3.98269 21.0775 3.71856C21.0365 3.69731 20.3243 3.53802 20.2599 3.56758C20.1292 3.62458 20.3449 3.84079 20.5 3.89816ZM27.1974 10.6146C27.4118 10.8189 27.3791 10.9715 27.6941 10.8838C27.6941 10.8835 27.6941 10.8833 27.6942 10.8831C27.7064 11.2946 27.1152 11.1984 27.1113 11.2862C27.0985 11.5907 27.5711 11.3907 27.6727 11.6032C27.6269 11.1453 27.885 11.3239 27.9663 10.9973C27.9844 10.924 27.8731 10.5956 27.777 10.5306C27.6806 10.4659 27.3356 10.559 27.1974 10.6146ZM19.0733 3.57852C19.3877 3.75822 19.8001 3.44949 19.3457 3.26409C19.1246 3.1741 18.8798 3.46889 19.0733 3.57852ZM12.9384 20.7531C12.9611 20.8687 12.9887 20.9849 13.0165 21.1004C12.886 21.0934 12.7564 21.086 12.625 21.0767C12.7323 21.0717 12.8373 21.0657 12.945 21.0596C12.7218 20.9627 12.6707 20.7484 12.9378 20.7529C12.938 20.753 12.9382 20.753 12.9384 20.7531ZM4.84892 17.8847C4.79414 17.7576 4.50079 17.9789 4.51215 18.0098C4.62064 18.2546 4.93379 18.0645 4.84892 17.8847ZM26.1406 15.034C25.98 15.3776 26.5496 15.2992 26.6564 15.0771C26.519 15.1859 26.2297 14.8371 26.1406 15.034ZM7.73432 18.6357C7.75987 18.6878 7.78663 18.7404 7.81664 18.7941C7.70133 18.7002 7.69021 18.6553 7.73432 18.6357ZM20.5332 4.37922C20.5807 4.43321 21.0016 4.59052 21.0728 4.56166C21.223 4.49981 20.9685 4.12686 20.7442 4.15313C20.7193 4.15556 20.486 4.32466 20.5341 4.37948C20.5338 4.3794 20.5335 4.37931 20.5332 4.37922ZM12.4843 20.4216C12.4836 20.4265 12.4819 20.4309 12.4794 20.4347C12.4812 20.4304 12.4824 20.4259 12.4843 20.4216ZM3.1439 10.8288C3.13571 10.8291 3.12776 10.8285 3.12037 10.8267C3.12782 10.8275 3.1358 10.8277 3.1439 10.8288ZM23.324 5.78037C23.2644 6.28451 23.6487 6.16966 23.5193 5.84894C23.5116 5.83156 23.3548 5.7939 23.324 5.78037Z" fill="var(--stroke-0, #F3A632)"/>
</svg>
