<svg preserveAspectRatio="none" width="100%" height="100%" overflow="visible" style="display: block;" viewBox="0 0 28.5474 22.8461" fill="none" xmlns="http://www.w3.org/2000/svg">
<path id="Vector 81" d="M16.1785 11.8731C16.4579 11.6307 16.6385 11.3966 16.5938 11.4538C17.1091 10.7943 17.1521 10.5002 17.2074 10.3682C17.2478 10.2367 17.2385 10.2495 17.234 10.3095C17.2198 10.4387 17.2075 10.756 17.2225 11.1028C17.2495 11.8065 17.3631 12.6873 17.5251 13.4462C17.3735 12.587 16.8427 11.7095 16.4218 11.2864C15.9941 10.8406 15.7138 10.6918 15.5784 10.609C15.3101 10.4662 15.4769 10.5572 15.758 10.6493C15.816 10.6545 15.6839 10.6361 15.7101 10.6404C15.7285 10.6399 15.9221 10.5905 16.2079 10.4054C15.4831 10.8852 15.0017 11.6909 14.8784 12.0737C14.7359 12.4802 14.7641 12.5795 14.7698 12.5393C14.7996 12.4408 14.8044 11.8842 14.7811 11.2058C14.7776 11.0856 14.7838 10.9796 14.7971 10.8885C14.9677 11.5763 15.267 11.4804 15.372 11.6915C15.5706 12.0211 15.6283 12.2122 15.6376 12.3694C15.647 12.5212 15.6207 12.6299 15.6364 12.6237C15.6416 12.6209 15.6411 12.6131 15.6354 12.6013C16.1711 12.9131 15.9444 12.6165 15.4747 12.51C14.9997 12.373 14.3075 12.2762 13.5413 12.2137C11.8454 12.1091 12.582 10.9804 11.9363 10.7363C10.6105 10.2912 11.8098 11.6713 11.3332 12.0344C10.8895 12.0417 10.4273 12.0502 9.94352 12.0568C10.0626 12.025 10.2852 12.0243 10.8722 11.7598C11.436 11.5588 12.518 10.554 12.767 9.70103C13.1693 8.57577 12.8584 7.71814 12.7272 7.46822C12.5729 7.17691 12.5026 7.1756 12.4818 7.18964C12.2113 6.89077 11.948 6.73667 11.7967 6.67154C11.9032 6.8144 12.0974 7.03423 12.2747 7.35881C12.2169 7.3902 12.1684 7.42601 12.1443 7.50641C12.1085 7.46095 12.0903 7.47903 12.0786 7.51908C11.7802 7.23976 11.5895 7.23147 11.5207 7.29162C11.4516 7.37219 11.436 7.43456 11.6472 7.87159C11.6408 7.8718 11.6344 7.87195 11.628 7.87205C11.6255 7.87895 11.6231 7.88599 11.6208 7.89314C11.3589 7.73563 11.1545 7.76513 11.0954 7.84143C11.2159 7.60204 11.2289 7.45954 11.3991 7.38983C11.5549 7.31522 11.835 7.28118 11.9114 7.13553C11.9168 7.1252 11.9212 7.11518 11.9248 7.10547C11.9257 7.08201 11.9299 7.06165 11.9371 7.0441C11.9157 6.83246 11.5948 6.81439 11.625 6.79453C11.6614 6.68894 11.7414 6.6751 11.9997 6.73232C11.6127 6.65974 11.368 6.78777 11.4178 6.84164C11.4502 6.90227 11.6469 6.89799 11.7481 6.88754C11.5804 6.99222 11.4683 7.08699 11.4226 7.12618C10.8659 7.66136 11.1017 7.81843 11.2126 7.92862C11.355 8.03511 11.432 8.15936 11.2918 8.3844C11.1921 8.55773 11.1073 8.54574 10.9931 8.54618C10.8833 8.54053 10.7661 8.52231 10.7054 8.51637C10.5835 8.47711 10.6949 8.62962 11.6042 8.26779C11.5961 8.26278 11.5881 8.25782 11.5804 8.25292C11.0333 8.23283 11.3311 8.28503 11.3676 8.25227C11.3722 8.25042 11.055 8.35911 11.0475 8.36423C10.8562 8.5492 11.3886 8.21153 11.4301 8.22184C11.9666 7.99694 11.6227 7.92886 11.6683 7.91606C11.6876 7.88316 11.708 7.85456 11.7479 7.83886C11.881 7.8711 12.4133 7.94644 12.6294 7.81087C12.8326 7.73722 13.0295 7.58771 13.1195 7.45559C13.2137 7.32248 13.2187 7.22719 13.1963 7.19113C12.8842 7.27373 12.6085 7.91574 12.5941 8.34808C12.5559 8.19021 12.3922 7.88944 12.1616 7.7327C11.9363 7.57493 11.792 7.56014 11.7399 7.54928C11.6357 7.53936 11.7424 7.55925 11.8805 7.59447C12.179 7.65029 12.6515 7.95531 12.8202 8.23955C13.1693 8.80268 13.349 9.40293 13.4821 9.93813C13.5079 10.0401 13.5522 10.1772 13.6032 10.3104C13.6458 10.4323 13.741 10.6052 13.7105 10.5144C13.6062 10.3344 13.4881 10.3156 13.5699 10.3139C13.6562 10.3036 13.8219 10.2462 13.9573 10.23C14.2858 10.18 14.3257 10.6203 14.618 10.6816C14.4129 9.63241 14.474 9.45588 15.6341 9.28562C15.5672 9.04659 15.5607 8.91949 15.5932 8.84476C15.7742 8.66216 16.2689 8.53835 16.526 8.54404C16.8337 8.50021 16.9567 8.7806 17.4871 8.84286C17.7859 8.87866 18.2312 8.80247 18.6079 8.78671C19.0666 8.78059 19.1399 8.74332 19.3899 9.17208C18.924 9.03999 18.9626 9.30576 18.4095 9.34235C18.3288 9.34724 18.2353 9.34581 18.1267 9.33634C17.9723 9.33444 17.4328 9.07528 16.4818 9.01261C16.3222 9.00908 16.0151 9.08594 15.9027 9.1993C15.3867 9.80947 15.0122 10.362 15.3227 10.6119C15.6565 10.8547 16.124 9.96511 16.1921 9.99537C16.6211 10.1647 16.598 10.8861 16.1021 11.0726C16.1416 10.9298 16.1935 10.7716 16.2311 10.6258C15.1045 10.9045 16.8833 12.0314 15.1717 11.1311C14.9702 11.0087 14.8754 10.8056 14.6325 10.6897C14.6538 10.7872 14.9371 10.8849 14.8205 11.0067C14.687 11.1416 14.2321 10.8686 14.3357 11.2246C14.4711 11.7735 15.0816 11.221 15.1239 11.208C15.1226 11.2049 15.1213 11.2018 15.12 11.1988C15.7087 11.1544 14.821 11.777 14.7547 11.8296C14.5188 12.2852 14.9423 12.4484 14.2605 12.9109C14.0513 13.0362 13.583 13.1121 13.1 13.0274C12.6616 12.9764 11.9864 12.6485 11.6649 12.2996C11.3552 11.9708 11.3723 12.0945 11.4165 12.2877C11.465 12.4721 11.5737 12.6978 11.3161 12.4539C11.2538 12.3903 11.1955 12.3182 11.1429 12.24C10.8232 11.7344 10.9162 11.4445 10.7875 11.2574C10.73 11.1701 10.4596 11.2626 10.4363 11.2216C10.2037 10.8434 10.8529 10.9208 10.718 10.6252C10.6755 10.5344 10.4734 10.4128 10.2936 10.4148C10.1133 10.4148 9.94915 10.487 9.91749 10.6135C9.83284 10.5473 9.77323 10.5301 9.73987 10.5505C9.82548 10.6744 9.94679 10.8188 10.1088 10.9576C9.93347 10.8379 9.79277 10.7059 9.68676 10.5904C9.63684 10.6258 9.59678 10.6605 9.53572 10.7148C9.56282 10.6754 9.54436 10.6839 9.51296 10.7208C9.76135 11.2239 10.6893 11.7893 11.0121 11.8732C11.1561 11.9308 11.217 11.9874 10.7468 11.923C10.514 11.8763 10.0408 11.7966 9.40404 11.3327C8.75483 10.8732 8.2976 10.0346 8.17713 9.53688C8.1574 9.48692 8.13949 9.43389 8.12523 9.38429C7.92052 8.61922 8.4864 8.1197 8.22938 7.46698C7.87458 6.32442 7.61548 8.18084 8.02629 9.57747C8.13414 9.99725 8.40443 10.6066 8.87026 11.0959C9.3317 11.5904 9.85451 11.8556 10.1778 11.9811C10.8389 12.2188 10.9795 12.1866 11.049 12.21C11.1493 12.2292 10.8864 12.1979 10.7566 12.1712C10.6191 12.1438 10.6364 12.1877 10.7481 12.2691C10.8518 12.3492 11.0469 12.444 11.0331 12.5024C11.0147 12.531 10.7749 12.7031 9.66981 12.2615C9.13449 12.035 8.48812 11.5118 8.14346 11.0273C7.78778 10.5463 7.65216 10.1754 7.58585 9.9973C7.55225 9.90262 7.52324 9.80981 7.49828 9.71958C7.27326 9.04714 7.55391 8.47065 7.52607 8.10463C7.46987 6.80811 7.1349 5.85529 7.82954 4.27154C7.83321 4.26416 7.83691 4.25678 7.84063 4.24939C8.24678 3.33834 9.60694 1.75651 11.5714 1.43196C12.8604 1.11197 14.746 1.63948 15.5581 2.24007C17.8438 3.7658 18.9219 5.96376 18.9518 8.50322C18.9545 9.00651 18.9806 9.63163 18.7267 10.6783C18.5294 11.6399 17.5711 13.5977 15.7802 14.5092C15.5191 14.6581 15.2451 14.7998 14.9545 14.9317C13.5899 15.5516 12.2105 15.2501 11.2133 15.1926C10.894 15.1769 10.5959 15.1466 10.3204 15.1079C9.56625 15.0378 9.30569 15.4059 7.84424 14.809C7.21222 14.518 6.29883 14.0011 5.45418 12.9319C5.06261 12.3928 4.66059 11.7671 4.31299 10.7629C3.97814 9.81499 3.69989 8.08866 4.41258 6.43614C4.80009 5.37693 5.91229 4.23398 6.73388 3.83626C7.56776 3.39336 8.11494 3.30765 8.51435 3.23442C8.75224 3.19598 8.95166 3.17242 9.1278 3.15249C9.64202 3.0742 10.0959 2.70392 10.2462 2.68284C12.571 2.35719 15.6762 2.15696 18.6552 3.00374C20.0772 3.42014 20.6857 4.34348 20.9965 4.5189C21.5143 4.82189 21.8369 5.01028 22.0851 5.12732C22.4315 5.26905 22.6086 5.17823 23.2124 5.88132C23.7335 6.52617 23.5148 6.94291 23.5673 7.03949C24.0229 8.03781 24.5899 8.12636 24.8754 9.16682C24.9615 9.52777 25.0169 9.89707 25.0418 10.2581C25.099 10.9632 25.1447 11.8348 25.0153 13.1105C24.9388 13.7556 24.8337 14.5261 24.4461 15.546C24.0814 16.5371 23.2141 17.9161 21.916 18.7558C21.7795 18.8433 21.6359 18.9329 21.4934 19.019C21.3199 19.1228 21.2234 18.9236 21.118 19C20.6645 19.3232 21.0645 19.5005 20.5306 19.8045C19.4085 20.4252 17.9872 20.8359 16.4273 20.8994C16.2717 20.9046 16.1895 20.6304 15.8454 20.6364C15.5043 20.6379 15.2253 20.9044 14.6677 20.8336C13.8497 20.7247 13.0828 20.4269 12.3844 20.0742C12.0566 19.873 11.6392 19.6754 10.9139 19.2912C10.6398 19.1353 10.0638 19.2308 9.40717 18.6585C8.79155 18.1377 7.84284 16.8964 7.62018 15.4211C7.58892 14.7791 7.63718 14.1103 7.59027 13.6749C7.47666 12.622 7.36166 11.6132 7.34174 10.4733C7.43719 9.25587 7.02541 8.30178 8.5605 5.59571C8.65761 5.45233 8.76683 5.31049 8.88767 5.1724C9.04134 5.00299 9.7972 4.297 10.4488 4.00118C11.1147 3.67011 11.6436 3.57046 11.9773 3.47797C12.8039 3.27814 12.8123 3.25442 12.9038 3.16024C12.9709 3.08305 13.0931 2.97763 13.6552 2.96429C13.6566 2.96427 13.658 2.96425 13.6593 2.96423C14.815 2.95162 15.9751 2.95105 17.3324 3.05138C18.0251 3.10995 18.7445 3.17191 19.7449 3.41374C20.2538 3.54704 20.8401 3.70522 21.6544 4.148C22.4232 4.55972 23.6483 5.51491 24.2431 7.02884C24.5337 7.7812 24.8209 8.60481 24.9911 9.72595C25.11 10.8048 25.3516 12.5054 24.0006 14.6219C23.5954 15.2152 23.1937 15.6841 22.7723 16.1233C21.6172 17.3226 20.1629 18.557 18.3762 19.2995C18.0439 19.4505 17.7098 19.5965 17.342 19.7258C16.7873 19.9203 16.505 19.5958 16.0239 19.7825C15.1018 20.117 15.0399 20.7395 13.648 21.0605C13.0334 21.1877 12.3384 21.0943 11.7216 20.9561C11.427 20.8431 11.1143 20.7413 10.8023 20.7544C10.106 20.7799 9.78031 21.2979 8.80007 21.306C7.96623 21.2756 6.7745 21.0647 4.9404 20.3115C4.1606 19.9665 3.04228 19.3275 2.15794 18.0082C1.3906 17.0468 0.402704 14.9115 0.190918 13.3242C-0.086822 11.6654 -0.0221233 10.222 0.136085 8.90304C0.535815 7.14365 0.150318 4.99389 3.52304 1.7277C3.73358 1.55711 3.91307 1.43432 4.07351 1.33241C4.2268 1.23588 4.32489 1.18061 4.43662 1.11981C4.66941 0.995317 4.79023 0.941163 4.94466 0.872925C5.21172 0.757147 5.41744 0.68394 5.60429 0.621423C5.9646 0.502268 6.2623 0.426143 6.53025 0.364231C7.07614 0.239965 7.54013 0.169232 7.99737 0.114984C8.9002 0.0103517 9.74414 -0.0139589 10.5589 0.00677919C12.1992 0.0514073 13.7439 0.28283 15.2412 0.646595C16.0477 0.843301 16.8678 1.05789 17.6821 1.30969C18.4723 1.58874 19.3678 1.72715 21.0491 2.51176C21.282 2.68982 21.8869 2.97997 22.6517 3.43788C22.9318 3.61374 22.2529 3.83267 23.2852 4.20624C23.6901 4.37832 24.3481 4.43016 25.3238 5.10318C25.617 5.29065 25.9177 5.52693 26.2108 5.84391C27.3401 7.15726 28.7213 8.89896 28.5294 12.1225C28.3476 13.5929 28.0437 14.8109 27.5241 16.2224C27.2553 16.925 26.9412 17.6541 26.4157 18.4958C25.8662 19.2994 25.181 20.4412 23.2692 21.2904C19.9671 22.3346 18.1937 22.1533 15.9188 22.3748C14.9072 22.4426 13.8954 22.5191 12.872 22.5854C11.9258 22.6577 10.9387 22.7774 9.76377 22.8303C9.16624 22.851 8.54167 22.8703 7.66997 22.7573C7.22524 22.6917 6.72527 22.6114 5.98891 22.3217C5.30468 22.007 4.0315 21.5343 2.985 19.579C1.96269 17.8054 1.5218 15.9207 1.43084 14.2057C1.36884 13.3361 1.33592 12.49 1.38747 11.4878C1.51832 10.5094 1.30347 9.19872 2.70433 6.6911C3.70846 5.05874 5.97471 3.61078 7.39471 3.49156C8.70489 3.31443 9.69036 3.52911 10.7072 3.8461C11.0993 3.97848 11.3351 5.20676 11.2619 5.60392C11.0061 5.42603 10.7468 5.19967 10.4657 4.99765C10.7463 6.5422 10.6619 6.1322 9.75455 6.33363C9.19537 6.46708 9.86373 6.90895 9.66607 7.19474C9.60739 7.28194 9.48981 7.42621 9.3563 7.58424C8.88363 8.08861 8.50963 8.78927 8.14391 8.06924C8.1825 8.27224 8.23566 8.45788 8.29996 8.642C8.11523 8.90142 7.98157 9.18966 7.88625 9.49703C7.75761 10.0263 7.93554 10.8571 8.12988 11.7063C8.17997 11.9172 8.50155 11.9267 8.55321 12.1452C8.69545 12.7329 8.49181 13.2113 8.53272 13.8379C8.54021 13.951 8.58801 14.0327 8.6472 14.1083C8.76269 14.2256 8.92033 14.3135 8.91992 14.5391C8.92454 14.8691 8.424 14.9557 9.0401 15.3095C9.555 14.9632 9.41446 15.9836 9.61553 16.4083C9.53201 16.241 9.44272 16.1215 9.37413 16.0362C9.32177 15.9518 9.1253 15.6117 9.11323 15.4729C9.08977 15.3173 9.20905 15.2326 9.294 15.2827C9.44968 15.3871 9.89208 15.8148 10.4559 15.6482C10.72 15.5706 10.9027 15.1401 11.1906 15.1294C11.3932 15.1218 11.6272 15.5233 11.8966 15.5496C12.1639 15.576 12.7729 15.2751 12.8862 15.2739C13.2894 15.267 12.8351 15.526 13.1104 15.5498C13.1168 15.5503 13.1233 15.5509 13.1297 15.5514C14.3296 15.661 15.75 15.784 16.9079 15.5114C17.0506 15.4783 16.827 15.1699 16.8456 15.1576C17.7747 14.6839 17.2954 15.1449 17.5844 15.4107C17.8799 15.6842 19.6634 15.2573 19.5088 14.6894C19.7071 15.3703 19.934 14.7644 19.9937 14.7247C20.244 14.5714 20.4061 15.1589 20.5151 14.9163C20.5253 14.8376 20.3002 14.4842 20.3401 14.4809C20.3424 14.4809 20.3447 14.4816 20.3468 14.483C20.1129 14.6207 20.0831 14.8773 20.1633 15.0381C20.2403 15.2037 20.4117 15.2826 20.499 15.2066C20.5447 15.1649 20.3009 15.0008 20.3659 14.9019C20.4293 14.8375 21.0336 14.2824 20.3319 14.3674C20.9496 14.1388 20.7308 13.933 20.8883 13.376C20.9272 13.2343 21.4392 13.1411 21.3587 12.7785C21.3308 12.6556 20.8791 12.5785 20.9036 12.4142C20.9462 12.1124 21.3025 11.8554 21.4563 11.5312C21.4833 11.5417 21.5019 11.5451 21.5052 11.5432C21.5756 11.4989 20.9925 10.9809 20.5903 10.4754C20.5702 10.4479 20.5661 10.4144 20.5718 10.377C20.6429 10.2644 20.8441 10.0288 20.715 9.93331C20.6899 9.91381 20.2666 10.1294 20.0742 10.0096C20.002 9.9435 19.2673 9.37683 19.0466 9.2734C18.729 9.11772 18.4965 9.50508 18.3223 9.34068C18.2737 9.29475 18.2355 9.24859 18.2066 9.2039C18.1363 8.87324 18.4551 8.49785 17.8246 9.13934C17.8434 8.62027 17.5201 8.58064 17.5726 7.96075C17.2099 8.55856 17.1196 7.86967 16.6568 7.98279C16.2909 8.07382 15.7767 8.82901 15.7173 8.43267C15.708 8.33344 15.727 8.15945 15.7834 7.8804C15.562 7.9932 14.7737 8.09736 14.645 8.09325C14.2743 8.07271 14.549 7.73624 14.262 7.72954C14.2118 7.72859 14.2093 7.99665 13.9082 7.91184C13.7118 7.84204 12.234 7.61477 12.1485 7.58364C11.1726 7.07826 12.7253 7.36962 12.9928 7.13258C13.0217 7.21267 13.05 7.29302 13.0812 7.37278C13.514 7.56535 13.3563 6.93521 13.1594 6.76566C12.9665 6.59622 12.539 6.81117 12.3835 6.59787C12.3049 6.49069 12.4362 5.78177 12.7026 5.90015C12.4348 5.64653 12.864 5.46174 12.7718 5.24194C12.6695 4.98856 11.2814 4.80946 11.2555 5.21504C11.5138 5.23995 11.8305 5.24727 12.0855 5.28593C12.3265 5.99929 11.2236 8.23906 10.4563 7.3086C9.84361 6.64338 10.8393 6.05938 9.39168 6.69849C9.61901 6.7093 9.80925 6.76451 10.0135 6.78722C10.0508 7.30091 9.70288 6.74605 9.54547 6.92144C9.47496 7.00547 9.97073 7.34248 9.56679 7.48745C9.16076 6.77838 8.91945 7.53853 8.42108 7.63989C8.53621 7.48382 8.67087 7.32986 8.8136 7.17851C7.71888 6.80045 10.1135 6.26326 8.02126 6.28972C8.25742 6.2152 8.50891 6.1813 8.7624 6.11335C8.60142 5.86119 8.711 5.04779 8.57079 4.89645C8.18157 4.50182 7.72582 4.84431 7.30099 4.92346C7.11238 4.96049 7.16491 4.7228 7.15015 4.72558C6.87466 4.78693 7.03502 5.06171 6.80754 5.17652C6.73442 5.21874 6.6561 5.22721 6.46296 5.34888C6.09513 5.54169 5.60567 5.91854 5.57127 6.03248C5.45275 6.38676 6.29332 6.21866 6.30636 6.29378C6.4326 6.62083 6.03692 6.83511 6.39581 6.99988C6.44578 6.70106 6.69404 6.27048 7.03004 6.04736C7.2879 5.92302 7.77774 5.91474 7.86502 6.03175C7.92235 6.08856 7.89859 6.17381 7.79737 6.29073C7.74374 6.35023 7.67006 6.41828 7.58808 6.49632C7.54506 6.53604 7.50316 6.57754 7.4696 6.61913C7.44758 6.65056 7.38217 6.73336 7.52839 6.6612C7.52437 6.67017 7.52032 6.6793 7.51625 6.68861C7.53376 6.69486 7.55085 6.7018 7.56751 6.70938C7.48247 6.91865 7.61227 6.97598 7.66426 7.09984C7.72898 7.21245 7.78603 7.32949 7.82813 7.44527C7.8715 7.56056 7.899 7.6754 7.94197 7.77029C7.96362 7.81751 7.99168 7.85913 8.04252 7.88386C8.10487 7.89769 8.16098 7.93625 8.4307 7.77259C8.49705 7.83084 8.55061 7.85558 8.54769 7.8835C8.53679 7.94399 8.44764 7.95487 8.33458 7.89302C8.21758 7.83962 8.06855 7.72498 7.8429 7.73994C7.81502 7.74097 7.68468 7.86748 7.59478 8.05642C7.50446 8.24187 7.46154 8.47103 7.58678 8.52881C6.99602 8.30958 6.3723 8.48298 5.80805 8.09289C5.72248 8.03421 5.8937 7.6142 5.35068 7.60572C5.07672 7.59997 4.45894 7.68569 4.15015 7.55672C4.34244 7.72592 4.5654 7.89974 4.77422 8.0585C4.66853 8.7859 4.42057 8.82967 3.9253 9.15987C4.10698 9.16672 4.90986 8.93846 4.59726 9.43852C4.58598 9.45479 4.47184 9.45371 4.34558 9.51714C4.27296 9.55513 4.19623 9.61535 4.13392 9.71215C3.79479 10.2522 3.70253 10.3996 2.95798 9.83659C3.29595 11.1616 2.36789 11.4292 2.79793 12.9327C3.77962 12.492 3.43112 12.0689 3.27899 10.8266C3.52514 10.7849 3.76761 10.7714 4.01649 10.7343C3.42749 12.2758 3.4968 11.5584 4.0474 12.4085C4.16665 12.6172 4.28929 13.8041 4.87899 13.2623C5.00846 13.1399 4.88192 12.4878 5.15134 12.5289C5.19238 12.5424 5.45884 13.2745 5.42381 13.3524C5.14921 13.8776 4.78092 13.8361 4.58564 13.9122C4.4119 13.9748 4.33695 14.3248 5.1519 15.4515C5.19714 15.5094 5.46563 15.377 5.57263 15.4688C5.68687 15.5664 5.64228 15.6681 5.61578 15.7627C5.61478 15.8625 5.63541 15.971 5.76565 16.0646C6.10032 16.3066 6.63609 16.098 6.8295 16.6361C6.99707 17.04 6.83622 17.2735 6.42631 17.2905C6.04326 17.3144 5.27784 17.014 4.85111 16.2593C4.79079 16.1264 4.74448 15.9682 4.74029 15.8191C4.51837 15.8742 4.48167 16.1474 4.52926 16.4683C4.81986 17.1873 5.5976 17.8543 6.25692 18.1663C6.92971 18.5003 7.55005 18.645 8.08524 18.7395C9.15466 18.9159 9.93274 18.8865 10.0533 18.8596C11.3216 18.4959 9.21572 18.6883 9.08729 18.3806C9.03985 18.2559 9.17454 16.747 8.54544 17.6848C8.34515 17.9621 9.03197 18.4057 8.58902 18.5318C8.13013 18.6518 8.34973 18.2202 8.32184 18.1868C8.22978 18.0722 7.72301 18.1696 7.66244 18.0914C7.23525 17.5261 7.19297 16.8689 7.30974 16.6805C7.43573 16.4883 7.62955 16.7376 8.10527 17.8858C8.66988 17.4681 7.64184 16.5475 8.28515 16.3032C9.00841 15.9903 9.46215 16.6877 9.55652 16.7253C10.6006 17.1228 9.41423 16.0866 10.6797 16.4273C11.387 16.6118 9.61304 17.0955 11.2331 17.0382C11.4602 17.0295 11.6274 17.0125 11.7497 16.9863C12.4128 16.8437 11.8646 16.4964 11.9434 15.8284C11.9679 15.6431 12.5772 15.3976 11.7602 15.4911C11.7457 15.4921 11.7308 15.4932 11.7155 15.4943C11.6854 15.703 11.6298 15.978 11.5649 16.1703C11.3183 16.0165 10.9107 14.9697 10.7831 14.9322C10.1583 14.7535 10.1784 15.2953 9.83473 14.6477C10.0719 15.3533 9.66544 14.9219 9.50615 15.062C8.91984 15.5699 9.59573 15.8423 8.4342 15.0228C8.54406 15.3682 8.66219 15.7041 8.80485 16.0439C8.64177 16.0414 8.4813 16.0364 8.31883 16.0263C8.14747 15.284 7.4979 15.2294 8.23757 14.6421C7.5479 14.2876 7.64997 14.418 7.2107 14.8169C7.13242 14.8913 7.06068 14.8848 7.02719 14.8526C6.89753 14.9433 6.526 15.2616 6.465 15.2797C6.41628 15.2925 6.37519 15.2956 6.3419 15.2912C5.99213 15.2342 6.50783 14.5763 6.8357 14.5066C6.79489 14.4082 6.77182 14.3285 6.76477 14.2991C6.72548 14.1202 7.16696 14.2616 7.19042 14.0861C7.19249 14.0306 6.92901 13.6578 7.04816 13.5987C7.41294 13.4137 7.52616 13.5247 7.53649 13.5121C7.55572 13.5002 7.41397 13.3653 7.48318 12.695C6.73936 12.8319 7.10026 13.4349 6.30337 13.5329C5.41572 13.5842 6.40084 12.8399 5.36743 12.9615C5.52732 12.8878 5.66424 12.8432 5.84976 12.7745C5.28066 12.1184 6.17021 12.0014 6.34461 11.7957C6.66301 11.4074 6.76239 9.4878 5.90275 11.189C5.8332 10.9278 5.81558 10.6513 5.7749 10.3821C7.06869 10.4555 6.83869 10.539 6.95416 9.89769C6.97967 9.76337 7.0207 9.59959 7.09606 9.40789C7.19631 9.15427 7.87905 9.23009 7.14116 8.81222C7.90593 9.01554 7.61632 8.25306 7.735 8.23424C8.41809 8.14008 8.91591 9.51597 7.51066 9.5442C7.89058 9.8295 7.55505 9.8216 7.40108 9.96289C7.35552 10.0038 7.32651 10.0569 7.33907 10.1307C7.42286 10.5982 7.55575 10.647 6.99883 11.1403C7.70025 11.6567 7.50269 9.2222 8.35448 10.7641C8.52321 11.0345 8.67088 11.5389 8.88402 11.9699C8.98953 12.1847 9.1089 12.3676 9.23283 12.4995C9.37227 12.6548 9.43215 12.6536 9.7743 13.0623C9.47079 12.5477 9.09052 12.2519 8.89435 12.1148C8.68725 11.9731 8.61679 11.9396 8.62125 11.9153C8.6365 11.8765 8.91278 11.8841 9.24148 11.8652C9.91916 11.835 10.8385 11.7564 11.7871 11.7006C12.1086 11.6256 12.1219 11.5672 12.5973 11.3485C13.0375 11.1323 13.6597 10.8197 14.0592 10.6312C14.3439 10.4957 14.6359 10.3614 14.9266 10.2338C15.1501 10.0928 15.3935 9.89024 15.5943 9.67209C15.7895 9.46559 15.9714 9.19007 15.9471 9.16061C15.5112 9.78101 15.3745 10.3622 15.3275 10.6777C15.2815 11.0051 15.2985 11.138 15.2943 11.183C15.2935 11.2616 15.2354 11.0337 15.1042 10.7355C15.3749 11.4294 15.8801 12.048 16.2826 12.3797C16.6924 12.7236 16.9831 12.8559 17.1573 12.9339C17.504 13.0738 17.4694 13.027 17.3411 13.008C17.3018 12.996 16.8105 12.951 16.195 12.8389C15.6007 12.7246 15.035 12.5251 15.3289 12.0911C15.4154 11.9638 16.5963 11.6621 15.5988 10.9539C15.7992 11.3612 15.1942 11.6141 15.1413 11.6573C14.2564 12.3741 14.4161 12.6908 13.7686 12.8142C13.8432 12.8308 13.9523 12.8527 14.2836 12.8017C14.5767 12.7526 15.3674 12.5759 16.1785 11.8731ZM9.6718 14.0158C9.51217 11.0895 9.19114 13.2875 7.8099 12.7975C7.84364 13.203 7.88701 13.6012 7.93986 14.0003C8.00682 13.8846 8.07434 13.77 8.14281 13.6556C8.14275 13.6552 8.14269 13.6548 8.14264 13.6543C8.65158 13.7864 9.16171 13.9081 9.6718 14.0158ZM9.20946 11.1037C9.02876 11.1119 8.85278 11.1385 8.68859 11.1853C8.71052 11.1214 8.76163 11.1448 8.86397 11.2077C9.09252 11.5032 9.49095 11.8793 9.97547 12.1244C9.70496 11.8469 9.50266 11.5283 9.39509 11.2444C9.30779 11.1535 9.23328 11.0644 9.16885 10.9789C9.10707 10.9028 9.13354 10.9187 9.20946 11.1037ZM4.35004 15.5278C4.49808 14.7645 3.71902 15.1686 3.79628 14.2198C3.22483 14.513 2.6823 14.8425 2.14258 15.1912C2.52731 15.9073 2.83233 15.9735 3.09271 16.7269C3.22127 16.5456 3.35191 16.3633 3.48692 16.1862C3.38669 16.099 3.2769 16.0017 3.18265 15.9036C3.60318 15.4961 4.22925 16.4342 4.35224 15.5291C4.35151 15.5287 4.35078 15.5282 4.35004 15.5278ZM3.24077 9.52634C3.25743 9.48732 3.28065 9.4324 3.30826 9.36581C3.47304 8.96424 3.84532 8.12741 3.66596 7.9322C2.88724 7.16967 2.80944 10.7089 2.49829 8.02911C2.37348 8.0151 2.25631 7.97745 2.13534 7.95151C2.00945 8.36257 1.90831 8.75997 1.82064 9.14879C1.80459 9.22171 1.7891 9.29433 1.77418 9.36668C2.26615 9.40609 2.74617 9.48755 3.24077 9.52634ZM16.227 5.05836C16.4446 5.09901 17.0721 5.03412 17.6251 4.91643C18.1685 4.79601 18.6503 4.62228 18.2717 4.28613C18.0226 4.0808 16.9364 4.8069 16.5985 4.76399C16.3684 4.73253 16.6414 4.29875 16.1787 4.44656C16.1932 4.64209 16.1993 4.85859 16.2283 5.05709C16.2279 5.05751 16.2275 5.05793 16.227 5.05836ZM15.3903 7.61605C15.8084 7.54214 16.2353 7.45233 16.6634 7.3893C16.3749 6.86881 15.751 7.17801 15.727 6.46891C15.8487 6.41741 15.9625 6.36652 16.0859 6.31615C16.1743 6.47377 16.2552 6.63165 16.3406 6.78992C16.728 6.42112 16.5075 6.21335 17.216 6.36991C16.8644 5.27428 16.7441 4.67874 15.5193 5.74148C15.7595 5.16407 15.5575 3.26163 14.8758 4.61389C14.7509 4.86479 15.2699 5.03495 15.276 5.07559C15.3509 5.57395 15.0617 5.88937 15.144 6.36022C15.1814 6.57292 15.4897 6.57283 15.5327 6.86899C15.5513 7.01312 15.2544 7.42057 15.3903 7.61605ZM14.554 5.0885C14.6886 4.78674 14.2241 4.07186 13.8301 4.22123C13.7546 4.24962 13.7027 4.2847 13.6709 4.32424C13.5554 4.39804 13.577 4.4853 13.6738 4.57393C13.8246 4.83312 14.3157 5.1107 14.554 5.0885ZM9.21046 11.1046C9.21013 11.1043 9.20979 11.104 9.20946 11.1037C9.21014 11.1037 9.21082 11.1036 9.21151 11.1036C9.21116 11.1039 9.21081 11.1043 9.21046 11.1046ZM2.76279 11.091C2.51267 10.7016 2.59808 10.1442 2.18931 10.1504C2.28582 9.96879 2.38342 9.79772 2.4855 9.6244C2.36369 9.61108 2.2414 9.59952 2.12083 9.58646C1.97721 10.1293 1.85676 10.6978 1.77498 11.3008C2.10325 11.2284 2.43318 11.166 2.76279 11.091ZM4.57566 5.2279C5.17329 4.49257 4.25466 4.79178 4.17199 4.4573C4.079 4.09001 5.06498 3.4584 4.73599 3.26008C4.08769 3.77162 3.6243 4.36782 3.29493 4.89809C3.73885 4.96889 4.15752 5.10457 4.57669 5.22639C4.57635 5.22689 4.576 5.2274 4.57566 5.2279ZM22.9899 13.2287C22.9044 13.5146 22.7549 13.5922 22.6724 13.7477C22.576 13.9188 22.6068 14.1084 22.58 14.9497C22.5804 14.9485 22.5808 14.9474 22.5812 14.9462C23.4383 13.5511 23.6317 12.2024 23.2667 11.3453C22.8444 11.9176 23.2411 12.3375 22.9899 13.2287ZM5.09379 18.2736C5.51664 18.2153 4.65984 17.4969 4.1221 16.7327C4.06756 16.6822 3.99627 16.6444 3.91933 16.6455C3.62677 16.6413 3.54456 16.8827 3.57911 17.0853C3.90662 17.7846 4.68208 18.3371 5.09379 18.2736ZM8.75106 8.56536C9.38885 8.84835 10.0837 8.1368 10.3143 8.74254C10.3422 8.95604 10.062 9.3609 9.87931 9.46125C9.69862 9.57973 9.66932 9.56237 9.71222 9.53203C9.81571 9.50339 9.92709 9.4604 10.0301 9.40311C10.0865 9.37237 9.84512 9.27188 9.67718 9.14954C9.623 9.05578 9.58105 8.95587 9.60357 8.86725C9.60571 8.8613 9.62123 8.85696 9.64983 8.85096C9.78026 8.83053 10.011 8.79278 10.0735 8.68409C10.1621 8.53169 10.0273 8.20845 10.1796 8.05421C10.4516 7.78338 11.1445 8.1826 11.3392 7.84775C11.3666 7.80228 10.922 7.38722 10.8944 7.37277C10.4478 7.13661 10.0911 7.7553 10.0269 7.76487C9.69521 7.81492 9.7016 7.35493 9.60758 7.25545C9.57297 7.21905 9.53543 7.19833 9.49753 7.18844C9.30193 7.14651 9.07295 7.33839 9.0507 7.33695C8.786 7.29806 8.73009 7.25243 8.86404 7.13841C8.9938 7.03021 9.25399 6.94678 9.47189 6.90859C9.66517 6.86586 9.86304 6.82509 9.91626 6.75874C10.3054 6.27807 9.86274 5.89669 10.8912 5.56232C10.9883 5.53065 12.2009 5.4713 10.6396 5.07104C13.0446 4.04004 10.4711 4.33603 9.26683 4.6702C8.66673 4.74368 7.67751 5.13588 7.27017 5.5277C6.79556 5.97148 7.03834 5.97151 7.29089 5.93929C7.55167 5.91479 7.81447 5.93014 7.63032 6.18421C7.37663 6.53516 7.11157 7.05926 7.0624 7.47169C6.98571 8.28776 7.29376 8.80238 7.71353 8.68122C8.35231 8.5252 8.45499 8.32612 8.54479 8.051C8.61293 7.70997 9.04475 7.32818 9.33194 7.41439C9.32792 7.70849 9.35524 7.99044 9.37781 8.27733C9.38655 8.05596 9.03403 7.9009 8.83996 8.16635C8.71357 8.33988 8.71709 8.55484 8.74845 8.56553C8.74932 8.56547 8.75019 8.56541 8.75106 8.56536ZM15.5716 6.08293C16.2249 6.56134 16.3044 5.72294 16.8901 6.3238C17.6586 5.71529 16.4286 5.50894 16.2965 5.4623C15.6896 5.189 15.772 4.37417 15.0898 4.57588C15.2834 5.07514 15.422 5.57894 15.5716 6.08293ZM9.67198 5.86396C9.99536 5.48422 9.52934 5.46834 9.33657 5.43147C9.25443 5.42702 9.19163 5.42324 9.17833 5.41018C8.99789 5.25166 9.08345 5.09754 9.29579 4.98629C9.64069 4.61498 10.8688 4.81198 9.67198 5.86396ZM18.8332 7.02325C19.0758 7.11282 19.0111 6.67453 19.2873 6.62731C19.4259 6.6047 19.6967 6.75024 19.947 6.91894C20.1979 7.08231 20.4264 7.28651 20.4918 7.17794C20.5595 7.05516 20.1778 6.54171 20.0132 6.25472C19.9342 6.10524 19.9048 5.98416 20.0327 5.94201C20.1633 5.9151 20.4294 5.8889 21.1012 6.31602C21.0959 6.13549 21.1862 6.07013 21.2149 5.93278C20.4345 5.40512 19.854 5.25604 19.3487 5.11925C19.5296 5.58509 19.6919 6.08567 19.8004 6.55749C19.4179 6.75683 19.4235 6.32865 19.4035 6.32111C19.4034 6.32152 19.4033 6.32194 19.4031 6.32236C18.8955 6.20771 18.3011 6.84957 18.8332 7.02325ZM16.3495 18.1184C16.3557 17.0988 15.7548 18.2809 15.4038 18.3836C15.0802 18.4987 14.6999 18.0669 14.807 18.5226C15.3078 18.909 16.3793 18.2435 16.3494 18.1171C16.3494 18.1175 16.3494 18.118 16.3495 18.1184ZM19.5943 7.38277C19.7671 7.43917 19.907 7.48091 20.0245 7.51517C20.3804 7.60562 20.5464 7.56267 20.8647 8.31888C21.0352 8.13658 21.2058 7.94641 21.3656 7.7583C20.9196 7.22902 20.5509 7.48056 20.2255 7.28223C20.1038 7.20695 19.9761 7.08835 19.8311 6.90303C19.7273 6.78039 20.3391 6.47802 19.6152 6.25139C19.6441 6.61962 19.6335 7.0161 19.5943 7.38277ZM22.418 10.651C22.4078 10.5699 22.3632 10.4945 22.296 10.4271C21.8095 9.48208 20.6248 9.59545 21.0985 10.5008C21.1407 10.5736 21.2033 10.6573 21.2898 10.7533C21.4347 10.9129 22.4766 11.1166 22.418 10.651ZM12.6227 6.99724C13.0388 6.83673 13.1967 6.83871 13.2386 6.79786C13.2783 6.7658 13.1936 6.72879 13.0274 6.70756C12.8628 6.68659 12.6001 6.69077 12.3179 6.76601C12.0341 6.83799 11.7682 6.97941 11.6226 7.02358C11.9685 6.61167 12.4518 6.37984 12.7199 6.29027C13.0043 6.1927 13.1761 6.16576 13.2853 6.14297C13.4982 6.10437 13.4714 6.09633 13.3029 6.09151C13.1324 6.09312 12.8039 6.08897 12.32 6.23738C11.8373 6.35891 11.2466 6.84113 11.0424 6.92876C10.7036 7.17747 10.4671 7.34811 10.2556 7.34854C10.2055 8.10291 10.6954 8.94075 11.1182 8.19071C11.331 7.86806 11.0103 7.86475 11.0179 7.84509C11.1829 7.5702 11.3932 7.44352 11.5889 7.37423C11.8204 7.36739 12.0785 7.24344 12.6227 6.99724ZM14.3548 6.05297C14.3983 6.03946 14.3418 5.69283 14.4828 5.62916C14.6248 5.56549 14.9276 5.8235 14.9718 5.61517C15.0187 5.40305 14.3793 5.20533 14.1816 5.35848C13.9839 5.51105 13.9686 6.17433 14.3548 6.05297ZM18.5085 7.76907C19.1952 7.86024 18.8319 6.21671 18.6224 6.1602C17.3522 5.75478 18.8088 7.41395 18.5085 7.76907ZM13.2975 9.98908C12.8189 8.87706 11.5609 9.32776 10.8378 10.2554C10.9682 10.3787 11.1007 10.4984 11.2334 10.6115C10.4322 10.0818 9.61946 9.05098 10.3089 11.2051C10.5006 10.0689 10.7223 11.025 10.7703 11.0239C12.2718 11.1196 11.6364 9.58279 13.2975 9.99002C13.2975 9.98971 13.2975 9.9894 13.2975 9.98908ZM12.5309 5.69843C11.9385 5.71805 10.4829 6.09184 11.2184 6.70265C11.6431 6.3615 12.0773 6.02542 12.5309 5.69843ZM13.6099 14.7474C13.1118 14.5184 12.8347 14.6045 12.4323 14.6864C12.8892 15.1732 12.6685 15.2746 12.5344 15.4295C12.3372 15.6623 12.879 15.5681 12.8879 15.5978C12.9834 16.1062 12.6095 16.2912 13.4806 16.0662C13.3157 16.3012 13.1338 16.5318 12.9253 16.7506C13.658 16.638 13.9105 16.8959 14.5154 17.1329C13.736 16.3212 14.5426 16.7288 14.8295 16.0592C14.9656 15.7297 13.8449 14.8762 13.6084 14.7479C13.6089 14.7477 13.6094 14.7476 13.6099 14.7474ZM13.6747 9.15895C13.5237 9.04256 13.3184 8.89389 13.1711 8.73395C13.1764 8.71198 13.1821 8.69204 13.1861 8.67607C13.2288 8.60448 13.2441 8.57087 13.253 8.54546C13.3671 8.66133 13.4811 8.78772 13.579 8.90967C13.5662 8.9796 13.4534 8.77989 13.4374 8.76553C13.4379 8.76628 13.4383 8.76702 13.4388 8.76777C13.332 8.64441 13.5565 8.51423 13.7195 8.54969C13.9789 8.57655 14.2107 8.70889 14.5165 8.96509C14.515 8.46695 14.5136 7.96881 14.5121 7.47067C14.3726 7.51858 14.2405 7.56565 14.1021 7.61297C14.0307 7.88121 13.963 8.14966 13.8934 8.41803C13.8347 8.36371 13.7757 8.30958 13.7161 8.25553C13.6364 8.16406 13.5521 8.07609 13.4596 7.99405C13.3665 8.10168 13.2862 8.22738 13.2737 8.33343C12.9309 7.86695 12.8088 7.71755 13.0143 7.57781C13.2029 7.45022 13.533 7.49222 13.7067 7.43356C13.7846 7.40552 13.8348 7.35025 13.8361 7.24357C13.8369 7.17398 13.787 7.1185 13.7026 7.07612C13.5293 7.00164 13.2026 6.96813 12.8267 7.10164C12.4397 7.22315 12.1195 7.61579 12.0839 7.77769C12.0471 7.86277 12.034 7.93561 12.043 7.98326C12.0724 8.01794 13.0668 8.34796 12.3745 8.4813C12.3194 8.49916 11.7797 8.27554 11.4137 8.26142C11.0546 8.22934 10.8536 8.47274 11.6662 8.99173C11.8977 9.13216 13.328 9.13068 13.6747 9.15895ZM16.8834 9.91702C16.5647 9.17977 17.0652 9.22346 17.4835 9.3217C17.8895 9.41913 18.2208 9.56485 17.767 8.89841C18.1777 8.29152 18.1527 8.29393 17.858 7.6641C17.8306 7.60721 18.1136 7.46236 18.096 7.43726C17.7809 7.06411 17.33 7.20007 17.3727 6.61495C17.2728 6.63819 17.1762 6.65904 17.0761 6.68378C17.4435 7.26357 16.7743 7.58808 16.5241 8.04661C16.4075 8.25293 16.6511 8.32923 16.5524 8.50986C16.5159 8.57519 16.1809 8.42741 16.1619 8.62101C16.1184 9.05806 16.3143 9.65449 16.6314 9.99437C16.6314 9.9948 16.6313 9.99524 16.6313 9.99567C16.7162 9.97141 16.801 9.94157 16.8834 9.91702ZM17.4176 14.5818C17.7995 15.2762 18.4756 15.2657 17.577 16.023C17.6788 16.1537 17.786 16.2804 17.895 16.4069C18.0799 16.3248 18.2532 16.2385 18.4319 16.1428C17.9079 13.832 19.9651 15.5996 18.595 14.5169C18.4452 14.3995 18.2247 14.7604 18.294 14.1524C18.2933 14.1523 18.2927 14.1522 18.292 14.152C17.9392 14.5322 17.9709 14.8253 17.4176 14.5818ZM14.1672 15.2095C14.1485 15.2223 14.1301 15.2349 14.1122 15.2473C13.4987 15.6431 13.5131 15.9405 13.7929 16.1394C14.3326 16.5444 15.6394 16.2649 15.2913 15.9486C15.2616 15.9546 13.7833 15.9685 14.1672 15.2095ZM18.025 10.6704C18.002 10.6658 18.8958 10.5703 19.2112 10.4863C19.5312 10.3836 19.1267 10.1896 19.1565 10.1539C19.2535 9.96259 19.4782 10.183 19.6093 9.91398C19.6308 9.86879 19.6006 9.58649 19.487 9.31478C19.379 9.04311 19.2134 8.79673 19.1829 8.79465C18.8433 8.77681 18.6188 9.57754 18.5021 9.58654C18.3997 9.60572 18.3343 9.57843 18.2808 9.53579C18.1837 9.45909 18.1305 9.29576 17.9489 9.50631C17.5475 9.99413 17.8733 9.80839 18.1118 9.73158C18.2043 9.71375 18.2807 9.70154 18.299 9.71328C18.5086 9.85565 18.1534 10.1767 18.1642 10.3323C18.1644 10.4806 18.3256 10.4341 18.3279 10.5092C18.3264 10.5312 18.0254 10.6644 18.025 10.6704ZM20.0005 11.7703C19.2957 11.1996 18.6124 12.679 18.7383 12.7719C18.9581 12.998 19.3706 12.8961 19.6779 12.6132C19.9855 12.3371 20.17 11.9126 20.0005 11.7703ZM15.0102 7.69616C14.4383 8.18809 15.7627 8.59184 16.1385 8.41003C16.0779 8.20013 15.2141 7.52472 15.0102 7.69616ZM13.2715 10.2873C13.1531 9.8111 11.9858 10.3534 12.0051 10.8238C12.7373 11.0784 12.5886 10.8385 12.6259 10.5683C12.6657 10.3027 13.3735 10.6532 13.2715 10.2873ZM13.9762 8.64485C14.0732 8.63808 15.8751 8.16205 14.8753 7.83654C14.7977 7.80155 13.5229 7.87545 13.4291 7.99798C13.2398 8.22734 13.7007 8.60615 13.9762 8.64485ZM14.4298 12.4867C13.7735 12.3091 13.76 12.0437 13.0417 12.3535C13.0418 12.3539 13.0418 12.3542 13.0418 12.3546C12.7552 11.693 14.2819 11.5827 14.2412 11.4558C14.1102 10.9972 13.0437 11.4807 12.6797 11.1787C13.039 11.906 12.303 11.7286 12.3023 12.3179C12.3022 12.4526 12.7927 12.9241 13.0726 12.9604C13.351 12.9976 14.127 12.6448 14.4298 12.4867ZM11.4807 8.87991C12.0936 9.08134 12.6041 8.03097 11.7417 7.91507C11.3161 7.86131 11.102 8.75914 11.4807 8.87991ZM6.94975 9.21051C6.66972 9.24216 6.38997 9.28282 6.11088 9.33325C6.08401 9.10675 6.06069 8.87951 6.04418 8.65192C6.0891 8.83906 6.13727 9.02424 6.18871 9.20936C6.3572 8.8217 6.87199 8.76859 6.94994 9.20952C6.94988 9.20985 6.94982 9.21018 6.94975 9.21051ZM17.9636 8.35998C18.0319 8.64975 18.5699 7.99482 18.565 7.92693C18.4378 7.37737 17.8419 7.94901 17.9636 8.35998ZM15.8068 10.1423C16.4662 10.2733 16.0577 8.95445 15.6263 8.85739C15.8811 9.1116 15.4231 10.0707 15.8068 10.1423ZM12.9928 7.13258C12.9493 7.01328 12.907 6.89433 12.8532 6.77401C13.0429 6.95654 13.0622 7.06609 12.9928 7.13258ZM14.2163 9.80256C14.3149 9.9018 14.9992 10.0256 15.0976 9.91515C15.3208 9.67477 14.831 8.90374 14.4697 9.11209C14.4288 9.13339 14.1213 9.69921 14.2178 9.80261C14.2173 9.80259 14.2168 9.80257 14.2163 9.80256ZM7.62039 8.53983C7.60813 8.53731 7.59683 8.53353 7.58678 8.52881C7.59778 8.53263 7.60939 8.53579 7.62039 8.53983ZM19.4919 14.6321C19.4993 14.6512 19.5052 14.6705 19.5088 14.6894C19.5036 14.6712 19.497 14.6523 19.4919 14.6321ZM16.819 11.4572C16.3268 11.8391 16.1104 11.7849 16.1401 11.6503C16.1652 11.5062 16.4662 11.4008 16.7893 11.3525C16.8256 11.3537 16.8174 11.4611 16.819 11.4572Z" fill="var(--stroke-0, #F3A632)"/>
</svg>
