<svg preserveAspectRatio="none" width="100%" height="100%" overflow="visible" style="display: block;" viewBox="0 0 50.6316 27.0044" fill="none" xmlns="http://www.w3.org/2000/svg">
<path id="Vector 88" d="M37.7952 26.6555C37.0075 26.7273 36.2507 26.7975 35.481 26.8893C32.2956 27.2294 29.3165 26.7542 26.5342 26.27C25.6671 26.1135 24.8065 25.9763 23.9295 25.831C23.3968 25.7422 23.4524 25.6065 23.3043 25.5654C22.8979 25.4518 22.6199 25.5772 22.3156 25.5147C20.8325 25.2117 19.4423 24.8867 18.0333 24.4779C17.7118 24.3847 17.5071 24.2996 17.3652 24.2195C16.8523 23.9288 17.2738 23.7461 16.8921 23.5516C15.9476 23.0504 16.6365 23.8578 16.1997 23.8596C15.041 23.4653 13.9325 22.9547 12.9131 22.4952C13.187 22.5423 13.4656 22.5945 13.7497 22.651C13.2836 22.4573 12.6623 22.1232 13.4871 22.2802C13.3306 22.1752 13.1884 22.0684 13.0288 21.9644C12.9031 22.138 12.1028 21.8631 11.996 21.9626C11.8853 22.0551 12.3296 22.1793 12.3247 22.1904C12.2618 22.2834 11.3767 21.8867 10.8605 21.721C10.6766 21.6558 10.5242 21.6138 10.492 21.604C10.1848 21.5177 10.4956 21.2936 10.2126 21.2798C9.70463 21.271 10.0413 21.8126 9.35284 21.0932C9.064 21.32 9.04193 21.2013 8.66814 21.1936C8.61886 21.1929 8.66045 21.324 8.63891 21.328C8.0745 21.4431 8.50261 21.1842 8.50017 21.1709C8.44292 20.9454 7.82475 21.0697 7.69051 21.0543C7.23331 21 6.80379 20.9515 6.38674 20.9046C5.3191 20.7837 4.32713 20.7335 3.09351 20.9036C2.84681 20.9377 2.27576 21.0953 1.84945 21.2498C1.66394 21.3159 1.51294 21.3936 1.41807 21.4323C1.13323 21.5586 1.18767 21.3356 0.996775 21.3708C0.993522 21.6471 0.957711 21.8196 0.794675 21.9769L0.897938 21.8462C0.837406 21.9673 0.71428 22.1095 0.533286 22.3436C0.752961 22.6416 0.528899 22.5487 0.508853 23.0152C0.507005 23.0783 0.51254 23.1502 0.522166 23.2278L0.524438 23.2065C0.585009 23.5808 0.831412 24.0258 0.640143 24.4231C0.607967 23.9346 0.459598 24.0015 0.366938 23.473C0.361908 23.4375 0.358899 23.3366 0.364912 23.1929L0.363362 23.2074C0.389739 22.7493 0.546229 21.9745 0.597945 21.6805L0.564004 21.7234C0.60696 21.6354 0.611519 21.5734 0.555695 21.5512C0.523299 21.5385 0.480628 21.5511 0.433288 21.5798C0.27749 21.7554 0.22621 22.195 0.20321 22.2066C0.00689524 22.3139 -0.100527 21.8765 0.131655 21.5625C0.120404 21.6602 0.109475 21.7722 0.108055 21.8713C0.237356 21.6882 0.274929 21.5812 0.270059 21.4994C0.277416 21.4872 0.301005 21.4556 0.311886 21.4464C0.358935 21.2557 0.0659324 21.1395 0.707175 21.2545C0.814465 21.2779 0.847378 21.3623 0.988409 21.3698C0.985778 21.3258 0.820248 21.3333 0.906728 21.2497C0.998692 21.1602 1.28081 21.1947 1.23974 21.0521C1.18183 20.8306 0.773462 21.1871 0.743933 21.2074C0.744383 21.2087 0.744833 21.21 0.745283 21.2113C0.394828 21.3374 0.978658 20.8764 1.01475 20.8527C1.16212 20.6209 0.954663 20.6022 1.27112 20.3407C1.32624 20.298 1.41532 20.2532 1.5197 20.2146C1.73875 20.131 2.02446 20.0704 2.14861 20.026C2.32472 19.9621 2.01879 19.9323 2.13589 19.8815C2.25416 19.8304 2.42319 19.871 2.56107 19.817C2.6201 19.7936 2.59485 19.6839 2.62413 19.674C2.93712 19.5696 2.77013 19.839 3.05483 19.774C3.23698 19.7304 3.83543 19.4263 3.39164 19.4238C3.59809 19.3705 3.80028 19.3274 4.00639 19.2857C3.87118 19.2676 3.73235 19.262 3.59782 19.2405C3.99869 19.2414 4.15425 19.0324 4.40104 18.9933C4.648 18.9551 4.88617 19.1674 5.14696 19.0361C5.70839 18.7557 4.28454 18.9687 4.09856 18.9564C4.02632 18.9472 4.2767 18.738 4.31827 18.7291C4.50137 18.688 4.73028 18.7983 4.87065 18.7816C5.37334 18.7216 5.67271 18.5347 6.15218 18.4817C6.20412 18.4761 6.25654 18.4706 6.30871 18.4652C7.77452 18.3311 9.67027 17.9845 11.5824 18.3528C11.593 18.355 11.6035 18.3571 11.6139 18.3594C12.2463 18.4964 12.5388 18.7912 12.7974 18.8674C13.4044 19.0555 13.5297 18.9276 14.0283 19.1041C14.7677 19.3704 15.6612 19.8814 16.2086 20.1067C16.5878 20.2656 16.9857 20.2246 17.0855 20.2524C17.4803 20.3623 17.8936 20.4723 18.3162 20.5741C19.4619 20.8532 20.6246 21.1219 21.498 21.2921C22.0687 21.4038 22.3098 21.6292 22.4311 21.6455C22.9484 21.7119 22.8357 21.5344 23.2512 21.6178C23.476 21.662 23.4966 21.8162 23.5259 21.8267C23.7881 21.917 23.8714 21.7319 24.084 21.7572C25.1223 21.8792 26.1571 22.113 27.2119 22.335C27.392 22.373 27.5739 22.4095 27.7558 22.4427C27.8424 22.4587 27.8206 22.5428 27.8778 22.5478C28.1229 22.5666 28.0332 22.414 28.2863 22.4449C28.8135 22.5082 29.3435 22.6106 29.8894 22.6996C29.9436 22.7084 29.9536 22.822 30.078 22.8378C30.2027 22.8535 30.3095 22.7606 30.5032 22.7891C31.0084 22.8628 31.4958 23.0367 32.0276 23.0791C32.1158 23.0859 32.2323 22.959 32.3627 22.9674C32.7717 22.9955 33.3699 23.1294 33.7133 23.1271C34.1818 23.1262 34.6264 23.0908 35.0454 23.03C35.7586 22.9301 36.4599 22.839 37.1478 22.7778C37.4243 22.7534 37.6737 22.8554 37.8134 22.8451C38.1263 22.8213 37.8809 22.7278 38.1922 22.6957C38.5996 22.6527 38.9867 22.6046 39.3634 22.5417C40.7229 22.315 42.2565 22.1415 43.0136 21.8651C43.9657 21.4878 44.8854 21.2129 45.1468 21.0039C45.2029 20.9643 45.2061 20.943 45.1793 20.9661C45.7569 20.142 46.1087 19.503 46.3963 18.9208C46.5416 18.6279 46.7117 18.6276 46.7918 18.4022C46.9227 17.9967 46.7411 17.8698 46.8021 17.4384C46.8468 17.0951 47.0915 16.6994 47.0826 16.3034C47.0822 16.2829 47.0811 16.2629 47.0796 16.2434C47.0515 15.8171 46.871 15.5938 46.8471 15.0905C46.8266 14.6535 46.91 14.0534 46.8758 13.5989C46.8211 12.8547 46.7377 12.1402 46.6 11.495C46.3492 10.3148 45.9363 9.03357 45.4693 8.30841C45.1059 7.73761 44.1846 6.90776 43.2877 6.08531C42.8949 5.69609 42.155 5.33118 41.2737 4.99412C40.3396 4.63607 39.2259 4.35486 38.1186 4.04314C37.5835 3.89627 37.0976 3.72664 36.6543 3.55602C36.5155 3.50275 36.7792 3.3655 36.3126 3.29547C36.0633 3.26049 35.6937 3.34379 35.1585 3.26187C34.5476 3.16946 33.9348 3.10622 33.2956 3.07537C30.8734 2.97682 28.2866 2.74349 26.141 3.10587C25.5988 3.20706 25.0668 3.31237 24.5412 3.42568C22.1232 3.98412 19.5949 4.60989 17.9234 5.6462C15.3553 7.11954 12.5328 8.41758 10.2776 8.81772C10.2379 8.79649 10.1991 8.57491 10.0325 8.5596C9.8744 8.52878 9.76449 8.40277 9.75707 8.31165C9.90233 8.30385 10.0617 8.32316 10.2261 8.33451C9.97452 7.76046 10.0505 7.88546 10.6018 7.57469C10.946 7.38687 10.5418 7.34176 10.6785 7.16374C10.8482 6.9294 11.8168 6.00373 11.8049 6.48167C11.8369 6.38187 11.8671 6.28677 11.902 6.18749C12.6836 5.6661 13.436 5.14619 14.1947 4.61945C14.3287 4.5268 14.2746 4.41221 14.4097 4.31951C14.7809 4.06558 15.1246 3.98393 15.5229 3.76915C15.7458 3.64954 15.7005 3.5084 15.9975 3.37111C16.2872 3.23769 16.3618 3.41147 16.6523 3.0546C16.6593 3.0463 16.6663 3.03774 16.6735 3.02889C16.6569 3.02492 16.6435 3.02034 16.633 3.01515C16.6066 3.00158 16.5994 2.98425 16.6079 2.96391C16.6671 2.80494 17.6684 2.4892 18.0582 2.35297C18.1212 2.32567 18.609 1.93205 18.9116 1.87832C19.2149 1.81954 19.6875 1.84751 20.1122 1.66888C20.312 1.58479 20.4016 1.38751 20.6221 1.32998C20.7788 1.28926 21.0017 1.39984 21.1963 1.36616C21.3993 1.33046 21.7959 1.1211 21.8738 1.10346C22.1576 1.038 21.864 1.20738 22.0599 1.17372C22.9945 1.01209 24.0746 0.861633 24.9733 0.611049C25.0853 0.580091 24.9034 0.485604 24.9178 0.478447C25.6461 0.175999 25.273 0.418674 25.5014 0.490387C25.5277 0.498532 25.5714 0.500831 25.6285 0.498081C26.0899 0.455936 27.2951 0.257122 27.2886 0.0673224C27.3597 0.339483 27.6878 0.100496 27.777 0.0868506C28.1239 0.032608 28.0685 0.276974 28.3993 0.185465C28.5199 0.152541 28.274 0.0016619 28.4059 3.92199e-05C28.7341 -0.00359356 29.0351 0.24663 29.4629 0.263051C29.5668 0.267243 29.5978 0.150091 29.7819 0.151012C29.9666 0.150747 30.7349 0.289134 30.3802 0.0456711C30.8473 0.240455 30.939 0.132538 31.48 0.142094C31.6162 0.145009 31.7896 0.334176 32.081 0.28045C32.1793 0.262255 32.1784 0.0814682 32.3268 0.0825452C32.654 0.0845612 32.9596 0.2667 33.3669 0.294616C33.3807 0.295524 33.3945 0.296291 33.4084 0.296907C34.2448 0.332726 35.1702 0.296843 36.0301 0.511002C36.2619 0.569543 36.1688 0.734932 36.5015 0.810113C36.55 0.819944 36.9861 0.758416 37.207 0.828887C37.344 0.870736 38.0011 1.15216 38.1315 1.19295C38.3515 1.26189 38.4312 1.09991 38.5433 1.16161C38.6848 1.23897 38.7006 1.31759 38.7151 1.36171C38.7358 1.41897 38.7545 1.41749 39.0475 1.2798C39.1478 1.50369 39.4146 1.54616 39.4393 1.80049C39.6542 1.57984 39.7883 1.87359 40.0994 1.86134C40.4135 1.84979 40.7891 1.42092 40.7139 1.97213C40.869 1.94334 41.4795 2.00098 41.5841 2.02612C41.8797 2.09296 41.6829 2.19126 41.9038 2.24028C41.9429 2.2496 41.9385 2.13724 42.1799 2.22887C42.3412 2.27636 43.5333 2.75192 43.5971 2.81635C44.3355 3.35665 43.112 2.69302 42.8993 2.75164C42.88 2.71205 42.8605 2.6724 42.8379 2.63213C42.4999 2.45052 42.6212 2.74806 42.7584 2.85993C42.8944 2.97053 43.2327 2.99886 43.3315 3.12988C43.3806 3.1954 43.2207 3.43094 43.0457 3.3175C43.2133 3.48566 42.9008 3.4495 42.9482 3.5594C43.0093 3.66813 43.8482 4.13116 43.9279 4.01692C43.7745 3.91573 43.5706 3.81055 43.4071 3.72258C43.2808 3.3676 44.4559 2.86464 44.9113 3.68759C45.1233 4.13158 44.6479 3.96323 44.9817 4.19409C45.0645 4.25255 45.2012 4.33724 45.4197 4.46925C45.2932 4.34078 45.1968 4.22051 45.0834 4.10368C45.206 3.94113 45.2535 4.28311 45.3985 4.32666C45.4686 4.3472 45.2631 3.96962 45.5567 4.16898C45.588 4.58812 45.9569 4.52463 46.3397 4.87879C46.1988 4.81712 46.0584 4.7572 45.9182 4.69886C46.411 5.44031 44.8924 4.1312 46.0412 5.3571C45.8883 5.22471 45.743 5.08669 45.5844 4.96099C45.5846 5.10552 45.2586 5.23082 45.2782 5.33829C45.3283 5.61893 45.6438 5.76963 45.8294 5.97263C45.9105 6.06114 45.7982 6.0692 45.8051 6.07665C45.9144 6.19794 45.9763 6.08501 46.0829 6.18183C46.2211 6.30343 46.4774 6.76729 46.5357 6.8225C46.6994 6.96611 46.6584 6.53317 46.6828 6.53596C46.8672 6.56628 46.9706 6.8581 47.0837 6.75313C46.5926 6.23592 45.1934 4.74708 46.7002 5.86895C46.5178 5.32784 46.8606 5.16048 47.4235 5.73859C47.8793 6.24006 47.4934 5.99526 47.5918 6.36351C47.5979 6.38768 47.728 6.59591 47.8545 6.81156C47.9758 7.01607 48.0891 7.21323 48.1464 7.20852C47.914 7.29597 47.8428 7.63739 47.5336 7.59274C47.4901 7.58536 47.3426 7.29032 47.2202 7.49163C47.1593 7.59183 47.0338 7.83349 46.9056 7.87179C47.0149 7.88394 47.136 7.89614 47.2504 7.91369C47.4766 8.32925 47.4058 8.43855 47.3398 8.73591C47.4024 8.70167 47.5952 8.36684 47.6399 8.74401C47.641 8.76359 47.5474 8.81583 47.5578 9.00759C47.5768 9.39702 47.5631 9.47423 47.1794 9.30592C47.5771 9.97224 47.2804 10.2275 47.5444 10.9587C47.9068 10.7273 47.7598 10.463 47.493 9.79314C47.5769 9.73691 47.6643 9.69647 47.7485 9.63819C47.7935 10.634 47.6876 10.157 48.0046 10.6522C48.0542 10.7309 48.1109 11.0574 48.199 11.2035C48.248 11.2834 48.3093 11.3106 48.3896 11.2085C48.3963 11.1999 48.4008 11.1852 48.4036 11.1662C48.4241 11.0348 48.3608 10.6974 48.4559 10.7241C48.4696 10.7278 48.5428 10.958 48.5833 11.1335C48.6052 11.2275 48.6183 11.3064 48.6121 11.3247C48.3781 11.9828 48.0369 10.9317 48.3319 12.5717C48.3391 12.6171 48.4578 12.6237 48.481 12.713C48.524 12.8809 48.3881 12.8922 48.4289 13.0418C48.4696 13.191 48.6637 13.3951 48.5029 13.6318C48.2092 14.0583 48.0005 13.0883 48.1238 12.6498C47.748 12.4998 47.8169 15.58 47.8282 15.796C47.9749 16.6558 47.8943 15.2259 48.0043 15.155C48.0514 15.1249 48.6519 15.1372 48.2604 14.7794C48.1444 14.6745 47.9952 15.1183 47.9301 14.8545C47.8645 14.5914 48.0417 14.6943 48.0539 14.675C48.0957 14.6087 48.0263 14.3295 48.0504 14.293C48.4171 13.7256 48.9956 13.7633 48.16 14.5246C48.3559 14.8478 48.6513 14.0951 48.7871 14.4994C48.9516 14.994 48.6764 15.3573 48.6643 15.4191C48.5166 16.1651 48.9187 15.3053 48.7875 16.2175C48.7857 16.2296 48.7839 16.2407 48.782 16.2509C48.7526 16.4073 48.7099 16.3372 48.6683 16.2504C48.6154 16.1398 48.5649 15.9995 48.5494 16.2498C48.5444 16.3284 48.5426 16.4406 48.5395 16.6065C48.4991 17.5458 48.6665 17.057 48.9792 17.1535C49.0508 17.177 49.0853 17.7359 49.1267 16.9852C49.0463 16.9576 48.9412 16.9099 48.8686 16.8582C48.9417 16.6884 49.3621 16.394 49.3763 16.2903C49.3782 16.2777 49.3798 16.2655 49.3812 16.2535C49.4363 15.828 49.2396 15.8415 49.4856 15.5761C49.2097 15.7705 49.3766 15.4535 49.3183 15.3342C49.1025 14.8909 49.0281 15.4749 49.2946 14.4762C49.1673 14.608 49.0416 14.7264 48.9138 14.8522C48.9086 14.7334 48.903 14.6146 48.897 14.4959C49.1799 14.3159 49.1283 13.6769 49.4274 14.2491C49.4948 13.5507 49.4141 13.2649 49.1857 13.1253C49.1419 13.0984 49.1193 12.9952 49.1071 12.8726C49.0465 12.9 48.8566 12.9417 48.8319 12.9241C48.6146 12.7684 48.9497 12.4767 49.0933 12.5555C49.0929 12.4692 49.0943 12.4001 49.0955 12.3758C49.1027 12.2211 49.2529 12.51 49.284 12.382C49.2954 12.3397 49.2234 11.9081 49.2709 11.8935C49.5768 11.7998 49.4642 12.5645 49.4309 11.0683C49.1402 11.086 49.3044 11.7451 48.9699 11.6161C48.6951 11.513 48.8623 11.2324 48.7558 11.102C48.7249 11.0649 48.6706 11.041 48.5755 11.0402C48.6362 10.998 48.6892 10.9752 48.7597 10.9352C48.4729 10.4103 48.7986 10.3327 48.8325 10.1409C48.9094 9.76546 48.4262 8.24516 48.5425 9.69411C48.4601 9.50276 48.3881 9.30452 48.3016 9.11692C48.8645 8.8873 48.7034 9.08149 48.4258 8.0862C48.3599 7.8688 48.5745 7.6854 48.1878 7.61133C48.4926 7.50647 47.998 6.95573 47.9872 6.88242C47.9852 6.35003 49.0913 7.6856 48.6043 8.07444C48.8993 8.23689 48.6323 8.33803 48.7611 8.591C48.9424 8.95879 49.0153 9.00252 48.9415 9.51837C49.3761 9.89825 48.5088 7.69233 49.3217 8.94394C49.5126 9.24826 49.7995 9.93602 50.0453 10.867C50.466 12.4414 50.5648 14.5146 50.6227 16.259C50.7164 18.2779 50.0487 20.1422 49.678 20.8736C49.209 21.8726 48.6212 22.6646 48.2659 23.192C47.4259 24.3084 46.5866 24.5708 46.0034 24.848C45.3997 25.1008 44.9089 25.267 44.4931 25.4467C43.475 25.8459 42.7697 25.937 41.9227 26.0876C41.6918 26.1289 40.4366 26.338 40.0061 26.2804C39.8209 26.2652 39.7455 26.2118 39.8611 26.1027C39.8723 26.0921 39.9126 26.0742 39.9666 26.0508C40.179 25.9476 40.6675 25.7385 39.9897 25.6251C40.0819 25.6902 40.0172 25.7675 39.9289 25.8312C39.8247 25.8978 39.6892 25.9496 39.6689 25.9612C38.7397 26.4739 39.2779 26.5091 37.7952 26.6555ZM33.3576 23.9219C35.139 23.9689 33.8261 23.7645 34.1704 23.2381C33.9539 23.2458 33.7348 23.249 33.5141 23.2481C33.5723 23.2805 33.6299 23.3125 33.6882 23.3443C33.6885 23.3443 33.6887 23.3443 33.689 23.3443C33.5831 23.5378 33.4712 23.7304 33.3576 23.9219ZM2.99761 19.1516C3.06485 19.071 3.13221 18.9909 3.20772 18.9117C3.47911 18.8915 3.74673 18.8775 4.01324 18.8686C3.98694 18.9182 3.96191 18.9683 3.93595 19.018C3.62487 19.0526 3.31279 19.0937 2.99761 19.1516ZM48.0269 12.4037C48.1813 12.0474 47.8511 12.115 47.9432 11.657C47.7039 11.7472 47.4699 11.8389 47.2319 11.9256C47.3092 12.2383 47.412 12.3041 47.3823 12.6665C47.4589 12.6183 47.5357 12.5683 47.6125 12.52C47.5899 12.4616 47.5643 12.3995 47.5432 12.3435C47.7585 12.2256 47.8457 12.8089 48.0276 12.4049C48.0273 12.4045 48.0271 12.4041 48.0269 12.4037ZM47.2058 9.08634C47.1852 8.90701 47.0337 8.21395 46.8942 8.17875C46.4672 8.03693 47.3792 9.69305 46.5707 8.52965C46.5281 8.55515 46.4815 8.56903 46.4369 8.58874C46.5183 8.81566 46.5936 9.05177 46.6636 9.29625C46.8426 9.21974 47.0267 9.1657 47.2058 9.08634ZM39.9566 23.2712C40.2591 23.2504 41.5815 22.8707 41.1056 22.7224C40.9691 22.6795 40.413 23.0895 40.1751 23.1134C40.0215 23.129 40.1653 22.9292 39.8739 23.0412C39.8995 23.1148 39.9214 23.1976 39.9573 23.2706C39.9571 23.2708 39.9568 23.271 39.9566 23.2712ZM39.5812 24.362C39.6114 24.3538 39.6416 24.3453 39.6719 24.3367C39.9328 24.2622 40.1975 24.1847 40.461 24.1128C40.2114 23.951 39.8013 24.1474 39.7298 23.8765C39.8083 23.8418 39.8867 23.8075 39.9658 23.7732C40.0387 23.8232 40.1104 23.8735 40.1818 23.9239C40.415 23.7329 40.2482 23.6831 40.7326 23.6507C40.3805 23.2833 40.292 23.0639 39.5467 23.608C39.541 23.6124 39.5353 23.6168 39.5296 23.6213C39.5347 23.6095 39.5389 23.5967 39.5424 23.5831C39.5766 23.4608 39.5452 23.2726 39.4678 23.1493C39.3753 22.9911 39.2281 22.9355 39.043 23.2496C38.9771 23.3595 39.3197 23.376 39.3259 23.3901C39.4088 23.5756 39.2404 23.7286 39.3243 23.903C39.3625 23.9819 39.5707 23.9472 39.6234 24.0542C39.6236 24.0547 39.6238 24.0552 39.6241 24.0556C39.6261 24.06 39.6267 24.0652 39.6263 24.0712C39.6224 24.1397 39.4806 24.3075 39.5812 24.362ZM38.8602 23.4631C38.9309 23.3341 38.6014 23.0936 38.3467 23.1779C37.9445 23.3092 38.6241 23.5093 38.8602 23.4631ZM2.99589 19.1521C2.99646 19.1519 2.99703 19.1517 2.99761 19.1516C2.99736 19.1519 2.99711 19.1522 2.99686 19.1525C2.99654 19.1523 2.99621 19.1522 2.99589 19.1521ZM47.3436 10.0013C47.1922 9.82511 47.1167 9.52928 46.9698 9.59882C46.9705 9.49472 46.9692 9.38978 46.9675 9.28585C46.922 9.30217 46.8768 9.31938 46.8318 9.33551C46.8973 9.62409 46.9527 9.91789 46.9994 10.2153C47.1147 10.1461 47.2308 10.0785 47.3436 10.0013ZM46.1144 7.10143C45.8854 6.81212 45.9239 7.18953 45.7917 7.19822C45.6639 7.20981 45.5048 6.91449 45.4207 7.04682C45.5647 7.20618 45.7043 7.37121 45.8234 7.52786C45.9188 7.38392 46.0237 7.24767 46.1139 7.10088C46.1141 7.10106 46.1142 7.10125 46.1144 7.10143ZM25.9149 22.8649C26.1857 22.9554 26.0456 23.1007 26.6271 22.9979C26.6267 22.9978 26.6263 22.9977 26.6259 22.9976C26.1259 22.7763 25.464 22.553 24.8736 22.6002C25.1983 22.8257 25.4873 22.724 25.9149 22.8649ZM47.6016 13.3659C47.7397 13.4723 47.8221 12.9413 47.6896 12.8363C47.4786 12.6683 47.3949 13.2046 47.6016 13.3659ZM14.8049 21.5283C14.263 21.7547 14.8524 22.479 15.7333 22.574C15.8082 22.5824 15.3306 22.2777 15.5113 22.2571C15.5289 22.2554 15.8108 22.3643 15.9 22.3345C15.989 22.3049 15.958 22.1555 16.0899 22.1418C16.3213 22.1192 16.7265 22.4353 16.9158 22.3589C16.94 22.3488 16.7082 22.0938 16.6929 22.0815C16.4362 21.8896 16.0872 22.0139 16.0415 21.9999C15.8085 21.9286 15.9038 21.7701 15.8595 21.7099C15.7772 21.5969 15.5604 21.6038 15.549 21.5933C15.26 21.321 16.029 21.6462 16.1563 21.6179C16.4974 21.5464 16.2868 21.3101 16.9951 21.4308C17.0626 21.4424 17.8277 21.6852 16.9192 21.1968C18.9242 21.3609 16.0521 20.6913 15.7137 20.6286C15.5573 20.617 15.7128 20.8571 15.6 20.8981C15.3422 20.9924 14.9916 20.8929 14.9337 21.1375C14.8129 21.6527 15.3837 21.5009 15.6639 21.6937C15.5928 21.7892 15.5428 21.8893 15.4441 21.9721C15.5875 21.8662 14.8436 21.5121 14.8052 21.5273C14.8051 21.5276 14.805 21.528 14.8049 21.5283ZM19.945 22.4149C20.3575 22.6696 20.397 22.3393 20.7665 22.6108C21.1888 22.3952 20.4728 22.2663 20.3946 22.2307C20.0318 22.0741 20.1132 21.7611 19.7094 21.7696C19.7974 21.9865 19.8613 22.1994 19.945 22.4149ZM16.1645 21.2405C16.5043 21.1801 15.9933 21.0073 15.9839 20.9689C15.8728 20.5748 17.3688 21.1503 16.1645 21.2405ZM41.8387 23.6379C41.9938 23.6213 41.8681 23.4812 41.9933 23.4098C42.1184 23.3396 42.5971 23.3799 42.5636 23.2836C42.5276 23.1916 41.67 23.1024 42.465 22.8797C42.4259 22.8308 42.4258 22.7879 42.4022 22.7411C42.1865 22.7869 41.9598 22.8283 41.7326 22.8678C41.8859 23.0044 42.0452 23.1475 42.1959 23.2769C42.0922 23.4285 41.9877 23.2799 41.9814 23.2812C41.9814 23.2813 41.9814 23.2815 41.9815 23.2817C41.7448 23.3393 41.4896 23.6737 41.8387 23.6379ZM29.6893 23.7774C29.5908 24.1697 30.012 23.7724 30.1648 23.7403C30.3184 23.7092 30.5044 23.8799 30.4479 23.6995C30.2238 23.5547 29.7012 23.7342 29.6892 23.7779C29.6893 23.7777 29.6893 23.7775 29.6893 23.7774ZM22.3815 22.9006C22.7768 22.8688 22.7318 22.7559 23.1773 22.9475C23.1744 22.8488 23.1716 22.7479 23.1688 22.6507C22.8027 22.59 22.7824 22.8728 22.3773 22.6887C22.3112 22.6581 22.4988 22.4628 22.1734 22.4788C22.2439 22.6134 22.3129 22.7609 22.3815 22.9006ZM24.3206 22.8398C23.8798 22.7899 23.4149 23.5151 24.2773 23.2843C24.4053 23.2495 24.6532 22.877 24.3206 22.8398ZM37.8007 24.2461C38.5534 24.1973 37.6895 24.1529 37.4823 24.0492C39.2145 23.7894 37.2923 24.1022 37.0758 23.7154C36.8707 23.8483 36.4903 24.1455 36.9449 24.1747C37.1343 24.187 37.0554 24.074 37.0667 24.0735C37.4122 24.0724 37.3885 24.2713 37.8007 24.2461ZM19.1644 22.252C19.1936 22.253 19.1822 22.1108 19.2763 22.1055C19.3701 22.1005 19.5452 22.2394 19.5849 22.1631C19.6219 22.086 19.2428 21.9294 19.1054 21.9583C18.9711 21.9889 18.9019 22.2422 19.1644 22.252ZM21.9192 23.1788C22.3049 23.1489 21.7906 22.549 21.713 22.5358C21.0096 22.4281 21.9629 23.0281 21.9192 23.1788ZM36.1287 25.2518C37.0084 24.9126 36.3089 24.5338 35.7061 24.3308C35.6367 24.392 35.5635 24.4539 35.4955 24.5148C35.793 24.1653 36.3449 23.7907 35.1729 24.1598C35.1394 24.171 35.1042 24.1829 35.0672 24.1953C35.1081 24.1955 35.1446 24.1961 35.1771 24.197C35.7292 24.2085 35.213 24.3435 35.196 24.3645C35.1958 24.3647 35.1957 24.365 35.1957 24.3652C35.1949 24.4105 35.1998 24.4501 35.2096 24.485C35.3333 24.9143 36.226 24.6285 36.1279 25.2518C36.1281 25.2518 36.1284 25.2518 36.1287 25.2518ZM18.0143 21.8157C18.0076 21.814 18.0007 21.8122 17.9936 21.8105C17.6048 21.7205 16.6514 21.5359 17.0195 21.9167C17.3467 21.8908 17.6701 21.8578 17.9916 21.8182C17.9992 21.8174 18.0068 21.8165 18.0143 21.8157ZM48.9728 18.7675C49.2119 18.4759 49.2858 18.1534 49.3438 17.7269C49.0654 18.0714 49.0844 17.8156 49.0516 17.6831C49.0026 17.4816 48.9354 17.9386 48.9179 17.9371C48.7143 17.8876 48.7467 17.6068 48.6143 18.2421C48.5812 18.069 48.5414 17.9011 48.498 17.7347C48.4012 18.2067 48.2344 18.2888 47.9967 18.5249C48.461 18.358 48.1248 18.6546 48.1923 19.0528C48.2245 19.2606 48.8525 18.9258 48.9732 18.7662C48.9731 18.7667 48.9729 18.7671 48.9728 18.7675ZM37.0712 25.2446C37.1586 25.164 37.2354 25.0588 37.3186 24.9683C37.4168 24.9517 37.5156 24.936 37.6134 24.9193C37.6314 24.982 37.6477 25.0478 37.6676 25.1078C37.8001 25.1146 37.7407 25.0304 37.7791 25.0185C37.7791 25.0188 37.7791 25.0192 37.7792 25.0195C38.3266 24.8502 38.554 24.8409 39.0221 24.982C38.9972 24.7873 38.9722 24.5927 38.9473 24.398C38.8527 24.429 38.7564 24.459 38.6611 24.4882C38.6212 24.599 38.5807 24.7096 38.5395 24.8202C38.4193 24.7747 38.3005 24.7288 38.1817 24.6821C38.0942 24.7288 37.989 24.7789 37.9138 24.823C37.4119 24.319 38.4723 24.5937 38.4571 24.3635C38.4484 24.2203 37.4231 24.3232 37.2816 24.4357C37.2613 24.4524 37.5205 24.8394 37.1243 24.6609C37.0627 24.6329 36.9617 23.7543 36.6187 24.5042C36.5702 24.6106 36.823 25.1384 37.0712 25.2446ZM40.89 25.0463C40.2207 24.5828 42.4585 24.8227 41.4572 24.5166C41.6782 24.2163 41.628 24.2284 41.3273 24.0446C41.3009 24.028 41.4707 23.9276 41.4538 23.9211C41.1877 23.8368 40.9023 23.9504 40.8638 23.7225C40.7993 23.7453 40.7385 23.766 40.6738 23.7887C40.9854 23.9598 40.567 24.1744 40.4252 24.383C40.3607 24.4776 40.5432 24.4746 40.4893 24.5569C40.4692 24.587 40.2123 24.5743 40.2141 24.6514C40.2208 24.8251 40.4128 25.03 40.6976 25.1137C40.6976 25.1138 40.6976 25.114 40.6976 25.1142C40.7625 25.0924 40.8249 25.0686 40.89 25.0463ZM28.2965 24.8575C28.245 24.5329 27.8678 24.3847 28.6451 24.3497C28.6169 24.2832 28.5876 24.217 28.5597 24.1505C28.4327 24.1366 28.3082 24.1226 28.1794 24.1072C27.6451 24.9552 27.1056 23.8101 27.4515 24.5303C27.4894 24.6086 27.8054 24.5804 27.4747 24.721C27.4751 24.7213 27.4755 24.7215 27.4759 24.7217C27.9032 24.7323 27.9731 24.6313 28.2965 24.8575ZM31.1396 24.9981C32.162 24.434 29.8456 24.5002 30.206 24.7067C30.2393 24.7297 31.2432 24.6913 31.1396 24.9981ZM23.3286 24.4361C23.7612 24.5131 23.8411 24.1656 23.8164 24.033C23.7917 23.8999 23.4736 23.9831 23.4381 23.9572C23.3226 23.8724 23.5951 23.8693 23.4461 23.7545C23.3961 23.7179 22.6664 23.4745 22.6308 23.4829C22.4256 23.5349 22.6576 23.87 22.5975 23.894C22.3999 23.973 22.1827 23.7811 22.1051 23.9255C21.9362 24.2334 22.4494 23.9681 22.5265 23.9745C22.7595 23.997 22.7099 24.1781 22.8772 24.2428C23.0449 24.3072 23.1675 24.2614 23.3185 24.2979C23.3685 24.31 23.3068 24.4316 23.3286 24.4361ZM24.8658 23.9062C24.3781 24.1056 25.4278 24.5557 25.565 24.5145C25.9751 24.3885 25.1009 23.8102 24.8658 23.9062ZM39.3151 24.4369C39.0659 24.5991 39.3887 24.6681 39.7261 24.6519C39.9052 24.644 40.0867 24.6163 40.1788 24.5733C40.1428 24.5321 39.9068 24.4633 39.6882 24.4311C39.5244 24.4077 39.3714 24.3998 39.3151 24.4369ZM35.8783 25.2761C36.2495 25.1775 35.7042 24.7911 35.3868 24.8335C35.2335 25.1406 35.4004 25.0642 35.6088 25.0537C35.8165 25.0437 35.5891 25.3538 35.8783 25.2761ZM18.7055 23.1948C18.7858 23.2226 20.1389 23.2924 19.4164 23.023C19.3596 23.0041 18.4414 22.8239 18.3655 22.8488C18.2061 22.9011 18.4981 23.131 18.7055 23.1948ZM34.0229 25.8519C34.2297 25.5967 34.4322 25.5896 34.2284 25.3058C34.2281 25.3058 34.2278 25.3058 34.2275 25.3058C34.7442 25.1922 34.8131 25.7808 34.9305 25.7598C35.3348 25.6783 34.9111 25.2895 35.1471 25.126C34.584 25.3099 34.725 25.0082 34.294 25.0139C34.198 25.0156 33.8147 25.1979 33.7573 25.3046C33.7007 25.4125 33.9086 25.7302 34.0229 25.8519ZM16.8479 22.7661C17.2642 22.9895 17.7699 22.707 17.1835 22.4763C16.9014 22.3618 16.5964 22.6289 16.8479 22.7661ZM48.3051 7.97843C48.2355 8.08672 48.1654 8.19481 48.0954 8.30365C48.0092 8.15425 47.919 8.00705 47.8246 7.86304C47.9109 7.97152 47.9945 8.08295 48.0762 8.19684C47.9891 7.88777 48.0995 7.6664 48.3047 7.97762C48.3048 7.97789 48.305 7.97816 48.3051 7.97843ZM39.0735 1.60296C38.9623 1.47244 38.6187 1.7193 38.648 1.75117C38.8685 1.98824 39.2328 1.78508 39.0735 1.60296ZM40.0793 25.2843C40.5883 25.2462 40.1608 24.7944 39.8451 24.8119C40.0498 24.8771 39.792 25.3069 40.0793 25.2843ZM42.8993 2.75164C42.9275 2.8104 42.9569 2.86987 42.991 2.93172C42.854 2.80932 42.8434 2.76177 42.8993 2.75164ZM18.8053 23.6859C18.8755 23.7442 19.4422 23.9109 19.5337 23.8809C19.7183 23.8178 19.3318 23.4393 19.0493 23.461C19.0191 23.4635 18.7366 23.6288 18.8065 23.6862C18.8061 23.6861 18.8057 23.686 18.8053 23.6859ZM48.1593 7.20325C48.1555 7.20645 48.1511 7.20814 48.1464 7.20852C48.1508 7.20697 48.1549 7.2046 48.1593 7.20325ZM27.2817 0.044372C27.2858 0.0520084 27.2883 0.0597262 27.2886 0.0673224C27.2866 0.0600133 27.2833 0.0524361 27.2817 0.044372ZM22.845 24.9371C22.9658 25.4519 23.4566 25.263 23.1372 24.9696C23.1189 24.954 22.8929 24.9458 22.845 24.9371Z" fill="var(--stroke-0, #EC5B13)"/>
</svg>
