<svg preserveAspectRatio="none" width="100%" height="100%" overflow="visible" style="display: block;" viewBox="0 0 36.9123 21.3356" fill="none" xmlns="http://www.w3.org/2000/svg">
<path id="Vector 79" d="M26.1667 0.181214C26.8714 0.251442 27.5925 0.340949 28.3189 0.454053C29.7268 0.604288 31.6012 1.47024 32.3385 1.86051C33.1056 2.21752 33.436 2.47211 33.8818 2.76682C34.1366 2.94252 34.04 3.05018 34.1018 3.11265C34.2681 3.28344 34.4767 3.22156 34.61 3.3259C34.8062 3.47943 34.996 3.62704 35.1848 3.77377C35.9723 4.32661 36.5695 5.30007 36.7548 6.10638C36.9899 7.25718 36.4037 6.7842 36.3666 7.15065C36.3281 7.36562 36.3491 7.43826 36.4073 7.45745C36.4414 7.46981 36.4871 7.46009 36.5374 7.44301C36.6532 7.40709 36.7936 7.3351 36.8756 7.40549C36.8845 7.41432 36.8928 7.42506 36.9003 7.43794C36.956 8.27811 36.8131 9.11588 36.5598 9.85659C36.5543 9.65849 36.5426 9.46064 36.5257 9.26302C36.4573 9.60009 36.2566 10.0285 36.2326 9.46356C36.1676 9.57303 36.0953 9.66986 36.0259 9.77647C36.2258 9.86128 36.0745 10.4154 36.1689 10.5046C36.2692 10.5969 36.348 10.2757 36.3563 10.2801C36.5172 10.3667 35.8146 11.5294 35.7423 11.5804C35.5899 11.7771 35.4574 11.4686 35.3778 11.6557C35.2386 11.9684 35.8063 12.0426 34.966 12.0845C35.0662 12.3581 34.9558 12.3121 34.818 12.4954C34.7999 12.5194 34.9231 12.5724 34.9187 12.5854C34.8062 12.9312 34.7515 12.5706 34.7389 12.5655C34.5345 12.4669 34.4112 12.8232 34.3478 12.8723C34.239 12.9589 34.1323 13.0425 34.0309 13.1199C33.2774 13.7426 32.5886 13.9334 31.7761 14.1976C31.6596 14.2347 31.4221 14.3469 31.2017 14.4353C31.1963 14.4374 31.1794 14.4414 31.1739 14.4432C30.987 14.504 30.8126 14.5432 30.7194 14.5423C30.5085 14.5385 30.593 14.3596 30.4773 14.298C30.3679 14.7091 30.1938 14.7771 29.7952 14.5514C29.7223 14.735 29.6934 14.7158 29.6198 14.6928C29.5794 14.6786 29.52 14.6626 29.4359 14.6935C29.249 14.758 29.0222 15.1668 28.7193 14.9516C28.9784 14.9072 28.9142 14.7751 29.1759 14.632C29.2154 14.6118 29.3886 14.5712 29.6104 14.531C29.9306 14.4733 30.2745 14.3584 30.2063 14.195C30.1475 14.0501 29.8074 14.2237 29.7902 14.1958C29.6978 14.0391 29.8764 13.8238 30.0537 13.8753C30.0144 13.9128 29.9661 13.9513 29.9227 13.9886C30.3363 14.1512 29.9735 13.4012 30.3526 14.0458C30.4006 14.1242 30.3982 14.2133 30.4729 14.293C30.4801 14.2545 30.392 14.1745 30.4542 14.149C30.5166 14.1235 30.6708 14.2746 30.6647 14.1265C30.6554 13.9124 30.4033 14.0377 30.3804 14.0271C30.3804 14.0284 30.3803 14.0297 30.3803 14.031C30.1877 13.9432 30.5552 13.8791 30.5679 13.8544C30.6564 13.7041 30.5662 13.617 30.703 13.4789C30.7444 13.4361 30.8299 13.4131 30.9086 13.3927L30.8689 13.4041C30.9434 13.3797 31.015 13.3589 31.0512 13.3368C31.1292 13.2886 30.9654 13.2374 31.0152 13.1977C31.0646 13.1581 31.1593 13.2065 31.2157 13.1595C31.2396 13.1391 31.1996 13.0338 31.2114 13.0253C31.3356 12.9329 31.3267 13.1868 31.4489 13.1242C31.5326 13.0828 31.6989 12.7708 31.4985 12.7873C31.5732 12.7307 31.6444 12.6797 31.7123 12.6261C31.6497 12.6199 31.5896 12.6231 31.525 12.6089C31.6959 12.59 31.6696 12.3852 31.7391 12.3306C31.8064 12.2767 31.998 12.4307 32.0127 12.2835C32.0298 11.9815 31.7102 12.3312 31.6132 12.3211C31.5841 12.3173 31.5837 12.1132 31.5911 12.1027C31.6322 12.0546 31.7567 12.1309 31.7914 12.1017C31.9123 11.9969 31.8684 11.8107 31.9144 11.7186C31.9393 11.6684 31.9583 11.6196 31.9728 11.5718C32.3088 10.977 32.6137 10.3492 32.796 9.87537C32.877 9.66839 33.1016 9.61814 33.1321 9.52168C33.1987 9.2992 33.0458 9.22302 33.0868 9.04311C33.1474 8.77785 33.3413 8.4371 33.3745 8.21734C33.4 8.06473 33.2285 7.94104 33.2218 7.90686C33.2158 7.87596 33.2094 7.84467 33.2028 7.81304C33.1457 7.49308 33.0738 7.24058 33.0256 7.14958C32.9751 7.05567 32.9847 7.0807 32.9479 7.04687C32.9422 7.04265 32.9387 7.0348 32.9359 7.02415C32.7718 6.86255 32.7487 6.69025 32.7005 6.66282C32.4548 6.52339 32.4302 6.69493 32.2513 6.55613C32.1544 6.48147 32.2186 6.34481 32.2079 6.33068C32.1156 6.21065 31.9842 6.35812 31.8883 6.30337C31.4493 6.05319 30.9572 5.65611 30.7849 5.53968C30.6587 5.47837 30.5407 5.41818 30.4291 5.36217C30.3785 5.33653 30.4205 5.26067 30.3865 5.24928C30.2419 5.20299 30.2433 5.35512 30.1044 5.29794C29.8194 5.18068 29.5991 5.04583 29.3771 4.93052C29.3551 4.91912 29.389 4.81248 29.3369 4.79037C29.2843 4.76832 29.2052 4.84956 29.1281 4.81301C28.9266 4.71797 28.7566 4.52807 28.5209 4.456C28.4814 4.44416 28.3992 4.56083 28.3412 4.54468C28.1602 4.49326 27.9012 4.31631 27.7295 4.28347C27.715 4.28064 27.7004 4.27789 27.6858 4.27522C27.0723 4.16466 26.4937 4.15882 25.912 4.09611C25.7727 4.08084 25.6598 3.94475 25.587 3.93467C25.4229 3.91248 25.5365 4.041 25.369 4.02598C24.0113 3.90659 22.6317 3.81587 21.3184 3.93543C20.8153 3.9803 20.238 4.18016 19.8418 4.25385C19.8292 4.25635 19.8167 4.25875 19.8043 4.26106C19.5711 4.30386 19.493 4.15595 19.3303 4.19409C19.0428 4.26189 19.0396 4.47646 18.739 4.56944C18.4995 4.64313 18.1746 4.50625 17.925 4.57728C17.6773 4.6478 17.6038 4.87154 17.3208 4.96083C17.0856 5.03466 16.7332 5.02037 16.4781 5.0927C15.4241 5.39757 14.251 5.68902 13.4795 5.95852C12.6623 6.28046 11.441 6.92518 10.3532 7.46265C9.96415 7.65674 9.56832 7.89103 9.17095 8.11199C8.83515 8.29754 8.5123 8.46986 8.19759 8.6033C8.13485 8.63031 8.08949 8.41421 7.95167 8.58233C7.87959 8.67318 7.87242 8.89977 7.72634 9.06429C7.5331 9.283 7.38605 9.47503 7.27338 9.66601C6.2212 11.4447 5.14533 12.3645 4.4645 13.6898C4.22139 14.1519 4.04744 14.6505 4.00055 15.0444C3.48556 17.6055 2.96529 20.0393 0.760364 21.3188C0.625957 21.3987 0.187988 21.1747 0.0835141 21.0559C0.200659 21.0232 0.333162 21.0035 0.463331 20.9743C-0.0751643 20.6748 0.0667324 20.7443 0.241945 20.4421C0.350664 20.2566 0.0461109 20.3201 0.0188137 20.1869C-0.0176919 20.0146 -0.0335197 19.2534 0.289644 19.5309C0.241064 19.4648 0.194094 19.4026 0.146735 19.3375C0.281566 18.8482 0.378139 18.3577 0.460272 17.8603C0.474222 17.7744 0.359049 17.7215 0.37392 17.6334C0.413449 17.3951 0.561489 17.2557 0.641657 17.0276C0.685042 16.904 0.556753 16.8313 0.629999 16.6767C0.703174 16.522 0.885104 16.5995 0.772977 16.3033C0.486909 16.3511 0.904582 15.7925 0.975346 15.5639C0.986299 15.5306 0.879726 15.1868 0.955784 15.0559C1.03189 14.9245 1.24477 14.7588 1.24621 14.5135C1.24678 14.3984 1.10471 14.2795 1.13315 14.1669C1.14047 14.138 1.16882 14.114 1.20376 14.0905C1.26962 14.0341 1.35641 13.9806 1.38944 13.9055C1.43909 13.7894 1.42912 13.491 1.44869 13.4443C1.51362 13.2805 1.53226 13.5015 1.58677 13.3952C1.85025 12.8803 2.21259 12.3642 2.42481 11.8787C2.45114 11.8188 2.29539 11.8285 2.29623 11.8191C2.39469 11.3614 2.41266 11.6495 2.57199 11.6099C2.72492 11.5693 3.12357 10.8489 2.94303 10.7225C3.18824 10.8556 3.1126 10.5866 3.13184 10.5434C3.20809 10.3734 3.38681 10.5386 3.42408 10.3505C3.43783 10.2818 3.23263 10.295 3.27552 10.2401C3.3808 10.1055 3.68399 10.1239 3.83137 9.9528C3.86699 9.91159 3.78115 9.83091 3.83783 9.754C3.89564 9.67619 4.23489 9.42422 3.92883 9.44088C4.22439 9.35133 4.16372 9.24866 4.313 9.02524C4.35 8.96985 4.5569 8.99389 4.57922 8.84388C4.58656 8.79305 4.4299 8.70326 4.46236 8.64448C4.5116 8.55387 4.63474 8.51187 4.72478 8.4563C4.78269 8.39485 4.83803 8.32902 4.88349 8.25032C5.15259 7.7812 5.41424 7.25179 5.82717 6.91581C5.93926 6.82584 6.038 6.98108 6.18767 6.84991C6.20825 6.83049 6.28699 6.55318 6.40391 6.4784C6.47382 6.42992 6.87257 6.26408 6.94431 6.22558C7.06308 6.1573 6.98219 5.99984 7.06315 5.98503C7.29791 5.9433 7.299 6.2555 7.31464 5.81807C7.49398 5.93393 7.60682 5.83688 7.77718 6.01451C7.76647 5.97451 7.76257 5.94385 7.76396 5.92009C7.77009 5.78553 7.94753 5.87738 8.02427 5.74008C8.11403 5.57893 7.96038 5.07171 8.28297 5.52074C8.31252 5.42344 8.53043 5.15765 8.57378 5.12233C8.70006 5.01937 8.70417 5.19453 8.79815 5.11478C8.81482 5.10095 8.74218 5.02253 8.86607 4.96155C8.94665 4.92054 9.52361 4.59695 9.56558 4.59124C10.0383 4.51388 9.40192 4.80108 9.37501 4.9482C9.34543 4.93098 9.31592 4.91361 9.28546 4.89732C9.08889 4.95381 9.30491 5.10118 9.4095 5.10412C9.51411 5.10698 9.60743 4.93311 9.71033 4.964C9.76162 4.97972 9.88026 5.23702 9.76685 5.26206C9.91315 5.27921 9.81734 5.43909 9.89854 5.48709C9.98731 5.53875 10.4626 5.306 10.3912 5.1686C10.3014 5.21153 10.1958 5.27606 10.1052 5.3193C9.85616 5.14878 9.76219 4.14109 10.2707 4.28786C10.6367 4.39604 10.3398 4.79171 10.8019 4.2966C10.7091 4.3324 10.6244 4.34823 10.5395 4.38025C10.4366 4.2051 10.6688 4.33489 10.7055 4.24315C10.7231 4.19836 10.4587 4.17419 10.6087 4.04208C10.8896 4.22345 10.8696 3.9049 11.1219 3.77629C11.0739 3.85761 11.0276 3.93825 10.9811 4.01967C11.4949 3.99749 10.5551 4.54593 11.4195 4.2458C11.3261 4.3019 11.228 4.34802 11.1362 4.41051C11.2316 4.48156 11.2972 4.79863 11.3691 4.8363C11.5566 4.93563 11.6696 4.76287 11.8104 4.71219C11.8712 4.69012 11.8717 4.78348 11.8768 4.78161C11.9611 4.75171 11.8904 4.64838 11.9568 4.60841C12.0425 4.5565 12.3486 4.5509 12.3831 4.52193C12.4781 4.44288 12.2005 4.29676 12.203 4.27605C12.2247 4.13703 12.4086 4.16608 12.3421 4.02645C12.0322 4.26334 10.9855 4.62484 11.7777 3.96227C11.421 3.8538 11.3384 3.50816 11.7095 3.31094C12.0213 3.14993 11.8704 3.36606 12.0952 3.43571C12.1211 3.44162 12.4904 3.35965 12.5751 3.26742C12.584 3.25631 12.5886 3.2448 12.5874 3.23295C12.6491 3.47266 12.8568 3.63528 12.8423 3.90807C12.8418 3.92071 12.8241 3.93349 12.8047 3.95057C12.7628 3.98733 12.7085 4.04676 12.7957 4.16443C12.8321 4.21407 12.8975 4.29583 12.9496 4.38193C12.9893 4.44595 13.023 4.51174 13.0355 4.56665C13.037 4.47009 13.0419 4.36075 13.0458 4.25989C13.2817 4.15956 13.3486 4.24519 13.5268 4.37253C13.5024 4.30564 13.2967 4.05211 13.514 4.08768C13.5253 4.09035 13.561 4.19138 13.6728 4.21726C13.8986 4.2693 13.9447 4.29247 13.8717 4.63483C14.2342 4.35933 14.4092 4.67901 14.8101 4.48128C14.6368 4.10674 14.5035 4.2387 14.1349 4.4074C14.0954 4.31811 14.065 4.2276 14.0246 4.13751C14.5957 4.22463 14.3325 4.26494 14.5846 4.00579C14.6452 3.9425 15.0465 3.90381 14.8561 3.66809C14.8112 3.61257 14.5708 3.67505 14.5761 3.57036C14.577 3.5503 14.8609 3.43552 14.8931 3.45507C15.2888 3.69581 14.7569 4.045 15.6279 3.72952C15.6517 3.72065 15.6346 3.60394 15.6795 3.57712C15.7647 3.52675 15.795 3.65962 15.8691 3.61081C15.944 3.56172 16.0155 3.35789 16.1757 3.49559C16.4682 3.74613 15.9771 4.03819 15.7073 3.9308C15.6986 4.34641 17.3833 3.97679 17.4801 3.91728C17.9039 3.6654 17.1626 3.92524 17.0998 3.82448C17.0732 3.782 16.9482 3.1955 16.8426 3.61851C16.8113 3.74388 17.0824 3.83813 16.9547 3.93234C16.8275 4.02638 16.8447 3.84141 16.8317 3.83174C16.7882 3.7983 16.6502 3.89662 16.6259 3.87641C16.2421 3.57335 16.1444 3.00694 16.7279 3.74471C16.8601 3.51826 16.3931 3.31057 16.5804 3.13484C16.8058 2.92173 17.0569 3.14477 17.0929 3.14919C17.5186 3.20108 16.9758 2.91638 17.4845 2.92993C17.7676 2.93715 17.1445 3.28154 17.7495 3.11431C18.2564 2.97294 17.9472 2.90247 17.9126 2.58618C17.904 2.51227 18.1618 2.35853 17.79 2.47934C17.798 2.56199 17.8024 2.67236 17.7955 2.75192C17.6886 2.71525 17.4397 2.35027 17.3871 2.34767C17.1321 2.33638 17.1885 2.54263 16.9916 2.32955C17.1542 2.57481 16.9521 2.45093 16.9023 2.52194C16.7196 2.78336 17.0397 2.79248 16.4597 2.64156C16.5571 2.75191 16.6446 2.86204 16.739 2.97251C16.6772 2.99107 16.6178 3.0092 16.5551 3.02793C16.3988 2.77178 16.0766 2.8816 16.3131 2.53483C15.9346 2.5368 15.8039 2.62941 15.772 2.86331C15.7661 2.90791 15.7152 2.9366 15.653 2.95467C15.6785 3.01271 15.7358 3.19685 15.731 3.22208C15.687 3.44437 15.4684 3.12628 15.4863 2.98221C15.4403 2.98579 15.4045 2.98595 15.3906 2.98565C15.3063 2.98277 15.435 2.82729 15.3618 2.80026C15.336 2.7919 15.1216 2.8675 15.1048 2.81978C15.0083 2.51141 15.4255 2.65544 14.6464 2.63922C14.6945 2.9289 15.0223 2.78886 15.0028 3.11256C14.9806 3.4605 14.6902 3.06606 14.739 3.476C14.7085 3.41371 14.6892 3.36039 14.6589 3.28849C14.4009 3.53089 14.3194 3.19922 14.2117 3.14673C13.9995 3.04316 13.1847 3.26652 13.9896 3.37482C13.8905 3.42895 13.7842 3.46889 13.6836 3.52094C13.5095 2.93393 13.6392 3.14718 13.0884 3.19875C12.9658 3.21155 12.8493 2.9645 12.825 3.30628C12.781 3.12741 12.658 3.15284 12.5536 3.20359C12.4778 3.23998 12.413 3.28881 12.3945 3.27881C12.2619 3.21238 12.3126 3.05392 12.4642 2.93733C12.6467 2.79249 12.9336 2.74228 13.0708 3.02704C13.145 2.78269 13.2184 3.0589 13.3534 2.98462C13.5478 2.87842 13.563 2.81731 13.8562 2.96344C14.0317 2.6128 12.8753 3.0731 13.5064 2.50825C14.1391 1.9561 17.8188 0.931985 18.9295 0.567395C18.9943 0.548082 19.0531 0.531294 19.1051 0.516845C21.1726 0.00309038 22.1426 -0.0290189 23.8646 0.0132444C24.0343 0.0131578 25.2989 0.0613844 25.0121 0.389039C24.9703 0.434779 24.4296 0.531873 24.8687 0.829767C24.7865 0.664709 25.0616 0.579678 25.0862 0.564955C25.6335 0.226709 25.3428 0.104393 26.1667 0.181214ZM28.0498 3.53495C27.9567 3.50907 27.8823 3.49137 27.8177 3.47906C27.234 3.3711 27.753 3.69018 27.4993 4.12044C27.5679 4.1322 27.6366 4.14417 27.7055 4.15641C27.7542 4.16513 27.8019 4.17406 27.8487 4.1832C27.8264 4.1461 27.8037 4.10917 27.7801 4.07211C27.78 4.07209 27.7799 4.07206 27.7797 4.07204C27.8666 3.89199 27.9564 3.71284 28.0498 3.53495ZM31.2389 12.537C31.2437 12.4616 31.2468 12.3865 31.2514 12.3122C31.3545 12.2921 31.4522 12.2704 31.5454 12.2471C31.5563 12.2935 31.5673 12.3404 31.5772 12.3871C31.4715 12.437 31.358 12.4844 31.2389 12.537ZM15.5856 4.03495C15.3594 3.89122 15.4494 4.21792 15.1709 4.12249C15.2561 4.3594 15.3436 4.59024 15.4288 4.82463C15.6069 4.74672 15.6283 4.64459 15.8448 4.65869C15.8037 4.5856 15.7625 4.51205 15.7216 4.43841C15.691 4.4629 15.6591 4.49013 15.6298 4.51234C15.5281 4.30483 15.8469 4.19911 15.5861 4.0343C15.5859 4.03452 15.5858 4.03473 15.5856 4.03495ZM13.7411 4.56984C13.6373 4.56167 13.234 4.54762 13.2187 4.66253C13.1536 5.04293 14.0992 4.54752 13.4421 5.05507C13.4592 5.10135 13.4695 5.14859 13.4833 5.19536C13.616 5.17439 13.7544 5.15225 13.8979 5.12937C13.8419 4.94333 13.7989 4.75643 13.7411 4.56984ZM24.5307 3.1408C24.381 3.1021 23.6538 3.23828 23.8802 3.46976C23.9453 3.53681 24.2781 3.2335 24.4002 3.25465C24.4784 3.26802 24.3801 3.4368 24.5391 3.38209C24.5369 3.30498 24.5378 3.2197 24.5302 3.14129C24.5304 3.14113 24.5305 3.14097 24.5307 3.1408ZM24.885 2.14751C24.7217 2.16721 24.5539 2.19626 24.3911 2.22063C24.4972 2.42487 24.7389 2.31227 24.7332 2.5921C24.6882 2.61037 24.6435 2.62863 24.598 2.64707C24.5681 2.58402 24.5385 2.52099 24.5089 2.45808C24.3623 2.60196 24.4426 2.68127 24.1881 2.62482C24.3239 3.05474 24.3329 3.27986 24.7948 2.88208C24.6981 3.1054 24.7223 3.85453 24.9975 3.34019C25.0496 3.24475 24.8688 3.1648 24.8672 3.14902C24.852 2.95132 24.9662 2.83413 24.9485 2.64712C24.9403 2.56246 24.8237 2.55549 24.8143 2.43833C24.8098 2.38112 24.9328 2.22741 24.885 2.14751ZM25.1277 3.16288C25.07 3.27742 25.2123 3.57137 25.3581 3.52711C25.5883 3.4589 25.2623 3.15983 25.1277 3.16288ZM31.2383 12.5375C31.2385 12.5373 31.2387 12.5372 31.2389 12.537C31.2389 12.5373 31.2388 12.5376 31.2388 12.5379C31.2387 12.5377 31.2385 12.5376 31.2383 12.5375ZM14.2685 4.58053C14.1779 4.70591 14.0079 4.73281 14.0589 4.88562C13.9972 4.86844 13.9348 4.85215 13.8731 4.83541C13.8855 4.88203 13.8985 4.92863 13.9109 4.97478C14.079 4.96278 14.2515 4.95177 14.4234 4.94231C14.3725 4.82169 14.3231 4.70024 14.2685 4.58053ZM12.5545 4.99483C12.3578 5.06379 12.606 5.19297 12.607 5.30781C12.6102 5.42141 12.4092 5.41906 12.4922 5.54758C12.6031 5.50281 12.718 5.4579 12.8268 5.41746C12.7339 5.27811 12.6467 5.13316 12.5542 4.99499C12.5543 4.99494 12.5544 4.99488 12.5545 4.99483ZM31.4892 5.08437C31.3992 4.97928 31.5163 4.85046 31.2117 4.91093C31.2118 4.91101 31.212 4.91109 31.2121 4.91116C31.3456 5.13197 31.5685 5.40603 31.8862 5.44901C31.8272 5.20519 31.6351 5.25419 31.4892 5.08437ZM16.2054 4.40013C16.2388 4.25733 15.9258 4.21439 15.8892 4.34831C15.8297 4.56512 16.1539 4.61725 16.2054 4.40013ZM35.1631 8.71437C35.5336 9.0064 36.0673 8.58011 35.8601 8.04567C35.8439 8.00358 35.7132 8.32938 35.6344 8.23106C35.6273 8.22128 35.6371 8.04633 35.5786 8.00462C35.5208 7.9636 35.3907 8.01089 35.3332 7.94581C35.2603 7.86377 35.3249 7.69718 35.3088 7.57934C35.3031 7.53631 35.287 7.50139 35.2499 7.48203C35.2385 7.47636 35.1731 7.54575 35.124 7.59986C35.0949 7.632 35.0715 7.6585 35.0694 7.66242C34.9795 7.82952 35.2138 7.97199 35.2161 7.99984C35.227 8.13221 35.0454 8.11282 35.0033 8.14485C34.9239 8.20423 35.0006 8.3104 34.9942 8.31807C34.8296 8.49957 34.8892 8.07317 34.8178 8.01833C34.6354 7.87536 34.4858 8.01146 34.3571 7.68927C34.3567 7.68826 34.3562 7.68685 34.3558 7.6851C34.3428 7.63105 34.3053 7.31498 34.1885 7.70366C34.1809 7.72501 34.1728 7.74853 34.1641 7.7743C34.1505 7.7514 34.1373 7.73026 34.1245 7.71076C33.8846 7.32935 33.8547 7.48228 33.8936 7.73638C33.9303 7.95576 33.9901 8.28531 34.0285 8.35781C34.0676 8.4262 34.245 8.33506 34.3199 8.38025C34.4921 8.48641 34.5045 8.66513 34.7536 8.67801C35.2796 8.70076 34.9624 8.41016 35.052 8.24535C35.1654 8.26618 35.2763 8.27589 35.3865 8.31548C35.242 8.25892 35.139 8.69637 35.1621 8.71426C35.1624 8.7143 35.1628 8.71433 35.1631 8.71437ZM34.1761 6.30843C34.1949 6.05999 33.9492 6.28363 33.975 6.03765C33.6728 6.1586 33.869 6.32157 33.8667 6.35466C33.8878 6.50523 33.6076 6.66926 33.7459 6.71129C33.8964 6.58739 34.0439 6.45645 34.1761 6.30843ZM34.4593 8.08182C34.2893 7.94484 34.2963 8.1934 34.2625 8.20225C33.9294 8.30235 33.9714 7.59656 34.4593 8.08182ZM23.6097 2.43468C23.5265 2.42127 23.5754 2.58293 23.5015 2.62865C23.4258 2.67443 23.1788 2.53385 23.1828 2.63396C23.1904 2.73364 23.6381 2.99976 23.1836 3.04967C23.1985 3.10598 23.1929 3.14781 23.1998 3.19863C23.3225 3.20137 23.4501 3.20612 23.5728 3.21069C23.5093 3.04741 23.4418 2.8759 23.3776 2.71857C23.4512 2.59119 23.4886 2.75709 23.4922 2.75716C23.4922 2.75699 23.4922 2.75681 23.4922 2.75664C23.6229 2.74648 23.7974 2.46514 23.6097 2.43468ZM29.8413 3.93879C30.0245 3.58028 29.6734 3.91677 29.5898 3.93721C29.5036 3.95546 29.4637 3.78094 29.4366 3.95573C29.5004 4.10703 29.8188 3.97723 29.8415 3.93832C29.8415 3.93848 29.8414 3.93863 29.8413 3.93879ZM33.326 5.58261C33.0997 5.54727 33.0695 5.65251 32.9257 5.41337C32.8801 5.49964 32.8333 5.58765 32.7884 5.67265C32.9526 5.78466 33.0986 5.5431 33.227 5.76694C33.2478 5.80377 33.0542 5.9442 33.2363 5.98072C33.2634 5.85376 33.2958 5.71448 33.326 5.58261ZM32.2792 5.32225C32.4815 5.43471 33.0696 4.87957 32.51 4.94034C32.4263 4.94969 32.1259 5.23799 32.2792 5.32225ZM25.7999 2.55516C25.3998 2.49346 25.8447 2.66356 25.9364 2.79525C24.9951 2.79933 26.0476 2.77108 26.0932 3.18293C26.219 3.08183 26.4609 2.84708 26.2335 2.7501C26.1373 2.70988 26.1603 2.83288 26.1544 2.83169C25.9752 2.78214 26.0203 2.59005 25.7999 2.55516ZM34.3472 6.59059C34.3371 6.58202 34.2193 6.65115 34.1803 6.6295C34.1424 6.60879 34.1921 6.49584 34.1143 6.5276C34.0389 6.56144 34.0424 6.71727 34.1152 6.74062C34.1894 6.76299 34.4386 6.67585 34.3472 6.59059ZM33.7073 5.41375C33.4845 5.37963 33.476 5.97909 33.5128 6.00186C33.557 6.02812 33.5915 6.03932 33.6179 6.03842C33.6575 6.02956 33.6823 5.9868 33.6961 5.92552C33.7127 5.76681 33.6472 5.48981 33.7073 5.41375ZM26.8435 1.82101C26.3157 2.01075 26.6276 2.49263 26.8936 2.79498C26.9404 2.74713 26.9886 2.69944 27.0354 2.65221C26.8092 2.95102 26.4523 3.22627 27.1922 3.04245C26.8175 2.91167 27.1523 2.87051 27.1578 2.85278C27.286 2.26464 26.6675 2.46175 26.8439 1.82107C26.8438 1.82105 26.8436 1.82103 26.8435 1.82101ZM34.3666 7.14951C34.41 7.31701 34.5705 7.82553 34.8017 7.55196C34.6608 7.40373 34.5158 7.26637 34.3666 7.14951ZM18.6416 2.10648C18.4358 2.00258 18.28 2.04258 18.0741 2.10158C18.3117 2.26851 18.1942 2.3221 18.1434 2.38887C18.0657 2.48964 18.2968 2.42803 18.3012 2.44198C18.345 2.64377 18.2023 2.71095 18.5424 2.62452C18.4762 2.71437 18.4077 2.80525 18.3407 2.89462C18.604 2.84153 18.6941 2.95827 18.8999 3.07789C18.6442 2.72593 18.9148 2.91979 19.0587 2.67865C19.1304 2.55806 18.745 2.16014 18.6409 2.10664C18.6411 2.10659 18.6414 2.10653 18.6416 2.10648ZM26.3391 1.6783C26.2793 1.74439 26.2214 1.83653 26.1631 1.91343C26.1084 1.91538 26.054 1.91652 25.9998 1.91878C25.9999 1.8544 26.0011 1.78717 25.9997 1.7251C25.9299 1.69915 25.9488 1.79076 25.9267 1.79691C25.9267 1.79657 25.9268 1.79623 25.9268 1.79589C25.612 1.88307 25.4914 1.85928 25.2687 1.6422C25.2529 1.8378 25.2371 2.03339 25.2212 2.22899C25.2756 2.21462 25.3308 2.20092 25.3846 2.18727C25.4215 2.08461 25.4589 1.98197 25.4965 1.87945C25.5529 1.94284 25.609 2.00598 25.6648 2.06968C25.7171 2.03653 25.7799 2.00255 25.8262 1.97003C26.0152 2.53992 25.4993 2.11474 25.4731 2.34207C25.4576 2.48654 26.0096 2.53394 26.0995 2.44345C26.1128 2.43008 26.0366 2.01068 26.2174 2.2448C26.2465 2.28193 26.1551 3.16025 26.4555 2.4755C26.499 2.37853 26.4554 1.82017 26.3391 1.6783ZM24.2892 1.22499C24.5836 1.80248 23.4251 1.15848 23.9179 1.6424C23.7645 1.89695 23.7929 1.89441 23.9278 2.12994C23.9395 2.15102 23.8382 2.2188 23.8464 2.22818C23.9748 2.35969 24.1396 2.29954 24.1296 2.5305C24.1658 2.51979 24.2 2.51042 24.2364 2.49986C24.0968 2.2752 24.3427 2.14016 24.4468 1.96204C24.4939 1.88124 24.3976 1.85026 24.4373 1.77945C24.4519 1.75352 24.5862 1.81438 24.5965 1.73865C24.6184 1.56721 24.5458 1.32907 24.4028 1.19428C24.4028 1.19411 24.4028 1.19393 24.4028 1.19376C24.3645 1.20312 24.3273 1.21499 24.2892 1.22499ZM30.9684 3.0686C30.8788 3.37298 31.0302 3.54694 30.5943 3.50289C30.5854 3.56705 30.5773 3.63099 30.5684 3.69519C30.6325 3.72057 30.6947 3.7454 30.7605 3.7724C31.3557 3.04165 31.2508 4.13924 31.3093 3.44533C31.3158 3.37 31.1367 3.37155 31.363 3.2667C31.3629 3.26645 31.3628 3.2662 31.3627 3.26595C31.1382 3.22344 31.0627 3.30846 30.9684 3.0686ZM29.4449 2.66325C28.7541 3.12584 29.9956 3.24293 29.8708 3.02136C29.8585 2.99498 29.3086 2.94939 29.4449 2.66325ZM33.5544 4.09326C33.3593 3.95174 33.1532 4.2417 33.1039 4.36184C33.0544 4.48231 33.2621 4.46318 33.2688 4.49186C33.29 4.58542 33.1436 4.54181 33.1683 4.66714C33.177 4.7076 33.4482 5.04012 33.4712 5.03778C33.6055 5.02591 33.6419 4.69754 33.6854 4.68646C33.8284 4.65018 33.8527 4.85066 33.9635 4.73789C34.201 4.4977 33.7995 4.6465 33.7618 4.62811C33.6484 4.57087 33.7609 4.42134 33.7031 4.33767C33.6442 4.2535 33.5568 4.27248 33.4943 4.2155C33.4732 4.19628 33.564 4.10098 33.5544 4.09326ZM32.4876 4.3002C32.8417 4.20314 32.4761 3.63459 32.3747 3.65164C32.0985 3.7067 32.3252 4.34755 32.4876 4.3002ZM25.0353 2.12554C25.2749 1.94826 24.7609 1.75165 24.6038 1.82202C24.6287 1.90407 24.9533 2.18605 25.0353 2.12554ZM26.9814 1.8402C26.7655 1.87288 26.9837 2.34349 27.1533 2.36067C27.2942 2.08956 27.1914 2.13248 27.0809 2.10533C26.9704 2.0782 27.1497 1.81525 26.9814 1.8402ZM35.3427 6.32208C35.3456 6.24781 34.7451 5.65981 34.881 6.10417C34.9015 6.13085 35.1354 6.60369 35.1794 6.63492C35.2886 6.68999 35.3796 6.45405 35.3427 6.32208ZM28.0436 1.56745C27.8924 1.7954 27.7863 1.77537 27.8406 2.08035C27.8407 2.08038 27.8409 2.0804 27.841 2.08042C27.5528 2.12557 27.6283 1.53221 27.5661 1.53567C27.3489 1.54899 27.4857 1.99998 27.335 2.11938C27.6565 2.03378 27.5289 2.30545 27.754 2.35903C27.7929 2.3682 27.9399 2.28958 28.0284 2.20755C28.0554 2.18309 28.0769 2.15829 28.0882 2.13523C28.1157 2.07892 28.1108 1.94851 28.0924 1.82127C28.0795 1.72241 28.0598 1.62564 28.0436 1.56745ZM35.6527 7.40303C35.7136 7.12707 35.2741 6.96902 35.2656 7.32033C35.2575 7.48769 35.6135 7.56572 35.6527 7.40303ZM13.0325 3.28809C13.0984 3.37953 13.1666 3.47003 13.2321 3.56089C13.1512 3.60966 13.0698 3.66 12.9901 3.71112C13.0492 3.65842 13.1097 3.60669 13.1718 3.5551C12.9981 3.56555 12.862 3.40519 13.0321 3.28822C13.0322 3.28818 13.0324 3.28813 13.0325 3.28809ZM7.53224 6.04464C7.40931 6.00347 7.45869 6.35201 7.48929 6.36107C7.712 6.43107 7.69983 6.10357 7.53224 6.04464ZM24.7653 1.14502C24.4786 1.08323 24.6489 1.60768 24.8177 1.65416C24.7181 1.54917 24.9256 1.18061 24.7653 1.14502ZM9.37501 4.9482C9.41906 4.97384 9.46323 4.99945 9.50985 5.02378C9.40175 5.0148 9.36762 4.98686 9.37501 4.9482ZM35.712 6.023C35.7347 5.95636 35.5602 5.54567 35.4787 5.52263C35.33 5.47945 35.2633 5.89897 35.4085 6.01817C35.4253 6.0295 35.697 6.08838 35.7117 6.02219C35.7118 6.02246 35.7119 6.02273 35.712 6.023ZM12.5837 3.21951C12.5858 3.224 12.587 3.22855 12.5874 3.23295C12.5863 3.22849 12.5847 3.22403 12.5837 3.21951ZM2.92211 10.7116C2.92972 10.7145 2.93682 10.7181 2.94303 10.7225C2.93645 10.7189 2.92916 10.7157 2.92211 10.7116ZM34.051 3.73937C34.2319 3.27171 33.8769 3.35 33.9098 3.66133C33.912 3.67798 34.0297 3.72398 34.051 3.73937Z" fill="var(--stroke-0, #EC5B13)"/>
</svg>
