<svg preserveAspectRatio="none" width="100%" height="100%" overflow="visible" style="display: block;" viewBox="0 0 163.018 86.9682" fill="none" xmlns="http://www.w3.org/2000/svg">
<path id="Vector 118" d="M2.91612 0.0175233C4.23051 -0.0814428 6.0161 0.254364 7.37011 0.632893C7.8018 0.750947 7.55482 1.16248 7.84783 1.26246C8.42554 1.45739 8.97924 1.27575 9.54402 1.49764C9.73227 1.57326 9.46395 2.23373 9.66281 2.29764C10.7531 2.64275 11.8057 2.51134 12.9195 2.68909C16.3096 3.22887 19.6855 3.53566 23.0268 3.66751C23.4336 3.72879 24.7287 3.6096 25.8119 3.54451C26.9379 3.47184 28.071 3.41522 29.1983 3.377C31.159 3.30732 33.5222 3.77002 35.4828 3.4072C35.7099 3.36424 35.5448 2.78207 35.586 2.73139C36.2429 1.95492 36.0771 3.15464 36.5245 3.29238C38.3291 3.83531 40.3061 3.82134 42.0028 3.54694C42.0607 3.53758 42.1094 3.52186 42.1503 3.50115C42.6084 3.25902 42.0272 2.32764 42.7082 2.91532C42.7597 2.95838 42.5935 3.58911 42.7928 3.65064C43.2515 3.78867 44.0932 3.65573 44.4445 3.69702C45.13 3.77948 45.224 3.77105 45.8613 3.76381C46.7352 3.75941 47.7751 4.04895 48.689 3.88907C48.8864 3.85303 48.6112 3.21647 48.9257 3.10107C49.2445 2.98571 50.0783 3.02435 50.3629 3.1705C50.6482 3.31665 50.5373 3.82325 50.5894 3.93795C51.024 4.90604 51.9585 3.53764 52.0844 3.50209C54.3446 2.8934 56.303 3.63358 58.4323 3.60107C60.0501 3.57478 61.771 3.29784 63.3106 3.31347C65.1407 3.33465 66.6989 3.66422 68.4759 3.58454C68.6635 3.57687 68.4352 2.82472 68.6643 2.81384C71.0993 2.69893 73.5192 2.75622 75.9487 3.24185C76.1915 3.29123 75.8858 3.95683 76.1286 4.04578C77.6267 4.57558 79.9824 5.86157 80.8447 2.96872C81.8498 3.07207 83.0695 3.17737 83.9841 3.75066C84.5673 4.11969 84.0123 4.84652 84.7183 4.53217C84.8772 4.46211 84.6631 3.83188 84.9034 3.77462C85.9253 3.53402 87.0393 3.72959 88.0312 3.39412C88.2366 3.32437 88.1758 2.75848 88.2334 2.65597C88.7225 1.82555 89.5304 3.18385 89.7123 3.28144C91.0751 4.00915 92.0334 3.70931 93.3019 3.71559C93.5905 3.71741 93.2428 2.95981 93.5195 2.93423C94.0366 2.88951 94.601 2.86761 95.1194 2.87417C96.0722 2.88503 96.9867 2.98042 97.8959 3.18491C98.2137 3.25847 97.9294 3.9096 98.0812 3.97791C98.7334 4.27137 98.8944 3.04548 99.5189 3.30302C99.6504 3.35573 99.5827 3.91132 99.6078 3.97198C100.014 4.92397 100.326 3.56498 100.423 3.53394C101.667 3.11055 102.486 4.51538 103.688 4.29905C103.829 4.27174 103.5 3.57412 103.898 3.54029C106.597 3.31103 109.458 3.45317 112.151 3.97414C112.569 4.05431 112.279 4.586 112.306 4.65062C112.753 5.65987 113.003 4.29527 113.143 4.24205C114.208 3.85814 115.226 4.98721 115.936 3.35803C116.595 3.43078 117.225 3.47441 117.887 3.49929C121.771 3.65023 125.661 3.13337 129.525 4.3651C129.583 4.38173 129.482 5.05236 129.597 5.08264C130.974 5.45461 130.708 4.41381 131.615 3.13759C131.844 2.81712 132.547 4.35412 132.608 4.46682C132.833 4.88198 132.601 5.87952 132.677 5.95987C133.3 6.59091 133.196 3.29315 134.037 3.29151C134.064 3.297 133.953 3.90406 134.024 3.96437C134.244 4.15373 134.461 3.91246 134.676 4.12139C135.168 4.60489 135.341 6.20727 136.092 5.27534C136.187 5.15443 136.044 3.28347 136.796 3.37292C137.095 3.41 138.422 3.38106 138.795 3.50376C139.166 3.62611 138.909 4.22805 138.935 4.25424C139.93 5.05506 139.553 5.38408 140.047 6.56636C140.54 7.74439 140.414 4.9397 140.621 4.62777C140.831 4.31669 141.555 4.97864 141.736 5.20854C141.915 5.43846 141.687 5.82001 141.847 5.9505C142.902 6.80358 142.323 4.56198 142.675 4.11951C143.514 3.07223 144.14 5.15774 144.887 5.36978C145.093 5.42713 144.93 4.95163 145.114 4.90944C145.836 4.74877 146.263 5.40314 147.091 4.82084C147.231 4.72596 147.908 3.48656 148.329 4.41233C148.387 4.54577 148.206 5.06059 148.509 5.18251C148.963 5.36531 149.791 5.49684 150.288 5.33676C150.653 5.21819 150.252 4.3532 150.715 4.63116C150.918 4.75537 150.523 5.24391 150.903 5.43565C150.998 5.48392 151.13 5.52048 151.277 5.54817C151.739 5.63095 152.35 5.63779 152.625 5.63625C152.995 5.63378 152.822 4.97847 152.852 4.93602C153.051 4.6935 153.782 4.41542 153.848 4.42022C154.862 4.44856 155.856 4.6033 156.872 4.84595C157.379 4.97028 157.889 5.10734 158.471 5.32271C158.782 5.45611 159.054 5.49745 159.657 5.95715C159.799 6.07815 160.016 6.28304 160.175 6.61499C160.349 6.9582 160.378 7.42341 160.309 7.71186C160.163 8.29191 159.985 8.4188 159.924 8.5176C159.258 9.35508 158.658 10.2871 158.238 11.3296C158.149 11.5493 158.823 11.7392 158.816 11.7761C158.68 12.6262 157.391 11.1926 156.581 11.4133C157.842 11.9965 157.459 12.1756 157.325 12.7551C157.261 13.0349 157.806 13.1513 157.843 13.1995C158.374 13.9404 157.311 13.703 157.085 13.6713C156.256 13.5479 156.951 14.2444 156.396 14.1652C155.843 14.0922 155.346 13.3523 155.1 13.8565C155.472 14.2203 156.813 14.4426 156.812 14.9099C156.802 16.6671 154.626 18.8666 154.011 19.992C153.54 20.8414 153.386 21.2836 153.135 21.7154C153.052 21.8602 152.959 22.003 152.843 22.1553C151.939 23.295 153.021 23.2517 152.995 24.2498C152.959 25.2363 151.092 23.7135 150.587 23.5773C150.085 23.4348 150.48 23.8008 150.164 23.7934C149.849 23.7843 149.701 23.3401 149.442 23.5876C149.183 23.8345 149.505 25.1043 149.909 25.472C150.659 26.1535 151.702 26.3987 151.408 26.8441C151.372 26.8964 151.311 26.9523 151.217 27.018C151.172 27.0492 150.699 26.615 150.555 26.7506C149.431 27.8571 148.754 29.3967 147.764 30.7071C147.627 30.8882 147.058 30.4472 146.971 30.5493C146.063 31.6247 147.326 31.615 148.266 32.7657C146.72 31.9829 145.587 31.9747 145.211 32.9199C144.987 33.4841 145.727 33.6609 146.083 34.2154C146.191 34.3828 145.554 34.601 145.857 34.7994C146.85 35.4506 148.204 35.5365 147.354 36.3228C147.315 36.3571 146.773 35.9959 146.681 36.1307C146.085 36.9962 147.177 37.5376 146.926 38.6223C146.73 39.4722 145.496 40.6562 145.035 41.5387C143.226 40.8351 143.314 41.8628 144.431 42.6903C144.287 42.9903 144.172 43.3102 144.039 43.6253C143.913 43.9259 143.772 44.2131 143.58 44.4627C143.445 44.6384 142.971 44.3065 142.904 44.3096C141.867 44.3547 142.981 45.0816 142.978 45.2299C142.898 46.8095 141.527 47.5894 141.898 49.2697C141.912 49.3303 143.135 49.9014 142.08 49.8944C142.008 49.8922 141.61 49.2293 141.32 49.8348C141.03 50.4409 139.894 51.356 140.152 52.4439C140.212 52.7086 141.043 53.6115 140.087 53.7398C139.957 53.7567 139.616 53.5629 139.385 53.5717C138.643 53.6063 139.875 54.207 138.674 54.1354C137.872 54.0891 137.136 54.2481 136.871 54.7091C136.726 54.9791 136.716 55.3329 136.906 55.7173C136.921 55.759 137.932 56.1967 137.864 56.4769C137.797 56.7477 137.653 57.081 137.518 57.4031C137.429 57.6016 137.515 57.8572 137.625 58.0191C137.765 58.216 138.218 57.6918 138.251 57.7175C139.345 58.4253 140.012 59.5261 141.283 60.6677C141.518 60.8767 142.757 60.5693 142.895 61.4941C143.056 62.5117 140.781 64.9928 142.52 65.107C143.222 65.155 145.984 61.9289 145.862 64.3542C147.99 64.9597 149.152 66.891 151.366 67.3442C151.393 67.3499 151.477 67.2917 151.589 67.2069C151.872 66.9699 152.438 66.6172 152.591 66.7654C152.894 67.0661 152.617 67.5909 152.737 67.8005C153.214 68.7048 153.949 69.4196 154.204 70.3832C154.296 70.7454 153.721 70.7976 153.825 71.2245C153.93 71.6525 154.723 71.707 154.568 72.3826C154.449 72.8901 153.163 73.8218 153.231 74.4968C154.638 73.9845 154.753 74.3948 155.414 74.9053C155.541 75.0011 155.954 74.6506 156.038 74.6835C156.388 74.8054 156.104 75.2087 156.477 75.2986C156.567 75.3195 157.022 75.088 157.12 75.0893C157.29 75.0899 157.396 75.1325 157.459 75.2033C157.733 75.5358 157.28 76.3208 157.184 76.4816C156.732 77.253 157.422 77.1382 157.325 77.5974C157.228 78.0564 156.646 77.7519 156.681 78.209C156.753 79.1557 157.345 80.1107 157.737 80.9072C157.896 81.2233 158.387 80.6926 158.424 80.7305C158.916 81.2958 158.623 82.2923 160.011 82.0098C157.4 83.9272 159.983 82.5358 160.353 83.2251C160.389 83.2922 160.404 83.3756 160.394 83.4837C160.384 83.583 158.98 84.4766 158.612 84.3115C158.568 84.292 158.533 84.265 158.503 84.232C158.286 83.9913 158.406 83.4477 157.927 83.2616C157.799 83.2119 156.143 83.4099 156.022 83.3818C155.069 83.1564 157.223 81.9204 157.328 81.8272C158.451 80.8043 156.629 80.9393 156.437 80.8228C155.56 80.2922 155.525 79.4708 154.851 79.0002C154.412 78.691 152.952 79.4065 152.823 79.0546C152.648 78.5804 152.843 78.0617 152.983 77.61L152.991 77.6258C153.131 76.8481 153.216 76.298 151.818 75.9985C151.321 75.8907 149.77 76.8229 150.676 75.2939C150.729 75.1904 151.67 74.0422 150.775 73.9066C150.661 73.8885 150.171 74.0543 150.107 74.0009C149.69 73.638 149.99 73.2179 149.66 72.8329C149.33 72.4471 148.895 72.0542 148.929 71.6354C148.95 71.3847 149.749 70.794 149.923 70.6073C150.18 70.3483 150.022 70.275 149.902 70.2462C149.778 70.2119 149.697 70.2218 150.015 69.9574C150.609 69.3715 151.868 68.9373 151.939 68.1672C150.906 69.0285 149.86 69.9306 148.88 70.8633C148.948 70.9252 149.083 71.0112 149.225 71.0602C148.288 70.3301 147.369 69.4758 146.261 68.8912C146.09 68.8023 145.899 69.5271 145.706 69.448C144.895 69.1128 144.485 68.2841 143.584 68.003C142.885 67.7876 141.821 68.0576 141.061 67.8366C141.435 66.2729 140.195 66.1485 139.542 65.5825C139.313 65.3851 139.548 65.0469 139.439 64.8216C139.021 63.9755 138.62 65.3275 138.314 65.3879C136.993 65.6245 138.601 63.0076 137.618 62.4085C137.583 62.3909 135.944 63.2176 135.76 63.1973C134.703 63.2015 136.015 62.6743 135.696 62.2505C135.4 61.8492 135.172 61.4368 134.817 60.9304C134.638 60.6697 134.408 60.3763 134.109 59.9154C133.84 59.3762 133.178 58.7618 133.295 56.6963C133.302 56.6391 133.308 56.5795 133.317 56.5175C133.175 56.3208 132.309 55.7435 133.171 55.3322C133.287 55.2797 133.811 55.4229 133.854 55.3718C134.417 54.6351 133.623 54.1274 133.097 53.4549C132.922 53.3064 132.769 53.1541 132.682 52.9951C132.306 52.3012 133.689 51.9192 134.062 51.8849C135.031 51.7818 134.305 52.3176 134.379 52.3691C135.255 52.9645 135.281 52.3594 135.512 51.9778C137.104 52.489 137.217 51.8926 135.746 51.5809C135.585 51.5477 135.614 51.9215 135.512 51.9778C134.103 51.0565 134.149 50.3274 135.843 50.1886C136.637 50.1259 137.301 50.7258 137.388 49.6548C137.429 49.17 136.293 48.9171 136.151 48.419C135.831 47.2772 137.276 46.5475 137.469 45.597C137.539 45.2533 136.829 45.3355 136.857 45.092C136.928 44.4463 137.569 44.1059 137.57 43.4341C137.57 43.3727 136.905 43.2638 136.968 43.0782C137.186 42.4166 137.489 41.8364 137.807 41.255C138.166 40.5978 138.543 39.941 138.838 39.1753C139.108 38.4749 139.242 37.0842 139.586 36.3771C140.178 35.1479 141.665 33.9191 141.866 32.7404C141.999 31.9766 141.325 31.8913 141.023 31.4246C140.439 30.5159 142.309 30.0202 142.588 29.9713C142.598 29.9686 142.498 30.6466 142.944 30.4389C143.676 30.5052 142.588 29.9797 142.588 29.9713C142.77 29.9333 143.405 28.7476 143.392 28.4513C143.384 28.291 142.775 28.1286 142.782 28.0482C142.954 26.3417 143.397 24.7714 144.558 23.0129C144.673 22.8495 144.792 22.6919 144.916 22.5366C144.942 22.5154 145.528 22.9 145.583 22.8453C146.359 22.0999 145.937 21.1157 145.827 20.2469C145.715 19.3811 146.035 19.0945 147.287 19.2238C147.288 19.2144 147.289 19.2049 147.291 19.1955C147.439 18.5377 148.287 17.9008 148.794 17.5474C149.31 17.1883 148.106 16.5524 148.101 16.4973C147.948 14.7725 149.029 14.3135 149.821 12.9798C150.2 12.344 150.685 10.9514 150.926 10.172C151.114 9.55355 151.574 9.36653 151.671 8.7551C151.685 8.67155 151.113 8.45604 151.104 8.42337C150.781 7.49604 151.93 8.48413 152.228 8.48968C153.308 8.51843 153.897 8.50607 153.91 7.5583C153.915 7.33879 152.345 5.78758 152.427 5.39975C152.538 4.89668 153.1 5.4473 153.208 4.90672C153.22 4.85833 152.804 4.63257 153 4.35167C153.017 4.32747 153.034 4.30345 153.051 4.27961C153.119 4.19392 153.023 4.29393 152.751 4.91034C152.522 5.44949 151.896 7.12193 152.527 9.21956C153.178 11.2595 154.375 12.1228 154.868 12.4869C155.439 12.8773 155.737 12.9824 155.96 13.0713C156.371 13.2172 156.447 13.1984 156.494 13.1938C156.529 13.1822 156.489 13.1532 156.427 13.1245C156.147 13.0021 155.565 12.8842 154.999 12.8635C154.844 12.856 154.985 13.6169 154.758 13.6187C153.67 13.6259 152.372 13.5429 151.206 13.1554C151.106 13.122 151.063 13.0397 151.048 12.9395C151.033 12.8308 151.048 12.701 151.059 12.5898C151.065 12.5267 151.069 12.4695 151.064 12.4256C151.062 12.4094 151.059 12.3949 151.055 12.3827C150.707 11.4306 150.096 12.7817 150.012 12.8057C147.807 13.4083 146.131 12.1489 143.851 12.7149C143.726 12.7481 142.764 14.2049 142.35 12.9454C142.323 12.8616 141.912 11.5729 141.531 12.4495C141.507 12.5044 141.764 13.1679 141.31 13.0976C140.854 13.0275 140.116 13.4656 139.488 12.7359C139.287 12.5059 138.825 11.2216 138.224 12.2422C138.184 12.3134 137.262 14.6228 136.937 13.0274C136.884 12.7648 136.943 11.077 136.23 11.9415C136.094 12.1091 136.341 12.4858 135.982 12.7205C135.434 13.0823 134.708 12.6301 134.034 13.3823C133.917 13.5155 133.418 14.6614 133.015 13.7924C132.952 13.6563 133.071 13.0927 132.859 13.0299C131.85 12.7288 130.795 13.1082 129.769 12.7217C129.406 12.586 129.588 11.6744 129.209 11.4317C128.832 11.189 128.065 10.9573 127.672 11.3754C127.276 11.7936 127.716 13.2434 127.124 13.3623C124.547 13.8793 121.991 13.045 119.412 12.9435C119.03 12.9283 119.348 13.4449 118.793 13.4599C118.537 13.467 118.265 13.4807 117.986 13.4976C115.876 13.6204 112.946 13.9188 111.346 12.9738C109.89 12.1126 111.695 11.4108 110.586 11.0686C110.051 10.9055 109.5 12.6025 109.374 12.6577C108.121 13.2179 107.238 12.4843 106.099 12.7307C105.867 12.7817 106.105 13.4624 105.908 13.4982C105.219 13.627 104.51 13.3316 103.852 13.3963C103.563 13.4268 103.624 13.9485 103.35 13.9117C102.709 13.8296 102.138 13.6172 101.497 13.1352C101.44 13.0912 101.809 12.4368 101.343 12.4182C100.561 12.3903 99.6198 11.9179 98.7251 12.4265C98.4638 12.5794 98.4764 13.7735 97.897 12.9549C97.7795 12.7839 97.8982 11.3488 97.2679 12.5943C97.1624 12.8013 96.0726 14.4836 95.516 13.4117C95.452 13.2899 95.344 13.0027 95.2149 12.7306C95.0542 12.3725 94.8587 12.0408 94.6808 12.1473C94.6383 12.1771 94.8159 12.8168 94.555 12.8819C93.6208 13.1002 92.6589 13.0406 91.7198 13.25C91.4656 13.3073 91.8515 13.9675 91.4716 14.0316C90.4366 14.2088 89.148 14.0513 88.1206 13.8527C87.7511 13.7781 88.0012 13.2261 87.9738 13.1665C87.5329 12.1972 87.2847 13.513 87.1399 13.5909C86.2306 14.0577 85.552 13.4467 84.7163 13.6175C84.4889 13.6629 84.656 14.2878 84.6112 14.344C84.1448 14.8939 84.486 13.766 84.1857 13.6447C83.3356 13.3013 82.4115 13.36 81.5538 13.4479C81.2445 13.4811 81.5993 14.2041 81.3214 14.2255C79.6633 14.3659 77.9466 14.3126 76.3209 13.9281C76.0171 13.8544 76.2023 13.2933 76.1378 13.1662C75.6938 12.2769 75.0642 13.5021 74.9174 13.6197C74.2491 14.1566 73.9886 13.6647 73.3962 13.763C70.5077 14.252 66.9361 13.964 64.2057 13.7953C60.6517 13.5789 57.8809 13.0846 54.5014 13.2766C54.285 13.2882 54.5152 14.0285 54.3291 14.048C51.9386 14.2661 49.5769 14.0177 47.1921 14.2832C46.9977 14.3036 47.2931 15.0028 46.9822 15.0593C46.3397 15.1804 45.5269 15.1603 44.8651 14.9509C44.5424 14.8501 44.957 14.2348 44.6328 14.1457C43.926 13.9464 43.1477 13.9105 42.4386 14.023C42.4021 14.0286 42.3656 14.0346 42.3294 14.0409C42.0028 14.0997 42.5166 14.8069 42.0924 14.8272C39.2555 14.9801 36.4903 15.2122 33.6034 14.4536C33.4041 14.4017 33.1532 12.9482 32.7474 13.2568C32.7432 13.6648 32.7767 14.1423 32.7922 14.5771C31.3338 14.7599 29.865 14.8648 28.44 14.9561C26.8798 15.0366 26.0344 15.1675 23.3038 15.2422C22.1004 15.21 20.9073 15.1698 19.7156 15.1496C19.5294 15.1466 19.8522 15.9233 19.4907 15.9212C17.4046 15.9085 15.3811 16.0904 13.2961 15.2595C13.0886 15.1779 13.2336 13.8155 12.6156 14.0034C12.5093 14.0383 11.5754 14.1898 11.3289 14.4773C11.2945 14.5208 11.4418 15.1644 11.1406 15.1721C9.40087 15.2057 7.5866 14.9764 5.87648 14.4884C5.59745 14.4081 5.93686 13.7473 5.73957 13.6843C4.35341 13.2426 2.7865 13.6568 1.43686 12.9198C0.530851 12.4203 0.980098 11.282 0.604586 10.0811C0.552398 9.9132 -0.0349278 9.81477 0.00163773 9.13698C0.193922 7.45632 0.696564 5.6583 0.851742 3.85981C0.881047 3.66951 0.707604 3.64549 0.870007 3.61508C0.894888 3.60511 1.01394 3.61019 1.19217 3.63844C1.36418 3.66233 1.62086 3.73252 1.71447 3.72416C1.95765 3.70671 1.00211 3.1705 0.997407 2.96704C0.958589 2.92584 0.89823 2.82216 1.00699 2.71164C1.09313 2.59743 1.24813 2.45768 1.3098 2.30457C1.39998 2.09349 1.36183 1.40081 1.52588 1.13602C1.70194 0.872511 1.80085 1.45938 2.10661 1.1559C2.40435 0.846773 2.35807 0.0626698 2.91612 0.0175233ZM151.12 15.9512C151.921 15.7872 149.796 14.6863 150.08 15.4206C150.096 15.4575 151.08 15.9606 151.12 15.9512ZM148.546 68.0636C148.537 66.8347 147.387 67.9622 147.357 68.8876C147.325 69.8113 148.547 68.4351 148.546 68.0636ZM152.272 71.2317C152.833 70.2863 149.603 71.3327 150.473 71.7623C150.523 71.7886 152.239 71.2859 152.272 71.2317ZM2.87222 9.95226C2.87438 9.92072 2.46697 9.85807 2.45776 9.88875C2.18229 10.6296 2.98635 10.7537 2.87222 9.95226ZM155.561 77.1474C155.859 76.7283 155.079 76.3919 154.71 76.914C154.413 77.331 155.19 77.6679 155.561 77.1474ZM144.894 6.53791C144.885 6.50213 144.608 6.46699 144.611 6.6686C144.622 7.31788 145.015 7.13901 144.894 6.53791ZM160.996 86.9412C160.091 85.389 162.138 83.2291 162.703 84.7967C162.816 85.0855 161.599 84.7139 161.588 85.1765C161.606 86.0742 163.282 85.4097 162.982 86.5326C162.941 86.7628 161.054 87.0603 160.991 86.941C160.993 86.9411 160.994 86.9412 160.996 86.9412ZM153.835 16.9329C153.868 16.938 154.064 16.5989 154.04 16.5774C153.447 16.0563 153.05 16.7426 153.835 16.9329ZM128.485 5.02327C128.462 4.95588 127.562 4.89667 127.53 4.95899C127.065 6.2032 128.891 6.32653 128.485 5.02327ZM144.981 41.5351C145.546 42.2012 145.45 42.7117 144.432 42.6888C144.629 42.3119 144.787 41.9148 144.981 41.5351Z" fill="var(--stroke-0, #467603)"/>
</svg>
