<svg preserveAspectRatio="none" width="100%" height="100%" overflow="visible" style="display: block;" viewBox="0 0 24 24" fill="none" xmlns="http://www.w3.org/2000/svg">
<g id="Battery horiz 075" opacity="0.8">
<path id="Vector" d="M22 16C22 16.2833 21.904 16.5207 21.712 16.712C21.5207 16.904 21.2833 17 21 17H5C4.71667 17 4.479 16.904 4.287 16.712C4.09567 16.5207 4 16.2833 4 16V14H3C2.71667 14 2.47933 13.904 2.288 13.712C2.096 13.5207 2 13.2833 2 13V11C2 10.7167 2.096 10.479 2.288 10.287C2.47933 10.0957 2.71667 10 3 10H4V8C4 7.71667 4.09567 7.479 4.287 7.287C4.479 7.09567 4.71667 7 5 7H21C21.2833 7 21.5207 7.09567 21.712 7.287C21.904 7.479 22 7.71667 22 8V16ZM10 15V9H6V15H10Z" fill="var(--fill-0, black)"/>
</g>
</svg>
