<svg preserveAspectRatio="none" width="100%" height="100%" overflow="visible" style="display: block;" viewBox="0 0 100 100" fill="none" xmlns="http://www.w3.org/2000/svg">
<path id="graphic" fill-rule="evenodd" clip-rule="evenodd" d="M14.6446 14.6446C9.6329 19.6564 7.8229 26.6575 9.2147 33.1062C3.67066 36.6819 0 42.9123 0 50C-8.7078e-07 57.0875 3.67066 63.318 9.2147 66.894C7.8229 73.3425 9.6329 80.3435 14.6446 85.3555C19.6564 90.367 26.6575 92.177 33.1062 90.7855C36.682 96.3295 42.9123 100 50 100C57.0875 100 63.318 96.3295 66.894 90.7855C73.3425 92.177 80.3435 90.367 85.3555 85.3555C90.367 80.3435 92.177 73.3425 90.7855 66.894C96.3295 63.318 100 57.0875 100 50C100 42.9123 96.3295 36.6819 90.7855 33.1062C92.177 26.6575 90.367 19.6564 85.3555 14.6446C80.3435 9.6329 73.3425 7.8229 66.894 9.2147C63.318 3.67066 57.0875 0 50 0C42.9123 0 36.6819 3.67066 33.1062 9.21465C26.6575 7.8229 19.6564 9.6329 14.6446 14.6446Z" fill="var(--fill-0, #C5B661)"/>
</svg>
