<svg preserveAspectRatio="none" width="100%" height="100%" overflow="visible" style="display: block;" viewBox="0 0 21.8309 34.5457" fill="none" xmlns="http://www.w3.org/2000/svg">
<path id="Vector 157" d="M21.8034 5.16725C21.9287 5.40464 21.6066 5.60627 21.2329 5.72003C21.1164 5.75686 20.7363 5.56482 20.6374 5.58515C20.4472 5.61816 20.6017 5.79437 20.3824 5.81688C20.3071 5.82515 19.6965 5.54176 19.6318 5.55639C19.2795 5.64417 19.3703 5.88574 19.1618 6.03307C18.1322 6.7636 17.5345 7.67354 16.8806 8.60569C16.6675 8.90784 15.9442 9.12926 16.0744 9.56746C16.0901 9.61908 16.6557 9.78767 16.6989 9.81142C17.3591 10.1781 16.2486 9.74748 16.071 9.77714C15.3706 9.89193 15.1955 10.2346 15.3059 10.6157C15.3539 10.7802 16.5078 11.0248 15.84 10.9467C15.7948 10.9417 15.2137 10.7059 15.138 10.7211C14.9672 10.7565 15.0218 10.9437 14.9531 10.992C14.818 11.0827 14.817 11.1052 14.7705 11.2205C14.7022 11.375 14.3451 11.4601 14.4215 11.6783C14.4396 11.7253 15.0644 11.881 15.1482 11.9744C15.1772 12.0067 15.1837 12.0444 15.1731 12.0802C15.1565 12.1373 15.0797 12.1864 14.976 12.1855C14.8172 12.1839 14.344 12.008 14.2314 11.9802C13.2803 11.7484 14.5144 12.3271 14.5407 12.3554C14.9663 12.8996 14.1329 13.0049 14.0303 13.3796C13.9547 13.6628 14.1197 14.0307 14.0162 14.2938C13.8907 14.6057 13.4842 14.8018 13.4656 15.1382C13.4629 15.1734 14.2065 15.3083 14.2049 15.3513C14.1869 15.8073 14.0089 16.2229 13.4146 16.5602C13.3543 16.5941 12.7192 16.3961 12.6202 16.4219C12.0286 16.5803 10.6538 16.7648 13.446 17.5101C13.2974 17.6736 13.1374 17.8784 12.5336 17.9329C12.1448 17.969 11.4579 17.722 11.7332 17.9172C11.7945 17.961 12.4224 18.0443 12.4675 18.1004C12.6569 18.3354 12.4141 18.5066 12.6985 18.7568C12.7578 18.8082 13.316 18.9049 13.414 18.9351C14.2075 19.1827 12.8375 19.0774 12.7336 19.0924C11.9582 19.2091 12.2091 19.4501 12.1468 19.6854C12.1321 19.7397 12.8922 19.8141 12.9049 19.8712C12.9606 20.1675 12.8436 20.4416 12.4616 20.6531C12.3747 20.7002 11.7475 20.5272 11.6734 20.5438C11.3543 20.6185 12.5536 20.865 12.2707 20.9416C12.2126 20.958 11.6696 20.8434 11.6088 20.8372C10.6542 20.7398 11.9756 21.0479 12.0016 21.0722C12.3596 21.3873 10.9397 21.2867 11.0934 21.5587C11.1133 21.5913 11.8153 21.6552 11.8288 21.7389C11.8982 22.1575 11.7528 22.56 11.4017 22.9185C11.2808 23.0408 11.1378 23.1476 10.97 23.255C10.8693 23.3197 10.3632 23.1604 10.2984 23.153C9.28526 23.041 10.6106 23.355 10.6558 23.3908C10.9772 23.6696 9.81975 23.6408 11.3826 24.0947C10.6605 24.8582 11.3794 25.9025 9.80073 26.4666C9.78224 26.4744 9.12598 26.3366 9.0919 26.353C8.67613 26.5427 9.70943 26.6831 10.9439 27.0286C11.2548 27.1091 9.71922 26.9784 9.60591 26.9759C9.18978 26.9523 8.20644 26.783 8.12511 26.7839C7.48314 26.8108 10.7543 27.2708 10.7635 27.159C10.7581 27.1561 10.1512 27.1392 10.0913 27.1285C9.90094 27.0988 10.1532 27.0682 9.9208 26.875C9.78494 26.7757 9.58369 26.6215 9.23976 26.42C8.96874 26.5651 8.68307 26.7504 8.54403 26.8566C8.39492 26.9545 8.44069 27.0077 8.6057 26.6844C8.62869 26.6261 8.9456 26.24 9.16293 25.816C9.26705 25.6023 9.34535 25.3742 9.28478 25.1551C9.20413 24.9298 8.93203 24.6823 8.4239 24.6563C8.23052 24.6461 7.83677 24.652 7.45904 24.7742C7.05291 24.9059 6.83162 25.0618 6.64936 25.2094C6.33144 25.4889 6.30979 25.6095 6.3294 25.6753C6.38577 25.8064 6.91612 26.0994 6.93204 26.1222C7.59139 26.5688 7.89654 26.7082 8.97521 27.1907C10.0824 27.607 7.55165 26.3964 7.27607 26.2477C6.99913 26.1045 7.63679 26.2878 7.863 26.3377C8.08557 26.3976 8.42668 26.5757 8.55709 26.5985C9.41855 26.7184 7.289 26.0195 6.89078 25.815C5.93609 25.359 7.93105 25.9509 8.17052 25.8709C8.23397 25.8526 7.77339 25.7384 7.74055 25.6951C7.61559 25.5274 8.26125 25.6326 7.72956 25.3271C7.64366 25.2748 6.46911 24.8321 7.37349 25.0016C7.50413 25.0252 7.99643 25.1902 8.12318 25.1655C8.31331 25.1291 8.46313 25.0016 8.31704 24.8713C8.2092 24.7741 7.36183 24.6433 7.63957 24.6253C7.76367 24.6168 8.23164 24.8056 8.42464 24.7781C8.61819 24.7486 8.63945 24.5651 8.63883 24.4912C8.63782 24.4178 7.99801 24.3094 7.95683 24.2939C7.72126 24.2036 7.44629 24.005 7.44935 23.9947C7.50019 23.4114 8.68122 23.0798 8.43855 22.4258C8.42035 22.375 7.74361 22.2774 7.73391 22.2683C7.48231 22.0596 9.24301 22.5218 9.86127 22.5238C8.49628 22.2825 8.75522 22.2641 8.62649 22.1254C8.56334 22.0584 8.0303 21.9891 7.97721 21.9742C7.19038 21.7468 8.23563 21.8846 8.45012 21.9092C9.23898 22.0005 8.32871 21.7741 8.8562 21.8337C9.37986 21.8922 10.1312 22.1159 10.1411 22.0058C9.65845 21.8869 8.36845 21.7334 8.1764 21.6151C7.44925 21.1734 8.5509 20.782 8.69722 20.5532C8.84394 20.3229 8.76641 20.2322 8.96803 20.1157C9.33176 19.909 8.36634 19.8485 7.95965 19.6116C7.55266 19.3763 9.87389 19.8463 10.3797 19.9068C10.8852 19.9678 10.373 19.8564 10.6535 19.8742C10.9339 19.892 11.2649 20.0101 11.3795 19.961C11.4936 19.9147 10.6327 19.5761 10.1115 19.4669C9.00781 19.2324 7.82744 19.1188 8.2663 19.0137C8.29235 19.0073 8.90073 19.143 8.96941 19.1134C9.47382 18.8884 9.56992 18.5844 9.99431 18.3512L9.98708 18.4301C10.0024 18.4185 10.0184 18.4069 10.0348 18.3953C10.0947 18.3537 10.7865 18.4023 10.8291 18.3782C11.276 18.1243 10.1073 18.1975 8.81297 18.0332C10.5381 18.0951 11.5951 18.0317 11.6088 17.8356C11.6177 17.7176 10.8637 17.7239 10.334 17.6358C10.1743 17.6081 10.6934 17.5356 10.3392 17.5134C9.18165 17.4404 7.88309 17.4966 8.40361 17.2986C8.42834 17.2899 9.06193 17.3317 9.10097 17.3008C9.35636 17.1062 8.14509 17.0544 8.00292 16.8343C7.89139 16.6603 8.63707 16.3718 8.76176 16.1807C10.7015 16.2297 10.2616 16.037 8.92589 15.9296C8.98361 15.8064 8.91133 15.6671 9.09921 15.5497C9.16327 15.5096 9.72422 15.5508 9.78503 15.5471C10.739 15.4904 9.43915 15.4032 9.38882 15.3746C8.9004 15.0662 9.89282 14.853 8.93666 14.5455C8.90222 14.5347 7.5553 14.4814 8.54113 14.433C8.60908 14.43 9.21958 14.5392 9.27058 14.4087C9.32169 14.278 10.0509 14.0486 9.43186 13.8474C9.28283 13.7987 8.19235 13.6541 9.04953 13.5889C9.16592 13.5803 9.55194 13.6047 9.76747 13.5937C10.4542 13.5578 9.09338 13.4871 10.2522 13.4553C11.411 13.4233 12.2814 13.3138 11.4889 13.1051C11.4658 13.0985 10.3879 13.0218 10.4067 12.9641C10.4378 12.8723 10.6667 12.7476 10.6627 12.6506C10.6604 12.6041 9.98934 12.6126 9.97733 12.6041C9.6117 12.2798 10.2164 12.0765 10.4869 11.7514C10.5379 11.6917 9.63009 11.4845 10.3567 11.3907C11.1521 11.2881 14.4371 11.5363 13.6638 11.213C13.3546 11.0828 9.18674 10.7776 11.357 10.6405C10.837 10.2009 11.9588 9.85633 11.2116 9.40453C11.1785 9.38431 10.0165 9.27519 10.0343 9.23156C10.0629 9.16592 10.6088 9.15251 10.6467 9.10679C10.8192 8.91752 10.3618 8.7129 10.4431 8.52652C10.4729 8.45438 11.0343 8.50635 11.0699 8.42146C11.1049 8.33673 10.3667 8.24538 10.7304 8.14371C11.0076 8.06702 12.5259 8.06065 12.7085 7.95154C11.2153 7.86961 11.2502 7.79036 10.8637 7.62802C10.7887 7.59581 10.2673 7.59781 10.2051 7.58108C9.94016 7.51212 10.3736 7.48612 10.0849 7.41956C10.0155 7.40339 9.50565 7.37431 9.42019 7.35942C9.19433 7.32076 9.14268 7.28676 9.18603 7.25819C9.28558 7.19492 9.88936 7.15572 10.0296 7.14608C10.793 7.09602 10.1321 7.0166 10.4346 6.9618C10.737 6.90732 11.1048 7.03256 11.2904 6.96009C11.6744 6.80881 11.6036 6.58354 11.6359 6.41088C11.6457 6.34134 10.9624 6.35448 10.948 6.34372C10.7826 6.19179 11.514 6.08259 10.1616 5.937C13.6733 6.00743 9.82568 5.83396 10.5373 5.6641C10.5949 5.65054 12.2543 5.70756 12.4949 5.78134C12.7352 5.85565 12.2123 5.92553 12.5876 6.03049C12.6757 6.05528 14.2239 6.2493 14.3172 6.27063C15.0465 6.43446 12.5676 6.32809 12.4312 6.32785C10.9586 6.32881 12.6252 6.55729 12.739 6.60105C13.2599 6.80251 12.9038 6.93038 13.2743 7.09546C13.5136 7.20421 15.1361 7.29953 15.0823 7.37235C15.0211 7.45474 14.7112 7.504 14.4113 7.54828C13.8416 7.62793 13.3082 7.69098 14.5866 7.90455C15.0028 7.97468 16.7791 8.01919 15.3753 8.11761C15.2868 8.12445 14.0042 8.18558 14.8077 8.30025C14.9091 8.31461 15.4261 8.34007 15.4689 8.35442C15.7458 8.4502 15.3312 8.48548 15.5243 8.58291C15.7173 8.68033 16.0063 8.80477 15.8263 8.89619C15.7186 8.95214 14.7515 8.98794 14.5142 9.00742C13.8308 9.06292 14.9412 9.1996 14.1159 9.21596C13.2865 9.23272 12.0349 9.07357 11.4944 9.19043C12.8379 9.25388 14.2166 9.32543 15.5676 9.39202C15.5074 9.689 15.0606 9.96927 15.1081 10.2747C15.1154 10.3126 15.8394 10.3025 15.8658 10.3438C15.9739 10.5187 15.4532 10.646 15.6517 10.8312C15.8082 10.9741 16.5678 11.1509 16.7554 11.301C15.2143 11.3323 15.7288 11.5645 15.583 11.7134C15.5326 11.7658 15.1219 11.748 14.9865 11.782C14.4859 11.9106 15.8475 11.8886 16.0601 11.9357C16.9672 12.1372 13.8901 12.0481 13.9594 12.2535C13.9621 12.2645 15.5978 12.4488 15.6994 12.4698C16.3617 12.6055 15.1279 12.4703 15.0044 12.5379C14.7788 12.6614 14.3842 12.7402 14.8598 12.9087C15.0007 12.958 16.0196 13.0967 15.2263 13.1592C15.1224 13.1674 14.5804 13.1445 14.5484 13.1527C14.0141 13.3035 15.7174 13.3596 16.2915 13.4716C16.8655 13.5834 15.6852 13.6956 15.3454 13.7156C14.4663 13.7681 14.9724 13.6446 14.8865 13.6378C13.8641 13.5577 14.0372 13.6704 13.9483 13.7499C12.2776 13.7131 12.3745 13.8311 13.8628 13.8325C14.0254 13.8325 13.8715 13.7642 13.9483 13.7499C15.585 13.8696 15.7912 14.0012 14.2558 14.0969C13.5362 14.1418 12.701 14.0561 13.0016 14.2636C13.1373 14.3579 14.2884 14.355 14.5998 14.443C15.3102 14.6428 14.2309 14.8503 14.3951 15.0413C14.4547 15.111 15.086 15.0611 15.1485 15.1093C15.3161 15.2374 14.841 15.3309 15.0798 15.4621C15.1023 15.4739 15.762 15.4632 15.7695 15.5019C15.8387 15.7931 15.4104 16.0355 15.3917 16.339C15.3829 16.4852 15.7406 16.7527 15.6643 16.9047C15.5359 17.1609 14.5707 17.4698 14.7995 17.6946C14.9458 17.8456 15.6057 17.8246 16.0538 17.8949C16.9224 18.0263 15.359 18.2161 15.1171 18.2381C15.109 18.2392 14.9557 18.1132 14.6161 18.1734C13.9102 18.2 15.114 18.2367 15.1171 18.2381C14.9908 18.2508 14.8662 18.418 14.8891 18.5035C14.8458 18.6319 14.8903 19.05 14.828 19.1703C14.8303 19.1908 14.8415 19.2089 14.8639 19.2219C14.9276 19.2587 15.546 19.3485 15.5676 19.3657C16.0643 19.7824 16.166 20.1416 15.8205 20.4381C15.807 20.4421 15.1192 20.3183 15.0961 20.3291C14.7558 20.4814 15.5787 20.7442 16.0507 20.9981C16.523 21.2492 16.3331 21.3528 15.1332 21.2529C15.2607 21.4048 14.7071 21.495 14.3717 21.5462C14.0365 21.5963 15.3746 21.8416 15.3995 21.8557C16.1975 22.2918 15.4009 22.3265 15.2274 22.608C15.1429 22.7399 15.2848 23.0628 15.4018 23.2472C15.4965 23.3938 15.1691 23.4103 15.3476 23.5634C15.3714 23.5841 15.9696 23.6808 15.9916 23.6899C16.6789 23.955 15.236 23.6164 14.9711 23.5937C14.008 23.5104 13.4942 23.4707 13.9067 23.7197C14.0013 23.7764 16.0718 24.2978 16.1797 24.3943C16.3165 24.5179 15.5739 24.334 15.7362 24.4667C15.7494 24.4779 16.2121 24.5686 16.1796 24.6246C16.0345 24.8886 15.7019 25.141 15.6835 25.448C15.6791 25.4897 16.4214 25.5956 16.4268 25.6603C16.4515 25.9627 16.3511 26.2785 15.9418 26.4822C15.8383 26.534 15.3404 26.3651 15.1855 26.3442C14.249 26.2151 15.5431 26.6743 15.5622 26.705C16.0561 27.4249 14.7583 27.5066 15.0858 28.3882C15.1097 28.428 16.3735 29.2547 15.1263 28.9954C15.0408 28.9848 13.7919 28.6529 14.5412 29.1399C14.5867 29.1733 15.2508 29.3021 15.0976 29.4919C15.0201 29.5878 15.043 29.7685 14.9698 29.9475C14.8875 30.1454 14.7042 30.3448 14.2623 30.3825C14.118 30.403 13.7119 30.3492 13.4076 30.4082C13.0953 30.4728 12.9212 30.6321 12.936 31.3839C12.9365 31.4095 12.9792 31.6002 12.9772 31.8885C12.9742 32.0342 12.9682 32.1965 12.9186 32.3906C12.8523 32.5993 12.7516 32.8281 12.6027 33.0605C12.2933 33.5303 11.8525 33.9852 11.0783 34.2973C10.2887 34.6196 9.33627 34.6426 8.72455 34.2815C8.52954 34.1601 8.48606 33.6887 7.98264 33.3316C7.54025 32.9699 6.36357 32.6792 4.92249 32.2381C4.40582 32.0728 4.93626 32.9701 3.70885 32.2917C3.47868 32.1539 3.25966 31.9832 3.09041 31.8334C2.94509 31.7104 2.81566 31.5792 2.69958 31.4469C2.46706 31.1818 2.28899 30.914 2.12476 30.6742C1.45269 29.5197 1.3528 28.8744 1.23358 28.4278C1.18524 28.2212 1.14938 28.0404 1.11877 27.8791C1.09115 27.7445 1.06667 27.6232 1.04272 27.5121C0.950541 27.0899 0.852092 26.8761 0.684534 26.6698C0.555402 26.5221 -0.545094 25.9644 0.34378 25.8803C0.482639 25.8677 1.03484 25.9913 1.10955 25.9045C1.4655 25.5242 1.1386 25.2207 1.5657 25.041C1.71557 24.9811 2.60515 25.1809 2.85994 25.1436C3.11517 25.1034 3.37578 24.9851 2.98184 24.8275C2.58797 24.6686 1.14392 24.4922 1.05374 24.3433C0.660781 23.7064 1.59351 23.3764 1.81461 22.8951C1.84713 22.8259 1.3254 22.7869 1.33701 22.6764C1.37841 22.2642 1.03529 21.4831 2.18632 21.3485C3.10831 21.2404 3.70039 21.72 4.09519 21.5756C4.14432 21.5572 4.0699 21.5139 3.9321 21.4592C3.53881 21.3131 2.63371 21.0759 2.59834 21.0518C2.11089 20.7285 2.87502 20.7102 2.6889 20.4568C2.65029 20.4041 1.96972 20.3221 1.94425 20.2788C1.85025 20.1353 2.17626 20.0512 2.14327 19.9218C2.12715 19.8622 1.61141 19.7779 1.66041 19.7343C1.77213 19.6268 2.00738 19.5614 2.51133 19.5279C2.55725 19.5249 3.18295 19.7164 3.22358 19.6287C3.28718 19.4881 3.79659 19.3879 3.33704 19.1279C3.19877 19.0498 2.02452 18.8328 2.85604 18.8705C3.02968 18.8786 4.4348 19.1657 3.23965 18.8145C3.04089 18.7569 1.43772 18.2352 2.5168 18.3238C2.80077 18.3472 3.96776 18.4892 3.79801 18.3933C3.77066 18.3795 3.13369 18.2965 3.0818 18.2332C2.91019 18.0107 3.01291 17.8333 2.85126 17.6062C2.80677 17.5457 2.14036 17.498 2.09495 17.4114C1.96938 17.1719 2.18508 16.9427 2.42895 16.7754C2.51991 16.7149 3.04971 16.8712 3.10952 16.877C4.08194 16.9742 2.8024 16.6724 2.73297 16.6282C2.31856 16.3565 2.95137 16.3362 2.82481 16.1348C2.79155 16.0794 2.17059 15.9908 2.11766 15.9706C1.60183 15.7666 2.69064 16.0585 2.82448 16.0212C3.20269 15.9195 3.19215 15.7169 3.14911 15.5276C3.13247 15.4576 2.40619 15.3843 2.39956 15.3228C2.34715 14.9544 2.49059 14.609 2.95488 14.3555C3.0436 14.3081 3.58157 14.4662 3.70928 14.48C4.60212 14.579 3.43989 14.1879 3.3334 14.1315C2.84638 13.8775 3.34154 13.9289 3.27904 13.7851C2.96564 13.0774 3.4661 12.3851 3.81203 11.8476C4.26069 11.1425 4.93596 10.6892 5.02829 9.90078C5.03501 9.85055 4.30816 9.684 4.30501 9.63736C4.29989 9.2448 4.4982 8.90694 4.63083 8.54411C4.68847 8.38893 4.7266 8.22916 4.70956 8.05201C4.70668 8.0095 4.02025 7.83787 3.99319 7.76201C3.932 7.60778 4.02392 7.45563 4.2794 7.40349C4.40291 7.37716 4.94823 7.6535 5.06079 7.62318C5.324 7.55355 5.423 7.41847 5.36704 7.23234C5.34154 7.15333 4.62643 7.01545 4.64651 6.93083C4.76742 6.35512 4.84043 5.76243 5.91869 5.50808C5.99271 5.49071 7.38833 5.94088 7.15107 5.76776C6.76919 5.62726 6.31738 5.46942 5.90788 5.32304C5.97035 4.436 6.73595 3.80168 7.10933 3.00988C7.125 2.97622 6.37357 2.76932 6.40024 2.70268C6.55294 2.31926 6.49198 1.86459 7.36648 1.73358C7.45218 1.72034 8.72161 2.22671 8.57355 2.034C8.54649 1.99885 8.44197 1.76077 8.18195 1.61022C8.1426 1.58786 7.53392 1.39387 7.53904 1.32833C7.5751 0.962367 7.84819 0.660785 8.34799 0.458977C8.43028 0.425655 9.03717 0.737566 9.10106 0.716547C9.5466 0.573027 9.19171 0.0740343 9.89331 0.00285172C10.3662 -0.0441248 11.4102 0.49973 12.5138 0.862931C12.6672 0.918275 12.7614 0.777697 13.3738 1.05795C14.8897 1.80707 16.5452 2.63627 18.1693 3.4178C18.3345 3.51777 18.3603 3.46649 18.2812 3.73354C18.268 3.77161 18.2515 3.81648 18.2306 3.86912C18.199 3.93535 18.2258 3.92862 18.0745 4.16069C17.939 4.35595 17.7437 4.65897 17.217 5.07642C16.7344 5.49929 15.6244 5.9138 15.0343 5.94485C14.749 5.97608 14.6405 5.98059 14.7683 5.99586C14.8893 6.00785 15.2556 6.01718 15.716 5.9254C16.6899 5.75053 17.5733 5.1311 17.9428 4.78373C18.3365 4.43379 18.5532 4.14744 18.6024 4.16602C18.6932 4.11477 18.7813 4.07135 18.8665 4.04024C19.0445 3.85148 19.3409 3.93675 19.6273 4.07868C19.8279 4.16901 20.4477 4.45818 20.7062 4.57013C20.9642 4.68252 20.4376 4.45571 20.7286 4.61615C21.0246 4.77572 21.7449 5.06954 21.8034 5.16725ZM12.8731 21.7681C12.213 21.7499 14.5668 22.18 14.0214 21.9764C13.9922 21.966 12.9055 21.7687 12.8731 21.7681ZM13.2575 9.8944C12.198 9.97541 13.7453 10.1226 14.5632 10.0677C15.3802 10.0135 13.5787 9.87002 13.2575 9.8944ZM12.5433 8.58538C11.7052 8.69226 15.0937 8.87017 14.4156 8.6859C14.3773 8.6752 12.5919 8.57919 12.5433 8.58538ZM12.6216 1.44393C12.6516 1.45446 12.7108 1.39331 12.6835 1.37706C12.0005 1.04073 11.8784 1.17319 12.6216 1.44393ZM11.7713 7.27432C11.4427 7.28911 11.6138 7.37379 11.9466 7.41319C12.0498 7.42757 12.1688 7.43527 12.2932 7.43533C12.3303 7.43201 12.3677 7.4311 12.4053 7.42938C12.8663 7.40819 12.3444 7.24851 11.7713 7.27432ZM9.28518 26.2197C9.25071 26.2106 9.2034 26.2532 9.39556 26.3139C10.0146 26.5095 9.86507 26.3751 9.28518 26.2197ZM11.84 5.08952C11.6982 5.40697 8.88943 5.47247 9.22098 5.13982C9.28096 5.07925 10.1078 5.31564 10.3638 5.24656C10.8303 5.11971 9.07649 4.94452 10.0252 4.83544C10.1988 4.81576 11.8543 5.0716 11.8439 5.09027C11.8426 5.09002 11.8413 5.08977 11.84 5.08952ZM10.033 21.3244C10.0015 21.3208 9.95874 21.3905 9.9893 21.3978C10.7301 21.5709 10.8169 21.4295 10.033 21.3244ZM9.19234 26.1555C9.25911 26.1648 9.35322 26.0038 9.29308 25.9878C8.08912 25.6678 7.8945 25.9964 9.19234 26.1555ZM8.81357 16.1788C8.0515 16.078 7.96394 15.9745 8.92491 15.9299C8.87198 16.0127 8.86251 16.0967 8.81357 16.1788Z" fill="var(--stroke-0, #DEE5FF)"/>
</svg>
