<svg preserveAspectRatio="none" width="100%" height="100%" overflow="visible" style="display: block;" viewBox="0 0 23.0138 45.4056" fill="none" xmlns="http://www.w3.org/2000/svg">
<path id="Vector 148" d="M23.0129 5.2335C23.0364 5.70701 22.6152 6.12491 22.1661 6.39806C22.0269 6.48266 21.6631 6.2546 21.5495 6.3054C21.3278 6.40491 21.4549 6.63734 21.204 6.72536C21.1191 6.75328 20.5297 6.42282 20.4548 6.45814C20.0492 6.65333 20.0834 7.01067 19.818 7.27132C18.5157 8.54057 17.6426 9.9736 16.7172 11.4239C16.4147 11.8972 15.5902 12.3063 15.6241 12.9365C15.6281 13.0114 16.1903 13.1938 16.2305 13.224C16.8457 13.6882 15.7663 13.1821 15.5709 13.2445C14.7978 13.4946 14.5342 14.0114 14.5639 14.5596C14.5788 14.7918 15.7461 15.0225 15.0574 14.9787C15.0108 14.9761 14.4467 14.6993 14.3638 14.7282C14.1758 14.7965 14.1887 15.0725 14.1068 15.147C13.9446 15.2928 13.9372 15.3297 13.8649 15.4983C13.7606 15.7279 13.3642 15.8953 13.4002 16.2036C13.4102 16.2687 14.0378 16.4229 14.1083 16.5462C14.1794 16.667 14.0434 16.8771 13.874 16.8995C13.7042 16.9225 13.2425 16.7163 13.1291 16.6898C12.173 16.4615 13.3445 17.1955 13.3659 17.2351C13.6842 18.0322 12.779 18.2926 12.6168 18.8239C12.5692 18.983 12.5624 19.1688 12.5763 19.3121C12.5974 19.5026 12.6276 19.7283 12.5662 19.9395C12.4384 20.3729 12.0263 20.7564 12.0099 21.271C12.0075 21.3255 12.7633 21.3733 12.7618 21.4399C12.7467 22.1445 12.5682 22.8453 11.9656 23.4955C11.9043 23.5619 11.2606 23.3784 11.1602 23.439C10.5607 23.8068 9.16991 24.3319 11.9927 24.9845C11.8407 25.2675 11.675 25.6236 11.0627 25.8105C10.6682 25.9345 9.97607 25.6672 10.2519 25.9244C10.3135 25.981 10.9482 26.0046 10.9931 26.0832C11.1535 26.3683 10.9961 26.6299 11.121 26.9196C11.1432 26.965 11.1737 27.0113 11.2158 27.0588C11.2754 27.1249 11.839 27.1841 11.938 27.2135C12.7389 27.4557 11.3566 27.5024 11.2516 27.5434C10.4701 27.8335 10.7265 28.153 10.6693 28.5116C10.6558 28.5948 11.4229 28.5779 11.4371 28.6603C11.5009 29.0867 11.3932 29.5106 11.019 29.8913C10.934 29.9758 10.2964 29.8321 10.2227 29.8697C9.90568 30.0376 11.121 30.1901 10.8413 30.3519C10.7839 30.3864 10.2331 30.3161 10.1718 30.318C9.20899 30.3483 10.5509 30.5627 10.5783 30.5936C10.9551 30.9911 9.52606 31.1118 9.69865 31.4843C9.72077 31.5287 10.428 31.486 10.4474 31.6071C10.5813 32.4124 10.3357 33.232 9.73583 33.9875C9.64355 34.105 9.12115 33.9922 9.05584 33.9965C8.03512 34.0722 9.39066 34.2209 9.44005 34.2624C9.7942 34.5889 8.64211 34.8438 10.2551 35.1089C10.0009 35.6461 10.0121 36.1941 10.0186 36.6835C10.0209 36.8456 10.0238 36.9959 10.0151 37.1117C10 37.2118 10.0076 37.3534 9.89413 37.1525C9.85889 37.0951 9.82128 37.005 9.68127 36.7908C9.52934 36.6129 9.28787 36.0622 8.20997 35.7598C7.693 35.6353 7.18127 35.7302 6.89621 35.846C6.59295 35.9665 6.44877 36.0839 6.33582 36.1802C6.1424 36.3595 6.10565 36.4607 6.0892 36.5246C6.06622 36.7592 6.31525 36.6939 6.5551 36.675C6.57591 36.6711 7.16277 36.9959 7.20284 36.9846C7.67641 36.8323 6.81995 36.4642 5.80666 35.8159C5.75582 35.7835 5.70457 35.7504 5.65304 35.7166C5.37989 35.5433 6.86629 35.9766 6.97852 35.9997C7.38639 36.1004 8.28365 36.5404 8.36618 36.5513C9.02277 36.6146 5.95361 35.4088 6.02938 35.2118C6.03704 35.2072 6.59252 35.4537 6.65556 35.458C6.85376 35.4709 6.64933 35.3301 6.86532 35.3495C7.36376 35.3971 8.88916 35.8933 8.0853 35.3713C7.98001 35.3056 6.20518 34.7156 6.3536 34.5578C6.4152 34.4945 6.49737 34.1466 6.64323 34.0862C6.78917 34.0272 7.34261 34.2758 7.36957 34.2772C8.21487 34.2475 8.49782 34.4481 9.67018 34.6513C10.8398 34.8463 8.14365 34.074 7.86052 33.9288C7.57806 33.7849 8.26778 33.7703 8.50232 33.7813C8.73681 33.7935 9.08655 33.9633 9.22418 33.953C10.1247 33.8779 7.92259 33.4412 7.52087 33.2258C6.56637 32.725 8.61975 33.0956 8.87398 32.9263C8.94222 32.8819 8.47135 32.8113 8.44159 32.749C8.32867 32.5071 8.98978 32.5374 8.46682 32.1666C8.38223 32.1038 7.20752 31.6382 8.12873 31.725C8.26162 31.7373 8.75563 31.902 8.8887 31.8403C9.0886 31.7475 9.25159 31.534 9.11229 31.3558C9.00915 31.2244 8.14865 31.1664 8.43539 31.0922C8.56342 31.0587 9.02974 31.2691 9.22974 31.1963C9.27458 31.1799 9.31123 31.1527 9.34114 31.119C9.44433 31.004 9.4661 30.8118 9.46916 30.7259C9.47284 30.6149 8.82546 30.5506 8.78434 30.5335C8.54906 30.4345 8.28044 30.175 8.28425 30.1582C8.37171 29.2598 9.58168 28.5828 9.34333 27.6315C9.32545 27.5574 8.64205 27.5153 8.63234 27.5031C8.37961 27.228 10.1559 27.6513 10.7809 27.5573C9.40278 27.4064 9.6648 27.3375 9.53494 27.1488C9.47124 27.0575 8.93301 27.037 8.87941 27.0228C8.08503 26.8034 9.14005 26.8476 9.35665 26.8503C10.1531 26.8625 9.23357 26.6652 9.76592 26.6716C10.2945 26.6761 11.0539 26.894 11.0631 26.7254C10.5754 26.6231 9.27327 26.5984 9.07851 26.4508C8.34211 25.9014 9.43877 25.1406 9.57626 24.7663C9.7141 24.3979 9.6322 24.2684 9.82831 24.0615C10.182 23.6869 9.21157 23.7608 8.7901 23.4846C8.36815 23.2087 10.721 23.4916 11.2312 23.4911C11.741 23.4904 11.2214 23.4155 11.5033 23.39C11.7852 23.3642 12.1239 23.4844 12.2357 23.386C12.3476 23.2867 11.4629 22.9415 10.934 22.8728C9.81367 22.7262 8.62535 22.7798 9.0564 22.5363C9.08195 22.5222 9.70025 22.6097 9.76658 22.5536C9.8954 22.4402 9.99498 22.324 10.0792 22.2048C10.326 21.8577 10.4405 21.4962 10.7717 21.1527C10.8337 21.0894 11.5229 21.1783 11.5668 21.1415C12.0263 20.7573 10.8537 20.8522 9.56646 20.5841C11.2891 20.7004 12.3492 20.6199 12.3705 20.3123C12.3838 20.1278 11.6293 20.1333 11.1024 19.997C10.9435 19.9563 11.4651 19.8438 11.1115 19.8088C9.95575 19.6944 8.65556 19.7738 9.1814 19.4807C9.20635 19.4679 9.83904 19.5306 9.87887 19.4846C10.1393 19.1868 8.92877 19.1155 8.79069 18.7847C8.68235 18.5255 9.43191 18.0847 9.558 17.7924C11.4979 17.8384 11.0593 17.5488 9.7237 17.4104C9.78204 17.2203 9.71 17.0118 9.89789 16.8301C9.96196 16.7671 10.523 16.8182 10.5838 16.8111C11.5379 16.7021 10.2378 16.5984 10.1874 16.5566C9.69813 16.1012 10.6892 15.7472 9.73014 15.307C9.69559 15.2917 8.34812 15.251 9.33349 15.1474C9.4014 15.1408 10.013 15.2893 10.0627 15.0881C10.1125 14.8865 10.8389 14.5139 10.2171 14.2257C10.0674 14.1577 8.97503 13.9723 9.83123 13.8444C9.94749 13.8269 10.3338 13.8511 10.5492 13.8264C11.2355 13.7465 9.87364 13.6861 11.032 13.5978C12.1903 13.5065 13.059 13.3071 12.2637 13.0158C12.2405 13.0066 11.1616 12.927 11.1796 12.8394C11.2074 12.7051 11.4068 12.5228 11.4299 12.3805C11.4316 12.3697 11.4323 12.3591 11.432 12.3488C11.4292 12.2767 10.7582 12.3132 10.7461 12.3005C10.3775 11.8156 10.9813 11.4796 11.2543 10.9743C11.3055 10.8845 10.3998 10.5815 11.1288 10.4231C11.927 10.2509 15.2082 10.5732 14.4422 10.1062C14.136 9.92251 9.97525 9.4884 12.1533 9.26299C11.7353 8.70581 12.454 8.2377 12.2822 7.69697C12.2475 7.58981 12.1767 7.47853 12.0531 7.36315C12.0205 7.33246 10.86 7.19115 10.8788 7.12296C10.9088 7.02477 11.4555 6.98916 11.4943 6.91974C11.6707 6.62305 11.2159 6.32665 11.2995 6.03708C11.33 5.92637 11.8914 5.9878 11.9279 5.85571C11.9638 5.72435 11.2259 5.60791 11.5904 5.44231C11.8682 5.31636 13.3882 5.23526 13.5712 5.06122C12.077 5.00068 12.1122 4.87868 11.7254 4.64464C11.6504 4.59988 11.1286 4.62676 11.0663 4.60464C10.801 4.51448 11.2348 4.45312 10.9456 4.36661C10.8762 4.34546 10.3658 4.32685 10.2802 4.30856C9.53312 4.15166 10.6885 3.97738 10.8897 3.94671C11.6537 3.83203 10.9922 3.74183 11.2948 3.64424C11.5974 3.54602 11.9656 3.72079 12.1512 3.6002C12.5353 3.35027 12.4642 3.00988 12.4965 2.74375C12.5062 2.63774 11.8225 2.68762 11.8081 2.67193C11.6426 2.44587 12.3746 2.24741 11.0215 2.081C14.5356 2.0434 10.6855 1.93731 11.3982 1.64577C11.4559 1.62289 13.1163 1.64566 13.3569 1.74864C13.5971 1.85192 13.0737 1.97882 13.4491 2.12362C13.5372 2.15796 15.0863 2.3878 15.1797 2.41571C15.9095 2.6318 13.4289 2.57664 13.2923 2.58241C11.8187 2.64887 13.4866 2.92307 13.6004 2.98467C14.122 3.26644 13.7658 3.47841 14.1369 3.71251C14.3767 3.8647 16.0004 3.93487 15.9469 4.0467C15.7696 4.41947 13.4992 4.47184 15.4513 4.89715C15.8676 4.98872 17.6455 4.97465 16.2398 5.20032C16.1512 5.21422 14.8669 5.3727 15.6704 5.51875C15.7717 5.53737 16.289 5.55574 16.3318 5.57699C16.6081 5.7186 16.1927 5.79092 16.3848 5.94074C16.5769 6.09132 16.8646 6.27511 16.6828 6.43167C16.5741 6.52736 15.6054 6.61524 15.3675 6.65355C14.6826 6.75837 15.7912 6.94673 14.9647 6.99671C14.1341 7.04567 12.8845 6.83316 12.3411 7.02624C13.6846 7.09034 15.0631 7.16669 16.414 7.23653C16.3838 7.45183 16.2757 7.66302 16.1684 7.87612C16.0359 8.14046 15.9048 8.40043 15.9237 8.66982C15.9293 8.73009 16.6546 8.70643 16.6792 8.77176C16.7799 9.04854 16.2527 9.25252 16.4442 9.52788C16.5952 9.7414 17.3495 9.99534 17.5336 10.2044C15.9905 10.2629 16.5006 10.5917 16.3532 10.8081C16.3021 10.8852 15.8915 10.8672 15.7557 10.919C15.2538 11.1183 16.6162 11.0559 16.8286 11.1197C17.7352 11.3888 14.6571 11.3364 14.7267 11.6419C14.7294 11.657 16.3661 11.8864 16.4679 11.9125C17.1311 12.0943 15.8963 11.9302 15.7733 12.036C15.605 12.1779 15.342 12.2873 15.4206 12.4358C15.4471 12.484 15.512 12.5368 15.6321 12.5974C15.7736 12.6692 16.7943 12.8422 16.0017 12.9656C15.898 12.9817 15.3557 12.966 15.3238 12.9797C14.7915 13.2321 16.4957 13.253 17.0713 13.4073C17.6468 13.5574 16.4682 13.7741 16.1287 13.8169C15.2503 13.93 15.7547 13.72 15.6687 13.7132C14.6452 13.6266 14.8199 13.7927 14.7321 13.9202C13.061 13.9216 13.1595 14.1002 14.6478 14.0504C14.8103 14.0446 14.6555 13.9445 14.7321 13.9202C16.3704 14.0464 16.5785 14.2444 15.0443 14.4464C14.3252 14.5409 13.489 14.4346 13.7921 14.7471C13.9289 14.8872 15.08 14.8455 15.3924 14.9726C16.1051 15.2624 15.0276 15.6201 15.1929 15.9134C15.2529 16.0209 15.884 15.9252 15.9467 15.9989C16.1151 16.1932 15.6402 16.3577 15.8794 16.5553C15.9019 16.5733 16.5617 16.5399 16.5692 16.6008C16.6389 17.0615 16.2098 17.455 16.1883 17.9363C16.1782 18.1681 16.5323 18.5945 16.453 18.8352C16.3198 19.2536 15.3463 19.7419 15.5669 20.1083C15.708 20.3479 16.3687 20.3194 16.8142 20.4367C17.6777 20.665 16.1052 20.955 15.8619 20.9906C15.8539 20.9916 15.7066 20.7824 15.3641 20.8774C14.6568 20.9122 15.859 20.988 15.8619 20.9906C15.705 21.0148 15.5384 21.4145 15.6605 21.501C15.7273 21.5481 16.3526 21.5515 16.3756 21.5756C16.689 21.9116 16.8629 22.2474 16.887 22.5776C16.9039 22.8109 16.8467 23.0406 16.7118 23.2654C16.6986 23.2745 16.002 23.2161 15.9796 23.238C15.6492 23.5423 16.4882 23.8043 16.9751 24.1127C17.4618 24.4193 17.2753 24.6269 16.0667 24.6913C16.2013 24.9064 15.6483 25.154 15.313 25.2919C14.9778 25.4295 16.3305 25.5741 16.356 25.5915C17.1709 26.1341 16.3691 26.334 16.1979 26.8009C16.1143 27.0238 16.2592 27.4997 16.3763 27.7689C16.4714 27.9816 16.1404 28.0605 16.3193 28.2693C16.3431 28.2975 16.9471 28.3493 16.9693 28.3598C17.6615 28.6587 16.2057 28.3695 15.938 28.3774C14.9644 28.4059 14.4454 28.4255 14.8582 28.7438C14.953 28.815 17.0396 29.2881 17.1465 29.4196C17.282 29.5877 16.5338 29.4232 16.6946 29.6016C16.7076 29.6168 17.1744 29.6833 17.1398 29.7745C16.9846 30.2005 16.6366 30.6349 16.6029 31.1001C16.5965 31.1635 17.3473 31.2123 17.3499 31.3069C17.3613 31.7526 17.243 32.2275 16.8135 32.5804C16.7056 32.6663 16.206 32.4959 16.0491 32.487C16.0197 32.4853 15.9925 32.4841 15.9674 32.4834C15.1792 32.4606 16.398 32.9041 16.4155 32.9428C16.89 33.859 15.5471 34.1633 15.9093 35.0952C15.9326 35.1434 17.2529 35.873 15.9996 35.6862C15.9156 35.6762 14.6388 35.467 15.4458 35.8403C15.4962 35.864 16.1591 35.9549 16.0471 36.0985C15.9355 36.2409 16.279 36.6348 15.514 36.6446C15.2725 36.6494 14.0006 36.4202 14.9051 36.9433C14.9713 36.9718 17.0501 38.0468 15.498 37.654C15.2425 37.5891 13.6554 37.0171 14.3848 37.5518C14.5257 37.6562 14.9123 37.6928 15.0878 37.9009C15.3568 38.2254 14.8361 38.3316 15.4387 38.8572C15.547 38.9463 16.5345 39.5669 15.6623 39.4037C15.5262 39.3769 15.0227 39.1192 14.9313 39.1765C14.7392 39.2968 14.664 39.4696 14.5922 39.6509C14.5003 39.8823 14.4076 40.1449 14.0641 40.3446C13.8461 40.4737 13.0838 39.9642 12.7649 40.0473C12.4364 40.1388 12.0251 40.4347 11.9364 41.2172C11.8786 41.6187 12.2081 41.9392 12.5048 42.2539C12.6489 42.4144 12.7786 42.579 12.785 42.8027C12.7779 43.0287 12.717 43.3014 12.0604 43.8458C11.4807 44.2753 10.6921 44.9231 8.83923 45.2876C7.0201 45.7244 4.21024 44.8831 3.05044 43.8399C0.730459 41.7955 0.855013 40.959 0.526181 40.3515C0.142128 39.2289 0.152645 38.8453 0.121439 38.4284C0.101768 37.6852 0.240133 37.2502 0.361523 36.8356C0.468421 36.5138 0.572045 36.2287 0.612659 35.9476C0.63306 35.8123 0.111869 35.919 0.10527 35.7149C0.0770741 34.9712 -0.358239 33.7578 0.776513 33.2333C1.68467 32.8145 2.32482 33.4363 2.70343 33.103C2.88398 32.9468 1.21003 32.6624 1.15943 32.6185C0.644885 32.1816 1.4092 31.951 1.20516 31.5748C1.16283 31.4972 0.47531 31.5228 0.446858 31.457C0.343697 31.2309 0.664902 31.024 0.624901 30.8121C0.605417 30.7168 0.0831223 30.6944 0.129938 30.6114C0.236003 30.4123 0.469476 30.247 0.973921 30.0874C1.01988 30.073 1.65763 30.2481 1.69411 30.0995C1.75139 29.8581 2.25848 29.5989 1.78692 29.2739C1.64499 29.1773 0.456087 29.0646 1.29395 28.9599C1.46903 28.9377 2.89198 29.1201 1.67825 28.7945C1.47629 28.742 -0.152487 28.2221 0.937239 28.1533C1.22392 28.1358 2.4032 28.1365 2.23015 28.0175C2.20231 28.0008 1.55859 27.9899 1.50508 27.8993C1.32778 27.5803 1.43001 27.2737 1.26618 26.9409C1.2213 26.851 0.547489 26.8996 0.501791 26.7673C0.374992 26.4043 0.597042 25.987 0.849924 25.6663C0.944294 25.5489 1.47723 25.711 1.53779 25.7096C1.79078 25.7052 1.89351 25.6851 1.90539 25.6562C1.93859 25.5809 1.2126 25.4298 1.1606 25.39C0.742462 25.0628 1.38217 24.9386 1.25342 24.6738C1.21983 24.5988 0.592542 24.5634 0.539075 24.5421C0.0176764 24.3267 1.11787 24.5838 1.25289 24.5111C1.63436 24.3113 1.62221 24.0263 1.57737 23.7609C1.5599 23.6639 0.826093 23.6708 0.818702 23.5851C0.76141 23.0754 0.899686 22.5702 1.36243 22.1377C1.45074 22.0574 1.99717 22.1895 2.12632 22.1877C3.03018 22.1728 1.84797 21.8206 1.73946 21.757C1.24198 21.4816 1.74291 21.4687 1.67624 21.2762C1.34449 20.3253 1.81969 19.2619 2.20802 18.2512C2.38853 17.7814 2.6148 17.3034 2.88071 16.76C3.33977 15.8817 3.72594 15.3447 3.88412 14.6112C3.90043 14.5399 3.17369 14.3645 3.17902 14.2991C3.28328 13.4582 3.81888 12.8513 3.89142 12.0546C3.89877 11.9894 3.20682 11.8247 3.1967 11.711C3.17201 11.4742 3.29966 11.2485 3.58655 11.1308C3.72377 11.0767 4.24002 11.4197 4.36654 11.361C4.66234 11.2251 4.80288 11.0026 4.78441 10.7398C4.77578 10.6257 4.04732 10.5076 4.08868 10.3794C4.35569 9.50281 4.57291 8.62651 5.77886 8.13857C5.8614 8.10579 7.23977 8.60785 7.02863 8.38074C6.65548 8.21831 6.21196 8.03848 5.81077 7.87062C6.08745 6.56895 7.04613 5.58223 7.62039 4.41386C7.64461 4.36415 6.89122 4.15227 6.93455 4.05432C7.18062 3.49656 7.21428 2.862 8.16932 2.58588C8.2629 2.55845 9.50898 3.12024 9.38961 2.87207C9.36729 2.82801 9.30707 2.50298 9.06217 2.32073C9.02479 2.29426 8.41775 2.09197 8.43566 2.00215C8.54592 1.49419 8.89242 1.05203 9.45286 0.732071C9.54463 0.680459 10.1343 1.02905 10.2051 0.994626C10.6996 0.754787 10.4069 0.126933 11.1291 0.0079847C11.6158 -0.072988 12.6557 0.480953 13.7735 0.807026C13.9312 0.853047 14.0204 0.710968 14.6415 0.968707C16.2035 1.61662 17.8728 2.42163 19.5415 3.10351C19.9008 3.25062 19.604 2.88236 20.4141 3.3733C20.4681 3.40658 20.691 3.67635 20.9679 3.83794C21.1593 3.94989 21.807 4.17485 22.0438 4.33713C22.2804 4.49924 21.7296 4.32895 21.9975 4.54375C22.2693 4.75997 22.9999 5.03024 23.0129 5.2335ZM13.812 25.9018C13.1471 25.988 15.5259 26.2475 14.9725 26.0252C14.9429 26.0141 13.8447 25.8971 13.812 25.9018ZM14.0863 8.0899C13.0227 8.23222 14.5658 8.44253 15.3868 8.34579C16.2069 8.24789 14.4087 8.04594 14.0863 8.0899ZM13.4009 6.05603C12.5608 6.24873 15.9499 6.41504 15.2738 6.14629C15.2356 6.13084 13.4496 6.04487 13.4009 6.05603ZM13.8179 1.53797C13.848 1.54833 13.9232 1.45163 13.8952 1.43695C13.2217 1.07941 13.0719 1.27292 13.8179 1.53797ZM12.633 4.05772C12.1719 4.1122 12.6946 4.32999 13.2679 4.26348C13.7292 4.21019 13.2066 3.99004 12.633 4.05772ZM10.0065 33.2118C9.97141 33.2053 9.91903 33.2795 10.1145 33.3286C10.7442 33.4866 10.5971 33.3233 10.0065 33.2118ZM12.7046 0.717361C12.5609 1.20659 9.74982 1.41386 10.0834 0.887404C10.1438 0.792014 10.9699 1.12619 11.2265 1.0106C11.694 0.799054 9.93997 0.591593 10.89 0.391011C11.0639 0.354799 12.719 0.689747 12.7084 0.718365C12.7072 0.718031 12.7059 0.717695 12.7046 0.717361ZM10.9434 25.7065C10.9116 25.7061 10.8701 25.8203 10.901 25.8261C11.6505 25.966 11.7348 25.7339 10.9434 25.7065ZM7.02694 37.1759C6.95837 37.1619 6.85037 37.2061 6.92084 37.2147C7.78315 38.1396 8.21672 37.7487 7.02694 37.1759ZM9.60984 17.7888C8.84842 17.6459 8.76135 17.495 9.72271 17.411C9.66941 17.537 9.65946 17.6625 9.60984 17.7888Z" fill="var(--stroke-0, #DEE5FF)"/>
</svg>
