<svg preserveAspectRatio="none" width="100%" height="100%" overflow="visible" style="display: block;" viewBox="0 0 18.3787 38.6292" fill="none" xmlns="http://www.w3.org/2000/svg">
<path id="Vector 167" d="M16.9481 3.83674C17.1227 4.20165 16.8581 4.63127 16.5214 4.9443C16.4169 5.04249 15.9998 4.9485 15.9086 5.01455C15.7308 5.14393 15.9253 5.29771 15.7164 5.4222C15.6451 5.46328 14.9818 5.34184 14.9223 5.38638C14.6013 5.63079 14.7478 5.90366 14.5804 6.16553C13.7544 7.4551 13.3871 8.75888 12.9749 10.0977C12.8395 10.5383 12.1902 11.0399 12.4228 11.5239C12.4505 11.5803 13.0409 11.5903 13.0886 11.604C13.8191 11.8183 12.6357 11.6798 12.4705 11.7745C11.8179 12.149 11.7321 12.614 11.9332 13.0328C12.0206 13.2103 13.2003 13.1133 12.5333 13.2436C12.4882 13.2528 11.8661 13.1696 11.7965 13.2125C11.6398 13.3099 11.7389 13.5202 11.6843 13.5996C11.576 13.753 11.5806 13.7806 11.5645 13.931C11.5371 14.1359 11.2121 14.3648 11.3414 14.5944C11.3708 14.6436 12.0152 14.6167 12.12 14.6981C12.2246 14.7801 12.1595 14.975 12.0048 15.0343C11.8501 15.0934 11.3478 15.0379 11.2317 15.0436C10.2518 15.0908 11.5896 15.3931 11.6215 15.424C11.8705 15.6875 11.8375 15.9171 11.7272 16.1419C11.598 16.4029 11.3625 16.6556 11.3518 16.9306C11.3384 17.3178 11.5759 17.7417 11.5274 18.1087C11.4671 18.5457 11.1067 18.9066 11.153 19.3361C11.1571 19.3813 11.913 19.3523 11.9196 19.4074C11.9892 19.9936 11.8911 20.5695 11.3681 21.1399C11.315 21.1971 10.6544 21.1063 10.5617 21.1626C10.0088 21.5073 8.68944 22.055 11.57 22.3204C11.453 22.56 11.3318 22.8522 10.7472 23.0593C10.3709 23.1939 9.65111 23.0473 9.95662 23.2246C10.0247 23.2645 10.6575 23.2228 10.7118 23.2817C10.9398 23.5283 10.7311 23.7945 11.0553 24.0387C11.1227 24.0888 11.6893 24.0808 11.7911 24.0958C12.6159 24.2208 11.2489 24.3998 11.1493 24.4429C10.4069 24.7612 10.6968 25.0001 10.6778 25.2999C10.6731 25.3701 11.4341 25.2895 11.4569 25.3569C11.565 25.7015 11.4997 26.0633 11.1636 26.4004C11.087 26.4767 10.4386 26.4096 10.3688 26.4464C10.0692 26.6093 11.2934 26.637 11.03 26.7891C10.9761 26.822 10.4211 26.8078 10.3602 26.8142C9.40446 26.9149 10.7604 26.9839 10.7905 27.0067C11.2021 27.2982 9.78972 27.5076 9.99469 27.7926C10.0207 27.8261 10.7213 27.738 10.7513 27.8328C10.9028 28.3041 10.8467 28.7948 10.5934 29.2658C10.5045 29.4366 10.391 29.6005 10.2539 29.7625C10.1731 29.8619 9.6428 29.8257 9.57823 29.8352C8.57022 29.9964 9.93258 29.9717 9.98575 29.9986C10.3685 30.1975 9.25352 30.5338 10.8797 30.4843C10.7634 30.6548 10.7746 30.8969 10.6941 30.6896C10.6561 30.6147 10.646 30.5162 10.4086 30.1693C10.2754 29.9967 10.0873 29.7266 9.56734 29.4336C9.06406 29.1328 8.22566 29.057 7.75648 29.1942C6.83295 29.4724 6.78829 29.701 6.67483 29.767C6.59321 29.8466 6.59386 29.8526 6.60907 29.835C6.82154 29.5967 7.09885 29.3437 8.02098 29.26C8.04137 29.2569 8.63081 29.5768 8.66945 29.568C9.14016 29.463 8.18089 29.0497 7.08745 28.3765C6.80992 28.214 8.27578 28.6991 8.38648 28.7263C8.78817 28.8431 9.68756 29.2767 9.76823 29.2925C10.4104 29.394 7.35228 28.1605 7.40878 28.0149C7.41586 28.012 7.97274 28.2545 8.03414 28.2633C8.22717 28.2901 8.01843 28.161 8.22962 28.1935C8.71715 28.271 10.2386 28.7782 9.42 28.2974C9.31285 28.237 7.54054 27.6397 7.67322 27.5263C7.72808 27.482 7.78323 27.2114 7.92147 27.1734C8.0603 27.1349 8.62003 27.3649 8.64651 27.3677C9.47396 27.3891 9.76526 27.5653 10.9309 27.7864C12.0945 27.9971 9.39326 27.2432 9.10536 27.1124C8.81829 26.9824 9.49587 27.0027 9.72772 27.0213C9.95947 27.0412 10.3147 27.194 10.4497 27.1913C11.3337 27.1626 9.1349 26.7215 8.72542 26.5302C7.75148 26.0912 9.80094 26.4684 10.0423 26.338C10.1071 26.304 9.63747 26.2311 9.60427 26.1797C9.47824 25.9792 10.1338 26.0247 9.59486 25.7075C9.5076 25.6535 8.31721 25.2448 9.23466 25.3405C9.36703 25.3539 9.8657 25.5008 9.99417 25.4539C10.187 25.3838 10.3371 25.2135 10.1896 25.065C10.0803 24.9559 9.22343 24.8889 9.50407 24.8349C9.62935 24.8107 10.1031 24.9923 10.2978 24.9376C10.4925 24.8831 10.5135 24.6491 10.5118 24.5595C10.51 24.4694 9.86378 24.4036 9.8221 24.3889C9.5836 24.303 9.30411 24.0875 9.30721 24.0735C9.35151 23.3473 10.53 22.817 10.2621 22.0393C10.2419 21.9789 9.5593 21.9337 9.54922 21.9236C9.28865 21.6961 11.0728 22.0685 11.6931 22.0018C10.3144 21.8572 10.5735 21.8056 10.4385 21.6498C10.3723 21.5747 9.83498 21.5495 9.78111 21.5371C8.98244 21.3471 10.0362 21.3986 10.2523 21.4043C11.0471 21.4267 10.1245 21.252 10.6558 21.2654C11.1832 21.2774 11.9465 21.4664 11.9513 21.3297C11.462 21.2391 10.1623 21.198 9.9642 21.0754C9.57146 20.8328 9.6814 20.5563 9.89346 20.3014L9.88537 20.4327C10.0616 20.1938 10.3221 19.964 10.3739 19.8203C10.4825 19.5191 10.3905 19.4208 10.5694 19.2438C10.892 18.9215 9.93056 19.0444 9.4882 18.8553C9.04533 18.6667 11.4133 18.726 11.9217 18.6897C12.4298 18.6528 11.9058 18.6293 12.1847 18.5883C12.4636 18.5469 12.8109 18.6203 12.9143 18.5321C13.0177 18.4434 12.1079 18.2282 11.5752 18.2125C10.4467 18.1776 9.26683 18.3083 9.67664 18.0827C9.70095 18.0695 10.3242 18.0931 10.3858 18.0432C10.8541 17.6467 10.8688 17.2438 11.2753 16.8375C11.3322 16.782 12.026 16.7994 12.067 16.7666C12.4949 16.4191 11.3338 16.59 10.0301 16.473C11.7559 16.4318 12.8063 16.2853 12.8042 16.0343C12.8036 15.8856 12.052 15.9484 11.5165 15.8786C11.3551 15.8578 11.8667 15.7277 11.5117 15.7266C10.3512 15.724 9.06087 15.8878 9.56358 15.6105C9.58752 15.5982 10.2228 15.5999 10.2591 15.5598C10.497 15.2969 9.28517 15.334 9.12401 15.0755C8.99743 14.8704 9.7146 14.4599 9.82075 14.2114C11.7583 14.1066 11.3016 13.9031 9.96067 13.8892C10.0064 13.7318 9.92106 13.5665 10.0969 13.4059C10.1568 13.3502 10.7196 13.3516 10.7799 13.3415C11.7245 13.1842 10.4213 13.1938 10.3684 13.1633C10.2502 13.0871 10.2097 13.0089 10.2056 12.93C10.2034 12.923 10.206 12.9006 10.204 12.8936C10.1977 12.6309 10.6074 12.3745 9.8571 12.1259C9.82208 12.1147 8.47407 12.1275 9.45551 12.0086C9.52318 12.0009 10.1391 12.0999 10.1824 11.9354C10.2257 11.769 10.9407 11.4396 10.3113 11.2271C10.1598 11.1755 9.06278 11.0564 9.91519 10.9273C10.0309 10.91 10.4178 10.9183 10.6324 10.8922C11.3162 10.8084 9.95336 10.7978 11.1088 10.6915C12.2643 10.5883 13.1275 10.3992 12.3248 10.1874C12.3015 10.1806 11.2209 10.1466 11.2366 10.0735C11.2626 9.95523 11.4846 9.7913 11.4755 9.66919C11.4707 9.61107 10.801 9.65996 10.7885 9.65007C10.4062 9.27021 10.9993 8.97989 11.2523 8.56271C11.3 8.48421 10.3825 8.28173 11.1031 8.12202C11.892 7.94766 15.1858 8.06784 14.3964 7.70795C14.0806 7.56227 9.9022 7.43065 12.0621 7.13145C11.519 6.61544 12.6202 6.11774 11.8485 5.60333C11.8143 5.58009 10.6479 5.51891 10.6632 5.46367C10.688 5.38128 11.2322 5.3297 11.2674 5.27047C11.4286 5.02083 10.96 4.80247 11.0298 4.56355C11.0551 4.47329 11.6187 4.4985 11.649 4.39065C11.6787 4.28297 10.9363 4.21849 11.2929 4.06966C11.5647 3.95694 13.0795 3.83015 13.2546 3.68225C11.7592 3.6928 11.7889 3.59274 11.3923 3.41852C11.3153 3.38503 10.7953 3.42737 10.732 3.41181C10.4631 3.34865 10.8938 3.28252 10.6011 3.22336C10.5308 3.2089 10.0202 3.21359 9.93387 3.20206C9.1807 3.10433 10.3276 2.91745 10.5272 2.88529C11.2856 2.76205 10.6209 2.71598 10.9191 2.62469C11.2172 2.53366 11.5925 2.66125 11.7729 2.55665C12.1461 2.33924 12.0608 2.06751 12.0821 1.85043C12.0874 1.76426 11.4063 1.82995 11.3913 1.81778C11.2166 1.64149 11.9398 1.45316 10.581 1.36811C14.0906 1.20905 10.2394 1.26421 10.9396 1.00181C10.9963 0.981115 12.6563 0.938833 12.9008 1.01359C13.1451 1.08834 12.6273 1.21055 13.0083 1.31355C13.0977 1.33787 14.655 1.46737 14.7494 1.48625C15.4875 1.63396 13.0067 1.68104 12.8705 1.69066C11.4009 1.79853 13.0787 1.95886 13.195 2.00446C13.7279 2.21273 13.3808 2.39755 13.7615 2.57246C14.0075 2.6867 15.6327 2.68108 15.5839 2.77309C15.4227 3.08041 13.1568 3.20966 15.1255 3.47662C15.5454 3.53362 17.321 3.45363 15.9267 3.68854C15.8388 3.70342 14.5628 3.88154 15.3721 3.96717C15.4741 3.97793 15.9918 3.97189 16.0354 3.98705C16.3178 4.08867 15.9062 4.16308 16.105 4.2756C16.3038 4.38817 16.5998 4.52102 16.4257 4.65408C16.3216 4.73415 15.3583 4.84602 15.1226 4.88631C14.4436 5.00011 15.5601 5.10129 14.7372 5.17699C13.9102 5.2532 12.6514 5.13769 12.1186 5.31852C13.4636 5.30924 14.8441 5.30788 16.1968 5.30236C16.1539 5.68391 15.7236 6.06493 15.7878 6.44614C15.7971 6.49356 16.5195 6.4358 16.5482 6.48633C16.6658 6.69854 16.1528 6.89344 16.361 7.11179C16.525 7.28162 17.293 7.45929 17.4884 7.63579C15.9511 7.76803 16.4773 8.02552 16.3395 8.22173C16.292 8.29002 15.8809 8.29162 15.7475 8.34155C15.2544 8.53059 16.613 8.42521 16.8277 8.47175C17.7444 8.67192 14.6666 8.73558 14.7467 8.98873C14.7499 9.00239 16.3933 9.13774 16.4958 9.1581C17.1645 9.29061 15.9252 9.19146 15.8054 9.28322C15.5867 9.45016 15.1968 9.5694 15.6807 9.75265C15.824 9.80577 16.849 9.9195 16.0601 10.0429C15.9568 10.059 15.4143 10.0613 15.3828 10.0733C14.8573 10.2898 16.5614 10.2629 17.1407 10.3698C17.72 10.4759 16.5474 10.6803 16.2092 10.7251C15.3342 10.8404 15.8329 10.6583 15.7467 10.6545C14.7213 10.6128 14.9003 10.7443 14.8159 10.8472C13.1456 10.897 13.2489 11.0364 14.7352 10.9535C14.8975 10.9443 14.74 10.8692 14.8159 10.8472C16.4569 10.9003 16.6702 11.0535 15.1423 11.2574C14.4262 11.3537 13.5875 11.2984 13.8994 11.5366C14.0402 11.6438 15.1895 11.5734 15.5054 11.6644C16.2263 11.8686 15.1609 12.185 15.3366 12.4094C15.4003 12.4892 16.0276 12.3915 16.0928 12.4452C16.201 12.536 16.0642 12.6251 16.0014 12.7119L15.9959 12.5894C15.9586 12.6487 15.9498 12.7065 16.0459 12.7606C16.0694 12.7733 16.7256 12.7004 16.7368 12.7481C16.8347 13.1106 16.4317 13.452 16.4421 13.8388C16.4475 14.0257 16.8293 14.3381 16.767 14.5358C16.663 14.8786 15.7278 15.3441 15.975 15.6214C16.1335 15.8039 16.79 15.7292 17.2428 15.7883C18.1206 15.9045 16.5756 16.2607 16.3359 16.3086C16.328 16.3102 16.165 16.1526 15.831 16.2563C15.1288 16.3398 16.3327 16.3067 16.3359 16.3086C16.1812 16.3397 16.0463 16.675 16.1749 16.7369C16.2452 16.7698 16.8686 16.7236 16.8935 16.7414C17.4707 17.1629 17.6459 17.6205 17.3651 18.1002C17.3527 18.1088 16.6538 18.1131 16.6333 18.1329C16.3289 18.4094 17.1866 18.566 17.697 18.7919C18.207 19.0166 18.0378 19.2103 16.8382 19.3463C16.9895 19.5204 16.4576 19.7675 16.1341 19.9047C15.8106 20.0412 17.1703 20.0813 17.1971 20.0948C17.6431 20.3097 17.6419 20.4756 17.5201 20.6393C17.4983 20.7153 17.5229 20.9587 17.4959 21.033C17.3751 21.1656 17.1534 21.2926 17.0767 21.4729C16.9984 21.6515 17.155 22.0412 17.2795 22.262C17.3803 22.4362 17.0524 22.4959 17.2371 22.6686C17.2617 22.692 17.8655 22.7436 17.888 22.7525C18.5872 23.0073 17.1269 22.7487 16.8602 22.751C15.8905 22.7584 15.3735 22.7673 15.7955 23.0331C15.8923 23.0929 17.9879 23.5119 18.0989 23.6218C18.2397 23.7624 17.4885 23.615 17.655 23.764C17.6685 23.7766 18.136 23.8384 18.1046 23.913C17.9654 24.2606 17.6358 24.6123 17.6218 24.9963C17.6181 25.0488 18.3671 25.1011 18.3737 25.1798C18.4037 25.5492 18.3073 25.9415 17.8972 26.2291C17.794 26.2991 17.2896 26.148 17.1333 26.1378C16.1881 26.0742 17.4992 26.492 17.519 26.526C18.0337 27.3072 16.7172 27.5402 17.1209 28.3535C17.1465 28.395 18.4886 29.0597 17.238 28.8704C17.1543 28.8597 15.8801 28.6476 16.6966 28.9925C16.7475 29.0147 17.408 29.1099 17.3035 29.2338C17.1997 29.3555 17.5555 29.7167 16.7992 29.7042C16.5599 29.7039 15.2931 29.4617 16.2091 29.953C16.2766 29.9776 18.3711 31.01 16.822 30.6095C16.5669 30.5435 14.9787 29.9748 15.7184 30.4807C15.8614 30.5797 16.2446 30.6253 16.425 30.82C16.7019 31.1224 16.1908 31.2015 16.8014 31.7032C16.9115 31.7874 17.9014 32.3987 17.0367 32.2139C16.9017 32.184 16.3983 31.9272 16.3097 31.9758C15.8884 32.201 16.0629 32.7316 15.5308 32.9277C15.3437 32.9961 14.5616 32.5239 14.2799 32.5394C13.9981 32.5558 13.6618 32.687 13.9486 33.0248C14.2332 33.3667 15.5858 33.927 15.5551 34.2124C15.458 35.0115 14.8051 35.5865 14.0506 36.1107C13.9247 36.204 13.7601 36.3507 13.4323 36.6304C13.059 36.9044 12.7268 37.3668 11.1108 38.0913C10.2829 38.4346 8.84896 38.8293 7.1417 38.5136C5.46932 38.2221 4.14757 37.256 3.54934 36.6414C2.27224 35.2877 2.17975 34.6708 1.94986 34.1845C1.8192 33.8347 1.70338 33.8611 1.55849 33.8412C1.42119 33.8353 1.247 33.7495 1.14812 33.4176C0.830459 32.2837 0.680536 31.7632 0.632283 31.2254C0.596526 30.7049 0.729566 30.2881 1.26723 29.9937C2.1309 29.538 2.82715 30.0211 3.17246 29.6973C3.21867 29.6538 3.11907 29.6154 2.95053 29.581C2.51778 29.4999 1.62975 29.4423 1.59057 29.4175C1.03852 29.0885 1.77937 28.828 1.54296 28.5358C1.49395 28.4749 0.811438 28.5516 0.777277 28.4991C0.65445 28.3153 0.956237 28.1265 0.897514 27.9541C0.869648 27.8791 0.347457 27.9013 0.386686 27.8303C0.474548 27.6586 0.692268 27.5092 1.18014 27.3408C1.2246 27.3255 1.8756 27.4181 1.89843 27.2946C1.93358 27.0972 2.41465 26.8478 1.91457 26.6277C1.76415 26.5618 0.569976 26.5636 1.39404 26.4156C1.56617 26.3847 3.00013 26.4185 1.76068 26.2561C1.55466 26.2295 -0.117027 25.9482 0.960219 25.81C1.24371 25.7735 2.41709 25.6805 2.2328 25.6009C2.20339 25.5901 1.56192 25.6324 1.49944 25.5666C1.29043 25.3337 1.35971 25.0886 1.16013 24.8475C1.10557 24.7827 0.441311 24.8753 0.381206 24.7785C0.214918 24.5157 0.386551 24.1875 0.596902 23.9329C0.675717 23.8385 1.22483 23.9099 1.28473 23.9036C2.25901 23.8034 0.946209 23.7254 0.870031 23.6876C0.414 23.4539 1.03322 23.2885 0.872875 23.0766C0.830301 23.0179 0.203446 23.0502 0.147766 23.0378C-0.396137 22.9096 0.727276 23.0154 0.852356 22.9412C1.20646 22.7364 1.15997 22.4977 1.08369 22.284C1.05476 22.2049 0.32706 22.2804 0.309501 22.2094C0.191844 21.7881 0.270299 21.3548 0.680061 20.9561C0.758529 20.8814 1.31649 20.9426 1.44456 20.9296C2.34049 20.8413 1.12584 20.6512 1.0107 20.6108C0.484892 20.4287 0.980958 20.3759 0.892591 20.2244C0.45213 19.4835 0.807878 18.5914 1.03538 17.9108C1.30759 17.0861 1.81076 16.4475 1.80362 15.6702C1.8031 15.6101 1.79957 15.5492 1.79268 15.4875C1.78725 15.4327 1.0415 15.4515 1.0273 15.4037C0.877831 14.7864 1.2001 14.2037 1.02089 13.5833C1.00752 13.5323 0.299224 13.5636 0.254109 13.4801C0.156625 13.3089 0.207393 13.1019 0.442372 12.9489C0.555638 12.8744 1.15304 13.02 1.2547 12.9445C1.49274 12.7699 1.55571 12.5684 1.45532 12.3678C1.41111 12.2816 0.683198 12.3607 0.68187 12.2519C0.657965 11.512 0.584742 10.7785 1.57137 10.1104C1.63915 10.0644 3.10435 10.1299 2.83208 10.002C2.427 9.96322 1.94974 9.92753 1.51638 9.89116C1.36331 8.81031 1.95644 7.8042 2.12683 6.7584C2.13385 6.71428 1.35331 6.72342 1.36299 6.63739C1.41812 6.14007 1.2473 5.63678 2.0625 5.20069C2.14229 5.15736 3.50072 5.30782 3.30847 5.1414C3.2733 5.11186 3.1123 4.87296 2.82224 4.78828C2.7784 4.77635 2.13953 4.75814 2.12765 4.68482C2.06978 4.25918 2.2556 3.83726 2.68262 3.46071C2.75275 3.40002 3.42227 3.53494 3.47809 3.4923C3.86886 3.18964 3.38955 2.77543 4.034 2.51341C4.4678 2.33837 5.62907 2.52906 6.79044 2.52483C6.9543 2.52419 6.99266 2.39403 7.66271 2.45096C9.34764 2.59375 11.1847 2.83358 12.9814 2.97819C13.3684 3.00946 12.9691 2.79226 13.8929 2.98636C13.9547 2.99967 14.2524 3.15789 14.5662 3.21974C14.7831 3.26267 15.4677 3.28778 15.7438 3.35949C16.0196 3.43116 15.4443 3.42624 15.7666 3.53216C16.093 3.63838 16.8706 3.67942 16.9481 3.83674ZM14.6842 20.505C14.5666 20.5247 14.5469 20.5433 14.5904 20.56C14.5797 20.5971 14.5917 20.716 14.5785 20.7523C14.7389 20.8245 15.8074 20.9335 15.9135 20.8807C15.933 20.827 15.9152 20.6512 15.931 20.5963C15.9524 20.5832 15.9313 20.5657 15.8506 20.5436C15.8203 20.5359 14.7164 20.4993 14.6842 20.505ZM13.9189 6.0847C12.8655 6.25251 14.4186 6.33804 15.2322 6.21945C16.045 6.10089 14.2382 6.03361 13.9189 6.0847ZM13.1297 4.49116C12.2996 4.68072 15.6928 4.67063 15.0047 4.48574C14.9659 4.47496 13.1779 4.48007 13.1297 4.49116ZM7.0678 3.08403C7.09959 3.0854 7.13949 2.99292 7.10836 2.98766C6.35667 2.86487 6.2774 3.04991 7.0678 3.08403ZM12.2737 2.90851C11.8153 2.96994 12.3468 3.12683 12.9168 3.05071C13.3753 2.98951 12.8438 2.83211 12.2737 2.90851ZM11.1787 26.6076C11.1436 26.6012 11.0961 26.6608 11.2921 26.7073C11.9239 26.857 11.7692 26.7172 11.1787 26.6076ZM12.2071 0.202495C12.0834 0.603279 9.28314 0.874526 9.59502 0.43548C9.65145 0.356047 10.4905 0.596529 10.7421 0.493565C11.2006 0.30538 9.43969 0.201112 10.3808 0.0040483C10.553 -0.031627 12.2204 0.179577 12.211 0.203165C12.2097 0.202942 12.2084 0.202718 12.2071 0.202495ZM11.8083 20.5002C11.7766 20.4995 11.7376 20.5908 11.7686 20.5961C12.5196 20.7216 12.5988 20.5356 11.8083 20.5002ZM8.50259 29.753C8.44143 29.7255 8.29371 29.8634 8.34466 29.8983C9.36935 30.6126 9.70184 30.2809 8.50259 29.753ZM9.87221 14.2047C9.10345 14.1469 9.00636 14.0259 9.95973 13.8897C9.91473 13.994 9.91334 14.1005 9.87221 14.2047Z" fill="var(--stroke-0, #DEE5FF)"/>
</svg>
