<svg preserveAspectRatio="none" width="100%" height="100%" overflow="visible" style="display: block;" viewBox="0 0 88.5958 68.4869" fill="none" xmlns="http://www.w3.org/2000/svg">
<path id="Vector 87" opacity="0.55" d="M69.6035 61.0391L61.6868 47.4389L62.4963 55.8581L60.2129 63.7916L48.7342 68.4869L43.715 66.2202L40.315 61.0391L34.0006 68.4869L25.2576 66.2202L19.4289 59.2582L16.8384 49.5437L23.1528 39.3435L25.2576 34.972L14.5717 38.8578L6.15249 36.5911L0.809538 29.6291L0 26.7147L3.23815 20.7242L10.3621 14.7336L16.8384 11.3335L19.4289 5.18104L23.1528 2.1048L35.7816 0.485723L43.715 2.1048H51.9723L60.2129 0L69.6035 4.69532L72.0489 11.9812L78.849 14.7336L80.9862 20.0765L85.8434 24.6099L88.4015 29.6291V34.972L85.8434 41.4483L84.8396 42.7436L85.8434 44.2008L88.5958 51.6485V56.9915L78.849 63.7916L69.6035 61.0391Z" fill="var(--fill-0, #970606)"/>
</svg>
