<svg preserveAspectRatio="none" width="100%" height="100%" overflow="visible" style="display: block;" viewBox="0 0 30.1657 23.7723" fill="none" xmlns="http://www.w3.org/2000/svg">
<path id="Vector 80" d="M25.4498 13.0677C25.6979 11.9818 25.887 10.81 26.1408 9.53247C26.2416 9.0808 26.1731 8.52842 26.0763 8.31525C26.1402 8.39179 25.8529 8.02454 25.4223 7.75246C24.986 7.45509 24.4706 7.18499 23.8211 6.82783C23.7737 6.80068 23.7233 6.77273 23.6725 6.74516C23.3767 6.58805 23.4477 6.47005 23.3662 6.41173C23.1339 6.25186 22.909 6.34088 22.7203 6.25313C21.7899 5.82669 20.8202 5.50465 19.7994 5.16466C18.7402 4.81922 19.3592 4.53349 19.0091 4.32985C18.318 3.9353 18.8076 4.65288 18.4843 4.70287C18.1945 4.61689 17.9025 4.52865 17.6098 4.4387C17.0865 4.27553 16.5427 4.12111 15.9805 3.96681C16.203 3.95674 16.4234 3.94785 16.6434 3.94327C16.2757 3.85428 15.749 3.65948 16.4113 3.64009C16.2804 3.5713 16.1591 3.49775 16.0222 3.42938C15.9427 3.62619 15.261 3.50811 15.1729 3.61638C15.0863 3.72532 15.4762 3.77412 15.4712 3.78406C15.4316 3.89378 14.559 3.63021 14.0709 3.46406C13.9556 3.41898 13.8694 3.38955 13.8492 3.38201C13.6337 3.30675 13.864 3.07454 13.6615 3.06913C13.2988 3.07452 13.5519 3.60251 13.0599 2.90868C12.8729 3.14583 12.8554 3.02721 12.5991 3.04173C12.5655 3.04413 12.6084 3.17126 12.5944 3.17656C12.2338 3.32889 12.4837 3.04368 12.4822 3.03046C12.4151 2.80922 11.9999 2.98803 11.9046 2.99141C11.1593 2.99172 10.4931 3.10512 9.73044 3.20677C9.29915 3.25521 8.85558 3.34501 8.37641 3.51303C8.10082 3.59734 7.37946 4.0692 7.13621 4.19107C6.88794 4.30424 6.92222 4.08995 6.75795 4.10466C6.78087 4.55999 6.64388 4.70626 6.06627 4.82481C6.06712 4.84266 6.06763 4.85905 6.06778 4.87413L6.07684 4.86697C6.08217 5.14974 5.93498 4.99593 5.728 5.24123C5.70813 5.26627 5.69039 5.29585 5.6754 5.32791C5.60761 5.50137 5.66321 5.96525 5.30888 6.14272C5.48524 5.80813 5.33545 5.76636 5.45269 5.39827C5.46417 5.37028 5.4963 5.30721 5.5722 5.22271C5.67065 5.10966 5.84706 4.96157 6.01619 4.79256C6.28286 4.53335 6.50932 4.28065 6.38253 4.19815C6.24307 4.1086 5.91008 4.53288 5.87868 4.52317C5.68683 4.46516 5.79459 4.12804 6.04787 4.02901C6.01482 4.09412 5.97222 4.16749 5.93672 4.23545C6.52285 4.05544 5.74647 3.65198 6.50363 3.95536C6.59598 3.99392 6.62819 4.07757 6.75062 4.10276C6.74534 4.06188 6.60434 4.04642 6.6729 3.98072C6.74397 3.9128 6.98903 3.96269 6.93436 3.82489C6.85655 3.62082 6.56193 3.91036 6.53224 3.9181C6.53269 3.91935 6.53315 3.92059 6.5336 3.92184C6.24754 3.97988 6.70582 3.65331 6.72068 3.62441C6.80014 3.41884 6.64135 3.39486 6.81967 3.16133C6.92195 3.02645 7.29418 2.86963 7.41861 2.78952C7.54202 2.70712 7.29189 2.71609 7.37188 2.65343C7.45332 2.59003 7.59902 2.6068 7.69501 2.53744C7.73654 2.50723 7.69002 2.40518 7.711 2.39186C7.937 2.24998 7.86671 2.53133 8.07942 2.43105C8.21351 2.36514 8.62837 1.9924 8.27104 2.04809C8.4252 1.96928 8.58151 1.90049 8.73913 1.83397C8.62616 1.83348 8.51165 1.84636 8.39886 1.84291C8.72359 1.79121 8.80952 1.56802 9.00373 1.49915C9.09955 1.46575 9.20181 1.49194 9.30624 1.50839C9.38898 1.53249 9.47767 1.54228 9.5513 1.46137C9.73416 1.26288 9.49231 1.31556 9.27157 1.36957C9.04932 1.42341 8.81458 1.50035 8.7495 1.50119C8.68785 1.50163 8.85497 1.26489 8.8869 1.25125C8.99099 1.20533 9.12814 1.23453 9.23963 1.2417C9.26953 1.24758 9.29763 1.2493 9.32027 1.24168C9.61731 1.13957 9.77854 0.907513 10.1174 0.767577C11.2264 0.267798 13.2201 -0.233172 14.7859 0.116843C14.8013 0.119586 14.8166 0.122312 14.8318 0.12502C15.2417 0.198025 15.4512 0.43548 15.638 0.467774C16.0764 0.542852 16.1624 0.389171 16.5515 0.457564C17.1283 0.556985 17.9465 0.876173 18.4487 1.03561C18.4497 1.03591 18.4506 1.0362 18.4515 1.0365C18.775 1.13838 19.1174 1.05774 19.2057 1.07603C20.4275 1.32145 21.9151 1.74037 22.9395 2.08577C23.4228 2.24712 23.5909 2.50472 23.6922 2.53599C24.129 2.67593 24.0703 2.48741 24.4174 2.6434C24.6065 2.72989 24.5833 2.88297 24.6069 2.89911C24.8114 3.04027 24.9358 2.8832 25.1179 2.95983C25.3196 3.04548 25.523 3.14427 25.7231 3.25437C26.3455 3.59798 27.108 4.06143 27.8939 4.64126C27.9658 4.69489 27.9084 4.75996 27.9577 4.79078C28.1716 4.92629 28.1603 4.74437 28.3825 4.91177C28.8403 5.27255 29.3314 5.75735 29.7158 6.57055C29.7407 6.62527 29.7109 6.68109 29.7122 6.76773C29.7107 6.80488 29.7166 6.84979 29.7366 6.90112C29.7968 7.05823 29.9378 7.14069 29.9984 7.38012C30.1497 8.00148 30.0847 8.59917 30.0581 9.21131C30.0537 9.3113 30.1802 9.44721 30.1643 9.6017C30.1418 9.82311 30.0776 10.0856 29.9956 10.3369C29.9192 10.5374 29.8401 10.7476 29.8079 10.8993C29.6109 11.8382 29.5199 12.7611 29.3101 13.7047C29.2605 13.9269 29.0935 14.0963 29.0627 14.2115C28.9929 14.4717 29.1552 14.3017 29.0889 14.5689C28.6877 15.9669 28.4085 17.4138 26.9854 19.02C26.3615 19.6586 25.6387 20.241 24.8961 20.7214C24.4771 20.995 24.0234 21.2899 23.5929 21.5498C23.3123 21.7312 22.8641 22.0161 22.4786 22.1948C22.1348 22.3546 21.9983 22.2392 21.7561 22.3501C21.3172 22.5447 21.3142 22.7716 20.8318 22.9739C20.443 23.1332 19.926 23.0766 19.5139 23.1921C19.0981 23.3062 18.9462 23.5449 18.4495 23.6503C18.0399 23.7362 17.4556 23.704 17.0113 23.7356C15.8582 23.8234 14.7093 23.7508 13.5983 23.5495C11.6646 23.2311 9.48064 22.4733 7.81458 21.4658C7.65715 21.3554 7.09237 21.1692 6.51018 21.014C5.38259 20.6517 3.75195 20.6232 2.14358 19.0831C2.00754 18.9245 2.35269 19.0215 1.87677 18.5665C1.79466 18.4811 1.6925 18.3887 1.57812 18.2687C1.35162 18.0324 1.12717 17.7703 0.960516 17.3967C-0.0282414 14.7538 -0.458316 12.2009 0.675374 9.03804C0.859691 8.63712 1.04634 8.11855 1.24053 7.60058C1.73312 6.33052 2.20939 4.8018 3.61123 3.48119C6.94449 0.819032 10.0425 0.644169 12.8924 1.4813C13.0954 1.54937 13.0694 2.04563 12.9803 2.1997C12.8618 2.11872 12.7491 2.01818 12.6259 1.92529C12.5919 2.54629 12.5838 2.3865 12.0812 2.41539C11.7673 2.43416 12.0563 2.64861 11.9061 2.74894C11.7098 2.87729 10.781 3.34999 10.8978 2.92055C10.848 3.00063 10.8033 3.07688 10.7564 3.15509C10.0581 3.34797 9.38938 3.58704 8.73628 3.86292C8.62512 3.91062 8.64981 4.03446 8.534 4.08417C8.2271 4.21846 7.95561 4.2059 7.63636 4.31556C7.46156 4.37654 7.48248 4.52207 7.25955 4.58704C7.03693 4.65455 6.96926 4.46743 6.75569 4.78104C7.02902 4.93282 6.14785 5.10421 5.90856 5.28387C5.86666 5.30827 5.6986 5.67753 5.54506 5.76728C5.519 5.782 5.48919 5.79604 5.45673 5.81054C5.30743 5.8701 5.08092 5.95769 4.9778 6.17667C4.92029 6.29954 5.0059 6.46787 4.93153 6.58211C4.87959 6.66239 4.68472 6.67135 4.60699 6.77855C4.52811 6.88414 4.49092 7.19718 4.46831 7.24465C4.38296 7.4173 4.39049 7.17852 4.32214 7.29276C3.99154 7.84787 3.64236 8.57406 3.45161 9.28007C3.42743 9.36759 3.59105 9.29648 3.59072 9.30915C3.51436 9.94082 3.47669 9.57712 3.30985 9.69126C3.2543 9.731 3.17598 9.883 3.08869 10.0867C2.97732 10.3321 2.96325 10.7567 3.10907 10.7875C2.83092 10.7593 3.00224 11.0039 3.00412 11.0569C3.0075 11.2691 2.77398 11.2022 2.82874 11.4246C2.84953 11.5056 3.02295 11.3656 3.01162 11.449C2.98484 11.6496 2.71615 11.834 2.69283 12.1309C2.68749 12.203 2.80336 12.2229 2.80354 12.3489C2.80011 12.4734 2.6998 13.0203 2.92477 12.7549C2.75607 13.0933 2.86938 13.1526 2.91481 13.5302C2.92675 13.6256 2.76017 13.7793 2.85317 13.9757C2.88482 14.0417 3.06156 14.0082 3.08221 14.1106C3.13056 14.3439 2.99503 14.6053 3.06273 14.9068C3.18898 15.4663 3.50179 16.0187 3.68269 16.4958C3.73103 16.6186 3.55723 16.6843 3.64588 16.8371C3.64858 16.8414 3.66144 16.8484 3.67932 16.8554C3.74657 16.8846 3.89269 16.9129 3.94228 16.9745C3.96247 17.0212 4.2056 17.3307 4.29113 17.3786C4.4109 17.4596 4.5134 17.3127 4.56889 17.3767C4.74244 17.5605 4.47242 17.7284 4.87556 17.5079C4.89827 17.7259 5.07918 17.766 5.06484 18.0133C5.24785 17.7946 5.3109 18.0786 5.54741 18.0503C5.78399 18.0216 6.0759 17.5653 6.00193 18.1126C6.11785 18.0723 6.58122 18.0588 6.65991 18.0671C6.88724 18.0928 6.73605 18.2152 6.90938 18.2323C6.94 18.2355 6.93066 18.1268 7.12206 18.1799C7.24078 18.2073 8.20724 18.4562 8.27044 18.5026C8.9043 18.8809 7.86529 18.4775 7.7063 18.5681C7.689 18.5332 7.67176 18.4983 7.65229 18.4633C7.37691 18.3453 7.48485 18.613 7.6004 18.698C7.71315 18.7817 7.98489 18.7471 8.07109 18.8541C8.11284 18.9074 7.99936 19.1658 7.85149 19.0885C7.99618 19.2199 7.74179 19.2426 7.78606 19.3399C7.84045 19.437 8.52931 19.7089 8.59394 19.5842C8.46502 19.5191 8.2974 19.4609 8.16117 19.4085C8.07353 19.146 8.67726 18.5723 9.21257 18.8711C9.28056 18.9116 9.33892 18.9727 9.38226 19.059C9.58996 19.4696 8.94256 19.372 9.8351 19.5827C9.71911 19.5119 9.6278 19.4361 9.52329 19.3684C9.6058 19.1835 9.68025 19.4735 9.80204 19.4633C9.85997 19.4578 9.65563 19.1917 9.91133 19.2695C9.98158 19.6292 10.2686 19.4492 10.6046 19.5986C10.4895 19.6031 10.374 19.606 10.2571 19.6072C10.7489 20.0707 9.36073 19.4942 10.4536 20.1344C10.3105 20.0808 10.1749 20.0151 10.03 19.9611C10.0514 20.089 9.80796 20.3175 9.84048 20.4062C9.92838 20.6404 10.2173 20.6586 10.4137 20.7588C10.5008 20.8028 10.4124 20.8566 10.4197 20.8602C10.538 20.9202 10.5598 20.7957 10.6692 20.8321C10.8069 20.8795 11.159 21.1403 11.2307 21.1499C11.4081 21.1762 11.2137 20.8485 11.2369 20.8371C11.3821 20.7654 11.5623 20.931 11.6009 20.7811C11.0418 20.7193 9.68054 19.972 11.0595 20.2785C10.8007 19.9041 11.039 19.6379 11.534 19.7973C11.9489 19.9241 11.6384 19.9581 11.8053 20.1768C11.8259 20.2069 12.3729 20.4568 12.4342 20.3607C12.3406 20.5899 12.4697 20.8549 12.2703 21.0613C12.2399 21.0917 12.0005 21.0037 12.0258 21.2249C12.0376 21.336 12.1005 21.5877 12.0434 21.7069C12.1219 21.6354 12.2034 21.5527 12.2822 21.4767C12.6651 21.5572 12.6939 21.6634 12.8602 21.8807C12.8672 21.8095 12.7491 21.4738 13.0176 21.6339C13.0313 21.6428 13.0171 21.7495 13.1544 21.8367C13.4287 22.01 13.4911 22.0567 13.1846 22.3082C13.4841 22.296 13.6586 22.3574 13.826 22.4356C14.0437 22.5344 14.239 22.6572 14.6301 22.6567C14.5598 22.28 14.3573 22.2997 13.8599 22.2701C13.8047 22.2668 13.7464 22.263 13.685 22.258C13.6793 22.159 13.6871 22.0637 13.6814 21.9636C13.767 22.0081 13.839 22.0459 13.8992 22.0776C14.3576 22.3116 14.1017 22.2263 14.5329 22.1244C14.65 22.0984 15.2378 22.2209 15.0712 21.9277C15.0323 21.8604 14.6709 21.8186 14.7275 21.7243C14.7366 21.7081 15.1787 21.7156 15.2124 21.7433C15.6692 22.1018 14.7656 22.2769 16.1497 22.2332C16.1881 22.2307 16.2043 22.114 16.2779 22.0988C16.4161 22.07 16.415 22.2057 16.5413 22.1738C16.6682 22.1413 16.8278 21.9554 17.0226 22.1147C17.3883 22.4035 16.5637 22.6266 16.1961 22.4474C16.0202 22.9094 18.7499 22.7223 18.8991 22.5739C19.5813 22.2712 18.4114 22.6154 18.328 22.5023C18.2932 22.4594 18.2197 21.8693 17.9793 22.2939C17.9045 22.4205 18.3004 22.5178 18.0852 22.6122C17.8673 22.7054 17.9357 22.5182 17.9176 22.5084C17.8587 22.4741 17.6271 22.5651 17.5939 22.5426C17.0952 22.2036 17.0882 21.6379 17.7801 22.4167C18.0224 22.1968 17.3855 21.9618 17.6957 21.7972C18.0589 21.5976 18.3783 21.8142 18.4319 21.8174C19.0414 21.8447 18.2969 21.5964 19.0217 21.5645C19.4287 21.5363 18.4946 21.9696 19.3883 21.7165C20.1286 21.4782 19.681 21.4618 19.6429 21.1466C19.6349 21.0718 19.9909 20.8649 19.4771 21.0599C19.4858 21.1428 19.4882 21.2549 19.4747 21.3376C19.3234 21.32 18.9996 20.9806 18.9322 20.982C18.584 20.9953 18.6448 21.197 18.397 20.9911C18.5908 21.2328 18.3299 21.1159 18.2531 21.1874C17.9622 21.4493 18.3986 21.4725 17.6267 21.2958C17.7374 21.4129 17.8383 21.5275 17.9536 21.6409C17.8613 21.6582 17.7734 21.6738 17.6818 21.6886C17.5088 21.4249 17.0529 21.4979 17.448 21.1777C16.9374 21.1426 16.7412 21.2006 16.6313 21.4247C16.6107 21.4671 16.5322 21.4852 16.4399 21.4891C16.4566 21.5511 16.4803 21.7426 16.4653 21.7661C16.3321 21.9733 16.1306 21.6114 16.2046 21.4769C16.1404 21.4689 16.0886 21.4595 16.0714 21.4556C15.9601 21.4306 16.1844 21.315 16.0943 21.2698C16.0664 21.2563 15.7507 21.2673 15.7469 21.2158C15.7339 20.8887 16.2151 21.1711 15.2223 20.8922C15.1621 21.1816 15.6508 21.1631 15.5009 21.4606C15.3318 21.7818 15.1033 21.3065 14.9927 21.7042C14.9781 21.6346 14.975 21.5777 14.9652 21.4992C14.5113 21.6175 14.5526 21.2734 14.4413 21.1789C14.3805 21.1272 14.2507 21.0755 14.1125 21.0342C13.7482 20.9246 13.3283 20.9046 14.0408 21.2758C13.8807 21.273 13.7214 21.2527 13.5652 21.2442C13.666 20.6387 13.6983 20.905 13.0095 20.6358C12.8567 20.5746 12.8794 20.3025 12.6428 20.5678C12.7468 20.2734 12.2449 20.3235 12.2131 20.2719C12.0256 19.9584 13.0945 19.9197 13.0889 20.4811C13.3127 20.3158 13.2426 20.5919 13.446 20.6019C13.7382 20.6142 13.7876 20.569 14.0802 20.8453C14.4642 20.6294 12.8312 20.4325 13.883 20.2681C13.9782 20.2529 14.1084 20.2463 14.2735 20.2467C15.056 20.2497 16.5621 20.3014 17.9128 19.9711C19.2737 19.6699 20.4533 19.0184 20.9443 18.7186C21.2181 18.5555 21.4565 18.396 21.8017 18.1939C22.94 17.5205 23.5263 17.0468 24.2059 16.3342C24.2939 16.2394 24.4669 15.9918 24.6385 15.6293C24.7235 15.5273 25.1571 14.1323 25.3869 14.5136C25.4234 14.5718 25.3419 15.24 25.7731 14.7808C25.5872 14.8443 25.5889 14.4923 25.5798 14.4607C25.392 13.7265 25.2089 14.0847 25.4498 13.0677ZM29.0898 10.456C28.734 11.8677 29.1636 10.8622 29.613 11.2568C29.6501 11.0721 29.6865 10.8914 29.7236 10.7121C29.6822 10.7542 29.6416 10.7933 29.6004 10.8348C29.6004 10.835 29.6003 10.8352 29.6003 10.8354C29.4296 10.7106 29.2598 10.5821 29.0898 10.456ZM7.89032 1.83829C7.92655 1.75138 7.96465 1.66422 8.00881 1.57726C8.22756 1.51992 8.44517 1.46988 8.66284 1.42647C8.65062 1.47834 8.63982 1.53044 8.62844 1.58223C8.38091 1.65637 8.13414 1.73888 7.89032 1.83829ZM15.9764 22.5155C15.6978 22.3133 15.7009 22.6534 15.3276 22.4678C15.3523 22.72 15.3855 22.9673 15.4184 23.2171C15.7293 23.2032 15.8057 23.1131 16.1399 23.1839C16.1024 23.103 16.0642 23.0213 16.0291 22.9396C15.9742 22.9549 15.9152 22.9721 15.8612 22.9848C15.7898 22.7587 16.3057 22.7436 15.9774 22.5151C15.9771 22.5152 15.9767 22.5154 15.9764 22.5155ZM13.0379 22.176C12.8967 22.1115 12.3401 21.8396 12.2347 21.9146C11.8617 22.1814 13.6034 22.406 12.2827 22.383C12.2755 22.4319 12.2572 22.4767 12.2444 22.5236C12.4678 22.6023 12.695 22.6753 12.9216 22.7434C12.954 22.5523 13.0065 22.3685 13.0379 22.176ZM27.8949 15.7563C27.8125 15.9724 27.4949 17.1523 27.8509 16.8769C27.9642 16.7885 27.8704 16.1641 27.9439 15.9856C27.9948 15.8657 28.1126 16.0596 28.1338 15.7967C28.0576 15.7833 27.9749 15.7631 27.8952 15.7571C27.8951 15.7568 27.895 15.7566 27.8949 15.7563ZM27.0662 15.0293C27.0272 15.264 26.991 15.5008 26.9408 15.7375C27.1878 15.6393 27.1741 15.2702 27.4448 15.3352C27.445 15.4047 27.4446 15.4741 27.4435 15.5446C27.3696 15.5743 27.2959 15.6023 27.2222 15.6294C27.2955 15.8768 27.4125 15.7824 27.2316 16.1378C27.7068 16.0669 27.9541 16.0792 27.7531 15.3011C27.9317 15.4937 28.6843 15.5909 28.2809 15.071C28.2058 14.9756 28.0598 15.2426 28.0434 15.2407C27.8435 15.2277 27.77 15.0372 27.5792 15.0311C27.4933 15.0282 27.4442 15.1956 27.3254 15.1866C27.2682 15.1809 27.1616 14.9771 27.0662 15.0293ZM28.1512 14.844C28.2446 14.95 28.5863 14.7702 28.5879 14.5339C28.589 14.1703 28.1947 14.6427 28.1512 14.844ZM7.88906 1.83905C7.88948 1.83879 7.8899 1.83854 7.89032 1.83829C7.89019 1.83861 7.89005 1.83894 7.88992 1.83927C7.88963 1.83919 7.88935 1.83912 7.88906 1.83905ZM13.7787 22.4807C13.5812 22.5432 13.3217 22.4706 13.3066 22.631C13.2279 22.5813 13.1449 22.5306 13.0671 22.48C13.057 22.527 13.0476 22.5743 13.0375 22.6209C13.2715 22.7039 13.503 22.7826 13.7394 22.8594C13.762 22.8666 13.7845 22.8737 13.8071 22.8808C13.8007 22.7925 13.7959 22.7042 13.7892 22.6156C13.7863 22.5707 13.783 22.5258 13.7787 22.4807ZM11.0139 21.6036C10.7029 21.472 10.8929 21.7739 10.7868 21.8468C10.6778 21.9194 10.4215 21.7277 10.4001 21.8808C10.5895 21.9623 10.7868 22.0423 10.9806 22.1163C10.9836 21.9435 11.0053 21.7738 11.0133 21.6034C11.0135 21.6034 11.0137 21.6035 11.0139 21.6036ZM26.2 4.44007C26.3813 4.59351 26.2138 4.6857 26.714 4.75065C26.7137 4.75047 26.7134 4.75029 26.7131 4.75011C26.399 4.40517 25.9465 4.0359 25.5031 3.95399C25.6582 4.2328 25.9167 4.20403 26.2 4.44007ZM16.796 23.01C16.8926 22.8768 16.4231 22.7763 16.3228 22.8949C16.1502 23.0915 16.6466 23.2169 16.796 23.01ZM17.3762 2.64728C17.0303 2.92371 17.3459 3.37537 17.8447 3.48595C17.9355 3.5062 18.0375 3.51614 18.1406 3.5108C18.1995 3.50762 17.8214 3.28142 17.9614 3.2346C17.9755 3.23002 18.1974 3.29486 18.2679 3.25439C18.3371 3.21343 18.3103 3.07166 18.4144 3.04092C18.5984 2.98756 18.9173 3.25201 19.067 3.16043C19.0868 3.14798 18.9066 2.92096 18.8934 2.91082C18.6888 2.74941 18.4091 2.91597 18.3746 2.90894C18.1873 2.87048 18.2605 2.70361 18.2235 2.65095C18.1865 2.5987 18.1212 2.58486 18.0674 2.58253C18.0175 2.58005 17.9761 2.58683 17.9716 2.58286C17.848 2.4713 17.9482 2.46632 18.0915 2.48461C18.2286 2.50176 18.4082 2.541 18.4598 2.5208C18.7332 2.40905 18.5568 2.19645 19.1417 2.24281C19.1955 2.24683 19.8326 2.42116 19.0779 2.02033C20.5216 2.02212 18.9536 1.69726 18.3019 1.6311C18.1865 1.61808 18.0984 1.61283 18.0566 1.61669C17.9241 1.62937 18.0703 1.83984 17.9783 1.8973C17.7693 2.02857 17.4787 1.99591 17.4506 2.24428C17.3935 2.75345 17.8125 2.52599 18.0499 2.65336C18.0556 2.65644 18.0612 2.65974 18.0666 2.66327C18.0527 2.69048 18.0399 2.71778 18.0273 2.74498C17.9915 2.82139 17.9571 2.89702 17.902 2.96785C18.0135 2.83985 17.4069 2.62105 17.3765 2.64628C17.3764 2.64661 17.3763 2.64695 17.3762 2.64728ZM21.4899 3.11141C21.7944 3.36897 21.868 3.04661 22.1324 3.32892C22.5077 3.1389 21.94 2.97671 21.879 2.94151C21.6017 2.7778 21.7009 2.47145 21.3634 2.47471C21.4158 2.68874 21.4467 2.89883 21.4899 3.11141ZM18.4567 2.15071C18.7342 2.04761 18.3099 1.94518 18.3004 1.91009C18.1946 1.53441 19.4476 1.91455 18.4567 2.15071ZM26.7123 16.8947C26.6424 17.0051 26.8227 17.0056 26.8091 17.1311C26.7974 17.2614 26.4642 17.538 26.5507 17.5816C26.6384 17.6409 27.2786 17.0859 26.9 17.8044C26.962 17.8121 26.9917 17.8428 27.0414 17.8591C27.171 17.6643 27.2856 17.468 27.3875 17.2739C27.1888 17.3077 26.9822 17.332 26.7918 17.3492C26.7396 17.1844 26.9135 17.2071 26.9167 17.2015C26.9166 17.2014 26.9164 17.2013 26.9163 17.2012C27.0112 17 26.8632 16.6468 26.7123 16.8947ZM28.7041 6.98528C28.5087 7.05781 28.5674 7.12514 28.682 7.20623C28.7868 7.27516 28.9399 7.35515 28.9858 7.41826C29.0825 7.55018 28.9886 7.7864 29.1361 7.66817C29.1708 7.49996 29.0228 7.26351 28.8814 7.12134C28.7954 7.02888 28.7191 6.97966 28.7036 6.98551C28.7038 6.98544 28.7039 6.98536 28.7041 6.98528ZM23.3904 3.74738C23.7164 3.768 23.7104 3.65244 24.0228 3.90857C24.0461 3.81351 24.07 3.71641 24.0922 3.62254C23.8038 3.5031 23.7229 3.77267 23.4326 3.54173C23.3847 3.50409 23.5805 3.33696 23.308 3.31346C23.3389 3.45219 23.3652 3.60367 23.3904 3.74738ZM24.9857 4.0417C24.6335 3.88671 24.0531 4.47893 24.8034 4.4475C24.914 4.44399 25.2479 4.16179 24.9857 4.0417ZM27.7391 13.7752C27.5766 14.3521 27.8603 13.7211 28.0112 13.5942C27.778 14.983 28.0199 13.4352 28.4349 13.3825C28.361 13.1888 28.1722 12.8234 28.0298 13.1551C27.9701 13.2934 28.0979 13.2661 28.0956 13.2747C28.0077 13.535 27.8254 13.4601 27.7391 13.7752ZM20.8737 2.95021C20.897 2.95078 20.9002 2.81108 20.9769 2.80504C21.0538 2.79918 21.1846 2.93591 21.2233 2.86093C21.2626 2.78528 20.9646 2.63112 20.8506 2.66226C20.737 2.69386 20.6627 2.94405 20.8737 2.95021ZM22.9618 3.96571C23.2773 3.97669 22.9832 3.34034 22.9172 3.32095C22.3597 3.15597 23.035 3.8219 22.9618 3.96571ZM27.2039 12.2535C27.3094 12.9976 27.8451 12.5822 28.191 12.1902C28.15 12.1216 28.1091 12.0519 28.0684 11.984C28.3351 12.3107 28.5597 12.8387 28.4837 11.7502C28.2989 12.3005 28.3052 11.8107 28.2877 11.8041C27.7144 11.6279 27.8219 12.5149 27.204 12.2529C27.204 12.2531 27.204 12.2533 27.2039 12.2535ZM19.9735 2.55336C19.6679 2.47232 18.8555 2.37142 19.1576 2.71734C19.4285 2.66115 19.7002 2.60624 19.9735 2.55336ZM20.622 20.4655C20.3398 20.4251 20.1378 20.5093 19.8629 20.6171C20.1866 20.7308 20.0328 20.8131 19.9623 20.8943C19.8564 21.0165 20.1742 20.8966 20.1805 20.9086C20.2455 21.1026 20.0511 21.2146 20.5209 21.0263C20.4316 21.1394 20.3401 21.2517 20.2453 21.362C20.6181 21.2338 20.7491 21.3217 21.0511 21.3708C20.6649 21.1002 21.0662 21.2047 21.2424 20.9005C21.3281 20.7501 20.7599 20.4909 20.6212 20.4658C20.6215 20.4657 20.6217 20.4656 20.622 20.4655ZM26.9762 12.9512C27.0313 13.0373 27.1125 13.123 27.1777 13.2097C27.1687 13.2863 27.1584 13.3628 27.1489 13.4393C27.0846 13.4342 27.0178 13.4269 26.9555 13.4238C26.9148 13.5174 27.0101 13.4994 27.0115 13.5304C27.0111 13.5303 27.0108 13.5303 27.0105 13.5302C27.0267 13.974 26.9687 14.1455 26.6914 14.4141C26.8799 14.4659 27.0684 14.5177 27.257 14.5695C27.2595 14.49 27.2618 14.4112 27.2638 14.3323C27.1726 14.2662 27.0811 14.2003 26.9894 14.1351C27.0672 14.0652 27.1443 13.9948 27.2217 13.9229C27.2019 13.8453 27.1831 13.7537 27.1614 13.6859C27.7752 13.4682 27.2268 14.1638 27.4424 14.2253C27.585 14.2677 27.7708 13.4693 27.6951 13.3332C27.6842 13.3137 27.2494 13.3956 27.5202 13.1529C27.5623 13.1159 28.4278 13.2836 27.7968 12.8209C27.7071 12.7557 27.1395 12.799 26.9762 12.9512ZM25.9441 15.5909C26.6334 15.4059 25.473 16.6134 26.1661 16.1846C26.322 16.4675 26.3307 16.4426 26.6258 16.3445C26.6523 16.3358 26.6581 16.4975 26.6712 16.49C26.8698 16.3607 26.8967 16.1114 27.1115 16.1941C27.1203 16.1387 27.1286 16.0874 27.1365 16.0319C26.8531 16.1643 26.8467 15.7771 26.716 15.5931C26.658 15.5085 26.5876 15.6304 26.5362 15.5583C26.5177 15.5323 26.6307 15.3675 26.5608 15.3359C26.403 15.2654 26.1455 15.3062 25.9606 15.4432C25.9605 15.4431 25.9603 15.4431 25.9601 15.443C25.9543 15.4919 25.9503 15.5418 25.9441 15.5909ZM27.0764 6.92243C27.2424 6.65534 27.0637 6.35271 27.6088 6.67319C27.6324 6.60891 27.6535 6.54341 27.6744 6.47742C27.5937 6.40409 27.5137 6.33709 27.4283 6.26913C26.6113 6.76532 26.7943 5.6435 26.6968 6.36888C26.6868 6.44816 26.9136 6.51995 26.621 6.54094C26.6211 6.54126 26.6213 6.54157 26.6214 6.54189C26.8999 6.67748 27.0086 6.62572 27.0764 6.92243ZM28.0661 8.58183C28.4177 8.92458 28.504 8.66958 28.4455 8.3327C28.3889 7.99763 28.1567 7.66033 28.1189 7.8336C28.1288 7.85306 28.4019 8.6105 28.0661 8.58183ZM23.7259 5.35033C24.0129 5.48991 24.1824 5.18299 24.2068 5.05296C24.2302 4.9223 23.9667 4.94436 23.9472 4.91436C23.8842 4.81418 24.0928 4.85826 24.0121 4.72341C23.9886 4.67768 23.488 4.33483 23.4549 4.3408C23.2844 4.36498 23.3822 4.71626 23.3298 4.73168C23.1625 4.7832 23.0408 4.57526 22.9491 4.70673C22.7535 4.98654 23.1994 4.78319 23.2564 4.80029C23.428 4.85094 23.3429 5.01778 23.4505 5.10189C23.5565 5.18576 23.6599 5.16033 23.7591 5.21793C23.7919 5.23707 23.7115 5.34274 23.7259 5.35033ZM25.0323 5.16157C24.594 5.23575 25.2282 5.89128 25.3406 5.88262C25.6928 5.8595 25.2451 5.12586 25.0323 5.16157ZM27.0957 14.8154C26.9988 14.453 26.6414 15.1253 26.6444 15.3461C26.7344 15.3377 27.1302 14.9435 27.0957 14.8154ZM27.2435 12.0609C27.2445 12.3643 27.7505 12.0637 27.7914 11.8165C27.5372 11.6191 27.5672 11.7637 27.5243 11.9215C27.4813 12.0782 27.2423 11.8248 27.2435 12.0609ZM20.4257 3.88404C20.4857 3.90306 21.5422 3.96826 21.0011 3.70509C20.9603 3.68391 20.2507 3.5252 20.1865 3.55465C20.0563 3.61145 20.2712 3.82687 20.4257 3.88404ZM27.0989 10.5761C27.3125 10.7797 27.2799 10.9318 27.5937 10.8443C27.5938 10.8441 27.5938 10.8439 27.5938 10.8437C27.606 11.2537 27.0169 11.1579 27.0131 11.2453C27.0003 11.5487 27.4712 11.3495 27.5724 11.5611C27.5268 11.1049 27.784 11.2829 27.865 10.9575C27.883 10.8844 27.7721 10.5572 27.6763 10.4924C27.5803 10.428 27.2366 10.5207 27.0989 10.5761ZM19.0042 3.56555C19.3175 3.74461 19.7284 3.43699 19.2756 3.25226C19.0553 3.1626 18.8114 3.45632 19.0042 3.56555ZM12.8915 20.6779C12.9142 20.7931 12.9417 20.9089 12.9693 21.0239C12.8393 21.017 12.7102 21.0096 12.5792 21.0003C12.6862 20.9953 12.7908 20.9893 12.8981 20.9833C12.6757 20.8868 12.6248 20.6732 12.8909 20.6777C12.8911 20.6778 12.8913 20.6779 12.8915 20.6779ZM4.83135 17.8199C4.77677 17.6932 4.48449 17.9137 4.4958 17.9446C4.6039 18.1885 4.91592 17.9991 4.83135 17.8199ZM26.0458 14.9795C25.8859 15.3219 26.4534 15.2437 26.5598 15.0224C26.4229 15.1308 26.1346 14.7833 26.0458 14.9795ZM7.7063 18.5681C7.73176 18.6201 7.75843 18.6725 7.78832 18.726C7.67343 18.6324 7.66236 18.5878 7.7063 18.5681ZM20.4588 4.36336C20.5061 4.41715 20.9255 4.57389 20.9964 4.54513C21.1461 4.4835 20.8925 4.11191 20.6691 4.13808C20.6442 4.1405 20.4118 4.30899 20.4597 4.36361C20.4594 4.36353 20.4591 4.36344 20.4588 4.36336ZM12.4391 20.3476C12.4383 20.3525 12.4366 20.3569 12.4342 20.3607C12.436 20.3564 12.4372 20.3518 12.4391 20.3476ZM3.13251 10.7896C3.12435 10.7899 3.11643 10.7893 3.10907 10.7875C3.11649 10.7883 3.12444 10.7884 3.13251 10.7896ZM23.2395 5.75942C23.1801 6.26174 23.5631 6.1473 23.434 5.82775C23.4264 5.81043 23.2701 5.77291 23.2395 5.75942Z" fill="var(--stroke-0, #6E0909)"/>
</svg>
