<svg preserveAspectRatio="none" width="100%" height="100%" overflow="visible" style="display: block;" viewBox="0 0 28.444 22.7633" fill="none" xmlns="http://www.w3.org/2000/svg">
<path id="Vector 81" d="M16.1199 11.8301C16.3983 11.5886 16.5782 11.3553 16.5337 11.4123C17.0471 10.7552 17.0899 10.4621 17.145 10.3306C17.1853 10.1996 17.1761 10.2123 17.1716 10.2722C17.1574 10.4009 17.1452 10.7171 17.1601 11.0626C17.187 11.7637 17.3002 12.6414 17.4616 13.3975C17.3106 12.5414 16.7817 11.6671 16.3623 11.2455C15.9361 10.8013 15.6569 10.6531 15.522 10.5706C15.2546 10.4283 15.4208 10.519 15.7009 10.6107C15.7587 10.6159 15.6271 10.5976 15.6532 10.6018C15.6715 10.6013 15.8644 10.5521 16.1492 10.3677C15.427 10.8458 14.9474 11.6486 14.8245 12.03C14.6825 12.4349 14.7106 12.5339 14.7163 12.4939C14.746 12.3957 14.7508 11.8411 14.7275 11.1652C14.7241 11.0454 14.7302 10.9399 14.7435 10.8491C14.9135 11.5344 15.2116 11.4388 15.3163 11.6492C15.5142 11.9775 15.5716 12.168 15.581 12.3246C15.5903 12.4758 15.5641 12.5841 15.5798 12.5779C15.5849 12.5752 15.5844 12.5674 15.5787 12.5556C16.1125 12.8663 15.8866 12.5708 15.4186 12.4646C14.9454 12.3282 14.2556 12.2317 13.4923 12.1694C11.8025 12.0653 12.5364 10.9406 11.893 10.6974C10.5721 10.2539 11.767 11.629 11.2921 11.9908C10.85 11.9981 10.3895 12.0066 9.90749 12.0131C10.0261 11.9814 10.248 11.9807 10.8328 11.7172C11.3946 11.5169 12.4726 10.5157 12.7207 9.66588C13.1216 8.54469 12.8118 7.69017 12.681 7.44116C12.5273 7.15091 12.4573 7.1496 12.4365 7.16359C12.1671 6.8658 11.9048 6.71226 11.7539 6.64737C11.8601 6.78971 12.0535 7.00874 12.2302 7.33214C12.1726 7.36343 12.1243 7.3991 12.1003 7.47922C12.0646 7.43392 12.0465 7.45193 12.0348 7.49183C11.7376 7.21353 11.5475 7.20527 11.479 7.2652C11.4101 7.34548 11.3946 7.40762 11.605 7.84307C11.5986 7.84328 11.5923 7.84343 11.5858 7.84353C11.5834 7.8504 11.581 7.85741 11.5787 7.86454C11.3177 7.7076 11.1141 7.737 11.0552 7.81302C11.1752 7.5745 11.1882 7.43252 11.3578 7.36306C11.513 7.28872 11.7921 7.2548 11.8683 7.10968C11.8736 7.09938 11.878 7.0894 11.8816 7.07972C11.8825 7.05635 11.8866 7.03607 11.8939 7.01858C11.8725 6.8077 11.5528 6.7897 11.5829 6.76991C11.6192 6.66471 11.6989 6.65092 11.9562 6.70793C11.5706 6.63561 11.3269 6.76317 11.3764 6.81685C11.4087 6.87726 11.6047 6.873 11.7056 6.86259C11.5384 6.96689 11.4268 7.06131 11.3812 7.10036C10.8265 7.6336 11.0615 7.7901 11.172 7.8999C11.3139 8.00599 11.3906 8.12979 11.2509 8.35402C11.1516 8.52672 11.0671 8.51478 10.9532 8.51521C10.8438 8.50959 10.7271 8.49143 10.6666 8.48551C10.5451 8.44639 10.6562 8.59835 11.5622 8.23783C11.5541 8.23284 11.5462 8.22791 11.5384 8.22302C10.9933 8.203 11.2901 8.25501 11.3264 8.22238C11.331 8.22053 11.0149 8.32882 11.0075 8.33392C10.8169 8.51822 11.3473 8.18178 11.3887 8.19206C11.9232 7.96796 11.5806 7.90014 11.626 7.88738C11.6453 7.85459 11.6656 7.82611 11.7053 7.81046C11.8379 7.84258 12.3684 7.91765 12.5837 7.78257C12.7861 7.70919 12.9823 7.56022 13.072 7.42858C13.1658 7.29595 13.1708 7.201 13.1484 7.16508C12.8375 7.24737 12.5629 7.88706 12.5484 8.31784C12.5104 8.16054 12.3473 7.86086 12.1176 7.70468C11.893 7.54748 11.7493 7.53275 11.6973 7.52193C11.5936 7.51204 11.6999 7.53186 11.8375 7.56695C12.1349 7.62257 12.6057 7.92649 12.7738 8.2097C13.1216 8.77078 13.3006 9.36887 13.4333 9.90212C13.459 10.0037 13.5031 10.1404 13.5539 10.2731C13.5964 10.3945 13.6912 10.5668 13.6608 10.4763C13.5569 10.297 13.4392 10.2782 13.5207 10.2765C13.6067 10.2662 13.7718 10.2091 13.9067 10.1929C14.234 10.1431 14.2738 10.5818 14.5651 10.6429C14.3606 9.59751 14.4215 9.42162 15.5775 9.25197C15.5108 9.01381 15.5043 8.88717 15.5367 8.81272C15.7171 8.63077 16.21 8.50741 16.4661 8.51308C16.7727 8.46941 16.8952 8.74879 17.4237 8.81082C17.7214 8.8465 18.1652 8.77057 18.5405 8.75487C18.9975 8.74877 19.0706 8.71164 19.3197 9.13885C18.8554 9.00724 18.8939 9.27204 18.3428 9.3085C18.2623 9.31337 18.1692 9.31195 18.061 9.30251C17.9072 9.30062 17.3696 9.0424 16.4221 8.97995C16.2631 8.97643 15.9571 9.05302 15.8451 9.16597C15.331 9.77393 14.9578 10.3244 15.2672 10.5734C15.5997 10.8154 16.0656 9.92901 16.1335 9.95916C16.5608 10.1278 16.5379 10.8467 16.0438 11.0325C16.0831 10.8902 16.1349 10.7325 16.1722 10.5873C15.0498 10.865 16.8221 11.9878 15.1167 11.0908C14.9159 10.9688 14.8215 10.7665 14.5795 10.6509C14.6007 10.7481 14.883 10.8455 14.7668 10.9668C14.6337 11.1012 14.1805 10.8292 14.2838 11.1839C14.4186 11.7309 15.027 11.1803 15.0691 11.1673C15.0678 11.1643 15.0665 11.1612 15.0652 11.1582C15.6518 11.114 14.7673 11.7343 14.7012 11.7867C14.4662 12.2406 14.8881 12.4033 14.2088 12.8641C14.0004 12.989 13.5337 13.0645 13.0525 12.9802C12.6158 12.9294 11.943 12.6027 11.6227 12.255C11.314 11.9275 11.3311 12.0506 11.3751 12.2432C11.4235 12.4269 11.5318 12.6518 11.2751 12.4088C11.213 12.3454 11.1549 12.2735 11.1025 12.1956C10.784 11.6919 10.8767 11.403 10.7484 11.2166C10.6911 11.1297 10.4217 11.2218 10.3985 11.1809C10.1667 10.8041 10.8136 10.8813 10.6792 10.5867C10.6368 10.4963 10.4355 10.375 10.2563 10.3771C10.0766 10.3771 9.91311 10.449 9.88155 10.575C9.79722 10.509 9.73782 10.492 9.70458 10.5123C9.78988 10.6357 9.91075 10.7796 10.0722 10.9179C9.89748 10.7986 9.75728 10.6671 9.65167 10.552C9.60192 10.5873 9.56201 10.6218 9.50117 10.676C9.52817 10.6367 9.50978 10.6452 9.47849 10.6819C9.72598 11.1832 10.6506 11.7466 10.9722 11.8302C11.1157 11.8876 11.1764 11.9439 10.7079 11.8798C10.4759 11.8332 10.0044 11.7539 9.36997 11.2916C8.72311 10.8338 8.26754 9.99826 8.1475 9.50232C8.12785 9.45255 8.11 9.3997 8.09579 9.35029C7.89182 8.58799 8.45565 8.09028 8.19957 7.43992C7.84605 6.30151 7.58788 8.1512 7.9972 9.54277C8.10467 9.96102 8.37398 10.5682 8.83812 11.0557C9.29789 11.5484 9.8188 11.8127 10.1409 11.9377C10.7996 12.1746 10.9398 12.1424 11.009 12.1657C11.1089 12.1849 10.847 12.1537 10.7176 12.1271C10.5807 12.0998 10.5978 12.1436 10.7092 12.2246C10.8124 12.3045 11.0069 12.3989 10.9932 12.4571C10.9748 12.4856 10.7359 12.657 9.63477 12.217C9.10138 11.9914 8.45736 11.47 8.11394 10.9873C7.75956 10.5081 7.62443 10.1385 7.55836 9.96106C7.52488 9.86674 7.49598 9.77426 7.47111 9.68437C7.24691 9.01436 7.52654 8.43996 7.4988 8.07526C7.4428 6.78344 7.10905 5.83408 7.80117 4.25607C7.80483 4.24871 7.80851 4.24135 7.81222 4.23399C8.2169 3.32624 9.57213 1.75014 11.5295 1.42677C12.8138 1.10794 14.6926 1.63354 15.5017 2.23195C17.7792 3.75215 18.8533 5.94215 18.8832 8.47241C18.8859 8.97388 18.9118 9.59673 18.6589 10.6396C18.4623 11.5977 17.5074 13.5484 15.723 14.4566C15.4628 14.605 15.1898 14.7462 14.9003 14.8776C13.5406 15.4953 12.1663 15.1948 11.1726 15.1376C10.8546 15.1219 10.5575 15.0918 10.283 15.0531C9.53159 14.9834 9.27197 15.3501 7.81582 14.7553C7.18609 14.4654 6.27601 13.9504 5.43442 12.885C5.04426 12.3479 4.6437 11.7245 4.29736 10.7239C3.96372 9.77943 3.68648 8.05936 4.39659 6.41283C4.7827 5.35745 5.89087 4.21864 6.70949 3.82236C7.54034 3.38107 8.08554 3.29567 8.48351 3.2227C8.72053 3.1844 8.91923 3.16093 9.09472 3.14107C9.60708 3.06307 10.0593 2.69412 10.2091 2.67312C12.5255 2.34865 15.6194 2.14914 18.5876 2.99286C20.0044 3.40775 20.6107 4.32774 20.9204 4.50252C21.4363 4.80442 21.7577 4.99213 22.0051 5.10875C22.3502 5.24996 22.5266 5.15947 23.1283 5.86001C23.6475 6.50252 23.4296 6.91776 23.482 7.01398C23.9359 8.00868 24.5008 8.09692 24.7853 9.13361C24.8711 9.49325 24.9263 9.86121 24.951 10.221C25.0081 10.9234 25.0536 11.7919 24.9246 13.063C24.8485 13.7057 24.7437 14.4735 24.3575 15.4897C23.9941 16.4772 23.13 17.8512 21.8366 18.6878C21.7006 18.775 21.5575 18.8643 21.4155 18.9501C21.2427 19.0535 21.1465 18.8551 21.0415 18.9312C20.5896 19.2532 20.9882 19.4298 20.4562 19.7328C19.3382 20.3512 17.922 20.7604 16.3678 20.8236C16.2128 20.8289 16.1309 20.5556 15.788 20.5616C15.4482 20.5632 15.1702 20.8287 14.6145 20.7581C13.7996 20.6496 13.0354 20.3529 12.3395 20.0015C12.0129 19.801 11.597 19.6041 10.8744 19.2213C10.6013 19.066 10.0273 19.1611 9.37309 18.5909C8.75969 18.072 7.81443 16.8352 7.59257 15.3652C7.56143 14.7256 7.60951 14.0592 7.56276 13.6254C7.44957 12.5762 7.33498 11.5711 7.31514 10.4354C7.41024 9.22233 6.99996 8.2717 8.52948 5.57543C8.62624 5.43257 8.73507 5.29125 8.85546 5.15366C9.00858 4.98487 9.76171 4.28143 10.4109 3.98668C11.0745 3.65681 11.6014 3.55753 11.934 3.46537C12.7575 3.26626 12.7659 3.24262 12.8571 3.14879C12.9239 3.07188 13.0457 2.96684 13.6057 2.95355C13.6071 2.95353 13.6085 2.95351 13.6098 2.95349C14.7614 2.94092 15.9172 2.94036 17.2697 3.04032C17.9598 3.09868 18.6766 3.16042 19.6734 3.40138C20.1804 3.53419 20.7646 3.6918 21.5759 4.13297C22.3419 4.5432 23.5626 5.49493 24.1552 7.00338C24.4448 7.75301 24.731 8.57363 24.9006 9.69071C25.019 10.7656 25.2597 12.4601 23.9137 14.5689C23.5099 15.1601 23.1096 15.6273 22.6898 16.0649C21.5389 17.2599 20.0898 18.4898 18.3096 19.2295C17.9785 19.3801 17.6456 19.5255 17.2792 19.6543C16.7265 19.8481 16.4452 19.5248 15.9658 19.7108C15.0471 20.0441 14.9854 20.6644 13.5985 20.9842C12.9861 21.111 12.2937 21.0178 11.6791 20.8801C11.3856 20.7676 11.0741 20.6661 10.7632 20.6792C10.0693 20.7046 9.74487 21.2207 8.76818 21.2288C7.93737 21.1985 6.74995 20.9883 4.9225 20.2379C4.14552 19.8942 3.03126 19.2575 2.15012 17.9429C1.38556 16.985 0.401245 14.8575 0.190226 13.2759C-0.0865073 11.6231 -0.0220432 10.185 0.135592 8.87078C0.533874 7.11777 0.149773 4.9758 3.51028 1.72144C3.72007 1.55145 3.89888 1.42913 4.05875 1.32758C4.21149 1.23139 4.30922 1.17634 4.42054 1.11575C4.65249 0.991713 4.77288 0.937753 4.92674 0.869764C5.19284 0.754403 5.39781 0.681461 5.58399 0.619172C5.94299 0.50045 6.23961 0.424599 6.50659 0.362912C7.0505 0.239097 7.51281 0.168619 7.96839 0.114568C8.86795 0.0103145 9.70883 -0.0139079 10.5206 0.00675488C12.155 0.0512209 13.6941 0.281806 15.186 0.644253C15.9895 0.840246 16.8067 1.05406 17.618 1.30494C18.4054 1.58298 19.2976 1.72089 20.9729 2.50266C21.2048 2.68007 21.8076 2.96917 22.5696 3.42542C22.8487 3.60065 22.1723 3.81878 23.2009 4.191C23.6042 4.36245 24.2599 4.41411 25.2321 5.08469C25.5242 5.27148 25.8238 5.5069 26.1158 5.82274C27.2411 7.13133 28.6172 8.86672 28.4261 12.0785C28.2449 13.5437 27.9421 14.7572 27.4243 16.1636C27.1565 16.8636 26.8436 17.5901 26.32 18.4288C25.7725 19.2295 25.0898 20.3671 23.1849 21.2132C19.8947 22.2537 18.1278 22.073 15.8612 22.2938C14.8532 22.3613 13.8451 22.4375 12.8254 22.5035C11.8826 22.5756 10.8991 22.6949 9.72839 22.7476C9.13303 22.7682 8.51072 22.7874 7.64218 22.6749C7.19906 22.6095 6.7009 22.5295 5.96721 22.2408C5.28546 21.9273 4.01689 21.4562 2.97418 19.508C1.95557 17.7409 1.51629 15.863 1.42566 14.1543C1.36388 13.2877 1.33108 12.4447 1.38245 11.4462C1.51282 10.4714 1.29875 9.16539 2.69454 6.66686C3.69502 5.04041 5.95306 3.59769 7.36792 3.47891C8.67335 3.30242 9.65525 3.51633 10.6684 3.83217C11.0591 3.96407 11.2941 5.1879 11.2211 5.58361C10.9662 5.40637 10.7079 5.18083 10.4278 4.97955C10.7074 6.5185 10.6233 6.10998 9.71921 6.31068C9.16205 6.44365 9.82799 6.88392 9.63105 7.16868C9.57258 7.25555 9.45543 7.3993 9.3224 7.55676C8.85144 8.0593 8.4788 8.75743 8.1144 8.04001C8.15285 8.24227 8.20582 8.42723 8.26989 8.61069C8.08583 8.86917 7.95265 9.15636 7.85767 9.46262C7.7295 9.98996 7.90679 10.8177 8.10042 11.6639C8.15034 11.874 8.47074 11.8835 8.52222 12.1012C8.66394 12.6867 8.46104 13.1634 8.5018 13.7878C8.50926 13.9004 8.55689 13.9819 8.61587 14.0572C8.73094 14.1741 8.88801 14.2616 8.8876 14.4864C8.89221 14.8152 8.39348 14.9015 9.00735 15.254C9.52038 14.909 9.38035 15.9257 9.58069 16.3488C9.49748 16.1821 9.40851 16.0631 9.34016 15.9781C9.28799 15.894 9.09224 15.5551 9.08021 15.4169C9.05684 15.2618 9.17568 15.1774 9.26033 15.2273C9.41544 15.3313 9.85623 15.7575 10.418 15.5915C10.6811 15.5142 10.8632 15.0853 11.1501 15.0746C11.3519 15.067 11.5851 15.467 11.8535 15.4933C12.1198 15.5195 12.7267 15.2197 12.8396 15.2185C13.2412 15.2117 12.7886 15.4698 13.0629 15.4935C13.0693 15.494 13.0757 15.4945 13.0821 15.4951C14.2776 15.6042 15.693 15.7268 16.8466 15.4552C16.9889 15.4222 16.766 15.1149 16.7845 15.1027C17.7103 14.6307 17.2327 15.09 17.5207 15.3549C17.8151 15.6274 19.5922 15.202 19.4381 14.6362C19.6357 15.3147 19.8618 14.7109 19.9213 14.6713C20.1707 14.5186 20.3322 15.104 20.4408 14.8623C20.4509 14.7839 20.2267 14.4317 20.2664 14.4284C20.2687 14.4284 20.271 14.4291 20.2731 14.4305C20.04 14.5677 20.0103 14.8234 20.0903 14.9836C20.167 15.1486 20.3377 15.2272 20.4248 15.1515C20.4703 15.1099 20.2274 14.9465 20.2921 14.8479C20.3553 14.7837 20.9574 14.2307 20.2583 14.3153C20.8737 14.0875 20.6557 13.8825 20.8126 13.3276C20.8514 13.1863 21.3615 13.0935 21.2813 12.7322C21.2535 12.6097 20.8034 12.533 20.8278 12.3693C20.8703 12.0685 21.2253 11.8125 21.3785 11.4894C21.4054 11.4999 21.424 11.5033 21.4273 11.5013C21.4974 11.4573 20.9164 10.9411 20.5156 10.4375C20.4957 10.41 20.4916 10.3766 20.4973 10.3394C20.5681 10.2272 20.7686 9.99244 20.6399 9.89732C20.6149 9.87789 20.1932 10.0927 20.0014 9.97337C19.9296 9.90747 19.1975 9.34286 18.9776 9.2398C18.6611 9.08469 18.4295 9.47064 18.2559 9.30684C18.2074 9.26107 18.1695 9.21508 18.1407 9.17056C18.0706 8.84109 18.3882 8.46706 17.76 9.10622C17.7788 8.58904 17.4567 8.54955 17.509 7.93191C17.1475 8.52755 17.0575 7.84116 16.5965 7.95386C16.2319 8.04457 15.7195 8.79702 15.6603 8.40212C15.6511 8.30324 15.67 8.12989 15.7262 7.85185C15.5056 7.96424 14.7202 8.06803 14.592 8.06392C14.2226 8.04346 14.4963 7.70821 14.2103 7.70154C14.1603 7.70059 14.1578 7.96768 13.8578 7.88318C13.6622 7.81363 12.1896 7.58718 12.1045 7.55616C11.1321 7.05261 12.6792 7.34292 12.9457 7.10674C12.9745 7.18654 13.0027 7.26659 13.0338 7.34606C13.4651 7.53794 13.3079 6.91008 13.1117 6.74115C12.9196 6.57232 12.4936 6.78649 12.3386 6.57397C12.2603 6.46717 12.3912 5.76082 12.6565 5.87878C12.3897 5.62607 12.8174 5.44195 12.7256 5.22295C12.6236 4.97048 11.2406 4.79204 11.2147 5.19614C11.472 5.22097 11.7877 5.22826 12.0417 5.26677C12.2818 5.97756 11.183 8.2092 10.4184 7.28212C9.80795 6.61931 10.8 6.03742 9.35765 6.67422C9.58415 6.68499 9.77371 6.74 9.97719 6.76263C10.0143 7.27446 9.66773 6.72161 9.51089 6.89636C9.44063 6.98008 9.9346 7.31588 9.53213 7.46033C9.12757 6.75383 8.88713 7.51122 8.39057 7.61221C8.50528 7.45671 8.63946 7.3033 8.78166 7.1525C7.69092 6.77581 10.0769 6.24057 7.9922 6.26694C8.2275 6.19269 8.47808 6.15891 8.73065 6.0912C8.57026 5.83995 8.67943 5.0295 8.53973 4.87871C8.15192 4.48551 7.69783 4.82676 7.27454 4.90563C7.08661 4.94252 7.13896 4.70568 7.12424 4.70846C6.84976 4.76959 7.00953 5.04337 6.78287 5.15777C6.71002 5.19983 6.63199 5.20827 6.43954 5.3295C6.07304 5.52162 5.58536 5.89709 5.55108 6.01062C5.433 6.36362 6.27052 6.19613 6.28351 6.27097C6.4093 6.59684 6.01505 6.81034 6.37264 6.97452C6.42242 6.67678 6.66978 6.24776 7.00457 6.02545C7.2615 5.90156 7.74956 5.89331 7.83652 6.00989C7.89365 6.0665 7.86997 6.15144 7.76912 6.26794C7.71568 6.32722 7.64227 6.39503 7.56059 6.47279C7.51773 6.51236 7.47598 6.55371 7.44254 6.59515C7.42059 6.62646 7.35543 6.70896 7.50111 6.63706C7.4971 6.646 7.49307 6.6551 7.48901 6.66438C7.50646 6.6706 7.52349 6.67752 7.54009 6.68507C7.45536 6.89358 7.58469 6.9507 7.63649 7.07411C7.70098 7.18632 7.75782 7.30293 7.79977 7.41829C7.84298 7.53316 7.87038 7.64759 7.9132 7.74214C7.93477 7.78919 7.96272 7.83066 8.01338 7.85529C8.0755 7.86908 8.13142 7.90749 8.40015 7.74443C8.46627 7.80247 8.51963 7.82712 8.51672 7.85493C8.50586 7.91521 8.41703 7.92605 8.30438 7.86443C8.1878 7.81121 8.03932 7.69699 7.81448 7.7119C7.7867 7.71292 7.65683 7.83898 7.56726 8.02722C7.47727 8.21201 7.43451 8.44033 7.55929 8.49791C6.97067 8.27947 6.34921 8.45224 5.787 8.06356C5.70175 8.0051 5.87234 7.58661 5.3313 7.57817C5.05832 7.57243 4.44278 7.65784 4.13512 7.52934C4.32671 7.69792 4.54885 7.87112 4.75692 8.0293C4.65161 8.75407 4.40456 8.79767 3.91108 9.12668C4.0921 9.1335 4.89208 8.90608 4.58061 9.40432C4.56937 9.42053 4.45564 9.41946 4.32983 9.48266C4.25747 9.52051 4.18102 9.58051 4.11894 9.67696C3.78104 10.215 3.68912 10.3619 2.94726 9.80094C3.28401 11.1212 2.35931 11.3878 2.78779 12.8858C3.76593 12.4468 3.41869 12.0252 3.26711 10.7874C3.51237 10.7458 3.75396 10.7324 4.00194 10.6954C3.41507 12.2313 3.48413 11.5166 4.03273 12.3636C4.15155 12.5715 4.27375 13.7541 4.86131 13.2143C4.99031 13.0923 4.86423 12.4425 5.13267 12.4835C5.17356 12.4969 5.43906 13.2264 5.40416 13.304C5.13055 13.8274 4.7636 13.786 4.56903 13.8618C4.39591 13.9241 4.32124 14.2729 5.13324 15.3956C5.17831 15.4532 5.44583 15.3212 5.55244 15.4128C5.66627 15.51 5.62183 15.6113 5.59543 15.7056C5.59443 15.805 5.615 15.9131 5.74476 16.0064C6.07821 16.2475 6.61204 16.0396 6.80475 16.5758C6.97172 16.9783 6.81145 17.2109 6.40302 17.2279C6.02136 17.2516 5.25872 16.9524 4.83353 16.2004C4.77343 16.068 4.72729 15.9103 4.72311 15.7617C4.50199 15.8167 4.46543 16.0889 4.51285 16.4086C4.80239 17.1251 5.57732 17.7897 6.23425 18.1005C6.9046 18.4333 7.52269 18.5774 8.05594 18.6716C9.12149 18.8473 9.89675 18.8181 10.0168 18.7912C11.2806 18.4289 9.18233 18.6206 9.05436 18.314C9.0071 18.1898 9.1413 16.6863 8.51447 17.6207C8.31492 17.897 8.99925 18.3391 8.5579 18.4646C8.10067 18.5842 8.31947 18.1542 8.29169 18.1209C8.19996 18.0067 7.69502 18.1038 7.63468 18.0259C7.20903 17.4626 7.1669 16.8078 7.28325 16.6201C7.40879 16.4285 7.6019 16.6769 8.0759 17.821C8.63846 17.4048 7.61415 16.4876 8.25513 16.2441C8.97577 15.9324 9.42787 16.6272 9.52189 16.6647C10.5622 17.0607 9.38012 16.0284 10.6411 16.3678C11.3457 16.5516 9.57821 17.0335 11.1924 16.9764C11.4187 16.9678 11.5853 16.9508 11.7071 16.9248C12.3678 16.7827 11.8216 16.4367 11.9001 15.771C11.9246 15.5864 12.5316 15.3418 11.7176 15.435C11.7032 15.436 11.6883 15.437 11.673 15.4382C11.6431 15.6461 11.5877 15.9201 11.523 16.1117C11.2773 15.9585 10.8712 14.9155 10.744 14.8781C10.1214 14.7 10.1415 15.2399 9.79909 14.5947C10.0354 15.2977 9.63042 14.8679 9.4717 15.0074C8.88752 15.5135 9.56096 15.7849 8.40364 14.9683C8.51311 15.3125 8.63081 15.6472 8.77294 15.9857C8.61045 15.9833 8.45056 15.9783 8.28868 15.9683C8.11795 15.2286 7.47074 15.1742 8.20772 14.5891C7.52055 14.2358 7.62225 14.3658 7.18457 14.7632C7.10657 14.8374 7.0351 14.8309 7.00172 14.7988C6.87254 14.8892 6.50235 15.2063 6.44157 15.2243C6.39303 15.2371 6.35209 15.2402 6.31892 15.2358C5.97041 15.179 6.48424 14.5235 6.81093 14.4541C6.77027 14.3559 6.74729 14.2766 6.74026 14.2473C6.70112 14.0691 7.14099 14.2099 7.16437 14.0351C7.16643 13.9798 6.9039 13.6083 7.02263 13.5494C7.38608 13.3651 7.49889 13.4757 7.50918 13.4632C7.52834 13.4513 7.38711 13.3169 7.45606 12.649C6.71494 12.7854 7.07454 13.3862 6.28053 13.4839C5.3961 13.535 6.37764 12.7933 5.34798 12.9145C5.5073 12.8411 5.64372 12.7967 5.82856 12.7282C5.26153 12.0745 6.14785 11.958 6.32162 11.753C6.63887 11.366 6.73789 9.45342 5.88136 11.1485C5.81206 10.8882 5.79451 10.6127 5.75398 10.3445C7.04307 10.4176 6.81391 10.5008 6.92897 9.86183C6.95438 9.72799 6.99526 9.56481 7.07035 9.3738C7.17024 9.1211 7.85051 9.19665 7.11529 8.78029C7.87729 8.98287 7.58873 8.22315 7.70697 8.2044C8.38759 8.11058 8.88361 9.48149 7.48345 9.50961C7.86199 9.79388 7.52767 9.78601 7.37426 9.92679C7.32887 9.96754 7.29997 10.0205 7.31247 10.094C7.39597 10.5598 7.52837 10.6085 6.97348 11.0999C7.67235 11.6144 7.4755 9.18878 8.32421 10.7251C8.49233 10.9945 8.63947 11.497 8.85184 11.9265C8.95695 12.1405 9.0759 12.3228 9.19938 12.4542C9.33832 12.609 9.39798 12.6078 9.73888 13.0149C9.43647 12.5023 9.05759 12.2075 8.86212 12.0709C8.65577 11.9297 8.58557 11.8964 8.59002 11.8722C8.60521 11.8335 8.88048 11.841 9.20799 11.8222C9.88322 11.7921 10.7992 11.7138 11.7443 11.6582C12.0647 11.5834 12.078 11.5253 12.5516 11.3073C12.9903 11.092 13.6102 10.7805 14.0083 10.5927C14.2919 10.4577 14.5829 10.3239 14.8725 10.1967C15.0952 10.0563 15.3377 9.85441 15.5378 9.63705C15.7323 9.43129 15.9136 9.15677 15.8893 9.12742C15.455 9.74557 15.3188 10.3247 15.2719 10.639C15.2262 10.9652 15.243 11.0976 15.2389 11.1425C15.2381 11.2208 15.1802 10.9937 15.0495 10.6966C15.3192 11.388 15.8226 12.0044 16.2236 12.3349C16.6319 12.6775 16.9215 12.8094 17.0951 12.8871C17.4405 13.0265 17.4062 12.9798 17.2783 12.9609C17.2391 12.9489 16.7496 12.9041 16.1363 12.7924C15.5442 12.6785 14.9806 12.4798 15.2734 12.0473C15.3596 11.9205 16.5362 11.6198 15.5423 10.9142C15.7419 11.32 15.1391 11.572 15.0865 11.615C14.2047 12.3292 14.3639 12.6448 13.7187 12.7677C13.7931 12.7843 13.9018 12.8062 14.2319 12.7553C14.5239 12.7064 15.3117 12.5304 16.1199 11.8301ZM9.63676 13.9651C9.4777 11.0493 9.15783 13.2394 7.7816 12.7512C7.81522 13.1552 7.85843 13.552 7.9111 13.9496C7.97781 13.8343 8.04509 13.7201 8.11331 13.6062C8.11325 13.6057 8.11319 13.6053 8.11313 13.6048C8.62023 13.7364 9.12852 13.8577 9.63676 13.9651ZM9.17609 11.0635C8.99604 11.0716 8.8207 11.0982 8.65711 11.1447C8.67896 11.0811 8.72988 11.1044 8.83186 11.167C9.05958 11.4615 9.45656 11.8363 9.93933 12.0805C9.6698 11.804 9.46823 11.4866 9.36105 11.2037C9.27407 11.1131 9.19983 11.0243 9.13563 10.9391C9.07407 10.8633 9.10044 10.8792 9.17609 11.0635ZM4.33428 15.4715C4.48178 14.711 3.70555 15.1137 3.78252 14.1683C3.21314 14.4604 2.67258 14.7887 2.13482 15.1362C2.51815 15.8496 2.82207 15.9156 3.0815 16.6663C3.2096 16.4857 3.33977 16.304 3.47429 16.1275C3.37442 16.0407 3.26503 15.9437 3.17112 15.846C3.59012 15.44 4.21392 16.3746 4.33647 15.4728C4.33574 15.4724 4.33501 15.472 4.33428 15.4715ZM3.22903 9.49182C3.24562 9.45294 3.26877 9.39823 3.29627 9.33188C3.46046 8.93177 3.83139 8.09797 3.65267 7.90346C2.87678 7.14369 2.79926 10.6701 2.48924 8.00002C2.36488 7.98606 2.24814 7.94855 2.1276 7.9227C2.00217 8.33227 1.9014 8.72823 1.81404 9.11564C1.79805 9.18829 1.78262 9.26065 1.76775 9.33274C2.25794 9.372 2.73622 9.45317 3.22903 9.49182ZM16.1682 5.04003C16.385 5.08054 17.0103 5.01588 17.5612 4.89862C18.1027 4.77864 18.5827 4.60553 18.2055 4.2706C17.9573 4.06602 16.8751 4.78948 16.5383 4.74673C16.3091 4.71538 16.5811 4.28318 16.12 4.43045C16.1346 4.62527 16.1406 4.84098 16.1695 5.03876C16.1691 5.03918 16.1687 5.03961 16.1682 5.04003ZM15.3345 7.58845C15.7511 7.51481 16.1764 7.42533 16.603 7.36253C16.3156 6.84392 15.6939 7.152 15.67 6.44547C15.7913 6.39416 15.9047 6.34345 16.0276 6.29326C16.1157 6.45031 16.1963 6.60763 16.2814 6.76532C16.6674 6.39786 16.4477 6.19084 17.1537 6.34684C16.8033 5.25517 16.6834 4.66179 15.4631 5.72068C15.7024 5.14536 15.5012 3.24981 14.8219 4.59717C14.6974 4.84717 15.2146 5.01671 15.2206 5.0572C15.2953 5.55375 15.0071 5.86803 15.0891 6.33717C15.1264 6.54911 15.4335 6.54901 15.4764 6.8441C15.495 6.98771 15.1991 7.39368 15.3345 7.58845ZM14.5013 5.07006C14.6354 4.76939 14.1726 4.0571 13.78 4.20594C13.7047 4.23423 13.653 4.26918 13.6213 4.30858C13.5063 4.3821 13.5278 4.46905 13.6242 4.55735C13.7745 4.8156 14.2638 5.09219 14.5013 5.07006ZM9.17709 11.0643C9.17676 11.0641 9.17643 11.0638 9.17609 11.0635C9.17677 11.0634 9.17745 11.0634 9.17813 11.0634C9.17779 11.0637 9.17744 11.064 9.17709 11.0643ZM2.75278 11.0508C2.50357 10.6629 2.58866 10.1074 2.18138 10.1136C2.27754 9.93267 2.37479 9.76222 2.47649 9.58953C2.35513 9.57626 2.23328 9.56474 2.11315 9.55172C1.97005 10.0926 1.85003 10.6591 1.76855 11.2599C2.09563 11.1877 2.42436 11.1255 2.75278 11.0508ZM4.55908 5.20896C5.15455 4.47629 4.23925 4.77442 4.15687 4.44115C4.06423 4.07518 5.04663 3.44586 4.71884 3.24826C4.07288 3.75795 3.61118 4.35199 3.283 4.88034C3.72531 4.95088 4.14246 5.08607 4.56011 5.20745C4.55977 5.20795 4.55943 5.20846 4.55908 5.20896ZM22.9066 13.1808C22.8214 13.4656 22.6725 13.543 22.5902 13.6978C22.4942 13.8684 22.5249 14.0573 22.4981 14.8955C22.4986 14.8944 22.499 14.8932 22.4994 14.8921C23.3534 13.502 23.5461 12.1582 23.1824 11.3042C22.7616 11.8744 23.1569 12.2928 22.9066 13.1808ZM5.07532 18.2073C5.49665 18.1493 4.64296 17.4335 4.10717 16.6721C4.05283 16.6218 3.98179 16.5841 3.90513 16.5851C3.61362 16.581 3.53172 16.8215 3.56614 17.0234C3.89247 17.7202 4.66512 18.2707 5.07532 18.2073ZM8.71936 8.53432C9.35483 8.81629 10.0471 8.10732 10.277 8.71086C10.3048 8.92359 10.0255 9.32699 9.84352 9.42697C9.66348 9.54503 9.63429 9.52772 9.67703 9.4975C9.78015 9.46896 9.89112 9.42612 9.99378 9.36904C10.05 9.33842 9.80944 9.23828 9.64212 9.11639C9.58814 9.02297 9.54634 8.92342 9.56878 8.83513C9.57091 8.82919 9.58637 8.82487 9.61487 8.81889C9.74482 8.79854 9.9747 8.76092 10.037 8.65263C10.1253 8.50078 9.99092 8.17871 10.1427 8.02503C10.4138 7.75518 11.1042 8.15296 11.2981 7.81932C11.3254 7.77402 10.8824 7.36046 10.8549 7.34606C10.4099 7.11075 10.0545 7.7272 9.99055 7.73674C9.66008 7.7866 9.66645 7.32829 9.57277 7.22916C9.53829 7.19289 9.50088 7.17225 9.46312 7.16239C9.26823 7.12062 9.04008 7.3118 9.01791 7.31037C8.75417 7.27162 8.69846 7.22616 8.83192 7.11254C8.96121 7.00474 9.22046 6.92161 9.43757 6.88356C9.63015 6.84098 9.82731 6.80036 9.88033 6.73425C10.2681 6.25532 9.82701 5.87533 10.8517 5.54217C10.9485 5.51061 12.1567 5.45147 10.6011 5.05267C12.9973 4.0254 10.4332 4.32032 9.23326 4.65328C8.63533 4.72649 7.64969 5.11727 7.24383 5.50767C6.77094 5.94984 7.01284 5.94987 7.26448 5.91777C7.52431 5.89336 7.78616 5.90865 7.60267 6.1618C7.34991 6.51148 7.0858 7.03368 7.03681 7.44462C6.9604 8.25773 7.26733 8.77048 7.68559 8.64977C8.32205 8.49431 8.42436 8.29596 8.51383 8.02183C8.58172 7.68203 9.01198 7.30163 9.29813 7.38753C9.29412 7.68056 9.32134 7.96149 9.34383 8.24734C9.35254 8.02677 9.00129 7.87228 8.80793 8.13677C8.682 8.30967 8.68551 8.52385 8.71675 8.53449C8.71762 8.53444 8.71849 8.53438 8.71936 8.53432ZM15.5152 6.06089C16.1661 6.53757 16.2453 5.7022 16.8289 6.30089C17.5946 5.69458 16.3691 5.48898 16.2374 5.4425C15.6328 5.1702 15.7148 4.35833 15.0351 4.5593C15.228 5.05675 15.3661 5.55873 15.5152 6.06089ZM9.63693 5.84271C9.95914 5.46435 9.49481 5.44852 9.30274 5.41179C9.2209 5.40736 9.15832 5.40359 9.14507 5.39058C8.96529 5.23263 9.05054 5.07907 9.26211 4.96823C9.60576 4.59826 10.8295 4.79454 9.63693 5.84271ZM18.765 6.9978C19.0067 7.08705 18.9422 6.65035 19.2175 6.6033C19.3555 6.58077 19.6254 6.72578 19.8747 6.89387C20.1248 7.05665 20.3524 7.26011 20.4175 7.15193C20.485 7.0296 20.1047 6.51801 19.9407 6.23206C19.862 6.08312 19.8327 5.96248 19.9601 5.92048C20.0902 5.89367 20.3554 5.86756 21.0247 6.29314C21.0195 6.11327 21.1094 6.04814 21.1381 5.91128C20.3604 5.38554 19.782 5.23699 19.2786 5.1007C19.4588 5.56486 19.6205 6.06362 19.7286 6.53373C19.3476 6.73235 19.3532 6.30572 19.3332 6.2982C19.3331 6.29862 19.333 6.29904 19.3328 6.29945C18.827 6.18522 18.2348 6.82476 18.765 6.9978ZM16.2902 18.0527C16.2964 17.0369 15.6977 18.2146 15.348 18.317C15.0255 18.4317 14.6467 18.0014 14.7533 18.4555C15.2523 18.8405 16.3199 18.1774 16.2901 18.0514C16.2902 18.0519 16.2902 18.0523 16.2902 18.0527ZM19.5233 7.35602C19.6955 7.41221 19.8349 7.45381 19.9519 7.48794C20.3065 7.57806 20.4719 7.53527 20.7891 8.28874C20.959 8.1071 21.129 7.91762 21.2882 7.73019C20.8438 7.20282 20.4765 7.45346 20.1522 7.25584C20.0309 7.18083 19.9038 7.06267 19.7592 6.87801C19.6558 6.75582 20.2654 6.45455 19.5441 6.22874C19.5729 6.59564 19.5623 6.99068 19.5233 7.35602ZM22.3367 10.6124C22.3266 10.5316 22.2822 10.4564 22.2152 10.3893C21.7305 9.44772 20.5501 9.56069 21.0221 10.4627C21.0641 10.5353 21.1265 10.6187 21.2126 10.7143C21.3571 10.8734 22.3951 11.0763 22.3367 10.6124ZM12.5769 6.97188C12.9916 6.81196 13.1489 6.81393 13.1906 6.77323C13.2302 6.74129 13.1458 6.70441 12.9802 6.68325C12.8162 6.66237 12.5544 6.66653 12.2733 6.7415C11.9905 6.81322 11.7255 6.95412 11.5805 6.99813C11.9251 6.58771 12.4067 6.35672 12.6738 6.26748C12.9572 6.17026 13.1284 6.14342 13.2372 6.12071C13.4493 6.08225 13.4226 6.07424 13.2547 6.06944C13.0848 6.07104 12.7575 6.06691 12.2754 6.21479C11.7944 6.33587 11.2058 6.81634 11.0024 6.90366C10.6648 7.15146 10.4292 7.32149 10.2184 7.32191C10.1686 8.07355 10.6566 8.90836 11.0779 8.16103C11.2899 7.83955 10.9705 7.83625 10.978 7.81666C11.1424 7.54277 11.352 7.41655 11.5469 7.34751C11.7776 7.3407 12.0347 7.2172 12.5769 6.97188ZM14.3028 6.03104C14.3461 6.01758 14.2898 5.6722 14.4303 5.60876C14.5718 5.54532 14.8735 5.8024 14.9175 5.59482C14.9643 5.38348 14.3272 5.18647 14.1302 5.33906C13.9332 5.49108 13.918 6.15196 14.3028 6.03104ZM18.4414 7.74093C19.1257 7.83176 18.7637 6.19418 18.555 6.13788C17.2893 5.73393 18.7406 7.38709 18.4414 7.74093ZM13.2494 9.95289C12.7725 8.84489 11.519 9.29396 10.7986 10.2183C10.9284 10.3411 11.0605 10.4603 11.1927 10.573C10.3944 10.0453 9.58461 9.01819 10.2715 11.1645C10.4625 10.0325 10.6834 10.9851 10.7313 10.9839C12.2273 11.0793 11.5942 9.54806 13.2493 9.95382C13.2493 9.95351 13.2493 9.9532 13.2494 9.95289ZM12.4855 5.67779C11.8952 5.69733 10.4449 6.06977 11.1778 6.67836C11.6009 6.33845 12.0336 6.00359 12.4855 5.67779ZM13.5605 14.694C13.0643 14.4658 12.7882 14.5515 12.3872 14.6331C12.8425 15.1182 12.6226 15.2192 12.489 15.3736C12.2925 15.6056 12.8324 15.5117 12.8412 15.5413C12.9364 16.0479 12.5638 16.2322 13.4318 16.008C13.2675 16.2422 13.0862 16.4719 12.8785 16.6899C13.6085 16.5778 13.8601 16.8347 14.4628 17.0708C13.6862 16.2621 14.4899 16.6681 14.7758 16.0011C14.9114 15.6727 13.7947 14.8223 13.5591 14.6945C13.5596 14.6943 13.5601 14.6941 13.5605 14.694ZM13.6252 9.12576C13.4747 9.0098 13.2701 8.86167 13.1233 8.70231C13.1286 8.68041 13.1343 8.66055 13.1383 8.64464C13.1809 8.5733 13.1961 8.53982 13.2049 8.5145C13.3186 8.62995 13.4322 8.75588 13.5298 8.87739C13.5171 8.94706 13.4047 8.74808 13.3887 8.73377C13.3892 8.73452 13.3896 8.73526 13.3901 8.736C13.2837 8.61309 13.5073 8.48338 13.6698 8.51872C13.9282 8.54547 14.1592 8.67733 14.4639 8.93261C14.4624 8.43627 14.461 7.93993 14.4595 7.4436C14.3205 7.49134 14.1889 7.53824 14.051 7.58539C13.9798 7.85265 13.9124 8.12013 13.8431 8.38753C13.7846 8.33341 13.7257 8.27947 13.6664 8.22562C13.587 8.13448 13.503 8.04683 13.4108 7.96509C13.318 8.07232 13.238 8.19757 13.2256 8.30324C12.884 7.83844 12.7624 7.68959 12.9672 7.55036C13.1551 7.42322 13.484 7.46507 13.657 7.40663C13.7346 7.37869 13.7846 7.32362 13.7859 7.21732C13.7868 7.14799 13.737 7.09271 13.6529 7.05048C13.4802 6.97627 13.1547 6.94288 12.7802 7.07591C12.3946 7.19698 12.0756 7.5882 12.0401 7.74952C12.0034 7.83428 11.9904 7.90686 11.9993 7.95433C12.0287 7.98889 13.0195 8.31771 12.3297 8.45057C12.2747 8.46837 11.737 8.24555 11.3724 8.23149C11.0145 8.19952 10.8142 8.44204 11.6239 8.95915C11.8546 9.09907 13.2797 9.0976 13.6252 9.12576ZM16.8222 9.88109C16.5047 9.14651 17.0034 9.19004 17.4202 9.28792C17.8247 9.385 18.1547 9.5302 17.7027 8.86617C18.1119 8.26148 18.0869 8.26388 17.7933 7.63634C17.766 7.57964 18.0479 7.43532 18.0304 7.41032C17.7165 7.03852 17.2672 7.17399 17.3098 6.59098C17.2103 6.61414 17.114 6.63491 17.0143 6.65956C17.3803 7.23725 16.7135 7.56058 16.4642 8.01746C16.348 8.22303 16.5908 8.29906 16.4924 8.47903C16.4561 8.54412 16.1222 8.39688 16.1033 8.58977C16.06 9.02524 16.2552 9.61951 16.5711 9.95816C16.5711 9.95859 16.5711 9.95902 16.571 9.95946C16.6557 9.93529 16.7401 9.90555 16.8222 9.88109ZM17.3545 14.5289C17.735 15.2209 18.4087 15.2104 17.5133 15.965C17.6147 16.0952 17.7215 16.2214 17.8302 16.3475C18.0144 16.2657 18.187 16.1797 18.3651 16.0843C17.843 13.7819 19.8928 15.5431 18.5276 14.4643C18.3784 14.3473 18.1587 14.707 18.2277 14.1011C18.227 14.101 18.2264 14.1009 18.2257 14.1008C17.8742 14.4795 17.9058 14.7716 17.3545 14.5289ZM14.1159 15.1544C14.0972 15.1672 14.0789 15.1797 14.061 15.1921C13.4498 15.5864 13.4641 15.8827 13.7429 16.081C14.2807 16.4844 15.5827 16.206 15.2359 15.8908C15.2063 15.8968 13.7334 15.9107 14.1159 15.1544ZM17.9597 10.6317C17.9368 10.6272 18.8274 10.532 19.1416 10.4483C19.4605 10.346 19.0574 10.1527 19.0871 10.1171C19.1837 9.9265 19.4077 10.1461 19.5383 9.87806C19.5597 9.83304 19.5296 9.55175 19.4164 9.28103C19.3088 9.01034 19.1438 8.76486 19.1134 8.76279C18.7751 8.74501 18.5513 9.54284 18.435 9.5518C18.333 9.57092 18.2679 9.54373 18.2145 9.50124C18.1178 9.42481 18.0648 9.26208 17.8838 9.47187C17.4839 9.95791 17.8086 9.77285 18.0462 9.69632C18.1383 9.67855 18.2145 9.66639 18.2327 9.67809C18.4416 9.81994 18.0876 10.1399 18.0984 10.2949C18.0986 10.4426 18.2592 10.3963 18.2615 10.4711C18.26 10.493 17.9601 10.6258 17.9597 10.6317ZM19.9281 11.7276C19.2258 11.1591 18.545 12.6331 18.6704 12.7257C18.8894 12.9509 19.3005 12.8494 19.6066 12.5675C19.9131 12.2924 20.0969 11.8695 19.9281 11.7276ZM14.9558 7.66828C14.386 8.15842 15.7056 8.56071 16.08 8.37956C16.0197 8.17042 15.159 7.49746 14.9558 7.66828ZM13.2234 10.25C13.1055 9.77555 11.9424 10.3159 11.9616 10.7845C12.6912 11.0383 12.543 10.7992 12.5801 10.53C12.6198 10.2653 13.3251 10.6146 13.2234 10.25ZM13.9256 8.61353C14.0223 8.60678 15.8176 8.13248 14.8214 7.80815C14.7441 7.77329 13.4739 7.84691 13.3804 7.96901C13.1919 8.19753 13.6511 8.57497 13.9256 8.61353ZM14.3776 12.4415C13.7236 12.2645 13.7101 12.0001 12.9945 12.3088C12.9945 12.3091 12.9946 12.3095 12.9946 12.3098C12.709 11.6506 14.2301 11.5408 14.1896 11.4143C14.059 10.9573 12.9965 11.4391 12.6338 11.1382C12.9918 11.8629 12.2585 11.6861 12.2577 12.2733C12.2577 12.4074 12.7463 12.8773 13.0252 12.9134C13.3026 12.9505 14.0758 12.599 14.3776 12.4415ZM11.4391 8.84774C12.0498 9.04844 12.5585 8.00187 11.6992 7.88639C11.2751 7.83283 11.0618 8.7274 11.4391 8.84774ZM6.92457 9.17714C6.64555 9.20867 6.36682 9.24918 6.08874 9.29944C6.06196 9.07375 6.03873 8.84733 6.02228 8.62057C6.06703 8.80703 6.11503 8.99155 6.16629 9.17599C6.33417 8.78974 6.84709 8.73682 6.92476 9.17615C6.9247 9.17648 6.92464 9.17681 6.92457 9.17714ZM17.8985 8.32969C17.9666 8.61841 18.5026 7.96585 18.4978 7.89821C18.371 7.35064 17.7773 7.92021 17.8985 8.32969ZM15.7495 10.1055C16.4066 10.2361 15.9995 8.92201 15.5697 8.8253C15.8235 9.07859 15.3673 10.0342 15.7495 10.1055ZM12.9457 7.10674C12.9024 6.98787 12.8602 6.86935 12.8066 6.74947C12.9956 6.93134 13.0148 7.04049 12.9457 7.10674ZM14.1647 9.76704C14.263 9.86592 14.9448 9.98923 15.0429 9.87923C15.2653 9.63972 14.7772 8.87148 14.4173 9.07907C14.3765 9.1003 14.0702 9.66407 14.1662 9.76709C14.1657 9.76707 14.1652 9.76706 14.1647 9.76704ZM7.59278 8.50889C7.58056 8.50638 7.5693 8.50261 7.55929 8.49791C7.57025 8.50172 7.58183 8.50486 7.59278 8.50889ZM19.4213 14.5791C19.4287 14.5982 19.4345 14.6174 19.4381 14.6362C19.433 14.618 19.4263 14.5992 19.4213 14.5791ZM16.7581 11.4157C16.2677 11.7962 16.052 11.7422 16.0816 11.6081C16.1067 11.4645 16.4066 11.3595 16.7285 11.3113C16.7647 11.3126 16.7564 11.4196 16.7581 11.4157Z" fill="var(--stroke-0, #6E0909)"/>
</svg>
