<svg preserveAspectRatio="none" width="100%" height="100%" overflow="visible" style="display: block;" viewBox="0 0 51.9464 31.1921" fill="none" xmlns="http://www.w3.org/2000/svg">
<path id="Vector 74" d="M8.53543 3.23378C11.2806 2.32711 14.5135 1.55646 17.0457 0.825989C18.6259 0.303425 20.0229 0.191697 21.3641 0.0919912C22.097 0.044057 22.8241 0.0134711 23.5408 0.000481844C24.1554 -0.00938797 24.1176 0.135487 24.2889 0.149812C24.7602 0.191675 25.0385 0.0231116 25.3846 0.0349522C27.0563 0.0983974 28.608 0.180833 30.3034 0.454128C31.0191 0.574464 31.3351 0.739023 31.4609 0.872248C31.6273 1.0656 31.4349 1.19869 31.788 1.36167C32.9094 1.93641 32.0808 1.06732 32.5943 1.10364C33.9617 1.62864 35.1008 2.33772 36.1711 2.95327C35.8789 2.86382 35.5822 2.76822 35.2786 2.66734C35.7694 2.93484 36.4149 3.36706 35.5358 3.08188C35.6975 3.21203 35.8424 3.34128 36.0072 3.47053C36.1175 3.35035 36.6306 3.55624 36.9222 3.61725C37.0223 3.6402 37.0977 3.64905 37.1304 3.6309C37.1964 3.59293 37.1036 3.52358 36.9953 3.46198C36.8954 3.40457 36.7796 3.35315 36.7835 3.34904C36.8032 3.32391 36.8931 3.34984 37.0225 3.40419C37.56 3.63537 38.8184 4.34615 38.9352 4.41228C39.3092 4.62863 38.8596 4.71174 39.2012 4.84562C39.7905 5.07902 39.6232 4.42279 40.1222 5.42265C40.5342 5.36532 40.5128 5.48387 40.9078 5.69842C40.9601 5.72697 40.9782 5.58868 41.0032 5.59747C41.0255 5.60503 41.0463 5.61234 41.0657 5.61941C41.65 5.84831 41.0867 5.80642 41.0837 5.8195C41.0479 6.05301 41.703 6.3026 41.8225 6.39485C43.2954 7.53048 44.3768 8.34957 46.0426 9.34109C46.2733 9.47829 46.8319 9.74685 47.2934 9.98146L47.2661 9.96766C47.5313 10.0807 47.7635 10.1791 47.8897 10.2479C48.2346 10.4344 47.9786 10.5028 48.1413 10.6534C48.5984 10.411 48.8696 10.4875 49.4996 10.9217C49.8282 10.7125 49.7362 10.9221 50.2546 10.979L50.2438 10.9769C50.2485 10.9773 50.2534 10.9776 50.2583 10.978C50.6897 11.0121 51.4925 10.7672 51.9464 11.1166C51.3912 11.0203 51.4306 11.1693 50.7974 11.1666C50.7356 11.1657 50.5067 11.1403 50.2211 11.1003C49.5261 11.0098 48.5377 10.7398 48.5708 10.9632C48.5989 11.1418 49.3446 11.2251 49.3645 11.2519C49.4865 11.4512 49.0268 11.545 48.6917 11.3576C48.7904 11.3557 48.9059 11.3573 49.0106 11.3541C48.2922 10.9084 48.5618 11.8245 48.2104 10.9668C48.1691 10.8606 48.2287 10.7903 48.1458 10.6613C48.1079 10.6859 48.2164 10.8276 48.0878 10.7939C47.9554 10.7591 47.787 10.4994 47.6953 10.6189C47.557 10.7927 48.1113 10.9331 48.1468 10.9577C48.1477 10.9567 48.1486 10.9557 48.1495 10.9546C48.4601 11.1976 47.7206 10.9205 47.6797 10.9203C47.4032 10.9459 47.5163 11.1073 47.1328 11.0571C47.0522 11.0465 46.9362 11.0044 46.8115 10.951C46.8038 10.9471 46.7805 10.936 46.7731 10.9316C46.5732 10.8295 46.3575 10.6998 46.244 10.6519C46.0656 10.5773 46.2793 10.8096 46.1554 10.7662C46.0328 10.7234 45.9253 10.577 45.7812 10.5262C45.7195 10.5048 45.6675 10.6043 45.6379 10.5924C45.3192 10.4659 45.6289 10.3702 45.3518 10.2334C45.1741 10.1461 44.4852 10.0128 44.8547 10.2919C44.6516 10.2051 44.4551 10.1149 44.2524 10.0224C44.3586 10.1197 44.4714 10.2083 44.5717 10.3089C44.2367 10.0618 43.977 10.1369 43.7445 10.0238C43.5089 9.90874 43.4201 9.59519 43.1147 9.5532C42.4666 9.46476 43.8391 10.1056 43.9822 10.2335C44.0385 10.284 43.7035 10.3042 43.664 10.288C43.4853 10.2143 43.3503 9.99113 43.2174 9.92348C42.7449 9.68422 42.3785 9.67408 41.9208 9.45655C41.2121 9.12291 40.3424 8.6819 39.6651 8.36541C38.8277 7.99249 37.8915 7.63229 37.0832 7.29123C36.5178 7.05384 36.256 6.723 36.002 6.61148C35.8321 6.53685 35.6998 6.49268 35.5836 6.46164C35.278 6.37648 35.0905 6.38198 34.7172 6.20028C33.9393 5.81909 33.0191 5.16709 32.4638 4.88307C32.0765 4.68014 31.6712 4.69484 31.5742 4.66278C31.2566 4.55623 30.9348 4.4627 30.6267 4.39777C29.5813 4.19484 28.0465 4.09659 27.0287 4.05979C26.3886 4.03774 26.0865 3.85508 25.9521 3.85815C25.3788 3.87567 25.5325 4.03205 25.0686 4.01804C24.818 4.01162 24.7683 3.8638 24.735 3.85833C24.4375 3.81366 24.3829 4.00969 24.1518 4.02172C23.3121 4.06671 22.4897 4.06603 21.6614 4.08836C21.1913 4.10074 20.7261 4.12297 20.2724 4.17438C20.1828 4.18453 20.1798 4.09808 20.122 4.11035C19.8777 4.16615 20.0107 4.2835 19.7609 4.33254C19.2631 4.43363 18.7845 4.51758 18.3474 4.64894C18.3183 4.65813 18.2889 4.66723 18.2593 4.67627C18.1824 4.69957 18.1182 4.60442 17.959 4.65306C17.8014 4.70066 17.7167 4.83484 17.4803 4.89441C16.8722 5.04607 16.2741 5.06701 15.6649 5.21642C15.5656 5.24085 15.473 5.40237 15.3238 5.43922C14.8514 5.55577 14.131 5.61867 13.7324 5.72123C12.416 6.0594 11.2397 6.47673 10.0288 6.8578C9.91952 6.89208 9.80892 6.90777 9.7054 6.91683C9.5402 6.9314 9.39794 6.92766 9.30735 6.95527C8.977 7.05699 9.25975 7.08643 8.93174 7.1965C8.20576 7.43356 7.36417 7.77697 7.27902 7.88779C6.94698 8.17259 6.33761 9.13854 5.99616 9.95296C5.50235 11.0584 5.04822 11.8963 4.68935 12.8068C4.28038 13.806 4.04961 15.0518 3.87304 16.0265C3.79805 16.4326 3.63129 16.4893 3.59991 16.7855C3.56002 17.2172 3.6916 17.3667 3.74291 17.7066C3.75484 17.7908 3.76295 17.8822 3.76486 17.9934C3.77263 18.4664 3.56906 19.0085 3.59988 19.4992C3.63204 19.989 3.84465 20.2013 3.9143 20.755C3.97175 21.2107 3.95495 21.866 4.04052 22.3767C4.09491 22.705 4.15303 23.0351 4.21333 23.3689C4.41338 24.4673 5.03779 25.9572 5.48614 26.3839C6.81483 27.3251 10.1342 28.4829 12.46 28.2689C12.6488 28.2569 12.8381 28.2362 13.0273 28.2068C14.4368 27.9828 15.9467 27.5595 17.3892 27.2174C17.545 27.1799 17.3839 27.4481 17.8512 27.2292C18.1019 27.1091 18.4052 26.8159 18.959 26.5598C19.0295 26.5269 19.0989 26.4941 19.1647 26.4624C20.7716 25.7031 22.4053 25.3194 24.0147 24.9949C26.6574 24.5136 28.8818 24.2664 31.165 23.4427C31.6793 23.2674 32.1923 23.074 32.7056 22.8677C34.797 22.039 36.5766 21.0231 38.7811 19.9813C40.3671 19.2961 42.0459 18.3219 44.0839 17.8736C45.4544 17.5863 46.7369 17.5308 48.0282 17.6536C48.3093 17.6815 48.2941 18.1883 48.1789 18.3619C48.011 18.3047 47.8523 18.226 47.675 18.1586C47.6485 18.7956 47.6402 18.6318 46.9398 18.7711C46.5083 18.858 46.9165 19.0123 46.7122 19.147C46.4443 19.3174 45.1863 20.0159 45.3253 19.5541C45.2626 19.647 45.2057 19.7353 45.1464 19.8262C45.0291 19.8722 44.9125 19.9194 44.7984 19.9675C43.9859 20.309 43.2383 20.7378 42.4864 21.1967C42.3379 21.2874 42.3838 21.4053 42.2298 21.4988C41.8158 21.7509 41.4297 21.8385 40.9715 22.0526C40.7217 22.1682 40.7444 22.3181 40.4038 22.4485C40.12 22.5552 40.0279 22.4439 39.7825 22.62C39.7416 22.6522 39.6929 22.6974 39.6346 22.7599C40.012 22.8669 38.6925 23.231 38.2289 23.4485C38.1641 23.4787 37.6988 23.9174 37.3939 24.0153C37.0878 24.1151 36.5854 24.1669 36.1533 24.4227C35.9512 24.5425 35.8823 24.7546 35.6495 24.8541C35.4877 24.9232 35.2343 24.8547 35.0224 24.9265C34.8106 24.9988 34.4001 25.2816 34.3162 25.3134C34.0176 25.4287 34.3131 25.2089 34.1061 25.2767C33.9395 25.3314 33.7708 25.3853 33.595 25.4406C32.7147 25.7178 31.766 25.9976 30.9442 26.3067C30.8238 26.3519 31.0304 26.4229 31.0155 26.4318C30.2169 26.8307 30.624 26.5368 30.3618 26.4945C30.1143 26.4613 28.4994 26.9328 28.5306 27.1426C28.4185 26.8846 28.0966 27.1723 28.0037 27.1997C27.6376 27.3084 27.6635 27.0582 27.3209 27.2017C27.1957 27.2538 27.4808 27.3629 27.3397 27.3858C26.9891 27.4425 26.6317 27.244 26.1781 27.3046C26.0693 27.3191 26.0552 27.4397 25.8644 27.4733C25.6722 27.505 24.8521 27.5358 25.2687 27.6965C24.9752 27.6464 24.8262 27.6662 24.6482 27.7156C24.5113 27.7538 24.3601 27.8088 24.1177 27.8658C23.9771 27.8988 23.7497 27.7623 23.4665 27.8967C23.3711 27.9423 23.4202 28.1154 23.2709 28.1574C22.9307 28.2545 22.5581 28.1668 22.129 28.2962C21.5269 28.4782 20.9402 28.7708 20.3818 29.0513C20.1639 29.1595 19.9438 29.2559 19.7213 29.3377C19.4771 29.4263 19.4677 29.2354 19.1205 29.371C19.0708 29.3915 18.7086 29.7006 18.4609 29.775C18.3124 29.823 17.5202 29.982 17.3644 30.0211C17.1072 30.0902 17.1139 30.2711 16.9643 30.2823C16.5301 30.3126 16.7821 29.9676 16.3948 30.4505C16.1802 30.31 15.8997 30.4088 15.7452 30.2012C15.6486 30.5007 15.3676 30.3141 15.0661 30.4795C14.7657 30.6448 14.6045 31.2035 14.4064 30.6845C14.2777 30.7789 13.711 31.0004 13.5483 31.048C13.537 31.0514 13.5275 31.0541 13.5203 31.0559C13.1734 31.139 13.3369 30.9581 13.0782 31.0166C13.0325 31.0255 13.095 31.1253 12.7943 31.149C12.5959 31.1887 11.1609 31.2106 11.0787 31.1716C10.1241 30.9534 11.6094 31.1035 11.8156 30.9662C11.8526 30.9951 11.8895 31.0239 11.9296 31.052C12.3593 31.0847 12.1024 30.861 11.9135 30.8121C11.724 30.7642 11.3703 30.8661 11.2152 30.7823C11.1387 30.7404 11.198 30.4629 11.4263 30.5014C11.1828 30.4097 11.5187 30.325 11.4235 30.2416C11.3176 30.1636 10.2554 30.0548 10.2307 30.197C10.4307 30.2268 10.683 30.245 10.8868 30.2642C11.1582 30.5493 10.213 31.4293 9.46545 30.9234C8.95133 30.5545 9.90645 30.5415 8.55932 30.4779C8.75614 30.5362 8.9209 30.5979 9.10178 30.6456C9.08192 30.8483 8.82651 30.5691 8.66207 30.5961C8.58016 30.6101 9.00569 30.8527 8.59813 30.8094C8.32353 30.4469 7.99702 30.6676 7.42993 30.495C7.60062 30.4948 7.7724 30.4926 7.94176 30.4867C7.06543 30.0134 9.24106 30.5763 7.4779 29.9323C7.6959 29.9931 7.90848 30.0596 8.12871 30.1057C8.05295 29.9745 8.30169 29.7204 8.22745 29.6315C8.03578 29.3995 7.6588 29.3925 7.37787 29.2784C7.2553 29.2289 7.36056 29.1766 7.35017 29.1725C7.18506 29.104 7.18045 29.2333 7.02798 29.1852C6.8366 29.1277 6.34948 28.7958 6.26174 28.7687C6.02572 28.7016 6.29819 29.0892 6.26957 29.0955C6.07759 29.1422 5.82755 28.9185 5.7766 29.0642C6.50561 29.3263 8.6026 30.1638 6.58431 29.7212C7.02766 30.1519 6.76547 30.4367 5.95942 30.1357C5.30224 29.874 5.77614 29.9319 5.50759 29.6426C5.47234 29.614 4.67184 29.1182 4.58201 29.179C4.7341 28.9832 4.58824 28.6442 4.88812 28.526C4.93418 28.5116 5.241 28.6988 5.22916 28.4586C5.22057 28.3373 5.18483 28.0594 5.27349 27.9595C5.16554 28.002 5.05197 28.0534 4.94063 28.0964C4.48766 27.843 4.47382 27.6979 4.42587 27.427C4.37932 27.4745 4.35103 27.8118 4.19201 27.603C4.18096 27.5873 4.16942 27.5686 4.15747 27.5467C4.14912 27.5279 4.21362 27.4467 4.1397 27.2679C3.99533 26.8955 4.0007 26.8234 4.40846 26.8711C3.85331 26.3461 4.08823 26.006 3.7024 25.2898C3.38387 25.5764 3.56777 25.8568 3.98355 26.4802C3.91494 26.5544 3.83941 26.6137 3.77188 26.6911C3.49369 25.6721 3.71293 26.1506 3.29984 25.6745C3.19492 25.5582 3.00006 24.7915 2.82292 25.1239C2.77828 25.2045 2.95116 25.6763 2.83902 25.6565C2.81363 25.6547 2.57027 25.0837 2.58346 25.0222C2.72316 24.2828 3.18609 25.3788 2.69962 23.6452C2.69581 23.6288 2.67939 23.6183 2.6582 23.6077C2.61746 23.5858 2.55923 23.5636 2.5387 23.4998C2.48017 23.3166 2.61418 23.2946 2.55844 23.1316C2.50281 22.9692 2.28847 22.7616 2.422 22.4869C2.66559 21.9893 2.98381 23.041 2.90001 23.5477C3.30049 23.6686 2.88161 20.2835 2.88564 20.081C2.68825 19.1735 2.85452 20.692 2.75946 20.7801C2.71561 20.8159 2.1169 20.8523 2.54012 21.2084C2.6652 21.3117 2.77096 20.8185 2.8607 21.0981C2.95133 21.3767 2.76566 21.2816 2.75535 21.3035C2.72028 21.379 2.81838 21.6768 2.79848 21.7191C2.49678 22.3754 1.91737 22.3867 2.66538 21.4766C2.43752 21.1416 2.22291 21.9917 2.0458 21.5617C1.83054 21.0336 2.07445 20.6116 2.08167 20.5441C2.17493 19.7181 1.83037 20.6863 1.90729 19.676C1.95743 19.1175 2.20139 20.4955 2.13176 19.2305C2.09303 18.1701 1.96518 18.7433 1.64822 18.6682C1.5746 18.651 1.48179 18.057 1.51827 18.8648C1.60052 18.8865 1.70908 18.9279 1.78548 18.9778C1.72808 19.1735 1.32762 19.5154 1.31772 19.6235C1.27097 20.1449 1.48469 20.107 1.2531 20.4283C1.5129 20.1926 1.3704 20.5578 1.43882 20.6862C1.69349 21.1611 1.70887 20.5079 1.54474 21.6339C1.65722 21.4769 1.76982 21.3353 1.88442 21.1859C1.90115 21.316 1.91884 21.4459 1.93721 21.5756C1.67495 21.7996 1.79635 22.4959 1.43725 21.8961C1.44692 22.6697 1.55733 22.9677 1.79816 23.1011C1.84437 23.1267 1.87734 23.2369 1.90116 23.3692C1.95875 23.3352 2.1434 23.2748 2.16974 23.2923C2.33937 23.406 2.21956 23.619 2.08468 23.6958C2.03868 23.722 1.99089 23.7324 1.952 23.7162C1.9491 23.715 1.94626 23.7137 1.94346 23.7122C1.94361 23.714 1.94375 23.7157 1.9439 23.7174C1.95179 23.8113 1.95773 23.8873 1.95913 23.9138C1.96898 24.0888 1.78808 23.7743 1.7709 23.9205C1.76259 23.9717 1.8889 24.4473 1.84488 24.4674C1.55739 24.5971 1.54847 23.7498 1.81072 25.3919C2.09579 25.3418 1.83132 24.6366 2.18363 24.7428C2.55433 24.8488 2.24673 25.369 2.66555 25.3278C2.612 25.38 2.56346 25.4117 2.50011 25.4634C2.87663 26.0007 2.57427 26.1254 2.58101 26.3418C2.56251 26.7738 3.52927 28.3406 2.97517 26.7842C3.10613 26.9772 3.23491 27.1779 3.3833 27.3581C2.96521 27.696 2.95264 27.5366 3.51226 28.2434C3.59458 28.3362 3.68626 28.4249 3.78237 28.5139C3.98853 28.701 3.91218 28.9714 4.30204 28.8443C4.1026 29.0964 4.86128 29.323 4.90145 29.3795C5.19798 29.8296 3.49881 29.2801 3.62087 28.601C3.45208 28.5785 3.37187 28.5047 3.32566 28.4192C3.27943 28.3185 3.28265 28.1954 3.13939 28.0483C2.79687 27.6778 2.70592 27.6339 2.62669 27.046C2.37313 26.8704 2.57255 27.3626 2.77129 27.745C2.97622 28.1211 3.10221 28.4191 2.43259 27.7663C1.96034 27.2759 1.12149 25.8874 0.699619 23.9085C0.264893 21.9766 -0.0186011 19.4561 0.00095129 17.6106C-0.00257146 16.4777 0.116954 15.5483 0.197408 15.0285C0.672716 12.02 1.71918 10.1041 2.43957 8.44204C2.75202 7.70126 3.12346 6.95257 3.70691 6.12101C3.81671 5.982 4.07071 5.54412 4.72597 4.96815C5.86336 4.08176 6.66393 4.02222 6.41896 4.30816C6.3684 4.36163 5.21169 5.10129 6.3582 4.82453C6.09104 4.77091 6.62839 4.41716 6.665 4.38971C7.57331 3.63984 6.96854 3.75164 8.53194 3.2349C8.5331 3.23453 8.53427 3.23415 8.53543 3.23378ZM13.9368 4.84884C11.9309 5.30622 13.4496 5.13513 13.1731 5.74459C13.427 5.67686 13.6771 5.61106 13.9333 5.54454C13.8586 5.53085 13.784 5.51729 13.7084 5.50396C13.7082 5.50403 13.7079 5.50411 13.7076 5.50418C13.7847 5.28536 13.8588 5.06748 13.9368 4.84884ZM45.0081 10.753C44.9038 10.773 44.8028 10.795 44.6922 10.8098C44.4617 10.658 44.2341 10.508 44.0028 10.3552C44.0538 10.3307 44.1041 10.3053 44.1553 10.2809C44.438 10.4404 44.7213 10.5999 45.0081 10.753ZM3.01846 23.7993C2.90446 24.1909 3.22302 24.0861 3.19689 24.5882C3.42119 24.4653 3.6399 24.3403 3.86438 24.2234C3.74721 23.9036 3.63503 23.8405 3.63607 23.4807C3.56328 23.5329 3.49114 23.5895 3.41906 23.6442C3.44672 23.7022 3.47803 23.7624 3.50493 23.8189C3.30207 23.961 3.16038 23.3635 3.01773 23.7981C3.01797 23.7985 3.01822 23.7989 3.01846 23.7993ZM4.44485 27.0782C4.46532 27.1178 4.50374 27.1888 4.55269 27.2632C4.62274 27.4082 4.99511 27.7108 5.089 27.6774C5.33049 27.6215 4.9565 27.3565 4.80893 27.1955C4.72699 27.1103 4.73074 27.0894 4.75434 27.0744C4.77536 27.0514 4.82992 27.067 5.16359 27.2023C5.18606 27.1583 5.21815 27.122 5.2454 27.0818C5.12037 26.9854 4.98059 26.8548 4.99284 26.8486C4.95986 26.8069 4.9239 26.7581 4.88785 26.7051C4.74278 26.8336 4.58793 26.9457 4.44485 27.0782ZM7.05081 7.07085C6.97858 7.1009 6.84934 7.19148 6.76614 7.30126C6.57374 7.54122 6.36377 8.06371 6.65194 7.92315C6.73373 7.88878 6.80983 7.56692 6.86334 7.41242C6.88708 7.34455 6.92357 7.28735 6.96414 7.26507C7.05808 7.21612 7.04026 7.42677 7.197 7.26369C7.15136 7.20139 7.10482 7.13008 7.05049 7.07162C7.0506 7.07137 7.0507 7.07111 7.05081 7.07085ZM7.09877 5.92798C6.80668 6.08665 6.51966 6.26916 6.28265 6.4883C6.57463 6.50494 6.91548 6.19813 7.06157 6.43951C6.99415 6.49432 6.92967 6.54965 6.86872 6.60616C6.78564 6.58155 6.70318 6.55819 6.61843 6.53853C6.50691 6.76357 6.61254 6.77497 6.4288 6.91549C6.39853 6.94021 6.35795 6.97231 6.30559 7.01607C6.42023 7.03973 6.51408 7.07218 6.59023 7.10009C6.86352 7.18709 6.87859 7.19327 7.31961 6.63471C7.28205 6.90378 7.67747 7.52994 7.90446 6.87229C7.95016 6.74836 7.58852 6.81879 7.57973 6.80702C7.45271 6.64779 7.59484 6.45537 7.46984 6.30693C7.41239 6.23931 7.20083 6.32919 7.12235 6.23812C7.08292 6.19305 7.2278 5.95571 7.09877 5.92798ZM8.05421 6.61744C8.0052 6.76144 8.40698 6.91249 8.66474 6.7653C9.07077 6.53514 8.29661 6.5122 8.05421 6.61744ZM45.0098 10.7536C45.0093 10.7534 45.0087 10.7532 45.0081 10.753C45.0085 10.7529 45.0089 10.7528 45.0093 10.7527C45.0095 10.753 45.0096 10.7533 45.0098 10.7536ZM4.08238 26.2413C4.26825 26.3896 4.41142 26.6482 4.53493 26.5424C4.55844 26.6384 4.58442 26.7316 4.61215 26.8216C4.65025 26.7923 4.68798 26.7622 4.72574 26.7332C4.59813 26.5109 4.47872 26.2443 4.3748 25.9619C4.27579 26.0523 4.17601 26.1417 4.08238 26.2413ZM6.52367 28.3375C6.90679 28.5195 6.66485 28.1793 6.79137 28.1191C6.91747 28.06 7.22733 28.275 7.24298 28.1185C7.016 28.0241 6.78932 27.9227 6.56664 27.8157C6.55724 27.9915 6.53151 28.1629 6.52447 28.3378C6.5242 28.3377 6.52394 28.3376 6.52367 28.3375ZM22.0117 3.29661C21.7978 3.27748 21.7912 3.18414 21.5966 3.21703C21.5177 3.2305 21.4095 3.26479 21.2466 3.33502C21.247 3.33498 21.2475 3.33495 21.2479 3.33491C21.3619 3.35288 21.4827 3.37028 21.6091 3.38531C22.1081 3.44407 22.6681 3.46646 23.1575 3.33979C22.7683 3.18223 22.4883 3.33907 22.0117 3.29661ZM3.34593 22.7023C3.1974 22.5947 3.1729 23.1967 3.31428 23.3087C3.54144 23.488 3.56976 22.8642 3.34593 22.7023ZM34.0588 3.64034C34.6584 3.49428 34.0791 2.66723 33.1074 2.45841C33.0265 2.44004 33.5367 2.80945 33.3371 2.80665C33.3178 2.80567 33.014 2.65996 32.915 2.68007C32.8165 2.6997 32.8452 2.85388 32.7 2.85275C32.4491 2.84922 32.0094 2.49634 31.7988 2.56393C31.773 2.57217 32.0262 2.8435 32.0415 2.85745C32.3163 3.0686 32.6973 2.9816 32.7474 3.0011C32.9969 3.09925 32.8868 3.24874 32.931 3.31416C33.0138 3.43748 33.2477 3.4584 33.2596 3.47066C33.5555 3.78275 32.7459 3.35516 32.6067 3.3729C32.2383 3.41208 32.4498 3.65898 31.7088 3.49131C31.6354 3.47399 30.8504 3.20413 31.7819 3.72975C29.7454 3.50823 32.6424 4.25018 33.0218 4.41942C33.1877 4.45149 33.038 4.18989 33.161 4.16334C33.4433 4.10223 33.8129 4.25304 33.8929 4.01533C34.0585 3.51347 33.4327 3.58348 33.1416 3.35489C33.2236 3.26769 33.2832 3.17327 33.3949 3.10283C33.235 3.18948 34.0167 3.64961 34.0583 3.64126C34.0585 3.64095 34.0586 3.64065 34.0588 3.64034ZM28.5127 2.72417C28.0227 2.53081 28.0358 2.86265 27.5879 2.6499C27.169 2.92573 27.9671 2.94523 28.0571 2.9697C28.4753 3.07223 28.4376 3.39198 28.8705 3.3296C28.7447 3.12713 28.6369 2.92516 28.5127 2.72417ZM32.5793 3.75119C32.2156 3.77604 32.7483 4.00327 32.7562 4.04436C32.8479 4.44461 31.3051 3.72701 32.5793 3.75119ZM5.49119 7.80262C5.39256 7.93748 5.58337 7.93385 5.54819 8.08124C5.51161 8.22582 5.15212 8.5978 5.24761 8.6348C5.3422 8.66016 5.99492 8.02111 5.6186 8.81918C5.68196 8.81894 5.71418 8.84734 5.76549 8.85847C5.87868 8.64802 6.00022 8.44206 6.12596 8.24655C5.92166 8.26792 5.70606 8.2976 5.50575 8.33405C5.46488 8.14793 5.64762 8.16474 5.65119 8.15864C5.65104 8.15856 5.65089 8.15847 5.65075 8.15838C5.77075 7.93411 5.71738 7.50482 5.49119 7.80262ZM17.9862 3.6176C17.9129 3.22181 17.6322 3.78213 17.4751 3.87661C17.319 3.97326 17.0515 3.89245 17.1829 4.03505C17.4791 4.08028 17.9947 3.66614 17.986 3.61712C17.9861 3.61728 17.9861 3.61744 17.9862 3.6176ZM25.7813 2.61588C25.356 2.71077 25.4256 2.81415 24.9091 2.69921C24.9302 2.79574 24.9511 2.8944 24.9719 2.98949C25.3781 2.98892 25.3496 2.70759 25.8236 2.8236C25.901 2.84316 25.7316 3.06512 26.083 2.99756C25.9835 2.87636 25.8801 2.7423 25.7813 2.61588ZM23.6972 3.00223C24.1765 2.9723 24.5468 2.17906 23.6583 2.55881C23.5275 2.61621 23.3361 3.02649 23.6972 3.00223ZM9.02845 5.58581C8.31667 5.79695 8.98852 5.68017 9.31426 5.68955C9.35258 5.69057 9.38593 5.69333 9.41152 5.69849C9.38246 5.70933 9.35434 5.71982 9.32714 5.72999C8.14836 6.17837 8.78885 5.92389 9.36737 5.85619C9.60404 5.82851 9.82582 5.83367 9.91281 5.92571C10.1024 5.74713 10.45 5.36836 9.95948 5.44609C9.75545 5.47895 9.862 5.57073 9.85016 5.57386C9.56241 5.63963 9.49198 5.53352 9.2674 5.54253C9.20143 5.5456 9.12729 5.55681 9.02845 5.58581ZM29.3798 2.78325C29.349 2.78593 29.3822 2.92524 29.2831 2.94207C29.1818 2.95829 28.9728 2.84365 28.9416 2.92426C28.9149 3.005 29.3451 3.11123 29.487 3.06714C29.6258 3.02141 29.6652 2.76201 29.3798 2.78325ZM26.2341 2.26869C25.8199 2.35913 26.488 2.86788 26.5729 2.86891C27.3584 2.86539 26.2133 2.42326 26.2341 2.26869ZM10.637 4.20434C9.73825 4.73758 10.5766 4.94236 11.2523 5.01953C11.3173 4.94487 11.3831 4.87002 11.4474 4.79631C11.176 5.21413 10.6334 5.70361 11.963 5.02654C11.1698 5.17345 11.7929 4.90443 11.792 4.88573C11.7152 4.28502 10.6418 4.88606 10.6378 4.20408C10.6375 4.20417 10.6372 4.20425 10.637 4.20434ZM30.651 3.10685C30.7255 3.12076 30.8242 3.13679 30.9215 3.15176C31.3702 3.21814 32.0121 3.33875 31.6878 3.00289C31.4338 3.01012 31.1847 3.02846 30.9432 3.06004C30.8501 3.07446 30.7502 3.08978 30.651 3.10685ZM1.39583 16.9527C1.28729 17.1763 1.24254 17.3953 1.22607 17.642C1.21628 17.7875 1.21584 17.9404 1.21744 18.1095C1.44019 17.7085 1.46058 17.9759 1.51189 18.1109C1.58903 18.3176 1.58925 17.8198 1.60465 17.8194C1.78414 17.8308 1.82572 18.0722 1.84107 17.6578C1.8435 17.5967 1.84573 17.5217 1.84878 17.4308C1.87635 17.5075 1.90459 17.5838 1.93337 17.6602C1.97187 17.7628 2.01083 17.8617 2.04982 17.9642C2.05388 17.8455 2.06396 17.7497 2.07895 17.6639C2.13393 17.3591 2.25155 17.2296 2.3978 16.9786C1.97711 17.2755 2.24989 16.8659 2.09465 16.4527C2.01655 16.241 1.48215 16.7639 1.39573 16.9541C1.39576 16.9536 1.39579 16.9532 1.39583 16.9527ZM9.61022 4.43101C9.53221 4.53071 9.46904 4.65267 9.39786 4.76145C9.29607 4.8016 9.19325 4.84132 9.09039 4.8823C9.06458 4.8371 9.03954 4.78969 9.01327 4.74514C9.00657 4.73386 8.99979 4.72276 8.9929 4.71192C8.84753 4.73885 8.92948 4.80598 8.89101 4.82706C8.8909 4.82673 8.8908 4.82641 8.8907 4.82608C8.33869 5.12815 8.09904 5.19395 7.56748 5.17536C7.63429 5.35911 7.70111 5.54287 7.76793 5.72662C7.8637 5.67196 7.9588 5.61896 8.05646 5.56576C8.07496 5.44809 8.097 5.32931 8.11752 5.21129C8.25505 5.22556 8.39359 5.23984 8.52919 5.25605C8.61437 5.18809 8.71621 5.11304 8.78703 5.05144C9.43198 5.41679 8.23556 5.41519 8.30019 5.63628C8.33091 5.73353 8.86735 5.58239 9.23386 5.4373C9.38823 5.37575 9.50915 5.3152 9.54636 5.27227C9.56498 5.25108 9.20653 4.93667 9.66989 5.01402C9.74348 5.02633 10.0218 5.86073 10.2436 5.04784C10.2759 4.93238 9.90154 4.47411 9.61022 4.43101ZM5.37371 5.97144C5.87948 5.89273 5.43315 6.26169 5.16616 6.57859C4.88337 6.90229 4.66036 7.17844 5.16622 6.86892C5.19165 7.27309 5.2292 7.21201 5.5882 7.11517C5.61946 7.10718 5.55656 7.31047 5.5744 7.30234C5.83268 7.15743 5.99027 6.87938 6.16132 7.03571C6.19686 6.97873 6.23253 6.92614 6.27005 6.87321C6.04626 6.8983 6.04308 6.73669 6.09907 6.53842C6.12902 6.4324 6.17845 6.3199 6.19998 6.22679C6.23009 6.10421 6.03649 6.2101 6.05958 6.10438C6.06842 6.06034 6.35921 5.93908 6.33221 5.87064C6.27108 5.7125 5.98336 5.58472 5.57652 5.74327C5.57641 5.74314 5.5763 5.74301 5.5762 5.74287C5.54529 5.77397 5.51531 5.806 5.48669 5.83809C5.44693 5.88247 5.41 5.92683 5.37371 5.97144ZM18.9463 2.06701C19.1191 2.35292 19.553 2.35542 18.7653 2.66798C18.819 2.71908 18.8718 2.77009 18.9246 2.82182C19.059 2.78868 19.1899 2.75859 19.3282 2.72964C19.6053 1.74711 20.5473 2.67837 19.9554 2.09645C19.8911 2.03311 19.5622 2.1588 19.8715 1.92225C19.8711 1.92214 19.8706 1.92203 19.8701 1.92192C19.4071 2.04612 19.3709 2.16432 18.9463 2.06701ZM15.9787 3.09566C15.1044 4.0001 17.5068 3.07236 17.0447 3.01007C17.005 3.00853 15.9776 3.42444 15.9787 3.09566ZM24.4727 1.26253C23.9859 1.26086 23.9622 1.61698 24.0146 1.74246C24.0681 1.86842 24.3975 1.73182 24.4414 1.75137C24.584 1.815 24.2852 1.86444 24.4702 1.95179C24.5327 1.97839 25.3678 2.09698 25.4065 2.08349C25.6184 1.99916 25.3086 1.70725 25.369 1.67394C25.5667 1.56419 25.8408 1.71809 25.8982 1.56375C26.0274 1.2339 25.5146 1.57693 25.4316 1.58325C25.1739 1.59908 25.1944 1.41298 25.0012 1.37692C24.8058 1.34129 24.6813 1.40679 24.5095 1.39653C24.4522 1.39314 24.4975 1.26326 24.4727 1.26253ZM22.8993 2.06191C23.3911 1.76975 22.1472 1.54034 22.0041 1.61597C21.588 1.82921 22.669 2.19803 22.8993 2.06191ZM7.36667 5.7834C7.73288 5.43458 6.65313 5.67288 6.39676 5.92882C6.49682 5.95129 7.2448 5.89422 7.36667 5.7834ZM10.9066 4.12609C10.5175 4.30339 11.1788 4.56368 11.5146 4.46074C11.6334 4.12817 11.4635 4.23557 11.2375 4.28863C11.0138 4.34114 11.2116 3.98824 10.9066 4.12609ZM29.7373 1.79601C29.6436 1.77158 28.1469 1.88114 28.9846 2.05206C29.0503 2.06044 30.0772 2.13159 30.1624 2.10524C30.3339 2.03918 29.9751 1.83556 29.7373 1.79601ZM12.7521 3.16725C12.6023 3.46504 12.3852 3.52112 12.6627 3.74765C12.663 3.74757 12.6633 3.74749 12.6636 3.74741C12.141 3.98294 11.9576 3.41586 11.8418 3.46125C11.4411 3.62038 11.947 3.91917 11.7268 4.12622C12.2908 3.83133 12.1967 4.15527 12.6559 4.04781C12.7606 4.02303 13.1253 3.74737 13.1575 3.62866C13.1895 3.5097 12.8985 3.25684 12.7521 3.16725ZM31.8685 2.15773C31.3884 1.90709 30.8399 2.19536 31.5015 2.43422C31.8149 2.55832 32.1515 2.31279 31.8685 2.15773ZM3.96518 28.565C3.95731 28.4279 3.95612 28.2942 3.95098 28.1529C4.12176 28.2636 4.29491 28.3529 4.46644 28.4343C4.32107 28.3789 4.18317 28.3234 4.03445 28.2488C4.30451 28.4997 4.34929 28.7547 3.96597 28.5656C3.96571 28.5654 3.96544 28.5652 3.96518 28.565ZM16.2033 30.1853C16.3829 30.2397 16.5883 29.849 16.5432 29.8369C16.2118 29.7466 15.9562 30.1093 16.2033 30.1853ZM6.31887 5.19788C5.67507 5.49506 6.37003 5.684 6.70947 5.56881C6.45373 5.58062 6.66889 5.05826 6.31887 5.19788ZM11.8156 30.9662C11.7603 30.9232 11.7052 30.8798 11.6448 30.8359C11.8348 30.8961 11.8698 30.9351 11.8156 30.9662ZM29.5494 1.32024C29.4657 1.26972 28.805 1.17663 28.7127 1.21995C28.5218 1.30759 29.0082 1.6279 29.316 1.5723C29.3519 1.56615 29.6325 1.36855 29.5481 1.3201C29.5485 1.32015 29.549 1.32019 29.5494 1.32024ZM4.57377 29.1903C4.57525 29.1855 4.5781 29.1817 4.58201 29.179C4.5791 29.1826 4.57691 29.1868 4.57377 29.1903ZM28.5408 27.1643C28.5355 27.1573 28.5319 27.1501 28.5306 27.1426C28.5336 27.1495 28.5381 27.1565 28.5408 27.1643ZM24.9101 0.689364C24.6841 0.203317 24.1772 0.47243 24.5842 0.706346C24.607 0.718513 24.8556 0.688753 24.9101 0.689364Z" fill="var(--stroke-0, #970606)"/>
</svg>
