<svg preserveAspectRatio="none" width="100%" height="100%" overflow="visible" style="display: block;" viewBox="0 0 50.3106 26.393" fill="none" xmlns="http://www.w3.org/2000/svg">
<path id="Vector 88" d="M33.0861 24.4466C31.5038 22.9903 31.4493 22.7123 30.8545 22.631C27.241 22.0141 24.1645 20.7154 21.1781 19.9376C21.0631 19.9059 20.9485 19.8718 20.834 19.8357C20.1888 19.6229 20.2977 19.498 20.1329 19.4215C19.6953 19.2053 19.3816 19.2548 19.07 19.1105C17.5916 18.4141 16.3171 17.735 14.9986 17.0163C13.6505 16.2794 14.497 16.2123 14.0676 15.8793C13.2338 15.2365 13.7679 16.1364 13.3511 16.076C12.5419 15.653 11.5877 15.1557 11.0583 14.976C11.4319 15.0582 11.7612 14.9231 11.8487 14.8633C11.9601 14.793 11.9545 14.7736 11.9396 14.783C11.9359 14.7547 11.9242 14.7519 11.8111 14.7929C11.72 14.825 11.4143 14.9192 11.0928 14.8221C11.124 14.8176 11.1645 14.8163 11.2122 14.8185C11.1694 14.8048 11.1311 14.7924 11.1017 14.7822C11.4406 14.8524 11.7016 14.7207 11.7485 14.6771C11.8178 14.6213 11.7947 14.6091 11.782 14.5951C11.7654 14.5826 11.7482 14.5661 11.7361 14.541C11.708 14.5169 11.7617 14.4907 11.518 14.5407C11.7531 14.4138 11.621 14.3793 11.5298 14.4374C11.5989 14.5157 11.5496 14.6546 11.4751 14.8468C11.4023 15.0339 11.3183 15.2471 11.3539 15.3086C11.4235 15.4307 11.6262 15.0429 11.6342 15.0565C11.7553 15.0793 10.6296 16.7567 10.5401 16.9207C10.3153 17.265 10.2462 16.8277 10.1033 17.1477C9.85418 17.6991 10.5093 17.5824 9.50239 17.9963C9.54464 18.3981 9.42791 18.3699 9.20057 18.7361C9.17025 18.7846 9.30641 18.8121 9.29656 18.8359C9.03795 19.4624 9.09226 18.8935 9.07829 18.891C8.8607 18.8253 8.56193 19.4865 8.44358 19.6017C7.91598 20.1052 7.41659 20.7581 6.31617 20.802C5.36853 20.7109 4.44214 20.6796 3.32512 20.8154C3.0225 20.8499 2.26161 21.0536 1.79881 21.2143C1.68216 21.2531 1.58631 21.2919 1.51859 21.3143C1.21561 21.4262 1.29048 21.2051 1.09164 21.2328C1.06226 21.5663 1.00332 21.7437 0.741299 21.9286L0.842653 21.8003C0.768244 21.8965 0.657763 22.018 0.515973 22.1963C0.725002 22.5077 0.50292 22.4073 0.473501 22.8938C0.469739 22.9773 0.47789 23.0757 0.491231 23.1827L0.49357 23.1608C0.557044 23.5418 0.770861 23.9785 0.59243 24.3716C0.557991 23.8595 0.407993 23.9295 0.321332 23.3763C0.31751 23.3446 0.31594 23.2632 0.320949 23.1461L0.319392 23.1607C0.346793 22.7599 0.472747 22.0227 0.588001 21.6597L0.545491 21.7135C0.657668 21.5534 0.708158 21.4398 0.62804 21.4065C0.570345 21.3831 0.474697 21.4425 0.378452 21.53C0.376455 21.5316 0.372111 21.5375 0.370763 21.5397C0.25413 21.7441 0.213374 22.0383 0.191766 22.0486C4.23044e-05 22.1527 -0.0959737 21.7345 0.135728 21.4099C0.146599 21.3918 0.181625 21.345 0.197729 21.3314C0.209421 21.3234 0.221457 21.3157 0.2338 21.3083C0.226992 21.3213 0.219963 21.3345 0.21282 21.348C0.197894 21.3606 0.16543 21.404 0.155354 21.4207C0.137549 21.5104 0.122169 21.608 0.11519 21.6958C0.181563 21.6073 0.228345 21.5371 0.259263 21.4781C0.265129 21.4684 0.284028 21.4431 0.292717 21.4358C0.59994 21.155 0.0137147 20.9627 0.802744 21.1068C0.911581 21.133 0.939071 21.2191 1.08313 21.2315C1.08397 21.1868 0.913122 21.1891 1.00872 21.1074C1.11079 21.0194 1.39884 21.0682 1.36992 20.9231C1.33064 20.6961 0.875096 21.0378 0.844287 21.0598C0.844651 21.0611 0.845016 21.0624 0.845381 21.0637C0.472979 21.1838 1.11417 20.7296 1.15572 20.7111C1.33066 20.486 1.11778 20.4545 1.47132 20.2126C1.4736 20.2111 1.47593 20.2097 1.47831 20.2082C1.66633 20.0817 2.18392 19.9848 2.36613 19.9276C2.55087 19.8664 2.23471 19.8322 2.35777 19.7832C2.48228 19.7339 2.65633 19.7768 2.80147 19.7247C2.86354 19.7021 2.84054 19.5923 2.87123 19.5829C3.19961 19.4828 3.01832 19.7494 3.31664 19.6881C3.50778 19.6469 4.13874 19.3509 3.67643 19.3431C3.89273 19.2924 4.10442 19.2519 4.32022 19.2128C4.17968 19.1931 4.03503 19.1859 3.89556 19.1628C4.31301 19.1685 4.47982 18.962 4.73771 18.926C4.99585 18.8908 5.24078 19.1051 5.5151 18.9775C6.10635 18.7047 4.6163 18.9001 4.42332 18.8856C4.34831 18.8756 4.61342 18.6701 4.65685 18.6617C4.84834 18.6229 5.08486 18.7356 5.23148 18.7206C5.63205 18.6791 5.91031 18.5644 6.24221 18.4902C6.13983 18.4731 6.04039 18.4821 5.98222 18.4968C5.78744 18.5688 5.99972 18.4151 6.1507 18.1542C6.31759 17.896 6.50449 17.5538 6.68517 17.1935C7.04916 16.4676 7.40148 15.6659 7.74512 14.9502C8.00128 14.4155 8.35191 14.1685 8.48711 13.918C8.83379 13.3064 8.69042 13.168 9.21037 12.5048C9.35316 12.3394 9.53152 12.1379 9.87261 11.9C10.1947 11.6829 10.8834 11.2887 11.8368 11.5023C12.7629 11.7746 13.2865 12.1231 13.7268 12.3325C14.1594 12.5497 14.6151 12.5903 14.724 12.638C16.278 13.3233 18.0271 14.2367 19.2161 14.7933C19.7735 15.0562 19.9591 15.3361 20.0774 15.3833C20.5767 15.5783 20.506 15.3785 20.8902 15.5551C21.0965 15.6481 21.0807 15.8007 21.1063 15.8172C21.336 15.9586 21.4475 15.7917 21.6359 15.8514C21.8351 15.9133 22.0336 15.9742 22.1999 16.0206C23.2417 16.3055 24.2366 16.6805 25.2562 17.008C25.3474 17.0374 25.3139 17.1173 25.374 17.1311C25.6367 17.1898 25.5564 17.023 25.8257 17.0961C26.3838 17.2472 26.9375 17.4467 27.5002 17.6397C27.5561 17.6588 27.5489 17.7726 27.6768 17.8122C27.806 17.852 27.933 17.7812 28.1319 17.8475C28.649 18.0194 29.1228 18.2867 29.6643 18.4321C29.7541 18.456 29.8972 18.3543 30.0303 18.3879C30.4476 18.495 31.0446 18.7422 31.4085 18.8092C31.4421 18.8156 31.4757 18.8218 31.5095 18.8278C33.4446 19.0664 34.8875 20.8048 35.3828 21.274C35.5143 21.3964 35.5159 21.5433 35.5592 21.573C35.6444 21.6265 35.6367 21.492 35.7028 21.5196C35.7745 21.5457 35.8997 21.5705 36.1397 21.5456C36.8889 21.4388 38.1185 21.5589 38.9631 22.1676C39.3544 22.4383 39.5832 22.6349 39.5198 22.5861C39.4463 22.5278 39.136 22.5073 39.1794 22.5206C40.4635 22.3101 41.8002 22.157 42.6781 21.879C42.7327 21.8608 42.7812 21.8419 42.8138 21.8265C43.9406 21.3913 45.1231 20.7812 44.9123 20.8752C44.9111 20.8776 44.91 20.8802 44.909 20.8829C45.1953 20.5292 45.3554 20.5721 45.5243 20.3395C45.8172 19.9265 45.6912 19.7457 45.9074 19.3272C46.0732 18.9978 46.4334 18.6989 46.5431 18.3217C46.6482 17.9461 46.4973 17.7281 46.5457 17.2968C46.5776 16.9975 46.6739 16.5962 46.6859 16.2207C46.6886 16.1313 46.6894 16.0444 46.6874 15.9617C46.6476 14.3525 46.6032 12.8082 46.3392 11.4988C46.102 10.3267 45.7055 9.0487 45.2533 8.31893C44.9039 7.74494 43.9937 6.90528 43.1085 6.07452C42.9129 5.88463 42.718 5.73801 42.4295 5.56899C41.3395 4.94083 39.5522 4.5025 37.9856 3.94936C37.9767 3.94626 37.9693 3.94288 37.9631 3.93924C37.8542 3.87759 38.0871 3.75955 37.5739 3.67739C37.285 3.63138 36.848 3.68903 36.253 3.55177C35.1875 3.30395 34.2063 3.12976 33.1305 3.06773C30.6983 2.94298 28.1203 2.73521 26.0004 3.12925C25.7359 3.1824 25.4931 3.23288 25.2326 3.28869C22.5752 3.90891 19.6636 4.5833 17.823 5.6831C15.2538 7.12041 12.4279 8.37048 10.1956 8.82208C10.1514 8.80677 10.1183 8.57882 9.95053 8.56601C9.79174 8.53694 9.68552 8.40668 9.68103 8.31362C9.83146 8.30098 9.99482 8.3173 10.1645 8.32476C9.92276 7.74692 9.99883 7.87046 10.5757 7.54561C10.9384 7.34744 10.5203 7.31101 10.6648 7.12932C10.8522 6.88505 11.8695 5.93794 11.8475 6.41899C11.886 6.31607 11.9204 6.21915 11.956 6.12011C12.777 5.58033 13.574 5.04051 14.3711 4.49775C14.5085 4.40406 14.4585 4.28781 14.6038 4.19058C14.9835 3.93414 15.3541 3.83972 15.7687 3.61847C15.9961 3.49752 15.9665 3.34926 16.27 3.20981C16.3985 3.15087 16.4886 3.14759 16.5732 3.13476C16.6944 3.11564 16.7985 3.07952 17.0046 2.8493C16.6026 2.7505 18.007 2.33816 18.4906 2.20407C18.5571 2.17921 19.0781 1.80159 19.3871 1.75446C19.6986 1.70288 20.1846 1.73709 20.6306 1.56006C20.8354 1.47783 20.9326 1.281 21.1649 1.22311C21.3249 1.18318 21.5564 1.29287 21.7601 1.25846C21.9712 1.22239 22.3888 1.01102 22.4693 0.993062C22.7652 0.926122 22.4569 1.09706 22.6628 1.06198C23.5583 0.908606 24.5924 0.759314 25.4902 0.532791C25.573 0.51225 25.6578 0.49162 25.7382 0.471813C25.8664 0.440718 25.665 0.346389 25.6814 0.339369C26.5413 0.0426298 26.0938 0.28483 26.3451 0.362773C26.5918 0.424274 28.1986 0.244184 28.2 0.0326383C28.2633 0.306353 28.6087 0.079596 28.703 0.0685526C29.0617 0.0251102 28.9985 0.266802 29.3426 0.184543C29.4698 0.154848 29.2175 -0.00178659 29.355 1.5378e-05C29.6948 0.00484085 30.0009 0.261045 30.447 0.285888C30.5556 0.292091 30.5882 0.17602 30.7815 0.180326C30.9733 0.183737 31.7722 0.333782 31.4056 0.0855876C31.8896 0.286919 31.9881 0.180772 32.5523 0.197352C32.6939 0.201975 32.8734 0.392645 33.1785 0.342453C33.1864 0.341162 33.1937 0.338933 33.2005 0.335917C33.288 0.29947 33.3014 0.145575 33.453 0.149988C33.8315 0.161868 34.1715 0.370742 34.6409 0.431124C35.519 0.54202 36.4815 0.61613 37.3224 0.87925C37.5499 0.949727 37.449 1.11129 37.7779 1.19774C37.8271 1.21027 38.2567 1.15622 38.4711 1.21938C38.4906 1.22517 38.5218 1.23594 38.5614 1.25004C38.8099 1.33456 39.3307 1.53932 39.4601 1.57919C39.6976 1.65153 39.7878 1.49397 39.9124 1.56063C40.2752 1.75562 39.899 1.92347 40.4551 1.70614C40.5564 1.93542 40.8354 1.99329 40.8529 2.24897C41.0865 2.04197 41.2163 2.3433 41.5472 2.35538C41.8753 2.36646 42.3002 1.97452 42.1907 2.51884C42.3526 2.50133 43.0093 2.635 43.1169 2.67711C43.4323 2.7903 43.2057 2.85528 43.4439 2.94383C43.4855 2.96088 43.4878 2.84271 43.7441 2.98477C43.883 3.04332 44.7802 3.60366 45.0546 3.90187C45.1046 3.94934 45.1373 3.98156 45.1451 3.99175C45.474 4.42206 45.2358 4.22892 44.9568 4.01109C44.7641 3.85607 44.5331 3.70479 44.4428 3.69377C44.4304 3.64846 44.4161 3.60201 44.4001 3.55553C44.0649 3.27489 44.1487 3.60872 44.2713 3.75856C44.3907 3.90129 44.712 4.03775 44.7929 4.19403C44.7961 4.20036 44.7988 4.20671 44.8011 4.21308C44.8184 4.26173 44.7352 4.35257 44.6368 4.36832C44.58 4.37668 44.5177 4.36028 44.4635 4.29869C44.5872 4.51827 44.2834 4.37944 44.3018 4.5021C44.3056 4.52926 44.3406 4.57924 44.392 4.64156C44.5984 4.88833 45.0872 5.31969 45.1732 5.23241C45.0345 5.09807 44.8527 4.94133 44.7119 4.8063C44.7004 4.4361 45.8978 4.26239 46.1855 5.04289C46.3836 5.6108 45.6126 5.12729 46.658 5.87831C46.5315 5.72667 46.4334 5.59081 46.3157 5.45807C46.445 5.30112 46.4921 5.66208 46.641 5.72671C46.715 5.75801 46.506 5.33422 46.8116 5.5836C46.8305 6.03041 47.2245 6.01071 47.5921 6.51359C47.451 6.40225 47.3087 6.30156 47.1662 6.20873C47.6002 7.09894 46.179 5.39615 47.2104 6.93064C47.0784 6.74978 46.9469 6.57449 46.7958 6.41558C46.7809 6.56364 46.4362 6.63615 46.4436 6.74791C46.4563 6.9852 46.648 7.16111 46.7851 7.35767C46.8147 7.39981 46.8427 7.44401 46.8651 7.48763C46.9205 7.59626 46.8096 7.57249 46.8144 7.58166C46.8865 7.72917 46.9771 7.63858 47.0527 7.76667C47.1519 7.92723 47.2551 8.47151 47.2958 8.5482C47.4109 8.74831 47.4994 8.3049 47.5226 8.31711C47.6893 8.41087 47.7033 8.73299 47.8422 8.66562C47.6414 8.25594 47.2491 7.37288 47.1701 7.11607C47.1518 7.03897 47.1714 7.01181 47.2487 7.06675C47.3374 7.13089 47.5077 7.30809 47.7384 7.66731C47.7047 7.05695 48.102 7.018 48.4732 7.79419C48.7525 8.42822 48.4599 8.06555 48.4415 8.44675C48.4469 8.49622 48.6455 9.35864 48.7542 9.3737C48.5086 9.40893 48.3729 9.73515 48.0784 9.62401C48.0361 9.60767 47.9528 9.27288 47.791 9.44642C47.7102 9.53344 47.5414 9.75598 47.4082 9.76524C47.514 9.80573 47.6317 9.84812 47.7414 9.89137C47.8952 10.3742 47.8121 10.4705 47.7051 10.7723C47.7718 10.7468 48.0091 10.4324 48.0011 10.8322C47.9995 10.8524 47.8997 10.8917 47.8846 11.0934C47.8812 11.1395 47.8778 11.1819 47.8738 11.2191C47.8409 11.5134 47.7875 11.5487 47.4708 11.343C47.7734 12.091 47.4403 12.3055 47.5976 13.1155C47.9874 12.9292 47.8813 12.6298 47.7133 11.894C47.8041 11.8495 47.8961 11.822 47.9874 11.7751C47.8902 12.8121 47.8531 12.3021 48.0951 12.8677C48.1556 13.0059 48.1381 13.7738 48.3977 13.5071C48.4602 13.4436 48.4272 12.9641 48.53 13.013C48.5514 13.0221 48.6283 13.6067 48.6026 13.6597C48.2981 14.3172 48.0586 13.1685 48.1987 14.9396C48.2024 14.9885 48.3197 15.0052 48.3363 15.1012C48.3671 15.2816 48.2312 15.284 48.2624 15.4451C48.2937 15.6063 48.4755 15.8311 48.3056 16.0736C47.9958 16.5169 47.8255 15.4671 47.986 15.0056C47.8097 14.9246 47.7109 15.5116 47.6523 16.225C47.5949 17.0547 47.3943 17.9908 47.3802 18.0932C47.3176 18.8997 47.578 17.5997 47.6741 17.5406C47.7236 17.5218 48.3185 17.6251 47.9797 17.216C47.8789 17.1013 47.6734 17.5065 47.6439 17.2458C47.611 16.9896 47.7732 17.1068 47.7878 17.0901C47.8378 17.0297 47.7945 16.7529 47.8204 16.7186C48.2192 16.1789 48.803 16.2575 47.9088 16.955C48.0704 17.2995 48.4376 16.5659 48.5331 16.992C48.6452 17.5287 48.2965 17.8609 48.2733 17.917C47.9591 18.6292 48.5679 17.864 48.1898 18.7475C47.9614 19.2214 48.179 17.9358 47.8309 19.0584C47.4801 19.9759 47.8007 19.5424 48.0641 19.7381C48.1242 19.7831 47.9637 20.3514 48.2613 19.6166C48.1945 19.5641 48.111 19.4841 48.0595 19.4104C48.1858 19.2652 48.6812 19.0951 48.7269 18.9958C48.9457 18.5187 48.7246 18.4897 49.0394 18.2506C48.7233 18.4027 48.9643 18.0943 48.9302 17.9527C48.7968 17.4337 48.6442 18.0652 49.0386 17.0175C48.8986 17.147 48.7595 17.2601 48.6156 17.3746C48.6272 17.2496 48.6361 17.1238 48.6423 16.9992C48.9451 16.8392 48.934 16.1362 49.1917 16.7811C49.2273 16.5652 49.2426 16.3852 49.2429 16.232C49.2434 15.8752 49.1676 15.6929 49.0101 15.5795C48.9681 15.5494 48.9516 15.441 48.9475 15.3136C48.8855 15.3377 48.694 15.3684 48.6705 15.3483C48.4642 15.1696 48.8198 14.891 48.9564 14.985C48.9626 14.8957 48.9697 14.825 48.9728 14.8C48.9929 14.6413 49.1182 14.9513 49.1595 14.8224C49.1735 14.7801 49.1414 14.3322 49.1909 14.3225C49.5079 14.2609 49.3014 15.0151 49.4447 13.5096C49.153 13.4863 49.2375 14.1756 48.922 14.0057C48.5847 13.8267 49.0171 13.4254 48.604 13.359C48.6697 13.3248 48.7251 13.3084 48.8002 13.2777C48.5906 12.6918 48.9242 12.6616 48.985 12.4696C49.1174 12.0954 48.8502 10.4406 48.7632 11.961C48.7092 11.7495 48.6659 11.5326 48.6057 11.3244C48.9906 11.229 49.0367 11.2674 48.9944 11.0148C48.9708 10.8795 48.9218 10.6605 48.8721 10.29C48.8406 10.0597 49.0826 9.91825 48.7166 9.77475C49.0306 9.7268 48.6605 9.10099 48.6739 9.02973C48.7911 8.54055 49.5657 9.98884 49.0499 10.3077C49.3163 10.5175 49.0382 10.5768 49.1306 10.854C49.146 10.901 49.1605 10.9439 49.1735 10.9822C49.2719 11.2817 49.3116 11.3823 49.182 11.8435C49.407 12.134 49.3057 11.2693 49.3194 10.9556C49.3279 10.8434 49.3607 10.8057 49.448 10.9321C49.4954 11.0026 49.5588 11.1233 49.6376 11.3086C49.9428 11.9577 50.212 14.0896 50.281 16.2366C50.5698 19.0703 48.6678 22.2526 47.972 23.0918C47.7753 23.3718 47.5779 23.5704 47.417 23.7162C45.7734 24.9828 44.9214 24.9667 44.262 25.3323C42.3251 26.0479 41.2512 26.0663 39.8359 26.3394C39.4176 26.4147 38.8092 26.4359 38.205 26.2314C37.5998 26.0296 37.2053 25.6999 37.0205 25.5596C36.9688 25.5192 36.8672 25.4413 36.8299 25.4158C36.787 25.3869 36.8175 25.4039 36.8344 25.3995C36.8882 25.387 36.6802 25.3361 36.5607 25.2761C36.3952 25.2502 36.3568 25.1964 36.5004 25.1091C36.5073 25.1048 36.521 25.0995 36.54 25.093C36.6365 25.0175 37.0528 24.8921 36.6121 24.6486C36.6847 24.7425 36.6006 24.8224 36.5161 24.8808C36.3956 24.925 36.2783 24.9518 36.256 24.9595C35.5609 25.1805 35.3206 25.2366 35.0148 25.2556C34.7373 25.2507 34.1105 25.2259 33.0861 24.4466ZM30.8886 19.5169C31.0829 19.5629 31.2415 19.5961 31.373 19.6203C32.82 19.9932 31.4843 19.4029 32.0797 19.0849C31.8823 19.0263 31.6884 18.9813 31.4891 18.9461C31.3838 18.9273 31.2809 18.9081 31.1764 18.888C31.2322 18.9313 31.2854 18.9739 31.3412 19.0168C31.3414 19.0168 31.3417 19.0168 31.342 19.0169C31.1943 19.1851 31.0418 19.3516 30.8886 19.5169ZM3.2737 19.0666C3.34558 18.9872 3.41753 18.9082 3.49792 18.8302C3.78021 18.8134 4.05868 18.8027 4.33636 18.7971C4.30792 18.8462 4.28079 18.8958 4.25265 18.945C3.92798 18.9758 3.6024 19.013 3.2737 19.0666ZM47.9096 14.7334C48.0946 14.3672 47.7592 14.4047 47.9009 13.9218C47.6537 13.9876 47.4119 14.0582 47.1668 14.1247C47.2111 14.4828 47.3066 14.5645 47.2482 14.961C47.328 14.9144 47.4082 14.8667 47.4884 14.821C47.4708 14.7549 47.4506 14.6849 47.4347 14.6212C47.658 14.5161 47.6962 15.1535 47.9101 14.7346C47.91 14.7342 47.9098 14.7338 47.9096 14.7334ZM47.5258 11.1183C47.5271 10.9278 47.4753 10.1639 47.3453 10.0919C46.9361 9.84759 47.6144 11.8203 46.9711 10.4003C46.9252 10.4188 46.8769 10.4236 46.8297 10.4352C46.8788 10.7053 46.9232 10.9766 46.9615 11.2493C47.1487 11.1983 47.3381 11.1721 47.5258 11.1183ZM36.9459 22.3294C37.1417 22.344 37.8036 22.3953 38.3041 22.6089C38.7966 22.8116 39.0483 22.9239 38.8838 22.654C38.8087 22.4683 37.6529 22.2469 37.3116 22.2448C37.0817 22.2083 37.3567 22.0527 36.8898 22.0874C36.9077 22.1646 36.917 22.2498 36.9471 22.329C36.9467 22.3291 36.9463 22.3293 36.9459 22.3294ZM36.3239 23.3613C36.3306 23.3599 36.3374 23.3585 36.3441 23.3571C36.649 23.2923 36.9666 23.2497 37.2913 23.2858C37.0857 23.0274 36.5772 23.1592 36.5367 22.8889C36.6333 22.8623 36.7318 22.8393 36.8328 22.8206C36.9098 22.8834 36.981 22.9487 37.0492 23.0165C37.3758 22.9172 37.2141 22.7655 37.8063 23.0155C37.6298 22.5104 37.3614 22.1222 36.3303 22.6201C36.4337 22.4711 36.3966 22.1399 36.1959 22.0441C36.124 21.9769 36.0527 21.9982 35.9367 22.2051C35.8736 22.3054 36.1308 22.3659 36.1395 22.3776C36.2007 22.5693 36.0457 22.7046 36.104 22.8858C36.1226 22.9421 36.2216 22.9531 36.3023 22.9862C36.3463 23.0009 36.3817 23.0227 36.3967 23.0581C36.4074 23.0847 36.3618 23.1412 36.3265 23.2007C36.2923 23.2633 36.2653 23.3279 36.3239 23.3613ZM35.7821 22.3843C35.8438 22.2705 35.6881 21.9792 35.5766 21.9985C35.355 22.0117 35.5761 22.3892 35.7821 22.3843ZM3.2719 19.0672C3.2725 19.067 3.2731 19.0668 3.2737 19.0666C3.27343 19.0669 3.27316 19.0672 3.27289 19.0675C3.27256 19.0674 3.27223 19.0673 3.2719 19.0672ZM47.5363 12.0849C47.4122 11.8782 47.3786 11.5625 47.2238 11.611C47.237 11.5178 47.2485 11.424 47.2593 11.3311C47.2609 11.3172 47.2624 11.3032 47.2639 11.2891C47.2168 11.2988 47.1698 11.3095 47.1231 11.3192C47.1242 11.3313 47.1252 11.3433 47.1262 11.3553C47.1504 11.6486 47.1627 11.9475 47.1661 12.2507C47.2897 12.1978 47.414 12.1469 47.5363 12.0849ZM46.8083 8.67558C46.674 8.3061 46.5985 8.6939 46.4688 8.65515C46.3416 8.61772 46.2828 8.28688 46.1624 8.38758C46.2479 8.57896 46.3307 8.79039 46.4053 9.00264C46.5376 8.88905 46.6779 8.78902 46.808 8.67485C46.8081 8.67509 46.8082 8.67534 46.8083 8.67558ZM23.2812 17.172C23.5528 17.2979 23.3919 17.4235 24.0062 17.3993C24.0058 17.3992 24.0054 17.3991 24.005 17.399C23.5094 17.1121 22.8489 16.8015 22.2199 16.7719C22.5366 17.037 22.8527 16.9753 23.2812 17.172ZM47.421 15.7428C47.5523 15.8656 47.6638 15.2962 47.541 15.1721C47.3429 14.971 47.2223 15.555 47.421 15.7428ZM12.1713 13.6458C11.634 13.8789 12.2077 14.5631 13.065 14.7524C13.1399 14.7671 12.6872 14.4195 12.8697 14.4156C12.8911 14.4164 13.1611 14.5504 13.2575 14.5336C13.3504 14.5147 13.3332 14.3619 13.4695 14.365C13.7133 14.3727 14.084 14.7498 14.2888 14.7101C14.3152 14.7041 14.1142 14.411 14.0989 14.3964C13.8556 14.1604 13.4774 14.2361 13.4345 14.2178C13.1984 14.1167 13.3096 13.9708 13.2686 13.9054C13.1926 13.783 12.9598 13.7664 12.9504 13.756C12.658 13.4547 13.451 13.8548 13.5891 13.8516C13.952 13.8297 13.7567 13.5542 14.4992 13.8029C14.5681 13.8259 15.3609 14.2254 14.4454 13.5547C16.5971 14.1442 13.569 12.8473 13.1558 12.799C12.9813 12.7708 13.152 13.0303 13.0264 13.0602C12.7449 13.1293 12.3533 13.0098 12.2992 13.2562C12.1891 13.771 12.7776 13.6403 13.0642 13.8673C12.9843 13.9558 12.9262 14.051 12.8208 14.1257C12.9812 14.0297 12.2179 13.624 12.1717 13.6448C12.1716 13.6451 12.1714 13.6454 12.1713 13.6458ZM17.3721 15.4721C17.736 15.8275 17.8497 15.5161 18.1651 15.8787C18.6433 15.7808 17.9452 15.4656 17.8727 15.4105C17.5388 15.1633 17.6908 14.8791 17.2723 14.7816C17.316 15.0162 17.3354 15.2408 17.3721 15.4721ZM13.6259 13.4736C13.9999 13.4629 13.4576 13.2147 13.4462 13.1759C13.3506 12.7546 14.9425 13.573 13.6259 13.4736ZM38.7536 23.829C38.8595 23.9047 38.8732 23.7291 38.9715 23.7249C39.0409 23.7272 39.312 23.8695 39.3146 23.7607C39.2992 23.7146 39.1603 23.6288 39.1492 23.5368C39.1417 23.4449 39.1319 23.3837 39.2675 23.3492C39.2502 23.2946 39.251 23.2526 39.2427 23.2025C39.1671 23.1972 39.2506 23.2168 39.1756 23.18C39.1317 23.3405 39.0836 23.5081 39.1098 23.6737C39.0155 23.7844 39.0273 23.6092 39.0289 23.61C39.0288 23.6102 39.0288 23.6103 39.0287 23.6105C38.9329 23.59 38.499 23.621 38.7536 23.829ZM27.1173 18.6628C26.9517 19.0305 27.454 18.7185 27.6188 18.7168C27.7838 18.7157 27.948 18.9197 27.9199 18.7314C27.7113 18.5451 27.1369 18.6223 27.1172 18.6633C27.1172 18.6631 27.1173 18.663 27.1173 18.6628ZM19.7329 16.5874C20.14 16.658 20.1195 16.5382 20.5212 16.83C20.5397 16.7332 20.5592 16.6344 20.5775 16.5391C20.2304 16.3948 20.1434 16.6632 19.7783 16.3808C19.719 16.334 19.9534 16.1933 19.6225 16.1244C19.6617 16.2733 19.6967 16.4343 19.7329 16.5874ZM21.6561 16.9445C21.2543 16.8317 20.6497 17.4534 21.5463 17.3757C21.6817 17.3612 21.9605 17.0223 21.6561 16.9445ZM34.7379 22.6959C35.3266 23.0618 34.6941 22.5753 34.6552 22.3534C35.9442 23.0431 34.4677 22.3451 34.656 21.8574C34.4406 21.8062 33.9629 21.6755 34.2259 22.0544C34.3353 22.2075 34.3718 22.0737 34.3793 22.0824C34.5944 22.328 34.4289 22.4565 34.7379 22.6959ZM16.6104 15.1141C16.6398 15.1223 16.6584 14.9805 16.7556 14.9989C16.8529 15.0176 17.0035 15.1985 17.0596 15.1338C17.116 15.0687 16.7579 14.8176 16.6124 14.8125C16.4659 14.8077 16.3456 15.0397 16.6104 15.1141ZM19.2004 16.7362C19.5983 16.8092 19.2202 16.0923 19.1428 16.0578C18.4552 15.7659 19.2832 16.6034 19.2004 16.7362ZM32.8597 22.0564C33.6699 22.5457 33.573 21.7663 33.2686 21.1279C33.1691 21.1107 33.0672 21.0944 32.9694 21.0838C33.221 21.0752 33.532 21.1469 33.6122 21.1064C33.6861 21.0767 33.5758 20.8725 32.8059 20.5195C33.4899 21.0991 32.8326 20.7305 32.8204 20.7475C32.4404 21.1713 33.4598 21.7017 32.8591 22.0558C32.8593 22.056 32.8595 22.0562 32.8597 22.0564ZM15.5186 14.4077C15.1448 14.2212 14.1163 13.8333 14.4602 14.2911C14.8138 14.3286 15.1654 14.3673 15.5186 14.4077ZM47.5021 21.3212C47.8241 21.1116 48.0057 20.8231 48.2095 20.4219C47.8255 20.6725 47.934 20.4251 47.9485 20.2855C47.9725 20.0718 47.7489 20.5008 47.7335 20.4925C47.5577 20.3801 47.6874 20.1121 47.3391 20.6968C47.3676 20.5166 47.3902 20.3369 47.4072 20.1596C47.1487 20.596 46.9623 20.6228 46.6514 20.7913C47.1548 20.7617 46.7252 20.9573 46.6619 21.379C46.6294 21.5929 47.337 21.4325 47.5028 21.3201C47.5026 21.3204 47.5023 21.3208 47.5021 21.3212ZM33.4794 22.8258C33.6047 22.8508 33.7431 22.8504 33.8736 22.8597C33.9602 22.9302 34.0493 22.9997 34.1431 23.065C34.114 23.1236 34.0819 23.1833 34.0576 23.2423C34.1727 23.3544 34.1771 23.2448 34.2194 23.266C34.2192 23.2663 34.219 23.2665 34.2188 23.2668C34.8468 23.5506 35.0859 23.6254 35.6066 23.896C35.6263 23.7015 35.646 23.507 35.6657 23.3124C35.561 23.3205 35.4588 23.3225 35.3533 23.317C35.2775 23.4075 35.1925 23.4939 35.1023 23.5762C34.9908 23.4816 34.8897 23.3796 34.8008 23.272C34.6937 23.2626 34.5652 23.2349 34.4692 23.2166C34.411 22.8462 34.5711 22.9115 34.747 23.0099C34.9243 23.1128 35.1695 23.2347 35.2063 23.1255C35.2306 23.0566 35.0086 22.953 34.79 22.8111C34.5682 22.6734 34.3352 22.4946 34.245 22.4789C34.2183 22.4725 34.1113 22.9358 33.968 22.5027C33.9435 22.4296 34.5688 21.8168 33.7601 21.9943C33.6459 22.0191 33.3834 22.544 33.4794 22.8258ZM37.2384 24.2941C37.1568 23.9755 37.3975 24.0331 37.6173 24.2078C37.8357 24.3829 38.0959 24.6374 37.8566 24.1588C38.2211 24.112 38.1904 24.0903 38.103 23.7379C38.095 23.7056 38.2948 23.7667 38.2868 23.7498C38.1586 23.481 37.8124 23.3656 37.909 23.162C37.8262 23.135 37.7472 23.1133 37.6645 23.0962C37.8993 23.4224 37.3469 23.3536 37.1634 23.5261C37.0772 23.5951 37.236 23.6499 37.1631 23.7102C37.1408 23.7293 36.9188 23.6497 36.9051 23.7278C36.8747 23.8989 37.0076 24.1348 37.1206 24.2951C37.1205 24.2953 37.1205 24.2955 37.1204 24.2956C37.1604 24.2942 37.1987 24.2918 37.2384 24.2941ZM25.5121 19.4838C25.5058 19.1557 25.1342 18.9458 25.9444 19.0401C25.9249 18.9698 25.9041 18.8995 25.8843 18.829C25.7543 18.7939 25.6269 18.7596 25.4947 18.7236C24.8305 19.4765 24.4167 18.2691 24.6865 19.0313C24.7147 19.1138 25.0447 19.1326 24.6863 19.2234C24.6867 19.2237 24.687 19.224 24.6874 19.2242C25.1259 19.2974 25.2105 19.2085 25.5121 19.4838ZM28.4083 20.1408C29.561 19.7865 27.1623 19.4007 27.4986 19.6745C27.5284 19.7026 28.5694 19.8599 28.4083 20.1408ZM20.3689 18.3186C20.8152 18.4961 20.9625 18.166 20.9577 18.0314C20.9553 17.8968 20.608 17.9092 20.5768 17.8752C20.4736 17.7658 20.7563 17.8247 20.6249 17.6786C20.5748 17.6328 19.8904 17.2203 19.8504 17.2164C19.6327 17.2155 19.7888 17.599 19.7231 17.6072C19.5068 17.6349 19.3261 17.3898 19.2147 17.5099C18.9706 17.7641 19.5575 17.6427 19.6331 17.6676C19.867 17.7494 19.7773 17.9135 19.9345 18.0182C20.0978 18.1245 20.2306 18.108 20.3848 18.1807C20.4356 18.2046 20.3465 18.3089 20.3689 18.3186ZM22.074 18.0663C21.5483 18.2026 22.5882 18.7825 22.7331 18.7605C23.1733 18.6902 22.3317 18.0009 22.074 18.0663ZM36.0367 23.4136C35.7716 23.5279 36.0334 23.6462 36.3778 23.6553C36.5771 23.6638 36.7847 23.6688 36.8896 23.6443C36.8636 23.5891 36.5987 23.4564 36.3514 23.4215C36.2063 23.4014 36.0941 23.3882 36.0367 23.4136ZM32.6844 21.8866C32.9928 22.0998 32.9469 21.4295 32.662 21.2302C32.3392 21.3522 32.5193 21.4044 32.6693 21.5436C32.8167 21.6847 32.4435 21.7349 32.6844 21.8866ZM15.9435 15.9217C16.0183 15.9653 17.3746 16.3753 16.7003 15.9296C16.6488 15.8963 15.7569 15.496 15.6711 15.5022C15.498 15.5153 15.7495 15.8102 15.9435 15.9217ZM31.1666 21.5314C31.3743 21.3214 31.5502 21.383 31.4739 21.0551C31.4737 21.055 31.4734 21.0549 31.4732 21.0549C31.9664 21.117 31.7159 21.6926 31.7936 21.7108C32.0777 21.8189 32.0318 21.3019 32.2923 21.2957C31.7672 21.1476 32.0312 20.9655 31.6258 20.7999C31.5579 20.7739 31.3028 20.8082 31.1561 20.8799C31.104 20.9019 31.0634 20.9253 31.0443 20.9486C30.9989 21.0039 31.0314 21.1473 31.0863 21.2852C31.1148 21.381 31.1451 21.4738 31.1666 21.5314ZM14.1575 15.1001C14.5338 15.3911 15.0994 15.2235 14.5432 14.8762C14.2746 14.7085 13.9241 14.9215 14.1575 15.1001ZM48.77 10.1615C48.6843 10.2584 48.5987 10.3555 48.5136 10.455C48.4505 10.288 48.3844 10.1223 48.3158 9.95812C48.3825 10.0849 48.447 10.2124 48.5105 10.3428C48.4717 10.0122 48.6191 9.81401 48.7698 10.1606C48.7698 10.1609 48.7699 10.1612 48.77 10.1615ZM40.4756 2.03084C40.3571 1.89283 39.9952 2.12361 40.0249 2.15685C40.2436 2.40238 40.6358 2.22104 40.4756 2.03084ZM36.7017 24.3242C37.0523 24.3795 36.8685 23.845 36.551 23.8279C36.7249 23.9163 36.4776 24.3088 36.7017 24.3242ZM44.4428 3.69377C44.4613 3.76133 44.4804 3.83028 44.5013 3.90196C44.3863 3.73764 44.38 3.68612 44.4428 3.69377ZM15.9396 16.4253C15.9958 16.4976 16.5318 16.8012 16.6284 16.7945C16.8283 16.7796 16.5239 16.3135 16.2336 16.2653C16.2015 16.2596 15.8834 16.3532 15.9407 16.4258C15.9403 16.4256 15.9399 16.4255 15.9396 16.4253ZM48.768 9.37122C48.7635 9.37352 48.7589 9.37428 48.7542 9.3737C48.7588 9.37308 48.7633 9.37162 48.768 9.37122ZM28.1939 0.00953221C28.1977 0.0172873 28.2 0.0250645 28.2 0.0326383C28.1983 0.0252881 28.1951 0.0176202 28.1939 0.00953221ZM19.7542 18.6877C19.7742 19.223 20.3555 19.1635 20.059 18.7937C20.0424 18.7742 19.8039 18.7091 19.7542 18.6877Z" fill="var(--stroke-0, #970606)"/>
</svg>
