<svg preserveAspectRatio="none" width="100%" height="100%" overflow="visible" style="display: block;" viewBox="0 0 24.4842 19.6372" fill="none" xmlns="http://www.w3.org/2000/svg">
<path id="Vector 79" d="M14.4795 0.0291994C15.9071 -0.0446362 17.3587 0.0202422 18.7541 0.238844C19.2841 0.320465 19.8533 0.463366 20.3761 0.674953C20.6305 0.779091 20.5566 0.90545 20.6176 0.949144C20.7783 1.06962 20.9416 0.959718 21.0429 1.0168C21.1711 1.08949 21.266 1.14386 21.3284 1.17936C22.0249 1.50116 22.2519 1.6933 22.6379 1.95287C23.1277 2.30412 22.6564 2.53772 22.777 2.7341C22.8091 2.78722 22.8359 2.8199 22.8605 2.83756C23.1349 3.03175 23.0111 2.42388 23.2971 2.48031C24.1671 3.06059 24.5027 4.30009 24.4738 4.83888C24.4012 4.69994 24.323 4.54871 24.2314 4.38542C24.2972 4.70493 24.2483 5.0599 24.0343 4.65565C24.0124 4.76067 23.9779 4.85251 23.9494 4.94512C23.9491 4.94648 23.9487 4.94785 23.9484 4.94921C24.1677 4.94775 24.2091 5.46913 24.3211 5.52402C24.4449 5.57963 24.4208 5.269 24.4288 5.2705C24.5066 5.27689 24.5018 5.61434 24.4184 5.9315C24.3393 6.25144 24.1926 6.53373 24.1723 6.56983C24.0623 6.76249 23.8755 6.5037 23.8346 6.67338C23.7593 6.9491 24.3115 6.9999 23.5151 7.05984C23.6535 7.29336 23.5405 7.2567 23.4369 7.41001C23.4231 7.43021 23.5468 7.47894 23.5444 7.4901C23.4837 7.78636 23.3852 7.47148 23.3722 7.46752C23.1664 7.37674 23.101 7.6696 23.0478 7.7065C22.7602 7.91554 22.5057 8.0664 22.2693 8.21555C21.9034 8.4815 21.5361 8.61219 21.1429 8.73814C21.0105 8.78403 20.6759 8.96342 20.492 9.00681C20.487 9.00877 20.4713 9.01162 20.4663 9.01329C20.4327 9.01976 20.4039 9.02274 20.3811 9.02182C20.2216 9.01329 20.2749 8.83818 20.1867 8.7742C20.1296 9.17835 19.9957 9.24183 19.7027 9.00878C19.6319 9.27314 19.6197 9.11003 19.4781 9.12801C19.4664 9.12972 19.4516 9.13354 19.4361 9.14005C19.2956 9.19463 19.1848 9.56673 18.9534 9.32573C19.1349 9.30908 19.0838 9.17423 19.2579 9.05846C19.2788 9.04576 19.354 9.02781 19.4723 9.00502C19.7203 8.96051 20.0514 8.85278 19.9866 8.66455C19.9388 8.51895 19.7036 8.68291 19.6902 8.65505C19.6209 8.49714 19.7408 8.28688 19.866 8.34312C19.84 8.37919 19.8073 8.41622 19.778 8.45217C20.0768 8.62434 19.7871 7.87066 20.0838 8.52079C20.122 8.59987 20.1247 8.68806 20.1832 8.76903C20.1862 8.73123 20.1184 8.64945 20.1617 8.62597C20.2043 8.60271 20.3266 8.75636 20.3116 8.60994C20.2884 8.39863 20.1199 8.51417 20.1025 8.50316C20.1025 8.50446 20.1025 8.50575 20.1026 8.50704C19.9625 8.41411 20.2169 8.36208 20.223 8.3385C20.264 8.2204 20.224 8.13886 20.2513 8.04291L20.2213 8.05049C20.2276 8.02796 20.2377 8.00434 20.2532 7.97883C20.3017 7.90048 20.4712 7.88695 20.5203 7.84851C20.569 7.81026 20.4512 7.74387 20.4812 7.71096C20.5103 7.67835 20.5803 7.73479 20.6125 7.69596C20.6261 7.67907 20.5852 7.57452 20.5918 7.56781C20.6603 7.49452 20.6917 7.73358 20.7647 7.68763C20.8187 7.65561 20.8593 7.39093 20.7363 7.37993C20.7712 7.33792 20.8023 7.30229 20.8277 7.26638C20.7889 7.25081 20.7542 7.24419 20.7127 7.22155C20.8103 7.23018 20.7334 7.0498 20.7475 7.02265C20.7588 6.99752 20.9281 7.15657 20.8715 7.05504C20.7301 6.85941 20.7444 6.99908 20.6796 6.98675C20.6648 6.97633 20.5916 6.80877 20.5883 6.80447C20.5851 6.77937 20.6724 6.87476 20.6746 6.86516C20.6761 6.85008 20.6453 6.81613 20.6058 6.78885C20.6079 6.70783 20.6048 6.62735 20.6353 6.56147C20.8471 6.12595 20.9633 5.68534 20.9541 5.51832C20.9545 5.45749 21.1466 5.45231 21.1438 5.42164C21.1343 5.35794 20.9659 5.35876 20.9545 5.32953C20.9537 5.3278 20.9532 5.32603 20.9529 5.32421C20.9275 5.13913 21.0465 5.17691 21.1473 5.26418C21.2072 5.31492 21.1554 5.48108 21.1703 5.49789C21.1882 5.51941 21.2042 5.53627 21.2155 5.54846C20.7511 5.31413 20.194 4.99329 19.9711 4.89555C19.9457 4.88418 19.9406 4.86879 19.9659 4.85794C19.8086 4.74398 19.7726 4.62324 19.7308 4.61031C19.5021 4.53768 19.4988 4.70415 19.359 4.62691C19.2887 4.58767 19.3359 4.44608 19.3283 4.43656C19.2665 4.35755 19.1793 4.53236 19.1216 4.51655C18.8066 4.4332 18.5657 4.24137 18.1994 4.16709C18.1925 4.16569 18.1884 4.15885 18.1858 4.14953C18.1765 4.12295 18.1806 4.07693 18.165 4.07798C18.074 4.08637 18.0958 4.2265 18.0035 4.22365C17.8109 4.21847 17.6199 4.17201 17.4203 4.1327C17.4008 4.12885 17.4037 4.01767 17.3577 4.0127C17.3115 4.00779 17.2662 4.10863 17.1952 4.09564C17.0098 4.06189 16.8346 3.92056 16.6355 3.89934C16.6024 3.89598 16.5524 4.02628 16.5037 4.02163C16.3498 4.00681 16.128 3.87414 15.9957 3.86488C15.5594 3.83449 15.1597 3.90949 14.767 3.92595C14.6741 3.92959 14.587 3.81045 14.5384 3.81035C14.4314 3.81056 14.5183 3.92203 14.4111 3.92979C14.0838 3.95389 13.7585 3.98658 13.5108 4.03176C12.8651 4.15766 12.2184 4.27081 11.5774 4.40317C11.1735 4.4866 10.7071 4.69971 10.3329 4.74247C10.1779 4.75989 10.1175 4.60764 10.0129 4.62872C9.83045 4.66703 9.83934 4.87702 9.68915 4.93669C9.65663 4.94998 9.62082 4.94595 9.58842 4.93334C9.52595 4.89559 9.38965 4.83349 9.29859 4.87843C9.16749 4.94298 9.17734 5.15601 9.02261 5.24869C8.89395 5.32548 8.6599 5.33157 8.51107 5.41818C8.04943 5.68704 7.58137 5.97222 7.14332 6.24868C6.65962 6.53765 6.36226 6.86696 6.43224 6.76993C5.97581 7.5203 5.71879 7.73105 5.40425 8.08856C4.9982 8.52267 4.65786 9.0269 4.29824 9.28166C4.26522 9.30452 4.11732 9.16649 4.10205 9.28723C4.09862 9.32629 4.14596 9.4001 4.18312 9.45195C4.21138 9.46102 4.21813 9.51161 4.20584 9.56155C3.93259 10.6906 3.26993 12.1712 3.04821 13.5479C2.6966 15.6641 3.69112 18.0367 1.13939 19.6146C0.99418 19.716 0.57683 19.4499 0.465198 19.3521C0.579761 19.3243 0.705162 19.3162 0.829495 19.2905C0.270016 19.0399 0.4161 19.1123 0.535603 18.876C0.606084 18.7394 0.324454 18.7909 0.273199 18.6942C0.209011 18.5655 0.0285464 18.0269 0.398497 18.209C0.337599 18.1633 0.279043 18.1204 0.219465 18.0752C0.239804 17.7187 0.216542 17.3578 0.177715 16.9939C0.17121 16.9289 0.0479123 16.902 0.0412755 16.8376C0.0221879 16.666 0.132039 16.5494 0.154742 16.3821C0.16747 16.2896 0.027524 16.2467 0.0624214 16.1274C0.0966059 16.0117 0.288585 16.0554 0.113821 15.8478C-0.150093 15.9022 0.124775 15.4679 0.145664 15.2939C0.148899 15.269 -0.0265139 15.0244 0.0209263 14.9222C0.0681309 14.8189 0.240456 14.6874 0.196469 14.5046C0.175744 14.4189 0.0164601 14.3363 0.0242994 14.2507C0.0298646 14.1904 0.195013 14.1511 0.216893 14.0776C0.238752 14.0042 0.149107 13.8168 0.153264 13.7868C0.167443 13.6782 0.248495 13.8182 0.269104 13.7462C0.366808 13.3989 0.509852 12.9986 0.512063 12.6367C0.512545 12.5918 0.37547 12.6251 0.372551 12.6184C0.281684 12.2935 0.410852 12.484 0.538985 12.4288C0.662468 12.3767 0.723089 11.8049 0.507497 11.7562C0.781956 11.7973 0.60219 11.6271 0.601199 11.5932C0.597647 11.461 0.82655 11.5362 0.780186 11.4004C0.763361 11.3508 0.586474 11.402 0.601388 11.3557C0.639032 11.2381 0.916931 11.1851 0.976519 11.0358C0.990923 11.0001 0.880871 10.9609 0.899884 10.8932C0.91924 10.8238 1.12038 10.5749 0.85287 10.6507C1.08263 10.5217 0.986795 10.4577 1.03709 10.2625C1.05074 10.2105 1.24845 10.1843 1.21724 10.0634C1.20662 10.0226 1.0311 9.98238 1.04244 9.92786C1.06988 9.79492 1.27834 9.72436 1.32658 9.55981C1.41814 9.25701 1.3628 8.91889 1.5431 8.53398C1.56617 8.48606 1.61112 8.47792 1.65889 8.47033C1.71885 8.46068 1.78292 8.45108 1.82065 8.36929C1.82858 8.34881 1.76893 8.10572 1.83265 8.01857C1.87051 7.96062 2.12306 7.74293 2.16256 7.69917C2.22804 7.62029 2.08954 7.51252 2.14863 7.48378C2.31845 7.40411 2.46228 7.65367 2.27394 7.30112C2.47034 7.35934 2.51507 7.26046 2.73156 7.37096C2.55116 7.16899 2.80403 7.25011 2.80127 7.10371C2.79849 6.95725 2.44757 6.5737 2.90497 6.87952C2.88378 6.79578 2.93331 6.54171 2.95016 6.50626C3.00105 6.40105 3.0846 6.54192 3.12036 6.46167C3.12669 6.44782 3.03501 6.39645 3.10198 6.32638C3.14732 6.2789 3.42971 5.92373 3.45486 5.91315C3.76565 5.77244 3.43821 6.10587 3.4842 6.22909C3.45356 6.22045 3.42277 6.21183 3.39209 6.2038C3.26953 6.2822 3.50322 6.36378 3.58415 6.34814C3.66569 6.33171 3.65322 6.17634 3.74503 6.18305C3.79092 6.1867 4.00589 6.36918 3.93127 6.41066C4.05097 6.39701 4.0541 6.54345 4.13892 6.56674C4.23146 6.59425 4.48405 6.30417 4.35809 6.2114C4.31256 6.26479 4.26457 6.3381 4.21605 6.39171C3.94581 6.30101 3.3818 5.52638 3.80001 5.56516C4.09181 5.58662 4.1544 5.87872 4.14668 5.53304C4.14931 5.51343 4.15229 5.49244 4.15575 5.46998C4.14336 5.48658 4.13085 5.50236 4.11836 5.51772C4.09312 5.53857 4.06115 5.55929 4.0331 5.58752C3.86346 5.48644 4.07964 5.53223 4.04967 5.48054C4.04943 5.47853 4.04905 5.47647 4.04854 5.47437C4.04613 5.46498 4.03432 5.46254 4.01748 5.46312C3.96442 5.44947 3.86581 5.43388 3.85359 5.37443C3.85445 5.37048 3.85545 5.36638 3.8566 5.36213C4.1884 5.36221 4.00028 5.10895 4.17269 4.89183C4.16487 4.98165 4.1603 5.07118 4.15998 5.16011C4.57261 4.95844 4.07914 5.7311 4.62621 5.20844C4.57661 5.27997 4.52071 5.34709 4.48174 5.42776C4.59174 5.45573 4.81125 5.68499 4.88378 5.6962C5.0686 5.73299 5.0544 5.58555 5.13387 5.52364C5.16736 5.49765 5.21011 5.57475 5.21295 5.57244C5.25814 5.53922 5.16186 5.46137 5.1934 5.41946C5.23327 5.36488 5.45355 5.33372 5.46842 5.30581C5.5088 5.22879 5.25203 5.12297 5.24524 5.10558C5.21239 4.97929 5.36189 4.98728 5.26379 4.86857C5.10914 5.09106 4.43915 5.62318 4.79901 4.88557C4.46903 4.85939 4.25566 4.5731 4.51723 4.30868C4.72822 4.10636 4.67089 4.33065 4.87605 4.36195C4.90284 4.36191 5.22851 4.22018 5.18394 4.12427C5.31034 4.33579 5.51683 4.46106 5.59861 4.71131C5.61043 4.74781 5.49788 4.80628 5.64924 4.95046C5.72532 5.02268 5.89783 5.17613 5.96195 5.2904C5.93124 5.20178 5.89606 5.10269 5.86585 5.00941C6.00297 4.8904 6.07863 4.96064 6.24771 5.05702C6.20873 4.99796 5.97738 4.78933 6.14417 4.79606C6.15325 4.79706 6.21203 4.886 6.29948 4.89685C6.33478 4.90128 6.36482 4.90543 6.3907 4.91189C6.48992 4.93638 6.52598 4.99507 6.5708 5.23178C6.57258 5.24084 6.57438 5.25015 6.57621 5.25973C6.57791 5.25659 6.57962 5.25352 6.58134 5.25051C6.75034 4.96624 6.97134 5.23399 7.18781 5.00569C6.94799 4.67711 6.89611 4.81565 6.68937 5.01717C6.63284 4.93898 6.58198 4.85879 6.52424 4.78016C6.95754 4.79111 6.78239 4.86134 6.87951 4.58925C6.90327 4.52236 7.17476 4.43933 6.96766 4.24128C6.91866 4.19461 6.76653 4.28224 6.7377 4.18395C6.73193 4.16511 6.89993 4.02299 6.92869 4.03769C7.28487 4.21684 7.01125 4.60293 7.53372 4.21216C7.54808 4.20129 7.50212 4.09328 7.52618 4.0634C7.57176 4.00736 7.63165 4.12924 7.67031 4.07581C7.70894 4.02233 7.70418 3.82224 7.85538 3.93779C8.12883 4.14916 7.86803 4.46618 7.64847 4.39312C7.76715 4.77521 8.82047 4.29717 8.86679 4.25309C9.08881 4.00218 8.65802 4.26916 8.58758 4.1808C8.55941 4.14172 8.32578 3.59125 8.35822 4.00052C8.36913 4.12121 8.57883 4.1945 8.51574 4.29135C8.45247 4.38849 8.41636 4.2122 8.4049 4.20381C8.36584 4.17503 8.29695 4.27757 8.27453 4.26043C7.92541 4.00413 7.70488 3.47483 8.31058 4.12831C8.34456 3.90372 7.96121 3.74214 8.04884 3.56058C8.15827 3.33871 8.39467 3.53488 8.41996 3.53751C8.73545 3.56427 8.2829 3.31861 8.65291 3.30749C8.85626 3.30502 8.48606 3.65481 8.87706 3.47791C9.20271 3.34079 8.98179 3.27258 8.90801 2.96424C8.88945 2.8929 9.07542 2.73852 8.79897 2.86184C8.81752 2.94213 8.83807 3.04931 8.84593 3.12666C8.76388 3.09157 8.50731 2.74955 8.466 2.75029C8.26585 2.75517 8.35591 2.94954 8.1595 2.75909C8.33663 2.98271 8.15584 2.87861 8.13576 2.95026C8.05992 3.21562 8.30088 3.19588 7.83582 3.10167C7.93476 3.19827 8.02724 3.29535 8.12281 3.39334C8.08279 3.41576 8.04308 3.43835 8.0033 3.46105C7.82567 3.22989 7.61521 3.36648 7.7003 3.01376C7.42027 3.05253 7.34777 3.15683 7.3905 3.38048C7.39869 3.42321 7.36969 3.45575 7.32935 3.47976C7.36435 3.53168 7.45773 3.69926 7.46136 3.72359C7.49279 3.93773 7.24534 3.66164 7.2164 3.52415C7.18405 3.53273 7.15728 3.5374 7.14759 3.53849C7.08594 3.5453 7.13418 3.38423 7.07301 3.36729C7.05284 3.36178 6.91688 3.45931 6.89165 3.41608C6.72979 3.13878 7.07877 3.22028 6.50298 3.30404C6.62517 3.56947 6.82185 3.39716 6.90412 3.70356C6.99379 4.03175 6.66442 3.69825 6.82505 4.07581C6.78403 4.02132 6.75374 3.97386 6.70971 3.91045C6.59932 4.16903 6.43838 3.86955 6.34307 3.83497C6.15769 3.76583 5.64005 4.07844 6.25535 4.07583C6.20052 4.13924 6.13734 4.18965 6.08167 4.2506C5.90476 3.95494 5.87846 3.88607 5.8216 3.90106C5.77611 3.91376 5.71253 3.97544 5.54207 4.03018C5.45667 4.05769 5.28781 3.84623 5.38346 4.16321C5.22627 3.89106 5.09886 4.20094 5.05751 4.18526C4.76894 4.08063 5.1243 3.43003 5.47304 3.87384C5.44896 3.63751 5.59352 3.8828 5.6689 3.7959C5.69099 3.77052 5.70849 3.74785 5.72451 3.72861C5.78413 3.65502 5.82231 3.63213 6.02812 3.71042C6.03616 3.50931 5.80647 3.6166 5.66667 3.62587C5.58589 3.63205 5.53424 3.60528 5.57703 3.46667C5.58735 3.43037 5.60422 3.38629 5.6293 3.3329C5.87112 2.89014 7.08832 1.96025 8.53741 1.3677C9.14191 1.15261 9.49337 1.06575 9.70317 1.00234C10.9395 0.647806 11.5405 0.464587 12.6215 0.249581C12.6342 0.247006 12.6568 0.241852 12.6868 0.235349C13.0167 0.15464 13.7792 0.0818052 13.6269 0.403511C13.5999 0.45458 13.1986 0.638656 13.5902 0.858735C13.4982 0.710024 13.6969 0.582612 13.7124 0.564678C14.0782 0.149428 13.8445 0.0702665 14.4795 0.0291994ZM16.1667 3.08083C15.4859 2.97718 15.9801 3.22434 15.8242 3.73569C15.9079 3.73958 15.993 3.74407 16.0773 3.74914C16.0564 3.71581 16.0357 3.68263 16.0147 3.64938C16.0147 3.64938 16.0146 3.64937 16.0145 3.64937C16.0635 3.45966 16.1145 3.27011 16.1667 3.08083ZM20.5291 7.11292C20.5173 7.04387 20.5032 6.97547 20.4884 6.90893C20.5391 6.90847 20.5831 6.90827 20.6209 6.90984C20.6418 6.95113 20.6624 6.99323 20.6819 7.03531C20.6409 7.05741 20.5889 7.08159 20.5291 7.11292ZM7.59356 4.50345C7.39191 4.39251 7.55332 4.68871 7.32921 4.62997C7.46107 4.84219 7.59202 5.04883 7.72265 5.25898C7.82079 5.16829 7.80522 5.07023 7.95767 5.06307C7.90784 4.99839 7.8573 4.93354 7.80727 4.86844C7.79379 4.89423 7.78004 4.92281 7.76643 4.94654C7.63382 4.76225 7.82382 4.63129 7.59374 4.50279C7.59368 4.50301 7.59362 4.50323 7.59356 4.50345ZM6.46355 5.21445C6.38905 5.21847 6.10036 5.25095 6.12736 5.35753C6.21512 5.71131 6.70241 5.15781 6.41991 5.69156C6.44778 5.73199 6.47124 5.77401 6.49692 5.81523C6.58196 5.78253 6.66867 5.74822 6.75823 5.71276C6.65756 5.54749 6.56563 5.38004 6.46355 5.21445ZM13.7524 3.17639C13.6694 3.16411 13.3905 3.31428 13.3896 3.47332C13.3859 3.50003 13.3907 3.52639 13.4066 3.55155C13.4138 3.56601 13.4234 3.58033 13.4359 3.5944C13.481 3.65008 13.6094 3.30459 13.6916 3.30711C13.7423 3.30868 13.7128 3.48816 13.7993 3.41168C13.7847 3.3364 13.7706 3.25267 13.7522 3.17694C13.7523 3.17676 13.7523 3.17657 13.7524 3.17639ZM13.8221 2.1493C13.7099 2.19319 13.6018 2.24702 13.4932 2.29725C13.6047 2.47957 13.7478 2.33288 13.7906 2.60838C13.7638 2.63295 13.7368 2.65759 13.71 2.68249C13.6793 2.6252 13.6486 2.56793 13.6178 2.51086C13.5447 2.67477 13.6143 2.73895 13.4379 2.72438C13.6139 3.1221 13.6449 3.34177 13.8791 2.88397C13.8535 3.11721 13.9848 3.84949 14.0811 3.30538C14.1011 3.2041 13.971 3.15112 13.9681 3.13582C13.9274 2.94372 13.9839 2.81221 13.9436 2.63092C13.925 2.54886 13.8464 2.55892 13.8202 2.4454C13.8077 2.38989 13.8676 2.22071 13.8221 2.1493ZM14.1395 3.11271C14.1192 3.23343 14.2506 3.50314 14.3397 3.43959C14.4803 3.34095 14.2274 3.09075 14.1395 3.11271ZM20.5289 7.11331C20.529 7.11318 20.5291 7.11305 20.5291 7.11292C20.5292 7.11318 20.5292 7.11344 20.5293 7.1137C20.5291 7.11357 20.529 7.11344 20.5289 7.11331ZM6.83947 5.16174C6.81614 5.28891 6.70459 5.33422 6.79015 5.46969C6.75863 5.46437 6.7272 5.45928 6.69596 5.45409C6.67839 5.45096 6.66087 5.44782 6.64343 5.44459C6.66749 5.48622 6.69191 5.52778 6.71572 5.569C6.72873 5.56564 6.74181 5.56227 6.75497 5.55889C6.85727 5.53167 6.96046 5.50509 7.06457 5.47921C6.99043 5.37307 6.91651 5.26626 6.83947 5.16174ZM5.76784 5.70706C5.66403 5.77237 5.88207 5.87388 5.92958 5.97111C5.9787 6.06642 5.85674 6.06143 5.96717 6.16505C6.01042 6.13296 6.06062 6.09797 6.11367 6.06304C5.99891 5.94468 5.88477 5.82208 5.76764 5.70722C5.76771 5.70716 5.76777 5.70711 5.76784 5.70706ZM18.8444 3.56578C18.773 3.50025 18.8422 3.34425 18.6304 3.4984C18.6305 3.49842 18.6306 3.49845 18.6308 3.49848C18.7695 3.66514 18.922 3.82897 19.1231 3.75637C19.0751 3.55699 18.956 3.66965 18.8444 3.56578ZM8.12904 4.78829C8.11139 4.65085 7.88321 4.63808 7.89674 4.76772C7.91969 4.97656 8.15669 4.99613 8.12904 4.78829ZM22.7862 4.51608C23.0033 4.52182 23.2024 4.43042 23.2797 4.25012C23.3606 4.07712 23.2876 3.79865 23.0415 3.67367C23.0074 3.65404 23.0958 3.97612 22.9752 3.94976C22.9657 3.9469 22.8739 3.81728 22.8058 3.83006C22.7397 3.8426 22.6695 3.95828 22.5936 3.95963C22.472 3.96557 22.4168 3.71471 22.2931 3.77262C22.2906 3.77395 22.2882 3.77542 22.2857 3.77704C22.2833 3.77861 22.2814 3.78482 22.28 3.79425C22.2753 3.84785 22.2716 3.99785 22.2713 4.00524C22.2918 4.14835 22.5167 4.05199 22.5352 4.06932C22.6068 4.13546 22.457 4.2404 22.4373 4.28229C22.3982 4.35942 22.4974 4.36496 22.4957 4.37373C22.4222 4.55023 22.3238 4.3174 22.25 4.34585C22.0717 4.41625 22.0027 4.56652 21.8467 4.57312C21.8423 4.57338 21.8298 4.56624 21.8138 4.56239C21.7553 4.53839 21.6897 4.52819 21.752 4.66429C21.7521 4.68815 21.7525 4.71669 21.7486 4.7484C21.7213 4.76173 21.6975 4.77545 21.6766 4.78864C21.4241 4.79652 21.4521 4.871 21.5773 4.95224C21.6088 4.98208 21.6333 4.90328 21.691 4.89657C21.733 4.88389 21.874 4.78535 21.9452 4.7546C22.1131 4.69053 22.1762 4.76117 22.4057 4.66777C22.8869 4.45947 22.5019 4.42706 22.5152 4.30339C22.615 4.24815 22.7087 4.18884 22.8172 4.15179C22.681 4.20295 22.7627 4.51505 22.7852 4.51645C22.7855 4.51632 22.7858 4.5162 22.7862 4.51608ZM20.9714 3.81669C20.8965 3.5974 20.7539 3.89478 20.707 3.65963C20.4615 3.86816 20.693 3.9614 20.7131 3.99203C20.8007 4.12298 20.6428 4.40374 20.815 4.38574C20.8644 4.19523 20.9221 4.00726 20.9714 3.81669ZM22.0013 4.60497C21.851 4.6873 21.896 4.73383 21.8688 4.75285C21.7343 4.85587 21.6753 4.89008 21.6956 4.86466C21.7188 4.84251 21.7723 4.70478 22.0013 4.60497ZM13.0092 2.64059C12.9472 2.64233 13.0184 2.79054 12.9759 2.84793C12.9337 2.9057 12.7261 2.8098 12.7513 2.90611C12.776 3.00285 13.1597 3.18575 12.8402 3.31066C12.8629 3.36305 12.8677 3.40468 12.8836 3.45301C12.9756 3.43508 13.0667 3.41822 13.159 3.39993C13.0748 3.25328 12.9884 3.09849 12.9086 2.95632C12.9324 2.82023 12.9953 2.97488 12.998 2.9743C12.998 2.97413 12.998 2.97397 12.9979 2.9738C13.0914 2.94066 13.1459 2.63686 13.0092 2.64059ZM17.5616 3.05099C17.6233 2.65512 17.4367 3.08426 17.3769 3.12807C17.3168 3.17149 17.2546 3.01654 17.2665 3.19076C17.3437 3.31755 17.5545 3.09501 17.5616 3.05048C17.5616 3.05065 17.5616 3.05082 17.5616 3.05099ZM20.1474 3.4396C19.9683 3.46847 19.9477 3.57215 19.8341 3.39429C19.8023 3.48591 19.7696 3.57942 19.7382 3.66958C19.8639 3.72567 19.9651 3.46424 20.0812 3.63678C20.1015 3.66559 19.9529 3.84674 20.1087 3.83368C20.1166 3.70739 20.1321 3.56968 20.1474 3.4396ZM19.3758 3.50901C19.5117 3.54355 19.9202 2.86176 19.52 3.08849C19.4601 3.12309 19.2709 3.48367 19.3758 3.50901ZM14.5115 2.42093C14.2283 2.41514 14.5573 2.52147 14.6338 2.63914C13.9931 2.77204 14.7079 2.59972 14.7851 3.00041C14.8581 2.88368 15.0001 2.61931 14.8327 2.55431C14.7619 2.52763 14.7916 2.6459 14.7874 2.64553C14.6607 2.62083 14.6663 2.42526 14.5115 2.42093ZM21.2403 3.94423C21.2282 3.94413 21.1758 4.06974 21.1334 4.0768C21.0911 4.0836 21.0712 3.96408 21.0244 4.03295C20.9774 4.10217 21.0768 4.23216 21.1475 4.20268C21.2184 4.17259 21.3498 3.94668 21.2403 3.94423ZM20.4353 3.17722C20.2563 3.20909 20.3028 3.76629 20.3483 3.77944C20.3536 3.78098 20.3588 3.78233 20.3638 3.78351C20.4387 3.79073 20.4663 3.65963 20.4653 3.50969C20.4358 3.37907 20.4058 3.23986 20.4353 3.17722ZM15.1624 1.55486C14.806 1.81342 15.0823 2.24693 15.2934 2.50962C15.3217 2.45605 15.3507 2.40249 15.3787 2.34955C15.2486 2.67502 15.0306 2.99496 15.5233 2.71358C15.2525 2.63512 15.4798 2.54926 15.4826 2.53101C15.5184 1.93315 15.103 2.21112 15.1627 1.55486C15.1626 1.55486 15.1625 1.55486 15.1624 1.55486ZM21.566 4.29807C21.6425 4.3419 21.8097 4.39927 21.9288 4.37302C21.99 4.34321 22.0521 4.28844 22.0595 4.16814C22.0567 4.16917 22.054 4.17021 22.0512 4.17125C21.8885 4.21222 21.7268 4.25454 21.566 4.29807ZM9.423 2.52327C9.2644 2.40671 9.14757 2.4361 8.98516 2.49007C9.18668 2.66058 9.09731 2.7098 9.06325 2.77397C9.0131 2.87024 9.18353 2.81755 9.18784 2.83206C9.23437 3.03294 9.13859 3.08862 9.37741 3.02512C9.33538 3.10881 9.29325 3.19364 9.25403 3.2775C9.43456 3.24073 9.50917 3.36246 9.65794 3.49672C9.46046 3.13065 9.65898 3.34236 9.75215 3.11868C9.79909 3.00653 9.50608 2.58226 9.42253 2.52338C9.42268 2.52334 9.42284 2.5233 9.423 2.52327ZM14.7865 1.48228C14.7511 1.55564 14.7207 1.65444 14.6886 1.73826C14.6507 1.74762 14.611 1.75624 14.5729 1.76591C14.5651 1.70239 14.5579 1.63591 14.5493 1.57489C14.4969 1.55887 14.5215 1.64664 14.5067 1.65574C14.5067 1.6554 14.5067 1.65505 14.5067 1.65471C14.2931 1.78424 14.2062 1.77763 14.0152 1.59618C14.0327 1.79092 14.0502 1.98567 14.0677 2.18041C14.1042 2.15841 14.1389 2.13723 14.1752 2.11612C14.1868 2.00979 14.1992 1.90339 14.2119 1.79708C14.2601 1.85159 14.3077 1.90597 14.3558 1.96095C14.3886 1.92097 14.4279 1.87881 14.4567 1.84034C14.6612 2.37614 14.2451 2.02824 14.2585 2.25609C14.2669 2.40035 14.6522 2.37119 14.7057 2.26985C14.7136 2.25485 14.6117 1.85139 14.7648 2.05784C14.79 2.09051 14.823 2.96968 14.9568 2.25329C14.9769 2.15171 14.8868 1.60643 14.7865 1.48228ZM13.223 1.3428C13.4264 1.65417 13.1468 1.61477 12.9902 1.63321C12.9009 1.64167 12.8616 1.66754 13.0289 1.81119C13.0315 1.81332 13.0342 1.81547 13.0369 1.81765C13.0359 1.82334 13.0349 1.8289 13.0339 1.83434C12.9967 2.06807 13.0094 2.08739 13.1213 2.23731C13.1326 2.25263 13.1448 2.26935 13.158 2.28783C13.1643 2.2968 13.1547 2.32148 13.1448 2.34523C13.1336 2.37015 13.1213 2.39406 13.1253 2.39791C13.1377 2.40853 13.1499 2.4171 13.1619 2.42418C13.2609 2.48707 13.3425 2.43887 13.3802 2.64206C13.4021 2.62559 13.4224 2.61092 13.444 2.59477C13.3062 2.39852 13.4425 2.22634 13.4829 2.0355C13.5011 1.94882 13.4267 1.93429 13.4415 1.85858C13.4469 1.83075 13.5554 1.86841 13.5484 1.79281C13.5338 1.62143 13.4371 1.39973 13.3032 1.29278C13.3031 1.29261 13.3031 1.29244 13.3031 1.29227C13.2755 1.30812 13.2496 1.32628 13.223 1.3428ZM18.1762 1.85273C18.1746 2.16666 18.3111 2.27415 18.0038 2.38773C18.0104 2.45038 18.0171 2.51254 18.0234 2.57518C18.0721 2.57601 18.1195 2.57686 18.1694 2.57863C18.3036 2.1371 18.4059 2.1777 18.4621 2.24847C18.5194 2.32037 18.5312 2.42298 18.4895 2.0857C18.489 2.08207 18.4882 2.07877 18.4872 2.07576C18.4682 2.01839 18.3585 2.0656 18.495 1.90086C18.4948 1.90066 18.4947 1.90047 18.4946 1.90028C18.3233 1.9353 18.2898 2.04217 18.1762 1.85273ZM17.067 1.95104C16.6446 2.57202 17.5421 2.36066 17.4151 2.17585C17.4026 2.15801 17.0115 2.26355 17.067 1.95104ZM20.2568 2.00728C20.0905 1.92756 19.952 2.25488 19.9233 2.37979C19.8933 2.50473 20.0518 2.42891 20.0585 2.4536C20.0793 2.53369 19.9659 2.53473 19.9906 2.64289C20.0003 2.67768 20.2168 2.90761 20.2348 2.89921C20.336 2.85095 20.3532 2.54054 20.3858 2.51828C20.4925 2.44535 20.5162 2.62063 20.5943 2.48521C20.7612 2.19679 20.4726 2.45112 20.4417 2.44366C20.3539 2.42275 20.4352 2.25493 20.3867 2.19342C20.338 2.13204 20.2702 2.17267 20.2175 2.13667C20.1997 2.12458 20.2649 2.01188 20.2568 2.00728ZM19.4539 2.5095C19.7103 2.30845 19.3616 1.89737 19.2865 1.94719C19.0925 2.08967 19.3445 2.6056 19.4539 2.5095ZM13.9226 2.10559C14.0658 1.89594 13.669 1.77846 13.5685 1.87328C13.6021 1.94917 13.8761 2.17659 13.9226 2.10559ZM15.2619 1.5552C15.1121 1.61658 15.3146 2.05176 15.4339 2.04582C15.5081 1.75918 15.4393 1.81543 15.3588 1.80353C15.278 1.79165 15.3798 1.50788 15.2619 1.5552ZM21.8203 3.09986C21.7941 3.07778 21.2263 3.03476 21.4383 3.26473C21.4546 3.28126 21.7864 3.42239 21.8319 3.39852C21.9242 3.34886 21.8863 3.15231 21.8203 3.09986ZM15.9973 1.14224C15.9079 1.38777 15.8313 1.38244 15.8954 1.67602C15.8955 1.67602 15.8956 1.67602 15.8957 1.67603C15.6937 1.75977 15.6972 1.16384 15.6518 1.17566C15.4965 1.21816 15.636 1.64486 15.5397 1.78309C15.7611 1.65513 15.6925 1.94051 15.8574 1.96281C15.8935 1.96759 16.048 1.80172 16.0744 1.69624C16.1006 1.59056 16.0354 1.26828 15.9973 1.14224ZM22.4803 3.41788C22.38 3.24588 22.0378 3.51058 22.2099 3.68829C22.2446 3.72428 22.3058 3.70225 22.3631 3.65734C22.4365 3.60506 22.5046 3.51892 22.4896 3.44883C22.4887 3.43758 22.4857 3.42714 22.4803 3.41788ZM5.53062 4.11973C5.60977 4.1951 5.68834 4.27046 5.76697 4.34531C5.72411 4.40063 5.68138 4.45731 5.64026 4.51396C5.66595 4.45832 5.69295 4.40308 5.72091 4.34778C5.59713 4.37982 5.44385 4.2495 5.53034 4.11991C5.53043 4.11985 5.53053 4.11979 5.53062 4.11973ZM2.55147 7.44079C2.43489 7.43104 2.6347 7.69931 2.66345 7.70046C2.87318 7.7146 2.71162 7.45642 2.55147 7.44079ZM13.5668 1.18429C13.3401 1.17047 13.565 1.65551 13.6925 1.67532C13.6022 1.58786 13.6919 1.19386 13.5668 1.18429ZM3.4842 6.22909C3.52987 6.24193 3.57556 6.25472 3.62243 6.26606C3.53626 6.2777 3.49679 6.26145 3.4842 6.22909ZM21.9717 2.66589C21.9644 2.6162 21.7743 2.47289 21.7219 2.50014C21.6155 2.55843 21.6399 2.89347 21.7734 2.86933C21.7884 2.86696 21.9793 2.7154 21.9712 2.66564C21.9714 2.66573 21.9715 2.66581 21.9717 2.66589ZM5.17671 4.11241C5.17975 4.11628 5.18216 4.12029 5.18394 4.12427C5.18163 4.12032 5.17896 4.11643 5.17671 4.11241ZM0.484278 11.7529C0.492294 11.7534 0.500133 11.7545 0.507497 11.7562C0.500139 11.7551 0.492303 11.7544 0.484278 11.7529ZM20.6293 1.54856C20.7464 1.06785 20.4551 1.22895 20.5107 1.51249C20.5138 1.52743 20.6119 1.53999 20.6293 1.54856Z" fill="var(--stroke-0, #970606)"/>
</svg>
