<svg preserveAspectRatio="none" width="100%" height="100%" overflow="visible" style="display: block;" viewBox="0 0 98.9603 72.4734" fill="none" xmlns="http://www.w3.org/2000/svg">
<path id="Vector 87" opacity="0.55" d="M75.8858 56.0612L65.6485 46.149L61.7486 68.5734L53.7863 72.4734L42.574 68.5734L44.3615 44.199L28.7618 59.7986L22.7495 63.861L15.4372 65.3235L8.12482 56.7112L5.36238 48.9114L13.4872 36.7242L5.36238 37.6991L2.27495 32.3368L0.162496 28.1119L0 23.0745L9.74978 16.0871L18.3621 13.9747L20.962 7.79982L24.6994 4.71239L37.3742 3.08743L45.3365 4.71239L53.7863 12.5122L60.4486 3.08743L72.7983 0L83.8481 3.08743L88.723 7.31233L89.5355 11.6997L86.6105 14.6247V17.3871L96.1978 22.7495L98.9603 27.6244L97.3353 35.2617L95.3853 43.0615L98.1478 50.5364L94.8979 58.8237L90.1855 61.0986L75.8858 56.0612Z" fill="var(--fill-0, #EC5B13)"/>
</svg>
