<svg preserveAspectRatio="none" width="100%" height="100%" overflow="visible" style="display: block;" viewBox="0 0 40.2489 25.6563" fill="none" xmlns="http://www.w3.org/2000/svg">
<path id="Vector 76" d="M38.8758 16.8855C38.7041 17.2768 38.5258 17.6493 38.3463 18.0134C37.1104 20.1738 35.3463 20.24 34.7955 20.624C33.3032 21.4034 31.3499 21.5268 30.5123 21.6828C29.6029 21.867 28.6959 21.9856 27.8465 22.0644C27.4072 22.1049 27.4239 21.9598 27.3009 21.9549C26.9676 21.9401 26.7943 22.1267 26.5669 22.1411C26.4104 22.1511 26.2594 22.1621 26.1145 22.1747C24.8394 22.262 24.0453 22.2307 23.037 22.2344C21.87 22.2281 22.4009 21.7663 21.9928 21.6769C21.1928 21.5037 21.8921 22.0451 21.5868 22.1881C20.6833 22.1963 19.7746 22.1845 18.8743 22.1849C19.0893 22.1161 19.3055 22.0492 19.5237 21.9856C19.1315 21.9986 18.5643 21.9498 19.2108 21.7554C19.0621 21.724 18.9243 21.6851 18.7713 21.6556C18.7452 21.866 18.0535 21.9351 18.0006 22.0642C17.9475 22.1925 18.3335 22.1334 18.3319 22.1446C18.3215 22.2569 17.4748 22.2436 16.967 22.2344C16.7747 22.2303 16.6344 22.2257 16.6022 22.2243C16.3012 22.2105 16.5339 21.925 16.2811 21.9698C15.8472 22.0497 16.2065 22.534 15.529 21.9176C15.3281 22.1753 15.2915 22.0608 14.9975 22.0911C14.9585 22.0953 15.0094 22.2205 14.993 22.2266C14.5726 22.3955 14.8672 22.0982 14.863 22.0854C14.786 21.8685 14.3296 22.0519 14.2274 22.052C12.9924 22.0449 12.0514 22.1219 10.9205 22.6702L10.9601 22.6445C10.9163 22.6732 10.8728 22.702 10.8285 22.7315C10.5762 22.8986 9.89534 23.5212 9.6406 23.6681C9.38851 23.8123 9.4131 23.5897 9.24572 23.6193C9.29038 24.0766 9.13481 24.2497 8.54745 24.3794C8.56196 24.7285 8.44203 24.5308 8.16994 24.8143C8.13676 24.8488 8.10309 24.8918 8.06893 24.9394C7.85145 25.2095 7.83663 25.5626 7.45458 25.6563C7.70771 25.3783 7.56265 25.3102 7.79135 24.9822C7.80918 24.9589 7.86582 24.9065 7.97061 24.8197C8.34552 24.4954 9.08006 23.8617 8.86682 23.7371C8.72512 23.6543 8.39172 24.088 8.35868 24.0784C8.16464 24.0226 8.27559 23.6829 8.52596 23.5786C8.49426 23.6446 8.45242 23.719 8.41709 23.7879C9.00676 23.5905 8.20983 23.2163 8.9808 23.4868C9.07575 23.5198 9.1119 23.6023 9.23814 23.618C9.23061 23.5774 9.08674 23.5722 9.15295 23.501C9.22058 23.4286 9.47364 23.4542 9.40699 23.3212C9.31172 23.1263 9.03903 23.4392 9.00775 23.4477C9.00827 23.449 9.00879 23.4502 9.00931 23.4514C8.72601 23.5259 9.16647 23.1729 9.17585 23.1409C9.23477 22.9298 9.07811 22.9204 9.22164 22.6746C9.30361 22.5343 9.63173 22.3344 9.73302 22.2342C9.83364 22.1337 9.59791 22.1836 9.66098 22.1098C9.72405 22.036 9.86374 22.0276 9.93837 21.9414C9.96981 21.9045 9.90135 21.8156 9.91753 21.7988C10.0905 21.6179 10.099 21.9013 10.2702 21.7581C10.2778 21.7518 10.2861 21.7438 10.2948 21.7344C10.3084 21.7255 10.348 21.6979 10.3624 21.6906C10.5039 21.5686 10.8093 21.1963 10.4753 21.301C10.6224 21.1977 10.7725 21.1053 10.9262 21.0151C10.8103 21.0317 10.6953 21.0619 10.5786 21.0766C10.9045 20.9741 10.9656 20.7396 11.158 20.6426C11.3515 20.5467 11.6085 20.6946 11.786 20.5128C12.1738 20.1207 11.0526 20.6393 10.8961 20.6821C10.8327 20.6917 10.9757 20.4312 11.0081 20.4127C11.1499 20.3279 11.3733 20.3791 11.486 20.331C11.8869 20.1603 12.0908 19.9179 12.4787 19.7729C13.8027 19.2791 15.4235 18.9727 16.6401 18.8203C16.6405 18.8202 16.6409 18.8202 16.6413 18.8201C17.0888 18.7637 17.3738 18.9322 17.5736 18.91C18.0405 18.8591 18.0854 18.6885 18.4932 18.6498C19.1011 18.5917 19.962 18.6859 20.4682 18.6908C20.8171 18.6937 21.1249 18.517 21.2161 18.5087C22.4696 18.3882 24.0108 18.3422 24.9846 18.2859C25.3597 18.2638 25.5478 18.3685 25.5998 18.4011C25.6283 18.4055 25.6516 18.407 25.67 18.4036C26.1268 18.3221 25.9857 18.1843 26.3474 18.1581C26.5405 18.1448 26.5913 18.2892 26.6174 18.2921C26.8449 18.3163 26.8666 18.1182 27.0355 18.0929C27.9728 17.9529 28.8354 17.9546 29.7029 17.798C29.7387 17.7913 29.7743 17.7848 29.8095 17.7784C29.8979 17.7628 29.9056 17.8493 29.9604 17.8347C30.1919 17.773 30.0629 17.6568 30.2999 17.6101C30.7872 17.5168 31.2061 17.495 31.5803 17.4463C31.6174 17.4414 31.6535 17.5478 31.737 17.532C31.8196 17.5159 31.8604 17.4008 31.9825 17.3785C32.2995 17.3199 32.631 17.3456 32.9506 17.2151C33.0006 17.1944 33.0107 17.059 33.0763 17.0149C33.083 17.011 33.0899 17.0074 33.0971 17.0041C33.5244 16.8065 34.0708 16.7321 34.2957 16.6376C34.5563 16.532 34.7386 16.4268 34.8192 16.355C34.9032 16.2797 34.8759 16.2708 34.8652 16.2729C34.9857 16.0085 35.1016 15.7515 35.2156 15.5019C35.2987 15.321 35.4798 15.2127 35.5212 15.121C35.6124 14.9158 35.4415 15.0273 35.5226 14.8207C35.7568 14.2167 35.9055 13.6504 36.0119 12.9769C36.2346 11.6277 36.5297 10.0107 36.3685 9.67096C36.3622 9.6525 36.356 9.64629 36.3533 9.64947C35.9794 8.99376 35.4868 8.27642 35.169 7.64038C35.0172 7.33575 35.1284 7.20325 35.0127 6.99098C34.8054 6.61217 34.5862 6.64432 34.3462 6.25118C34.2918 6.16171 34.2509 6.05947 34.2161 5.95155C34.1202 5.66429 34.0766 5.35748 33.9492 5.14342C33.7723 4.84957 33.5268 4.82228 33.3399 4.58899C33.2082 4.42632 33.106 4.20104 32.9566 4.04915C32.918 4.01072 32.8823 3.97745 32.8488 3.94964C32.2328 3.36259 30.9783 3.25958 29.4398 3.23286C27.5506 3.21047 25.6754 3.15382 23.7979 3.08136C22.8524 3.04596 21.8233 3.07148 20.881 3.05776C20.5754 3.05526 20.2737 3.04686 19.9769 3.02887C19.8577 3.02193 20.0198 2.81014 19.6469 2.88933C19.4474 2.93286 19.185 3.12838 18.7334 3.19799C17.5795 3.37191 16.4989 3.56496 15.249 3.85447C13.5567 4.21041 12.0255 4.62106 10.6042 5.37048C9.72856 5.82865 8.91218 6.41635 8.1422 7.05585C6.93745 8.043 5.76283 9.04111 4.55188 9.88021C3.94568 10.3009 3.33355 10.6793 2.71808 10.9978C2.41049 11.1573 2.10519 11.2994 1.80951 11.4228C1.66546 11.4814 1.5197 11.5393 1.39652 11.5776C1.33627 11.5952 1.27852 11.6116 1.23939 11.6081C1.20266 11.594 1.1723 11.616 1.23499 11.4105C1.0514 11.5704 0.869098 11.715 0.680076 11.8762C0.52651 12.0297 0.0986328 11.7724 0 11.6288C0.125212 11.5636 0.265582 11.5185 0.405457 11.4645C-0.0301112 11.1822 -0.0033136 11.1824 0.163421 10.9365C0.182887 10.9172 0.22451 10.8739 0.27522 10.8267C0.490861 10.6357 0.14257 10.6327 0.205631 10.4599C0.283219 10.2238 0.913832 9.33346 1.00846 9.7751C1.01523 9.68082 1.01885 9.5931 1.02742 9.49996C1.58475 8.99072 2.11462 8.48727 2.64407 7.97269C2.73629 7.88316 2.6693 7.77601 2.76335 7.68558C3.02157 7.43793 3.29307 7.35078 3.58506 7.13452C3.73992 7.01985 3.68423 6.88116 3.89864 6.746C4.11597 6.60917 4.22097 6.77569 4.3906 6.4021C4.06448 6.32441 5.00407 5.90509 5.29523 5.69237C5.3384 5.66099 5.5698 5.23903 5.77562 5.13251C5.97437 5.0294 6.33077 4.95618 6.58253 4.705C6.58798 4.69964 6.59338 4.69421 6.59874 4.68871C6.72282 4.56138 6.71367 4.36104 6.86749 4.25094C6.97585 4.17358 7.18875 4.22105 7.3345 4.13891C7.47694 4.05791 7.723 3.76472 7.77846 3.73053C7.98186 3.60253 7.80745 3.82873 7.95156 3.75148C8.64282 3.3787 9.47835 3.01404 10.1574 2.63108C10.241 2.58395 10.0683 2.52196 10.0782 2.51292C10.6117 2.10593 10.3614 2.39885 10.567 2.43354C10.7636 2.45974 11.8922 1.96122 11.8327 1.75539C11.9604 2.00352 12.1508 1.7131 12.2175 1.68238C12.4719 1.56399 12.4957 1.8085 12.7285 1.65605C12.8148 1.60037 12.5815 1.50442 12.6849 1.47661C12.9404 1.40828 13.2407 1.58894 13.5778 1.51926C13.6592 1.50265 13.6531 1.38374 13.796 1.34775C13.9409 1.31075 14.5599 1.28901 14.2273 1.12643C14.3466 1.15417 14.436 1.16234 14.5086 1.15852C14.6866 1.14786 14.793 1.06417 15.088 0.988547C15.195 0.961606 15.3791 1.10539 15.5935 0.990882C15.6663 0.95212 15.6197 0.778058 15.7377 0.747245C16.0084 0.676543 16.3062 0.798059 16.6533 0.733094C17.3022 0.612011 17.9776 0.370637 18.6599 0.332028C18.8462 0.321835 18.8203 0.5069 19.0879 0.479511C19.1252 0.474994 19.4292 0.284161 19.6152 0.280998C19.7278 0.27771 20.3072 0.336582 20.4239 0.337046C20.5587 0.33639 20.6094 0.246285 20.6663 0.204015C20.689 0.187024 20.7129 0.177818 20.7441 0.185434C21.0619 0.262851 20.826 0.535841 21.1758 0.161966C21.3061 0.350271 21.5193 0.32054 21.5975 0.558085C21.7108 0.289229 21.8815 0.53574 22.1154 0.43992C22.3507 0.344006 22.5362 -0.170979 22.6059 0.377055C22.7164 0.30727 23.1883 0.185286 23.2683 0.176311C23.5045 0.149926 23.3792 0.303369 23.5568 0.281058C23.5879 0.277375 23.5551 0.173564 23.7552 0.182333C23.8877 0.187029 24.8504 0.19306 24.9078 0.208509C25.5619 0.374472 24.5504 0.309598 24.4086 0.423109C24.3836 0.393571 24.3588 0.363943 24.3321 0.334772C24.0422 0.286197 24.2082 0.520645 24.3389 0.574999C24.4698 0.629298 24.7147 0.525073 24.8234 0.602593C24.8775 0.641512 24.8428 0.922807 24.6794 0.88842C24.8541 0.975559 24.6151 1.06654 24.684 1.14819C24.76 1.23704 25.5434 1.26938 25.5493 1.11483C25.4025 1.1081 25.2202 1.11213 25.0719 1.10497C24.878 0.834439 25.4769 -0.0837826 26.0168 0.290793C26.4072 0.562054 25.7562 0.764387 26.6888 0.554508C26.5463 0.541463 26.4252 0.514513 26.2957 0.501456C26.2842 0.299086 26.4929 0.524304 26.602 0.461682C26.6547 0.431014 26.3352 0.28305 26.6152 0.23961C26.8518 0.53245 27.0405 0.244608 27.4442 0.248878C27.3318 0.29828 27.2174 0.347462 27.1053 0.397038C27.781 0.619042 26.2014 0.659413 27.5203 0.801074C27.3623 0.807292 27.2029 0.801835 27.0434 0.81327C27.119 0.920705 26.9895 1.22989 27.0577 1.29689C27.2347 1.47272 27.5067 1.37375 27.727 1.39347C27.823 1.40183 27.7618 1.48467 27.7697 1.48532C27.9032 1.49742 27.8763 1.37358 27.9923 1.3682C28.1402 1.36148 28.5583 1.49084 28.6285 1.47888C28.8076 1.4482 28.5155 1.19808 28.5339 1.18036C28.6514 1.06522 28.8781 1.16833 28.8708 1.01403C28.3107 1.10584 26.7101 0.93741 28.1677 0.712824C27.7725 0.455325 27.8947 0.11428 28.4729 0.100313C28.9508 0.0888057 28.6386 0.219109 28.8837 0.376189C28.9097 0.39212 29.3327 0.452794 29.5088 0.41879C29.5528 0.410897 29.5824 0.397904 29.5895 0.377815C29.5575 0.623123 29.7611 0.847599 29.6125 1.09717C29.6029 1.11351 29.5453 1.11811 29.4912 1.13672C29.4271 1.15996 29.3678 1.20445 29.4155 1.31896C29.4311 1.35676 29.4574 1.41086 29.483 1.47066C29.5295 1.57494 29.5731 1.69671 29.5576 1.77931C29.6129 1.69001 29.671 1.58964 29.7273 1.49686C30.1149 1.48567 30.1647 1.58886 30.3593 1.77188C30.3555 1.7008 30.1802 1.38986 30.4707 1.50205C30.4861 1.50883 30.4873 1.61525 30.633 1.68142C30.919 1.81538 30.9728 1.85658 30.7177 2.14388C31.3329 2.03453 31.4108 2.39526 31.9743 2.42665C31.9687 2.01137 31.7343 2.04419 31.1724 2.04063C31.1622 1.9425 31.164 1.84706 31.1517 1.74778C31.8706 2.07915 31.4917 1.99578 31.9506 1.89313C32.0667 1.86409 32.5764 2.07595 32.4838 1.76326C32.4641 1.68658 32.1113 1.59645 32.1773 1.51154C32.1896 1.49102 32.6339 1.5711 32.6614 1.61321C32.8394 1.84822 32.6929 1.94115 32.6763 2.02107C32.6541 2.10971 32.7615 2.13243 33.3074 2.39337C33.3371 2.40854 33.4111 2.31639 33.4769 2.34174C33.5997 2.39081 33.5197 2.50116 33.6271 2.54503C33.7334 2.58856 33.9801 2.55996 33.9981 2.80755C34.0191 3.25125 33.3676 2.86314 33.2269 2.59512C33.0997 2.7209 33.3006 2.95787 33.6194 3.34347C33.9774 3.75904 34.3466 4.38107 34.409 4.45111C34.8525 4.92278 34.2569 4.05786 34.3152 3.97283C34.343 3.93185 34.8404 3.59171 34.3696 3.6074C34.2349 3.61808 34.2947 3.95493 34.1361 3.84557C33.9789 3.74218 34.1596 3.69096 34.1616 3.67287C34.1673 3.60982 33.9935 3.50417 33.9956 3.4706C34.0004 2.92669 34.4556 2.55338 34.1807 3.52486C34.4817 3.59038 34.3564 2.96247 34.6553 3.11784C35.0316 3.32806 34.9586 3.73376 34.9726 3.77661C35.1504 4.3507 35.1498 3.56279 35.399 4.25574C35.53 4.64195 34.8798 3.85817 35.3404 4.64812C35.725 5.32018 35.6501 4.88608 35.9537 4.78665C36.0249 4.7635 36.3037 5.09065 36.0037 4.60147C35.9237 4.62582 35.814 4.64972 35.73 4.65295C35.7165 4.50044 35.9652 4.0964 35.9398 4.02075C35.8147 3.65433 35.6387 3.77912 35.7348 3.45203C35.5858 3.73553 35.5891 3.42071 35.4839 3.36684C35.0904 3.17388 35.3365 3.6247 35.0364 2.78488C35.0089 2.95332 34.9691 3.10797 34.9261 3.2653C34.8655 3.19078 34.803 3.11792 34.7387 3.0469C34.8734 2.75621 34.4577 2.37224 35.0115 2.54755C34.9044 2.3903 34.8014 2.27202 34.7064 2.18615C34.5108 2.00942 34.3424 1.96661 34.1767 2.02782C34.1309 2.04452 34.0526 2.00143 33.9665 1.9417C33.9454 2.00344 33.8479 2.17 33.8213 2.1792C33.5935 2.26274 33.6163 1.853 33.7508 1.77813C33.6929 1.73233 33.6464 1.69524 33.6306 1.68182C33.5274 1.59507 33.8153 1.62521 33.7446 1.53279C33.7216 1.49738 33.3691 1.33844 33.384 1.29436C33.4722 0.999055 33.9934 1.43032 32.8434 0.780372C32.7268 1.04263 33.2896 1.19041 33.0318 1.42397C32.773 1.67445 32.633 1.15645 32.4482 1.5295C32.4448 1.4582 32.4504 1.40136 32.4512 1.32183C31.9613 1.37068 32.0306 1.04914 31.903 0.943529C31.6462 0.728121 30.3774 0.598252 31.4701 1.03942C31.301 1.04276 31.1301 1.03413 30.9677 1.04216C30.9981 0.434636 31.071 0.670874 30.2763 0.520107C30.1005 0.488742 30.0563 0.217598 29.8678 0.528815C29.8896 0.327447 29.6809 0.326098 29.5107 0.342458C29.425 0.351481 29.3495 0.364699 29.3329 0.350828C29.21 0.246928 29.3317 0.132846 29.5173 0.0719169C29.8063 -0.01731 30.2625 0.0200881 30.3293 0.35357C30.5431 0.152307 30.5213 0.435869 30.7468 0.417793C31.0704 0.394662 31.1309 0.343698 31.4838 0.606882C31.909 0.354286 30.0092 0.304707 31.1938 0.0397395C31.463 -0.0121886 32.0131 -0.0351579 32.7885 0.111606C33.5307 0.217229 34.7326 0.787736 35.4163 1.43038C36.4643 2.31027 37.0587 3.5011 37.4794 4.17081C37.9756 4.98454 38.4032 5.68882 38.6196 6.04818C39.0329 6.7323 39.3873 7.32451 39.7089 7.88384C40.41 9.2945 40.2387 10.2323 40.2092 11.0241C40.1414 11.8188 40.0166 12.5233 39.8926 13.3016C39.8861 13.342 39.8736 13.4288 39.8562 13.5426C39.7875 14.1533 39.3991 15.4752 39.2217 15.0459C39.1985 14.9676 39.275 14.0956 38.8378 14.7501C39.0303 14.6432 39.0165 15.0948 39.0195 15.1361C39.1184 16.0579 39.3799 15.6674 38.8758 16.8855ZM34.3399 17.4754C35.0148 17.241 35.0087 17.1705 34.9348 17.0891C34.8483 17.0086 34.6374 16.9038 34.6239 16.6229C34.5055 16.6802 34.3628 16.7412 34.2008 16.8066C34.2557 16.8189 34.3087 16.8317 34.3616 16.8444C34.3618 16.8443 34.362 16.8442 34.3621 16.8442C34.3622 17.0523 34.3528 17.2634 34.3399 17.4754ZM10.0595 21.1539C10.0845 21.0614 10.1109 20.9687 10.145 20.8745C10.3612 20.7816 10.5785 20.6971 10.7975 20.6209C10.7914 20.6743 10.7867 20.7278 10.7814 20.7812C10.536 20.8928 10.2939 21.0148 10.0595 21.1539ZM33.0411 2.56765C32.9276 2.28934 32.7998 2.59733 32.5752 2.33792C32.5211 2.58415 32.4634 2.82377 32.3959 3.06309C32.5809 3.10573 32.6653 3.04174 32.8006 3.19769C32.825 3.11821 32.8468 3.03686 32.868 2.95552C32.8283 2.95151 32.7861 2.9497 32.7486 2.94639C32.8028 2.71689 33.1461 2.88334 33.0421 2.56761C33.0418 2.56762 33.0414 2.56763 33.0411 2.56765ZM30.568 2.03414C30.4324 1.98647 29.8668 1.83135 29.7812 1.93343C29.5126 2.26445 31.0996 2.13948 29.921 2.3786C29.9239 2.42785 29.9163 2.4756 29.914 2.52411C30.123 2.55144 30.3296 2.58004 30.533 2.6122C30.5391 2.41852 30.5638 2.22897 30.568 2.03414ZM36.6537 13.9196C36.7042 13.792 36.7308 13.3109 36.6535 13.0713C36.6162 12.9308 36.5549 12.8689 36.4601 12.9845C36.4502 12.9967 36.4452 13.0158 36.4439 13.0404C36.4396 13.192 36.6161 13.586 36.5722 13.728C36.5408 13.8314 36.3975 13.678 36.4134 13.8958C36.49 13.9042 36.574 13.9179 36.6533 13.9189C36.6535 13.9191 36.6536 13.9193 36.6537 13.9196ZM37.5315 14.5672C37.5662 14.328 37.5836 14.0839 37.5983 13.843C37.3721 13.9741 37.4162 14.3302 37.1406 14.2795C37.1359 14.2132 37.1303 14.1483 37.1241 14.0826C37.1943 14.0501 37.2644 14.017 37.3341 13.9833C37.2274 13.7557 37.1322 13.8617 37.2417 13.5074C36.7841 13.6553 36.5748 13.6283 36.8366 14.3173C36.6434 14.1514 35.9062 14.0512 36.3233 14.5022C36.3997 14.5901 36.5371 14.3667 36.5522 14.3675C36.7513 14.3826 36.83 14.5578 37.0192 14.5686C37.1053 14.5732 37.1495 14.4127 37.2676 14.4183C37.3257 14.4209 37.4373 14.6219 37.5315 14.5672ZM36.4519 14.7095C36.3599 14.6111 36.0254 14.7301 36.0106 14.928C35.983 15.2448 36.409 14.8891 36.4519 14.7095ZM10.0583 21.1548C10.0587 21.1545 10.0591 21.1542 10.0595 21.1539C10.0594 21.1542 10.0593 21.1546 10.0592 21.1549C10.0589 21.1549 10.0586 21.1549 10.0583 21.1548ZM31.2672 2.2557C31.0918 2.32955 30.8575 2.28731 30.8569 2.44846C30.784 2.40834 30.7053 2.36894 30.631 2.33025C30.6272 2.37819 30.624 2.42631 30.6202 2.47376C30.853 2.52625 31.078 2.58476 31.2936 2.65128C31.2859 2.51962 31.2818 2.38816 31.2672 2.2557ZM28.5676 1.97785C28.2434 1.95418 28.5106 2.17802 28.4369 2.28143C28.3627 2.38481 28.0753 2.29291 28.1058 2.44439C28.2963 2.45446 28.4955 2.46494 28.6907 2.47495C28.6437 2.30979 28.6117 2.14195 28.5669 1.97783C28.5672 1.97784 28.5674 1.97784 28.5676 1.97785ZM28.636 18.7168C28.8519 18.7306 28.796 18.9098 29.1749 18.6475C29.1746 18.6475 29.1743 18.6476 29.174 18.6476C28.7593 18.5831 28.2421 18.5369 27.8173 18.7222C28.1097 18.8617 28.2959 18.6939 28.636 18.7168ZM33.2386 3.31527C33.3831 3.26418 33.1845 2.95322 33.0562 3.01824C32.8593 3.12034 33.0217 3.38522 33.2386 3.31527ZM19.8942 20.5392C19.5823 20.9639 20.2442 21.3781 20.8967 21.1483C20.9525 21.1281 20.5181 21.0219 20.6407 20.9363C20.6536 20.9278 20.8884 20.9252 20.945 20.8659C21.0007 20.8066 20.9326 20.6788 21.0258 20.619C21.1879 20.5145 21.5781 20.6741 21.6985 20.5424C21.715 20.5247 21.4685 20.3607 21.4543 20.3547C21.2075 20.2602 20.9844 20.5009 20.9472 20.5044C20.7535 20.5221 20.7746 20.3412 20.7235 20.3016C20.6278 20.227 20.4687 20.3151 20.4571 20.3099C20.1563 20.1684 20.8274 20.1772 20.9156 20.1082C21.1508 19.9215 20.9164 19.7699 21.4977 19.6433C21.5543 19.6313 22.2189 19.6111 21.3707 19.4492C23.0043 18.9543 20.5271 19.2481 20.2628 19.3597C20.1408 19.4093 20.3386 19.5698 20.2675 19.651C20.1043 19.8365 19.8148 19.8847 19.8553 20.1312C19.9426 20.6492 20.3049 20.2853 20.574 20.3591C20.5523 20.4739 20.5476 20.5849 20.5021 20.6985C20.5732 20.5449 19.9169 20.5068 19.8941 20.5381C19.8941 20.5385 19.8942 20.5388 19.8942 20.5392ZM24.0235 19.7497C24.3989 19.8914 24.3563 19.5634 24.7009 19.7358C24.9786 19.4257 24.4032 19.4738 24.3318 19.4597C24.0197 19.3987 24.0121 19.0766 23.6981 19.1888C23.8134 19.3747 23.9139 19.5632 24.0235 19.7497ZM20.8037 19.7551C21.044 19.5756 20.5998 19.6012 20.5802 19.5704C20.3665 19.2418 21.6989 19.2404 20.8037 19.7551ZM37.5416 12.6757C37.5723 12.5531 37.402 12.607 37.3726 12.4902C37.343 12.3723 37.5372 12.021 37.4374 12.0149C37.3375 12.0093 36.974 12.6516 37.0271 11.9576C36.9682 11.972 36.9282 11.9577 36.8765 11.961C36.8456 12.1479 36.8125 12.3389 36.7811 12.5301C36.9567 12.4495 37.1409 12.3695 37.3105 12.2943C37.4203 12.4202 37.2483 12.4552 37.2475 12.4605C37.2476 12.4606 37.2478 12.4606 37.248 12.4606C37.2291 12.662 37.4733 12.9512 37.5416 12.6757ZM31.725 18.5281C31.7582 18.9289 31.9551 18.4405 32.0458 18.3693C32.1411 18.2991 32.3173 18.4086 32.2238 18.254C32.0352 18.1796 31.7255 18.4838 31.7251 18.5286C31.725 18.5284 31.725 18.5283 31.725 18.5281ZM25.9724 19.6152C26.2733 19.48 26.2135 19.3825 26.606 19.4575C26.5807 19.363 26.555 19.2664 26.5298 19.1734C26.2259 19.206 26.2814 19.4813 25.9128 19.4138C25.8537 19.4034 25.9433 19.1795 25.7171 19.2609C25.7124 19.2633 25.7073 19.2662 25.7016 19.2694C25.709 19.2818 25.7163 19.2945 25.7234 19.3072C25.807 19.4056 25.8914 19.5129 25.9724 19.6152ZM27.4596 19.0838C27.1145 19.1384 26.922 19.9479 27.5282 19.5233C27.6179 19.4596 27.7187 19.0418 27.4596 19.0838ZM36.7585 15.7607C37.0058 15.2249 36.6339 15.7973 36.4599 15.8842C36.8953 14.6031 36.4379 16.0433 36.0066 15.9934C36.0413 16.1894 36.1385 16.5878 36.3527 16.3016C36.4409 16.1822 36.3103 16.1797 36.3145 16.172C36.4533 15.9419 36.6183 16.0528 36.7585 15.7607ZM23.3845 19.7953C23.4072 19.7885 23.366 19.6549 23.4375 19.625C23.508 19.5953 23.6768 19.683 23.6896 19.5995C23.7017 19.5155 23.3717 19.4642 23.2712 19.5291C23.1745 19.5945 23.1791 19.8557 23.3845 19.7953ZM25.6983 20.0059C25.9631 19.8777 25.4657 19.4334 25.4034 19.4369C24.858 19.5009 25.695 19.8535 25.6983 20.0059ZM36.9123 17.4107C36.9214 17.3742 36.9282 17.3395 36.9331 17.3068C36.9662 16.8148 36.646 16.8413 36.3093 16.9949C36.1935 17.0405 36.0753 17.0823 35.9687 17.1116C35.9833 17.1806 35.9916 17.254 35.9954 17.3276C35.9609 17.1279 35.8965 16.9302 35.8289 16.8759C35.7484 16.8237 35.7627 16.8766 35.567 17.2302C35.9295 17.0046 35.7361 17.3043 35.7374 17.3253C35.9086 17.5709 36.1049 17.5154 36.2943 17.4176C36.4831 17.3266 36.6621 17.1821 36.9119 17.4114C36.912 17.4112 36.9122 17.4109 36.9123 17.4107ZM22.3957 19.6937C22.0779 19.7088 21.2575 19.8502 21.6549 20.0922C21.9004 19.959 22.1497 19.8261 22.3957 19.6937ZM36.7966 5.70559C36.8016 5.40709 36.6839 5.19975 36.5225 4.92602C36.4706 5.28124 36.3579 5.12783 36.2651 5.06908C36.1243 4.97838 36.3012 5.28709 36.2891 5.29504C36.1056 5.38817 35.9682 5.20555 36.2221 5.6556C36.0974 5.57809 35.9732 5.50249 35.8493 5.42485C36.0316 5.77537 35.9588 5.9206 35.9366 6.21945C36.1695 5.8126 36.105 6.2144 36.4197 6.37135C36.5772 6.44988 36.7938 5.85769 36.7962 5.70474C36.7963 5.70502 36.7965 5.70531 36.7966 5.70559ZM37.3332 16.7378C37.3005 16.6381 37.2421 16.5322 37.1977 16.4312C37.2243 16.3544 37.2512 16.2782 37.2766 16.2015C37.339 16.2183 37.4033 16.2378 37.4643 16.2517C37.5247 16.1602 37.4262 16.1633 37.4313 16.1308C37.4316 16.1309 37.432 16.1311 37.4323 16.1312C37.5042 15.664 37.5797 15.5014 37.8858 15.2193C37.7005 15.1568 37.5153 15.0942 37.33 15.0316C37.3228 15.1113 37.3138 15.1917 37.3042 15.2713C37.3887 15.3461 37.4724 15.4229 37.5557 15.4997C37.4687 15.5663 37.3816 15.6307 37.2938 15.6935C37.3013 15.7759 37.3041 15.8726 37.3131 15.9457C36.6693 16.0654 37.3297 15.4519 37.1151 15.3609C36.9859 15.3079 36.6818 16.053 36.7178 16.2019C36.7238 16.2236 37.169 16.2309 36.8491 16.4172C36.7976 16.4476 35.9984 16.0823 36.5004 16.6812C36.5709 16.7672 37.1341 16.8614 37.3332 16.7378ZM38.6092 13.8024C38.2664 14.0071 38.3689 13.6279 38.4334 13.3332C38.4895 13.0886 38.5338 12.902 38.2677 13.2088C38.043 12.9637 38.0405 13.0016 37.7819 13.1774C37.7588 13.1929 37.7102 13.0371 37.6995 13.0481C37.655 13.0989 37.6259 13.1559 37.6016 13.2108C37.5418 13.344 37.5091 13.4594 37.347 13.433C37.3504 13.4869 37.353 13.536 37.3557 13.5898C37.6074 13.4127 37.6916 13.7802 37.8409 13.9559C37.9092 14.0356 37.964 13.8959 38.0243 13.9635C38.0467 13.989 37.9511 14.1808 38.0228 14.2059C38.1861 14.2617 38.4439 14.1836 38.613 13.9787C38.6132 13.9788 38.6134 13.9788 38.6135 13.9788C38.6137 13.9191 38.6105 13.8618 38.6092 13.8024ZM30.9529 19.9143C30.835 19.6163 30.5064 19.57 31.0906 19.3385C31.0527 19.2817 31.0142 19.2254 30.9761 19.1686C30.875 19.1874 30.7759 19.206 30.6719 19.2257C30.4973 20.171 29.773 19.2664 30.2464 19.8343C30.2978 19.896 30.5134 19.778 30.3208 20.0073C30.3212 20.0074 30.3215 20.0075 30.3218 20.0076C30.6255 19.894 30.6558 19.7809 30.9529 19.9143ZM33.1602 19.2497C33.6694 18.3959 32.0522 19.2014 32.3646 19.2732C32.4013 19.2913 33.1171 18.9396 33.1602 19.2497ZM27.0642 20.8582C27.4111 20.8311 27.3954 20.4769 27.3459 20.3544C27.2971 20.2316 27.0716 20.3865 27.039 20.3698C26.9313 20.3151 27.1392 20.248 26.9991 20.1721C26.9528 20.1473 26.338 20.0893 26.312 20.1085C26.1695 20.2105 26.4264 20.4737 26.3866 20.5121C26.2585 20.6371 26.0494 20.5106 26.0291 20.6698C25.9849 21.0088 26.2918 20.6197 26.3532 20.6073C26.5332 20.5704 26.5387 20.7574 26.679 20.779C26.8193 20.8007 26.9025 20.7274 27.025 20.7271C27.066 20.727 27.0465 20.859 27.0642 20.8582ZM28.1218 19.9823C27.7934 20.295 28.7158 20.4679 28.8147 20.3864C29.0933 20.1567 28.2751 19.8364 28.1218 19.9823ZM37.5016 14.7865C37.5878 15.1688 37.9715 14.4516 37.9383 14.2057C37.8525 14.2335 37.4739 14.6618 37.5016 14.7865ZM36.7717 17.6308C36.9292 17.2783 36.3065 17.4683 36.1371 17.6168C36.2164 17.9325 36.2922 17.7972 36.429 17.6623C36.5624 17.5214 36.6236 17.9015 36.7717 17.6308ZM23.248 20.8225C23.3139 20.8245 24.363 20.5438 23.7508 20.4703C23.7017 20.465 22.9628 20.5368 22.9104 20.5833C22.8015 20.6772 23.0771 20.8167 23.248 20.8225ZM35.5774 19.0456C35.6407 18.7437 35.7948 18.6668 35.5196 18.479C35.5193 18.4791 35.5191 18.4792 35.5189 18.4794C35.8619 18.2054 36.1966 18.6804 36.2888 18.6082C36.5917 18.3379 36.041 18.2128 36.1374 17.9657C35.8052 18.3687 35.7621 18.0414 35.4485 18.1928C35.3792 18.2262 35.1639 18.5119 35.1615 18.6274C35.1602 18.7441 35.4377 18.9728 35.5774 19.0456ZM21.7576 20.9481C22.1191 21.0269 22.4254 20.6107 21.9294 20.5687C21.6855 20.5482 21.5382 20.9003 21.7576 20.9481ZM30.1593 0.583915C30.2105 0.692534 30.2617 0.800977 30.3134 0.909216C30.1797 0.925909 30.042 0.944503 29.9088 0.964665C30.0155 0.935965 30.1223 0.908603 30.2321 0.88239C29.9797 0.830681 29.8749 0.63415 30.1587 0.583877C30.1589 0.58389 30.1591 0.583903 30.1593 0.583915ZM21.2715 0.465287C21.1548 0.36941 20.9471 0.697683 20.9787 0.720398C21.2009 0.889403 21.4347 0.598067 21.2715 0.465287ZM38.5603 14.5425C38.7072 14.1094 38.1396 14.3049 38.0401 14.5478C38.176 14.4124 38.4728 14.7854 38.5603 14.5425ZM24.4086 0.423109C24.4458 0.467096 24.4833 0.511105 24.5249 0.555204C24.3939 0.493941 24.3712 0.452871 24.4086 0.423109ZM23.4345 21.2672C23.4999 21.3039 23.9634 21.3174 24.0272 21.266C24.1533 21.1586 23.7789 20.8914 23.5681 20.9869C23.5458 20.9972 23.37 21.2305 23.4355 21.2672C23.4352 21.2672 23.4349 21.2672 23.4345 21.2672ZM29.5909 0.363975C29.5915 0.368893 29.591 0.373552 29.5895 0.377815C29.5901 0.373265 29.5901 0.368539 29.5909 0.363975ZM11.8213 1.73463C11.8265 1.74121 11.8305 1.74816 11.8327 1.75539C11.8293 1.74874 11.8247 1.74207 11.8213 1.73463ZM26.815 21.4564C27.0198 21.9241 27.3476 21.627 27.0403 21.4184C27.0231 21.4076 26.8516 21.4532 26.815 21.4564Z" fill="var(--stroke-0, #970606)"/>
</svg>
